%TF.GenerationSoftware,KiCad,Pcbnew,9.0.5*%
%TF.CreationDate,2025-11-01T14:32:35+06:00*%
%TF.ProjectId,power_supply_breadboard,706f7765-725f-4737-9570-706c795f6272,1*%
%TF.SameCoordinates,Original*%
%TF.FileFunction,Soldermask,Top*%
%TF.FilePolarity,Negative*%
%FSLAX46Y46*%
G04 Gerber Fmt 4.6, Leading zero omitted, Abs format (unit mm)*
G04 Created by KiCad (PCBNEW 9.0.5) date 2025-11-01 14:32:35*
%MOMM*%
%LPD*%
G01*
G04 APERTURE LIST*
G04 Aperture macros list*
%AMRoundRect*
0 Rectangle with rounded corners*
0 $1 Rounding radius*
0 $2 $3 $4 $5 $6 $7 $8 $9 X,Y pos of 4 corners*
0 Add a 4 corners polygon primitive as box body*
4,1,4,$2,$3,$4,$5,$6,$7,$8,$9,$2,$3,0*
0 Add four circle primitives for the rounded corners*
1,1,$1+$1,$2,$3*
1,1,$1+$1,$4,$5*
1,1,$1+$1,$6,$7*
1,1,$1+$1,$8,$9*
0 Add four rect primitives between the rounded corners*
20,1,$1+$1,$2,$3,$4,$5,0*
20,1,$1+$1,$4,$5,$6,$7,0*
20,1,$1+$1,$6,$7,$8,$9,0*
20,1,$1+$1,$8,$9,$2,$3,0*%
G04 Aperture macros list end*
%ADD10C,0.100000*%
%ADD11C,0.150000*%
%ADD12C,0.300000*%
%ADD13C,0.400000*%
%ADD14RoundRect,0.250001X-1.149999X-1.149999X1.149999X-1.149999X1.149999X1.149999X-1.149999X1.149999X0*%
%ADD15C,2.800000*%
%ADD16R,1.700000X1.700000*%
%ADD17C,1.700000*%
%ADD18R,1.905000X2.000000*%
%ADD19O,1.905000X2.000000*%
%ADD20C,1.400000*%
%ADD21C,1.600000*%
%ADD22R,3.500000X3.500000*%
%ADD23RoundRect,0.750000X-0.750000X-1.000000X0.750000X-1.000000X0.750000X1.000000X-0.750000X1.000000X0*%
%ADD24RoundRect,0.875000X-0.875000X-0.875000X0.875000X-0.875000X0.875000X0.875000X-0.875000X0.875000X0*%
%ADD25R,1.900000X1.900000*%
%ADD26C,1.900000*%
%ADD27R,1.800000X1.800000*%
%ADD28C,1.800000*%
G04 APERTURE END LIST*
D10*
D11*
X177002200Y-166007200D02*
X285002200Y-166007200D01*
X285002200Y-198007200D01*
X177002200Y-198007200D01*
X177002200Y-166007200D01*
D10*
D11*
X10000000Y-10000000D02*
X287002200Y-10000000D01*
X287002200Y-200007200D01*
X10000000Y-200007200D01*
X10000000Y-10000000D01*
D10*
D11*
X12000000Y-12000000D02*
X285002200Y-12000000D01*
X285002200Y-198007200D01*
X12000000Y-198007200D01*
X12000000Y-12000000D01*
D10*
D11*
X60000000Y-12000000D02*
X60000000Y-10000000D01*
D10*
D11*
X110000000Y-12000000D02*
X110000000Y-10000000D01*
D10*
D11*
X160000000Y-12000000D02*
X160000000Y-10000000D01*
D10*
D11*
X210000000Y-12000000D02*
X210000000Y-10000000D01*
D10*
D11*
X260000000Y-12000000D02*
X260000000Y-10000000D01*
D10*
D11*
X36089160Y-11593604D02*
X35346303Y-11593604D01*
X35717731Y-11593604D02*
X35717731Y-10293604D01*
X35717731Y-10293604D02*
X35593922Y-10479319D01*
X35593922Y-10479319D02*
X35470112Y-10603128D01*
X35470112Y-10603128D02*
X35346303Y-10665033D01*
D10*
D11*
X85346303Y-10417414D02*
X85408207Y-10355509D01*
X85408207Y-10355509D02*
X85532017Y-10293604D01*
X85532017Y-10293604D02*
X85841541Y-10293604D01*
X85841541Y-10293604D02*
X85965350Y-10355509D01*
X85965350Y-10355509D02*
X86027255Y-10417414D01*
X86027255Y-10417414D02*
X86089160Y-10541223D01*
X86089160Y-10541223D02*
X86089160Y-10665033D01*
X86089160Y-10665033D02*
X86027255Y-10850747D01*
X86027255Y-10850747D02*
X85284398Y-11593604D01*
X85284398Y-11593604D02*
X86089160Y-11593604D01*
D10*
D11*
X135284398Y-10293604D02*
X136089160Y-10293604D01*
X136089160Y-10293604D02*
X135655826Y-10788842D01*
X135655826Y-10788842D02*
X135841541Y-10788842D01*
X135841541Y-10788842D02*
X135965350Y-10850747D01*
X135965350Y-10850747D02*
X136027255Y-10912652D01*
X136027255Y-10912652D02*
X136089160Y-11036461D01*
X136089160Y-11036461D02*
X136089160Y-11345985D01*
X136089160Y-11345985D02*
X136027255Y-11469795D01*
X136027255Y-11469795D02*
X135965350Y-11531700D01*
X135965350Y-11531700D02*
X135841541Y-11593604D01*
X135841541Y-11593604D02*
X135470112Y-11593604D01*
X135470112Y-11593604D02*
X135346303Y-11531700D01*
X135346303Y-11531700D02*
X135284398Y-11469795D01*
D10*
D11*
X185965350Y-10726938D02*
X185965350Y-11593604D01*
X185655826Y-10231700D02*
X185346303Y-11160271D01*
X185346303Y-11160271D02*
X186151064Y-11160271D01*
D10*
D11*
X236027255Y-10293604D02*
X235408207Y-10293604D01*
X235408207Y-10293604D02*
X235346303Y-10912652D01*
X235346303Y-10912652D02*
X235408207Y-10850747D01*
X235408207Y-10850747D02*
X235532017Y-10788842D01*
X235532017Y-10788842D02*
X235841541Y-10788842D01*
X235841541Y-10788842D02*
X235965350Y-10850747D01*
X235965350Y-10850747D02*
X236027255Y-10912652D01*
X236027255Y-10912652D02*
X236089160Y-11036461D01*
X236089160Y-11036461D02*
X236089160Y-11345985D01*
X236089160Y-11345985D02*
X236027255Y-11469795D01*
X236027255Y-11469795D02*
X235965350Y-11531700D01*
X235965350Y-11531700D02*
X235841541Y-11593604D01*
X235841541Y-11593604D02*
X235532017Y-11593604D01*
X235532017Y-11593604D02*
X235408207Y-11531700D01*
X235408207Y-11531700D02*
X235346303Y-11469795D01*
D10*
D11*
X285965350Y-10293604D02*
X285717731Y-10293604D01*
X285717731Y-10293604D02*
X285593922Y-10355509D01*
X285593922Y-10355509D02*
X285532017Y-10417414D01*
X285532017Y-10417414D02*
X285408207Y-10603128D01*
X285408207Y-10603128D02*
X285346303Y-10850747D01*
X285346303Y-10850747D02*
X285346303Y-11345985D01*
X285346303Y-11345985D02*
X285408207Y-11469795D01*
X285408207Y-11469795D02*
X285470112Y-11531700D01*
X285470112Y-11531700D02*
X285593922Y-11593604D01*
X285593922Y-11593604D02*
X285841541Y-11593604D01*
X285841541Y-11593604D02*
X285965350Y-11531700D01*
X285965350Y-11531700D02*
X286027255Y-11469795D01*
X286027255Y-11469795D02*
X286089160Y-11345985D01*
X286089160Y-11345985D02*
X286089160Y-11036461D01*
X286089160Y-11036461D02*
X286027255Y-10912652D01*
X286027255Y-10912652D02*
X285965350Y-10850747D01*
X285965350Y-10850747D02*
X285841541Y-10788842D01*
X285841541Y-10788842D02*
X285593922Y-10788842D01*
X285593922Y-10788842D02*
X285470112Y-10850747D01*
X285470112Y-10850747D02*
X285408207Y-10912652D01*
X285408207Y-10912652D02*
X285346303Y-11036461D01*
D10*
D11*
X60000000Y-198007200D02*
X60000000Y-200007200D01*
D10*
D11*
X110000000Y-198007200D02*
X110000000Y-200007200D01*
D10*
D11*
X160000000Y-198007200D02*
X160000000Y-200007200D01*
D10*
D11*
X210000000Y-198007200D02*
X210000000Y-200007200D01*
D10*
D11*
X260000000Y-198007200D02*
X260000000Y-200007200D01*
D10*
D11*
X36089160Y-199600804D02*
X35346303Y-199600804D01*
X35717731Y-199600804D02*
X35717731Y-198300804D01*
X35717731Y-198300804D02*
X35593922Y-198486519D01*
X35593922Y-198486519D02*
X35470112Y-198610328D01*
X35470112Y-198610328D02*
X35346303Y-198672233D01*
D10*
D11*
X85346303Y-198424614D02*
X85408207Y-198362709D01*
X85408207Y-198362709D02*
X85532017Y-198300804D01*
X85532017Y-198300804D02*
X85841541Y-198300804D01*
X85841541Y-198300804D02*
X85965350Y-198362709D01*
X85965350Y-198362709D02*
X86027255Y-198424614D01*
X86027255Y-198424614D02*
X86089160Y-198548423D01*
X86089160Y-198548423D02*
X86089160Y-198672233D01*
X86089160Y-198672233D02*
X86027255Y-198857947D01*
X86027255Y-198857947D02*
X85284398Y-199600804D01*
X85284398Y-199600804D02*
X86089160Y-199600804D01*
D10*
D11*
X135284398Y-198300804D02*
X136089160Y-198300804D01*
X136089160Y-198300804D02*
X135655826Y-198796042D01*
X135655826Y-198796042D02*
X135841541Y-198796042D01*
X135841541Y-198796042D02*
X135965350Y-198857947D01*
X135965350Y-198857947D02*
X136027255Y-198919852D01*
X136027255Y-198919852D02*
X136089160Y-199043661D01*
X136089160Y-199043661D02*
X136089160Y-199353185D01*
X136089160Y-199353185D02*
X136027255Y-199476995D01*
X136027255Y-199476995D02*
X135965350Y-199538900D01*
X135965350Y-199538900D02*
X135841541Y-199600804D01*
X135841541Y-199600804D02*
X135470112Y-199600804D01*
X135470112Y-199600804D02*
X135346303Y-199538900D01*
X135346303Y-199538900D02*
X135284398Y-199476995D01*
D10*
D11*
X185965350Y-198734138D02*
X185965350Y-199600804D01*
X185655826Y-198238900D02*
X185346303Y-199167471D01*
X185346303Y-199167471D02*
X186151064Y-199167471D01*
D10*
D11*
X236027255Y-198300804D02*
X235408207Y-198300804D01*
X235408207Y-198300804D02*
X235346303Y-198919852D01*
X235346303Y-198919852D02*
X235408207Y-198857947D01*
X235408207Y-198857947D02*
X235532017Y-198796042D01*
X235532017Y-198796042D02*
X235841541Y-198796042D01*
X235841541Y-198796042D02*
X235965350Y-198857947D01*
X235965350Y-198857947D02*
X236027255Y-198919852D01*
X236027255Y-198919852D02*
X236089160Y-199043661D01*
X236089160Y-199043661D02*
X236089160Y-199353185D01*
X236089160Y-199353185D02*
X236027255Y-199476995D01*
X236027255Y-199476995D02*
X235965350Y-199538900D01*
X235965350Y-199538900D02*
X235841541Y-199600804D01*
X235841541Y-199600804D02*
X235532017Y-199600804D01*
X235532017Y-199600804D02*
X235408207Y-199538900D01*
X235408207Y-199538900D02*
X235346303Y-199476995D01*
D10*
D11*
X285965350Y-198300804D02*
X285717731Y-198300804D01*
X285717731Y-198300804D02*
X285593922Y-198362709D01*
X285593922Y-198362709D02*
X285532017Y-198424614D01*
X285532017Y-198424614D02*
X285408207Y-198610328D01*
X285408207Y-198610328D02*
X285346303Y-198857947D01*
X285346303Y-198857947D02*
X285346303Y-199353185D01*
X285346303Y-199353185D02*
X285408207Y-199476995D01*
X285408207Y-199476995D02*
X285470112Y-199538900D01*
X285470112Y-199538900D02*
X285593922Y-199600804D01*
X285593922Y-199600804D02*
X285841541Y-199600804D01*
X285841541Y-199600804D02*
X285965350Y-199538900D01*
X285965350Y-199538900D02*
X286027255Y-199476995D01*
X286027255Y-199476995D02*
X286089160Y-199353185D01*
X286089160Y-199353185D02*
X286089160Y-199043661D01*
X286089160Y-199043661D02*
X286027255Y-198919852D01*
X286027255Y-198919852D02*
X285965350Y-198857947D01*
X285965350Y-198857947D02*
X285841541Y-198796042D01*
X285841541Y-198796042D02*
X285593922Y-198796042D01*
X285593922Y-198796042D02*
X285470112Y-198857947D01*
X285470112Y-198857947D02*
X285408207Y-198919852D01*
X285408207Y-198919852D02*
X285346303Y-199043661D01*
D10*
D11*
X10000000Y-60000000D02*
X12000000Y-60000000D01*
D10*
D11*
X10000000Y-110000000D02*
X12000000Y-110000000D01*
D10*
D11*
X10000000Y-160000000D02*
X12000000Y-160000000D01*
D10*
D11*
X10690476Y-35222176D02*
X11309523Y-35222176D01*
X10566666Y-35593604D02*
X10999999Y-34293604D01*
X10999999Y-34293604D02*
X11433333Y-35593604D01*
D10*
D11*
X11092857Y-84912652D02*
X11278571Y-84974557D01*
X11278571Y-84974557D02*
X11340476Y-85036461D01*
X11340476Y-85036461D02*
X11402380Y-85160271D01*
X11402380Y-85160271D02*
X11402380Y-85345985D01*
X11402380Y-85345985D02*
X11340476Y-85469795D01*
X11340476Y-85469795D02*
X11278571Y-85531700D01*
X11278571Y-85531700D02*
X11154761Y-85593604D01*
X11154761Y-85593604D02*
X10659523Y-85593604D01*
X10659523Y-85593604D02*
X10659523Y-84293604D01*
X10659523Y-84293604D02*
X11092857Y-84293604D01*
X11092857Y-84293604D02*
X11216666Y-84355509D01*
X11216666Y-84355509D02*
X11278571Y-84417414D01*
X11278571Y-84417414D02*
X11340476Y-84541223D01*
X11340476Y-84541223D02*
X11340476Y-84665033D01*
X11340476Y-84665033D02*
X11278571Y-84788842D01*
X11278571Y-84788842D02*
X11216666Y-84850747D01*
X11216666Y-84850747D02*
X11092857Y-84912652D01*
X11092857Y-84912652D02*
X10659523Y-84912652D01*
D10*
D11*
X11402380Y-135469795D02*
X11340476Y-135531700D01*
X11340476Y-135531700D02*
X11154761Y-135593604D01*
X11154761Y-135593604D02*
X11030952Y-135593604D01*
X11030952Y-135593604D02*
X10845238Y-135531700D01*
X10845238Y-135531700D02*
X10721428Y-135407890D01*
X10721428Y-135407890D02*
X10659523Y-135284080D01*
X10659523Y-135284080D02*
X10597619Y-135036461D01*
X10597619Y-135036461D02*
X10597619Y-134850747D01*
X10597619Y-134850747D02*
X10659523Y-134603128D01*
X10659523Y-134603128D02*
X10721428Y-134479319D01*
X10721428Y-134479319D02*
X10845238Y-134355509D01*
X10845238Y-134355509D02*
X11030952Y-134293604D01*
X11030952Y-134293604D02*
X11154761Y-134293604D01*
X11154761Y-134293604D02*
X11340476Y-134355509D01*
X11340476Y-134355509D02*
X11402380Y-134417414D01*
D10*
D11*
X10659523Y-185593604D02*
X10659523Y-184293604D01*
X10659523Y-184293604D02*
X10969047Y-184293604D01*
X10969047Y-184293604D02*
X11154761Y-184355509D01*
X11154761Y-184355509D02*
X11278571Y-184479319D01*
X11278571Y-184479319D02*
X11340476Y-184603128D01*
X11340476Y-184603128D02*
X11402380Y-184850747D01*
X11402380Y-184850747D02*
X11402380Y-185036461D01*
X11402380Y-185036461D02*
X11340476Y-185284080D01*
X11340476Y-185284080D02*
X11278571Y-185407890D01*
X11278571Y-185407890D02*
X11154761Y-185531700D01*
X11154761Y-185531700D02*
X10969047Y-185593604D01*
X10969047Y-185593604D02*
X10659523Y-185593604D01*
D10*
D11*
X287002200Y-60000000D02*
X285002200Y-60000000D01*
D10*
D11*
X287002200Y-110000000D02*
X285002200Y-110000000D01*
D10*
D11*
X287002200Y-160000000D02*
X285002200Y-160000000D01*
D10*
D11*
X285692676Y-35222176D02*
X286311723Y-35222176D01*
X285568866Y-35593604D02*
X286002199Y-34293604D01*
X286002199Y-34293604D02*
X286435533Y-35593604D01*
D10*
D11*
X286095057Y-84912652D02*
X286280771Y-84974557D01*
X286280771Y-84974557D02*
X286342676Y-85036461D01*
X286342676Y-85036461D02*
X286404580Y-85160271D01*
X286404580Y-85160271D02*
X286404580Y-85345985D01*
X286404580Y-85345985D02*
X286342676Y-85469795D01*
X286342676Y-85469795D02*
X286280771Y-85531700D01*
X286280771Y-85531700D02*
X286156961Y-85593604D01*
X286156961Y-85593604D02*
X285661723Y-85593604D01*
X285661723Y-85593604D02*
X285661723Y-84293604D01*
X285661723Y-84293604D02*
X286095057Y-84293604D01*
X286095057Y-84293604D02*
X286218866Y-84355509D01*
X286218866Y-84355509D02*
X286280771Y-84417414D01*
X286280771Y-84417414D02*
X286342676Y-84541223D01*
X286342676Y-84541223D02*
X286342676Y-84665033D01*
X286342676Y-84665033D02*
X286280771Y-84788842D01*
X286280771Y-84788842D02*
X286218866Y-84850747D01*
X286218866Y-84850747D02*
X286095057Y-84912652D01*
X286095057Y-84912652D02*
X285661723Y-84912652D01*
D10*
D11*
X286404580Y-135469795D02*
X286342676Y-135531700D01*
X286342676Y-135531700D02*
X286156961Y-135593604D01*
X286156961Y-135593604D02*
X286033152Y-135593604D01*
X286033152Y-135593604D02*
X285847438Y-135531700D01*
X285847438Y-135531700D02*
X285723628Y-135407890D01*
X285723628Y-135407890D02*
X285661723Y-135284080D01*
X285661723Y-135284080D02*
X285599819Y-135036461D01*
X285599819Y-135036461D02*
X285599819Y-134850747D01*
X285599819Y-134850747D02*
X285661723Y-134603128D01*
X285661723Y-134603128D02*
X285723628Y-134479319D01*
X285723628Y-134479319D02*
X285847438Y-134355509D01*
X285847438Y-134355509D02*
X286033152Y-134293604D01*
X286033152Y-134293604D02*
X286156961Y-134293604D01*
X286156961Y-134293604D02*
X286342676Y-134355509D01*
X286342676Y-134355509D02*
X286404580Y-134417414D01*
D10*
D11*
X285661723Y-185593604D02*
X285661723Y-184293604D01*
X285661723Y-184293604D02*
X285971247Y-184293604D01*
X285971247Y-184293604D02*
X286156961Y-184355509D01*
X286156961Y-184355509D02*
X286280771Y-184479319D01*
X286280771Y-184479319D02*
X286342676Y-184603128D01*
X286342676Y-184603128D02*
X286404580Y-184850747D01*
X286404580Y-184850747D02*
X286404580Y-185036461D01*
X286404580Y-185036461D02*
X286342676Y-185284080D01*
X286342676Y-185284080D02*
X286280771Y-185407890D01*
X286280771Y-185407890D02*
X286156961Y-185531700D01*
X286156961Y-185531700D02*
X285971247Y-185593604D01*
X285971247Y-185593604D02*
X285661723Y-185593604D01*
D10*
D11*
X200458026Y-193793328D02*
X200458026Y-192293328D01*
X200458026Y-192293328D02*
X200815169Y-192293328D01*
X200815169Y-192293328D02*
X201029455Y-192364757D01*
X201029455Y-192364757D02*
X201172312Y-192507614D01*
X201172312Y-192507614D02*
X201243741Y-192650471D01*
X201243741Y-192650471D02*
X201315169Y-192936185D01*
X201315169Y-192936185D02*
X201315169Y-193150471D01*
X201315169Y-193150471D02*
X201243741Y-193436185D01*
X201243741Y-193436185D02*
X201172312Y-193579042D01*
X201172312Y-193579042D02*
X201029455Y-193721900D01*
X201029455Y-193721900D02*
X200815169Y-193793328D01*
X200815169Y-193793328D02*
X200458026Y-193793328D01*
X202600884Y-193793328D02*
X202600884Y-193007614D01*
X202600884Y-193007614D02*
X202529455Y-192864757D01*
X202529455Y-192864757D02*
X202386598Y-192793328D01*
X202386598Y-192793328D02*
X202100884Y-192793328D01*
X202100884Y-192793328D02*
X201958026Y-192864757D01*
X202600884Y-193721900D02*
X202458026Y-193793328D01*
X202458026Y-193793328D02*
X202100884Y-193793328D01*
X202100884Y-193793328D02*
X201958026Y-193721900D01*
X201958026Y-193721900D02*
X201886598Y-193579042D01*
X201886598Y-193579042D02*
X201886598Y-193436185D01*
X201886598Y-193436185D02*
X201958026Y-193293328D01*
X201958026Y-193293328D02*
X202100884Y-193221900D01*
X202100884Y-193221900D02*
X202458026Y-193221900D01*
X202458026Y-193221900D02*
X202600884Y-193150471D01*
X203100884Y-192793328D02*
X203672312Y-192793328D01*
X203315169Y-192293328D02*
X203315169Y-193579042D01*
X203315169Y-193579042D02*
X203386598Y-193721900D01*
X203386598Y-193721900D02*
X203529455Y-193793328D01*
X203529455Y-193793328D02*
X203672312Y-193793328D01*
X204743741Y-193721900D02*
X204600884Y-193793328D01*
X204600884Y-193793328D02*
X204315170Y-193793328D01*
X204315170Y-193793328D02*
X204172312Y-193721900D01*
X204172312Y-193721900D02*
X204100884Y-193579042D01*
X204100884Y-193579042D02*
X204100884Y-193007614D01*
X204100884Y-193007614D02*
X204172312Y-192864757D01*
X204172312Y-192864757D02*
X204315170Y-192793328D01*
X204315170Y-192793328D02*
X204600884Y-192793328D01*
X204600884Y-192793328D02*
X204743741Y-192864757D01*
X204743741Y-192864757D02*
X204815170Y-193007614D01*
X204815170Y-193007614D02*
X204815170Y-193150471D01*
X204815170Y-193150471D02*
X204100884Y-193293328D01*
X205458026Y-193650471D02*
X205529455Y-193721900D01*
X205529455Y-193721900D02*
X205458026Y-193793328D01*
X205458026Y-193793328D02*
X205386598Y-193721900D01*
X205386598Y-193721900D02*
X205458026Y-193650471D01*
X205458026Y-193650471D02*
X205458026Y-193793328D01*
X205458026Y-192864757D02*
X205529455Y-192936185D01*
X205529455Y-192936185D02*
X205458026Y-193007614D01*
X205458026Y-193007614D02*
X205386598Y-192936185D01*
X205386598Y-192936185D02*
X205458026Y-192864757D01*
X205458026Y-192864757D02*
X205458026Y-193007614D01*
X207243741Y-192436185D02*
X207315169Y-192364757D01*
X207315169Y-192364757D02*
X207458027Y-192293328D01*
X207458027Y-192293328D02*
X207815169Y-192293328D01*
X207815169Y-192293328D02*
X207958027Y-192364757D01*
X207958027Y-192364757D02*
X208029455Y-192436185D01*
X208029455Y-192436185D02*
X208100884Y-192579042D01*
X208100884Y-192579042D02*
X208100884Y-192721900D01*
X208100884Y-192721900D02*
X208029455Y-192936185D01*
X208029455Y-192936185D02*
X207172312Y-193793328D01*
X207172312Y-193793328D02*
X208100884Y-193793328D01*
X209029455Y-192293328D02*
X209172312Y-192293328D01*
X209172312Y-192293328D02*
X209315169Y-192364757D01*
X209315169Y-192364757D02*
X209386598Y-192436185D01*
X209386598Y-192436185D02*
X209458026Y-192579042D01*
X209458026Y-192579042D02*
X209529455Y-192864757D01*
X209529455Y-192864757D02*
X209529455Y-193221900D01*
X209529455Y-193221900D02*
X209458026Y-193507614D01*
X209458026Y-193507614D02*
X209386598Y-193650471D01*
X209386598Y-193650471D02*
X209315169Y-193721900D01*
X209315169Y-193721900D02*
X209172312Y-193793328D01*
X209172312Y-193793328D02*
X209029455Y-193793328D01*
X209029455Y-193793328D02*
X208886598Y-193721900D01*
X208886598Y-193721900D02*
X208815169Y-193650471D01*
X208815169Y-193650471D02*
X208743740Y-193507614D01*
X208743740Y-193507614D02*
X208672312Y-193221900D01*
X208672312Y-193221900D02*
X208672312Y-192864757D01*
X208672312Y-192864757D02*
X208743740Y-192579042D01*
X208743740Y-192579042D02*
X208815169Y-192436185D01*
X208815169Y-192436185D02*
X208886598Y-192364757D01*
X208886598Y-192364757D02*
X209029455Y-192293328D01*
X210100883Y-192436185D02*
X210172311Y-192364757D01*
X210172311Y-192364757D02*
X210315169Y-192293328D01*
X210315169Y-192293328D02*
X210672311Y-192293328D01*
X210672311Y-192293328D02*
X210815169Y-192364757D01*
X210815169Y-192364757D02*
X210886597Y-192436185D01*
X210886597Y-192436185D02*
X210958026Y-192579042D01*
X210958026Y-192579042D02*
X210958026Y-192721900D01*
X210958026Y-192721900D02*
X210886597Y-192936185D01*
X210886597Y-192936185D02*
X210029454Y-193793328D01*
X210029454Y-193793328D02*
X210958026Y-193793328D01*
X212315168Y-192293328D02*
X211600882Y-192293328D01*
X211600882Y-192293328D02*
X211529454Y-193007614D01*
X211529454Y-193007614D02*
X211600882Y-192936185D01*
X211600882Y-192936185D02*
X211743740Y-192864757D01*
X211743740Y-192864757D02*
X212100882Y-192864757D01*
X212100882Y-192864757D02*
X212243740Y-192936185D01*
X212243740Y-192936185D02*
X212315168Y-193007614D01*
X212315168Y-193007614D02*
X212386597Y-193150471D01*
X212386597Y-193150471D02*
X212386597Y-193507614D01*
X212386597Y-193507614D02*
X212315168Y-193650471D01*
X212315168Y-193650471D02*
X212243740Y-193721900D01*
X212243740Y-193721900D02*
X212100882Y-193793328D01*
X212100882Y-193793328D02*
X211743740Y-193793328D01*
X211743740Y-193793328D02*
X211600882Y-193721900D01*
X211600882Y-193721900D02*
X211529454Y-193650471D01*
X213029453Y-193221900D02*
X214172311Y-193221900D01*
X215672311Y-193793328D02*
X214815168Y-193793328D01*
X215243739Y-193793328D02*
X215243739Y-192293328D01*
X215243739Y-192293328D02*
X215100882Y-192507614D01*
X215100882Y-192507614D02*
X214958025Y-192650471D01*
X214958025Y-192650471D02*
X214815168Y-192721900D01*
X216600882Y-192293328D02*
X216743739Y-192293328D01*
X216743739Y-192293328D02*
X216886596Y-192364757D01*
X216886596Y-192364757D02*
X216958025Y-192436185D01*
X216958025Y-192436185D02*
X217029453Y-192579042D01*
X217029453Y-192579042D02*
X217100882Y-192864757D01*
X217100882Y-192864757D02*
X217100882Y-193221900D01*
X217100882Y-193221900D02*
X217029453Y-193507614D01*
X217029453Y-193507614D02*
X216958025Y-193650471D01*
X216958025Y-193650471D02*
X216886596Y-193721900D01*
X216886596Y-193721900D02*
X216743739Y-193793328D01*
X216743739Y-193793328D02*
X216600882Y-193793328D01*
X216600882Y-193793328D02*
X216458025Y-193721900D01*
X216458025Y-193721900D02*
X216386596Y-193650471D01*
X216386596Y-193650471D02*
X216315167Y-193507614D01*
X216315167Y-193507614D02*
X216243739Y-193221900D01*
X216243739Y-193221900D02*
X216243739Y-192864757D01*
X216243739Y-192864757D02*
X216315167Y-192579042D01*
X216315167Y-192579042D02*
X216386596Y-192436185D01*
X216386596Y-192436185D02*
X216458025Y-192364757D01*
X216458025Y-192364757D02*
X216600882Y-192293328D01*
X217743738Y-193221900D02*
X218886596Y-193221900D01*
X219458024Y-192293328D02*
X220386596Y-192293328D01*
X220386596Y-192293328D02*
X219886596Y-192864757D01*
X219886596Y-192864757D02*
X220100881Y-192864757D01*
X220100881Y-192864757D02*
X220243739Y-192936185D01*
X220243739Y-192936185D02*
X220315167Y-193007614D01*
X220315167Y-193007614D02*
X220386596Y-193150471D01*
X220386596Y-193150471D02*
X220386596Y-193507614D01*
X220386596Y-193507614D02*
X220315167Y-193650471D01*
X220315167Y-193650471D02*
X220243739Y-193721900D01*
X220243739Y-193721900D02*
X220100881Y-193793328D01*
X220100881Y-193793328D02*
X219672310Y-193793328D01*
X219672310Y-193793328D02*
X219529453Y-193721900D01*
X219529453Y-193721900D02*
X219458024Y-193650471D01*
X221815167Y-193793328D02*
X220958024Y-193793328D01*
X221386595Y-193793328D02*
X221386595Y-192293328D01*
X221386595Y-192293328D02*
X221243738Y-192507614D01*
X221243738Y-192507614D02*
X221100881Y-192650471D01*
X221100881Y-192650471D02*
X220958024Y-192721900D01*
D10*
D11*
X177002200Y-194507200D02*
X285002200Y-194507200D01*
D10*
D11*
X178458026Y-196593328D02*
X178458026Y-195093328D01*
X179315169Y-196593328D02*
X178672312Y-195736185D01*
X179315169Y-195093328D02*
X178458026Y-195950471D01*
X179958026Y-196593328D02*
X179958026Y-195593328D01*
X179958026Y-195093328D02*
X179886598Y-195164757D01*
X179886598Y-195164757D02*
X179958026Y-195236185D01*
X179958026Y-195236185D02*
X180029455Y-195164757D01*
X180029455Y-195164757D02*
X179958026Y-195093328D01*
X179958026Y-195093328D02*
X179958026Y-195236185D01*
X181529455Y-196450471D02*
X181458027Y-196521900D01*
X181458027Y-196521900D02*
X181243741Y-196593328D01*
X181243741Y-196593328D02*
X181100884Y-196593328D01*
X181100884Y-196593328D02*
X180886598Y-196521900D01*
X180886598Y-196521900D02*
X180743741Y-196379042D01*
X180743741Y-196379042D02*
X180672312Y-196236185D01*
X180672312Y-196236185D02*
X180600884Y-195950471D01*
X180600884Y-195950471D02*
X180600884Y-195736185D01*
X180600884Y-195736185D02*
X180672312Y-195450471D01*
X180672312Y-195450471D02*
X180743741Y-195307614D01*
X180743741Y-195307614D02*
X180886598Y-195164757D01*
X180886598Y-195164757D02*
X181100884Y-195093328D01*
X181100884Y-195093328D02*
X181243741Y-195093328D01*
X181243741Y-195093328D02*
X181458027Y-195164757D01*
X181458027Y-195164757D02*
X181529455Y-195236185D01*
X182815170Y-196593328D02*
X182815170Y-195807614D01*
X182815170Y-195807614D02*
X182743741Y-195664757D01*
X182743741Y-195664757D02*
X182600884Y-195593328D01*
X182600884Y-195593328D02*
X182315170Y-195593328D01*
X182315170Y-195593328D02*
X182172312Y-195664757D01*
X182815170Y-196521900D02*
X182672312Y-196593328D01*
X182672312Y-196593328D02*
X182315170Y-196593328D01*
X182315170Y-196593328D02*
X182172312Y-196521900D01*
X182172312Y-196521900D02*
X182100884Y-196379042D01*
X182100884Y-196379042D02*
X182100884Y-196236185D01*
X182100884Y-196236185D02*
X182172312Y-196093328D01*
X182172312Y-196093328D02*
X182315170Y-196021900D01*
X182315170Y-196021900D02*
X182672312Y-196021900D01*
X182672312Y-196021900D02*
X182815170Y-195950471D01*
X184172313Y-196593328D02*
X184172313Y-195093328D01*
X184172313Y-196521900D02*
X184029455Y-196593328D01*
X184029455Y-196593328D02*
X183743741Y-196593328D01*
X183743741Y-196593328D02*
X183600884Y-196521900D01*
X183600884Y-196521900D02*
X183529455Y-196450471D01*
X183529455Y-196450471D02*
X183458027Y-196307614D01*
X183458027Y-196307614D02*
X183458027Y-195879042D01*
X183458027Y-195879042D02*
X183529455Y-195736185D01*
X183529455Y-195736185D02*
X183600884Y-195664757D01*
X183600884Y-195664757D02*
X183743741Y-195593328D01*
X183743741Y-195593328D02*
X184029455Y-195593328D01*
X184029455Y-195593328D02*
X184172313Y-195664757D01*
X186029455Y-195807614D02*
X186529455Y-195807614D01*
X186743741Y-196593328D02*
X186029455Y-196593328D01*
X186029455Y-196593328D02*
X186029455Y-195093328D01*
X186029455Y-195093328D02*
X186743741Y-195093328D01*
X187386598Y-196450471D02*
X187458027Y-196521900D01*
X187458027Y-196521900D02*
X187386598Y-196593328D01*
X187386598Y-196593328D02*
X187315170Y-196521900D01*
X187315170Y-196521900D02*
X187386598Y-196450471D01*
X187386598Y-196450471D02*
X187386598Y-196593328D01*
X188100884Y-196593328D02*
X188100884Y-195093328D01*
X188100884Y-195093328D02*
X188458027Y-195093328D01*
X188458027Y-195093328D02*
X188672313Y-195164757D01*
X188672313Y-195164757D02*
X188815170Y-195307614D01*
X188815170Y-195307614D02*
X188886599Y-195450471D01*
X188886599Y-195450471D02*
X188958027Y-195736185D01*
X188958027Y-195736185D02*
X188958027Y-195950471D01*
X188958027Y-195950471D02*
X188886599Y-196236185D01*
X188886599Y-196236185D02*
X188815170Y-196379042D01*
X188815170Y-196379042D02*
X188672313Y-196521900D01*
X188672313Y-196521900D02*
X188458027Y-196593328D01*
X188458027Y-196593328D02*
X188100884Y-196593328D01*
X189600884Y-196450471D02*
X189672313Y-196521900D01*
X189672313Y-196521900D02*
X189600884Y-196593328D01*
X189600884Y-196593328D02*
X189529456Y-196521900D01*
X189529456Y-196521900D02*
X189600884Y-196450471D01*
X189600884Y-196450471D02*
X189600884Y-196593328D01*
X190243742Y-196164757D02*
X190958028Y-196164757D01*
X190100885Y-196593328D02*
X190600885Y-195093328D01*
X190600885Y-195093328D02*
X191100885Y-196593328D01*
X191600884Y-196450471D02*
X191672313Y-196521900D01*
X191672313Y-196521900D02*
X191600884Y-196593328D01*
X191600884Y-196593328D02*
X191529456Y-196521900D01*
X191529456Y-196521900D02*
X191600884Y-196450471D01*
X191600884Y-196450471D02*
X191600884Y-196593328D01*
X193529456Y-196593328D02*
X193815170Y-196593328D01*
X193815170Y-196593328D02*
X193958027Y-196521900D01*
X193958027Y-196521900D02*
X194029456Y-196450471D01*
X194029456Y-196450471D02*
X194172313Y-196236185D01*
X194172313Y-196236185D02*
X194243742Y-195950471D01*
X194243742Y-195950471D02*
X194243742Y-195379042D01*
X194243742Y-195379042D02*
X194172313Y-195236185D01*
X194172313Y-195236185D02*
X194100885Y-195164757D01*
X194100885Y-195164757D02*
X193958027Y-195093328D01*
X193958027Y-195093328D02*
X193672313Y-195093328D01*
X193672313Y-195093328D02*
X193529456Y-195164757D01*
X193529456Y-195164757D02*
X193458027Y-195236185D01*
X193458027Y-195236185D02*
X193386599Y-195379042D01*
X193386599Y-195379042D02*
X193386599Y-195736185D01*
X193386599Y-195736185D02*
X193458027Y-195879042D01*
X193458027Y-195879042D02*
X193529456Y-195950471D01*
X193529456Y-195950471D02*
X193672313Y-196021900D01*
X193672313Y-196021900D02*
X193958027Y-196021900D01*
X193958027Y-196021900D02*
X194100885Y-195950471D01*
X194100885Y-195950471D02*
X194172313Y-195879042D01*
X194172313Y-195879042D02*
X194243742Y-195736185D01*
X194886598Y-196450471D02*
X194958027Y-196521900D01*
X194958027Y-196521900D02*
X194886598Y-196593328D01*
X194886598Y-196593328D02*
X194815170Y-196521900D01*
X194815170Y-196521900D02*
X194886598Y-196450471D01*
X194886598Y-196450471D02*
X194886598Y-196593328D01*
X195886599Y-195093328D02*
X196029456Y-195093328D01*
X196029456Y-195093328D02*
X196172313Y-195164757D01*
X196172313Y-195164757D02*
X196243742Y-195236185D01*
X196243742Y-195236185D02*
X196315170Y-195379042D01*
X196315170Y-195379042D02*
X196386599Y-195664757D01*
X196386599Y-195664757D02*
X196386599Y-196021900D01*
X196386599Y-196021900D02*
X196315170Y-196307614D01*
X196315170Y-196307614D02*
X196243742Y-196450471D01*
X196243742Y-196450471D02*
X196172313Y-196521900D01*
X196172313Y-196521900D02*
X196029456Y-196593328D01*
X196029456Y-196593328D02*
X195886599Y-196593328D01*
X195886599Y-196593328D02*
X195743742Y-196521900D01*
X195743742Y-196521900D02*
X195672313Y-196450471D01*
X195672313Y-196450471D02*
X195600884Y-196307614D01*
X195600884Y-196307614D02*
X195529456Y-196021900D01*
X195529456Y-196021900D02*
X195529456Y-195664757D01*
X195529456Y-195664757D02*
X195600884Y-195379042D01*
X195600884Y-195379042D02*
X195672313Y-195236185D01*
X195672313Y-195236185D02*
X195743742Y-195164757D01*
X195743742Y-195164757D02*
X195886599Y-195093328D01*
X197029455Y-196450471D02*
X197100884Y-196521900D01*
X197100884Y-196521900D02*
X197029455Y-196593328D01*
X197029455Y-196593328D02*
X196958027Y-196521900D01*
X196958027Y-196521900D02*
X197029455Y-196450471D01*
X197029455Y-196450471D02*
X197029455Y-196593328D01*
X198458027Y-195093328D02*
X197743741Y-195093328D01*
X197743741Y-195093328D02*
X197672313Y-195807614D01*
X197672313Y-195807614D02*
X197743741Y-195736185D01*
X197743741Y-195736185D02*
X197886599Y-195664757D01*
X197886599Y-195664757D02*
X198243741Y-195664757D01*
X198243741Y-195664757D02*
X198386599Y-195736185D01*
X198386599Y-195736185D02*
X198458027Y-195807614D01*
X198458027Y-195807614D02*
X198529456Y-195950471D01*
X198529456Y-195950471D02*
X198529456Y-196307614D01*
X198529456Y-196307614D02*
X198458027Y-196450471D01*
X198458027Y-196450471D02*
X198386599Y-196521900D01*
X198386599Y-196521900D02*
X198243741Y-196593328D01*
X198243741Y-196593328D02*
X197886599Y-196593328D01*
X197886599Y-196593328D02*
X197743741Y-196521900D01*
X197743741Y-196521900D02*
X197672313Y-196450471D01*
D10*
D11*
X177002200Y-191507200D02*
X285002200Y-191507200D01*
D10*
D12*
X264413853Y-193785528D02*
X263913853Y-193071242D01*
X263556710Y-193785528D02*
X263556710Y-192285528D01*
X263556710Y-192285528D02*
X264128139Y-192285528D01*
X264128139Y-192285528D02*
X264270996Y-192356957D01*
X264270996Y-192356957D02*
X264342425Y-192428385D01*
X264342425Y-192428385D02*
X264413853Y-192571242D01*
X264413853Y-192571242D02*
X264413853Y-192785528D01*
X264413853Y-192785528D02*
X264342425Y-192928385D01*
X264342425Y-192928385D02*
X264270996Y-192999814D01*
X264270996Y-192999814D02*
X264128139Y-193071242D01*
X264128139Y-193071242D02*
X263556710Y-193071242D01*
X265628139Y-193714100D02*
X265485282Y-193785528D01*
X265485282Y-193785528D02*
X265199568Y-193785528D01*
X265199568Y-193785528D02*
X265056710Y-193714100D01*
X265056710Y-193714100D02*
X264985282Y-193571242D01*
X264985282Y-193571242D02*
X264985282Y-192999814D01*
X264985282Y-192999814D02*
X265056710Y-192856957D01*
X265056710Y-192856957D02*
X265199568Y-192785528D01*
X265199568Y-192785528D02*
X265485282Y-192785528D01*
X265485282Y-192785528D02*
X265628139Y-192856957D01*
X265628139Y-192856957D02*
X265699568Y-192999814D01*
X265699568Y-192999814D02*
X265699568Y-193142671D01*
X265699568Y-193142671D02*
X264985282Y-193285528D01*
X266199567Y-192785528D02*
X266556710Y-193785528D01*
X266556710Y-193785528D02*
X266913853Y-192785528D01*
X267485281Y-193642671D02*
X267556710Y-193714100D01*
X267556710Y-193714100D02*
X267485281Y-193785528D01*
X267485281Y-193785528D02*
X267413853Y-193714100D01*
X267413853Y-193714100D02*
X267485281Y-193642671D01*
X267485281Y-193642671D02*
X267485281Y-193785528D01*
X267485281Y-192856957D02*
X267556710Y-192928385D01*
X267556710Y-192928385D02*
X267485281Y-192999814D01*
X267485281Y-192999814D02*
X267413853Y-192928385D01*
X267413853Y-192928385D02*
X267485281Y-192856957D01*
X267485281Y-192856957D02*
X267485281Y-192999814D01*
X270128139Y-193785528D02*
X269270996Y-193785528D01*
X269699567Y-193785528D02*
X269699567Y-192285528D01*
X269699567Y-192285528D02*
X269556710Y-192499814D01*
X269556710Y-192499814D02*
X269413853Y-192642671D01*
X269413853Y-192642671D02*
X269270996Y-192714100D01*
D10*
D11*
X178386598Y-193721900D02*
X178600884Y-193793328D01*
X178600884Y-193793328D02*
X178958026Y-193793328D01*
X178958026Y-193793328D02*
X179100884Y-193721900D01*
X179100884Y-193721900D02*
X179172312Y-193650471D01*
X179172312Y-193650471D02*
X179243741Y-193507614D01*
X179243741Y-193507614D02*
X179243741Y-193364757D01*
X179243741Y-193364757D02*
X179172312Y-193221900D01*
X179172312Y-193221900D02*
X179100884Y-193150471D01*
X179100884Y-193150471D02*
X178958026Y-193079042D01*
X178958026Y-193079042D02*
X178672312Y-193007614D01*
X178672312Y-193007614D02*
X178529455Y-192936185D01*
X178529455Y-192936185D02*
X178458026Y-192864757D01*
X178458026Y-192864757D02*
X178386598Y-192721900D01*
X178386598Y-192721900D02*
X178386598Y-192579042D01*
X178386598Y-192579042D02*
X178458026Y-192436185D01*
X178458026Y-192436185D02*
X178529455Y-192364757D01*
X178529455Y-192364757D02*
X178672312Y-192293328D01*
X178672312Y-192293328D02*
X179029455Y-192293328D01*
X179029455Y-192293328D02*
X179243741Y-192364757D01*
X179886597Y-193793328D02*
X179886597Y-192793328D01*
X179886597Y-192293328D02*
X179815169Y-192364757D01*
X179815169Y-192364757D02*
X179886597Y-192436185D01*
X179886597Y-192436185D02*
X179958026Y-192364757D01*
X179958026Y-192364757D02*
X179886597Y-192293328D01*
X179886597Y-192293328D02*
X179886597Y-192436185D01*
X180458026Y-192793328D02*
X181243741Y-192793328D01*
X181243741Y-192793328D02*
X180458026Y-193793328D01*
X180458026Y-193793328D02*
X181243741Y-193793328D01*
X182386598Y-193721900D02*
X182243741Y-193793328D01*
X182243741Y-193793328D02*
X181958027Y-193793328D01*
X181958027Y-193793328D02*
X181815169Y-193721900D01*
X181815169Y-193721900D02*
X181743741Y-193579042D01*
X181743741Y-193579042D02*
X181743741Y-193007614D01*
X181743741Y-193007614D02*
X181815169Y-192864757D01*
X181815169Y-192864757D02*
X181958027Y-192793328D01*
X181958027Y-192793328D02*
X182243741Y-192793328D01*
X182243741Y-192793328D02*
X182386598Y-192864757D01*
X182386598Y-192864757D02*
X182458027Y-193007614D01*
X182458027Y-193007614D02*
X182458027Y-193150471D01*
X182458027Y-193150471D02*
X181743741Y-193293328D01*
X183100883Y-193650471D02*
X183172312Y-193721900D01*
X183172312Y-193721900D02*
X183100883Y-193793328D01*
X183100883Y-193793328D02*
X183029455Y-193721900D01*
X183029455Y-193721900D02*
X183100883Y-193650471D01*
X183100883Y-193650471D02*
X183100883Y-193793328D01*
X183100883Y-192864757D02*
X183172312Y-192936185D01*
X183172312Y-192936185D02*
X183100883Y-193007614D01*
X183100883Y-193007614D02*
X183029455Y-192936185D01*
X183029455Y-192936185D02*
X183100883Y-192864757D01*
X183100883Y-192864757D02*
X183100883Y-193007614D01*
X184886598Y-193364757D02*
X185600884Y-193364757D01*
X184743741Y-193793328D02*
X185243741Y-192293328D01*
X185243741Y-192293328D02*
X185743741Y-193793328D01*
X186886598Y-192793328D02*
X186886598Y-193793328D01*
X186529455Y-192221900D02*
X186172312Y-193293328D01*
X186172312Y-193293328D02*
X187100883Y-193293328D01*
D10*
D11*
X263458026Y-196593328D02*
X263458026Y-195093328D01*
X264815170Y-196593328D02*
X264815170Y-195093328D01*
X264815170Y-196521900D02*
X264672312Y-196593328D01*
X264672312Y-196593328D02*
X264386598Y-196593328D01*
X264386598Y-196593328D02*
X264243741Y-196521900D01*
X264243741Y-196521900D02*
X264172312Y-196450471D01*
X264172312Y-196450471D02*
X264100884Y-196307614D01*
X264100884Y-196307614D02*
X264100884Y-195879042D01*
X264100884Y-195879042D02*
X264172312Y-195736185D01*
X264172312Y-195736185D02*
X264243741Y-195664757D01*
X264243741Y-195664757D02*
X264386598Y-195593328D01*
X264386598Y-195593328D02*
X264672312Y-195593328D01*
X264672312Y-195593328D02*
X264815170Y-195664757D01*
X265529455Y-196450471D02*
X265600884Y-196521900D01*
X265600884Y-196521900D02*
X265529455Y-196593328D01*
X265529455Y-196593328D02*
X265458027Y-196521900D01*
X265458027Y-196521900D02*
X265529455Y-196450471D01*
X265529455Y-196450471D02*
X265529455Y-196593328D01*
X265529455Y-195664757D02*
X265600884Y-195736185D01*
X265600884Y-195736185D02*
X265529455Y-195807614D01*
X265529455Y-195807614D02*
X265458027Y-195736185D01*
X265458027Y-195736185D02*
X265529455Y-195664757D01*
X265529455Y-195664757D02*
X265529455Y-195807614D01*
X267243741Y-195093328D02*
X268243741Y-195093328D01*
X268243741Y-195093328D02*
X267600884Y-196593328D01*
X269886598Y-195021900D02*
X268600884Y-196950471D01*
X270458027Y-196593328D02*
X270743741Y-196593328D01*
X270743741Y-196593328D02*
X270886598Y-196521900D01*
X270886598Y-196521900D02*
X270958027Y-196450471D01*
X270958027Y-196450471D02*
X271100884Y-196236185D01*
X271100884Y-196236185D02*
X271172313Y-195950471D01*
X271172313Y-195950471D02*
X271172313Y-195379042D01*
X271172313Y-195379042D02*
X271100884Y-195236185D01*
X271100884Y-195236185D02*
X271029456Y-195164757D01*
X271029456Y-195164757D02*
X270886598Y-195093328D01*
X270886598Y-195093328D02*
X270600884Y-195093328D01*
X270600884Y-195093328D02*
X270458027Y-195164757D01*
X270458027Y-195164757D02*
X270386598Y-195236185D01*
X270386598Y-195236185D02*
X270315170Y-195379042D01*
X270315170Y-195379042D02*
X270315170Y-195736185D01*
X270315170Y-195736185D02*
X270386598Y-195879042D01*
X270386598Y-195879042D02*
X270458027Y-195950471D01*
X270458027Y-195950471D02*
X270600884Y-196021900D01*
X270600884Y-196021900D02*
X270886598Y-196021900D01*
X270886598Y-196021900D02*
X271029456Y-195950471D01*
X271029456Y-195950471D02*
X271100884Y-195879042D01*
X271100884Y-195879042D02*
X271172313Y-195736185D01*
D10*
D11*
X177002200Y-187507200D02*
X285002200Y-187507200D01*
D10*
D13*
X178693928Y-188211638D02*
X179836785Y-188211638D01*
X179015357Y-190211638D02*
X179265357Y-188211638D01*
X180253452Y-190211638D02*
X180420119Y-188878304D01*
X180503452Y-188211638D02*
X180396309Y-188306876D01*
X180396309Y-188306876D02*
X180479643Y-188402114D01*
X180479643Y-188402114D02*
X180586786Y-188306876D01*
X180586786Y-188306876D02*
X180503452Y-188211638D01*
X180503452Y-188211638D02*
X180479643Y-188402114D01*
X181086786Y-188878304D02*
X181848690Y-188878304D01*
X181455833Y-188211638D02*
X181241548Y-189925923D01*
X181241548Y-189925923D02*
X181312976Y-190116400D01*
X181312976Y-190116400D02*
X181491548Y-190211638D01*
X181491548Y-190211638D02*
X181682024Y-190211638D01*
X182634405Y-190211638D02*
X182455833Y-190116400D01*
X182455833Y-190116400D02*
X182384405Y-189925923D01*
X182384405Y-189925923D02*
X182598690Y-188211638D01*
X184170119Y-190116400D02*
X183967738Y-190211638D01*
X183967738Y-190211638D02*
X183586785Y-190211638D01*
X183586785Y-190211638D02*
X183408214Y-190116400D01*
X183408214Y-190116400D02*
X183336785Y-189925923D01*
X183336785Y-189925923D02*
X183432024Y-189164019D01*
X183432024Y-189164019D02*
X183551071Y-188973542D01*
X183551071Y-188973542D02*
X183753452Y-188878304D01*
X183753452Y-188878304D02*
X184134404Y-188878304D01*
X184134404Y-188878304D02*
X184312976Y-188973542D01*
X184312976Y-188973542D02*
X184384404Y-189164019D01*
X184384404Y-189164019D02*
X184360595Y-189354495D01*
X184360595Y-189354495D02*
X183384404Y-189544971D01*
X185134405Y-190021161D02*
X185217738Y-190116400D01*
X185217738Y-190116400D02*
X185110595Y-190211638D01*
X185110595Y-190211638D02*
X185027262Y-190116400D01*
X185027262Y-190116400D02*
X185134405Y-190021161D01*
X185134405Y-190021161D02*
X185110595Y-190211638D01*
X185265357Y-188973542D02*
X185348690Y-189068780D01*
X185348690Y-189068780D02*
X185241548Y-189164019D01*
X185241548Y-189164019D02*
X185158214Y-189068780D01*
X185158214Y-189068780D02*
X185265357Y-188973542D01*
X185265357Y-188973542D02*
X185241548Y-189164019D01*
X188539167Y-190211638D02*
X187586786Y-190211638D01*
X187586786Y-190211638D02*
X187836786Y-188211638D01*
X189979644Y-190116400D02*
X189777263Y-190211638D01*
X189777263Y-190211638D02*
X189396310Y-190211638D01*
X189396310Y-190211638D02*
X189217739Y-190116400D01*
X189217739Y-190116400D02*
X189146310Y-189925923D01*
X189146310Y-189925923D02*
X189241549Y-189164019D01*
X189241549Y-189164019D02*
X189360596Y-188973542D01*
X189360596Y-188973542D02*
X189562977Y-188878304D01*
X189562977Y-188878304D02*
X189943929Y-188878304D01*
X189943929Y-188878304D02*
X190122501Y-188973542D01*
X190122501Y-188973542D02*
X190193929Y-189164019D01*
X190193929Y-189164019D02*
X190170120Y-189354495D01*
X190170120Y-189354495D02*
X189193929Y-189544971D01*
X191777263Y-190211638D02*
X191908215Y-189164019D01*
X191908215Y-189164019D02*
X191836787Y-188973542D01*
X191836787Y-188973542D02*
X191658215Y-188878304D01*
X191658215Y-188878304D02*
X191277263Y-188878304D01*
X191277263Y-188878304D02*
X191074882Y-188973542D01*
X191789168Y-190116400D02*
X191586787Y-190211638D01*
X191586787Y-190211638D02*
X191110596Y-190211638D01*
X191110596Y-190211638D02*
X190932025Y-190116400D01*
X190932025Y-190116400D02*
X190860596Y-189925923D01*
X190860596Y-189925923D02*
X190884406Y-189735447D01*
X190884406Y-189735447D02*
X191003454Y-189544971D01*
X191003454Y-189544971D02*
X191205835Y-189449733D01*
X191205835Y-189449733D02*
X191682025Y-189449733D01*
X191682025Y-189449733D02*
X191884406Y-189354495D01*
X192729644Y-190211638D02*
X192896311Y-188878304D01*
X192848692Y-189259257D02*
X192967739Y-189068780D01*
X192967739Y-189068780D02*
X193074882Y-188973542D01*
X193074882Y-188973542D02*
X193277263Y-188878304D01*
X193277263Y-188878304D02*
X193467739Y-188878304D01*
X194134406Y-188878304D02*
X193967739Y-190211638D01*
X194110596Y-189068780D02*
X194217739Y-188973542D01*
X194217739Y-188973542D02*
X194420120Y-188878304D01*
X194420120Y-188878304D02*
X194705834Y-188878304D01*
X194705834Y-188878304D02*
X194884406Y-188973542D01*
X194884406Y-188973542D02*
X194955834Y-189164019D01*
X194955834Y-189164019D02*
X194824882Y-190211638D01*
X195777263Y-190211638D02*
X195943930Y-188878304D01*
X196027263Y-188211638D02*
X195920120Y-188306876D01*
X195920120Y-188306876D02*
X196003454Y-188402114D01*
X196003454Y-188402114D02*
X196110597Y-188306876D01*
X196110597Y-188306876D02*
X196027263Y-188211638D01*
X196027263Y-188211638D02*
X196003454Y-188402114D01*
X196896311Y-188878304D02*
X196729644Y-190211638D01*
X196872501Y-189068780D02*
X196979644Y-188973542D01*
X196979644Y-188973542D02*
X197182025Y-188878304D01*
X197182025Y-188878304D02*
X197467739Y-188878304D01*
X197467739Y-188878304D02*
X197646311Y-188973542D01*
X197646311Y-188973542D02*
X197717739Y-189164019D01*
X197717739Y-189164019D02*
X197586787Y-190211638D01*
X199562978Y-188878304D02*
X199360597Y-190497352D01*
X199360597Y-190497352D02*
X199241549Y-190687828D01*
X199241549Y-190687828D02*
X199134406Y-190783066D01*
X199134406Y-190783066D02*
X198932025Y-190878304D01*
X198932025Y-190878304D02*
X198646311Y-190878304D01*
X198646311Y-190878304D02*
X198467740Y-190783066D01*
X199408216Y-190116400D02*
X199205835Y-190211638D01*
X199205835Y-190211638D02*
X198824883Y-190211638D01*
X198824883Y-190211638D02*
X198646311Y-190116400D01*
X198646311Y-190116400D02*
X198562978Y-190021161D01*
X198562978Y-190021161D02*
X198491549Y-189830685D01*
X198491549Y-189830685D02*
X198562978Y-189259257D01*
X198562978Y-189259257D02*
X198682025Y-189068780D01*
X198682025Y-189068780D02*
X198789168Y-188973542D01*
X198789168Y-188973542D02*
X198991549Y-188878304D01*
X198991549Y-188878304D02*
X199372502Y-188878304D01*
X199372502Y-188878304D02*
X199551073Y-188973542D01*
X201872502Y-190211638D02*
X202122502Y-188211638D01*
X203015359Y-190211638D02*
X202301074Y-189068780D01*
X203265359Y-188211638D02*
X201979645Y-189354495D01*
X203872502Y-190211638D02*
X204039169Y-188878304D01*
X204122502Y-188211638D02*
X204015359Y-188306876D01*
X204015359Y-188306876D02*
X204098693Y-188402114D01*
X204098693Y-188402114D02*
X204205836Y-188306876D01*
X204205836Y-188306876D02*
X204122502Y-188211638D01*
X204122502Y-188211638D02*
X204098693Y-188402114D01*
X205991550Y-190021161D02*
X205884407Y-190116400D01*
X205884407Y-190116400D02*
X205586788Y-190211638D01*
X205586788Y-190211638D02*
X205396312Y-190211638D01*
X205396312Y-190211638D02*
X205122502Y-190116400D01*
X205122502Y-190116400D02*
X204955836Y-189925923D01*
X204955836Y-189925923D02*
X204884407Y-189735447D01*
X204884407Y-189735447D02*
X204836788Y-189354495D01*
X204836788Y-189354495D02*
X204872502Y-189068780D01*
X204872502Y-189068780D02*
X205015359Y-188687828D01*
X205015359Y-188687828D02*
X205134407Y-188497352D01*
X205134407Y-188497352D02*
X205348693Y-188306876D01*
X205348693Y-188306876D02*
X205646312Y-188211638D01*
X205646312Y-188211638D02*
X205836788Y-188211638D01*
X205836788Y-188211638D02*
X206110598Y-188306876D01*
X206110598Y-188306876D02*
X206193931Y-188402114D01*
X206801074Y-189640209D02*
X207753455Y-189640209D01*
X206539169Y-190211638D02*
X207455836Y-188211638D01*
X207455836Y-188211638D02*
X207872502Y-190211638D01*
X208539169Y-190211638D02*
X208789169Y-188211638D01*
X208789169Y-188211638D02*
X209265360Y-188211638D01*
X209265360Y-188211638D02*
X209539169Y-188306876D01*
X209539169Y-188306876D02*
X209705836Y-188497352D01*
X209705836Y-188497352D02*
X209777264Y-188687828D01*
X209777264Y-188687828D02*
X209824884Y-189068780D01*
X209824884Y-189068780D02*
X209789169Y-189354495D01*
X209789169Y-189354495D02*
X209646312Y-189735447D01*
X209646312Y-189735447D02*
X209527264Y-189925923D01*
X209527264Y-189925923D02*
X209312979Y-190116400D01*
X209312979Y-190116400D02*
X209015360Y-190211638D01*
X209015360Y-190211638D02*
X208539169Y-190211638D01*
X212039170Y-188878304D02*
X212253455Y-190211638D01*
X212253455Y-190211638D02*
X212753455Y-189259257D01*
X212753455Y-189259257D02*
X213015360Y-190211638D01*
X213015360Y-190211638D02*
X213562979Y-188878304D01*
X214158217Y-190211638D02*
X214324884Y-188878304D01*
X214408217Y-188211638D02*
X214301074Y-188306876D01*
X214301074Y-188306876D02*
X214384408Y-188402114D01*
X214384408Y-188402114D02*
X214491551Y-188306876D01*
X214491551Y-188306876D02*
X214408217Y-188211638D01*
X214408217Y-188211638D02*
X214384408Y-188402114D01*
X214991551Y-188878304D02*
X215753455Y-188878304D01*
X215360598Y-188211638D02*
X215146313Y-189925923D01*
X215146313Y-189925923D02*
X215217741Y-190116400D01*
X215217741Y-190116400D02*
X215396313Y-190211638D01*
X215396313Y-190211638D02*
X215586789Y-190211638D01*
X216253455Y-190211638D02*
X216503455Y-188211638D01*
X217110598Y-190211638D02*
X217241550Y-189164019D01*
X217241550Y-189164019D02*
X217170122Y-188973542D01*
X217170122Y-188973542D02*
X216991550Y-188878304D01*
X216991550Y-188878304D02*
X216705836Y-188878304D01*
X216705836Y-188878304D02*
X216503455Y-188973542D01*
X216503455Y-188973542D02*
X216396312Y-189068780D01*
X220443932Y-190211638D02*
X220574884Y-189164019D01*
X220574884Y-189164019D02*
X220503456Y-188973542D01*
X220503456Y-188973542D02*
X220324884Y-188878304D01*
X220324884Y-188878304D02*
X219943932Y-188878304D01*
X219943932Y-188878304D02*
X219741551Y-188973542D01*
X220455837Y-190116400D02*
X220253456Y-190211638D01*
X220253456Y-190211638D02*
X219777265Y-190211638D01*
X219777265Y-190211638D02*
X219598694Y-190116400D01*
X219598694Y-190116400D02*
X219527265Y-189925923D01*
X219527265Y-189925923D02*
X219551075Y-189735447D01*
X219551075Y-189735447D02*
X219670123Y-189544971D01*
X219670123Y-189544971D02*
X219872504Y-189449733D01*
X219872504Y-189449733D02*
X220348694Y-189449733D01*
X220348694Y-189449733D02*
X220551075Y-189354495D01*
X222836790Y-190116400D02*
X223015361Y-190211638D01*
X223015361Y-190211638D02*
X223396314Y-190211638D01*
X223396314Y-190211638D02*
X223598695Y-190116400D01*
X223598695Y-190116400D02*
X223717742Y-189925923D01*
X223717742Y-189925923D02*
X223729647Y-189830685D01*
X223729647Y-189830685D02*
X223658218Y-189640209D01*
X223658218Y-189640209D02*
X223479647Y-189544971D01*
X223479647Y-189544971D02*
X223193933Y-189544971D01*
X223193933Y-189544971D02*
X223015361Y-189449733D01*
X223015361Y-189449733D02*
X222943933Y-189259257D01*
X222943933Y-189259257D02*
X222955838Y-189164019D01*
X222955838Y-189164019D02*
X223074885Y-188973542D01*
X223074885Y-188973542D02*
X223277266Y-188878304D01*
X223277266Y-188878304D02*
X223562980Y-188878304D01*
X223562980Y-188878304D02*
X223741552Y-188973542D01*
X224539171Y-190211638D02*
X224705838Y-188878304D01*
X224789171Y-188211638D02*
X224682028Y-188306876D01*
X224682028Y-188306876D02*
X224765362Y-188402114D01*
X224765362Y-188402114D02*
X224872505Y-188306876D01*
X224872505Y-188306876D02*
X224789171Y-188211638D01*
X224789171Y-188211638D02*
X224765362Y-188402114D01*
X225491552Y-190211638D02*
X225658219Y-188878304D01*
X225634409Y-189068780D02*
X225741552Y-188973542D01*
X225741552Y-188973542D02*
X225943933Y-188878304D01*
X225943933Y-188878304D02*
X226229647Y-188878304D01*
X226229647Y-188878304D02*
X226408219Y-188973542D01*
X226408219Y-188973542D02*
X226479647Y-189164019D01*
X226479647Y-189164019D02*
X226348695Y-190211638D01*
X226479647Y-189164019D02*
X226598695Y-188973542D01*
X226598695Y-188973542D02*
X226801076Y-188878304D01*
X226801076Y-188878304D02*
X227086790Y-188878304D01*
X227086790Y-188878304D02*
X227265362Y-188973542D01*
X227265362Y-188973542D02*
X227336790Y-189164019D01*
X227336790Y-189164019D02*
X227205838Y-190211638D01*
X228324886Y-188878304D02*
X228074886Y-190878304D01*
X228312981Y-188973542D02*
X228515362Y-188878304D01*
X228515362Y-188878304D02*
X228896314Y-188878304D01*
X228896314Y-188878304D02*
X229074886Y-188973542D01*
X229074886Y-188973542D02*
X229158219Y-189068780D01*
X229158219Y-189068780D02*
X229229648Y-189259257D01*
X229229648Y-189259257D02*
X229158219Y-189830685D01*
X229158219Y-189830685D02*
X229039172Y-190021161D01*
X229039172Y-190021161D02*
X228932029Y-190116400D01*
X228932029Y-190116400D02*
X228729648Y-190211638D01*
X228729648Y-190211638D02*
X228348695Y-190211638D01*
X228348695Y-190211638D02*
X228170124Y-190116400D01*
X230253458Y-190211638D02*
X230074886Y-190116400D01*
X230074886Y-190116400D02*
X230003458Y-189925923D01*
X230003458Y-189925923D02*
X230217743Y-188211638D01*
X231789172Y-190116400D02*
X231586791Y-190211638D01*
X231586791Y-190211638D02*
X231205838Y-190211638D01*
X231205838Y-190211638D02*
X231027267Y-190116400D01*
X231027267Y-190116400D02*
X230955838Y-189925923D01*
X230955838Y-189925923D02*
X231051077Y-189164019D01*
X231051077Y-189164019D02*
X231170124Y-188973542D01*
X231170124Y-188973542D02*
X231372505Y-188878304D01*
X231372505Y-188878304D02*
X231753457Y-188878304D01*
X231753457Y-188878304D02*
X231932029Y-188973542D01*
X231932029Y-188973542D02*
X232003457Y-189164019D01*
X232003457Y-189164019D02*
X231979648Y-189354495D01*
X231979648Y-189354495D02*
X231003457Y-189544971D01*
X234420125Y-188878304D02*
X234170125Y-190878304D01*
X234408220Y-188973542D02*
X234610601Y-188878304D01*
X234610601Y-188878304D02*
X234991553Y-188878304D01*
X234991553Y-188878304D02*
X235170125Y-188973542D01*
X235170125Y-188973542D02*
X235253458Y-189068780D01*
X235253458Y-189068780D02*
X235324887Y-189259257D01*
X235324887Y-189259257D02*
X235253458Y-189830685D01*
X235253458Y-189830685D02*
X235134411Y-190021161D01*
X235134411Y-190021161D02*
X235027268Y-190116400D01*
X235027268Y-190116400D02*
X234824887Y-190211638D01*
X234824887Y-190211638D02*
X234443934Y-190211638D01*
X234443934Y-190211638D02*
X234265363Y-190116400D01*
X236062982Y-190211638D02*
X236229649Y-188878304D01*
X236182030Y-189259257D02*
X236301077Y-189068780D01*
X236301077Y-189068780D02*
X236408220Y-188973542D01*
X236408220Y-188973542D02*
X236610601Y-188878304D01*
X236610601Y-188878304D02*
X236801077Y-188878304D01*
X237586792Y-190211638D02*
X237408220Y-190116400D01*
X237408220Y-190116400D02*
X237324887Y-190021161D01*
X237324887Y-190021161D02*
X237253458Y-189830685D01*
X237253458Y-189830685D02*
X237324887Y-189259257D01*
X237324887Y-189259257D02*
X237443934Y-189068780D01*
X237443934Y-189068780D02*
X237551077Y-188973542D01*
X237551077Y-188973542D02*
X237753458Y-188878304D01*
X237753458Y-188878304D02*
X238039172Y-188878304D01*
X238039172Y-188878304D02*
X238217744Y-188973542D01*
X238217744Y-188973542D02*
X238301077Y-189068780D01*
X238301077Y-189068780D02*
X238372506Y-189259257D01*
X238372506Y-189259257D02*
X238301077Y-189830685D01*
X238301077Y-189830685D02*
X238182030Y-190021161D01*
X238182030Y-190021161D02*
X238074887Y-190116400D01*
X238074887Y-190116400D02*
X237872506Y-190211638D01*
X237872506Y-190211638D02*
X237586792Y-190211638D01*
X239277268Y-188878304D02*
X239062982Y-190592590D01*
X239062982Y-190592590D02*
X238943935Y-190783066D01*
X238943935Y-190783066D02*
X238741554Y-190878304D01*
X238741554Y-190878304D02*
X238646316Y-190878304D01*
X239360601Y-188211638D02*
X239253458Y-188306876D01*
X239253458Y-188306876D02*
X239336792Y-188402114D01*
X239336792Y-188402114D02*
X239443935Y-188306876D01*
X239443935Y-188306876D02*
X239360601Y-188211638D01*
X239360601Y-188211638D02*
X239336792Y-188402114D01*
X240836792Y-190116400D02*
X240634411Y-190211638D01*
X240634411Y-190211638D02*
X240253458Y-190211638D01*
X240253458Y-190211638D02*
X240074887Y-190116400D01*
X240074887Y-190116400D02*
X240003458Y-189925923D01*
X240003458Y-189925923D02*
X240098697Y-189164019D01*
X240098697Y-189164019D02*
X240217744Y-188973542D01*
X240217744Y-188973542D02*
X240420125Y-188878304D01*
X240420125Y-188878304D02*
X240801077Y-188878304D01*
X240801077Y-188878304D02*
X240979649Y-188973542D01*
X240979649Y-188973542D02*
X241051077Y-189164019D01*
X241051077Y-189164019D02*
X241027268Y-189354495D01*
X241027268Y-189354495D02*
X240051077Y-189544971D01*
X242646316Y-190116400D02*
X242443935Y-190211638D01*
X242443935Y-190211638D02*
X242062983Y-190211638D01*
X242062983Y-190211638D02*
X241884411Y-190116400D01*
X241884411Y-190116400D02*
X241801078Y-190021161D01*
X241801078Y-190021161D02*
X241729649Y-189830685D01*
X241729649Y-189830685D02*
X241801078Y-189259257D01*
X241801078Y-189259257D02*
X241920125Y-189068780D01*
X241920125Y-189068780D02*
X242027268Y-188973542D01*
X242027268Y-188973542D02*
X242229649Y-188878304D01*
X242229649Y-188878304D02*
X242610602Y-188878304D01*
X242610602Y-188878304D02*
X242789173Y-188973542D01*
X243372507Y-188878304D02*
X244134411Y-188878304D01*
X243741554Y-188211638D02*
X243527269Y-189925923D01*
X243527269Y-189925923D02*
X243598697Y-190116400D01*
X243598697Y-190116400D02*
X243777269Y-190211638D01*
X243777269Y-190211638D02*
X243967745Y-190211638D01*
D10*
D11*
X178958026Y-185607614D02*
X178458026Y-185607614D01*
X178458026Y-186393328D02*
X178458026Y-184893328D01*
X178458026Y-184893328D02*
X179172312Y-184893328D01*
X179743740Y-186393328D02*
X179743740Y-185393328D01*
X179743740Y-184893328D02*
X179672312Y-184964757D01*
X179672312Y-184964757D02*
X179743740Y-185036185D01*
X179743740Y-185036185D02*
X179815169Y-184964757D01*
X179815169Y-184964757D02*
X179743740Y-184893328D01*
X179743740Y-184893328D02*
X179743740Y-185036185D01*
X180672312Y-186393328D02*
X180529455Y-186321900D01*
X180529455Y-186321900D02*
X180458026Y-186179042D01*
X180458026Y-186179042D02*
X180458026Y-184893328D01*
X181815169Y-186321900D02*
X181672312Y-186393328D01*
X181672312Y-186393328D02*
X181386598Y-186393328D01*
X181386598Y-186393328D02*
X181243740Y-186321900D01*
X181243740Y-186321900D02*
X181172312Y-186179042D01*
X181172312Y-186179042D02*
X181172312Y-185607614D01*
X181172312Y-185607614D02*
X181243740Y-185464757D01*
X181243740Y-185464757D02*
X181386598Y-185393328D01*
X181386598Y-185393328D02*
X181672312Y-185393328D01*
X181672312Y-185393328D02*
X181815169Y-185464757D01*
X181815169Y-185464757D02*
X181886598Y-185607614D01*
X181886598Y-185607614D02*
X181886598Y-185750471D01*
X181886598Y-185750471D02*
X181172312Y-185893328D01*
X182529454Y-186250471D02*
X182600883Y-186321900D01*
X182600883Y-186321900D02*
X182529454Y-186393328D01*
X182529454Y-186393328D02*
X182458026Y-186321900D01*
X182458026Y-186321900D02*
X182529454Y-186250471D01*
X182529454Y-186250471D02*
X182529454Y-186393328D01*
X182529454Y-185464757D02*
X182600883Y-185536185D01*
X182600883Y-185536185D02*
X182529454Y-185607614D01*
X182529454Y-185607614D02*
X182458026Y-185536185D01*
X182458026Y-185536185D02*
X182529454Y-185464757D01*
X182529454Y-185464757D02*
X182529454Y-185607614D01*
X184386597Y-185393328D02*
X184386597Y-186893328D01*
X184386597Y-185464757D02*
X184529455Y-185393328D01*
X184529455Y-185393328D02*
X184815169Y-185393328D01*
X184815169Y-185393328D02*
X184958026Y-185464757D01*
X184958026Y-185464757D02*
X185029455Y-185536185D01*
X185029455Y-185536185D02*
X185100883Y-185679042D01*
X185100883Y-185679042D02*
X185100883Y-186107614D01*
X185100883Y-186107614D02*
X185029455Y-186250471D01*
X185029455Y-186250471D02*
X184958026Y-186321900D01*
X184958026Y-186321900D02*
X184815169Y-186393328D01*
X184815169Y-186393328D02*
X184529455Y-186393328D01*
X184529455Y-186393328D02*
X184386597Y-186321900D01*
X185958026Y-186393328D02*
X185815169Y-186321900D01*
X185815169Y-186321900D02*
X185743740Y-186250471D01*
X185743740Y-186250471D02*
X185672312Y-186107614D01*
X185672312Y-186107614D02*
X185672312Y-185679042D01*
X185672312Y-185679042D02*
X185743740Y-185536185D01*
X185743740Y-185536185D02*
X185815169Y-185464757D01*
X185815169Y-185464757D02*
X185958026Y-185393328D01*
X185958026Y-185393328D02*
X186172312Y-185393328D01*
X186172312Y-185393328D02*
X186315169Y-185464757D01*
X186315169Y-185464757D02*
X186386598Y-185536185D01*
X186386598Y-185536185D02*
X186458026Y-185679042D01*
X186458026Y-185679042D02*
X186458026Y-186107614D01*
X186458026Y-186107614D02*
X186386598Y-186250471D01*
X186386598Y-186250471D02*
X186315169Y-186321900D01*
X186315169Y-186321900D02*
X186172312Y-186393328D01*
X186172312Y-186393328D02*
X185958026Y-186393328D01*
X186958026Y-185393328D02*
X187243741Y-186393328D01*
X187243741Y-186393328D02*
X187529455Y-185679042D01*
X187529455Y-185679042D02*
X187815169Y-186393328D01*
X187815169Y-186393328D02*
X188100883Y-185393328D01*
X189243741Y-186321900D02*
X189100884Y-186393328D01*
X189100884Y-186393328D02*
X188815170Y-186393328D01*
X188815170Y-186393328D02*
X188672312Y-186321900D01*
X188672312Y-186321900D02*
X188600884Y-186179042D01*
X188600884Y-186179042D02*
X188600884Y-185607614D01*
X188600884Y-185607614D02*
X188672312Y-185464757D01*
X188672312Y-185464757D02*
X188815170Y-185393328D01*
X188815170Y-185393328D02*
X189100884Y-185393328D01*
X189100884Y-185393328D02*
X189243741Y-185464757D01*
X189243741Y-185464757D02*
X189315170Y-185607614D01*
X189315170Y-185607614D02*
X189315170Y-185750471D01*
X189315170Y-185750471D02*
X188600884Y-185893328D01*
X189958026Y-186393328D02*
X189958026Y-185393328D01*
X189958026Y-185679042D02*
X190029455Y-185536185D01*
X190029455Y-185536185D02*
X190100884Y-185464757D01*
X190100884Y-185464757D02*
X190243741Y-185393328D01*
X190243741Y-185393328D02*
X190386598Y-185393328D01*
X190529455Y-186536185D02*
X191672312Y-186536185D01*
X191958026Y-186321900D02*
X192100883Y-186393328D01*
X192100883Y-186393328D02*
X192386597Y-186393328D01*
X192386597Y-186393328D02*
X192529454Y-186321900D01*
X192529454Y-186321900D02*
X192600883Y-186179042D01*
X192600883Y-186179042D02*
X192600883Y-186107614D01*
X192600883Y-186107614D02*
X192529454Y-185964757D01*
X192529454Y-185964757D02*
X192386597Y-185893328D01*
X192386597Y-185893328D02*
X192172312Y-185893328D01*
X192172312Y-185893328D02*
X192029454Y-185821900D01*
X192029454Y-185821900D02*
X191958026Y-185679042D01*
X191958026Y-185679042D02*
X191958026Y-185607614D01*
X191958026Y-185607614D02*
X192029454Y-185464757D01*
X192029454Y-185464757D02*
X192172312Y-185393328D01*
X192172312Y-185393328D02*
X192386597Y-185393328D01*
X192386597Y-185393328D02*
X192529454Y-185464757D01*
X193886598Y-185393328D02*
X193886598Y-186393328D01*
X193243740Y-185393328D02*
X193243740Y-186179042D01*
X193243740Y-186179042D02*
X193315169Y-186321900D01*
X193315169Y-186321900D02*
X193458026Y-186393328D01*
X193458026Y-186393328D02*
X193672312Y-186393328D01*
X193672312Y-186393328D02*
X193815169Y-186321900D01*
X193815169Y-186321900D02*
X193886598Y-186250471D01*
X194600883Y-185393328D02*
X194600883Y-186893328D01*
X194600883Y-185464757D02*
X194743741Y-185393328D01*
X194743741Y-185393328D02*
X195029455Y-185393328D01*
X195029455Y-185393328D02*
X195172312Y-185464757D01*
X195172312Y-185464757D02*
X195243741Y-185536185D01*
X195243741Y-185536185D02*
X195315169Y-185679042D01*
X195315169Y-185679042D02*
X195315169Y-186107614D01*
X195315169Y-186107614D02*
X195243741Y-186250471D01*
X195243741Y-186250471D02*
X195172312Y-186321900D01*
X195172312Y-186321900D02*
X195029455Y-186393328D01*
X195029455Y-186393328D02*
X194743741Y-186393328D01*
X194743741Y-186393328D02*
X194600883Y-186321900D01*
X195958026Y-185393328D02*
X195958026Y-186893328D01*
X195958026Y-185464757D02*
X196100884Y-185393328D01*
X196100884Y-185393328D02*
X196386598Y-185393328D01*
X196386598Y-185393328D02*
X196529455Y-185464757D01*
X196529455Y-185464757D02*
X196600884Y-185536185D01*
X196600884Y-185536185D02*
X196672312Y-185679042D01*
X196672312Y-185679042D02*
X196672312Y-186107614D01*
X196672312Y-186107614D02*
X196600884Y-186250471D01*
X196600884Y-186250471D02*
X196529455Y-186321900D01*
X196529455Y-186321900D02*
X196386598Y-186393328D01*
X196386598Y-186393328D02*
X196100884Y-186393328D01*
X196100884Y-186393328D02*
X195958026Y-186321900D01*
X197529455Y-186393328D02*
X197386598Y-186321900D01*
X197386598Y-186321900D02*
X197315169Y-186179042D01*
X197315169Y-186179042D02*
X197315169Y-184893328D01*
X197958026Y-185393328D02*
X198315169Y-186393328D01*
X198672312Y-185393328D02*
X198315169Y-186393328D01*
X198315169Y-186393328D02*
X198172312Y-186750471D01*
X198172312Y-186750471D02*
X198100883Y-186821900D01*
X198100883Y-186821900D02*
X197958026Y-186893328D01*
X198886598Y-186536185D02*
X200029455Y-186536185D01*
X200386597Y-186393328D02*
X200386597Y-184893328D01*
X200386597Y-185464757D02*
X200529455Y-185393328D01*
X200529455Y-185393328D02*
X200815169Y-185393328D01*
X200815169Y-185393328D02*
X200958026Y-185464757D01*
X200958026Y-185464757D02*
X201029455Y-185536185D01*
X201029455Y-185536185D02*
X201100883Y-185679042D01*
X201100883Y-185679042D02*
X201100883Y-186107614D01*
X201100883Y-186107614D02*
X201029455Y-186250471D01*
X201029455Y-186250471D02*
X200958026Y-186321900D01*
X200958026Y-186321900D02*
X200815169Y-186393328D01*
X200815169Y-186393328D02*
X200529455Y-186393328D01*
X200529455Y-186393328D02*
X200386597Y-186321900D01*
X201743740Y-186393328D02*
X201743740Y-185393328D01*
X201743740Y-185679042D02*
X201815169Y-185536185D01*
X201815169Y-185536185D02*
X201886598Y-185464757D01*
X201886598Y-185464757D02*
X202029455Y-185393328D01*
X202029455Y-185393328D02*
X202172312Y-185393328D01*
X203243740Y-186321900D02*
X203100883Y-186393328D01*
X203100883Y-186393328D02*
X202815169Y-186393328D01*
X202815169Y-186393328D02*
X202672311Y-186321900D01*
X202672311Y-186321900D02*
X202600883Y-186179042D01*
X202600883Y-186179042D02*
X202600883Y-185607614D01*
X202600883Y-185607614D02*
X202672311Y-185464757D01*
X202672311Y-185464757D02*
X202815169Y-185393328D01*
X202815169Y-185393328D02*
X203100883Y-185393328D01*
X203100883Y-185393328D02*
X203243740Y-185464757D01*
X203243740Y-185464757D02*
X203315169Y-185607614D01*
X203315169Y-185607614D02*
X203315169Y-185750471D01*
X203315169Y-185750471D02*
X202600883Y-185893328D01*
X204600883Y-186393328D02*
X204600883Y-185607614D01*
X204600883Y-185607614D02*
X204529454Y-185464757D01*
X204529454Y-185464757D02*
X204386597Y-185393328D01*
X204386597Y-185393328D02*
X204100883Y-185393328D01*
X204100883Y-185393328D02*
X203958025Y-185464757D01*
X204600883Y-186321900D02*
X204458025Y-186393328D01*
X204458025Y-186393328D02*
X204100883Y-186393328D01*
X204100883Y-186393328D02*
X203958025Y-186321900D01*
X203958025Y-186321900D02*
X203886597Y-186179042D01*
X203886597Y-186179042D02*
X203886597Y-186036185D01*
X203886597Y-186036185D02*
X203958025Y-185893328D01*
X203958025Y-185893328D02*
X204100883Y-185821900D01*
X204100883Y-185821900D02*
X204458025Y-185821900D01*
X204458025Y-185821900D02*
X204600883Y-185750471D01*
X205958026Y-186393328D02*
X205958026Y-184893328D01*
X205958026Y-186321900D02*
X205815168Y-186393328D01*
X205815168Y-186393328D02*
X205529454Y-186393328D01*
X205529454Y-186393328D02*
X205386597Y-186321900D01*
X205386597Y-186321900D02*
X205315168Y-186250471D01*
X205315168Y-186250471D02*
X205243740Y-186107614D01*
X205243740Y-186107614D02*
X205243740Y-185679042D01*
X205243740Y-185679042D02*
X205315168Y-185536185D01*
X205315168Y-185536185D02*
X205386597Y-185464757D01*
X205386597Y-185464757D02*
X205529454Y-185393328D01*
X205529454Y-185393328D02*
X205815168Y-185393328D01*
X205815168Y-185393328D02*
X205958026Y-185464757D01*
X206672311Y-186393328D02*
X206672311Y-184893328D01*
X206672311Y-185464757D02*
X206815169Y-185393328D01*
X206815169Y-185393328D02*
X207100883Y-185393328D01*
X207100883Y-185393328D02*
X207243740Y-185464757D01*
X207243740Y-185464757D02*
X207315169Y-185536185D01*
X207315169Y-185536185D02*
X207386597Y-185679042D01*
X207386597Y-185679042D02*
X207386597Y-186107614D01*
X207386597Y-186107614D02*
X207315169Y-186250471D01*
X207315169Y-186250471D02*
X207243740Y-186321900D01*
X207243740Y-186321900D02*
X207100883Y-186393328D01*
X207100883Y-186393328D02*
X206815169Y-186393328D01*
X206815169Y-186393328D02*
X206672311Y-186321900D01*
X208243740Y-186393328D02*
X208100883Y-186321900D01*
X208100883Y-186321900D02*
X208029454Y-186250471D01*
X208029454Y-186250471D02*
X207958026Y-186107614D01*
X207958026Y-186107614D02*
X207958026Y-185679042D01*
X207958026Y-185679042D02*
X208029454Y-185536185D01*
X208029454Y-185536185D02*
X208100883Y-185464757D01*
X208100883Y-185464757D02*
X208243740Y-185393328D01*
X208243740Y-185393328D02*
X208458026Y-185393328D01*
X208458026Y-185393328D02*
X208600883Y-185464757D01*
X208600883Y-185464757D02*
X208672312Y-185536185D01*
X208672312Y-185536185D02*
X208743740Y-185679042D01*
X208743740Y-185679042D02*
X208743740Y-186107614D01*
X208743740Y-186107614D02*
X208672312Y-186250471D01*
X208672312Y-186250471D02*
X208600883Y-186321900D01*
X208600883Y-186321900D02*
X208458026Y-186393328D01*
X208458026Y-186393328D02*
X208243740Y-186393328D01*
X210029455Y-186393328D02*
X210029455Y-185607614D01*
X210029455Y-185607614D02*
X209958026Y-185464757D01*
X209958026Y-185464757D02*
X209815169Y-185393328D01*
X209815169Y-185393328D02*
X209529455Y-185393328D01*
X209529455Y-185393328D02*
X209386597Y-185464757D01*
X210029455Y-186321900D02*
X209886597Y-186393328D01*
X209886597Y-186393328D02*
X209529455Y-186393328D01*
X209529455Y-186393328D02*
X209386597Y-186321900D01*
X209386597Y-186321900D02*
X209315169Y-186179042D01*
X209315169Y-186179042D02*
X209315169Y-186036185D01*
X209315169Y-186036185D02*
X209386597Y-185893328D01*
X209386597Y-185893328D02*
X209529455Y-185821900D01*
X209529455Y-185821900D02*
X209886597Y-185821900D01*
X209886597Y-185821900D02*
X210029455Y-185750471D01*
X210743740Y-186393328D02*
X210743740Y-185393328D01*
X210743740Y-185679042D02*
X210815169Y-185536185D01*
X210815169Y-185536185D02*
X210886598Y-185464757D01*
X210886598Y-185464757D02*
X211029455Y-185393328D01*
X211029455Y-185393328D02*
X211172312Y-185393328D01*
X212315169Y-186393328D02*
X212315169Y-184893328D01*
X212315169Y-186321900D02*
X212172311Y-186393328D01*
X212172311Y-186393328D02*
X211886597Y-186393328D01*
X211886597Y-186393328D02*
X211743740Y-186321900D01*
X211743740Y-186321900D02*
X211672311Y-186250471D01*
X211672311Y-186250471D02*
X211600883Y-186107614D01*
X211600883Y-186107614D02*
X211600883Y-185679042D01*
X211600883Y-185679042D02*
X211672311Y-185536185D01*
X211672311Y-185536185D02*
X211743740Y-185464757D01*
X211743740Y-185464757D02*
X211886597Y-185393328D01*
X211886597Y-185393328D02*
X212172311Y-185393328D01*
X212172311Y-185393328D02*
X212315169Y-185464757D01*
X213029454Y-186250471D02*
X213100883Y-186321900D01*
X213100883Y-186321900D02*
X213029454Y-186393328D01*
X213029454Y-186393328D02*
X212958026Y-186321900D01*
X212958026Y-186321900D02*
X213029454Y-186250471D01*
X213029454Y-186250471D02*
X213029454Y-186393328D01*
X213743740Y-186393328D02*
X213743740Y-184893328D01*
X213886598Y-185821900D02*
X214315169Y-186393328D01*
X214315169Y-185393328D02*
X213743740Y-185964757D01*
X214958026Y-186393328D02*
X214958026Y-185393328D01*
X214958026Y-184893328D02*
X214886598Y-184964757D01*
X214886598Y-184964757D02*
X214958026Y-185036185D01*
X214958026Y-185036185D02*
X215029455Y-184964757D01*
X215029455Y-184964757D02*
X214958026Y-184893328D01*
X214958026Y-184893328D02*
X214958026Y-185036185D01*
X216315170Y-186321900D02*
X216172312Y-186393328D01*
X216172312Y-186393328D02*
X215886598Y-186393328D01*
X215886598Y-186393328D02*
X215743741Y-186321900D01*
X215743741Y-186321900D02*
X215672312Y-186250471D01*
X215672312Y-186250471D02*
X215600884Y-186107614D01*
X215600884Y-186107614D02*
X215600884Y-185679042D01*
X215600884Y-185679042D02*
X215672312Y-185536185D01*
X215672312Y-185536185D02*
X215743741Y-185464757D01*
X215743741Y-185464757D02*
X215886598Y-185393328D01*
X215886598Y-185393328D02*
X216172312Y-185393328D01*
X216172312Y-185393328D02*
X216315170Y-185464757D01*
X217600884Y-186393328D02*
X217600884Y-185607614D01*
X217600884Y-185607614D02*
X217529455Y-185464757D01*
X217529455Y-185464757D02*
X217386598Y-185393328D01*
X217386598Y-185393328D02*
X217100884Y-185393328D01*
X217100884Y-185393328D02*
X216958026Y-185464757D01*
X217600884Y-186321900D02*
X217458026Y-186393328D01*
X217458026Y-186393328D02*
X217100884Y-186393328D01*
X217100884Y-186393328D02*
X216958026Y-186321900D01*
X216958026Y-186321900D02*
X216886598Y-186179042D01*
X216886598Y-186179042D02*
X216886598Y-186036185D01*
X216886598Y-186036185D02*
X216958026Y-185893328D01*
X216958026Y-185893328D02*
X217100884Y-185821900D01*
X217100884Y-185821900D02*
X217458026Y-185821900D01*
X217458026Y-185821900D02*
X217600884Y-185750471D01*
X218958027Y-186393328D02*
X218958027Y-184893328D01*
X218958027Y-186321900D02*
X218815169Y-186393328D01*
X218815169Y-186393328D02*
X218529455Y-186393328D01*
X218529455Y-186393328D02*
X218386598Y-186321900D01*
X218386598Y-186321900D02*
X218315169Y-186250471D01*
X218315169Y-186250471D02*
X218243741Y-186107614D01*
X218243741Y-186107614D02*
X218243741Y-185679042D01*
X218243741Y-185679042D02*
X218315169Y-185536185D01*
X218315169Y-185536185D02*
X218386598Y-185464757D01*
X218386598Y-185464757D02*
X218529455Y-185393328D01*
X218529455Y-185393328D02*
X218815169Y-185393328D01*
X218815169Y-185393328D02*
X218958027Y-185464757D01*
X219315170Y-186536185D02*
X220458027Y-186536185D01*
X220815169Y-185393328D02*
X220815169Y-186893328D01*
X220815169Y-185464757D02*
X220958027Y-185393328D01*
X220958027Y-185393328D02*
X221243741Y-185393328D01*
X221243741Y-185393328D02*
X221386598Y-185464757D01*
X221386598Y-185464757D02*
X221458027Y-185536185D01*
X221458027Y-185536185D02*
X221529455Y-185679042D01*
X221529455Y-185679042D02*
X221529455Y-186107614D01*
X221529455Y-186107614D02*
X221458027Y-186250471D01*
X221458027Y-186250471D02*
X221386598Y-186321900D01*
X221386598Y-186321900D02*
X221243741Y-186393328D01*
X221243741Y-186393328D02*
X220958027Y-186393328D01*
X220958027Y-186393328D02*
X220815169Y-186321900D01*
X222815170Y-186321900D02*
X222672312Y-186393328D01*
X222672312Y-186393328D02*
X222386598Y-186393328D01*
X222386598Y-186393328D02*
X222243741Y-186321900D01*
X222243741Y-186321900D02*
X222172312Y-186250471D01*
X222172312Y-186250471D02*
X222100884Y-186107614D01*
X222100884Y-186107614D02*
X222100884Y-185679042D01*
X222100884Y-185679042D02*
X222172312Y-185536185D01*
X222172312Y-185536185D02*
X222243741Y-185464757D01*
X222243741Y-185464757D02*
X222386598Y-185393328D01*
X222386598Y-185393328D02*
X222672312Y-185393328D01*
X222672312Y-185393328D02*
X222815170Y-185464757D01*
X223458026Y-186393328D02*
X223458026Y-184893328D01*
X223458026Y-185464757D02*
X223600884Y-185393328D01*
X223600884Y-185393328D02*
X223886598Y-185393328D01*
X223886598Y-185393328D02*
X224029455Y-185464757D01*
X224029455Y-185464757D02*
X224100884Y-185536185D01*
X224100884Y-185536185D02*
X224172312Y-185679042D01*
X224172312Y-185679042D02*
X224172312Y-186107614D01*
X224172312Y-186107614D02*
X224100884Y-186250471D01*
X224100884Y-186250471D02*
X224029455Y-186321900D01*
X224029455Y-186321900D02*
X223886598Y-186393328D01*
X223886598Y-186393328D02*
X223600884Y-186393328D01*
X223600884Y-186393328D02*
X223458026Y-186321900D01*
D10*
D11*
X177002200Y-181507200D02*
X285002200Y-181507200D01*
D10*
D11*
X178386598Y-183621900D02*
X178600884Y-183693328D01*
X178600884Y-183693328D02*
X178958026Y-183693328D01*
X178958026Y-183693328D02*
X179100884Y-183621900D01*
X179100884Y-183621900D02*
X179172312Y-183550471D01*
X179172312Y-183550471D02*
X179243741Y-183407614D01*
X179243741Y-183407614D02*
X179243741Y-183264757D01*
X179243741Y-183264757D02*
X179172312Y-183121900D01*
X179172312Y-183121900D02*
X179100884Y-183050471D01*
X179100884Y-183050471D02*
X178958026Y-182979042D01*
X178958026Y-182979042D02*
X178672312Y-182907614D01*
X178672312Y-182907614D02*
X178529455Y-182836185D01*
X178529455Y-182836185D02*
X178458026Y-182764757D01*
X178458026Y-182764757D02*
X178386598Y-182621900D01*
X178386598Y-182621900D02*
X178386598Y-182479042D01*
X178386598Y-182479042D02*
X178458026Y-182336185D01*
X178458026Y-182336185D02*
X178529455Y-182264757D01*
X178529455Y-182264757D02*
X178672312Y-182193328D01*
X178672312Y-182193328D02*
X179029455Y-182193328D01*
X179029455Y-182193328D02*
X179243741Y-182264757D01*
X179886597Y-183693328D02*
X179886597Y-182193328D01*
X180529455Y-183693328D02*
X180529455Y-182907614D01*
X180529455Y-182907614D02*
X180458026Y-182764757D01*
X180458026Y-182764757D02*
X180315169Y-182693328D01*
X180315169Y-182693328D02*
X180100883Y-182693328D01*
X180100883Y-182693328D02*
X179958026Y-182764757D01*
X179958026Y-182764757D02*
X179886597Y-182836185D01*
X181815169Y-183621900D02*
X181672312Y-183693328D01*
X181672312Y-183693328D02*
X181386598Y-183693328D01*
X181386598Y-183693328D02*
X181243740Y-183621900D01*
X181243740Y-183621900D02*
X181172312Y-183479042D01*
X181172312Y-183479042D02*
X181172312Y-182907614D01*
X181172312Y-182907614D02*
X181243740Y-182764757D01*
X181243740Y-182764757D02*
X181386598Y-182693328D01*
X181386598Y-182693328D02*
X181672312Y-182693328D01*
X181672312Y-182693328D02*
X181815169Y-182764757D01*
X181815169Y-182764757D02*
X181886598Y-182907614D01*
X181886598Y-182907614D02*
X181886598Y-183050471D01*
X181886598Y-183050471D02*
X181172312Y-183193328D01*
X183100883Y-183621900D02*
X182958026Y-183693328D01*
X182958026Y-183693328D02*
X182672312Y-183693328D01*
X182672312Y-183693328D02*
X182529454Y-183621900D01*
X182529454Y-183621900D02*
X182458026Y-183479042D01*
X182458026Y-183479042D02*
X182458026Y-182907614D01*
X182458026Y-182907614D02*
X182529454Y-182764757D01*
X182529454Y-182764757D02*
X182672312Y-182693328D01*
X182672312Y-182693328D02*
X182958026Y-182693328D01*
X182958026Y-182693328D02*
X183100883Y-182764757D01*
X183100883Y-182764757D02*
X183172312Y-182907614D01*
X183172312Y-182907614D02*
X183172312Y-183050471D01*
X183172312Y-183050471D02*
X182458026Y-183193328D01*
X183600883Y-182693328D02*
X184172311Y-182693328D01*
X183815168Y-182193328D02*
X183815168Y-183479042D01*
X183815168Y-183479042D02*
X183886597Y-183621900D01*
X183886597Y-183621900D02*
X184029454Y-183693328D01*
X184029454Y-183693328D02*
X184172311Y-183693328D01*
X184672311Y-183550471D02*
X184743740Y-183621900D01*
X184743740Y-183621900D02*
X184672311Y-183693328D01*
X184672311Y-183693328D02*
X184600883Y-183621900D01*
X184600883Y-183621900D02*
X184672311Y-183550471D01*
X184672311Y-183550471D02*
X184672311Y-183693328D01*
X184672311Y-182764757D02*
X184743740Y-182836185D01*
X184743740Y-182836185D02*
X184672311Y-182907614D01*
X184672311Y-182907614D02*
X184600883Y-182836185D01*
X184600883Y-182836185D02*
X184672311Y-182764757D01*
X184672311Y-182764757D02*
X184672311Y-182907614D01*
D10*
D12*
X178342425Y-179185528D02*
X179199568Y-179185528D01*
X178770996Y-180685528D02*
X178770996Y-179185528D01*
X179699567Y-180685528D02*
X179699567Y-179185528D01*
X180342425Y-180685528D02*
X180342425Y-179899814D01*
X180342425Y-179899814D02*
X180270996Y-179756957D01*
X180270996Y-179756957D02*
X180128139Y-179685528D01*
X180128139Y-179685528D02*
X179913853Y-179685528D01*
X179913853Y-179685528D02*
X179770996Y-179756957D01*
X179770996Y-179756957D02*
X179699567Y-179828385D01*
X181628139Y-180614100D02*
X181485282Y-180685528D01*
X181485282Y-180685528D02*
X181199568Y-180685528D01*
X181199568Y-180685528D02*
X181056710Y-180614100D01*
X181056710Y-180614100D02*
X180985282Y-180471242D01*
X180985282Y-180471242D02*
X180985282Y-179899814D01*
X180985282Y-179899814D02*
X181056710Y-179756957D01*
X181056710Y-179756957D02*
X181199568Y-179685528D01*
X181199568Y-179685528D02*
X181485282Y-179685528D01*
X181485282Y-179685528D02*
X181628139Y-179756957D01*
X181628139Y-179756957D02*
X181699568Y-179899814D01*
X181699568Y-179899814D02*
X181699568Y-180042671D01*
X181699568Y-180042671D02*
X180985282Y-180185528D01*
X183770996Y-179185528D02*
X184056710Y-179185528D01*
X184056710Y-179185528D02*
X184199567Y-179256957D01*
X184199567Y-179256957D02*
X184342424Y-179399814D01*
X184342424Y-179399814D02*
X184413853Y-179685528D01*
X184413853Y-179685528D02*
X184413853Y-180185528D01*
X184413853Y-180185528D02*
X184342424Y-180471242D01*
X184342424Y-180471242D02*
X184199567Y-180614100D01*
X184199567Y-180614100D02*
X184056710Y-180685528D01*
X184056710Y-180685528D02*
X183770996Y-180685528D01*
X183770996Y-180685528D02*
X183628139Y-180614100D01*
X183628139Y-180614100D02*
X183485281Y-180471242D01*
X183485281Y-180471242D02*
X183413853Y-180185528D01*
X183413853Y-180185528D02*
X183413853Y-179685528D01*
X183413853Y-179685528D02*
X183485281Y-179399814D01*
X183485281Y-179399814D02*
X183628139Y-179256957D01*
X183628139Y-179256957D02*
X183770996Y-179185528D01*
X185699568Y-180614100D02*
X185556710Y-180685528D01*
X185556710Y-180685528D02*
X185270996Y-180685528D01*
X185270996Y-180685528D02*
X185128139Y-180614100D01*
X185128139Y-180614100D02*
X185056710Y-180542671D01*
X185056710Y-180542671D02*
X184985282Y-180399814D01*
X184985282Y-180399814D02*
X184985282Y-179971242D01*
X184985282Y-179971242D02*
X185056710Y-179828385D01*
X185056710Y-179828385D02*
X185128139Y-179756957D01*
X185128139Y-179756957D02*
X185270996Y-179685528D01*
X185270996Y-179685528D02*
X185556710Y-179685528D01*
X185556710Y-179685528D02*
X185699568Y-179756957D01*
X186128139Y-179685528D02*
X186699567Y-179685528D01*
X186342424Y-179185528D02*
X186342424Y-180471242D01*
X186342424Y-180471242D02*
X186413853Y-180614100D01*
X186413853Y-180614100D02*
X186556710Y-180685528D01*
X186556710Y-180685528D02*
X186699567Y-180685528D01*
X187413853Y-180685528D02*
X187270996Y-180614100D01*
X187270996Y-180614100D02*
X187199567Y-180542671D01*
X187199567Y-180542671D02*
X187128139Y-180399814D01*
X187128139Y-180399814D02*
X187128139Y-179971242D01*
X187128139Y-179971242D02*
X187199567Y-179828385D01*
X187199567Y-179828385D02*
X187270996Y-179756957D01*
X187270996Y-179756957D02*
X187413853Y-179685528D01*
X187413853Y-179685528D02*
X187628139Y-179685528D01*
X187628139Y-179685528D02*
X187770996Y-179756957D01*
X187770996Y-179756957D02*
X187842425Y-179828385D01*
X187842425Y-179828385D02*
X187913853Y-179971242D01*
X187913853Y-179971242D02*
X187913853Y-180399814D01*
X187913853Y-180399814D02*
X187842425Y-180542671D01*
X187842425Y-180542671D02*
X187770996Y-180614100D01*
X187770996Y-180614100D02*
X187628139Y-180685528D01*
X187628139Y-180685528D02*
X187413853Y-180685528D01*
X188342425Y-179685528D02*
X188913853Y-179685528D01*
X188556710Y-179185528D02*
X188556710Y-180471242D01*
X188556710Y-180471242D02*
X188628139Y-180614100D01*
X188628139Y-180614100D02*
X188770996Y-180685528D01*
X188770996Y-180685528D02*
X188913853Y-180685528D01*
X189413853Y-180685528D02*
X189413853Y-179185528D01*
X190056711Y-180685528D02*
X190056711Y-179899814D01*
X190056711Y-179899814D02*
X189985282Y-179756957D01*
X189985282Y-179756957D02*
X189842425Y-179685528D01*
X189842425Y-179685528D02*
X189628139Y-179685528D01*
X189628139Y-179685528D02*
X189485282Y-179756957D01*
X189485282Y-179756957D02*
X189413853Y-179828385D01*
X190985282Y-180685528D02*
X190842425Y-180614100D01*
X190842425Y-180614100D02*
X190770996Y-180542671D01*
X190770996Y-180542671D02*
X190699568Y-180399814D01*
X190699568Y-180399814D02*
X190699568Y-179971242D01*
X190699568Y-179971242D02*
X190770996Y-179828385D01*
X190770996Y-179828385D02*
X190842425Y-179756957D01*
X190842425Y-179756957D02*
X190985282Y-179685528D01*
X190985282Y-179685528D02*
X191199568Y-179685528D01*
X191199568Y-179685528D02*
X191342425Y-179756957D01*
X191342425Y-179756957D02*
X191413854Y-179828385D01*
X191413854Y-179828385D02*
X191485282Y-179971242D01*
X191485282Y-179971242D02*
X191485282Y-180399814D01*
X191485282Y-180399814D02*
X191413854Y-180542671D01*
X191413854Y-180542671D02*
X191342425Y-180614100D01*
X191342425Y-180614100D02*
X191199568Y-180685528D01*
X191199568Y-180685528D02*
X190985282Y-180685528D01*
X192128139Y-180685528D02*
X192128139Y-179685528D01*
X192128139Y-179971242D02*
X192199568Y-179828385D01*
X192199568Y-179828385D02*
X192270997Y-179756957D01*
X192270997Y-179756957D02*
X192413854Y-179685528D01*
X192413854Y-179685528D02*
X192556711Y-179685528D01*
X193056710Y-179685528D02*
X193056710Y-181185528D01*
X193056710Y-179756957D02*
X193199568Y-179685528D01*
X193199568Y-179685528D02*
X193485282Y-179685528D01*
X193485282Y-179685528D02*
X193628139Y-179756957D01*
X193628139Y-179756957D02*
X193699568Y-179828385D01*
X193699568Y-179828385D02*
X193770996Y-179971242D01*
X193770996Y-179971242D02*
X193770996Y-180399814D01*
X193770996Y-180399814D02*
X193699568Y-180542671D01*
X193699568Y-180542671D02*
X193628139Y-180614100D01*
X193628139Y-180614100D02*
X193485282Y-180685528D01*
X193485282Y-180685528D02*
X193199568Y-180685528D01*
X193199568Y-180685528D02*
X193056710Y-180614100D01*
X194985282Y-180614100D02*
X194842425Y-180685528D01*
X194842425Y-180685528D02*
X194556711Y-180685528D01*
X194556711Y-180685528D02*
X194413853Y-180614100D01*
X194413853Y-180614100D02*
X194342425Y-180471242D01*
X194342425Y-180471242D02*
X194342425Y-179899814D01*
X194342425Y-179899814D02*
X194413853Y-179756957D01*
X194413853Y-179756957D02*
X194556711Y-179685528D01*
X194556711Y-179685528D02*
X194842425Y-179685528D01*
X194842425Y-179685528D02*
X194985282Y-179756957D01*
X194985282Y-179756957D02*
X195056711Y-179899814D01*
X195056711Y-179899814D02*
X195056711Y-180042671D01*
X195056711Y-180042671D02*
X194342425Y-180185528D01*
D10*
D11*
X197002200Y-191507200D02*
X197002200Y-194507200D01*
D10*
D11*
X261002200Y-191507200D02*
X261002200Y-198007200D01*
D14*
%TO.C,J2*%
X185963438Y-134300105D03*
D15*
X190963438Y-134300105D03*
%TD*%
D16*
%TO.C,J3*%
X174188455Y-88332857D03*
D17*
X176728455Y-88332857D03*
X179268455Y-88332857D03*
%TD*%
D16*
%TO.C,J4*%
X197355673Y-134327825D03*
D17*
X197355673Y-136867825D03*
%TD*%
D14*
%TO.C,J5*%
X185963438Y-91079756D03*
D15*
X190963438Y-91079756D03*
%TD*%
D16*
%TO.C,J6*%
X197355673Y-88382001D03*
D17*
X197355673Y-90922001D03*
%TD*%
D16*
%TO.C,J7*%
X174188455Y-136859153D03*
D17*
X176728455Y-136859153D03*
X179268455Y-136859153D03*
%TD*%
D18*
%TO.C,U1*%
X173990000Y-122428000D03*
D19*
X176530000Y-122428000D03*
X179070000Y-122428000D03*
%TD*%
D20*
%TO.C,R3*%
X193294000Y-125222000D03*
X185674000Y-125222000D03*
%TD*%
D21*
%TO.C,C2*%
X175300000Y-129032000D03*
X177800000Y-129032000D03*
%TD*%
D20*
%TO.C,R2*%
X185648000Y-121818000D03*
X193268000Y-121818000D03*
%TD*%
D22*
%TO.C,J1*%
X182784000Y-110998000D03*
D23*
X176784000Y-110998000D03*
D24*
X179784000Y-115698000D03*
%TD*%
D20*
%TO.C,R1*%
X193246612Y-106562214D03*
X185626612Y-106562214D03*
%TD*%
D25*
%TO.C,S1*%
X190500000Y-100330000D03*
D26*
X188000000Y-100330000D03*
X185500000Y-100330000D03*
%TD*%
D21*
%TO.C,C1*%
X180086000Y-94234000D03*
X177586000Y-94234000D03*
%TD*%
D27*
%TO.C,D1*%
X191008000Y-114808000D03*
D28*
X191008000Y-112268000D03*
%TD*%
D21*
%TO.C,C3*%
X175260000Y-94234000D03*
X172760000Y-94234000D03*
%TD*%
D18*
%TO.C,U2*%
X179070000Y-99822000D03*
D19*
X176530000Y-99822000D03*
X173990000Y-99822000D03*
%TD*%
M02*
