%TF.GenerationSoftware,KiCad,Pcbnew,9.0.5*%
%TF.CreationDate,2025-11-01T14:32:35+06:00*%
%TF.ProjectId,power_supply_breadboard,706f7765-725f-4737-9570-706c795f6272,1*%
%TF.SameCoordinates,Original*%
%TF.FileFunction,Legend,Top*%
%TF.FilePolarity,Positive*%
%FSLAX46Y46*%
G04 Gerber Fmt 4.6, Leading zero omitted, Abs format (unit mm)*
G04 Created by KiCad (PCBNEW 9.0.5) date 2025-11-01 14:32:35*
%MOMM*%
%LPD*%
G01*
G04 APERTURE LIST*
%ADD10C,0.100000*%
%ADD11C,0.150000*%
%ADD12C,0.300000*%
%ADD13C,0.400000*%
%ADD14C,0.120000*%
G04 APERTURE END LIST*
D10*
D11*
X177002200Y-166007200D02*
X285002200Y-166007200D01*
X285002200Y-198007200D01*
X177002200Y-198007200D01*
X177002200Y-166007200D01*
D10*
D11*
X10000000Y-10000000D02*
X287002200Y-10000000D01*
X287002200Y-200007200D01*
X10000000Y-200007200D01*
X10000000Y-10000000D01*
D10*
D11*
X12000000Y-12000000D02*
X285002200Y-12000000D01*
X285002200Y-198007200D01*
X12000000Y-198007200D01*
X12000000Y-12000000D01*
D10*
D11*
X60000000Y-12000000D02*
X60000000Y-10000000D01*
D10*
D11*
X110000000Y-12000000D02*
X110000000Y-10000000D01*
D10*
D11*
X160000000Y-12000000D02*
X160000000Y-10000000D01*
D10*
D11*
X210000000Y-12000000D02*
X210000000Y-10000000D01*
D10*
D11*
X260000000Y-12000000D02*
X260000000Y-10000000D01*
D10*
D11*
X36089160Y-11593604D02*
X35346303Y-11593604D01*
X35717731Y-11593604D02*
X35717731Y-10293604D01*
X35717731Y-10293604D02*
X35593922Y-10479319D01*
X35593922Y-10479319D02*
X35470112Y-10603128D01*
X35470112Y-10603128D02*
X35346303Y-10665033D01*
D10*
D11*
X85346303Y-10417414D02*
X85408207Y-10355509D01*
X85408207Y-10355509D02*
X85532017Y-10293604D01*
X85532017Y-10293604D02*
X85841541Y-10293604D01*
X85841541Y-10293604D02*
X85965350Y-10355509D01*
X85965350Y-10355509D02*
X86027255Y-10417414D01*
X86027255Y-10417414D02*
X86089160Y-10541223D01*
X86089160Y-10541223D02*
X86089160Y-10665033D01*
X86089160Y-10665033D02*
X86027255Y-10850747D01*
X86027255Y-10850747D02*
X85284398Y-11593604D01*
X85284398Y-11593604D02*
X86089160Y-11593604D01*
D10*
D11*
X135284398Y-10293604D02*
X136089160Y-10293604D01*
X136089160Y-10293604D02*
X135655826Y-10788842D01*
X135655826Y-10788842D02*
X135841541Y-10788842D01*
X135841541Y-10788842D02*
X135965350Y-10850747D01*
X135965350Y-10850747D02*
X136027255Y-10912652D01*
X136027255Y-10912652D02*
X136089160Y-11036461D01*
X136089160Y-11036461D02*
X136089160Y-11345985D01*
X136089160Y-11345985D02*
X136027255Y-11469795D01*
X136027255Y-11469795D02*
X135965350Y-11531700D01*
X135965350Y-11531700D02*
X135841541Y-11593604D01*
X135841541Y-11593604D02*
X135470112Y-11593604D01*
X135470112Y-11593604D02*
X135346303Y-11531700D01*
X135346303Y-11531700D02*
X135284398Y-11469795D01*
D10*
D11*
X185965350Y-10726938D02*
X185965350Y-11593604D01*
X185655826Y-10231700D02*
X185346303Y-11160271D01*
X185346303Y-11160271D02*
X186151064Y-11160271D01*
D10*
D11*
X236027255Y-10293604D02*
X235408207Y-10293604D01*
X235408207Y-10293604D02*
X235346303Y-10912652D01*
X235346303Y-10912652D02*
X235408207Y-10850747D01*
X235408207Y-10850747D02*
X235532017Y-10788842D01*
X235532017Y-10788842D02*
X235841541Y-10788842D01*
X235841541Y-10788842D02*
X235965350Y-10850747D01*
X235965350Y-10850747D02*
X236027255Y-10912652D01*
X236027255Y-10912652D02*
X236089160Y-11036461D01*
X236089160Y-11036461D02*
X236089160Y-11345985D01*
X236089160Y-11345985D02*
X236027255Y-11469795D01*
X236027255Y-11469795D02*
X235965350Y-11531700D01*
X235965350Y-11531700D02*
X235841541Y-11593604D01*
X235841541Y-11593604D02*
X235532017Y-11593604D01*
X235532017Y-11593604D02*
X235408207Y-11531700D01*
X235408207Y-11531700D02*
X235346303Y-11469795D01*
D10*
D11*
X285965350Y-10293604D02*
X285717731Y-10293604D01*
X285717731Y-10293604D02*
X285593922Y-10355509D01*
X285593922Y-10355509D02*
X285532017Y-10417414D01*
X285532017Y-10417414D02*
X285408207Y-10603128D01*
X285408207Y-10603128D02*
X285346303Y-10850747D01*
X285346303Y-10850747D02*
X285346303Y-11345985D01*
X285346303Y-11345985D02*
X285408207Y-11469795D01*
X285408207Y-11469795D02*
X285470112Y-11531700D01*
X285470112Y-11531700D02*
X285593922Y-11593604D01*
X285593922Y-11593604D02*
X285841541Y-11593604D01*
X285841541Y-11593604D02*
X285965350Y-11531700D01*
X285965350Y-11531700D02*
X286027255Y-11469795D01*
X286027255Y-11469795D02*
X286089160Y-11345985D01*
X286089160Y-11345985D02*
X286089160Y-11036461D01*
X286089160Y-11036461D02*
X286027255Y-10912652D01*
X286027255Y-10912652D02*
X285965350Y-10850747D01*
X285965350Y-10850747D02*
X285841541Y-10788842D01*
X285841541Y-10788842D02*
X285593922Y-10788842D01*
X285593922Y-10788842D02*
X285470112Y-10850747D01*
X285470112Y-10850747D02*
X285408207Y-10912652D01*
X285408207Y-10912652D02*
X285346303Y-11036461D01*
D10*
D11*
X60000000Y-198007200D02*
X60000000Y-200007200D01*
D10*
D11*
X110000000Y-198007200D02*
X110000000Y-200007200D01*
D10*
D11*
X160000000Y-198007200D02*
X160000000Y-200007200D01*
D10*
D11*
X210000000Y-198007200D02*
X210000000Y-200007200D01*
D10*
D11*
X260000000Y-198007200D02*
X260000000Y-200007200D01*
D10*
D11*
X36089160Y-199600804D02*
X35346303Y-199600804D01*
X35717731Y-199600804D02*
X35717731Y-198300804D01*
X35717731Y-198300804D02*
X35593922Y-198486519D01*
X35593922Y-198486519D02*
X35470112Y-198610328D01*
X35470112Y-198610328D02*
X35346303Y-198672233D01*
D10*
D11*
X85346303Y-198424614D02*
X85408207Y-198362709D01*
X85408207Y-198362709D02*
X85532017Y-198300804D01*
X85532017Y-198300804D02*
X85841541Y-198300804D01*
X85841541Y-198300804D02*
X85965350Y-198362709D01*
X85965350Y-198362709D02*
X86027255Y-198424614D01*
X86027255Y-198424614D02*
X86089160Y-198548423D01*
X86089160Y-198548423D02*
X86089160Y-198672233D01*
X86089160Y-198672233D02*
X86027255Y-198857947D01*
X86027255Y-198857947D02*
X85284398Y-199600804D01*
X85284398Y-199600804D02*
X86089160Y-199600804D01*
D10*
D11*
X135284398Y-198300804D02*
X136089160Y-198300804D01*
X136089160Y-198300804D02*
X135655826Y-198796042D01*
X135655826Y-198796042D02*
X135841541Y-198796042D01*
X135841541Y-198796042D02*
X135965350Y-198857947D01*
X135965350Y-198857947D02*
X136027255Y-198919852D01*
X136027255Y-198919852D02*
X136089160Y-199043661D01*
X136089160Y-199043661D02*
X136089160Y-199353185D01*
X136089160Y-199353185D02*
X136027255Y-199476995D01*
X136027255Y-199476995D02*
X135965350Y-199538900D01*
X135965350Y-199538900D02*
X135841541Y-199600804D01*
X135841541Y-199600804D02*
X135470112Y-199600804D01*
X135470112Y-199600804D02*
X135346303Y-199538900D01*
X135346303Y-199538900D02*
X135284398Y-199476995D01*
D10*
D11*
X185965350Y-198734138D02*
X185965350Y-199600804D01*
X185655826Y-198238900D02*
X185346303Y-199167471D01*
X185346303Y-199167471D02*
X186151064Y-199167471D01*
D10*
D11*
X236027255Y-198300804D02*
X235408207Y-198300804D01*
X235408207Y-198300804D02*
X235346303Y-198919852D01*
X235346303Y-198919852D02*
X235408207Y-198857947D01*
X235408207Y-198857947D02*
X235532017Y-198796042D01*
X235532017Y-198796042D02*
X235841541Y-198796042D01*
X235841541Y-198796042D02*
X235965350Y-198857947D01*
X235965350Y-198857947D02*
X236027255Y-198919852D01*
X236027255Y-198919852D02*
X236089160Y-199043661D01*
X236089160Y-199043661D02*
X236089160Y-199353185D01*
X236089160Y-199353185D02*
X236027255Y-199476995D01*
X236027255Y-199476995D02*
X235965350Y-199538900D01*
X235965350Y-199538900D02*
X235841541Y-199600804D01*
X235841541Y-199600804D02*
X235532017Y-199600804D01*
X235532017Y-199600804D02*
X235408207Y-199538900D01*
X235408207Y-199538900D02*
X235346303Y-199476995D01*
D10*
D11*
X285965350Y-198300804D02*
X285717731Y-198300804D01*
X285717731Y-198300804D02*
X285593922Y-198362709D01*
X285593922Y-198362709D02*
X285532017Y-198424614D01*
X285532017Y-198424614D02*
X285408207Y-198610328D01*
X285408207Y-198610328D02*
X285346303Y-198857947D01*
X285346303Y-198857947D02*
X285346303Y-199353185D01*
X285346303Y-199353185D02*
X285408207Y-199476995D01*
X285408207Y-199476995D02*
X285470112Y-199538900D01*
X285470112Y-199538900D02*
X285593922Y-199600804D01*
X285593922Y-199600804D02*
X285841541Y-199600804D01*
X285841541Y-199600804D02*
X285965350Y-199538900D01*
X285965350Y-199538900D02*
X286027255Y-199476995D01*
X286027255Y-199476995D02*
X286089160Y-199353185D01*
X286089160Y-199353185D02*
X286089160Y-199043661D01*
X286089160Y-199043661D02*
X286027255Y-198919852D01*
X286027255Y-198919852D02*
X285965350Y-198857947D01*
X285965350Y-198857947D02*
X285841541Y-198796042D01*
X285841541Y-198796042D02*
X285593922Y-198796042D01*
X285593922Y-198796042D02*
X285470112Y-198857947D01*
X285470112Y-198857947D02*
X285408207Y-198919852D01*
X285408207Y-198919852D02*
X285346303Y-199043661D01*
D10*
D11*
X10000000Y-60000000D02*
X12000000Y-60000000D01*
D10*
D11*
X10000000Y-110000000D02*
X12000000Y-110000000D01*
D10*
D11*
X10000000Y-160000000D02*
X12000000Y-160000000D01*
D10*
D11*
X10690476Y-35222176D02*
X11309523Y-35222176D01*
X10566666Y-35593604D02*
X10999999Y-34293604D01*
X10999999Y-34293604D02*
X11433333Y-35593604D01*
D10*
D11*
X11092857Y-84912652D02*
X11278571Y-84974557D01*
X11278571Y-84974557D02*
X11340476Y-85036461D01*
X11340476Y-85036461D02*
X11402380Y-85160271D01*
X11402380Y-85160271D02*
X11402380Y-85345985D01*
X11402380Y-85345985D02*
X11340476Y-85469795D01*
X11340476Y-85469795D02*
X11278571Y-85531700D01*
X11278571Y-85531700D02*
X11154761Y-85593604D01*
X11154761Y-85593604D02*
X10659523Y-85593604D01*
X10659523Y-85593604D02*
X10659523Y-84293604D01*
X10659523Y-84293604D02*
X11092857Y-84293604D01*
X11092857Y-84293604D02*
X11216666Y-84355509D01*
X11216666Y-84355509D02*
X11278571Y-84417414D01*
X11278571Y-84417414D02*
X11340476Y-84541223D01*
X11340476Y-84541223D02*
X11340476Y-84665033D01*
X11340476Y-84665033D02*
X11278571Y-84788842D01*
X11278571Y-84788842D02*
X11216666Y-84850747D01*
X11216666Y-84850747D02*
X11092857Y-84912652D01*
X11092857Y-84912652D02*
X10659523Y-84912652D01*
D10*
D11*
X11402380Y-135469795D02*
X11340476Y-135531700D01*
X11340476Y-135531700D02*
X11154761Y-135593604D01*
X11154761Y-135593604D02*
X11030952Y-135593604D01*
X11030952Y-135593604D02*
X10845238Y-135531700D01*
X10845238Y-135531700D02*
X10721428Y-135407890D01*
X10721428Y-135407890D02*
X10659523Y-135284080D01*
X10659523Y-135284080D02*
X10597619Y-135036461D01*
X10597619Y-135036461D02*
X10597619Y-134850747D01*
X10597619Y-134850747D02*
X10659523Y-134603128D01*
X10659523Y-134603128D02*
X10721428Y-134479319D01*
X10721428Y-134479319D02*
X10845238Y-134355509D01*
X10845238Y-134355509D02*
X11030952Y-134293604D01*
X11030952Y-134293604D02*
X11154761Y-134293604D01*
X11154761Y-134293604D02*
X11340476Y-134355509D01*
X11340476Y-134355509D02*
X11402380Y-134417414D01*
D10*
D11*
X10659523Y-185593604D02*
X10659523Y-184293604D01*
X10659523Y-184293604D02*
X10969047Y-184293604D01*
X10969047Y-184293604D02*
X11154761Y-184355509D01*
X11154761Y-184355509D02*
X11278571Y-184479319D01*
X11278571Y-184479319D02*
X11340476Y-184603128D01*
X11340476Y-184603128D02*
X11402380Y-184850747D01*
X11402380Y-184850747D02*
X11402380Y-185036461D01*
X11402380Y-185036461D02*
X11340476Y-185284080D01*
X11340476Y-185284080D02*
X11278571Y-185407890D01*
X11278571Y-185407890D02*
X11154761Y-185531700D01*
X11154761Y-185531700D02*
X10969047Y-185593604D01*
X10969047Y-185593604D02*
X10659523Y-185593604D01*
D10*
D11*
X287002200Y-60000000D02*
X285002200Y-60000000D01*
D10*
D11*
X287002200Y-110000000D02*
X285002200Y-110000000D01*
D10*
D11*
X287002200Y-160000000D02*
X285002200Y-160000000D01*
D10*
D11*
X285692676Y-35222176D02*
X286311723Y-35222176D01*
X285568866Y-35593604D02*
X286002199Y-34293604D01*
X286002199Y-34293604D02*
X286435533Y-35593604D01*
D10*
D11*
X286095057Y-84912652D02*
X286280771Y-84974557D01*
X286280771Y-84974557D02*
X286342676Y-85036461D01*
X286342676Y-85036461D02*
X286404580Y-85160271D01*
X286404580Y-85160271D02*
X286404580Y-85345985D01*
X286404580Y-85345985D02*
X286342676Y-85469795D01*
X286342676Y-85469795D02*
X286280771Y-85531700D01*
X286280771Y-85531700D02*
X286156961Y-85593604D01*
X286156961Y-85593604D02*
X285661723Y-85593604D01*
X285661723Y-85593604D02*
X285661723Y-84293604D01*
X285661723Y-84293604D02*
X286095057Y-84293604D01*
X286095057Y-84293604D02*
X286218866Y-84355509D01*
X286218866Y-84355509D02*
X286280771Y-84417414D01*
X286280771Y-84417414D02*
X286342676Y-84541223D01*
X286342676Y-84541223D02*
X286342676Y-84665033D01*
X286342676Y-84665033D02*
X286280771Y-84788842D01*
X286280771Y-84788842D02*
X286218866Y-84850747D01*
X286218866Y-84850747D02*
X286095057Y-84912652D01*
X286095057Y-84912652D02*
X285661723Y-84912652D01*
D10*
D11*
X286404580Y-135469795D02*
X286342676Y-135531700D01*
X286342676Y-135531700D02*
X286156961Y-135593604D01*
X286156961Y-135593604D02*
X286033152Y-135593604D01*
X286033152Y-135593604D02*
X285847438Y-135531700D01*
X285847438Y-135531700D02*
X285723628Y-135407890D01*
X285723628Y-135407890D02*
X285661723Y-135284080D01*
X285661723Y-135284080D02*
X285599819Y-135036461D01*
X285599819Y-135036461D02*
X285599819Y-134850747D01*
X285599819Y-134850747D02*
X285661723Y-134603128D01*
X285661723Y-134603128D02*
X285723628Y-134479319D01*
X285723628Y-134479319D02*
X285847438Y-134355509D01*
X285847438Y-134355509D02*
X286033152Y-134293604D01*
X286033152Y-134293604D02*
X286156961Y-134293604D01*
X286156961Y-134293604D02*
X286342676Y-134355509D01*
X286342676Y-134355509D02*
X286404580Y-134417414D01*
D10*
D11*
X285661723Y-185593604D02*
X285661723Y-184293604D01*
X285661723Y-184293604D02*
X285971247Y-184293604D01*
X285971247Y-184293604D02*
X286156961Y-184355509D01*
X286156961Y-184355509D02*
X286280771Y-184479319D01*
X286280771Y-184479319D02*
X286342676Y-184603128D01*
X286342676Y-184603128D02*
X286404580Y-184850747D01*
X286404580Y-184850747D02*
X286404580Y-185036461D01*
X286404580Y-185036461D02*
X286342676Y-185284080D01*
X286342676Y-185284080D02*
X286280771Y-185407890D01*
X286280771Y-185407890D02*
X286156961Y-185531700D01*
X286156961Y-185531700D02*
X285971247Y-185593604D01*
X285971247Y-185593604D02*
X285661723Y-185593604D01*
D10*
D11*
X200458026Y-193793328D02*
X200458026Y-192293328D01*
X200458026Y-192293328D02*
X200815169Y-192293328D01*
X200815169Y-192293328D02*
X201029455Y-192364757D01*
X201029455Y-192364757D02*
X201172312Y-192507614D01*
X201172312Y-192507614D02*
X201243741Y-192650471D01*
X201243741Y-192650471D02*
X201315169Y-192936185D01*
X201315169Y-192936185D02*
X201315169Y-193150471D01*
X201315169Y-193150471D02*
X201243741Y-193436185D01*
X201243741Y-193436185D02*
X201172312Y-193579042D01*
X201172312Y-193579042D02*
X201029455Y-193721900D01*
X201029455Y-193721900D02*
X200815169Y-193793328D01*
X200815169Y-193793328D02*
X200458026Y-193793328D01*
X202600884Y-193793328D02*
X202600884Y-193007614D01*
X202600884Y-193007614D02*
X202529455Y-192864757D01*
X202529455Y-192864757D02*
X202386598Y-192793328D01*
X202386598Y-192793328D02*
X202100884Y-192793328D01*
X202100884Y-192793328D02*
X201958026Y-192864757D01*
X202600884Y-193721900D02*
X202458026Y-193793328D01*
X202458026Y-193793328D02*
X202100884Y-193793328D01*
X202100884Y-193793328D02*
X201958026Y-193721900D01*
X201958026Y-193721900D02*
X201886598Y-193579042D01*
X201886598Y-193579042D02*
X201886598Y-193436185D01*
X201886598Y-193436185D02*
X201958026Y-193293328D01*
X201958026Y-193293328D02*
X202100884Y-193221900D01*
X202100884Y-193221900D02*
X202458026Y-193221900D01*
X202458026Y-193221900D02*
X202600884Y-193150471D01*
X203100884Y-192793328D02*
X203672312Y-192793328D01*
X203315169Y-192293328D02*
X203315169Y-193579042D01*
X203315169Y-193579042D02*
X203386598Y-193721900D01*
X203386598Y-193721900D02*
X203529455Y-193793328D01*
X203529455Y-193793328D02*
X203672312Y-193793328D01*
X204743741Y-193721900D02*
X204600884Y-193793328D01*
X204600884Y-193793328D02*
X204315170Y-193793328D01*
X204315170Y-193793328D02*
X204172312Y-193721900D01*
X204172312Y-193721900D02*
X204100884Y-193579042D01*
X204100884Y-193579042D02*
X204100884Y-193007614D01*
X204100884Y-193007614D02*
X204172312Y-192864757D01*
X204172312Y-192864757D02*
X204315170Y-192793328D01*
X204315170Y-192793328D02*
X204600884Y-192793328D01*
X204600884Y-192793328D02*
X204743741Y-192864757D01*
X204743741Y-192864757D02*
X204815170Y-193007614D01*
X204815170Y-193007614D02*
X204815170Y-193150471D01*
X204815170Y-193150471D02*
X204100884Y-193293328D01*
X205458026Y-193650471D02*
X205529455Y-193721900D01*
X205529455Y-193721900D02*
X205458026Y-193793328D01*
X205458026Y-193793328D02*
X205386598Y-193721900D01*
X205386598Y-193721900D02*
X205458026Y-193650471D01*
X205458026Y-193650471D02*
X205458026Y-193793328D01*
X205458026Y-192864757D02*
X205529455Y-192936185D01*
X205529455Y-192936185D02*
X205458026Y-193007614D01*
X205458026Y-193007614D02*
X205386598Y-192936185D01*
X205386598Y-192936185D02*
X205458026Y-192864757D01*
X205458026Y-192864757D02*
X205458026Y-193007614D01*
X207243741Y-192436185D02*
X207315169Y-192364757D01*
X207315169Y-192364757D02*
X207458027Y-192293328D01*
X207458027Y-192293328D02*
X207815169Y-192293328D01*
X207815169Y-192293328D02*
X207958027Y-192364757D01*
X207958027Y-192364757D02*
X208029455Y-192436185D01*
X208029455Y-192436185D02*
X208100884Y-192579042D01*
X208100884Y-192579042D02*
X208100884Y-192721900D01*
X208100884Y-192721900D02*
X208029455Y-192936185D01*
X208029455Y-192936185D02*
X207172312Y-193793328D01*
X207172312Y-193793328D02*
X208100884Y-193793328D01*
X209029455Y-192293328D02*
X209172312Y-192293328D01*
X209172312Y-192293328D02*
X209315169Y-192364757D01*
X209315169Y-192364757D02*
X209386598Y-192436185D01*
X209386598Y-192436185D02*
X209458026Y-192579042D01*
X209458026Y-192579042D02*
X209529455Y-192864757D01*
X209529455Y-192864757D02*
X209529455Y-193221900D01*
X209529455Y-193221900D02*
X209458026Y-193507614D01*
X209458026Y-193507614D02*
X209386598Y-193650471D01*
X209386598Y-193650471D02*
X209315169Y-193721900D01*
X209315169Y-193721900D02*
X209172312Y-193793328D01*
X209172312Y-193793328D02*
X209029455Y-193793328D01*
X209029455Y-193793328D02*
X208886598Y-193721900D01*
X208886598Y-193721900D02*
X208815169Y-193650471D01*
X208815169Y-193650471D02*
X208743740Y-193507614D01*
X208743740Y-193507614D02*
X208672312Y-193221900D01*
X208672312Y-193221900D02*
X208672312Y-192864757D01*
X208672312Y-192864757D02*
X208743740Y-192579042D01*
X208743740Y-192579042D02*
X208815169Y-192436185D01*
X208815169Y-192436185D02*
X208886598Y-192364757D01*
X208886598Y-192364757D02*
X209029455Y-192293328D01*
X210100883Y-192436185D02*
X210172311Y-192364757D01*
X210172311Y-192364757D02*
X210315169Y-192293328D01*
X210315169Y-192293328D02*
X210672311Y-192293328D01*
X210672311Y-192293328D02*
X210815169Y-192364757D01*
X210815169Y-192364757D02*
X210886597Y-192436185D01*
X210886597Y-192436185D02*
X210958026Y-192579042D01*
X210958026Y-192579042D02*
X210958026Y-192721900D01*
X210958026Y-192721900D02*
X210886597Y-192936185D01*
X210886597Y-192936185D02*
X210029454Y-193793328D01*
X210029454Y-193793328D02*
X210958026Y-193793328D01*
X212315168Y-192293328D02*
X211600882Y-192293328D01*
X211600882Y-192293328D02*
X211529454Y-193007614D01*
X211529454Y-193007614D02*
X211600882Y-192936185D01*
X211600882Y-192936185D02*
X211743740Y-192864757D01*
X211743740Y-192864757D02*
X212100882Y-192864757D01*
X212100882Y-192864757D02*
X212243740Y-192936185D01*
X212243740Y-192936185D02*
X212315168Y-193007614D01*
X212315168Y-193007614D02*
X212386597Y-193150471D01*
X212386597Y-193150471D02*
X212386597Y-193507614D01*
X212386597Y-193507614D02*
X212315168Y-193650471D01*
X212315168Y-193650471D02*
X212243740Y-193721900D01*
X212243740Y-193721900D02*
X212100882Y-193793328D01*
X212100882Y-193793328D02*
X211743740Y-193793328D01*
X211743740Y-193793328D02*
X211600882Y-193721900D01*
X211600882Y-193721900D02*
X211529454Y-193650471D01*
X213029453Y-193221900D02*
X214172311Y-193221900D01*
X215672311Y-193793328D02*
X214815168Y-193793328D01*
X215243739Y-193793328D02*
X215243739Y-192293328D01*
X215243739Y-192293328D02*
X215100882Y-192507614D01*
X215100882Y-192507614D02*
X214958025Y-192650471D01*
X214958025Y-192650471D02*
X214815168Y-192721900D01*
X216600882Y-192293328D02*
X216743739Y-192293328D01*
X216743739Y-192293328D02*
X216886596Y-192364757D01*
X216886596Y-192364757D02*
X216958025Y-192436185D01*
X216958025Y-192436185D02*
X217029453Y-192579042D01*
X217029453Y-192579042D02*
X217100882Y-192864757D01*
X217100882Y-192864757D02*
X217100882Y-193221900D01*
X217100882Y-193221900D02*
X217029453Y-193507614D01*
X217029453Y-193507614D02*
X216958025Y-193650471D01*
X216958025Y-193650471D02*
X216886596Y-193721900D01*
X216886596Y-193721900D02*
X216743739Y-193793328D01*
X216743739Y-193793328D02*
X216600882Y-193793328D01*
X216600882Y-193793328D02*
X216458025Y-193721900D01*
X216458025Y-193721900D02*
X216386596Y-193650471D01*
X216386596Y-193650471D02*
X216315167Y-193507614D01*
X216315167Y-193507614D02*
X216243739Y-193221900D01*
X216243739Y-193221900D02*
X216243739Y-192864757D01*
X216243739Y-192864757D02*
X216315167Y-192579042D01*
X216315167Y-192579042D02*
X216386596Y-192436185D01*
X216386596Y-192436185D02*
X216458025Y-192364757D01*
X216458025Y-192364757D02*
X216600882Y-192293328D01*
X217743738Y-193221900D02*
X218886596Y-193221900D01*
X219458024Y-192293328D02*
X220386596Y-192293328D01*
X220386596Y-192293328D02*
X219886596Y-192864757D01*
X219886596Y-192864757D02*
X220100881Y-192864757D01*
X220100881Y-192864757D02*
X220243739Y-192936185D01*
X220243739Y-192936185D02*
X220315167Y-193007614D01*
X220315167Y-193007614D02*
X220386596Y-193150471D01*
X220386596Y-193150471D02*
X220386596Y-193507614D01*
X220386596Y-193507614D02*
X220315167Y-193650471D01*
X220315167Y-193650471D02*
X220243739Y-193721900D01*
X220243739Y-193721900D02*
X220100881Y-193793328D01*
X220100881Y-193793328D02*
X219672310Y-193793328D01*
X219672310Y-193793328D02*
X219529453Y-193721900D01*
X219529453Y-193721900D02*
X219458024Y-193650471D01*
X221815167Y-193793328D02*
X220958024Y-193793328D01*
X221386595Y-193793328D02*
X221386595Y-192293328D01*
X221386595Y-192293328D02*
X221243738Y-192507614D01*
X221243738Y-192507614D02*
X221100881Y-192650471D01*
X221100881Y-192650471D02*
X220958024Y-192721900D01*
D10*
D11*
X177002200Y-194507200D02*
X285002200Y-194507200D01*
D10*
D11*
X178458026Y-196593328D02*
X178458026Y-195093328D01*
X179315169Y-196593328D02*
X178672312Y-195736185D01*
X179315169Y-195093328D02*
X178458026Y-195950471D01*
X179958026Y-196593328D02*
X179958026Y-195593328D01*
X179958026Y-195093328D02*
X179886598Y-195164757D01*
X179886598Y-195164757D02*
X179958026Y-195236185D01*
X179958026Y-195236185D02*
X180029455Y-195164757D01*
X180029455Y-195164757D02*
X179958026Y-195093328D01*
X179958026Y-195093328D02*
X179958026Y-195236185D01*
X181529455Y-196450471D02*
X181458027Y-196521900D01*
X181458027Y-196521900D02*
X181243741Y-196593328D01*
X181243741Y-196593328D02*
X181100884Y-196593328D01*
X181100884Y-196593328D02*
X180886598Y-196521900D01*
X180886598Y-196521900D02*
X180743741Y-196379042D01*
X180743741Y-196379042D02*
X180672312Y-196236185D01*
X180672312Y-196236185D02*
X180600884Y-195950471D01*
X180600884Y-195950471D02*
X180600884Y-195736185D01*
X180600884Y-195736185D02*
X180672312Y-195450471D01*
X180672312Y-195450471D02*
X180743741Y-195307614D01*
X180743741Y-195307614D02*
X180886598Y-195164757D01*
X180886598Y-195164757D02*
X181100884Y-195093328D01*
X181100884Y-195093328D02*
X181243741Y-195093328D01*
X181243741Y-195093328D02*
X181458027Y-195164757D01*
X181458027Y-195164757D02*
X181529455Y-195236185D01*
X182815170Y-196593328D02*
X182815170Y-195807614D01*
X182815170Y-195807614D02*
X182743741Y-195664757D01*
X182743741Y-195664757D02*
X182600884Y-195593328D01*
X182600884Y-195593328D02*
X182315170Y-195593328D01*
X182315170Y-195593328D02*
X182172312Y-195664757D01*
X182815170Y-196521900D02*
X182672312Y-196593328D01*
X182672312Y-196593328D02*
X182315170Y-196593328D01*
X182315170Y-196593328D02*
X182172312Y-196521900D01*
X182172312Y-196521900D02*
X182100884Y-196379042D01*
X182100884Y-196379042D02*
X182100884Y-196236185D01*
X182100884Y-196236185D02*
X182172312Y-196093328D01*
X182172312Y-196093328D02*
X182315170Y-196021900D01*
X182315170Y-196021900D02*
X182672312Y-196021900D01*
X182672312Y-196021900D02*
X182815170Y-195950471D01*
X184172313Y-196593328D02*
X184172313Y-195093328D01*
X184172313Y-196521900D02*
X184029455Y-196593328D01*
X184029455Y-196593328D02*
X183743741Y-196593328D01*
X183743741Y-196593328D02*
X183600884Y-196521900D01*
X183600884Y-196521900D02*
X183529455Y-196450471D01*
X183529455Y-196450471D02*
X183458027Y-196307614D01*
X183458027Y-196307614D02*
X183458027Y-195879042D01*
X183458027Y-195879042D02*
X183529455Y-195736185D01*
X183529455Y-195736185D02*
X183600884Y-195664757D01*
X183600884Y-195664757D02*
X183743741Y-195593328D01*
X183743741Y-195593328D02*
X184029455Y-195593328D01*
X184029455Y-195593328D02*
X184172313Y-195664757D01*
X186029455Y-195807614D02*
X186529455Y-195807614D01*
X186743741Y-196593328D02*
X186029455Y-196593328D01*
X186029455Y-196593328D02*
X186029455Y-195093328D01*
X186029455Y-195093328D02*
X186743741Y-195093328D01*
X187386598Y-196450471D02*
X187458027Y-196521900D01*
X187458027Y-196521900D02*
X187386598Y-196593328D01*
X187386598Y-196593328D02*
X187315170Y-196521900D01*
X187315170Y-196521900D02*
X187386598Y-196450471D01*
X187386598Y-196450471D02*
X187386598Y-196593328D01*
X188100884Y-196593328D02*
X188100884Y-195093328D01*
X188100884Y-195093328D02*
X188458027Y-195093328D01*
X188458027Y-195093328D02*
X188672313Y-195164757D01*
X188672313Y-195164757D02*
X188815170Y-195307614D01*
X188815170Y-195307614D02*
X188886599Y-195450471D01*
X188886599Y-195450471D02*
X188958027Y-195736185D01*
X188958027Y-195736185D02*
X188958027Y-195950471D01*
X188958027Y-195950471D02*
X188886599Y-196236185D01*
X188886599Y-196236185D02*
X188815170Y-196379042D01*
X188815170Y-196379042D02*
X188672313Y-196521900D01*
X188672313Y-196521900D02*
X188458027Y-196593328D01*
X188458027Y-196593328D02*
X188100884Y-196593328D01*
X189600884Y-196450471D02*
X189672313Y-196521900D01*
X189672313Y-196521900D02*
X189600884Y-196593328D01*
X189600884Y-196593328D02*
X189529456Y-196521900D01*
X189529456Y-196521900D02*
X189600884Y-196450471D01*
X189600884Y-196450471D02*
X189600884Y-196593328D01*
X190243742Y-196164757D02*
X190958028Y-196164757D01*
X190100885Y-196593328D02*
X190600885Y-195093328D01*
X190600885Y-195093328D02*
X191100885Y-196593328D01*
X191600884Y-196450471D02*
X191672313Y-196521900D01*
X191672313Y-196521900D02*
X191600884Y-196593328D01*
X191600884Y-196593328D02*
X191529456Y-196521900D01*
X191529456Y-196521900D02*
X191600884Y-196450471D01*
X191600884Y-196450471D02*
X191600884Y-196593328D01*
X193529456Y-196593328D02*
X193815170Y-196593328D01*
X193815170Y-196593328D02*
X193958027Y-196521900D01*
X193958027Y-196521900D02*
X194029456Y-196450471D01*
X194029456Y-196450471D02*
X194172313Y-196236185D01*
X194172313Y-196236185D02*
X194243742Y-195950471D01*
X194243742Y-195950471D02*
X194243742Y-195379042D01*
X194243742Y-195379042D02*
X194172313Y-195236185D01*
X194172313Y-195236185D02*
X194100885Y-195164757D01*
X194100885Y-195164757D02*
X193958027Y-195093328D01*
X193958027Y-195093328D02*
X193672313Y-195093328D01*
X193672313Y-195093328D02*
X193529456Y-195164757D01*
X193529456Y-195164757D02*
X193458027Y-195236185D01*
X193458027Y-195236185D02*
X193386599Y-195379042D01*
X193386599Y-195379042D02*
X193386599Y-195736185D01*
X193386599Y-195736185D02*
X193458027Y-195879042D01*
X193458027Y-195879042D02*
X193529456Y-195950471D01*
X193529456Y-195950471D02*
X193672313Y-196021900D01*
X193672313Y-196021900D02*
X193958027Y-196021900D01*
X193958027Y-196021900D02*
X194100885Y-195950471D01*
X194100885Y-195950471D02*
X194172313Y-195879042D01*
X194172313Y-195879042D02*
X194243742Y-195736185D01*
X194886598Y-196450471D02*
X194958027Y-196521900D01*
X194958027Y-196521900D02*
X194886598Y-196593328D01*
X194886598Y-196593328D02*
X194815170Y-196521900D01*
X194815170Y-196521900D02*
X194886598Y-196450471D01*
X194886598Y-196450471D02*
X194886598Y-196593328D01*
X195886599Y-195093328D02*
X196029456Y-195093328D01*
X196029456Y-195093328D02*
X196172313Y-195164757D01*
X196172313Y-195164757D02*
X196243742Y-195236185D01*
X196243742Y-195236185D02*
X196315170Y-195379042D01*
X196315170Y-195379042D02*
X196386599Y-195664757D01*
X196386599Y-195664757D02*
X196386599Y-196021900D01*
X196386599Y-196021900D02*
X196315170Y-196307614D01*
X196315170Y-196307614D02*
X196243742Y-196450471D01*
X196243742Y-196450471D02*
X196172313Y-196521900D01*
X196172313Y-196521900D02*
X196029456Y-196593328D01*
X196029456Y-196593328D02*
X195886599Y-196593328D01*
X195886599Y-196593328D02*
X195743742Y-196521900D01*
X195743742Y-196521900D02*
X195672313Y-196450471D01*
X195672313Y-196450471D02*
X195600884Y-196307614D01*
X195600884Y-196307614D02*
X195529456Y-196021900D01*
X195529456Y-196021900D02*
X195529456Y-195664757D01*
X195529456Y-195664757D02*
X195600884Y-195379042D01*
X195600884Y-195379042D02*
X195672313Y-195236185D01*
X195672313Y-195236185D02*
X195743742Y-195164757D01*
X195743742Y-195164757D02*
X195886599Y-195093328D01*
X197029455Y-196450471D02*
X197100884Y-196521900D01*
X197100884Y-196521900D02*
X197029455Y-196593328D01*
X197029455Y-196593328D02*
X196958027Y-196521900D01*
X196958027Y-196521900D02*
X197029455Y-196450471D01*
X197029455Y-196450471D02*
X197029455Y-196593328D01*
X198458027Y-195093328D02*
X197743741Y-195093328D01*
X197743741Y-195093328D02*
X197672313Y-195807614D01*
X197672313Y-195807614D02*
X197743741Y-195736185D01*
X197743741Y-195736185D02*
X197886599Y-195664757D01*
X197886599Y-195664757D02*
X198243741Y-195664757D01*
X198243741Y-195664757D02*
X198386599Y-195736185D01*
X198386599Y-195736185D02*
X198458027Y-195807614D01*
X198458027Y-195807614D02*
X198529456Y-195950471D01*
X198529456Y-195950471D02*
X198529456Y-196307614D01*
X198529456Y-196307614D02*
X198458027Y-196450471D01*
X198458027Y-196450471D02*
X198386599Y-196521900D01*
X198386599Y-196521900D02*
X198243741Y-196593328D01*
X198243741Y-196593328D02*
X197886599Y-196593328D01*
X197886599Y-196593328D02*
X197743741Y-196521900D01*
X197743741Y-196521900D02*
X197672313Y-196450471D01*
D10*
D11*
X177002200Y-191507200D02*
X285002200Y-191507200D01*
D10*
D12*
X264413853Y-193785528D02*
X263913853Y-193071242D01*
X263556710Y-193785528D02*
X263556710Y-192285528D01*
X263556710Y-192285528D02*
X264128139Y-192285528D01*
X264128139Y-192285528D02*
X264270996Y-192356957D01*
X264270996Y-192356957D02*
X264342425Y-192428385D01*
X264342425Y-192428385D02*
X264413853Y-192571242D01*
X264413853Y-192571242D02*
X264413853Y-192785528D01*
X264413853Y-192785528D02*
X264342425Y-192928385D01*
X264342425Y-192928385D02*
X264270996Y-192999814D01*
X264270996Y-192999814D02*
X264128139Y-193071242D01*
X264128139Y-193071242D02*
X263556710Y-193071242D01*
X265628139Y-193714100D02*
X265485282Y-193785528D01*
X265485282Y-193785528D02*
X265199568Y-193785528D01*
X265199568Y-193785528D02*
X265056710Y-193714100D01*
X265056710Y-193714100D02*
X264985282Y-193571242D01*
X264985282Y-193571242D02*
X264985282Y-192999814D01*
X264985282Y-192999814D02*
X265056710Y-192856957D01*
X265056710Y-192856957D02*
X265199568Y-192785528D01*
X265199568Y-192785528D02*
X265485282Y-192785528D01*
X265485282Y-192785528D02*
X265628139Y-192856957D01*
X265628139Y-192856957D02*
X265699568Y-192999814D01*
X265699568Y-192999814D02*
X265699568Y-193142671D01*
X265699568Y-193142671D02*
X264985282Y-193285528D01*
X266199567Y-192785528D02*
X266556710Y-193785528D01*
X266556710Y-193785528D02*
X266913853Y-192785528D01*
X267485281Y-193642671D02*
X267556710Y-193714100D01*
X267556710Y-193714100D02*
X267485281Y-193785528D01*
X267485281Y-193785528D02*
X267413853Y-193714100D01*
X267413853Y-193714100D02*
X267485281Y-193642671D01*
X267485281Y-193642671D02*
X267485281Y-193785528D01*
X267485281Y-192856957D02*
X267556710Y-192928385D01*
X267556710Y-192928385D02*
X267485281Y-192999814D01*
X267485281Y-192999814D02*
X267413853Y-192928385D01*
X267413853Y-192928385D02*
X267485281Y-192856957D01*
X267485281Y-192856957D02*
X267485281Y-192999814D01*
X270128139Y-193785528D02*
X269270996Y-193785528D01*
X269699567Y-193785528D02*
X269699567Y-192285528D01*
X269699567Y-192285528D02*
X269556710Y-192499814D01*
X269556710Y-192499814D02*
X269413853Y-192642671D01*
X269413853Y-192642671D02*
X269270996Y-192714100D01*
D10*
D11*
X178386598Y-193721900D02*
X178600884Y-193793328D01*
X178600884Y-193793328D02*
X178958026Y-193793328D01*
X178958026Y-193793328D02*
X179100884Y-193721900D01*
X179100884Y-193721900D02*
X179172312Y-193650471D01*
X179172312Y-193650471D02*
X179243741Y-193507614D01*
X179243741Y-193507614D02*
X179243741Y-193364757D01*
X179243741Y-193364757D02*
X179172312Y-193221900D01*
X179172312Y-193221900D02*
X179100884Y-193150471D01*
X179100884Y-193150471D02*
X178958026Y-193079042D01*
X178958026Y-193079042D02*
X178672312Y-193007614D01*
X178672312Y-193007614D02*
X178529455Y-192936185D01*
X178529455Y-192936185D02*
X178458026Y-192864757D01*
X178458026Y-192864757D02*
X178386598Y-192721900D01*
X178386598Y-192721900D02*
X178386598Y-192579042D01*
X178386598Y-192579042D02*
X178458026Y-192436185D01*
X178458026Y-192436185D02*
X178529455Y-192364757D01*
X178529455Y-192364757D02*
X178672312Y-192293328D01*
X178672312Y-192293328D02*
X179029455Y-192293328D01*
X179029455Y-192293328D02*
X179243741Y-192364757D01*
X179886597Y-193793328D02*
X179886597Y-192793328D01*
X179886597Y-192293328D02*
X179815169Y-192364757D01*
X179815169Y-192364757D02*
X179886597Y-192436185D01*
X179886597Y-192436185D02*
X179958026Y-192364757D01*
X179958026Y-192364757D02*
X179886597Y-192293328D01*
X179886597Y-192293328D02*
X179886597Y-192436185D01*
X180458026Y-192793328D02*
X181243741Y-192793328D01*
X181243741Y-192793328D02*
X180458026Y-193793328D01*
X180458026Y-193793328D02*
X181243741Y-193793328D01*
X182386598Y-193721900D02*
X182243741Y-193793328D01*
X182243741Y-193793328D02*
X181958027Y-193793328D01*
X181958027Y-193793328D02*
X181815169Y-193721900D01*
X181815169Y-193721900D02*
X181743741Y-193579042D01*
X181743741Y-193579042D02*
X181743741Y-193007614D01*
X181743741Y-193007614D02*
X181815169Y-192864757D01*
X181815169Y-192864757D02*
X181958027Y-192793328D01*
X181958027Y-192793328D02*
X182243741Y-192793328D01*
X182243741Y-192793328D02*
X182386598Y-192864757D01*
X182386598Y-192864757D02*
X182458027Y-193007614D01*
X182458027Y-193007614D02*
X182458027Y-193150471D01*
X182458027Y-193150471D02*
X181743741Y-193293328D01*
X183100883Y-193650471D02*
X183172312Y-193721900D01*
X183172312Y-193721900D02*
X183100883Y-193793328D01*
X183100883Y-193793328D02*
X183029455Y-193721900D01*
X183029455Y-193721900D02*
X183100883Y-193650471D01*
X183100883Y-193650471D02*
X183100883Y-193793328D01*
X183100883Y-192864757D02*
X183172312Y-192936185D01*
X183172312Y-192936185D02*
X183100883Y-193007614D01*
X183100883Y-193007614D02*
X183029455Y-192936185D01*
X183029455Y-192936185D02*
X183100883Y-192864757D01*
X183100883Y-192864757D02*
X183100883Y-193007614D01*
X184886598Y-193364757D02*
X185600884Y-193364757D01*
X184743741Y-193793328D02*
X185243741Y-192293328D01*
X185243741Y-192293328D02*
X185743741Y-193793328D01*
X186886598Y-192793328D02*
X186886598Y-193793328D01*
X186529455Y-192221900D02*
X186172312Y-193293328D01*
X186172312Y-193293328D02*
X187100883Y-193293328D01*
D10*
D11*
X263458026Y-196593328D02*
X263458026Y-195093328D01*
X264815170Y-196593328D02*
X264815170Y-195093328D01*
X264815170Y-196521900D02*
X264672312Y-196593328D01*
X264672312Y-196593328D02*
X264386598Y-196593328D01*
X264386598Y-196593328D02*
X264243741Y-196521900D01*
X264243741Y-196521900D02*
X264172312Y-196450471D01*
X264172312Y-196450471D02*
X264100884Y-196307614D01*
X264100884Y-196307614D02*
X264100884Y-195879042D01*
X264100884Y-195879042D02*
X264172312Y-195736185D01*
X264172312Y-195736185D02*
X264243741Y-195664757D01*
X264243741Y-195664757D02*
X264386598Y-195593328D01*
X264386598Y-195593328D02*
X264672312Y-195593328D01*
X264672312Y-195593328D02*
X264815170Y-195664757D01*
X265529455Y-196450471D02*
X265600884Y-196521900D01*
X265600884Y-196521900D02*
X265529455Y-196593328D01*
X265529455Y-196593328D02*
X265458027Y-196521900D01*
X265458027Y-196521900D02*
X265529455Y-196450471D01*
X265529455Y-196450471D02*
X265529455Y-196593328D01*
X265529455Y-195664757D02*
X265600884Y-195736185D01*
X265600884Y-195736185D02*
X265529455Y-195807614D01*
X265529455Y-195807614D02*
X265458027Y-195736185D01*
X265458027Y-195736185D02*
X265529455Y-195664757D01*
X265529455Y-195664757D02*
X265529455Y-195807614D01*
X268100884Y-195093328D02*
X267386598Y-195093328D01*
X267386598Y-195093328D02*
X267315170Y-195807614D01*
X267315170Y-195807614D02*
X267386598Y-195736185D01*
X267386598Y-195736185D02*
X267529456Y-195664757D01*
X267529456Y-195664757D02*
X267886598Y-195664757D01*
X267886598Y-195664757D02*
X268029456Y-195736185D01*
X268029456Y-195736185D02*
X268100884Y-195807614D01*
X268100884Y-195807614D02*
X268172313Y-195950471D01*
X268172313Y-195950471D02*
X268172313Y-196307614D01*
X268172313Y-196307614D02*
X268100884Y-196450471D01*
X268100884Y-196450471D02*
X268029456Y-196521900D01*
X268029456Y-196521900D02*
X267886598Y-196593328D01*
X267886598Y-196593328D02*
X267529456Y-196593328D01*
X267529456Y-196593328D02*
X267386598Y-196521900D01*
X267386598Y-196521900D02*
X267315170Y-196450471D01*
X269886598Y-195021900D02*
X268600884Y-196950471D01*
X270458027Y-196593328D02*
X270743741Y-196593328D01*
X270743741Y-196593328D02*
X270886598Y-196521900D01*
X270886598Y-196521900D02*
X270958027Y-196450471D01*
X270958027Y-196450471D02*
X271100884Y-196236185D01*
X271100884Y-196236185D02*
X271172313Y-195950471D01*
X271172313Y-195950471D02*
X271172313Y-195379042D01*
X271172313Y-195379042D02*
X271100884Y-195236185D01*
X271100884Y-195236185D02*
X271029456Y-195164757D01*
X271029456Y-195164757D02*
X270886598Y-195093328D01*
X270886598Y-195093328D02*
X270600884Y-195093328D01*
X270600884Y-195093328D02*
X270458027Y-195164757D01*
X270458027Y-195164757D02*
X270386598Y-195236185D01*
X270386598Y-195236185D02*
X270315170Y-195379042D01*
X270315170Y-195379042D02*
X270315170Y-195736185D01*
X270315170Y-195736185D02*
X270386598Y-195879042D01*
X270386598Y-195879042D02*
X270458027Y-195950471D01*
X270458027Y-195950471D02*
X270600884Y-196021900D01*
X270600884Y-196021900D02*
X270886598Y-196021900D01*
X270886598Y-196021900D02*
X271029456Y-195950471D01*
X271029456Y-195950471D02*
X271100884Y-195879042D01*
X271100884Y-195879042D02*
X271172313Y-195736185D01*
D10*
D11*
X177002200Y-187507200D02*
X285002200Y-187507200D01*
D10*
D13*
X178693928Y-188211638D02*
X179836785Y-188211638D01*
X179015357Y-190211638D02*
X179265357Y-188211638D01*
X180253452Y-190211638D02*
X180420119Y-188878304D01*
X180503452Y-188211638D02*
X180396309Y-188306876D01*
X180396309Y-188306876D02*
X180479643Y-188402114D01*
X180479643Y-188402114D02*
X180586786Y-188306876D01*
X180586786Y-188306876D02*
X180503452Y-188211638D01*
X180503452Y-188211638D02*
X180479643Y-188402114D01*
X181086786Y-188878304D02*
X181848690Y-188878304D01*
X181455833Y-188211638D02*
X181241548Y-189925923D01*
X181241548Y-189925923D02*
X181312976Y-190116400D01*
X181312976Y-190116400D02*
X181491548Y-190211638D01*
X181491548Y-190211638D02*
X181682024Y-190211638D01*
X182634405Y-190211638D02*
X182455833Y-190116400D01*
X182455833Y-190116400D02*
X182384405Y-189925923D01*
X182384405Y-189925923D02*
X182598690Y-188211638D01*
X184170119Y-190116400D02*
X183967738Y-190211638D01*
X183967738Y-190211638D02*
X183586785Y-190211638D01*
X183586785Y-190211638D02*
X183408214Y-190116400D01*
X183408214Y-190116400D02*
X183336785Y-189925923D01*
X183336785Y-189925923D02*
X183432024Y-189164019D01*
X183432024Y-189164019D02*
X183551071Y-188973542D01*
X183551071Y-188973542D02*
X183753452Y-188878304D01*
X183753452Y-188878304D02*
X184134404Y-188878304D01*
X184134404Y-188878304D02*
X184312976Y-188973542D01*
X184312976Y-188973542D02*
X184384404Y-189164019D01*
X184384404Y-189164019D02*
X184360595Y-189354495D01*
X184360595Y-189354495D02*
X183384404Y-189544971D01*
X185134405Y-190021161D02*
X185217738Y-190116400D01*
X185217738Y-190116400D02*
X185110595Y-190211638D01*
X185110595Y-190211638D02*
X185027262Y-190116400D01*
X185027262Y-190116400D02*
X185134405Y-190021161D01*
X185134405Y-190021161D02*
X185110595Y-190211638D01*
X185265357Y-188973542D02*
X185348690Y-189068780D01*
X185348690Y-189068780D02*
X185241548Y-189164019D01*
X185241548Y-189164019D02*
X185158214Y-189068780D01*
X185158214Y-189068780D02*
X185265357Y-188973542D01*
X185265357Y-188973542D02*
X185241548Y-189164019D01*
X188539167Y-190211638D02*
X187586786Y-190211638D01*
X187586786Y-190211638D02*
X187836786Y-188211638D01*
X189979644Y-190116400D02*
X189777263Y-190211638D01*
X189777263Y-190211638D02*
X189396310Y-190211638D01*
X189396310Y-190211638D02*
X189217739Y-190116400D01*
X189217739Y-190116400D02*
X189146310Y-189925923D01*
X189146310Y-189925923D02*
X189241549Y-189164019D01*
X189241549Y-189164019D02*
X189360596Y-188973542D01*
X189360596Y-188973542D02*
X189562977Y-188878304D01*
X189562977Y-188878304D02*
X189943929Y-188878304D01*
X189943929Y-188878304D02*
X190122501Y-188973542D01*
X190122501Y-188973542D02*
X190193929Y-189164019D01*
X190193929Y-189164019D02*
X190170120Y-189354495D01*
X190170120Y-189354495D02*
X189193929Y-189544971D01*
X191777263Y-190211638D02*
X191908215Y-189164019D01*
X191908215Y-189164019D02*
X191836787Y-188973542D01*
X191836787Y-188973542D02*
X191658215Y-188878304D01*
X191658215Y-188878304D02*
X191277263Y-188878304D01*
X191277263Y-188878304D02*
X191074882Y-188973542D01*
X191789168Y-190116400D02*
X191586787Y-190211638D01*
X191586787Y-190211638D02*
X191110596Y-190211638D01*
X191110596Y-190211638D02*
X190932025Y-190116400D01*
X190932025Y-190116400D02*
X190860596Y-189925923D01*
X190860596Y-189925923D02*
X190884406Y-189735447D01*
X190884406Y-189735447D02*
X191003454Y-189544971D01*
X191003454Y-189544971D02*
X191205835Y-189449733D01*
X191205835Y-189449733D02*
X191682025Y-189449733D01*
X191682025Y-189449733D02*
X191884406Y-189354495D01*
X192729644Y-190211638D02*
X192896311Y-188878304D01*
X192848692Y-189259257D02*
X192967739Y-189068780D01*
X192967739Y-189068780D02*
X193074882Y-188973542D01*
X193074882Y-188973542D02*
X193277263Y-188878304D01*
X193277263Y-188878304D02*
X193467739Y-188878304D01*
X194134406Y-188878304D02*
X193967739Y-190211638D01*
X194110596Y-189068780D02*
X194217739Y-188973542D01*
X194217739Y-188973542D02*
X194420120Y-188878304D01*
X194420120Y-188878304D02*
X194705834Y-188878304D01*
X194705834Y-188878304D02*
X194884406Y-188973542D01*
X194884406Y-188973542D02*
X194955834Y-189164019D01*
X194955834Y-189164019D02*
X194824882Y-190211638D01*
X195777263Y-190211638D02*
X195943930Y-188878304D01*
X196027263Y-188211638D02*
X195920120Y-188306876D01*
X195920120Y-188306876D02*
X196003454Y-188402114D01*
X196003454Y-188402114D02*
X196110597Y-188306876D01*
X196110597Y-188306876D02*
X196027263Y-188211638D01*
X196027263Y-188211638D02*
X196003454Y-188402114D01*
X196896311Y-188878304D02*
X196729644Y-190211638D01*
X196872501Y-189068780D02*
X196979644Y-188973542D01*
X196979644Y-188973542D02*
X197182025Y-188878304D01*
X197182025Y-188878304D02*
X197467739Y-188878304D01*
X197467739Y-188878304D02*
X197646311Y-188973542D01*
X197646311Y-188973542D02*
X197717739Y-189164019D01*
X197717739Y-189164019D02*
X197586787Y-190211638D01*
X199562978Y-188878304D02*
X199360597Y-190497352D01*
X199360597Y-190497352D02*
X199241549Y-190687828D01*
X199241549Y-190687828D02*
X199134406Y-190783066D01*
X199134406Y-190783066D02*
X198932025Y-190878304D01*
X198932025Y-190878304D02*
X198646311Y-190878304D01*
X198646311Y-190878304D02*
X198467740Y-190783066D01*
X199408216Y-190116400D02*
X199205835Y-190211638D01*
X199205835Y-190211638D02*
X198824883Y-190211638D01*
X198824883Y-190211638D02*
X198646311Y-190116400D01*
X198646311Y-190116400D02*
X198562978Y-190021161D01*
X198562978Y-190021161D02*
X198491549Y-189830685D01*
X198491549Y-189830685D02*
X198562978Y-189259257D01*
X198562978Y-189259257D02*
X198682025Y-189068780D01*
X198682025Y-189068780D02*
X198789168Y-188973542D01*
X198789168Y-188973542D02*
X198991549Y-188878304D01*
X198991549Y-188878304D02*
X199372502Y-188878304D01*
X199372502Y-188878304D02*
X199551073Y-188973542D01*
X201872502Y-190211638D02*
X202122502Y-188211638D01*
X203015359Y-190211638D02*
X202301074Y-189068780D01*
X203265359Y-188211638D02*
X201979645Y-189354495D01*
X203872502Y-190211638D02*
X204039169Y-188878304D01*
X204122502Y-188211638D02*
X204015359Y-188306876D01*
X204015359Y-188306876D02*
X204098693Y-188402114D01*
X204098693Y-188402114D02*
X204205836Y-188306876D01*
X204205836Y-188306876D02*
X204122502Y-188211638D01*
X204122502Y-188211638D02*
X204098693Y-188402114D01*
X205991550Y-190021161D02*
X205884407Y-190116400D01*
X205884407Y-190116400D02*
X205586788Y-190211638D01*
X205586788Y-190211638D02*
X205396312Y-190211638D01*
X205396312Y-190211638D02*
X205122502Y-190116400D01*
X205122502Y-190116400D02*
X204955836Y-189925923D01*
X204955836Y-189925923D02*
X204884407Y-189735447D01*
X204884407Y-189735447D02*
X204836788Y-189354495D01*
X204836788Y-189354495D02*
X204872502Y-189068780D01*
X204872502Y-189068780D02*
X205015359Y-188687828D01*
X205015359Y-188687828D02*
X205134407Y-188497352D01*
X205134407Y-188497352D02*
X205348693Y-188306876D01*
X205348693Y-188306876D02*
X205646312Y-188211638D01*
X205646312Y-188211638D02*
X205836788Y-188211638D01*
X205836788Y-188211638D02*
X206110598Y-188306876D01*
X206110598Y-188306876D02*
X206193931Y-188402114D01*
X206801074Y-189640209D02*
X207753455Y-189640209D01*
X206539169Y-190211638D02*
X207455836Y-188211638D01*
X207455836Y-188211638D02*
X207872502Y-190211638D01*
X208539169Y-190211638D02*
X208789169Y-188211638D01*
X208789169Y-188211638D02*
X209265360Y-188211638D01*
X209265360Y-188211638D02*
X209539169Y-188306876D01*
X209539169Y-188306876D02*
X209705836Y-188497352D01*
X209705836Y-188497352D02*
X209777264Y-188687828D01*
X209777264Y-188687828D02*
X209824884Y-189068780D01*
X209824884Y-189068780D02*
X209789169Y-189354495D01*
X209789169Y-189354495D02*
X209646312Y-189735447D01*
X209646312Y-189735447D02*
X209527264Y-189925923D01*
X209527264Y-189925923D02*
X209312979Y-190116400D01*
X209312979Y-190116400D02*
X209015360Y-190211638D01*
X209015360Y-190211638D02*
X208539169Y-190211638D01*
X212039170Y-188878304D02*
X212253455Y-190211638D01*
X212253455Y-190211638D02*
X212753455Y-189259257D01*
X212753455Y-189259257D02*
X213015360Y-190211638D01*
X213015360Y-190211638D02*
X213562979Y-188878304D01*
X214158217Y-190211638D02*
X214324884Y-188878304D01*
X214408217Y-188211638D02*
X214301074Y-188306876D01*
X214301074Y-188306876D02*
X214384408Y-188402114D01*
X214384408Y-188402114D02*
X214491551Y-188306876D01*
X214491551Y-188306876D02*
X214408217Y-188211638D01*
X214408217Y-188211638D02*
X214384408Y-188402114D01*
X214991551Y-188878304D02*
X215753455Y-188878304D01*
X215360598Y-188211638D02*
X215146313Y-189925923D01*
X215146313Y-189925923D02*
X215217741Y-190116400D01*
X215217741Y-190116400D02*
X215396313Y-190211638D01*
X215396313Y-190211638D02*
X215586789Y-190211638D01*
X216253455Y-190211638D02*
X216503455Y-188211638D01*
X217110598Y-190211638D02*
X217241550Y-189164019D01*
X217241550Y-189164019D02*
X217170122Y-188973542D01*
X217170122Y-188973542D02*
X216991550Y-188878304D01*
X216991550Y-188878304D02*
X216705836Y-188878304D01*
X216705836Y-188878304D02*
X216503455Y-188973542D01*
X216503455Y-188973542D02*
X216396312Y-189068780D01*
X220443932Y-190211638D02*
X220574884Y-189164019D01*
X220574884Y-189164019D02*
X220503456Y-188973542D01*
X220503456Y-188973542D02*
X220324884Y-188878304D01*
X220324884Y-188878304D02*
X219943932Y-188878304D01*
X219943932Y-188878304D02*
X219741551Y-188973542D01*
X220455837Y-190116400D02*
X220253456Y-190211638D01*
X220253456Y-190211638D02*
X219777265Y-190211638D01*
X219777265Y-190211638D02*
X219598694Y-190116400D01*
X219598694Y-190116400D02*
X219527265Y-189925923D01*
X219527265Y-189925923D02*
X219551075Y-189735447D01*
X219551075Y-189735447D02*
X219670123Y-189544971D01*
X219670123Y-189544971D02*
X219872504Y-189449733D01*
X219872504Y-189449733D02*
X220348694Y-189449733D01*
X220348694Y-189449733D02*
X220551075Y-189354495D01*
X222836790Y-190116400D02*
X223015361Y-190211638D01*
X223015361Y-190211638D02*
X223396314Y-190211638D01*
X223396314Y-190211638D02*
X223598695Y-190116400D01*
X223598695Y-190116400D02*
X223717742Y-189925923D01*
X223717742Y-189925923D02*
X223729647Y-189830685D01*
X223729647Y-189830685D02*
X223658218Y-189640209D01*
X223658218Y-189640209D02*
X223479647Y-189544971D01*
X223479647Y-189544971D02*
X223193933Y-189544971D01*
X223193933Y-189544971D02*
X223015361Y-189449733D01*
X223015361Y-189449733D02*
X222943933Y-189259257D01*
X222943933Y-189259257D02*
X222955838Y-189164019D01*
X222955838Y-189164019D02*
X223074885Y-188973542D01*
X223074885Y-188973542D02*
X223277266Y-188878304D01*
X223277266Y-188878304D02*
X223562980Y-188878304D01*
X223562980Y-188878304D02*
X223741552Y-188973542D01*
X224539171Y-190211638D02*
X224705838Y-188878304D01*
X224789171Y-188211638D02*
X224682028Y-188306876D01*
X224682028Y-188306876D02*
X224765362Y-188402114D01*
X224765362Y-188402114D02*
X224872505Y-188306876D01*
X224872505Y-188306876D02*
X224789171Y-188211638D01*
X224789171Y-188211638D02*
X224765362Y-188402114D01*
X225491552Y-190211638D02*
X225658219Y-188878304D01*
X225634409Y-189068780D02*
X225741552Y-188973542D01*
X225741552Y-188973542D02*
X225943933Y-188878304D01*
X225943933Y-188878304D02*
X226229647Y-188878304D01*
X226229647Y-188878304D02*
X226408219Y-188973542D01*
X226408219Y-188973542D02*
X226479647Y-189164019D01*
X226479647Y-189164019D02*
X226348695Y-190211638D01*
X226479647Y-189164019D02*
X226598695Y-188973542D01*
X226598695Y-188973542D02*
X226801076Y-188878304D01*
X226801076Y-188878304D02*
X227086790Y-188878304D01*
X227086790Y-188878304D02*
X227265362Y-188973542D01*
X227265362Y-188973542D02*
X227336790Y-189164019D01*
X227336790Y-189164019D02*
X227205838Y-190211638D01*
X228324886Y-188878304D02*
X228074886Y-190878304D01*
X228312981Y-188973542D02*
X228515362Y-188878304D01*
X228515362Y-188878304D02*
X228896314Y-188878304D01*
X228896314Y-188878304D02*
X229074886Y-188973542D01*
X229074886Y-188973542D02*
X229158219Y-189068780D01*
X229158219Y-189068780D02*
X229229648Y-189259257D01*
X229229648Y-189259257D02*
X229158219Y-189830685D01*
X229158219Y-189830685D02*
X229039172Y-190021161D01*
X229039172Y-190021161D02*
X228932029Y-190116400D01*
X228932029Y-190116400D02*
X228729648Y-190211638D01*
X228729648Y-190211638D02*
X228348695Y-190211638D01*
X228348695Y-190211638D02*
X228170124Y-190116400D01*
X230253458Y-190211638D02*
X230074886Y-190116400D01*
X230074886Y-190116400D02*
X230003458Y-189925923D01*
X230003458Y-189925923D02*
X230217743Y-188211638D01*
X231789172Y-190116400D02*
X231586791Y-190211638D01*
X231586791Y-190211638D02*
X231205838Y-190211638D01*
X231205838Y-190211638D02*
X231027267Y-190116400D01*
X231027267Y-190116400D02*
X230955838Y-189925923D01*
X230955838Y-189925923D02*
X231051077Y-189164019D01*
X231051077Y-189164019D02*
X231170124Y-188973542D01*
X231170124Y-188973542D02*
X231372505Y-188878304D01*
X231372505Y-188878304D02*
X231753457Y-188878304D01*
X231753457Y-188878304D02*
X231932029Y-188973542D01*
X231932029Y-188973542D02*
X232003457Y-189164019D01*
X232003457Y-189164019D02*
X231979648Y-189354495D01*
X231979648Y-189354495D02*
X231003457Y-189544971D01*
X234420125Y-188878304D02*
X234170125Y-190878304D01*
X234408220Y-188973542D02*
X234610601Y-188878304D01*
X234610601Y-188878304D02*
X234991553Y-188878304D01*
X234991553Y-188878304D02*
X235170125Y-188973542D01*
X235170125Y-188973542D02*
X235253458Y-189068780D01*
X235253458Y-189068780D02*
X235324887Y-189259257D01*
X235324887Y-189259257D02*
X235253458Y-189830685D01*
X235253458Y-189830685D02*
X235134411Y-190021161D01*
X235134411Y-190021161D02*
X235027268Y-190116400D01*
X235027268Y-190116400D02*
X234824887Y-190211638D01*
X234824887Y-190211638D02*
X234443934Y-190211638D01*
X234443934Y-190211638D02*
X234265363Y-190116400D01*
X236062982Y-190211638D02*
X236229649Y-188878304D01*
X236182030Y-189259257D02*
X236301077Y-189068780D01*
X236301077Y-189068780D02*
X236408220Y-188973542D01*
X236408220Y-188973542D02*
X236610601Y-188878304D01*
X236610601Y-188878304D02*
X236801077Y-188878304D01*
X237586792Y-190211638D02*
X237408220Y-190116400D01*
X237408220Y-190116400D02*
X237324887Y-190021161D01*
X237324887Y-190021161D02*
X237253458Y-189830685D01*
X237253458Y-189830685D02*
X237324887Y-189259257D01*
X237324887Y-189259257D02*
X237443934Y-189068780D01*
X237443934Y-189068780D02*
X237551077Y-188973542D01*
X237551077Y-188973542D02*
X237753458Y-188878304D01*
X237753458Y-188878304D02*
X238039172Y-188878304D01*
X238039172Y-188878304D02*
X238217744Y-188973542D01*
X238217744Y-188973542D02*
X238301077Y-189068780D01*
X238301077Y-189068780D02*
X238372506Y-189259257D01*
X238372506Y-189259257D02*
X238301077Y-189830685D01*
X238301077Y-189830685D02*
X238182030Y-190021161D01*
X238182030Y-190021161D02*
X238074887Y-190116400D01*
X238074887Y-190116400D02*
X237872506Y-190211638D01*
X237872506Y-190211638D02*
X237586792Y-190211638D01*
X239277268Y-188878304D02*
X239062982Y-190592590D01*
X239062982Y-190592590D02*
X238943935Y-190783066D01*
X238943935Y-190783066D02*
X238741554Y-190878304D01*
X238741554Y-190878304D02*
X238646316Y-190878304D01*
X239360601Y-188211638D02*
X239253458Y-188306876D01*
X239253458Y-188306876D02*
X239336792Y-188402114D01*
X239336792Y-188402114D02*
X239443935Y-188306876D01*
X239443935Y-188306876D02*
X239360601Y-188211638D01*
X239360601Y-188211638D02*
X239336792Y-188402114D01*
X240836792Y-190116400D02*
X240634411Y-190211638D01*
X240634411Y-190211638D02*
X240253458Y-190211638D01*
X240253458Y-190211638D02*
X240074887Y-190116400D01*
X240074887Y-190116400D02*
X240003458Y-189925923D01*
X240003458Y-189925923D02*
X240098697Y-189164019D01*
X240098697Y-189164019D02*
X240217744Y-188973542D01*
X240217744Y-188973542D02*
X240420125Y-188878304D01*
X240420125Y-188878304D02*
X240801077Y-188878304D01*
X240801077Y-188878304D02*
X240979649Y-188973542D01*
X240979649Y-188973542D02*
X241051077Y-189164019D01*
X241051077Y-189164019D02*
X241027268Y-189354495D01*
X241027268Y-189354495D02*
X240051077Y-189544971D01*
X242646316Y-190116400D02*
X242443935Y-190211638D01*
X242443935Y-190211638D02*
X242062983Y-190211638D01*
X242062983Y-190211638D02*
X241884411Y-190116400D01*
X241884411Y-190116400D02*
X241801078Y-190021161D01*
X241801078Y-190021161D02*
X241729649Y-189830685D01*
X241729649Y-189830685D02*
X241801078Y-189259257D01*
X241801078Y-189259257D02*
X241920125Y-189068780D01*
X241920125Y-189068780D02*
X242027268Y-188973542D01*
X242027268Y-188973542D02*
X242229649Y-188878304D01*
X242229649Y-188878304D02*
X242610602Y-188878304D01*
X242610602Y-188878304D02*
X242789173Y-188973542D01*
X243372507Y-188878304D02*
X244134411Y-188878304D01*
X243741554Y-188211638D02*
X243527269Y-189925923D01*
X243527269Y-189925923D02*
X243598697Y-190116400D01*
X243598697Y-190116400D02*
X243777269Y-190211638D01*
X243777269Y-190211638D02*
X243967745Y-190211638D01*
D10*
D11*
X178958026Y-185607614D02*
X178458026Y-185607614D01*
X178458026Y-186393328D02*
X178458026Y-184893328D01*
X178458026Y-184893328D02*
X179172312Y-184893328D01*
X179743740Y-186393328D02*
X179743740Y-185393328D01*
X179743740Y-184893328D02*
X179672312Y-184964757D01*
X179672312Y-184964757D02*
X179743740Y-185036185D01*
X179743740Y-185036185D02*
X179815169Y-184964757D01*
X179815169Y-184964757D02*
X179743740Y-184893328D01*
X179743740Y-184893328D02*
X179743740Y-185036185D01*
X180672312Y-186393328D02*
X180529455Y-186321900D01*
X180529455Y-186321900D02*
X180458026Y-186179042D01*
X180458026Y-186179042D02*
X180458026Y-184893328D01*
X181815169Y-186321900D02*
X181672312Y-186393328D01*
X181672312Y-186393328D02*
X181386598Y-186393328D01*
X181386598Y-186393328D02*
X181243740Y-186321900D01*
X181243740Y-186321900D02*
X181172312Y-186179042D01*
X181172312Y-186179042D02*
X181172312Y-185607614D01*
X181172312Y-185607614D02*
X181243740Y-185464757D01*
X181243740Y-185464757D02*
X181386598Y-185393328D01*
X181386598Y-185393328D02*
X181672312Y-185393328D01*
X181672312Y-185393328D02*
X181815169Y-185464757D01*
X181815169Y-185464757D02*
X181886598Y-185607614D01*
X181886598Y-185607614D02*
X181886598Y-185750471D01*
X181886598Y-185750471D02*
X181172312Y-185893328D01*
X182529454Y-186250471D02*
X182600883Y-186321900D01*
X182600883Y-186321900D02*
X182529454Y-186393328D01*
X182529454Y-186393328D02*
X182458026Y-186321900D01*
X182458026Y-186321900D02*
X182529454Y-186250471D01*
X182529454Y-186250471D02*
X182529454Y-186393328D01*
X182529454Y-185464757D02*
X182600883Y-185536185D01*
X182600883Y-185536185D02*
X182529454Y-185607614D01*
X182529454Y-185607614D02*
X182458026Y-185536185D01*
X182458026Y-185536185D02*
X182529454Y-185464757D01*
X182529454Y-185464757D02*
X182529454Y-185607614D01*
X184386597Y-185393328D02*
X184386597Y-186893328D01*
X184386597Y-185464757D02*
X184529455Y-185393328D01*
X184529455Y-185393328D02*
X184815169Y-185393328D01*
X184815169Y-185393328D02*
X184958026Y-185464757D01*
X184958026Y-185464757D02*
X185029455Y-185536185D01*
X185029455Y-185536185D02*
X185100883Y-185679042D01*
X185100883Y-185679042D02*
X185100883Y-186107614D01*
X185100883Y-186107614D02*
X185029455Y-186250471D01*
X185029455Y-186250471D02*
X184958026Y-186321900D01*
X184958026Y-186321900D02*
X184815169Y-186393328D01*
X184815169Y-186393328D02*
X184529455Y-186393328D01*
X184529455Y-186393328D02*
X184386597Y-186321900D01*
X185958026Y-186393328D02*
X185815169Y-186321900D01*
X185815169Y-186321900D02*
X185743740Y-186250471D01*
X185743740Y-186250471D02*
X185672312Y-186107614D01*
X185672312Y-186107614D02*
X185672312Y-185679042D01*
X185672312Y-185679042D02*
X185743740Y-185536185D01*
X185743740Y-185536185D02*
X185815169Y-185464757D01*
X185815169Y-185464757D02*
X185958026Y-185393328D01*
X185958026Y-185393328D02*
X186172312Y-185393328D01*
X186172312Y-185393328D02*
X186315169Y-185464757D01*
X186315169Y-185464757D02*
X186386598Y-185536185D01*
X186386598Y-185536185D02*
X186458026Y-185679042D01*
X186458026Y-185679042D02*
X186458026Y-186107614D01*
X186458026Y-186107614D02*
X186386598Y-186250471D01*
X186386598Y-186250471D02*
X186315169Y-186321900D01*
X186315169Y-186321900D02*
X186172312Y-186393328D01*
X186172312Y-186393328D02*
X185958026Y-186393328D01*
X186958026Y-185393328D02*
X187243741Y-186393328D01*
X187243741Y-186393328D02*
X187529455Y-185679042D01*
X187529455Y-185679042D02*
X187815169Y-186393328D01*
X187815169Y-186393328D02*
X188100883Y-185393328D01*
X189243741Y-186321900D02*
X189100884Y-186393328D01*
X189100884Y-186393328D02*
X188815170Y-186393328D01*
X188815170Y-186393328D02*
X188672312Y-186321900D01*
X188672312Y-186321900D02*
X188600884Y-186179042D01*
X188600884Y-186179042D02*
X188600884Y-185607614D01*
X188600884Y-185607614D02*
X188672312Y-185464757D01*
X188672312Y-185464757D02*
X188815170Y-185393328D01*
X188815170Y-185393328D02*
X189100884Y-185393328D01*
X189100884Y-185393328D02*
X189243741Y-185464757D01*
X189243741Y-185464757D02*
X189315170Y-185607614D01*
X189315170Y-185607614D02*
X189315170Y-185750471D01*
X189315170Y-185750471D02*
X188600884Y-185893328D01*
X189958026Y-186393328D02*
X189958026Y-185393328D01*
X189958026Y-185679042D02*
X190029455Y-185536185D01*
X190029455Y-185536185D02*
X190100884Y-185464757D01*
X190100884Y-185464757D02*
X190243741Y-185393328D01*
X190243741Y-185393328D02*
X190386598Y-185393328D01*
X190529455Y-186536185D02*
X191672312Y-186536185D01*
X191958026Y-186321900D02*
X192100883Y-186393328D01*
X192100883Y-186393328D02*
X192386597Y-186393328D01*
X192386597Y-186393328D02*
X192529454Y-186321900D01*
X192529454Y-186321900D02*
X192600883Y-186179042D01*
X192600883Y-186179042D02*
X192600883Y-186107614D01*
X192600883Y-186107614D02*
X192529454Y-185964757D01*
X192529454Y-185964757D02*
X192386597Y-185893328D01*
X192386597Y-185893328D02*
X192172312Y-185893328D01*
X192172312Y-185893328D02*
X192029454Y-185821900D01*
X192029454Y-185821900D02*
X191958026Y-185679042D01*
X191958026Y-185679042D02*
X191958026Y-185607614D01*
X191958026Y-185607614D02*
X192029454Y-185464757D01*
X192029454Y-185464757D02*
X192172312Y-185393328D01*
X192172312Y-185393328D02*
X192386597Y-185393328D01*
X192386597Y-185393328D02*
X192529454Y-185464757D01*
X193886598Y-185393328D02*
X193886598Y-186393328D01*
X193243740Y-185393328D02*
X193243740Y-186179042D01*
X193243740Y-186179042D02*
X193315169Y-186321900D01*
X193315169Y-186321900D02*
X193458026Y-186393328D01*
X193458026Y-186393328D02*
X193672312Y-186393328D01*
X193672312Y-186393328D02*
X193815169Y-186321900D01*
X193815169Y-186321900D02*
X193886598Y-186250471D01*
X194600883Y-185393328D02*
X194600883Y-186893328D01*
X194600883Y-185464757D02*
X194743741Y-185393328D01*
X194743741Y-185393328D02*
X195029455Y-185393328D01*
X195029455Y-185393328D02*
X195172312Y-185464757D01*
X195172312Y-185464757D02*
X195243741Y-185536185D01*
X195243741Y-185536185D02*
X195315169Y-185679042D01*
X195315169Y-185679042D02*
X195315169Y-186107614D01*
X195315169Y-186107614D02*
X195243741Y-186250471D01*
X195243741Y-186250471D02*
X195172312Y-186321900D01*
X195172312Y-186321900D02*
X195029455Y-186393328D01*
X195029455Y-186393328D02*
X194743741Y-186393328D01*
X194743741Y-186393328D02*
X194600883Y-186321900D01*
X195958026Y-185393328D02*
X195958026Y-186893328D01*
X195958026Y-185464757D02*
X196100884Y-185393328D01*
X196100884Y-185393328D02*
X196386598Y-185393328D01*
X196386598Y-185393328D02*
X196529455Y-185464757D01*
X196529455Y-185464757D02*
X196600884Y-185536185D01*
X196600884Y-185536185D02*
X196672312Y-185679042D01*
X196672312Y-185679042D02*
X196672312Y-186107614D01*
X196672312Y-186107614D02*
X196600884Y-186250471D01*
X196600884Y-186250471D02*
X196529455Y-186321900D01*
X196529455Y-186321900D02*
X196386598Y-186393328D01*
X196386598Y-186393328D02*
X196100884Y-186393328D01*
X196100884Y-186393328D02*
X195958026Y-186321900D01*
X197529455Y-186393328D02*
X197386598Y-186321900D01*
X197386598Y-186321900D02*
X197315169Y-186179042D01*
X197315169Y-186179042D02*
X197315169Y-184893328D01*
X197958026Y-185393328D02*
X198315169Y-186393328D01*
X198672312Y-185393328D02*
X198315169Y-186393328D01*
X198315169Y-186393328D02*
X198172312Y-186750471D01*
X198172312Y-186750471D02*
X198100883Y-186821900D01*
X198100883Y-186821900D02*
X197958026Y-186893328D01*
X198886598Y-186536185D02*
X200029455Y-186536185D01*
X200386597Y-186393328D02*
X200386597Y-184893328D01*
X200386597Y-185464757D02*
X200529455Y-185393328D01*
X200529455Y-185393328D02*
X200815169Y-185393328D01*
X200815169Y-185393328D02*
X200958026Y-185464757D01*
X200958026Y-185464757D02*
X201029455Y-185536185D01*
X201029455Y-185536185D02*
X201100883Y-185679042D01*
X201100883Y-185679042D02*
X201100883Y-186107614D01*
X201100883Y-186107614D02*
X201029455Y-186250471D01*
X201029455Y-186250471D02*
X200958026Y-186321900D01*
X200958026Y-186321900D02*
X200815169Y-186393328D01*
X200815169Y-186393328D02*
X200529455Y-186393328D01*
X200529455Y-186393328D02*
X200386597Y-186321900D01*
X201743740Y-186393328D02*
X201743740Y-185393328D01*
X201743740Y-185679042D02*
X201815169Y-185536185D01*
X201815169Y-185536185D02*
X201886598Y-185464757D01*
X201886598Y-185464757D02*
X202029455Y-185393328D01*
X202029455Y-185393328D02*
X202172312Y-185393328D01*
X203243740Y-186321900D02*
X203100883Y-186393328D01*
X203100883Y-186393328D02*
X202815169Y-186393328D01*
X202815169Y-186393328D02*
X202672311Y-186321900D01*
X202672311Y-186321900D02*
X202600883Y-186179042D01*
X202600883Y-186179042D02*
X202600883Y-185607614D01*
X202600883Y-185607614D02*
X202672311Y-185464757D01*
X202672311Y-185464757D02*
X202815169Y-185393328D01*
X202815169Y-185393328D02*
X203100883Y-185393328D01*
X203100883Y-185393328D02*
X203243740Y-185464757D01*
X203243740Y-185464757D02*
X203315169Y-185607614D01*
X203315169Y-185607614D02*
X203315169Y-185750471D01*
X203315169Y-185750471D02*
X202600883Y-185893328D01*
X204600883Y-186393328D02*
X204600883Y-185607614D01*
X204600883Y-185607614D02*
X204529454Y-185464757D01*
X204529454Y-185464757D02*
X204386597Y-185393328D01*
X204386597Y-185393328D02*
X204100883Y-185393328D01*
X204100883Y-185393328D02*
X203958025Y-185464757D01*
X204600883Y-186321900D02*
X204458025Y-186393328D01*
X204458025Y-186393328D02*
X204100883Y-186393328D01*
X204100883Y-186393328D02*
X203958025Y-186321900D01*
X203958025Y-186321900D02*
X203886597Y-186179042D01*
X203886597Y-186179042D02*
X203886597Y-186036185D01*
X203886597Y-186036185D02*
X203958025Y-185893328D01*
X203958025Y-185893328D02*
X204100883Y-185821900D01*
X204100883Y-185821900D02*
X204458025Y-185821900D01*
X204458025Y-185821900D02*
X204600883Y-185750471D01*
X205958026Y-186393328D02*
X205958026Y-184893328D01*
X205958026Y-186321900D02*
X205815168Y-186393328D01*
X205815168Y-186393328D02*
X205529454Y-186393328D01*
X205529454Y-186393328D02*
X205386597Y-186321900D01*
X205386597Y-186321900D02*
X205315168Y-186250471D01*
X205315168Y-186250471D02*
X205243740Y-186107614D01*
X205243740Y-186107614D02*
X205243740Y-185679042D01*
X205243740Y-185679042D02*
X205315168Y-185536185D01*
X205315168Y-185536185D02*
X205386597Y-185464757D01*
X205386597Y-185464757D02*
X205529454Y-185393328D01*
X205529454Y-185393328D02*
X205815168Y-185393328D01*
X205815168Y-185393328D02*
X205958026Y-185464757D01*
X206672311Y-186393328D02*
X206672311Y-184893328D01*
X206672311Y-185464757D02*
X206815169Y-185393328D01*
X206815169Y-185393328D02*
X207100883Y-185393328D01*
X207100883Y-185393328D02*
X207243740Y-185464757D01*
X207243740Y-185464757D02*
X207315169Y-185536185D01*
X207315169Y-185536185D02*
X207386597Y-185679042D01*
X207386597Y-185679042D02*
X207386597Y-186107614D01*
X207386597Y-186107614D02*
X207315169Y-186250471D01*
X207315169Y-186250471D02*
X207243740Y-186321900D01*
X207243740Y-186321900D02*
X207100883Y-186393328D01*
X207100883Y-186393328D02*
X206815169Y-186393328D01*
X206815169Y-186393328D02*
X206672311Y-186321900D01*
X208243740Y-186393328D02*
X208100883Y-186321900D01*
X208100883Y-186321900D02*
X208029454Y-186250471D01*
X208029454Y-186250471D02*
X207958026Y-186107614D01*
X207958026Y-186107614D02*
X207958026Y-185679042D01*
X207958026Y-185679042D02*
X208029454Y-185536185D01*
X208029454Y-185536185D02*
X208100883Y-185464757D01*
X208100883Y-185464757D02*
X208243740Y-185393328D01*
X208243740Y-185393328D02*
X208458026Y-185393328D01*
X208458026Y-185393328D02*
X208600883Y-185464757D01*
X208600883Y-185464757D02*
X208672312Y-185536185D01*
X208672312Y-185536185D02*
X208743740Y-185679042D01*
X208743740Y-185679042D02*
X208743740Y-186107614D01*
X208743740Y-186107614D02*
X208672312Y-186250471D01*
X208672312Y-186250471D02*
X208600883Y-186321900D01*
X208600883Y-186321900D02*
X208458026Y-186393328D01*
X208458026Y-186393328D02*
X208243740Y-186393328D01*
X210029455Y-186393328D02*
X210029455Y-185607614D01*
X210029455Y-185607614D02*
X209958026Y-185464757D01*
X209958026Y-185464757D02*
X209815169Y-185393328D01*
X209815169Y-185393328D02*
X209529455Y-185393328D01*
X209529455Y-185393328D02*
X209386597Y-185464757D01*
X210029455Y-186321900D02*
X209886597Y-186393328D01*
X209886597Y-186393328D02*
X209529455Y-186393328D01*
X209529455Y-186393328D02*
X209386597Y-186321900D01*
X209386597Y-186321900D02*
X209315169Y-186179042D01*
X209315169Y-186179042D02*
X209315169Y-186036185D01*
X209315169Y-186036185D02*
X209386597Y-185893328D01*
X209386597Y-185893328D02*
X209529455Y-185821900D01*
X209529455Y-185821900D02*
X209886597Y-185821900D01*
X209886597Y-185821900D02*
X210029455Y-185750471D01*
X210743740Y-186393328D02*
X210743740Y-185393328D01*
X210743740Y-185679042D02*
X210815169Y-185536185D01*
X210815169Y-185536185D02*
X210886598Y-185464757D01*
X210886598Y-185464757D02*
X211029455Y-185393328D01*
X211029455Y-185393328D02*
X211172312Y-185393328D01*
X212315169Y-186393328D02*
X212315169Y-184893328D01*
X212315169Y-186321900D02*
X212172311Y-186393328D01*
X212172311Y-186393328D02*
X211886597Y-186393328D01*
X211886597Y-186393328D02*
X211743740Y-186321900D01*
X211743740Y-186321900D02*
X211672311Y-186250471D01*
X211672311Y-186250471D02*
X211600883Y-186107614D01*
X211600883Y-186107614D02*
X211600883Y-185679042D01*
X211600883Y-185679042D02*
X211672311Y-185536185D01*
X211672311Y-185536185D02*
X211743740Y-185464757D01*
X211743740Y-185464757D02*
X211886597Y-185393328D01*
X211886597Y-185393328D02*
X212172311Y-185393328D01*
X212172311Y-185393328D02*
X212315169Y-185464757D01*
X213029454Y-186250471D02*
X213100883Y-186321900D01*
X213100883Y-186321900D02*
X213029454Y-186393328D01*
X213029454Y-186393328D02*
X212958026Y-186321900D01*
X212958026Y-186321900D02*
X213029454Y-186250471D01*
X213029454Y-186250471D02*
X213029454Y-186393328D01*
X213743740Y-186393328D02*
X213743740Y-184893328D01*
X213886598Y-185821900D02*
X214315169Y-186393328D01*
X214315169Y-185393328D02*
X213743740Y-185964757D01*
X214958026Y-186393328D02*
X214958026Y-185393328D01*
X214958026Y-184893328D02*
X214886598Y-184964757D01*
X214886598Y-184964757D02*
X214958026Y-185036185D01*
X214958026Y-185036185D02*
X215029455Y-184964757D01*
X215029455Y-184964757D02*
X214958026Y-184893328D01*
X214958026Y-184893328D02*
X214958026Y-185036185D01*
X216315170Y-186321900D02*
X216172312Y-186393328D01*
X216172312Y-186393328D02*
X215886598Y-186393328D01*
X215886598Y-186393328D02*
X215743741Y-186321900D01*
X215743741Y-186321900D02*
X215672312Y-186250471D01*
X215672312Y-186250471D02*
X215600884Y-186107614D01*
X215600884Y-186107614D02*
X215600884Y-185679042D01*
X215600884Y-185679042D02*
X215672312Y-185536185D01*
X215672312Y-185536185D02*
X215743741Y-185464757D01*
X215743741Y-185464757D02*
X215886598Y-185393328D01*
X215886598Y-185393328D02*
X216172312Y-185393328D01*
X216172312Y-185393328D02*
X216315170Y-185464757D01*
X217600884Y-186393328D02*
X217600884Y-185607614D01*
X217600884Y-185607614D02*
X217529455Y-185464757D01*
X217529455Y-185464757D02*
X217386598Y-185393328D01*
X217386598Y-185393328D02*
X217100884Y-185393328D01*
X217100884Y-185393328D02*
X216958026Y-185464757D01*
X217600884Y-186321900D02*
X217458026Y-186393328D01*
X217458026Y-186393328D02*
X217100884Y-186393328D01*
X217100884Y-186393328D02*
X216958026Y-186321900D01*
X216958026Y-186321900D02*
X216886598Y-186179042D01*
X216886598Y-186179042D02*
X216886598Y-186036185D01*
X216886598Y-186036185D02*
X216958026Y-185893328D01*
X216958026Y-185893328D02*
X217100884Y-185821900D01*
X217100884Y-185821900D02*
X217458026Y-185821900D01*
X217458026Y-185821900D02*
X217600884Y-185750471D01*
X218958027Y-186393328D02*
X218958027Y-184893328D01*
X218958027Y-186321900D02*
X218815169Y-186393328D01*
X218815169Y-186393328D02*
X218529455Y-186393328D01*
X218529455Y-186393328D02*
X218386598Y-186321900D01*
X218386598Y-186321900D02*
X218315169Y-186250471D01*
X218315169Y-186250471D02*
X218243741Y-186107614D01*
X218243741Y-186107614D02*
X218243741Y-185679042D01*
X218243741Y-185679042D02*
X218315169Y-185536185D01*
X218315169Y-185536185D02*
X218386598Y-185464757D01*
X218386598Y-185464757D02*
X218529455Y-185393328D01*
X218529455Y-185393328D02*
X218815169Y-185393328D01*
X218815169Y-185393328D02*
X218958027Y-185464757D01*
X219315170Y-186536185D02*
X220458027Y-186536185D01*
X220815169Y-185393328D02*
X220815169Y-186893328D01*
X220815169Y-185464757D02*
X220958027Y-185393328D01*
X220958027Y-185393328D02*
X221243741Y-185393328D01*
X221243741Y-185393328D02*
X221386598Y-185464757D01*
X221386598Y-185464757D02*
X221458027Y-185536185D01*
X221458027Y-185536185D02*
X221529455Y-185679042D01*
X221529455Y-185679042D02*
X221529455Y-186107614D01*
X221529455Y-186107614D02*
X221458027Y-186250471D01*
X221458027Y-186250471D02*
X221386598Y-186321900D01*
X221386598Y-186321900D02*
X221243741Y-186393328D01*
X221243741Y-186393328D02*
X220958027Y-186393328D01*
X220958027Y-186393328D02*
X220815169Y-186321900D01*
X222815170Y-186321900D02*
X222672312Y-186393328D01*
X222672312Y-186393328D02*
X222386598Y-186393328D01*
X222386598Y-186393328D02*
X222243741Y-186321900D01*
X222243741Y-186321900D02*
X222172312Y-186250471D01*
X222172312Y-186250471D02*
X222100884Y-186107614D01*
X222100884Y-186107614D02*
X222100884Y-185679042D01*
X222100884Y-185679042D02*
X222172312Y-185536185D01*
X222172312Y-185536185D02*
X222243741Y-185464757D01*
X222243741Y-185464757D02*
X222386598Y-185393328D01*
X222386598Y-185393328D02*
X222672312Y-185393328D01*
X222672312Y-185393328D02*
X222815170Y-185464757D01*
X223458026Y-186393328D02*
X223458026Y-184893328D01*
X223458026Y-185464757D02*
X223600884Y-185393328D01*
X223600884Y-185393328D02*
X223886598Y-185393328D01*
X223886598Y-185393328D02*
X224029455Y-185464757D01*
X224029455Y-185464757D02*
X224100884Y-185536185D01*
X224100884Y-185536185D02*
X224172312Y-185679042D01*
X224172312Y-185679042D02*
X224172312Y-186107614D01*
X224172312Y-186107614D02*
X224100884Y-186250471D01*
X224100884Y-186250471D02*
X224029455Y-186321900D01*
X224029455Y-186321900D02*
X223886598Y-186393328D01*
X223886598Y-186393328D02*
X223600884Y-186393328D01*
X223600884Y-186393328D02*
X223458026Y-186321900D01*
D10*
D11*
X177002200Y-181507200D02*
X285002200Y-181507200D01*
D10*
D11*
X178386598Y-183621900D02*
X178600884Y-183693328D01*
X178600884Y-183693328D02*
X178958026Y-183693328D01*
X178958026Y-183693328D02*
X179100884Y-183621900D01*
X179100884Y-183621900D02*
X179172312Y-183550471D01*
X179172312Y-183550471D02*
X179243741Y-183407614D01*
X179243741Y-183407614D02*
X179243741Y-183264757D01*
X179243741Y-183264757D02*
X179172312Y-183121900D01*
X179172312Y-183121900D02*
X179100884Y-183050471D01*
X179100884Y-183050471D02*
X178958026Y-182979042D01*
X178958026Y-182979042D02*
X178672312Y-182907614D01*
X178672312Y-182907614D02*
X178529455Y-182836185D01*
X178529455Y-182836185D02*
X178458026Y-182764757D01*
X178458026Y-182764757D02*
X178386598Y-182621900D01*
X178386598Y-182621900D02*
X178386598Y-182479042D01*
X178386598Y-182479042D02*
X178458026Y-182336185D01*
X178458026Y-182336185D02*
X178529455Y-182264757D01*
X178529455Y-182264757D02*
X178672312Y-182193328D01*
X178672312Y-182193328D02*
X179029455Y-182193328D01*
X179029455Y-182193328D02*
X179243741Y-182264757D01*
X179886597Y-183693328D02*
X179886597Y-182193328D01*
X180529455Y-183693328D02*
X180529455Y-182907614D01*
X180529455Y-182907614D02*
X180458026Y-182764757D01*
X180458026Y-182764757D02*
X180315169Y-182693328D01*
X180315169Y-182693328D02*
X180100883Y-182693328D01*
X180100883Y-182693328D02*
X179958026Y-182764757D01*
X179958026Y-182764757D02*
X179886597Y-182836185D01*
X181815169Y-183621900D02*
X181672312Y-183693328D01*
X181672312Y-183693328D02*
X181386598Y-183693328D01*
X181386598Y-183693328D02*
X181243740Y-183621900D01*
X181243740Y-183621900D02*
X181172312Y-183479042D01*
X181172312Y-183479042D02*
X181172312Y-182907614D01*
X181172312Y-182907614D02*
X181243740Y-182764757D01*
X181243740Y-182764757D02*
X181386598Y-182693328D01*
X181386598Y-182693328D02*
X181672312Y-182693328D01*
X181672312Y-182693328D02*
X181815169Y-182764757D01*
X181815169Y-182764757D02*
X181886598Y-182907614D01*
X181886598Y-182907614D02*
X181886598Y-183050471D01*
X181886598Y-183050471D02*
X181172312Y-183193328D01*
X183100883Y-183621900D02*
X182958026Y-183693328D01*
X182958026Y-183693328D02*
X182672312Y-183693328D01*
X182672312Y-183693328D02*
X182529454Y-183621900D01*
X182529454Y-183621900D02*
X182458026Y-183479042D01*
X182458026Y-183479042D02*
X182458026Y-182907614D01*
X182458026Y-182907614D02*
X182529454Y-182764757D01*
X182529454Y-182764757D02*
X182672312Y-182693328D01*
X182672312Y-182693328D02*
X182958026Y-182693328D01*
X182958026Y-182693328D02*
X183100883Y-182764757D01*
X183100883Y-182764757D02*
X183172312Y-182907614D01*
X183172312Y-182907614D02*
X183172312Y-183050471D01*
X183172312Y-183050471D02*
X182458026Y-183193328D01*
X183600883Y-182693328D02*
X184172311Y-182693328D01*
X183815168Y-182193328D02*
X183815168Y-183479042D01*
X183815168Y-183479042D02*
X183886597Y-183621900D01*
X183886597Y-183621900D02*
X184029454Y-183693328D01*
X184029454Y-183693328D02*
X184172311Y-183693328D01*
X184672311Y-183550471D02*
X184743740Y-183621900D01*
X184743740Y-183621900D02*
X184672311Y-183693328D01*
X184672311Y-183693328D02*
X184600883Y-183621900D01*
X184600883Y-183621900D02*
X184672311Y-183550471D01*
X184672311Y-183550471D02*
X184672311Y-183693328D01*
X184672311Y-182764757D02*
X184743740Y-182836185D01*
X184743740Y-182836185D02*
X184672311Y-182907614D01*
X184672311Y-182907614D02*
X184600883Y-182836185D01*
X184600883Y-182836185D02*
X184672311Y-182764757D01*
X184672311Y-182764757D02*
X184672311Y-182907614D01*
D10*
D12*
X178342425Y-179185528D02*
X179199568Y-179185528D01*
X178770996Y-180685528D02*
X178770996Y-179185528D01*
X179699567Y-180685528D02*
X179699567Y-179185528D01*
X180342425Y-180685528D02*
X180342425Y-179899814D01*
X180342425Y-179899814D02*
X180270996Y-179756957D01*
X180270996Y-179756957D02*
X180128139Y-179685528D01*
X180128139Y-179685528D02*
X179913853Y-179685528D01*
X179913853Y-179685528D02*
X179770996Y-179756957D01*
X179770996Y-179756957D02*
X179699567Y-179828385D01*
X181628139Y-180614100D02*
X181485282Y-180685528D01*
X181485282Y-180685528D02*
X181199568Y-180685528D01*
X181199568Y-180685528D02*
X181056710Y-180614100D01*
X181056710Y-180614100D02*
X180985282Y-180471242D01*
X180985282Y-180471242D02*
X180985282Y-179899814D01*
X180985282Y-179899814D02*
X181056710Y-179756957D01*
X181056710Y-179756957D02*
X181199568Y-179685528D01*
X181199568Y-179685528D02*
X181485282Y-179685528D01*
X181485282Y-179685528D02*
X181628139Y-179756957D01*
X181628139Y-179756957D02*
X181699568Y-179899814D01*
X181699568Y-179899814D02*
X181699568Y-180042671D01*
X181699568Y-180042671D02*
X180985282Y-180185528D01*
X183770996Y-179185528D02*
X184056710Y-179185528D01*
X184056710Y-179185528D02*
X184199567Y-179256957D01*
X184199567Y-179256957D02*
X184342424Y-179399814D01*
X184342424Y-179399814D02*
X184413853Y-179685528D01*
X184413853Y-179685528D02*
X184413853Y-180185528D01*
X184413853Y-180185528D02*
X184342424Y-180471242D01*
X184342424Y-180471242D02*
X184199567Y-180614100D01*
X184199567Y-180614100D02*
X184056710Y-180685528D01*
X184056710Y-180685528D02*
X183770996Y-180685528D01*
X183770996Y-180685528D02*
X183628139Y-180614100D01*
X183628139Y-180614100D02*
X183485281Y-180471242D01*
X183485281Y-180471242D02*
X183413853Y-180185528D01*
X183413853Y-180185528D02*
X183413853Y-179685528D01*
X183413853Y-179685528D02*
X183485281Y-179399814D01*
X183485281Y-179399814D02*
X183628139Y-179256957D01*
X183628139Y-179256957D02*
X183770996Y-179185528D01*
X185699568Y-180614100D02*
X185556710Y-180685528D01*
X185556710Y-180685528D02*
X185270996Y-180685528D01*
X185270996Y-180685528D02*
X185128139Y-180614100D01*
X185128139Y-180614100D02*
X185056710Y-180542671D01*
X185056710Y-180542671D02*
X184985282Y-180399814D01*
X184985282Y-180399814D02*
X184985282Y-179971242D01*
X184985282Y-179971242D02*
X185056710Y-179828385D01*
X185056710Y-179828385D02*
X185128139Y-179756957D01*
X185128139Y-179756957D02*
X185270996Y-179685528D01*
X185270996Y-179685528D02*
X185556710Y-179685528D01*
X185556710Y-179685528D02*
X185699568Y-179756957D01*
X186128139Y-179685528D02*
X186699567Y-179685528D01*
X186342424Y-179185528D02*
X186342424Y-180471242D01*
X186342424Y-180471242D02*
X186413853Y-180614100D01*
X186413853Y-180614100D02*
X186556710Y-180685528D01*
X186556710Y-180685528D02*
X186699567Y-180685528D01*
X187413853Y-180685528D02*
X187270996Y-180614100D01*
X187270996Y-180614100D02*
X187199567Y-180542671D01*
X187199567Y-180542671D02*
X187128139Y-180399814D01*
X187128139Y-180399814D02*
X187128139Y-179971242D01*
X187128139Y-179971242D02*
X187199567Y-179828385D01*
X187199567Y-179828385D02*
X187270996Y-179756957D01*
X187270996Y-179756957D02*
X187413853Y-179685528D01*
X187413853Y-179685528D02*
X187628139Y-179685528D01*
X187628139Y-179685528D02*
X187770996Y-179756957D01*
X187770996Y-179756957D02*
X187842425Y-179828385D01*
X187842425Y-179828385D02*
X187913853Y-179971242D01*
X187913853Y-179971242D02*
X187913853Y-180399814D01*
X187913853Y-180399814D02*
X187842425Y-180542671D01*
X187842425Y-180542671D02*
X187770996Y-180614100D01*
X187770996Y-180614100D02*
X187628139Y-180685528D01*
X187628139Y-180685528D02*
X187413853Y-180685528D01*
X188342425Y-179685528D02*
X188913853Y-179685528D01*
X188556710Y-179185528D02*
X188556710Y-180471242D01*
X188556710Y-180471242D02*
X188628139Y-180614100D01*
X188628139Y-180614100D02*
X188770996Y-180685528D01*
X188770996Y-180685528D02*
X188913853Y-180685528D01*
X189413853Y-180685528D02*
X189413853Y-179185528D01*
X190056711Y-180685528D02*
X190056711Y-179899814D01*
X190056711Y-179899814D02*
X189985282Y-179756957D01*
X189985282Y-179756957D02*
X189842425Y-179685528D01*
X189842425Y-179685528D02*
X189628139Y-179685528D01*
X189628139Y-179685528D02*
X189485282Y-179756957D01*
X189485282Y-179756957D02*
X189413853Y-179828385D01*
X190985282Y-180685528D02*
X190842425Y-180614100D01*
X190842425Y-180614100D02*
X190770996Y-180542671D01*
X190770996Y-180542671D02*
X190699568Y-180399814D01*
X190699568Y-180399814D02*
X190699568Y-179971242D01*
X190699568Y-179971242D02*
X190770996Y-179828385D01*
X190770996Y-179828385D02*
X190842425Y-179756957D01*
X190842425Y-179756957D02*
X190985282Y-179685528D01*
X190985282Y-179685528D02*
X191199568Y-179685528D01*
X191199568Y-179685528D02*
X191342425Y-179756957D01*
X191342425Y-179756957D02*
X191413854Y-179828385D01*
X191413854Y-179828385D02*
X191485282Y-179971242D01*
X191485282Y-179971242D02*
X191485282Y-180399814D01*
X191485282Y-180399814D02*
X191413854Y-180542671D01*
X191413854Y-180542671D02*
X191342425Y-180614100D01*
X191342425Y-180614100D02*
X191199568Y-180685528D01*
X191199568Y-180685528D02*
X190985282Y-180685528D01*
X192128139Y-180685528D02*
X192128139Y-179685528D01*
X192128139Y-179971242D02*
X192199568Y-179828385D01*
X192199568Y-179828385D02*
X192270997Y-179756957D01*
X192270997Y-179756957D02*
X192413854Y-179685528D01*
X192413854Y-179685528D02*
X192556711Y-179685528D01*
X193056710Y-179685528D02*
X193056710Y-181185528D01*
X193056710Y-179756957D02*
X193199568Y-179685528D01*
X193199568Y-179685528D02*
X193485282Y-179685528D01*
X193485282Y-179685528D02*
X193628139Y-179756957D01*
X193628139Y-179756957D02*
X193699568Y-179828385D01*
X193699568Y-179828385D02*
X193770996Y-179971242D01*
X193770996Y-179971242D02*
X193770996Y-180399814D01*
X193770996Y-180399814D02*
X193699568Y-180542671D01*
X193699568Y-180542671D02*
X193628139Y-180614100D01*
X193628139Y-180614100D02*
X193485282Y-180685528D01*
X193485282Y-180685528D02*
X193199568Y-180685528D01*
X193199568Y-180685528D02*
X193056710Y-180614100D01*
X194985282Y-180614100D02*
X194842425Y-180685528D01*
X194842425Y-180685528D02*
X194556711Y-180685528D01*
X194556711Y-180685528D02*
X194413853Y-180614100D01*
X194413853Y-180614100D02*
X194342425Y-180471242D01*
X194342425Y-180471242D02*
X194342425Y-179899814D01*
X194342425Y-179899814D02*
X194413853Y-179756957D01*
X194413853Y-179756957D02*
X194556711Y-179685528D01*
X194556711Y-179685528D02*
X194842425Y-179685528D01*
X194842425Y-179685528D02*
X194985282Y-179756957D01*
X194985282Y-179756957D02*
X195056711Y-179899814D01*
X195056711Y-179899814D02*
X195056711Y-180042671D01*
X195056711Y-180042671D02*
X194342425Y-180185528D01*
D10*
D11*
X197002200Y-191507200D02*
X197002200Y-194507200D01*
D10*
D11*
X261002200Y-191507200D02*
X261002200Y-198007200D01*
X184860588Y-128417438D02*
X184765350Y-128369819D01*
X184765350Y-128369819D02*
X184622493Y-128369819D01*
X184622493Y-128369819D02*
X184479636Y-128417438D01*
X184479636Y-128417438D02*
X184384398Y-128512676D01*
X184384398Y-128512676D02*
X184336779Y-128607914D01*
X184336779Y-128607914D02*
X184289160Y-128798390D01*
X184289160Y-128798390D02*
X184289160Y-128941247D01*
X184289160Y-128941247D02*
X184336779Y-129131723D01*
X184336779Y-129131723D02*
X184384398Y-129226961D01*
X184384398Y-129226961D02*
X184479636Y-129322200D01*
X184479636Y-129322200D02*
X184622493Y-129369819D01*
X184622493Y-129369819D02*
X184717731Y-129369819D01*
X184717731Y-129369819D02*
X184860588Y-129322200D01*
X184860588Y-129322200D02*
X184908207Y-129274580D01*
X184908207Y-129274580D02*
X184908207Y-128941247D01*
X184908207Y-128941247D02*
X184717731Y-128941247D01*
X185336779Y-129369819D02*
X185336779Y-128369819D01*
X185336779Y-128369819D02*
X185908207Y-129369819D01*
X185908207Y-129369819D02*
X185908207Y-128369819D01*
X186384398Y-129369819D02*
X186384398Y-128369819D01*
X186384398Y-128369819D02*
X186622493Y-128369819D01*
X186622493Y-128369819D02*
X186765350Y-128417438D01*
X186765350Y-128417438D02*
X186860588Y-128512676D01*
X186860588Y-128512676D02*
X186908207Y-128607914D01*
X186908207Y-128607914D02*
X186955826Y-128798390D01*
X186955826Y-128798390D02*
X186955826Y-128941247D01*
X186955826Y-128941247D02*
X186908207Y-129131723D01*
X186908207Y-129131723D02*
X186860588Y-129226961D01*
X186860588Y-129226961D02*
X186765350Y-129322200D01*
X186765350Y-129322200D02*
X186622493Y-129369819D01*
X186622493Y-129369819D02*
X186384398Y-129369819D01*
X179159459Y-133663171D02*
X178683269Y-133663171D01*
X178683269Y-133663171D02*
X178635650Y-134139361D01*
X178635650Y-134139361D02*
X178683269Y-134091742D01*
X178683269Y-134091742D02*
X178778507Y-134044123D01*
X178778507Y-134044123D02*
X179016602Y-134044123D01*
X179016602Y-134044123D02*
X179111840Y-134091742D01*
X179111840Y-134091742D02*
X179159459Y-134139361D01*
X179159459Y-134139361D02*
X179207078Y-134234599D01*
X179207078Y-134234599D02*
X179207078Y-134472694D01*
X179207078Y-134472694D02*
X179159459Y-134567932D01*
X179159459Y-134567932D02*
X179111840Y-134615552D01*
X179111840Y-134615552D02*
X179016602Y-134663171D01*
X179016602Y-134663171D02*
X178778507Y-134663171D01*
X178778507Y-134663171D02*
X178683269Y-134615552D01*
X178683269Y-134615552D02*
X178635650Y-134567932D01*
X179492793Y-133663171D02*
X179826126Y-134663171D01*
X179826126Y-134663171D02*
X180159459Y-133663171D01*
X193336779Y-117488866D02*
X194098684Y-117488866D01*
X172707541Y-90309819D02*
X173326588Y-90309819D01*
X173326588Y-90309819D02*
X172993255Y-90690771D01*
X172993255Y-90690771D02*
X173136112Y-90690771D01*
X173136112Y-90690771D02*
X173231350Y-90738390D01*
X173231350Y-90738390D02*
X173278969Y-90786009D01*
X173278969Y-90786009D02*
X173326588Y-90881247D01*
X173326588Y-90881247D02*
X173326588Y-91119342D01*
X173326588Y-91119342D02*
X173278969Y-91214580D01*
X173278969Y-91214580D02*
X173231350Y-91262200D01*
X173231350Y-91262200D02*
X173136112Y-91309819D01*
X173136112Y-91309819D02*
X172850398Y-91309819D01*
X172850398Y-91309819D02*
X172755160Y-91262200D01*
X172755160Y-91262200D02*
X172707541Y-91214580D01*
X173755160Y-91214580D02*
X173802779Y-91262200D01*
X173802779Y-91262200D02*
X173755160Y-91309819D01*
X173755160Y-91309819D02*
X173707541Y-91262200D01*
X173707541Y-91262200D02*
X173755160Y-91214580D01*
X173755160Y-91214580D02*
X173755160Y-91309819D01*
X174136112Y-90309819D02*
X174755159Y-90309819D01*
X174755159Y-90309819D02*
X174421826Y-90690771D01*
X174421826Y-90690771D02*
X174564683Y-90690771D01*
X174564683Y-90690771D02*
X174659921Y-90738390D01*
X174659921Y-90738390D02*
X174707540Y-90786009D01*
X174707540Y-90786009D02*
X174755159Y-90881247D01*
X174755159Y-90881247D02*
X174755159Y-91119342D01*
X174755159Y-91119342D02*
X174707540Y-91214580D01*
X174707540Y-91214580D02*
X174659921Y-91262200D01*
X174659921Y-91262200D02*
X174564683Y-91309819D01*
X174564683Y-91309819D02*
X174278969Y-91309819D01*
X174278969Y-91309819D02*
X174183731Y-91262200D01*
X174183731Y-91262200D02*
X174136112Y-91214580D01*
X175040874Y-90309819D02*
X175374207Y-91309819D01*
X175374207Y-91309819D02*
X175707540Y-90309819D01*
X185142588Y-95881438D02*
X185047350Y-95833819D01*
X185047350Y-95833819D02*
X184904493Y-95833819D01*
X184904493Y-95833819D02*
X184761636Y-95881438D01*
X184761636Y-95881438D02*
X184666398Y-95976676D01*
X184666398Y-95976676D02*
X184618779Y-96071914D01*
X184618779Y-96071914D02*
X184571160Y-96262390D01*
X184571160Y-96262390D02*
X184571160Y-96405247D01*
X184571160Y-96405247D02*
X184618779Y-96595723D01*
X184618779Y-96595723D02*
X184666398Y-96690961D01*
X184666398Y-96690961D02*
X184761636Y-96786200D01*
X184761636Y-96786200D02*
X184904493Y-96833819D01*
X184904493Y-96833819D02*
X184999731Y-96833819D01*
X184999731Y-96833819D02*
X185142588Y-96786200D01*
X185142588Y-96786200D02*
X185190207Y-96738580D01*
X185190207Y-96738580D02*
X185190207Y-96405247D01*
X185190207Y-96405247D02*
X184999731Y-96405247D01*
X185618779Y-96833819D02*
X185618779Y-95833819D01*
X185618779Y-95833819D02*
X186190207Y-96833819D01*
X186190207Y-96833819D02*
X186190207Y-95833819D01*
X186666398Y-96833819D02*
X186666398Y-95833819D01*
X186666398Y-95833819D02*
X186904493Y-95833819D01*
X186904493Y-95833819D02*
X187047350Y-95881438D01*
X187047350Y-95881438D02*
X187142588Y-95976676D01*
X187142588Y-95976676D02*
X187190207Y-96071914D01*
X187190207Y-96071914D02*
X187237826Y-96262390D01*
X187237826Y-96262390D02*
X187237826Y-96405247D01*
X187237826Y-96405247D02*
X187190207Y-96595723D01*
X187190207Y-96595723D02*
X187142588Y-96690961D01*
X187142588Y-96690961D02*
X187047350Y-96786200D01*
X187047350Y-96786200D02*
X186904493Y-96833819D01*
X186904493Y-96833819D02*
X186666398Y-96833819D01*
X190014587Y-102868363D02*
X190205063Y-102868363D01*
X190205063Y-102868363D02*
X190300301Y-102915982D01*
X190300301Y-102915982D02*
X190395539Y-103011220D01*
X190395539Y-103011220D02*
X190443158Y-103201696D01*
X190443158Y-103201696D02*
X190443158Y-103535029D01*
X190443158Y-103535029D02*
X190395539Y-103725505D01*
X190395539Y-103725505D02*
X190300301Y-103820744D01*
X190300301Y-103820744D02*
X190205063Y-103868363D01*
X190205063Y-103868363D02*
X190014587Y-103868363D01*
X190014587Y-103868363D02*
X189919349Y-103820744D01*
X189919349Y-103820744D02*
X189824111Y-103725505D01*
X189824111Y-103725505D02*
X189776492Y-103535029D01*
X189776492Y-103535029D02*
X189776492Y-103201696D01*
X189776492Y-103201696D02*
X189824111Y-103011220D01*
X189824111Y-103011220D02*
X189919349Y-102915982D01*
X189919349Y-102915982D02*
X190014587Y-102868363D01*
X190871730Y-103868363D02*
X190871730Y-102868363D01*
X190871730Y-102868363D02*
X191443158Y-103868363D01*
X191443158Y-103868363D02*
X191443158Y-102868363D01*
X173069381Y-133813932D02*
X173688428Y-133813932D01*
X173688428Y-133813932D02*
X173355095Y-134194884D01*
X173355095Y-134194884D02*
X173497952Y-134194884D01*
X173497952Y-134194884D02*
X173593190Y-134242503D01*
X173593190Y-134242503D02*
X173640809Y-134290122D01*
X173640809Y-134290122D02*
X173688428Y-134385360D01*
X173688428Y-134385360D02*
X173688428Y-134623455D01*
X173688428Y-134623455D02*
X173640809Y-134718693D01*
X173640809Y-134718693D02*
X173593190Y-134766313D01*
X173593190Y-134766313D02*
X173497952Y-134813932D01*
X173497952Y-134813932D02*
X173212238Y-134813932D01*
X173212238Y-134813932D02*
X173117000Y-134766313D01*
X173117000Y-134766313D02*
X173069381Y-134718693D01*
X174117000Y-134718693D02*
X174164619Y-134766313D01*
X174164619Y-134766313D02*
X174117000Y-134813932D01*
X174117000Y-134813932D02*
X174069381Y-134766313D01*
X174069381Y-134766313D02*
X174117000Y-134718693D01*
X174117000Y-134718693D02*
X174117000Y-134813932D01*
X174497952Y-133813932D02*
X175116999Y-133813932D01*
X175116999Y-133813932D02*
X174783666Y-134194884D01*
X174783666Y-134194884D02*
X174926523Y-134194884D01*
X174926523Y-134194884D02*
X175021761Y-134242503D01*
X175021761Y-134242503D02*
X175069380Y-134290122D01*
X175069380Y-134290122D02*
X175116999Y-134385360D01*
X175116999Y-134385360D02*
X175116999Y-134623455D01*
X175116999Y-134623455D02*
X175069380Y-134718693D01*
X175069380Y-134718693D02*
X175021761Y-134766313D01*
X175021761Y-134766313D02*
X174926523Y-134813932D01*
X174926523Y-134813932D02*
X174640809Y-134813932D01*
X174640809Y-134813932D02*
X174545571Y-134766313D01*
X174545571Y-134766313D02*
X174497952Y-134718693D01*
X175402714Y-133813932D02*
X175736047Y-134813932D01*
X175736047Y-134813932D02*
X176069380Y-133813932D01*
X179062969Y-90369819D02*
X178586779Y-90369819D01*
X178586779Y-90369819D02*
X178539160Y-90846009D01*
X178539160Y-90846009D02*
X178586779Y-90798390D01*
X178586779Y-90798390D02*
X178682017Y-90750771D01*
X178682017Y-90750771D02*
X178920112Y-90750771D01*
X178920112Y-90750771D02*
X179015350Y-90798390D01*
X179015350Y-90798390D02*
X179062969Y-90846009D01*
X179062969Y-90846009D02*
X179110588Y-90941247D01*
X179110588Y-90941247D02*
X179110588Y-91179342D01*
X179110588Y-91179342D02*
X179062969Y-91274580D01*
X179062969Y-91274580D02*
X179015350Y-91322200D01*
X179015350Y-91322200D02*
X178920112Y-91369819D01*
X178920112Y-91369819D02*
X178682017Y-91369819D01*
X178682017Y-91369819D02*
X178586779Y-91322200D01*
X178586779Y-91322200D02*
X178539160Y-91274580D01*
X179396303Y-90369819D02*
X179729636Y-91369819D01*
X179729636Y-91369819D02*
X180062969Y-90369819D01*
X193336779Y-109488866D02*
X194098684Y-109488866D01*
X193717731Y-109869819D02*
X193717731Y-109107914D01*
X185027255Y-102869819D02*
X185217731Y-102869819D01*
X185217731Y-102869819D02*
X185312969Y-102917438D01*
X185312969Y-102917438D02*
X185408207Y-103012676D01*
X185408207Y-103012676D02*
X185455826Y-103203152D01*
X185455826Y-103203152D02*
X185455826Y-103536485D01*
X185455826Y-103536485D02*
X185408207Y-103726961D01*
X185408207Y-103726961D02*
X185312969Y-103822200D01*
X185312969Y-103822200D02*
X185217731Y-103869819D01*
X185217731Y-103869819D02*
X185027255Y-103869819D01*
X185027255Y-103869819D02*
X184932017Y-103822200D01*
X184932017Y-103822200D02*
X184836779Y-103726961D01*
X184836779Y-103726961D02*
X184789160Y-103536485D01*
X184789160Y-103536485D02*
X184789160Y-103203152D01*
X184789160Y-103203152D02*
X184836779Y-103012676D01*
X184836779Y-103012676D02*
X184932017Y-102917438D01*
X184932017Y-102917438D02*
X185027255Y-102869819D01*
X186217731Y-103346009D02*
X185884398Y-103346009D01*
X185884398Y-103869819D02*
X185884398Y-102869819D01*
X185884398Y-102869819D02*
X186360588Y-102869819D01*
X187074874Y-103346009D02*
X186741541Y-103346009D01*
X186741541Y-103869819D02*
X186741541Y-102869819D01*
X186741541Y-102869819D02*
X187217731Y-102869819D01*
X190166666Y-128454819D02*
X190166666Y-129169104D01*
X190166666Y-129169104D02*
X190119047Y-129311961D01*
X190119047Y-129311961D02*
X190023809Y-129407200D01*
X190023809Y-129407200D02*
X189880952Y-129454819D01*
X189880952Y-129454819D02*
X189785714Y-129454819D01*
X190595238Y-128550057D02*
X190642857Y-128502438D01*
X190642857Y-128502438D02*
X190738095Y-128454819D01*
X190738095Y-128454819D02*
X190976190Y-128454819D01*
X190976190Y-128454819D02*
X191071428Y-128502438D01*
X191071428Y-128502438D02*
X191119047Y-128550057D01*
X191119047Y-128550057D02*
X191166666Y-128645295D01*
X191166666Y-128645295D02*
X191166666Y-128740533D01*
X191166666Y-128740533D02*
X191119047Y-128883390D01*
X191119047Y-128883390D02*
X190547619Y-129454819D01*
X190547619Y-129454819D02*
X191166666Y-129454819D01*
X171263274Y-88666190D02*
X171977559Y-88666190D01*
X171977559Y-88666190D02*
X172120416Y-88713809D01*
X172120416Y-88713809D02*
X172215655Y-88809047D01*
X172215655Y-88809047D02*
X172263274Y-88951904D01*
X172263274Y-88951904D02*
X172263274Y-89047142D01*
X171263274Y-88285237D02*
X171263274Y-87666190D01*
X171263274Y-87666190D02*
X171644226Y-87999523D01*
X171644226Y-87999523D02*
X171644226Y-87856666D01*
X171644226Y-87856666D02*
X171691845Y-87761428D01*
X171691845Y-87761428D02*
X171739464Y-87713809D01*
X171739464Y-87713809D02*
X171834702Y-87666190D01*
X171834702Y-87666190D02*
X172072797Y-87666190D01*
X172072797Y-87666190D02*
X172168035Y-87713809D01*
X172168035Y-87713809D02*
X172215655Y-87761428D01*
X172215655Y-87761428D02*
X172263274Y-87856666D01*
X172263274Y-87856666D02*
X172263274Y-88142380D01*
X172263274Y-88142380D02*
X172215655Y-88237618D01*
X172215655Y-88237618D02*
X172168035Y-88285237D01*
X194484666Y-136360819D02*
X194484666Y-137075104D01*
X194484666Y-137075104D02*
X194437047Y-137217961D01*
X194437047Y-137217961D02*
X194341809Y-137313200D01*
X194341809Y-137313200D02*
X194198952Y-137360819D01*
X194198952Y-137360819D02*
X194103714Y-137360819D01*
X195389428Y-136694152D02*
X195389428Y-137360819D01*
X195151333Y-136313200D02*
X194913238Y-137027485D01*
X194913238Y-137027485D02*
X195532285Y-137027485D01*
X181166666Y-91704819D02*
X181166666Y-92419104D01*
X181166666Y-92419104D02*
X181119047Y-92561961D01*
X181119047Y-92561961D02*
X181023809Y-92657200D01*
X181023809Y-92657200D02*
X180880952Y-92704819D01*
X180880952Y-92704819D02*
X180785714Y-92704819D01*
X182119047Y-91704819D02*
X181642857Y-91704819D01*
X181642857Y-91704819D02*
X181595238Y-92181009D01*
X181595238Y-92181009D02*
X181642857Y-92133390D01*
X181642857Y-92133390D02*
X181738095Y-92085771D01*
X181738095Y-92085771D02*
X181976190Y-92085771D01*
X181976190Y-92085771D02*
X182071428Y-92133390D01*
X182071428Y-92133390D02*
X182119047Y-92181009D01*
X182119047Y-92181009D02*
X182166666Y-92276247D01*
X182166666Y-92276247D02*
X182166666Y-92514342D01*
X182166666Y-92514342D02*
X182119047Y-92609580D01*
X182119047Y-92609580D02*
X182071428Y-92657200D01*
X182071428Y-92657200D02*
X181976190Y-92704819D01*
X181976190Y-92704819D02*
X181738095Y-92704819D01*
X181738095Y-92704819D02*
X181642857Y-92657200D01*
X181642857Y-92657200D02*
X181595238Y-92609580D01*
X194481409Y-86814536D02*
X194481409Y-87528821D01*
X194481409Y-87528821D02*
X194433790Y-87671678D01*
X194433790Y-87671678D02*
X194338552Y-87766917D01*
X194338552Y-87766917D02*
X194195695Y-87814536D01*
X194195695Y-87814536D02*
X194100457Y-87814536D01*
X195386171Y-86814536D02*
X195195695Y-86814536D01*
X195195695Y-86814536D02*
X195100457Y-86862155D01*
X195100457Y-86862155D02*
X195052838Y-86909774D01*
X195052838Y-86909774D02*
X194957600Y-87052631D01*
X194957600Y-87052631D02*
X194909981Y-87243107D01*
X194909981Y-87243107D02*
X194909981Y-87624059D01*
X194909981Y-87624059D02*
X194957600Y-87719297D01*
X194957600Y-87719297D02*
X195005219Y-87766917D01*
X195005219Y-87766917D02*
X195100457Y-87814536D01*
X195100457Y-87814536D02*
X195290933Y-87814536D01*
X195290933Y-87814536D02*
X195386171Y-87766917D01*
X195386171Y-87766917D02*
X195433790Y-87719297D01*
X195433790Y-87719297D02*
X195481409Y-87624059D01*
X195481409Y-87624059D02*
X195481409Y-87385964D01*
X195481409Y-87385964D02*
X195433790Y-87290726D01*
X195433790Y-87290726D02*
X195386171Y-87243107D01*
X195386171Y-87243107D02*
X195290933Y-87195488D01*
X195290933Y-87195488D02*
X195100457Y-87195488D01*
X195100457Y-87195488D02*
X195005219Y-87243107D01*
X195005219Y-87243107D02*
X194957600Y-87290726D01*
X194957600Y-87290726D02*
X194909981Y-87385964D01*
X171263274Y-137192486D02*
X171977559Y-137192486D01*
X171977559Y-137192486D02*
X172120416Y-137240105D01*
X172120416Y-137240105D02*
X172215655Y-137335343D01*
X172215655Y-137335343D02*
X172263274Y-137478200D01*
X172263274Y-137478200D02*
X172263274Y-137573438D01*
X171263274Y-136811533D02*
X171263274Y-136144867D01*
X171263274Y-136144867D02*
X172263274Y-136573438D01*
X175768095Y-117782819D02*
X175768095Y-118592342D01*
X175768095Y-118592342D02*
X175815714Y-118687580D01*
X175815714Y-118687580D02*
X175863333Y-118735200D01*
X175863333Y-118735200D02*
X175958571Y-118782819D01*
X175958571Y-118782819D02*
X176149047Y-118782819D01*
X176149047Y-118782819D02*
X176244285Y-118735200D01*
X176244285Y-118735200D02*
X176291904Y-118687580D01*
X176291904Y-118687580D02*
X176339523Y-118592342D01*
X176339523Y-118592342D02*
X176339523Y-117782819D01*
X177339523Y-118782819D02*
X176768095Y-118782819D01*
X177053809Y-118782819D02*
X177053809Y-117782819D01*
X177053809Y-117782819D02*
X176958571Y-117925676D01*
X176958571Y-117925676D02*
X176863333Y-118020914D01*
X176863333Y-118020914D02*
X176768095Y-118068533D01*
X190587333Y-127454819D02*
X190254000Y-126978628D01*
X190015905Y-127454819D02*
X190015905Y-126454819D01*
X190015905Y-126454819D02*
X190396857Y-126454819D01*
X190396857Y-126454819D02*
X190492095Y-126502438D01*
X190492095Y-126502438D02*
X190539714Y-126550057D01*
X190539714Y-126550057D02*
X190587333Y-126645295D01*
X190587333Y-126645295D02*
X190587333Y-126788152D01*
X190587333Y-126788152D02*
X190539714Y-126883390D01*
X190539714Y-126883390D02*
X190492095Y-126931009D01*
X190492095Y-126931009D02*
X190396857Y-126978628D01*
X190396857Y-126978628D02*
X190015905Y-126978628D01*
X190920667Y-126454819D02*
X191539714Y-126454819D01*
X191539714Y-126454819D02*
X191206381Y-126835771D01*
X191206381Y-126835771D02*
X191349238Y-126835771D01*
X191349238Y-126835771D02*
X191444476Y-126883390D01*
X191444476Y-126883390D02*
X191492095Y-126931009D01*
X191492095Y-126931009D02*
X191539714Y-127026247D01*
X191539714Y-127026247D02*
X191539714Y-127264342D01*
X191539714Y-127264342D02*
X191492095Y-127359580D01*
X191492095Y-127359580D02*
X191444476Y-127407200D01*
X191444476Y-127407200D02*
X191349238Y-127454819D01*
X191349238Y-127454819D02*
X191063524Y-127454819D01*
X191063524Y-127454819D02*
X190968286Y-127407200D01*
X190968286Y-127407200D02*
X190920667Y-127359580D01*
X186229714Y-119342819D02*
X185753524Y-119342819D01*
X185753524Y-119342819D02*
X185705905Y-119819009D01*
X185705905Y-119819009D02*
X185753524Y-119771390D01*
X185753524Y-119771390D02*
X185848762Y-119723771D01*
X185848762Y-119723771D02*
X186086857Y-119723771D01*
X186086857Y-119723771D02*
X186182095Y-119771390D01*
X186182095Y-119771390D02*
X186229714Y-119819009D01*
X186229714Y-119819009D02*
X186277333Y-119914247D01*
X186277333Y-119914247D02*
X186277333Y-120152342D01*
X186277333Y-120152342D02*
X186229714Y-120247580D01*
X186229714Y-120247580D02*
X186182095Y-120295200D01*
X186182095Y-120295200D02*
X186086857Y-120342819D01*
X186086857Y-120342819D02*
X185848762Y-120342819D01*
X185848762Y-120342819D02*
X185753524Y-120295200D01*
X185753524Y-120295200D02*
X185705905Y-120247580D01*
X187134476Y-119342819D02*
X186944000Y-119342819D01*
X186944000Y-119342819D02*
X186848762Y-119390438D01*
X186848762Y-119390438D02*
X186801143Y-119438057D01*
X186801143Y-119438057D02*
X186705905Y-119580914D01*
X186705905Y-119580914D02*
X186658286Y-119771390D01*
X186658286Y-119771390D02*
X186658286Y-120152342D01*
X186658286Y-120152342D02*
X186705905Y-120247580D01*
X186705905Y-120247580D02*
X186753524Y-120295200D01*
X186753524Y-120295200D02*
X186848762Y-120342819D01*
X186848762Y-120342819D02*
X187039238Y-120342819D01*
X187039238Y-120342819D02*
X187134476Y-120295200D01*
X187134476Y-120295200D02*
X187182095Y-120247580D01*
X187182095Y-120247580D02*
X187229714Y-120152342D01*
X187229714Y-120152342D02*
X187229714Y-119914247D01*
X187229714Y-119914247D02*
X187182095Y-119819009D01*
X187182095Y-119819009D02*
X187134476Y-119771390D01*
X187134476Y-119771390D02*
X187039238Y-119723771D01*
X187039238Y-119723771D02*
X186848762Y-119723771D01*
X186848762Y-119723771D02*
X186753524Y-119771390D01*
X186753524Y-119771390D02*
X186705905Y-119819009D01*
X186705905Y-119819009D02*
X186658286Y-119914247D01*
X187848762Y-119342819D02*
X187944000Y-119342819D01*
X187944000Y-119342819D02*
X188039238Y-119390438D01*
X188039238Y-119390438D02*
X188086857Y-119438057D01*
X188086857Y-119438057D02*
X188134476Y-119533295D01*
X188134476Y-119533295D02*
X188182095Y-119723771D01*
X188182095Y-119723771D02*
X188182095Y-119961866D01*
X188182095Y-119961866D02*
X188134476Y-120152342D01*
X188134476Y-120152342D02*
X188086857Y-120247580D01*
X188086857Y-120247580D02*
X188039238Y-120295200D01*
X188039238Y-120295200D02*
X187944000Y-120342819D01*
X187944000Y-120342819D02*
X187848762Y-120342819D01*
X187848762Y-120342819D02*
X187753524Y-120295200D01*
X187753524Y-120295200D02*
X187705905Y-120247580D01*
X187705905Y-120247580D02*
X187658286Y-120152342D01*
X187658286Y-120152342D02*
X187610667Y-119961866D01*
X187610667Y-119961866D02*
X187610667Y-119723771D01*
X187610667Y-119723771D02*
X187658286Y-119533295D01*
X187658286Y-119533295D02*
X187705905Y-119438057D01*
X187705905Y-119438057D02*
X187753524Y-119390438D01*
X187753524Y-119390438D02*
X187848762Y-119342819D01*
X176383333Y-127341580D02*
X176335714Y-127389200D01*
X176335714Y-127389200D02*
X176192857Y-127436819D01*
X176192857Y-127436819D02*
X176097619Y-127436819D01*
X176097619Y-127436819D02*
X175954762Y-127389200D01*
X175954762Y-127389200D02*
X175859524Y-127293961D01*
X175859524Y-127293961D02*
X175811905Y-127198723D01*
X175811905Y-127198723D02*
X175764286Y-127008247D01*
X175764286Y-127008247D02*
X175764286Y-126865390D01*
X175764286Y-126865390D02*
X175811905Y-126674914D01*
X175811905Y-126674914D02*
X175859524Y-126579676D01*
X175859524Y-126579676D02*
X175954762Y-126484438D01*
X175954762Y-126484438D02*
X176097619Y-126436819D01*
X176097619Y-126436819D02*
X176192857Y-126436819D01*
X176192857Y-126436819D02*
X176335714Y-126484438D01*
X176335714Y-126484438D02*
X176383333Y-126532057D01*
X176764286Y-126532057D02*
X176811905Y-126484438D01*
X176811905Y-126484438D02*
X176907143Y-126436819D01*
X176907143Y-126436819D02*
X177145238Y-126436819D01*
X177145238Y-126436819D02*
X177240476Y-126484438D01*
X177240476Y-126484438D02*
X177288095Y-126532057D01*
X177288095Y-126532057D02*
X177335714Y-126627295D01*
X177335714Y-126627295D02*
X177335714Y-126722533D01*
X177335714Y-126722533D02*
X177288095Y-126865390D01*
X177288095Y-126865390D02*
X176716667Y-127436819D01*
X176716667Y-127436819D02*
X177335714Y-127436819D01*
X176383333Y-131536819D02*
X175811905Y-131536819D01*
X176097619Y-131536819D02*
X176097619Y-130536819D01*
X176097619Y-130536819D02*
X176002381Y-130679676D01*
X176002381Y-130679676D02*
X175907143Y-130774914D01*
X175907143Y-130774914D02*
X175811905Y-130822533D01*
X177240476Y-130870152D02*
X177240476Y-131536819D01*
X176811905Y-130870152D02*
X176811905Y-131393961D01*
X176811905Y-131393961D02*
X176859524Y-131489200D01*
X176859524Y-131489200D02*
X176954762Y-131536819D01*
X176954762Y-131536819D02*
X177097619Y-131536819D01*
X177097619Y-131536819D02*
X177192857Y-131489200D01*
X177192857Y-131489200D02*
X177240476Y-131441580D01*
X190841333Y-120342819D02*
X190508000Y-119866628D01*
X190269905Y-120342819D02*
X190269905Y-119342819D01*
X190269905Y-119342819D02*
X190650857Y-119342819D01*
X190650857Y-119342819D02*
X190746095Y-119390438D01*
X190746095Y-119390438D02*
X190793714Y-119438057D01*
X190793714Y-119438057D02*
X190841333Y-119533295D01*
X190841333Y-119533295D02*
X190841333Y-119676152D01*
X190841333Y-119676152D02*
X190793714Y-119771390D01*
X190793714Y-119771390D02*
X190746095Y-119819009D01*
X190746095Y-119819009D02*
X190650857Y-119866628D01*
X190650857Y-119866628D02*
X190269905Y-119866628D01*
X191222286Y-119438057D02*
X191269905Y-119390438D01*
X191269905Y-119390438D02*
X191365143Y-119342819D01*
X191365143Y-119342819D02*
X191603238Y-119342819D01*
X191603238Y-119342819D02*
X191698476Y-119390438D01*
X191698476Y-119390438D02*
X191746095Y-119438057D01*
X191746095Y-119438057D02*
X191793714Y-119533295D01*
X191793714Y-119533295D02*
X191793714Y-119628533D01*
X191793714Y-119628533D02*
X191746095Y-119771390D01*
X191746095Y-119771390D02*
X191174667Y-120342819D01*
X191174667Y-120342819D02*
X191793714Y-120342819D01*
X185912286Y-126454819D02*
X186531333Y-126454819D01*
X186531333Y-126454819D02*
X186198000Y-126835771D01*
X186198000Y-126835771D02*
X186340857Y-126835771D01*
X186340857Y-126835771D02*
X186436095Y-126883390D01*
X186436095Y-126883390D02*
X186483714Y-126931009D01*
X186483714Y-126931009D02*
X186531333Y-127026247D01*
X186531333Y-127026247D02*
X186531333Y-127264342D01*
X186531333Y-127264342D02*
X186483714Y-127359580D01*
X186483714Y-127359580D02*
X186436095Y-127407200D01*
X186436095Y-127407200D02*
X186340857Y-127454819D01*
X186340857Y-127454819D02*
X186055143Y-127454819D01*
X186055143Y-127454819D02*
X185959905Y-127407200D01*
X185959905Y-127407200D02*
X185912286Y-127359580D01*
X186864667Y-126454819D02*
X187483714Y-126454819D01*
X187483714Y-126454819D02*
X187150381Y-126835771D01*
X187150381Y-126835771D02*
X187293238Y-126835771D01*
X187293238Y-126835771D02*
X187388476Y-126883390D01*
X187388476Y-126883390D02*
X187436095Y-126931009D01*
X187436095Y-126931009D02*
X187483714Y-127026247D01*
X187483714Y-127026247D02*
X187483714Y-127264342D01*
X187483714Y-127264342D02*
X187436095Y-127359580D01*
X187436095Y-127359580D02*
X187388476Y-127407200D01*
X187388476Y-127407200D02*
X187293238Y-127454819D01*
X187293238Y-127454819D02*
X187007524Y-127454819D01*
X187007524Y-127454819D02*
X186912286Y-127407200D01*
X186912286Y-127407200D02*
X186864667Y-127359580D01*
X188102762Y-126454819D02*
X188198000Y-126454819D01*
X188198000Y-126454819D02*
X188293238Y-126502438D01*
X188293238Y-126502438D02*
X188340857Y-126550057D01*
X188340857Y-126550057D02*
X188388476Y-126645295D01*
X188388476Y-126645295D02*
X188436095Y-126835771D01*
X188436095Y-126835771D02*
X188436095Y-127073866D01*
X188436095Y-127073866D02*
X188388476Y-127264342D01*
X188388476Y-127264342D02*
X188340857Y-127359580D01*
X188340857Y-127359580D02*
X188293238Y-127407200D01*
X188293238Y-127407200D02*
X188198000Y-127454819D01*
X188198000Y-127454819D02*
X188102762Y-127454819D01*
X188102762Y-127454819D02*
X188007524Y-127407200D01*
X188007524Y-127407200D02*
X187959905Y-127359580D01*
X187959905Y-127359580D02*
X187912286Y-127264342D01*
X187912286Y-127264342D02*
X187864667Y-127073866D01*
X187864667Y-127073866D02*
X187864667Y-126835771D01*
X187864667Y-126835771D02*
X187912286Y-126645295D01*
X187912286Y-126645295D02*
X187959905Y-126550057D01*
X187959905Y-126550057D02*
X188007524Y-126502438D01*
X188007524Y-126502438D02*
X188102762Y-126454819D01*
X174000666Y-116202819D02*
X174000666Y-116917104D01*
X174000666Y-116917104D02*
X173953047Y-117059961D01*
X173953047Y-117059961D02*
X173857809Y-117155200D01*
X173857809Y-117155200D02*
X173714952Y-117202819D01*
X173714952Y-117202819D02*
X173619714Y-117202819D01*
X175000666Y-117202819D02*
X174429238Y-117202819D01*
X174714952Y-117202819D02*
X174714952Y-116202819D01*
X174714952Y-116202819D02*
X174619714Y-116345676D01*
X174619714Y-116345676D02*
X174524476Y-116440914D01*
X174524476Y-116440914D02*
X174429238Y-116488533D01*
X170060189Y-105429009D02*
X170203046Y-105476628D01*
X170203046Y-105476628D02*
X170250665Y-105524247D01*
X170250665Y-105524247D02*
X170298284Y-105619485D01*
X170298284Y-105619485D02*
X170298284Y-105762342D01*
X170298284Y-105762342D02*
X170250665Y-105857580D01*
X170250665Y-105857580D02*
X170203046Y-105905200D01*
X170203046Y-105905200D02*
X170107808Y-105952819D01*
X170107808Y-105952819D02*
X169726856Y-105952819D01*
X169726856Y-105952819D02*
X169726856Y-104952819D01*
X169726856Y-104952819D02*
X170060189Y-104952819D01*
X170060189Y-104952819D02*
X170155427Y-105000438D01*
X170155427Y-105000438D02*
X170203046Y-105048057D01*
X170203046Y-105048057D02*
X170250665Y-105143295D01*
X170250665Y-105143295D02*
X170250665Y-105238533D01*
X170250665Y-105238533D02*
X170203046Y-105333771D01*
X170203046Y-105333771D02*
X170155427Y-105381390D01*
X170155427Y-105381390D02*
X170060189Y-105429009D01*
X170060189Y-105429009D02*
X169726856Y-105429009D01*
X171155427Y-105952819D02*
X171155427Y-105429009D01*
X171155427Y-105429009D02*
X171107808Y-105333771D01*
X171107808Y-105333771D02*
X171012570Y-105286152D01*
X171012570Y-105286152D02*
X170822094Y-105286152D01*
X170822094Y-105286152D02*
X170726856Y-105333771D01*
X171155427Y-105905200D02*
X171060189Y-105952819D01*
X171060189Y-105952819D02*
X170822094Y-105952819D01*
X170822094Y-105952819D02*
X170726856Y-105905200D01*
X170726856Y-105905200D02*
X170679237Y-105809961D01*
X170679237Y-105809961D02*
X170679237Y-105714723D01*
X170679237Y-105714723D02*
X170726856Y-105619485D01*
X170726856Y-105619485D02*
X170822094Y-105571866D01*
X170822094Y-105571866D02*
X171060189Y-105571866D01*
X171060189Y-105571866D02*
X171155427Y-105524247D01*
X171631618Y-105952819D02*
X171631618Y-105286152D01*
X171631618Y-105476628D02*
X171679237Y-105381390D01*
X171679237Y-105381390D02*
X171726856Y-105333771D01*
X171726856Y-105333771D02*
X171822094Y-105286152D01*
X171822094Y-105286152D02*
X171917332Y-105286152D01*
X172250666Y-105952819D02*
X172250666Y-105286152D01*
X172250666Y-105476628D02*
X172298285Y-105381390D01*
X172298285Y-105381390D02*
X172345904Y-105333771D01*
X172345904Y-105333771D02*
X172441142Y-105286152D01*
X172441142Y-105286152D02*
X172536380Y-105286152D01*
X173250666Y-105905200D02*
X173155428Y-105952819D01*
X173155428Y-105952819D02*
X172964952Y-105952819D01*
X172964952Y-105952819D02*
X172869714Y-105905200D01*
X172869714Y-105905200D02*
X172822095Y-105809961D01*
X172822095Y-105809961D02*
X172822095Y-105429009D01*
X172822095Y-105429009D02*
X172869714Y-105333771D01*
X172869714Y-105333771D02*
X172964952Y-105286152D01*
X172964952Y-105286152D02*
X173155428Y-105286152D01*
X173155428Y-105286152D02*
X173250666Y-105333771D01*
X173250666Y-105333771D02*
X173298285Y-105429009D01*
X173298285Y-105429009D02*
X173298285Y-105524247D01*
X173298285Y-105524247D02*
X172822095Y-105619485D01*
X173869714Y-105952819D02*
X173774476Y-105905200D01*
X173774476Y-105905200D02*
X173726857Y-105809961D01*
X173726857Y-105809961D02*
X173726857Y-104952819D01*
X174012572Y-106048057D02*
X174774476Y-106048057D01*
X175298286Y-104952819D02*
X175298286Y-105667104D01*
X175298286Y-105667104D02*
X175250667Y-105809961D01*
X175250667Y-105809961D02*
X175155429Y-105905200D01*
X175155429Y-105905200D02*
X175012572Y-105952819D01*
X175012572Y-105952819D02*
X174917334Y-105952819D01*
X176203048Y-105952819D02*
X176203048Y-105429009D01*
X176203048Y-105429009D02*
X176155429Y-105333771D01*
X176155429Y-105333771D02*
X176060191Y-105286152D01*
X176060191Y-105286152D02*
X175869715Y-105286152D01*
X175869715Y-105286152D02*
X175774477Y-105333771D01*
X176203048Y-105905200D02*
X176107810Y-105952819D01*
X176107810Y-105952819D02*
X175869715Y-105952819D01*
X175869715Y-105952819D02*
X175774477Y-105905200D01*
X175774477Y-105905200D02*
X175726858Y-105809961D01*
X175726858Y-105809961D02*
X175726858Y-105714723D01*
X175726858Y-105714723D02*
X175774477Y-105619485D01*
X175774477Y-105619485D02*
X175869715Y-105571866D01*
X175869715Y-105571866D02*
X176107810Y-105571866D01*
X176107810Y-105571866D02*
X176203048Y-105524247D01*
X177107810Y-105905200D02*
X177012572Y-105952819D01*
X177012572Y-105952819D02*
X176822096Y-105952819D01*
X176822096Y-105952819D02*
X176726858Y-105905200D01*
X176726858Y-105905200D02*
X176679239Y-105857580D01*
X176679239Y-105857580D02*
X176631620Y-105762342D01*
X176631620Y-105762342D02*
X176631620Y-105476628D01*
X176631620Y-105476628D02*
X176679239Y-105381390D01*
X176679239Y-105381390D02*
X176726858Y-105333771D01*
X176726858Y-105333771D02*
X176822096Y-105286152D01*
X176822096Y-105286152D02*
X177012572Y-105286152D01*
X177012572Y-105286152D02*
X177107810Y-105333771D01*
X177536382Y-105952819D02*
X177536382Y-104952819D01*
X177631620Y-105571866D02*
X177917334Y-105952819D01*
X177917334Y-105286152D02*
X177536382Y-105667104D01*
X178107811Y-106048057D02*
X178869715Y-106048057D01*
X179060192Y-105905200D02*
X179203049Y-105952819D01*
X179203049Y-105952819D02*
X179441144Y-105952819D01*
X179441144Y-105952819D02*
X179536382Y-105905200D01*
X179536382Y-105905200D02*
X179584001Y-105857580D01*
X179584001Y-105857580D02*
X179631620Y-105762342D01*
X179631620Y-105762342D02*
X179631620Y-105667104D01*
X179631620Y-105667104D02*
X179584001Y-105571866D01*
X179584001Y-105571866D02*
X179536382Y-105524247D01*
X179536382Y-105524247D02*
X179441144Y-105476628D01*
X179441144Y-105476628D02*
X179250668Y-105429009D01*
X179250668Y-105429009D02*
X179155430Y-105381390D01*
X179155430Y-105381390D02*
X179107811Y-105333771D01*
X179107811Y-105333771D02*
X179060192Y-105238533D01*
X179060192Y-105238533D02*
X179060192Y-105143295D01*
X179060192Y-105143295D02*
X179107811Y-105048057D01*
X179107811Y-105048057D02*
X179155430Y-105000438D01*
X179155430Y-105000438D02*
X179250668Y-104952819D01*
X179250668Y-104952819D02*
X179488763Y-104952819D01*
X179488763Y-104952819D02*
X179631620Y-105000438D01*
X179964954Y-105286152D02*
X180155430Y-105952819D01*
X180155430Y-105952819D02*
X180345906Y-105476628D01*
X180345906Y-105476628D02*
X180536382Y-105952819D01*
X180536382Y-105952819D02*
X180726858Y-105286152D01*
X181107811Y-105952819D02*
X181107811Y-105286152D01*
X181107811Y-104952819D02*
X181060192Y-105000438D01*
X181060192Y-105000438D02*
X181107811Y-105048057D01*
X181107811Y-105048057D02*
X181155430Y-105000438D01*
X181155430Y-105000438D02*
X181107811Y-104952819D01*
X181107811Y-104952819D02*
X181107811Y-105048057D01*
X181441144Y-105286152D02*
X181822096Y-105286152D01*
X181584001Y-104952819D02*
X181584001Y-105809961D01*
X181584001Y-105809961D02*
X181631620Y-105905200D01*
X181631620Y-105905200D02*
X181726858Y-105952819D01*
X181726858Y-105952819D02*
X181822096Y-105952819D01*
X182584001Y-105905200D02*
X182488763Y-105952819D01*
X182488763Y-105952819D02*
X182298287Y-105952819D01*
X182298287Y-105952819D02*
X182203049Y-105905200D01*
X182203049Y-105905200D02*
X182155430Y-105857580D01*
X182155430Y-105857580D02*
X182107811Y-105762342D01*
X182107811Y-105762342D02*
X182107811Y-105476628D01*
X182107811Y-105476628D02*
X182155430Y-105381390D01*
X182155430Y-105381390D02*
X182203049Y-105333771D01*
X182203049Y-105333771D02*
X182298287Y-105286152D01*
X182298287Y-105286152D02*
X182488763Y-105286152D01*
X182488763Y-105286152D02*
X182584001Y-105333771D01*
X183012573Y-105952819D02*
X183012573Y-104952819D01*
X183441144Y-105952819D02*
X183441144Y-105429009D01*
X183441144Y-105429009D02*
X183393525Y-105333771D01*
X183393525Y-105333771D02*
X183298287Y-105286152D01*
X183298287Y-105286152D02*
X183155430Y-105286152D01*
X183155430Y-105286152D02*
X183060192Y-105333771D01*
X183060192Y-105333771D02*
X183012573Y-105381390D01*
X189269945Y-108937033D02*
X188936612Y-108460842D01*
X188698517Y-108937033D02*
X188698517Y-107937033D01*
X188698517Y-107937033D02*
X189079469Y-107937033D01*
X189079469Y-107937033D02*
X189174707Y-107984652D01*
X189174707Y-107984652D02*
X189222326Y-108032271D01*
X189222326Y-108032271D02*
X189269945Y-108127509D01*
X189269945Y-108127509D02*
X189269945Y-108270366D01*
X189269945Y-108270366D02*
X189222326Y-108365604D01*
X189222326Y-108365604D02*
X189174707Y-108413223D01*
X189174707Y-108413223D02*
X189079469Y-108460842D01*
X189079469Y-108460842D02*
X188698517Y-108460842D01*
X190222326Y-108937033D02*
X189650898Y-108937033D01*
X189936612Y-108937033D02*
X189936612Y-107937033D01*
X189936612Y-107937033D02*
X189841374Y-108079890D01*
X189841374Y-108079890D02*
X189746136Y-108175128D01*
X189746136Y-108175128D02*
X189650898Y-108222747D01*
X189510326Y-104376683D02*
X189034136Y-104376683D01*
X189034136Y-104376683D02*
X188986517Y-104852873D01*
X188986517Y-104852873D02*
X189034136Y-104805254D01*
X189034136Y-104805254D02*
X189129374Y-104757635D01*
X189129374Y-104757635D02*
X189367469Y-104757635D01*
X189367469Y-104757635D02*
X189462707Y-104805254D01*
X189462707Y-104805254D02*
X189510326Y-104852873D01*
X189510326Y-104852873D02*
X189557945Y-104948111D01*
X189557945Y-104948111D02*
X189557945Y-105186206D01*
X189557945Y-105186206D02*
X189510326Y-105281444D01*
X189510326Y-105281444D02*
X189462707Y-105329064D01*
X189462707Y-105329064D02*
X189367469Y-105376683D01*
X189367469Y-105376683D02*
X189129374Y-105376683D01*
X189129374Y-105376683D02*
X189034136Y-105329064D01*
X189034136Y-105329064D02*
X188986517Y-105281444D01*
X190415088Y-104376683D02*
X190224612Y-104376683D01*
X190224612Y-104376683D02*
X190129374Y-104424302D01*
X190129374Y-104424302D02*
X190081755Y-104471921D01*
X190081755Y-104471921D02*
X189986517Y-104614778D01*
X189986517Y-104614778D02*
X189938898Y-104805254D01*
X189938898Y-104805254D02*
X189938898Y-105186206D01*
X189938898Y-105186206D02*
X189986517Y-105281444D01*
X189986517Y-105281444D02*
X190034136Y-105329064D01*
X190034136Y-105329064D02*
X190129374Y-105376683D01*
X190129374Y-105376683D02*
X190319850Y-105376683D01*
X190319850Y-105376683D02*
X190415088Y-105329064D01*
X190415088Y-105329064D02*
X190462707Y-105281444D01*
X190462707Y-105281444D02*
X190510326Y-105186206D01*
X190510326Y-105186206D02*
X190510326Y-104948111D01*
X190510326Y-104948111D02*
X190462707Y-104852873D01*
X190462707Y-104852873D02*
X190415088Y-104805254D01*
X190415088Y-104805254D02*
X190319850Y-104757635D01*
X190319850Y-104757635D02*
X190129374Y-104757635D01*
X190129374Y-104757635D02*
X190034136Y-104805254D01*
X190034136Y-104805254D02*
X189986517Y-104852873D01*
X189986517Y-104852873D02*
X189938898Y-104948111D01*
X191129374Y-104376683D02*
X191224612Y-104376683D01*
X191224612Y-104376683D02*
X191319850Y-104424302D01*
X191319850Y-104424302D02*
X191367469Y-104471921D01*
X191367469Y-104471921D02*
X191415088Y-104567159D01*
X191415088Y-104567159D02*
X191462707Y-104757635D01*
X191462707Y-104757635D02*
X191462707Y-104995730D01*
X191462707Y-104995730D02*
X191415088Y-105186206D01*
X191415088Y-105186206D02*
X191367469Y-105281444D01*
X191367469Y-105281444D02*
X191319850Y-105329064D01*
X191319850Y-105329064D02*
X191224612Y-105376683D01*
X191224612Y-105376683D02*
X191129374Y-105376683D01*
X191129374Y-105376683D02*
X191034136Y-105329064D01*
X191034136Y-105329064D02*
X190986517Y-105281444D01*
X190986517Y-105281444D02*
X190938898Y-105186206D01*
X190938898Y-105186206D02*
X190891279Y-104995730D01*
X190891279Y-104995730D02*
X190891279Y-104757635D01*
X190891279Y-104757635D02*
X190938898Y-104567159D01*
X190938898Y-104567159D02*
X190986517Y-104471921D01*
X190986517Y-104471921D02*
X191034136Y-104424302D01*
X191034136Y-104424302D02*
X191129374Y-104376683D01*
X189488095Y-97657200D02*
X189630952Y-97704819D01*
X189630952Y-97704819D02*
X189869047Y-97704819D01*
X189869047Y-97704819D02*
X189964285Y-97657200D01*
X189964285Y-97657200D02*
X190011904Y-97609580D01*
X190011904Y-97609580D02*
X190059523Y-97514342D01*
X190059523Y-97514342D02*
X190059523Y-97419104D01*
X190059523Y-97419104D02*
X190011904Y-97323866D01*
X190011904Y-97323866D02*
X189964285Y-97276247D01*
X189964285Y-97276247D02*
X189869047Y-97228628D01*
X189869047Y-97228628D02*
X189678571Y-97181009D01*
X189678571Y-97181009D02*
X189583333Y-97133390D01*
X189583333Y-97133390D02*
X189535714Y-97085771D01*
X189535714Y-97085771D02*
X189488095Y-96990533D01*
X189488095Y-96990533D02*
X189488095Y-96895295D01*
X189488095Y-96895295D02*
X189535714Y-96800057D01*
X189535714Y-96800057D02*
X189583333Y-96752438D01*
X189583333Y-96752438D02*
X189678571Y-96704819D01*
X189678571Y-96704819D02*
X189916666Y-96704819D01*
X189916666Y-96704819D02*
X190059523Y-96752438D01*
X191011904Y-97704819D02*
X190440476Y-97704819D01*
X190726190Y-97704819D02*
X190726190Y-96704819D01*
X190726190Y-96704819D02*
X190630952Y-96847676D01*
X190630952Y-96847676D02*
X190535714Y-96942914D01*
X190535714Y-96942914D02*
X190440476Y-96990533D01*
X178395333Y-92815580D02*
X178347714Y-92863200D01*
X178347714Y-92863200D02*
X178204857Y-92910819D01*
X178204857Y-92910819D02*
X178109619Y-92910819D01*
X178109619Y-92910819D02*
X177966762Y-92863200D01*
X177966762Y-92863200D02*
X177871524Y-92767961D01*
X177871524Y-92767961D02*
X177823905Y-92672723D01*
X177823905Y-92672723D02*
X177776286Y-92482247D01*
X177776286Y-92482247D02*
X177776286Y-92339390D01*
X177776286Y-92339390D02*
X177823905Y-92148914D01*
X177823905Y-92148914D02*
X177871524Y-92053676D01*
X177871524Y-92053676D02*
X177966762Y-91958438D01*
X177966762Y-91958438D02*
X178109619Y-91910819D01*
X178109619Y-91910819D02*
X178204857Y-91910819D01*
X178204857Y-91910819D02*
X178347714Y-91958438D01*
X178347714Y-91958438D02*
X178395333Y-92006057D01*
X179347714Y-92910819D02*
X178776286Y-92910819D01*
X179062000Y-92910819D02*
X179062000Y-91910819D01*
X179062000Y-91910819D02*
X178966762Y-92053676D01*
X178966762Y-92053676D02*
X178871524Y-92148914D01*
X178871524Y-92148914D02*
X178776286Y-92196533D01*
X177665142Y-96466819D02*
X177093714Y-96466819D01*
X177379428Y-96466819D02*
X177379428Y-95466819D01*
X177379428Y-95466819D02*
X177284190Y-95609676D01*
X177284190Y-95609676D02*
X177188952Y-95704914D01*
X177188952Y-95704914D02*
X177093714Y-95752533D01*
X178284190Y-95466819D02*
X178379428Y-95466819D01*
X178379428Y-95466819D02*
X178474666Y-95514438D01*
X178474666Y-95514438D02*
X178522285Y-95562057D01*
X178522285Y-95562057D02*
X178569904Y-95657295D01*
X178569904Y-95657295D02*
X178617523Y-95847771D01*
X178617523Y-95847771D02*
X178617523Y-96085866D01*
X178617523Y-96085866D02*
X178569904Y-96276342D01*
X178569904Y-96276342D02*
X178522285Y-96371580D01*
X178522285Y-96371580D02*
X178474666Y-96419200D01*
X178474666Y-96419200D02*
X178379428Y-96466819D01*
X178379428Y-96466819D02*
X178284190Y-96466819D01*
X178284190Y-96466819D02*
X178188952Y-96419200D01*
X178188952Y-96419200D02*
X178141333Y-96371580D01*
X178141333Y-96371580D02*
X178093714Y-96276342D01*
X178093714Y-96276342D02*
X178046095Y-96085866D01*
X178046095Y-96085866D02*
X178046095Y-95847771D01*
X178046095Y-95847771D02*
X178093714Y-95657295D01*
X178093714Y-95657295D02*
X178141333Y-95562057D01*
X178141333Y-95562057D02*
X178188952Y-95514438D01*
X178188952Y-95514438D02*
X178284190Y-95466819D01*
X179474666Y-95800152D02*
X179474666Y-96466819D01*
X179046095Y-95800152D02*
X179046095Y-96323961D01*
X179046095Y-96323961D02*
X179093714Y-96419200D01*
X179093714Y-96419200D02*
X179188952Y-96466819D01*
X179188952Y-96466819D02*
X179331809Y-96466819D01*
X179331809Y-96466819D02*
X179427047Y-96419200D01*
X179427047Y-96419200D02*
X179474666Y-96371580D01*
X187502819Y-114276094D02*
X186502819Y-114276094D01*
X186502819Y-114276094D02*
X186502819Y-114037999D01*
X186502819Y-114037999D02*
X186550438Y-113895142D01*
X186550438Y-113895142D02*
X186645676Y-113799904D01*
X186645676Y-113799904D02*
X186740914Y-113752285D01*
X186740914Y-113752285D02*
X186931390Y-113704666D01*
X186931390Y-113704666D02*
X187074247Y-113704666D01*
X187074247Y-113704666D02*
X187264723Y-113752285D01*
X187264723Y-113752285D02*
X187359961Y-113799904D01*
X187359961Y-113799904D02*
X187455200Y-113895142D01*
X187455200Y-113895142D02*
X187502819Y-114037999D01*
X187502819Y-114037999D02*
X187502819Y-114276094D01*
X187502819Y-112752285D02*
X187502819Y-113323713D01*
X187502819Y-113037999D02*
X186502819Y-113037999D01*
X186502819Y-113037999D02*
X186645676Y-113133237D01*
X186645676Y-113133237D02*
X186740914Y-113228475D01*
X186740914Y-113228475D02*
X186788533Y-113323713D01*
X190107142Y-117954819D02*
X189630952Y-117954819D01*
X189630952Y-117954819D02*
X189630952Y-116954819D01*
X190440476Y-117431009D02*
X190773809Y-117431009D01*
X190916666Y-117954819D02*
X190440476Y-117954819D01*
X190440476Y-117954819D02*
X190440476Y-116954819D01*
X190440476Y-116954819D02*
X190916666Y-116954819D01*
X191345238Y-117954819D02*
X191345238Y-116954819D01*
X191345238Y-116954819D02*
X191583333Y-116954819D01*
X191583333Y-116954819D02*
X191726190Y-117002438D01*
X191726190Y-117002438D02*
X191821428Y-117097676D01*
X191821428Y-117097676D02*
X191869047Y-117192914D01*
X191869047Y-117192914D02*
X191916666Y-117383390D01*
X191916666Y-117383390D02*
X191916666Y-117526247D01*
X191916666Y-117526247D02*
X191869047Y-117716723D01*
X191869047Y-117716723D02*
X191821428Y-117811961D01*
X191821428Y-117811961D02*
X191726190Y-117907200D01*
X191726190Y-117907200D02*
X191583333Y-117954819D01*
X191583333Y-117954819D02*
X191345238Y-117954819D01*
X173569333Y-92815580D02*
X173521714Y-92863200D01*
X173521714Y-92863200D02*
X173378857Y-92910819D01*
X173378857Y-92910819D02*
X173283619Y-92910819D01*
X173283619Y-92910819D02*
X173140762Y-92863200D01*
X173140762Y-92863200D02*
X173045524Y-92767961D01*
X173045524Y-92767961D02*
X172997905Y-92672723D01*
X172997905Y-92672723D02*
X172950286Y-92482247D01*
X172950286Y-92482247D02*
X172950286Y-92339390D01*
X172950286Y-92339390D02*
X172997905Y-92148914D01*
X172997905Y-92148914D02*
X173045524Y-92053676D01*
X173045524Y-92053676D02*
X173140762Y-91958438D01*
X173140762Y-91958438D02*
X173283619Y-91910819D01*
X173283619Y-91910819D02*
X173378857Y-91910819D01*
X173378857Y-91910819D02*
X173521714Y-91958438D01*
X173521714Y-91958438D02*
X173569333Y-92006057D01*
X173902667Y-91910819D02*
X174521714Y-91910819D01*
X174521714Y-91910819D02*
X174188381Y-92291771D01*
X174188381Y-92291771D02*
X174331238Y-92291771D01*
X174331238Y-92291771D02*
X174426476Y-92339390D01*
X174426476Y-92339390D02*
X174474095Y-92387009D01*
X174474095Y-92387009D02*
X174521714Y-92482247D01*
X174521714Y-92482247D02*
X174521714Y-92720342D01*
X174521714Y-92720342D02*
X174474095Y-92815580D01*
X174474095Y-92815580D02*
X174426476Y-92863200D01*
X174426476Y-92863200D02*
X174331238Y-92910819D01*
X174331238Y-92910819D02*
X174045524Y-92910819D01*
X174045524Y-92910819D02*
X173950286Y-92863200D01*
X173950286Y-92863200D02*
X173902667Y-92815580D01*
X173029714Y-95466819D02*
X173124952Y-95466819D01*
X173124952Y-95466819D02*
X173220190Y-95514438D01*
X173220190Y-95514438D02*
X173267809Y-95562057D01*
X173267809Y-95562057D02*
X173315428Y-95657295D01*
X173315428Y-95657295D02*
X173363047Y-95847771D01*
X173363047Y-95847771D02*
X173363047Y-96085866D01*
X173363047Y-96085866D02*
X173315428Y-96276342D01*
X173315428Y-96276342D02*
X173267809Y-96371580D01*
X173267809Y-96371580D02*
X173220190Y-96419200D01*
X173220190Y-96419200D02*
X173124952Y-96466819D01*
X173124952Y-96466819D02*
X173029714Y-96466819D01*
X173029714Y-96466819D02*
X172934476Y-96419200D01*
X172934476Y-96419200D02*
X172886857Y-96371580D01*
X172886857Y-96371580D02*
X172839238Y-96276342D01*
X172839238Y-96276342D02*
X172791619Y-96085866D01*
X172791619Y-96085866D02*
X172791619Y-95847771D01*
X172791619Y-95847771D02*
X172839238Y-95657295D01*
X172839238Y-95657295D02*
X172886857Y-95562057D01*
X172886857Y-95562057D02*
X172934476Y-95514438D01*
X172934476Y-95514438D02*
X173029714Y-95466819D01*
X173791619Y-96371580D02*
X173839238Y-96419200D01*
X173839238Y-96419200D02*
X173791619Y-96466819D01*
X173791619Y-96466819D02*
X173744000Y-96419200D01*
X173744000Y-96419200D02*
X173791619Y-96371580D01*
X173791619Y-96371580D02*
X173791619Y-96466819D01*
X174791618Y-96466819D02*
X174220190Y-96466819D01*
X174505904Y-96466819D02*
X174505904Y-95466819D01*
X174505904Y-95466819D02*
X174410666Y-95609676D01*
X174410666Y-95609676D02*
X174315428Y-95704914D01*
X174315428Y-95704914D02*
X174220190Y-95752533D01*
X175648761Y-95800152D02*
X175648761Y-96466819D01*
X175220190Y-95800152D02*
X175220190Y-96323961D01*
X175220190Y-96323961D02*
X175267809Y-96419200D01*
X175267809Y-96419200D02*
X175363047Y-96466819D01*
X175363047Y-96466819D02*
X175505904Y-96466819D01*
X175505904Y-96466819D02*
X175601142Y-96419200D01*
X175601142Y-96419200D02*
X175648761Y-96371580D01*
X175768095Y-103376819D02*
X175768095Y-104186342D01*
X175768095Y-104186342D02*
X175815714Y-104281580D01*
X175815714Y-104281580D02*
X175863333Y-104329200D01*
X175863333Y-104329200D02*
X175958571Y-104376819D01*
X175958571Y-104376819D02*
X176149047Y-104376819D01*
X176149047Y-104376819D02*
X176244285Y-104329200D01*
X176244285Y-104329200D02*
X176291904Y-104281580D01*
X176291904Y-104281580D02*
X176339523Y-104186342D01*
X176339523Y-104186342D02*
X176339523Y-103376819D01*
X176768095Y-103472057D02*
X176815714Y-103424438D01*
X176815714Y-103424438D02*
X176910952Y-103376819D01*
X176910952Y-103376819D02*
X177149047Y-103376819D01*
X177149047Y-103376819D02*
X177244285Y-103424438D01*
X177244285Y-103424438D02*
X177291904Y-103472057D01*
X177291904Y-103472057D02*
X177339523Y-103567295D01*
X177339523Y-103567295D02*
X177339523Y-103662533D01*
X177339523Y-103662533D02*
X177291904Y-103805390D01*
X177291904Y-103805390D02*
X176720476Y-104376819D01*
X176720476Y-104376819D02*
X177339523Y-104376819D01*
D14*
%TO.C,J2*%
X193583438Y-130180105D02*
X193583438Y-138220105D01*
X182843438Y-130180105D02*
X193583438Y-130180105D01*
X192775438Y-133800105D02*
X193583438Y-133800105D01*
X187843438Y-133800105D02*
X189151438Y-133800105D01*
X182843438Y-133800105D02*
X184083438Y-133800105D01*
X192775438Y-134800105D02*
X193583438Y-134800105D01*
X187843438Y-134800105D02*
X189151438Y-134800105D01*
X182843438Y-134800105D02*
X184083438Y-134800105D01*
X191506438Y-136100105D02*
X193583438Y-136100105D01*
X187843438Y-136100105D02*
X190420438Y-136100105D01*
X182843438Y-136100105D02*
X184083438Y-136100105D01*
X193583438Y-138220105D02*
X186263438Y-138220105D01*
X185663438Y-138220105D02*
X182843438Y-138220105D01*
X182843438Y-138220105D02*
X182843438Y-130180105D01*
X186403438Y-138830105D02*
X185523438Y-138830105D01*
X185963438Y-138220105D01*
X186403438Y-138830105D01*
G36*
X186403438Y-138830105D02*
G01*
X185523438Y-138830105D01*
X185963438Y-138220105D01*
X186403438Y-138830105D01*
G37*
%TO.C,J3*%
X175458455Y-86952857D02*
X180648455Y-86952857D01*
X180648455Y-89712857D02*
X180648455Y-86952857D01*
X175458455Y-89712857D02*
X175458455Y-86952857D01*
X175458455Y-89712857D02*
X180648455Y-89712857D01*
X174188455Y-89712857D02*
X172808455Y-89712857D01*
X172808455Y-89712857D02*
X172808455Y-88332857D01*
%TO.C,J4*%
X195975673Y-132947825D02*
X197355673Y-132947825D01*
X195975673Y-134327825D02*
X195975673Y-132947825D01*
X198735673Y-135597825D02*
X198735673Y-138247825D01*
X195975673Y-135597825D02*
X198735673Y-135597825D01*
X195975673Y-135597825D02*
X195975673Y-138247825D01*
X195975673Y-138247825D02*
X198735673Y-138247825D01*
%TO.C,J5*%
X193583438Y-86959756D02*
X193583438Y-94999756D01*
X182843438Y-86959756D02*
X193583438Y-86959756D01*
X192775438Y-90579756D02*
X193583438Y-90579756D01*
X187843438Y-90579756D02*
X189151438Y-90579756D01*
X182843438Y-90579756D02*
X184083438Y-90579756D01*
X192775438Y-91579756D02*
X193583438Y-91579756D01*
X187843438Y-91579756D02*
X189151438Y-91579756D01*
X182843438Y-91579756D02*
X184083438Y-91579756D01*
X191506438Y-92879756D02*
X193583438Y-92879756D01*
X187843438Y-92879756D02*
X190420438Y-92879756D01*
X182843438Y-92879756D02*
X184083438Y-92879756D01*
X193583438Y-94999756D02*
X186263438Y-94999756D01*
X185663438Y-94999756D02*
X182843438Y-94999756D01*
X182843438Y-94999756D02*
X182843438Y-86959756D01*
X186403438Y-95609756D02*
X185523438Y-95609756D01*
X185963438Y-94999756D01*
X186403438Y-95609756D01*
G36*
X186403438Y-95609756D02*
G01*
X185523438Y-95609756D01*
X185963438Y-94999756D01*
X186403438Y-95609756D01*
G37*
%TO.C,J6*%
X195975673Y-87002001D02*
X197355673Y-87002001D01*
X195975673Y-88382001D02*
X195975673Y-87002001D01*
X198735673Y-89652001D02*
X198735673Y-92302001D01*
X195975673Y-89652001D02*
X198735673Y-89652001D01*
X195975673Y-89652001D02*
X195975673Y-92302001D01*
X195975673Y-92302001D02*
X198735673Y-92302001D01*
%TO.C,J7*%
X175458455Y-135479153D02*
X180648455Y-135479153D01*
X180648455Y-138239153D02*
X180648455Y-135479153D01*
X175458455Y-138239153D02*
X175458455Y-135479153D01*
X175458455Y-138239153D02*
X180648455Y-138239153D01*
X174188455Y-138239153D02*
X172808455Y-138239153D01*
X172808455Y-138239153D02*
X172808455Y-136859153D01*
%TO.C,U1*%
X181640000Y-119168000D02*
X181640000Y-123788000D01*
X178380000Y-119168000D02*
X178380000Y-120548000D01*
X174680000Y-119168000D02*
X174680000Y-120548000D01*
X171420000Y-119168000D02*
X181640000Y-119168000D01*
X171420000Y-120548000D02*
X181640000Y-120548000D01*
X181640000Y-123788000D02*
X171420000Y-123788000D01*
X171420000Y-123788000D02*
X171420000Y-119168000D01*
%TO.C,R3*%
X192354000Y-125222000D02*
X191404000Y-125222000D01*
X186614000Y-125222000D02*
X187564000Y-125222000D01*
X191404000Y-126142000D02*
X187564000Y-126142000D01*
X187564000Y-124302000D01*
X191404000Y-124302000D01*
X191404000Y-126142000D01*
%TO.C,C2*%
X175785000Y-128112000D02*
X177315000Y-128112000D01*
X177315000Y-129952000D02*
X175785000Y-129952000D01*
%TO.C,R2*%
X192328000Y-121818000D02*
X191378000Y-121818000D01*
X186588000Y-121818000D02*
X187538000Y-121818000D01*
X187538000Y-120898000D02*
X191378000Y-120898000D01*
X191378000Y-122738000D01*
X187538000Y-122738000D01*
X187538000Y-120898000D01*
%TO.C,J1*%
X182834000Y-106198000D02*
X183884000Y-106198000D01*
X183684000Y-106398000D02*
X183684000Y-108998000D01*
X168984000Y-106398000D02*
X183684000Y-106398000D01*
X183884000Y-107248000D02*
X183884000Y-106198000D01*
X183684000Y-112898000D02*
X183684000Y-115598000D01*
X183684000Y-115598000D02*
X181784000Y-115598000D01*
X177784000Y-115598000D02*
X168984000Y-115598000D01*
X168984000Y-115598000D02*
X168984000Y-106398000D01*
%TO.C,R1*%
X192306612Y-106562214D02*
X191356612Y-106562214D01*
X186566612Y-106562214D02*
X187516612Y-106562214D01*
X191356612Y-107482214D02*
X187516612Y-107482214D01*
X187516612Y-105642214D01*
X191356612Y-105642214D01*
X191356612Y-107482214D01*
D10*
%TO.C,S1*%
X194100000Y-98230000D02*
X193600000Y-98230000D01*
X194100000Y-98230000D02*
X194100000Y-98730000D01*
X182200000Y-98230000D02*
X182700000Y-98230000D01*
X182200000Y-98230000D02*
X182200000Y-98730000D01*
X194100000Y-102430000D02*
X194100000Y-101930000D01*
X194100000Y-102430000D02*
X193600000Y-102430000D01*
X182200000Y-102430000D02*
X182200000Y-101930000D01*
X182200000Y-102430000D02*
X182700000Y-102430000D01*
D14*
%TO.C,C1*%
X178071000Y-93314000D02*
X179601000Y-93314000D01*
X179601000Y-95154000D02*
X178071000Y-95154000D01*
%TO.C,D1*%
X189463000Y-116098000D02*
X192553000Y-116098000D01*
X191008000Y-110548000D02*
G75*
G02*
X192552830Y-116098000I0J-2990000D01*
G01*
X189463170Y-116098000D02*
G75*
G02*
X191008000Y-110548000I1544830J2560000D01*
G01*
X193508000Y-113538000D02*
G75*
G02*
X188508000Y-113538000I-2500000J0D01*
G01*
X188508000Y-113538000D02*
G75*
G02*
X193508000Y-113538000I2500000J0D01*
G01*
%TO.C,C3*%
X173245000Y-93314000D02*
X174775000Y-93314000D01*
X174775000Y-95154000D02*
X173245000Y-95154000D01*
%TO.C,U2*%
X181640000Y-98462000D02*
X181640000Y-103082000D01*
X171420000Y-98462000D02*
X181640000Y-98462000D01*
X181640000Y-101702000D02*
X171420000Y-101702000D01*
X181640000Y-103082000D02*
X171420000Y-103082000D01*
X178380000Y-103082000D02*
X178380000Y-101702000D01*
X174680000Y-103082000D02*
X174680000Y-101702000D01*
X171420000Y-103082000D02*
X171420000Y-98462000D01*
%TD*%
M02*
