%TF.GenerationSoftware,KiCad,Pcbnew,9.0.5*%
%TF.CreationDate,2025-11-01T14:33:04+06:00*%
%TF.ProjectId,power_supply_breadboard,706f7765-725f-4737-9570-706c795f6272,1*%
%TF.SameCoordinates,Original*%
%TF.FileFunction,Plated,1,2,PTH,Mixed*%
%TF.FilePolarity,Positive*%
%FSLAX46Y46*%
G04 Gerber Fmt 4.6, Leading zero omitted, Abs format (unit mm)*
G04 Created by KiCad (PCBNEW 9.0.5) date 2025-11-01 14:33:04*
%MOMM*%
%LPD*%
G01*
G04 APERTURE LIST*
%TA.AperFunction,ViaDrill*%
%ADD10C,0.300000*%
%TD*%
%TA.AperFunction,ComponentDrill*%
%ADD11C,0.700000*%
%TD*%
%TA.AperFunction,ComponentDrill*%
%ADD12C,0.800000*%
%TD*%
%TA.AperFunction,ComponentDrill*%
%ADD13C,0.900000*%
%TD*%
%TA.AperFunction,ComponentDrill*%
%ADD14C,1.000000*%
%TD*%
G04 aperture for slot hole*
%TA.AperFunction,ComponentDrill*%
%ADD15C,1.000000*%
%TD*%
%TA.AperFunction,ComponentDrill*%
%ADD16C,1.100000*%
%TD*%
%TA.AperFunction,ComponentDrill*%
%ADD17C,1.300000*%
%TD*%
G04 APERTURE END LIST*
D10*
X183134000Y-125476000D03*
D11*
%TO.C,R1*%
X185626612Y-106562214D03*
%TO.C,R2*%
X185648000Y-121818000D03*
%TO.C,R3*%
X185674000Y-125222000D03*
%TO.C,R1*%
X193246612Y-106562214D03*
%TO.C,R2*%
X193268000Y-121818000D03*
%TO.C,R3*%
X193294000Y-125222000D03*
D12*
%TO.C,C3*%
X172760000Y-94234000D03*
X175260000Y-94234000D03*
%TO.C,C2*%
X175300000Y-129032000D03*
%TO.C,C1*%
X177586000Y-94234000D03*
%TO.C,C2*%
X177800000Y-129032000D03*
%TO.C,C1*%
X180086000Y-94234000D03*
D13*
%TO.C,S1*%
X185500000Y-100330000D03*
X188000000Y-100330000D03*
X190500000Y-100330000D03*
%TO.C,D1*%
X191008000Y-112268000D03*
X191008000Y-114808000D03*
D14*
%TO.C,J3*%
X174188455Y-88332857D03*
%TO.C,J7*%
X174188455Y-136859153D03*
%TO.C,J3*%
X176728455Y-88332857D03*
%TO.C,J7*%
X176728455Y-136859153D03*
D15*
%TO.C,J1*%
X176784000Y-111998000D02*
X176784000Y-109998000D01*
D14*
%TO.C,J3*%
X179268455Y-88332857D03*
%TO.C,J7*%
X179268455Y-136859153D03*
D15*
%TO.C,J1*%
X180784000Y-115698000D02*
X178784000Y-115698000D01*
X182784000Y-111998000D02*
X182784000Y-109998000D01*
D14*
%TO.C,J6*%
X197355673Y-88382001D03*
X197355673Y-90922001D03*
%TO.C,J4*%
X197355673Y-134327825D03*
X197355673Y-136867825D03*
D16*
%TO.C,U2*%
X173990000Y-99822000D03*
%TO.C,U1*%
X173990000Y-122428000D03*
%TO.C,U2*%
X176530000Y-99822000D03*
%TO.C,U1*%
X176530000Y-122428000D03*
%TO.C,U2*%
X179070000Y-99822000D03*
%TO.C,U1*%
X179070000Y-122428000D03*
D17*
%TO.C,J5*%
X185963438Y-91079756D03*
%TO.C,J2*%
X185963438Y-134300105D03*
%TO.C,J5*%
X190963438Y-91079756D03*
%TO.C,J2*%
X190963438Y-134300105D03*
M02*
