%TF.GenerationSoftware,KiCad,Pcbnew,9.0.5*%
%TF.CreationDate,2025-11-01T14:32:35+06:00*%
%TF.ProjectId,power_supply_breadboard,706f7765-725f-4737-9570-706c795f6272,1*%
%TF.SameCoordinates,Original*%
%TF.FileFunction,Legend,Bot*%
%TF.FilePolarity,Positive*%
%FSLAX46Y46*%
G04 Gerber Fmt 4.6, Leading zero omitted, Abs format (unit mm)*
G04 Created by KiCad (PCBNEW 9.0.5) date 2025-11-01 14:32:35*
%MOMM*%
%LPD*%
G01*
G04 APERTURE LIST*
%ADD10C,0.100000*%
%ADD11C,0.150000*%
%ADD12C,0.300000*%
%ADD13C,0.400000*%
%ADD14C,0.200000*%
%ADD15C,0.000000*%
%ADD16C,0.010000*%
G04 APERTURE END LIST*
D10*
D11*
X177002200Y-166007200D02*
X285002200Y-166007200D01*
X285002200Y-198007200D01*
X177002200Y-198007200D01*
X177002200Y-166007200D01*
D10*
D11*
X10000000Y-10000000D02*
X287002200Y-10000000D01*
X287002200Y-200007200D01*
X10000000Y-200007200D01*
X10000000Y-10000000D01*
D10*
D11*
X12000000Y-12000000D02*
X285002200Y-12000000D01*
X285002200Y-198007200D01*
X12000000Y-198007200D01*
X12000000Y-12000000D01*
D10*
D11*
X60000000Y-12000000D02*
X60000000Y-10000000D01*
D10*
D11*
X110000000Y-12000000D02*
X110000000Y-10000000D01*
D10*
D11*
X160000000Y-12000000D02*
X160000000Y-10000000D01*
D10*
D11*
X210000000Y-12000000D02*
X210000000Y-10000000D01*
D10*
D11*
X260000000Y-12000000D02*
X260000000Y-10000000D01*
D10*
D11*
X36089160Y-11593604D02*
X35346303Y-11593604D01*
X35717731Y-11593604D02*
X35717731Y-10293604D01*
X35717731Y-10293604D02*
X35593922Y-10479319D01*
X35593922Y-10479319D02*
X35470112Y-10603128D01*
X35470112Y-10603128D02*
X35346303Y-10665033D01*
D10*
D11*
X85346303Y-10417414D02*
X85408207Y-10355509D01*
X85408207Y-10355509D02*
X85532017Y-10293604D01*
X85532017Y-10293604D02*
X85841541Y-10293604D01*
X85841541Y-10293604D02*
X85965350Y-10355509D01*
X85965350Y-10355509D02*
X86027255Y-10417414D01*
X86027255Y-10417414D02*
X86089160Y-10541223D01*
X86089160Y-10541223D02*
X86089160Y-10665033D01*
X86089160Y-10665033D02*
X86027255Y-10850747D01*
X86027255Y-10850747D02*
X85284398Y-11593604D01*
X85284398Y-11593604D02*
X86089160Y-11593604D01*
D10*
D11*
X135284398Y-10293604D02*
X136089160Y-10293604D01*
X136089160Y-10293604D02*
X135655826Y-10788842D01*
X135655826Y-10788842D02*
X135841541Y-10788842D01*
X135841541Y-10788842D02*
X135965350Y-10850747D01*
X135965350Y-10850747D02*
X136027255Y-10912652D01*
X136027255Y-10912652D02*
X136089160Y-11036461D01*
X136089160Y-11036461D02*
X136089160Y-11345985D01*
X136089160Y-11345985D02*
X136027255Y-11469795D01*
X136027255Y-11469795D02*
X135965350Y-11531700D01*
X135965350Y-11531700D02*
X135841541Y-11593604D01*
X135841541Y-11593604D02*
X135470112Y-11593604D01*
X135470112Y-11593604D02*
X135346303Y-11531700D01*
X135346303Y-11531700D02*
X135284398Y-11469795D01*
D10*
D11*
X185965350Y-10726938D02*
X185965350Y-11593604D01*
X185655826Y-10231700D02*
X185346303Y-11160271D01*
X185346303Y-11160271D02*
X186151064Y-11160271D01*
D10*
D11*
X236027255Y-10293604D02*
X235408207Y-10293604D01*
X235408207Y-10293604D02*
X235346303Y-10912652D01*
X235346303Y-10912652D02*
X235408207Y-10850747D01*
X235408207Y-10850747D02*
X235532017Y-10788842D01*
X235532017Y-10788842D02*
X235841541Y-10788842D01*
X235841541Y-10788842D02*
X235965350Y-10850747D01*
X235965350Y-10850747D02*
X236027255Y-10912652D01*
X236027255Y-10912652D02*
X236089160Y-11036461D01*
X236089160Y-11036461D02*
X236089160Y-11345985D01*
X236089160Y-11345985D02*
X236027255Y-11469795D01*
X236027255Y-11469795D02*
X235965350Y-11531700D01*
X235965350Y-11531700D02*
X235841541Y-11593604D01*
X235841541Y-11593604D02*
X235532017Y-11593604D01*
X235532017Y-11593604D02*
X235408207Y-11531700D01*
X235408207Y-11531700D02*
X235346303Y-11469795D01*
D10*
D11*
X285965350Y-10293604D02*
X285717731Y-10293604D01*
X285717731Y-10293604D02*
X285593922Y-10355509D01*
X285593922Y-10355509D02*
X285532017Y-10417414D01*
X285532017Y-10417414D02*
X285408207Y-10603128D01*
X285408207Y-10603128D02*
X285346303Y-10850747D01*
X285346303Y-10850747D02*
X285346303Y-11345985D01*
X285346303Y-11345985D02*
X285408207Y-11469795D01*
X285408207Y-11469795D02*
X285470112Y-11531700D01*
X285470112Y-11531700D02*
X285593922Y-11593604D01*
X285593922Y-11593604D02*
X285841541Y-11593604D01*
X285841541Y-11593604D02*
X285965350Y-11531700D01*
X285965350Y-11531700D02*
X286027255Y-11469795D01*
X286027255Y-11469795D02*
X286089160Y-11345985D01*
X286089160Y-11345985D02*
X286089160Y-11036461D01*
X286089160Y-11036461D02*
X286027255Y-10912652D01*
X286027255Y-10912652D02*
X285965350Y-10850747D01*
X285965350Y-10850747D02*
X285841541Y-10788842D01*
X285841541Y-10788842D02*
X285593922Y-10788842D01*
X285593922Y-10788842D02*
X285470112Y-10850747D01*
X285470112Y-10850747D02*
X285408207Y-10912652D01*
X285408207Y-10912652D02*
X285346303Y-11036461D01*
D10*
D11*
X60000000Y-198007200D02*
X60000000Y-200007200D01*
D10*
D11*
X110000000Y-198007200D02*
X110000000Y-200007200D01*
D10*
D11*
X160000000Y-198007200D02*
X160000000Y-200007200D01*
D10*
D11*
X210000000Y-198007200D02*
X210000000Y-200007200D01*
D10*
D11*
X260000000Y-198007200D02*
X260000000Y-200007200D01*
D10*
D11*
X36089160Y-199600804D02*
X35346303Y-199600804D01*
X35717731Y-199600804D02*
X35717731Y-198300804D01*
X35717731Y-198300804D02*
X35593922Y-198486519D01*
X35593922Y-198486519D02*
X35470112Y-198610328D01*
X35470112Y-198610328D02*
X35346303Y-198672233D01*
D10*
D11*
X85346303Y-198424614D02*
X85408207Y-198362709D01*
X85408207Y-198362709D02*
X85532017Y-198300804D01*
X85532017Y-198300804D02*
X85841541Y-198300804D01*
X85841541Y-198300804D02*
X85965350Y-198362709D01*
X85965350Y-198362709D02*
X86027255Y-198424614D01*
X86027255Y-198424614D02*
X86089160Y-198548423D01*
X86089160Y-198548423D02*
X86089160Y-198672233D01*
X86089160Y-198672233D02*
X86027255Y-198857947D01*
X86027255Y-198857947D02*
X85284398Y-199600804D01*
X85284398Y-199600804D02*
X86089160Y-199600804D01*
D10*
D11*
X135284398Y-198300804D02*
X136089160Y-198300804D01*
X136089160Y-198300804D02*
X135655826Y-198796042D01*
X135655826Y-198796042D02*
X135841541Y-198796042D01*
X135841541Y-198796042D02*
X135965350Y-198857947D01*
X135965350Y-198857947D02*
X136027255Y-198919852D01*
X136027255Y-198919852D02*
X136089160Y-199043661D01*
X136089160Y-199043661D02*
X136089160Y-199353185D01*
X136089160Y-199353185D02*
X136027255Y-199476995D01*
X136027255Y-199476995D02*
X135965350Y-199538900D01*
X135965350Y-199538900D02*
X135841541Y-199600804D01*
X135841541Y-199600804D02*
X135470112Y-199600804D01*
X135470112Y-199600804D02*
X135346303Y-199538900D01*
X135346303Y-199538900D02*
X135284398Y-199476995D01*
D10*
D11*
X185965350Y-198734138D02*
X185965350Y-199600804D01*
X185655826Y-198238900D02*
X185346303Y-199167471D01*
X185346303Y-199167471D02*
X186151064Y-199167471D01*
D10*
D11*
X236027255Y-198300804D02*
X235408207Y-198300804D01*
X235408207Y-198300804D02*
X235346303Y-198919852D01*
X235346303Y-198919852D02*
X235408207Y-198857947D01*
X235408207Y-198857947D02*
X235532017Y-198796042D01*
X235532017Y-198796042D02*
X235841541Y-198796042D01*
X235841541Y-198796042D02*
X235965350Y-198857947D01*
X235965350Y-198857947D02*
X236027255Y-198919852D01*
X236027255Y-198919852D02*
X236089160Y-199043661D01*
X236089160Y-199043661D02*
X236089160Y-199353185D01*
X236089160Y-199353185D02*
X236027255Y-199476995D01*
X236027255Y-199476995D02*
X235965350Y-199538900D01*
X235965350Y-199538900D02*
X235841541Y-199600804D01*
X235841541Y-199600804D02*
X235532017Y-199600804D01*
X235532017Y-199600804D02*
X235408207Y-199538900D01*
X235408207Y-199538900D02*
X235346303Y-199476995D01*
D10*
D11*
X285965350Y-198300804D02*
X285717731Y-198300804D01*
X285717731Y-198300804D02*
X285593922Y-198362709D01*
X285593922Y-198362709D02*
X285532017Y-198424614D01*
X285532017Y-198424614D02*
X285408207Y-198610328D01*
X285408207Y-198610328D02*
X285346303Y-198857947D01*
X285346303Y-198857947D02*
X285346303Y-199353185D01*
X285346303Y-199353185D02*
X285408207Y-199476995D01*
X285408207Y-199476995D02*
X285470112Y-199538900D01*
X285470112Y-199538900D02*
X285593922Y-199600804D01*
X285593922Y-199600804D02*
X285841541Y-199600804D01*
X285841541Y-199600804D02*
X285965350Y-199538900D01*
X285965350Y-199538900D02*
X286027255Y-199476995D01*
X286027255Y-199476995D02*
X286089160Y-199353185D01*
X286089160Y-199353185D02*
X286089160Y-199043661D01*
X286089160Y-199043661D02*
X286027255Y-198919852D01*
X286027255Y-198919852D02*
X285965350Y-198857947D01*
X285965350Y-198857947D02*
X285841541Y-198796042D01*
X285841541Y-198796042D02*
X285593922Y-198796042D01*
X285593922Y-198796042D02*
X285470112Y-198857947D01*
X285470112Y-198857947D02*
X285408207Y-198919852D01*
X285408207Y-198919852D02*
X285346303Y-199043661D01*
D10*
D11*
X10000000Y-60000000D02*
X12000000Y-60000000D01*
D10*
D11*
X10000000Y-110000000D02*
X12000000Y-110000000D01*
D10*
D11*
X10000000Y-160000000D02*
X12000000Y-160000000D01*
D10*
D11*
X10690476Y-35222176D02*
X11309523Y-35222176D01*
X10566666Y-35593604D02*
X10999999Y-34293604D01*
X10999999Y-34293604D02*
X11433333Y-35593604D01*
D10*
D11*
X11092857Y-84912652D02*
X11278571Y-84974557D01*
X11278571Y-84974557D02*
X11340476Y-85036461D01*
X11340476Y-85036461D02*
X11402380Y-85160271D01*
X11402380Y-85160271D02*
X11402380Y-85345985D01*
X11402380Y-85345985D02*
X11340476Y-85469795D01*
X11340476Y-85469795D02*
X11278571Y-85531700D01*
X11278571Y-85531700D02*
X11154761Y-85593604D01*
X11154761Y-85593604D02*
X10659523Y-85593604D01*
X10659523Y-85593604D02*
X10659523Y-84293604D01*
X10659523Y-84293604D02*
X11092857Y-84293604D01*
X11092857Y-84293604D02*
X11216666Y-84355509D01*
X11216666Y-84355509D02*
X11278571Y-84417414D01*
X11278571Y-84417414D02*
X11340476Y-84541223D01*
X11340476Y-84541223D02*
X11340476Y-84665033D01*
X11340476Y-84665033D02*
X11278571Y-84788842D01*
X11278571Y-84788842D02*
X11216666Y-84850747D01*
X11216666Y-84850747D02*
X11092857Y-84912652D01*
X11092857Y-84912652D02*
X10659523Y-84912652D01*
D10*
D11*
X11402380Y-135469795D02*
X11340476Y-135531700D01*
X11340476Y-135531700D02*
X11154761Y-135593604D01*
X11154761Y-135593604D02*
X11030952Y-135593604D01*
X11030952Y-135593604D02*
X10845238Y-135531700D01*
X10845238Y-135531700D02*
X10721428Y-135407890D01*
X10721428Y-135407890D02*
X10659523Y-135284080D01*
X10659523Y-135284080D02*
X10597619Y-135036461D01*
X10597619Y-135036461D02*
X10597619Y-134850747D01*
X10597619Y-134850747D02*
X10659523Y-134603128D01*
X10659523Y-134603128D02*
X10721428Y-134479319D01*
X10721428Y-134479319D02*
X10845238Y-134355509D01*
X10845238Y-134355509D02*
X11030952Y-134293604D01*
X11030952Y-134293604D02*
X11154761Y-134293604D01*
X11154761Y-134293604D02*
X11340476Y-134355509D01*
X11340476Y-134355509D02*
X11402380Y-134417414D01*
D10*
D11*
X10659523Y-185593604D02*
X10659523Y-184293604D01*
X10659523Y-184293604D02*
X10969047Y-184293604D01*
X10969047Y-184293604D02*
X11154761Y-184355509D01*
X11154761Y-184355509D02*
X11278571Y-184479319D01*
X11278571Y-184479319D02*
X11340476Y-184603128D01*
X11340476Y-184603128D02*
X11402380Y-184850747D01*
X11402380Y-184850747D02*
X11402380Y-185036461D01*
X11402380Y-185036461D02*
X11340476Y-185284080D01*
X11340476Y-185284080D02*
X11278571Y-185407890D01*
X11278571Y-185407890D02*
X11154761Y-185531700D01*
X11154761Y-185531700D02*
X10969047Y-185593604D01*
X10969047Y-185593604D02*
X10659523Y-185593604D01*
D10*
D11*
X287002200Y-60000000D02*
X285002200Y-60000000D01*
D10*
D11*
X287002200Y-110000000D02*
X285002200Y-110000000D01*
D10*
D11*
X287002200Y-160000000D02*
X285002200Y-160000000D01*
D10*
D11*
X285692676Y-35222176D02*
X286311723Y-35222176D01*
X285568866Y-35593604D02*
X286002199Y-34293604D01*
X286002199Y-34293604D02*
X286435533Y-35593604D01*
D10*
D11*
X286095057Y-84912652D02*
X286280771Y-84974557D01*
X286280771Y-84974557D02*
X286342676Y-85036461D01*
X286342676Y-85036461D02*
X286404580Y-85160271D01*
X286404580Y-85160271D02*
X286404580Y-85345985D01*
X286404580Y-85345985D02*
X286342676Y-85469795D01*
X286342676Y-85469795D02*
X286280771Y-85531700D01*
X286280771Y-85531700D02*
X286156961Y-85593604D01*
X286156961Y-85593604D02*
X285661723Y-85593604D01*
X285661723Y-85593604D02*
X285661723Y-84293604D01*
X285661723Y-84293604D02*
X286095057Y-84293604D01*
X286095057Y-84293604D02*
X286218866Y-84355509D01*
X286218866Y-84355509D02*
X286280771Y-84417414D01*
X286280771Y-84417414D02*
X286342676Y-84541223D01*
X286342676Y-84541223D02*
X286342676Y-84665033D01*
X286342676Y-84665033D02*
X286280771Y-84788842D01*
X286280771Y-84788842D02*
X286218866Y-84850747D01*
X286218866Y-84850747D02*
X286095057Y-84912652D01*
X286095057Y-84912652D02*
X285661723Y-84912652D01*
D10*
D11*
X286404580Y-135469795D02*
X286342676Y-135531700D01*
X286342676Y-135531700D02*
X286156961Y-135593604D01*
X286156961Y-135593604D02*
X286033152Y-135593604D01*
X286033152Y-135593604D02*
X285847438Y-135531700D01*
X285847438Y-135531700D02*
X285723628Y-135407890D01*
X285723628Y-135407890D02*
X285661723Y-135284080D01*
X285661723Y-135284080D02*
X285599819Y-135036461D01*
X285599819Y-135036461D02*
X285599819Y-134850747D01*
X285599819Y-134850747D02*
X285661723Y-134603128D01*
X285661723Y-134603128D02*
X285723628Y-134479319D01*
X285723628Y-134479319D02*
X285847438Y-134355509D01*
X285847438Y-134355509D02*
X286033152Y-134293604D01*
X286033152Y-134293604D02*
X286156961Y-134293604D01*
X286156961Y-134293604D02*
X286342676Y-134355509D01*
X286342676Y-134355509D02*
X286404580Y-134417414D01*
D10*
D11*
X285661723Y-185593604D02*
X285661723Y-184293604D01*
X285661723Y-184293604D02*
X285971247Y-184293604D01*
X285971247Y-184293604D02*
X286156961Y-184355509D01*
X286156961Y-184355509D02*
X286280771Y-184479319D01*
X286280771Y-184479319D02*
X286342676Y-184603128D01*
X286342676Y-184603128D02*
X286404580Y-184850747D01*
X286404580Y-184850747D02*
X286404580Y-185036461D01*
X286404580Y-185036461D02*
X286342676Y-185284080D01*
X286342676Y-185284080D02*
X286280771Y-185407890D01*
X286280771Y-185407890D02*
X286156961Y-185531700D01*
X286156961Y-185531700D02*
X285971247Y-185593604D01*
X285971247Y-185593604D02*
X285661723Y-185593604D01*
D10*
D11*
X200458026Y-193793328D02*
X200458026Y-192293328D01*
X200458026Y-192293328D02*
X200815169Y-192293328D01*
X200815169Y-192293328D02*
X201029455Y-192364757D01*
X201029455Y-192364757D02*
X201172312Y-192507614D01*
X201172312Y-192507614D02*
X201243741Y-192650471D01*
X201243741Y-192650471D02*
X201315169Y-192936185D01*
X201315169Y-192936185D02*
X201315169Y-193150471D01*
X201315169Y-193150471D02*
X201243741Y-193436185D01*
X201243741Y-193436185D02*
X201172312Y-193579042D01*
X201172312Y-193579042D02*
X201029455Y-193721900D01*
X201029455Y-193721900D02*
X200815169Y-193793328D01*
X200815169Y-193793328D02*
X200458026Y-193793328D01*
X202600884Y-193793328D02*
X202600884Y-193007614D01*
X202600884Y-193007614D02*
X202529455Y-192864757D01*
X202529455Y-192864757D02*
X202386598Y-192793328D01*
X202386598Y-192793328D02*
X202100884Y-192793328D01*
X202100884Y-192793328D02*
X201958026Y-192864757D01*
X202600884Y-193721900D02*
X202458026Y-193793328D01*
X202458026Y-193793328D02*
X202100884Y-193793328D01*
X202100884Y-193793328D02*
X201958026Y-193721900D01*
X201958026Y-193721900D02*
X201886598Y-193579042D01*
X201886598Y-193579042D02*
X201886598Y-193436185D01*
X201886598Y-193436185D02*
X201958026Y-193293328D01*
X201958026Y-193293328D02*
X202100884Y-193221900D01*
X202100884Y-193221900D02*
X202458026Y-193221900D01*
X202458026Y-193221900D02*
X202600884Y-193150471D01*
X203100884Y-192793328D02*
X203672312Y-192793328D01*
X203315169Y-192293328D02*
X203315169Y-193579042D01*
X203315169Y-193579042D02*
X203386598Y-193721900D01*
X203386598Y-193721900D02*
X203529455Y-193793328D01*
X203529455Y-193793328D02*
X203672312Y-193793328D01*
X204743741Y-193721900D02*
X204600884Y-193793328D01*
X204600884Y-193793328D02*
X204315170Y-193793328D01*
X204315170Y-193793328D02*
X204172312Y-193721900D01*
X204172312Y-193721900D02*
X204100884Y-193579042D01*
X204100884Y-193579042D02*
X204100884Y-193007614D01*
X204100884Y-193007614D02*
X204172312Y-192864757D01*
X204172312Y-192864757D02*
X204315170Y-192793328D01*
X204315170Y-192793328D02*
X204600884Y-192793328D01*
X204600884Y-192793328D02*
X204743741Y-192864757D01*
X204743741Y-192864757D02*
X204815170Y-193007614D01*
X204815170Y-193007614D02*
X204815170Y-193150471D01*
X204815170Y-193150471D02*
X204100884Y-193293328D01*
X205458026Y-193650471D02*
X205529455Y-193721900D01*
X205529455Y-193721900D02*
X205458026Y-193793328D01*
X205458026Y-193793328D02*
X205386598Y-193721900D01*
X205386598Y-193721900D02*
X205458026Y-193650471D01*
X205458026Y-193650471D02*
X205458026Y-193793328D01*
X205458026Y-192864757D02*
X205529455Y-192936185D01*
X205529455Y-192936185D02*
X205458026Y-193007614D01*
X205458026Y-193007614D02*
X205386598Y-192936185D01*
X205386598Y-192936185D02*
X205458026Y-192864757D01*
X205458026Y-192864757D02*
X205458026Y-193007614D01*
X207243741Y-192436185D02*
X207315169Y-192364757D01*
X207315169Y-192364757D02*
X207458027Y-192293328D01*
X207458027Y-192293328D02*
X207815169Y-192293328D01*
X207815169Y-192293328D02*
X207958027Y-192364757D01*
X207958027Y-192364757D02*
X208029455Y-192436185D01*
X208029455Y-192436185D02*
X208100884Y-192579042D01*
X208100884Y-192579042D02*
X208100884Y-192721900D01*
X208100884Y-192721900D02*
X208029455Y-192936185D01*
X208029455Y-192936185D02*
X207172312Y-193793328D01*
X207172312Y-193793328D02*
X208100884Y-193793328D01*
X209029455Y-192293328D02*
X209172312Y-192293328D01*
X209172312Y-192293328D02*
X209315169Y-192364757D01*
X209315169Y-192364757D02*
X209386598Y-192436185D01*
X209386598Y-192436185D02*
X209458026Y-192579042D01*
X209458026Y-192579042D02*
X209529455Y-192864757D01*
X209529455Y-192864757D02*
X209529455Y-193221900D01*
X209529455Y-193221900D02*
X209458026Y-193507614D01*
X209458026Y-193507614D02*
X209386598Y-193650471D01*
X209386598Y-193650471D02*
X209315169Y-193721900D01*
X209315169Y-193721900D02*
X209172312Y-193793328D01*
X209172312Y-193793328D02*
X209029455Y-193793328D01*
X209029455Y-193793328D02*
X208886598Y-193721900D01*
X208886598Y-193721900D02*
X208815169Y-193650471D01*
X208815169Y-193650471D02*
X208743740Y-193507614D01*
X208743740Y-193507614D02*
X208672312Y-193221900D01*
X208672312Y-193221900D02*
X208672312Y-192864757D01*
X208672312Y-192864757D02*
X208743740Y-192579042D01*
X208743740Y-192579042D02*
X208815169Y-192436185D01*
X208815169Y-192436185D02*
X208886598Y-192364757D01*
X208886598Y-192364757D02*
X209029455Y-192293328D01*
X210100883Y-192436185D02*
X210172311Y-192364757D01*
X210172311Y-192364757D02*
X210315169Y-192293328D01*
X210315169Y-192293328D02*
X210672311Y-192293328D01*
X210672311Y-192293328D02*
X210815169Y-192364757D01*
X210815169Y-192364757D02*
X210886597Y-192436185D01*
X210886597Y-192436185D02*
X210958026Y-192579042D01*
X210958026Y-192579042D02*
X210958026Y-192721900D01*
X210958026Y-192721900D02*
X210886597Y-192936185D01*
X210886597Y-192936185D02*
X210029454Y-193793328D01*
X210029454Y-193793328D02*
X210958026Y-193793328D01*
X212315168Y-192293328D02*
X211600882Y-192293328D01*
X211600882Y-192293328D02*
X211529454Y-193007614D01*
X211529454Y-193007614D02*
X211600882Y-192936185D01*
X211600882Y-192936185D02*
X211743740Y-192864757D01*
X211743740Y-192864757D02*
X212100882Y-192864757D01*
X212100882Y-192864757D02*
X212243740Y-192936185D01*
X212243740Y-192936185D02*
X212315168Y-193007614D01*
X212315168Y-193007614D02*
X212386597Y-193150471D01*
X212386597Y-193150471D02*
X212386597Y-193507614D01*
X212386597Y-193507614D02*
X212315168Y-193650471D01*
X212315168Y-193650471D02*
X212243740Y-193721900D01*
X212243740Y-193721900D02*
X212100882Y-193793328D01*
X212100882Y-193793328D02*
X211743740Y-193793328D01*
X211743740Y-193793328D02*
X211600882Y-193721900D01*
X211600882Y-193721900D02*
X211529454Y-193650471D01*
X213029453Y-193221900D02*
X214172311Y-193221900D01*
X215672311Y-193793328D02*
X214815168Y-193793328D01*
X215243739Y-193793328D02*
X215243739Y-192293328D01*
X215243739Y-192293328D02*
X215100882Y-192507614D01*
X215100882Y-192507614D02*
X214958025Y-192650471D01*
X214958025Y-192650471D02*
X214815168Y-192721900D01*
X216600882Y-192293328D02*
X216743739Y-192293328D01*
X216743739Y-192293328D02*
X216886596Y-192364757D01*
X216886596Y-192364757D02*
X216958025Y-192436185D01*
X216958025Y-192436185D02*
X217029453Y-192579042D01*
X217029453Y-192579042D02*
X217100882Y-192864757D01*
X217100882Y-192864757D02*
X217100882Y-193221900D01*
X217100882Y-193221900D02*
X217029453Y-193507614D01*
X217029453Y-193507614D02*
X216958025Y-193650471D01*
X216958025Y-193650471D02*
X216886596Y-193721900D01*
X216886596Y-193721900D02*
X216743739Y-193793328D01*
X216743739Y-193793328D02*
X216600882Y-193793328D01*
X216600882Y-193793328D02*
X216458025Y-193721900D01*
X216458025Y-193721900D02*
X216386596Y-193650471D01*
X216386596Y-193650471D02*
X216315167Y-193507614D01*
X216315167Y-193507614D02*
X216243739Y-193221900D01*
X216243739Y-193221900D02*
X216243739Y-192864757D01*
X216243739Y-192864757D02*
X216315167Y-192579042D01*
X216315167Y-192579042D02*
X216386596Y-192436185D01*
X216386596Y-192436185D02*
X216458025Y-192364757D01*
X216458025Y-192364757D02*
X216600882Y-192293328D01*
X217743738Y-193221900D02*
X218886596Y-193221900D01*
X219458024Y-192293328D02*
X220386596Y-192293328D01*
X220386596Y-192293328D02*
X219886596Y-192864757D01*
X219886596Y-192864757D02*
X220100881Y-192864757D01*
X220100881Y-192864757D02*
X220243739Y-192936185D01*
X220243739Y-192936185D02*
X220315167Y-193007614D01*
X220315167Y-193007614D02*
X220386596Y-193150471D01*
X220386596Y-193150471D02*
X220386596Y-193507614D01*
X220386596Y-193507614D02*
X220315167Y-193650471D01*
X220315167Y-193650471D02*
X220243739Y-193721900D01*
X220243739Y-193721900D02*
X220100881Y-193793328D01*
X220100881Y-193793328D02*
X219672310Y-193793328D01*
X219672310Y-193793328D02*
X219529453Y-193721900D01*
X219529453Y-193721900D02*
X219458024Y-193650471D01*
X221815167Y-193793328D02*
X220958024Y-193793328D01*
X221386595Y-193793328D02*
X221386595Y-192293328D01*
X221386595Y-192293328D02*
X221243738Y-192507614D01*
X221243738Y-192507614D02*
X221100881Y-192650471D01*
X221100881Y-192650471D02*
X220958024Y-192721900D01*
D10*
D11*
X177002200Y-194507200D02*
X285002200Y-194507200D01*
D10*
D11*
X178458026Y-196593328D02*
X178458026Y-195093328D01*
X179315169Y-196593328D02*
X178672312Y-195736185D01*
X179315169Y-195093328D02*
X178458026Y-195950471D01*
X179958026Y-196593328D02*
X179958026Y-195593328D01*
X179958026Y-195093328D02*
X179886598Y-195164757D01*
X179886598Y-195164757D02*
X179958026Y-195236185D01*
X179958026Y-195236185D02*
X180029455Y-195164757D01*
X180029455Y-195164757D02*
X179958026Y-195093328D01*
X179958026Y-195093328D02*
X179958026Y-195236185D01*
X181529455Y-196450471D02*
X181458027Y-196521900D01*
X181458027Y-196521900D02*
X181243741Y-196593328D01*
X181243741Y-196593328D02*
X181100884Y-196593328D01*
X181100884Y-196593328D02*
X180886598Y-196521900D01*
X180886598Y-196521900D02*
X180743741Y-196379042D01*
X180743741Y-196379042D02*
X180672312Y-196236185D01*
X180672312Y-196236185D02*
X180600884Y-195950471D01*
X180600884Y-195950471D02*
X180600884Y-195736185D01*
X180600884Y-195736185D02*
X180672312Y-195450471D01*
X180672312Y-195450471D02*
X180743741Y-195307614D01*
X180743741Y-195307614D02*
X180886598Y-195164757D01*
X180886598Y-195164757D02*
X181100884Y-195093328D01*
X181100884Y-195093328D02*
X181243741Y-195093328D01*
X181243741Y-195093328D02*
X181458027Y-195164757D01*
X181458027Y-195164757D02*
X181529455Y-195236185D01*
X182815170Y-196593328D02*
X182815170Y-195807614D01*
X182815170Y-195807614D02*
X182743741Y-195664757D01*
X182743741Y-195664757D02*
X182600884Y-195593328D01*
X182600884Y-195593328D02*
X182315170Y-195593328D01*
X182315170Y-195593328D02*
X182172312Y-195664757D01*
X182815170Y-196521900D02*
X182672312Y-196593328D01*
X182672312Y-196593328D02*
X182315170Y-196593328D01*
X182315170Y-196593328D02*
X182172312Y-196521900D01*
X182172312Y-196521900D02*
X182100884Y-196379042D01*
X182100884Y-196379042D02*
X182100884Y-196236185D01*
X182100884Y-196236185D02*
X182172312Y-196093328D01*
X182172312Y-196093328D02*
X182315170Y-196021900D01*
X182315170Y-196021900D02*
X182672312Y-196021900D01*
X182672312Y-196021900D02*
X182815170Y-195950471D01*
X184172313Y-196593328D02*
X184172313Y-195093328D01*
X184172313Y-196521900D02*
X184029455Y-196593328D01*
X184029455Y-196593328D02*
X183743741Y-196593328D01*
X183743741Y-196593328D02*
X183600884Y-196521900D01*
X183600884Y-196521900D02*
X183529455Y-196450471D01*
X183529455Y-196450471D02*
X183458027Y-196307614D01*
X183458027Y-196307614D02*
X183458027Y-195879042D01*
X183458027Y-195879042D02*
X183529455Y-195736185D01*
X183529455Y-195736185D02*
X183600884Y-195664757D01*
X183600884Y-195664757D02*
X183743741Y-195593328D01*
X183743741Y-195593328D02*
X184029455Y-195593328D01*
X184029455Y-195593328D02*
X184172313Y-195664757D01*
X186029455Y-195807614D02*
X186529455Y-195807614D01*
X186743741Y-196593328D02*
X186029455Y-196593328D01*
X186029455Y-196593328D02*
X186029455Y-195093328D01*
X186029455Y-195093328D02*
X186743741Y-195093328D01*
X187386598Y-196450471D02*
X187458027Y-196521900D01*
X187458027Y-196521900D02*
X187386598Y-196593328D01*
X187386598Y-196593328D02*
X187315170Y-196521900D01*
X187315170Y-196521900D02*
X187386598Y-196450471D01*
X187386598Y-196450471D02*
X187386598Y-196593328D01*
X188100884Y-196593328D02*
X188100884Y-195093328D01*
X188100884Y-195093328D02*
X188458027Y-195093328D01*
X188458027Y-195093328D02*
X188672313Y-195164757D01*
X188672313Y-195164757D02*
X188815170Y-195307614D01*
X188815170Y-195307614D02*
X188886599Y-195450471D01*
X188886599Y-195450471D02*
X188958027Y-195736185D01*
X188958027Y-195736185D02*
X188958027Y-195950471D01*
X188958027Y-195950471D02*
X188886599Y-196236185D01*
X188886599Y-196236185D02*
X188815170Y-196379042D01*
X188815170Y-196379042D02*
X188672313Y-196521900D01*
X188672313Y-196521900D02*
X188458027Y-196593328D01*
X188458027Y-196593328D02*
X188100884Y-196593328D01*
X189600884Y-196450471D02*
X189672313Y-196521900D01*
X189672313Y-196521900D02*
X189600884Y-196593328D01*
X189600884Y-196593328D02*
X189529456Y-196521900D01*
X189529456Y-196521900D02*
X189600884Y-196450471D01*
X189600884Y-196450471D02*
X189600884Y-196593328D01*
X190243742Y-196164757D02*
X190958028Y-196164757D01*
X190100885Y-196593328D02*
X190600885Y-195093328D01*
X190600885Y-195093328D02*
X191100885Y-196593328D01*
X191600884Y-196450471D02*
X191672313Y-196521900D01*
X191672313Y-196521900D02*
X191600884Y-196593328D01*
X191600884Y-196593328D02*
X191529456Y-196521900D01*
X191529456Y-196521900D02*
X191600884Y-196450471D01*
X191600884Y-196450471D02*
X191600884Y-196593328D01*
X193529456Y-196593328D02*
X193815170Y-196593328D01*
X193815170Y-196593328D02*
X193958027Y-196521900D01*
X193958027Y-196521900D02*
X194029456Y-196450471D01*
X194029456Y-196450471D02*
X194172313Y-196236185D01*
X194172313Y-196236185D02*
X194243742Y-195950471D01*
X194243742Y-195950471D02*
X194243742Y-195379042D01*
X194243742Y-195379042D02*
X194172313Y-195236185D01*
X194172313Y-195236185D02*
X194100885Y-195164757D01*
X194100885Y-195164757D02*
X193958027Y-195093328D01*
X193958027Y-195093328D02*
X193672313Y-195093328D01*
X193672313Y-195093328D02*
X193529456Y-195164757D01*
X193529456Y-195164757D02*
X193458027Y-195236185D01*
X193458027Y-195236185D02*
X193386599Y-195379042D01*
X193386599Y-195379042D02*
X193386599Y-195736185D01*
X193386599Y-195736185D02*
X193458027Y-195879042D01*
X193458027Y-195879042D02*
X193529456Y-195950471D01*
X193529456Y-195950471D02*
X193672313Y-196021900D01*
X193672313Y-196021900D02*
X193958027Y-196021900D01*
X193958027Y-196021900D02*
X194100885Y-195950471D01*
X194100885Y-195950471D02*
X194172313Y-195879042D01*
X194172313Y-195879042D02*
X194243742Y-195736185D01*
X194886598Y-196450471D02*
X194958027Y-196521900D01*
X194958027Y-196521900D02*
X194886598Y-196593328D01*
X194886598Y-196593328D02*
X194815170Y-196521900D01*
X194815170Y-196521900D02*
X194886598Y-196450471D01*
X194886598Y-196450471D02*
X194886598Y-196593328D01*
X195886599Y-195093328D02*
X196029456Y-195093328D01*
X196029456Y-195093328D02*
X196172313Y-195164757D01*
X196172313Y-195164757D02*
X196243742Y-195236185D01*
X196243742Y-195236185D02*
X196315170Y-195379042D01*
X196315170Y-195379042D02*
X196386599Y-195664757D01*
X196386599Y-195664757D02*
X196386599Y-196021900D01*
X196386599Y-196021900D02*
X196315170Y-196307614D01*
X196315170Y-196307614D02*
X196243742Y-196450471D01*
X196243742Y-196450471D02*
X196172313Y-196521900D01*
X196172313Y-196521900D02*
X196029456Y-196593328D01*
X196029456Y-196593328D02*
X195886599Y-196593328D01*
X195886599Y-196593328D02*
X195743742Y-196521900D01*
X195743742Y-196521900D02*
X195672313Y-196450471D01*
X195672313Y-196450471D02*
X195600884Y-196307614D01*
X195600884Y-196307614D02*
X195529456Y-196021900D01*
X195529456Y-196021900D02*
X195529456Y-195664757D01*
X195529456Y-195664757D02*
X195600884Y-195379042D01*
X195600884Y-195379042D02*
X195672313Y-195236185D01*
X195672313Y-195236185D02*
X195743742Y-195164757D01*
X195743742Y-195164757D02*
X195886599Y-195093328D01*
X197029455Y-196450471D02*
X197100884Y-196521900D01*
X197100884Y-196521900D02*
X197029455Y-196593328D01*
X197029455Y-196593328D02*
X196958027Y-196521900D01*
X196958027Y-196521900D02*
X197029455Y-196450471D01*
X197029455Y-196450471D02*
X197029455Y-196593328D01*
X198458027Y-195093328D02*
X197743741Y-195093328D01*
X197743741Y-195093328D02*
X197672313Y-195807614D01*
X197672313Y-195807614D02*
X197743741Y-195736185D01*
X197743741Y-195736185D02*
X197886599Y-195664757D01*
X197886599Y-195664757D02*
X198243741Y-195664757D01*
X198243741Y-195664757D02*
X198386599Y-195736185D01*
X198386599Y-195736185D02*
X198458027Y-195807614D01*
X198458027Y-195807614D02*
X198529456Y-195950471D01*
X198529456Y-195950471D02*
X198529456Y-196307614D01*
X198529456Y-196307614D02*
X198458027Y-196450471D01*
X198458027Y-196450471D02*
X198386599Y-196521900D01*
X198386599Y-196521900D02*
X198243741Y-196593328D01*
X198243741Y-196593328D02*
X197886599Y-196593328D01*
X197886599Y-196593328D02*
X197743741Y-196521900D01*
X197743741Y-196521900D02*
X197672313Y-196450471D01*
D10*
D11*
X177002200Y-191507200D02*
X285002200Y-191507200D01*
D10*
D12*
X264413853Y-193785528D02*
X263913853Y-193071242D01*
X263556710Y-193785528D02*
X263556710Y-192285528D01*
X263556710Y-192285528D02*
X264128139Y-192285528D01*
X264128139Y-192285528D02*
X264270996Y-192356957D01*
X264270996Y-192356957D02*
X264342425Y-192428385D01*
X264342425Y-192428385D02*
X264413853Y-192571242D01*
X264413853Y-192571242D02*
X264413853Y-192785528D01*
X264413853Y-192785528D02*
X264342425Y-192928385D01*
X264342425Y-192928385D02*
X264270996Y-192999814D01*
X264270996Y-192999814D02*
X264128139Y-193071242D01*
X264128139Y-193071242D02*
X263556710Y-193071242D01*
X265628139Y-193714100D02*
X265485282Y-193785528D01*
X265485282Y-193785528D02*
X265199568Y-193785528D01*
X265199568Y-193785528D02*
X265056710Y-193714100D01*
X265056710Y-193714100D02*
X264985282Y-193571242D01*
X264985282Y-193571242D02*
X264985282Y-192999814D01*
X264985282Y-192999814D02*
X265056710Y-192856957D01*
X265056710Y-192856957D02*
X265199568Y-192785528D01*
X265199568Y-192785528D02*
X265485282Y-192785528D01*
X265485282Y-192785528D02*
X265628139Y-192856957D01*
X265628139Y-192856957D02*
X265699568Y-192999814D01*
X265699568Y-192999814D02*
X265699568Y-193142671D01*
X265699568Y-193142671D02*
X264985282Y-193285528D01*
X266199567Y-192785528D02*
X266556710Y-193785528D01*
X266556710Y-193785528D02*
X266913853Y-192785528D01*
X267485281Y-193642671D02*
X267556710Y-193714100D01*
X267556710Y-193714100D02*
X267485281Y-193785528D01*
X267485281Y-193785528D02*
X267413853Y-193714100D01*
X267413853Y-193714100D02*
X267485281Y-193642671D01*
X267485281Y-193642671D02*
X267485281Y-193785528D01*
X267485281Y-192856957D02*
X267556710Y-192928385D01*
X267556710Y-192928385D02*
X267485281Y-192999814D01*
X267485281Y-192999814D02*
X267413853Y-192928385D01*
X267413853Y-192928385D02*
X267485281Y-192856957D01*
X267485281Y-192856957D02*
X267485281Y-192999814D01*
X270128139Y-193785528D02*
X269270996Y-193785528D01*
X269699567Y-193785528D02*
X269699567Y-192285528D01*
X269699567Y-192285528D02*
X269556710Y-192499814D01*
X269556710Y-192499814D02*
X269413853Y-192642671D01*
X269413853Y-192642671D02*
X269270996Y-192714100D01*
D10*
D11*
X178386598Y-193721900D02*
X178600884Y-193793328D01*
X178600884Y-193793328D02*
X178958026Y-193793328D01*
X178958026Y-193793328D02*
X179100884Y-193721900D01*
X179100884Y-193721900D02*
X179172312Y-193650471D01*
X179172312Y-193650471D02*
X179243741Y-193507614D01*
X179243741Y-193507614D02*
X179243741Y-193364757D01*
X179243741Y-193364757D02*
X179172312Y-193221900D01*
X179172312Y-193221900D02*
X179100884Y-193150471D01*
X179100884Y-193150471D02*
X178958026Y-193079042D01*
X178958026Y-193079042D02*
X178672312Y-193007614D01*
X178672312Y-193007614D02*
X178529455Y-192936185D01*
X178529455Y-192936185D02*
X178458026Y-192864757D01*
X178458026Y-192864757D02*
X178386598Y-192721900D01*
X178386598Y-192721900D02*
X178386598Y-192579042D01*
X178386598Y-192579042D02*
X178458026Y-192436185D01*
X178458026Y-192436185D02*
X178529455Y-192364757D01*
X178529455Y-192364757D02*
X178672312Y-192293328D01*
X178672312Y-192293328D02*
X179029455Y-192293328D01*
X179029455Y-192293328D02*
X179243741Y-192364757D01*
X179886597Y-193793328D02*
X179886597Y-192793328D01*
X179886597Y-192293328D02*
X179815169Y-192364757D01*
X179815169Y-192364757D02*
X179886597Y-192436185D01*
X179886597Y-192436185D02*
X179958026Y-192364757D01*
X179958026Y-192364757D02*
X179886597Y-192293328D01*
X179886597Y-192293328D02*
X179886597Y-192436185D01*
X180458026Y-192793328D02*
X181243741Y-192793328D01*
X181243741Y-192793328D02*
X180458026Y-193793328D01*
X180458026Y-193793328D02*
X181243741Y-193793328D01*
X182386598Y-193721900D02*
X182243741Y-193793328D01*
X182243741Y-193793328D02*
X181958027Y-193793328D01*
X181958027Y-193793328D02*
X181815169Y-193721900D01*
X181815169Y-193721900D02*
X181743741Y-193579042D01*
X181743741Y-193579042D02*
X181743741Y-193007614D01*
X181743741Y-193007614D02*
X181815169Y-192864757D01*
X181815169Y-192864757D02*
X181958027Y-192793328D01*
X181958027Y-192793328D02*
X182243741Y-192793328D01*
X182243741Y-192793328D02*
X182386598Y-192864757D01*
X182386598Y-192864757D02*
X182458027Y-193007614D01*
X182458027Y-193007614D02*
X182458027Y-193150471D01*
X182458027Y-193150471D02*
X181743741Y-193293328D01*
X183100883Y-193650471D02*
X183172312Y-193721900D01*
X183172312Y-193721900D02*
X183100883Y-193793328D01*
X183100883Y-193793328D02*
X183029455Y-193721900D01*
X183029455Y-193721900D02*
X183100883Y-193650471D01*
X183100883Y-193650471D02*
X183100883Y-193793328D01*
X183100883Y-192864757D02*
X183172312Y-192936185D01*
X183172312Y-192936185D02*
X183100883Y-193007614D01*
X183100883Y-193007614D02*
X183029455Y-192936185D01*
X183029455Y-192936185D02*
X183100883Y-192864757D01*
X183100883Y-192864757D02*
X183100883Y-193007614D01*
X184886598Y-193364757D02*
X185600884Y-193364757D01*
X184743741Y-193793328D02*
X185243741Y-192293328D01*
X185243741Y-192293328D02*
X185743741Y-193793328D01*
X186886598Y-192793328D02*
X186886598Y-193793328D01*
X186529455Y-192221900D02*
X186172312Y-193293328D01*
X186172312Y-193293328D02*
X187100883Y-193293328D01*
D10*
D11*
X263458026Y-196593328D02*
X263458026Y-195093328D01*
X264815170Y-196593328D02*
X264815170Y-195093328D01*
X264815170Y-196521900D02*
X264672312Y-196593328D01*
X264672312Y-196593328D02*
X264386598Y-196593328D01*
X264386598Y-196593328D02*
X264243741Y-196521900D01*
X264243741Y-196521900D02*
X264172312Y-196450471D01*
X264172312Y-196450471D02*
X264100884Y-196307614D01*
X264100884Y-196307614D02*
X264100884Y-195879042D01*
X264100884Y-195879042D02*
X264172312Y-195736185D01*
X264172312Y-195736185D02*
X264243741Y-195664757D01*
X264243741Y-195664757D02*
X264386598Y-195593328D01*
X264386598Y-195593328D02*
X264672312Y-195593328D01*
X264672312Y-195593328D02*
X264815170Y-195664757D01*
X265529455Y-196450471D02*
X265600884Y-196521900D01*
X265600884Y-196521900D02*
X265529455Y-196593328D01*
X265529455Y-196593328D02*
X265458027Y-196521900D01*
X265458027Y-196521900D02*
X265529455Y-196450471D01*
X265529455Y-196450471D02*
X265529455Y-196593328D01*
X265529455Y-195664757D02*
X265600884Y-195736185D01*
X265600884Y-195736185D02*
X265529455Y-195807614D01*
X265529455Y-195807614D02*
X265458027Y-195736185D01*
X265458027Y-195736185D02*
X265529455Y-195664757D01*
X265529455Y-195664757D02*
X265529455Y-195807614D01*
X268029456Y-195093328D02*
X267743741Y-195093328D01*
X267743741Y-195093328D02*
X267600884Y-195164757D01*
X267600884Y-195164757D02*
X267529456Y-195236185D01*
X267529456Y-195236185D02*
X267386598Y-195450471D01*
X267386598Y-195450471D02*
X267315170Y-195736185D01*
X267315170Y-195736185D02*
X267315170Y-196307614D01*
X267315170Y-196307614D02*
X267386598Y-196450471D01*
X267386598Y-196450471D02*
X267458027Y-196521900D01*
X267458027Y-196521900D02*
X267600884Y-196593328D01*
X267600884Y-196593328D02*
X267886598Y-196593328D01*
X267886598Y-196593328D02*
X268029456Y-196521900D01*
X268029456Y-196521900D02*
X268100884Y-196450471D01*
X268100884Y-196450471D02*
X268172313Y-196307614D01*
X268172313Y-196307614D02*
X268172313Y-195950471D01*
X268172313Y-195950471D02*
X268100884Y-195807614D01*
X268100884Y-195807614D02*
X268029456Y-195736185D01*
X268029456Y-195736185D02*
X267886598Y-195664757D01*
X267886598Y-195664757D02*
X267600884Y-195664757D01*
X267600884Y-195664757D02*
X267458027Y-195736185D01*
X267458027Y-195736185D02*
X267386598Y-195807614D01*
X267386598Y-195807614D02*
X267315170Y-195950471D01*
X269886598Y-195021900D02*
X268600884Y-196950471D01*
X270458027Y-196593328D02*
X270743741Y-196593328D01*
X270743741Y-196593328D02*
X270886598Y-196521900D01*
X270886598Y-196521900D02*
X270958027Y-196450471D01*
X270958027Y-196450471D02*
X271100884Y-196236185D01*
X271100884Y-196236185D02*
X271172313Y-195950471D01*
X271172313Y-195950471D02*
X271172313Y-195379042D01*
X271172313Y-195379042D02*
X271100884Y-195236185D01*
X271100884Y-195236185D02*
X271029456Y-195164757D01*
X271029456Y-195164757D02*
X270886598Y-195093328D01*
X270886598Y-195093328D02*
X270600884Y-195093328D01*
X270600884Y-195093328D02*
X270458027Y-195164757D01*
X270458027Y-195164757D02*
X270386598Y-195236185D01*
X270386598Y-195236185D02*
X270315170Y-195379042D01*
X270315170Y-195379042D02*
X270315170Y-195736185D01*
X270315170Y-195736185D02*
X270386598Y-195879042D01*
X270386598Y-195879042D02*
X270458027Y-195950471D01*
X270458027Y-195950471D02*
X270600884Y-196021900D01*
X270600884Y-196021900D02*
X270886598Y-196021900D01*
X270886598Y-196021900D02*
X271029456Y-195950471D01*
X271029456Y-195950471D02*
X271100884Y-195879042D01*
X271100884Y-195879042D02*
X271172313Y-195736185D01*
D10*
D11*
X177002200Y-187507200D02*
X285002200Y-187507200D01*
D10*
D13*
X178693928Y-188211638D02*
X179836785Y-188211638D01*
X179015357Y-190211638D02*
X179265357Y-188211638D01*
X180253452Y-190211638D02*
X180420119Y-188878304D01*
X180503452Y-188211638D02*
X180396309Y-188306876D01*
X180396309Y-188306876D02*
X180479643Y-188402114D01*
X180479643Y-188402114D02*
X180586786Y-188306876D01*
X180586786Y-188306876D02*
X180503452Y-188211638D01*
X180503452Y-188211638D02*
X180479643Y-188402114D01*
X181086786Y-188878304D02*
X181848690Y-188878304D01*
X181455833Y-188211638D02*
X181241548Y-189925923D01*
X181241548Y-189925923D02*
X181312976Y-190116400D01*
X181312976Y-190116400D02*
X181491548Y-190211638D01*
X181491548Y-190211638D02*
X181682024Y-190211638D01*
X182634405Y-190211638D02*
X182455833Y-190116400D01*
X182455833Y-190116400D02*
X182384405Y-189925923D01*
X182384405Y-189925923D02*
X182598690Y-188211638D01*
X184170119Y-190116400D02*
X183967738Y-190211638D01*
X183967738Y-190211638D02*
X183586785Y-190211638D01*
X183586785Y-190211638D02*
X183408214Y-190116400D01*
X183408214Y-190116400D02*
X183336785Y-189925923D01*
X183336785Y-189925923D02*
X183432024Y-189164019D01*
X183432024Y-189164019D02*
X183551071Y-188973542D01*
X183551071Y-188973542D02*
X183753452Y-188878304D01*
X183753452Y-188878304D02*
X184134404Y-188878304D01*
X184134404Y-188878304D02*
X184312976Y-188973542D01*
X184312976Y-188973542D02*
X184384404Y-189164019D01*
X184384404Y-189164019D02*
X184360595Y-189354495D01*
X184360595Y-189354495D02*
X183384404Y-189544971D01*
X185134405Y-190021161D02*
X185217738Y-190116400D01*
X185217738Y-190116400D02*
X185110595Y-190211638D01*
X185110595Y-190211638D02*
X185027262Y-190116400D01*
X185027262Y-190116400D02*
X185134405Y-190021161D01*
X185134405Y-190021161D02*
X185110595Y-190211638D01*
X185265357Y-188973542D02*
X185348690Y-189068780D01*
X185348690Y-189068780D02*
X185241548Y-189164019D01*
X185241548Y-189164019D02*
X185158214Y-189068780D01*
X185158214Y-189068780D02*
X185265357Y-188973542D01*
X185265357Y-188973542D02*
X185241548Y-189164019D01*
X188539167Y-190211638D02*
X187586786Y-190211638D01*
X187586786Y-190211638D02*
X187836786Y-188211638D01*
X189979644Y-190116400D02*
X189777263Y-190211638D01*
X189777263Y-190211638D02*
X189396310Y-190211638D01*
X189396310Y-190211638D02*
X189217739Y-190116400D01*
X189217739Y-190116400D02*
X189146310Y-189925923D01*
X189146310Y-189925923D02*
X189241549Y-189164019D01*
X189241549Y-189164019D02*
X189360596Y-188973542D01*
X189360596Y-188973542D02*
X189562977Y-188878304D01*
X189562977Y-188878304D02*
X189943929Y-188878304D01*
X189943929Y-188878304D02*
X190122501Y-188973542D01*
X190122501Y-188973542D02*
X190193929Y-189164019D01*
X190193929Y-189164019D02*
X190170120Y-189354495D01*
X190170120Y-189354495D02*
X189193929Y-189544971D01*
X191777263Y-190211638D02*
X191908215Y-189164019D01*
X191908215Y-189164019D02*
X191836787Y-188973542D01*
X191836787Y-188973542D02*
X191658215Y-188878304D01*
X191658215Y-188878304D02*
X191277263Y-188878304D01*
X191277263Y-188878304D02*
X191074882Y-188973542D01*
X191789168Y-190116400D02*
X191586787Y-190211638D01*
X191586787Y-190211638D02*
X191110596Y-190211638D01*
X191110596Y-190211638D02*
X190932025Y-190116400D01*
X190932025Y-190116400D02*
X190860596Y-189925923D01*
X190860596Y-189925923D02*
X190884406Y-189735447D01*
X190884406Y-189735447D02*
X191003454Y-189544971D01*
X191003454Y-189544971D02*
X191205835Y-189449733D01*
X191205835Y-189449733D02*
X191682025Y-189449733D01*
X191682025Y-189449733D02*
X191884406Y-189354495D01*
X192729644Y-190211638D02*
X192896311Y-188878304D01*
X192848692Y-189259257D02*
X192967739Y-189068780D01*
X192967739Y-189068780D02*
X193074882Y-188973542D01*
X193074882Y-188973542D02*
X193277263Y-188878304D01*
X193277263Y-188878304D02*
X193467739Y-188878304D01*
X194134406Y-188878304D02*
X193967739Y-190211638D01*
X194110596Y-189068780D02*
X194217739Y-188973542D01*
X194217739Y-188973542D02*
X194420120Y-188878304D01*
X194420120Y-188878304D02*
X194705834Y-188878304D01*
X194705834Y-188878304D02*
X194884406Y-188973542D01*
X194884406Y-188973542D02*
X194955834Y-189164019D01*
X194955834Y-189164019D02*
X194824882Y-190211638D01*
X195777263Y-190211638D02*
X195943930Y-188878304D01*
X196027263Y-188211638D02*
X195920120Y-188306876D01*
X195920120Y-188306876D02*
X196003454Y-188402114D01*
X196003454Y-188402114D02*
X196110597Y-188306876D01*
X196110597Y-188306876D02*
X196027263Y-188211638D01*
X196027263Y-188211638D02*
X196003454Y-188402114D01*
X196896311Y-188878304D02*
X196729644Y-190211638D01*
X196872501Y-189068780D02*
X196979644Y-188973542D01*
X196979644Y-188973542D02*
X197182025Y-188878304D01*
X197182025Y-188878304D02*
X197467739Y-188878304D01*
X197467739Y-188878304D02*
X197646311Y-188973542D01*
X197646311Y-188973542D02*
X197717739Y-189164019D01*
X197717739Y-189164019D02*
X197586787Y-190211638D01*
X199562978Y-188878304D02*
X199360597Y-190497352D01*
X199360597Y-190497352D02*
X199241549Y-190687828D01*
X199241549Y-190687828D02*
X199134406Y-190783066D01*
X199134406Y-190783066D02*
X198932025Y-190878304D01*
X198932025Y-190878304D02*
X198646311Y-190878304D01*
X198646311Y-190878304D02*
X198467740Y-190783066D01*
X199408216Y-190116400D02*
X199205835Y-190211638D01*
X199205835Y-190211638D02*
X198824883Y-190211638D01*
X198824883Y-190211638D02*
X198646311Y-190116400D01*
X198646311Y-190116400D02*
X198562978Y-190021161D01*
X198562978Y-190021161D02*
X198491549Y-189830685D01*
X198491549Y-189830685D02*
X198562978Y-189259257D01*
X198562978Y-189259257D02*
X198682025Y-189068780D01*
X198682025Y-189068780D02*
X198789168Y-188973542D01*
X198789168Y-188973542D02*
X198991549Y-188878304D01*
X198991549Y-188878304D02*
X199372502Y-188878304D01*
X199372502Y-188878304D02*
X199551073Y-188973542D01*
X201872502Y-190211638D02*
X202122502Y-188211638D01*
X203015359Y-190211638D02*
X202301074Y-189068780D01*
X203265359Y-188211638D02*
X201979645Y-189354495D01*
X203872502Y-190211638D02*
X204039169Y-188878304D01*
X204122502Y-188211638D02*
X204015359Y-188306876D01*
X204015359Y-188306876D02*
X204098693Y-188402114D01*
X204098693Y-188402114D02*
X204205836Y-188306876D01*
X204205836Y-188306876D02*
X204122502Y-188211638D01*
X204122502Y-188211638D02*
X204098693Y-188402114D01*
X205991550Y-190021161D02*
X205884407Y-190116400D01*
X205884407Y-190116400D02*
X205586788Y-190211638D01*
X205586788Y-190211638D02*
X205396312Y-190211638D01*
X205396312Y-190211638D02*
X205122502Y-190116400D01*
X205122502Y-190116400D02*
X204955836Y-189925923D01*
X204955836Y-189925923D02*
X204884407Y-189735447D01*
X204884407Y-189735447D02*
X204836788Y-189354495D01*
X204836788Y-189354495D02*
X204872502Y-189068780D01*
X204872502Y-189068780D02*
X205015359Y-188687828D01*
X205015359Y-188687828D02*
X205134407Y-188497352D01*
X205134407Y-188497352D02*
X205348693Y-188306876D01*
X205348693Y-188306876D02*
X205646312Y-188211638D01*
X205646312Y-188211638D02*
X205836788Y-188211638D01*
X205836788Y-188211638D02*
X206110598Y-188306876D01*
X206110598Y-188306876D02*
X206193931Y-188402114D01*
X206801074Y-189640209D02*
X207753455Y-189640209D01*
X206539169Y-190211638D02*
X207455836Y-188211638D01*
X207455836Y-188211638D02*
X207872502Y-190211638D01*
X208539169Y-190211638D02*
X208789169Y-188211638D01*
X208789169Y-188211638D02*
X209265360Y-188211638D01*
X209265360Y-188211638D02*
X209539169Y-188306876D01*
X209539169Y-188306876D02*
X209705836Y-188497352D01*
X209705836Y-188497352D02*
X209777264Y-188687828D01*
X209777264Y-188687828D02*
X209824884Y-189068780D01*
X209824884Y-189068780D02*
X209789169Y-189354495D01*
X209789169Y-189354495D02*
X209646312Y-189735447D01*
X209646312Y-189735447D02*
X209527264Y-189925923D01*
X209527264Y-189925923D02*
X209312979Y-190116400D01*
X209312979Y-190116400D02*
X209015360Y-190211638D01*
X209015360Y-190211638D02*
X208539169Y-190211638D01*
X212039170Y-188878304D02*
X212253455Y-190211638D01*
X212253455Y-190211638D02*
X212753455Y-189259257D01*
X212753455Y-189259257D02*
X213015360Y-190211638D01*
X213015360Y-190211638D02*
X213562979Y-188878304D01*
X214158217Y-190211638D02*
X214324884Y-188878304D01*
X214408217Y-188211638D02*
X214301074Y-188306876D01*
X214301074Y-188306876D02*
X214384408Y-188402114D01*
X214384408Y-188402114D02*
X214491551Y-188306876D01*
X214491551Y-188306876D02*
X214408217Y-188211638D01*
X214408217Y-188211638D02*
X214384408Y-188402114D01*
X214991551Y-188878304D02*
X215753455Y-188878304D01*
X215360598Y-188211638D02*
X215146313Y-189925923D01*
X215146313Y-189925923D02*
X215217741Y-190116400D01*
X215217741Y-190116400D02*
X215396313Y-190211638D01*
X215396313Y-190211638D02*
X215586789Y-190211638D01*
X216253455Y-190211638D02*
X216503455Y-188211638D01*
X217110598Y-190211638D02*
X217241550Y-189164019D01*
X217241550Y-189164019D02*
X217170122Y-188973542D01*
X217170122Y-188973542D02*
X216991550Y-188878304D01*
X216991550Y-188878304D02*
X216705836Y-188878304D01*
X216705836Y-188878304D02*
X216503455Y-188973542D01*
X216503455Y-188973542D02*
X216396312Y-189068780D01*
X220443932Y-190211638D02*
X220574884Y-189164019D01*
X220574884Y-189164019D02*
X220503456Y-188973542D01*
X220503456Y-188973542D02*
X220324884Y-188878304D01*
X220324884Y-188878304D02*
X219943932Y-188878304D01*
X219943932Y-188878304D02*
X219741551Y-188973542D01*
X220455837Y-190116400D02*
X220253456Y-190211638D01*
X220253456Y-190211638D02*
X219777265Y-190211638D01*
X219777265Y-190211638D02*
X219598694Y-190116400D01*
X219598694Y-190116400D02*
X219527265Y-189925923D01*
X219527265Y-189925923D02*
X219551075Y-189735447D01*
X219551075Y-189735447D02*
X219670123Y-189544971D01*
X219670123Y-189544971D02*
X219872504Y-189449733D01*
X219872504Y-189449733D02*
X220348694Y-189449733D01*
X220348694Y-189449733D02*
X220551075Y-189354495D01*
X222836790Y-190116400D02*
X223015361Y-190211638D01*
X223015361Y-190211638D02*
X223396314Y-190211638D01*
X223396314Y-190211638D02*
X223598695Y-190116400D01*
X223598695Y-190116400D02*
X223717742Y-189925923D01*
X223717742Y-189925923D02*
X223729647Y-189830685D01*
X223729647Y-189830685D02*
X223658218Y-189640209D01*
X223658218Y-189640209D02*
X223479647Y-189544971D01*
X223479647Y-189544971D02*
X223193933Y-189544971D01*
X223193933Y-189544971D02*
X223015361Y-189449733D01*
X223015361Y-189449733D02*
X222943933Y-189259257D01*
X222943933Y-189259257D02*
X222955838Y-189164019D01*
X222955838Y-189164019D02*
X223074885Y-188973542D01*
X223074885Y-188973542D02*
X223277266Y-188878304D01*
X223277266Y-188878304D02*
X223562980Y-188878304D01*
X223562980Y-188878304D02*
X223741552Y-188973542D01*
X224539171Y-190211638D02*
X224705838Y-188878304D01*
X224789171Y-188211638D02*
X224682028Y-188306876D01*
X224682028Y-188306876D02*
X224765362Y-188402114D01*
X224765362Y-188402114D02*
X224872505Y-188306876D01*
X224872505Y-188306876D02*
X224789171Y-188211638D01*
X224789171Y-188211638D02*
X224765362Y-188402114D01*
X225491552Y-190211638D02*
X225658219Y-188878304D01*
X225634409Y-189068780D02*
X225741552Y-188973542D01*
X225741552Y-188973542D02*
X225943933Y-188878304D01*
X225943933Y-188878304D02*
X226229647Y-188878304D01*
X226229647Y-188878304D02*
X226408219Y-188973542D01*
X226408219Y-188973542D02*
X226479647Y-189164019D01*
X226479647Y-189164019D02*
X226348695Y-190211638D01*
X226479647Y-189164019D02*
X226598695Y-188973542D01*
X226598695Y-188973542D02*
X226801076Y-188878304D01*
X226801076Y-188878304D02*
X227086790Y-188878304D01*
X227086790Y-188878304D02*
X227265362Y-188973542D01*
X227265362Y-188973542D02*
X227336790Y-189164019D01*
X227336790Y-189164019D02*
X227205838Y-190211638D01*
X228324886Y-188878304D02*
X228074886Y-190878304D01*
X228312981Y-188973542D02*
X228515362Y-188878304D01*
X228515362Y-188878304D02*
X228896314Y-188878304D01*
X228896314Y-188878304D02*
X229074886Y-188973542D01*
X229074886Y-188973542D02*
X229158219Y-189068780D01*
X229158219Y-189068780D02*
X229229648Y-189259257D01*
X229229648Y-189259257D02*
X229158219Y-189830685D01*
X229158219Y-189830685D02*
X229039172Y-190021161D01*
X229039172Y-190021161D02*
X228932029Y-190116400D01*
X228932029Y-190116400D02*
X228729648Y-190211638D01*
X228729648Y-190211638D02*
X228348695Y-190211638D01*
X228348695Y-190211638D02*
X228170124Y-190116400D01*
X230253458Y-190211638D02*
X230074886Y-190116400D01*
X230074886Y-190116400D02*
X230003458Y-189925923D01*
X230003458Y-189925923D02*
X230217743Y-188211638D01*
X231789172Y-190116400D02*
X231586791Y-190211638D01*
X231586791Y-190211638D02*
X231205838Y-190211638D01*
X231205838Y-190211638D02*
X231027267Y-190116400D01*
X231027267Y-190116400D02*
X230955838Y-189925923D01*
X230955838Y-189925923D02*
X231051077Y-189164019D01*
X231051077Y-189164019D02*
X231170124Y-188973542D01*
X231170124Y-188973542D02*
X231372505Y-188878304D01*
X231372505Y-188878304D02*
X231753457Y-188878304D01*
X231753457Y-188878304D02*
X231932029Y-188973542D01*
X231932029Y-188973542D02*
X232003457Y-189164019D01*
X232003457Y-189164019D02*
X231979648Y-189354495D01*
X231979648Y-189354495D02*
X231003457Y-189544971D01*
X234420125Y-188878304D02*
X234170125Y-190878304D01*
X234408220Y-188973542D02*
X234610601Y-188878304D01*
X234610601Y-188878304D02*
X234991553Y-188878304D01*
X234991553Y-188878304D02*
X235170125Y-188973542D01*
X235170125Y-188973542D02*
X235253458Y-189068780D01*
X235253458Y-189068780D02*
X235324887Y-189259257D01*
X235324887Y-189259257D02*
X235253458Y-189830685D01*
X235253458Y-189830685D02*
X235134411Y-190021161D01*
X235134411Y-190021161D02*
X235027268Y-190116400D01*
X235027268Y-190116400D02*
X234824887Y-190211638D01*
X234824887Y-190211638D02*
X234443934Y-190211638D01*
X234443934Y-190211638D02*
X234265363Y-190116400D01*
X236062982Y-190211638D02*
X236229649Y-188878304D01*
X236182030Y-189259257D02*
X236301077Y-189068780D01*
X236301077Y-189068780D02*
X236408220Y-188973542D01*
X236408220Y-188973542D02*
X236610601Y-188878304D01*
X236610601Y-188878304D02*
X236801077Y-188878304D01*
X237586792Y-190211638D02*
X237408220Y-190116400D01*
X237408220Y-190116400D02*
X237324887Y-190021161D01*
X237324887Y-190021161D02*
X237253458Y-189830685D01*
X237253458Y-189830685D02*
X237324887Y-189259257D01*
X237324887Y-189259257D02*
X237443934Y-189068780D01*
X237443934Y-189068780D02*
X237551077Y-188973542D01*
X237551077Y-188973542D02*
X237753458Y-188878304D01*
X237753458Y-188878304D02*
X238039172Y-188878304D01*
X238039172Y-188878304D02*
X238217744Y-188973542D01*
X238217744Y-188973542D02*
X238301077Y-189068780D01*
X238301077Y-189068780D02*
X238372506Y-189259257D01*
X238372506Y-189259257D02*
X238301077Y-189830685D01*
X238301077Y-189830685D02*
X238182030Y-190021161D01*
X238182030Y-190021161D02*
X238074887Y-190116400D01*
X238074887Y-190116400D02*
X237872506Y-190211638D01*
X237872506Y-190211638D02*
X237586792Y-190211638D01*
X239277268Y-188878304D02*
X239062982Y-190592590D01*
X239062982Y-190592590D02*
X238943935Y-190783066D01*
X238943935Y-190783066D02*
X238741554Y-190878304D01*
X238741554Y-190878304D02*
X238646316Y-190878304D01*
X239360601Y-188211638D02*
X239253458Y-188306876D01*
X239253458Y-188306876D02*
X239336792Y-188402114D01*
X239336792Y-188402114D02*
X239443935Y-188306876D01*
X239443935Y-188306876D02*
X239360601Y-188211638D01*
X239360601Y-188211638D02*
X239336792Y-188402114D01*
X240836792Y-190116400D02*
X240634411Y-190211638D01*
X240634411Y-190211638D02*
X240253458Y-190211638D01*
X240253458Y-190211638D02*
X240074887Y-190116400D01*
X240074887Y-190116400D02*
X240003458Y-189925923D01*
X240003458Y-189925923D02*
X240098697Y-189164019D01*
X240098697Y-189164019D02*
X240217744Y-188973542D01*
X240217744Y-188973542D02*
X240420125Y-188878304D01*
X240420125Y-188878304D02*
X240801077Y-188878304D01*
X240801077Y-188878304D02*
X240979649Y-188973542D01*
X240979649Y-188973542D02*
X241051077Y-189164019D01*
X241051077Y-189164019D02*
X241027268Y-189354495D01*
X241027268Y-189354495D02*
X240051077Y-189544971D01*
X242646316Y-190116400D02*
X242443935Y-190211638D01*
X242443935Y-190211638D02*
X242062983Y-190211638D01*
X242062983Y-190211638D02*
X241884411Y-190116400D01*
X241884411Y-190116400D02*
X241801078Y-190021161D01*
X241801078Y-190021161D02*
X241729649Y-189830685D01*
X241729649Y-189830685D02*
X241801078Y-189259257D01*
X241801078Y-189259257D02*
X241920125Y-189068780D01*
X241920125Y-189068780D02*
X242027268Y-188973542D01*
X242027268Y-188973542D02*
X242229649Y-188878304D01*
X242229649Y-188878304D02*
X242610602Y-188878304D01*
X242610602Y-188878304D02*
X242789173Y-188973542D01*
X243372507Y-188878304D02*
X244134411Y-188878304D01*
X243741554Y-188211638D02*
X243527269Y-189925923D01*
X243527269Y-189925923D02*
X243598697Y-190116400D01*
X243598697Y-190116400D02*
X243777269Y-190211638D01*
X243777269Y-190211638D02*
X243967745Y-190211638D01*
D10*
D11*
X178958026Y-185607614D02*
X178458026Y-185607614D01*
X178458026Y-186393328D02*
X178458026Y-184893328D01*
X178458026Y-184893328D02*
X179172312Y-184893328D01*
X179743740Y-186393328D02*
X179743740Y-185393328D01*
X179743740Y-184893328D02*
X179672312Y-184964757D01*
X179672312Y-184964757D02*
X179743740Y-185036185D01*
X179743740Y-185036185D02*
X179815169Y-184964757D01*
X179815169Y-184964757D02*
X179743740Y-184893328D01*
X179743740Y-184893328D02*
X179743740Y-185036185D01*
X180672312Y-186393328D02*
X180529455Y-186321900D01*
X180529455Y-186321900D02*
X180458026Y-186179042D01*
X180458026Y-186179042D02*
X180458026Y-184893328D01*
X181815169Y-186321900D02*
X181672312Y-186393328D01*
X181672312Y-186393328D02*
X181386598Y-186393328D01*
X181386598Y-186393328D02*
X181243740Y-186321900D01*
X181243740Y-186321900D02*
X181172312Y-186179042D01*
X181172312Y-186179042D02*
X181172312Y-185607614D01*
X181172312Y-185607614D02*
X181243740Y-185464757D01*
X181243740Y-185464757D02*
X181386598Y-185393328D01*
X181386598Y-185393328D02*
X181672312Y-185393328D01*
X181672312Y-185393328D02*
X181815169Y-185464757D01*
X181815169Y-185464757D02*
X181886598Y-185607614D01*
X181886598Y-185607614D02*
X181886598Y-185750471D01*
X181886598Y-185750471D02*
X181172312Y-185893328D01*
X182529454Y-186250471D02*
X182600883Y-186321900D01*
X182600883Y-186321900D02*
X182529454Y-186393328D01*
X182529454Y-186393328D02*
X182458026Y-186321900D01*
X182458026Y-186321900D02*
X182529454Y-186250471D01*
X182529454Y-186250471D02*
X182529454Y-186393328D01*
X182529454Y-185464757D02*
X182600883Y-185536185D01*
X182600883Y-185536185D02*
X182529454Y-185607614D01*
X182529454Y-185607614D02*
X182458026Y-185536185D01*
X182458026Y-185536185D02*
X182529454Y-185464757D01*
X182529454Y-185464757D02*
X182529454Y-185607614D01*
X184386597Y-185393328D02*
X184386597Y-186893328D01*
X184386597Y-185464757D02*
X184529455Y-185393328D01*
X184529455Y-185393328D02*
X184815169Y-185393328D01*
X184815169Y-185393328D02*
X184958026Y-185464757D01*
X184958026Y-185464757D02*
X185029455Y-185536185D01*
X185029455Y-185536185D02*
X185100883Y-185679042D01*
X185100883Y-185679042D02*
X185100883Y-186107614D01*
X185100883Y-186107614D02*
X185029455Y-186250471D01*
X185029455Y-186250471D02*
X184958026Y-186321900D01*
X184958026Y-186321900D02*
X184815169Y-186393328D01*
X184815169Y-186393328D02*
X184529455Y-186393328D01*
X184529455Y-186393328D02*
X184386597Y-186321900D01*
X185958026Y-186393328D02*
X185815169Y-186321900D01*
X185815169Y-186321900D02*
X185743740Y-186250471D01*
X185743740Y-186250471D02*
X185672312Y-186107614D01*
X185672312Y-186107614D02*
X185672312Y-185679042D01*
X185672312Y-185679042D02*
X185743740Y-185536185D01*
X185743740Y-185536185D02*
X185815169Y-185464757D01*
X185815169Y-185464757D02*
X185958026Y-185393328D01*
X185958026Y-185393328D02*
X186172312Y-185393328D01*
X186172312Y-185393328D02*
X186315169Y-185464757D01*
X186315169Y-185464757D02*
X186386598Y-185536185D01*
X186386598Y-185536185D02*
X186458026Y-185679042D01*
X186458026Y-185679042D02*
X186458026Y-186107614D01*
X186458026Y-186107614D02*
X186386598Y-186250471D01*
X186386598Y-186250471D02*
X186315169Y-186321900D01*
X186315169Y-186321900D02*
X186172312Y-186393328D01*
X186172312Y-186393328D02*
X185958026Y-186393328D01*
X186958026Y-185393328D02*
X187243741Y-186393328D01*
X187243741Y-186393328D02*
X187529455Y-185679042D01*
X187529455Y-185679042D02*
X187815169Y-186393328D01*
X187815169Y-186393328D02*
X188100883Y-185393328D01*
X189243741Y-186321900D02*
X189100884Y-186393328D01*
X189100884Y-186393328D02*
X188815170Y-186393328D01*
X188815170Y-186393328D02*
X188672312Y-186321900D01*
X188672312Y-186321900D02*
X188600884Y-186179042D01*
X188600884Y-186179042D02*
X188600884Y-185607614D01*
X188600884Y-185607614D02*
X188672312Y-185464757D01*
X188672312Y-185464757D02*
X188815170Y-185393328D01*
X188815170Y-185393328D02*
X189100884Y-185393328D01*
X189100884Y-185393328D02*
X189243741Y-185464757D01*
X189243741Y-185464757D02*
X189315170Y-185607614D01*
X189315170Y-185607614D02*
X189315170Y-185750471D01*
X189315170Y-185750471D02*
X188600884Y-185893328D01*
X189958026Y-186393328D02*
X189958026Y-185393328D01*
X189958026Y-185679042D02*
X190029455Y-185536185D01*
X190029455Y-185536185D02*
X190100884Y-185464757D01*
X190100884Y-185464757D02*
X190243741Y-185393328D01*
X190243741Y-185393328D02*
X190386598Y-185393328D01*
X190529455Y-186536185D02*
X191672312Y-186536185D01*
X191958026Y-186321900D02*
X192100883Y-186393328D01*
X192100883Y-186393328D02*
X192386597Y-186393328D01*
X192386597Y-186393328D02*
X192529454Y-186321900D01*
X192529454Y-186321900D02*
X192600883Y-186179042D01*
X192600883Y-186179042D02*
X192600883Y-186107614D01*
X192600883Y-186107614D02*
X192529454Y-185964757D01*
X192529454Y-185964757D02*
X192386597Y-185893328D01*
X192386597Y-185893328D02*
X192172312Y-185893328D01*
X192172312Y-185893328D02*
X192029454Y-185821900D01*
X192029454Y-185821900D02*
X191958026Y-185679042D01*
X191958026Y-185679042D02*
X191958026Y-185607614D01*
X191958026Y-185607614D02*
X192029454Y-185464757D01*
X192029454Y-185464757D02*
X192172312Y-185393328D01*
X192172312Y-185393328D02*
X192386597Y-185393328D01*
X192386597Y-185393328D02*
X192529454Y-185464757D01*
X193886598Y-185393328D02*
X193886598Y-186393328D01*
X193243740Y-185393328D02*
X193243740Y-186179042D01*
X193243740Y-186179042D02*
X193315169Y-186321900D01*
X193315169Y-186321900D02*
X193458026Y-186393328D01*
X193458026Y-186393328D02*
X193672312Y-186393328D01*
X193672312Y-186393328D02*
X193815169Y-186321900D01*
X193815169Y-186321900D02*
X193886598Y-186250471D01*
X194600883Y-185393328D02*
X194600883Y-186893328D01*
X194600883Y-185464757D02*
X194743741Y-185393328D01*
X194743741Y-185393328D02*
X195029455Y-185393328D01*
X195029455Y-185393328D02*
X195172312Y-185464757D01*
X195172312Y-185464757D02*
X195243741Y-185536185D01*
X195243741Y-185536185D02*
X195315169Y-185679042D01*
X195315169Y-185679042D02*
X195315169Y-186107614D01*
X195315169Y-186107614D02*
X195243741Y-186250471D01*
X195243741Y-186250471D02*
X195172312Y-186321900D01*
X195172312Y-186321900D02*
X195029455Y-186393328D01*
X195029455Y-186393328D02*
X194743741Y-186393328D01*
X194743741Y-186393328D02*
X194600883Y-186321900D01*
X195958026Y-185393328D02*
X195958026Y-186893328D01*
X195958026Y-185464757D02*
X196100884Y-185393328D01*
X196100884Y-185393328D02*
X196386598Y-185393328D01*
X196386598Y-185393328D02*
X196529455Y-185464757D01*
X196529455Y-185464757D02*
X196600884Y-185536185D01*
X196600884Y-185536185D02*
X196672312Y-185679042D01*
X196672312Y-185679042D02*
X196672312Y-186107614D01*
X196672312Y-186107614D02*
X196600884Y-186250471D01*
X196600884Y-186250471D02*
X196529455Y-186321900D01*
X196529455Y-186321900D02*
X196386598Y-186393328D01*
X196386598Y-186393328D02*
X196100884Y-186393328D01*
X196100884Y-186393328D02*
X195958026Y-186321900D01*
X197529455Y-186393328D02*
X197386598Y-186321900D01*
X197386598Y-186321900D02*
X197315169Y-186179042D01*
X197315169Y-186179042D02*
X197315169Y-184893328D01*
X197958026Y-185393328D02*
X198315169Y-186393328D01*
X198672312Y-185393328D02*
X198315169Y-186393328D01*
X198315169Y-186393328D02*
X198172312Y-186750471D01*
X198172312Y-186750471D02*
X198100883Y-186821900D01*
X198100883Y-186821900D02*
X197958026Y-186893328D01*
X198886598Y-186536185D02*
X200029455Y-186536185D01*
X200386597Y-186393328D02*
X200386597Y-184893328D01*
X200386597Y-185464757D02*
X200529455Y-185393328D01*
X200529455Y-185393328D02*
X200815169Y-185393328D01*
X200815169Y-185393328D02*
X200958026Y-185464757D01*
X200958026Y-185464757D02*
X201029455Y-185536185D01*
X201029455Y-185536185D02*
X201100883Y-185679042D01*
X201100883Y-185679042D02*
X201100883Y-186107614D01*
X201100883Y-186107614D02*
X201029455Y-186250471D01*
X201029455Y-186250471D02*
X200958026Y-186321900D01*
X200958026Y-186321900D02*
X200815169Y-186393328D01*
X200815169Y-186393328D02*
X200529455Y-186393328D01*
X200529455Y-186393328D02*
X200386597Y-186321900D01*
X201743740Y-186393328D02*
X201743740Y-185393328D01*
X201743740Y-185679042D02*
X201815169Y-185536185D01*
X201815169Y-185536185D02*
X201886598Y-185464757D01*
X201886598Y-185464757D02*
X202029455Y-185393328D01*
X202029455Y-185393328D02*
X202172312Y-185393328D01*
X203243740Y-186321900D02*
X203100883Y-186393328D01*
X203100883Y-186393328D02*
X202815169Y-186393328D01*
X202815169Y-186393328D02*
X202672311Y-186321900D01*
X202672311Y-186321900D02*
X202600883Y-186179042D01*
X202600883Y-186179042D02*
X202600883Y-185607614D01*
X202600883Y-185607614D02*
X202672311Y-185464757D01*
X202672311Y-185464757D02*
X202815169Y-185393328D01*
X202815169Y-185393328D02*
X203100883Y-185393328D01*
X203100883Y-185393328D02*
X203243740Y-185464757D01*
X203243740Y-185464757D02*
X203315169Y-185607614D01*
X203315169Y-185607614D02*
X203315169Y-185750471D01*
X203315169Y-185750471D02*
X202600883Y-185893328D01*
X204600883Y-186393328D02*
X204600883Y-185607614D01*
X204600883Y-185607614D02*
X204529454Y-185464757D01*
X204529454Y-185464757D02*
X204386597Y-185393328D01*
X204386597Y-185393328D02*
X204100883Y-185393328D01*
X204100883Y-185393328D02*
X203958025Y-185464757D01*
X204600883Y-186321900D02*
X204458025Y-186393328D01*
X204458025Y-186393328D02*
X204100883Y-186393328D01*
X204100883Y-186393328D02*
X203958025Y-186321900D01*
X203958025Y-186321900D02*
X203886597Y-186179042D01*
X203886597Y-186179042D02*
X203886597Y-186036185D01*
X203886597Y-186036185D02*
X203958025Y-185893328D01*
X203958025Y-185893328D02*
X204100883Y-185821900D01*
X204100883Y-185821900D02*
X204458025Y-185821900D01*
X204458025Y-185821900D02*
X204600883Y-185750471D01*
X205958026Y-186393328D02*
X205958026Y-184893328D01*
X205958026Y-186321900D02*
X205815168Y-186393328D01*
X205815168Y-186393328D02*
X205529454Y-186393328D01*
X205529454Y-186393328D02*
X205386597Y-186321900D01*
X205386597Y-186321900D02*
X205315168Y-186250471D01*
X205315168Y-186250471D02*
X205243740Y-186107614D01*
X205243740Y-186107614D02*
X205243740Y-185679042D01*
X205243740Y-185679042D02*
X205315168Y-185536185D01*
X205315168Y-185536185D02*
X205386597Y-185464757D01*
X205386597Y-185464757D02*
X205529454Y-185393328D01*
X205529454Y-185393328D02*
X205815168Y-185393328D01*
X205815168Y-185393328D02*
X205958026Y-185464757D01*
X206672311Y-186393328D02*
X206672311Y-184893328D01*
X206672311Y-185464757D02*
X206815169Y-185393328D01*
X206815169Y-185393328D02*
X207100883Y-185393328D01*
X207100883Y-185393328D02*
X207243740Y-185464757D01*
X207243740Y-185464757D02*
X207315169Y-185536185D01*
X207315169Y-185536185D02*
X207386597Y-185679042D01*
X207386597Y-185679042D02*
X207386597Y-186107614D01*
X207386597Y-186107614D02*
X207315169Y-186250471D01*
X207315169Y-186250471D02*
X207243740Y-186321900D01*
X207243740Y-186321900D02*
X207100883Y-186393328D01*
X207100883Y-186393328D02*
X206815169Y-186393328D01*
X206815169Y-186393328D02*
X206672311Y-186321900D01*
X208243740Y-186393328D02*
X208100883Y-186321900D01*
X208100883Y-186321900D02*
X208029454Y-186250471D01*
X208029454Y-186250471D02*
X207958026Y-186107614D01*
X207958026Y-186107614D02*
X207958026Y-185679042D01*
X207958026Y-185679042D02*
X208029454Y-185536185D01*
X208029454Y-185536185D02*
X208100883Y-185464757D01*
X208100883Y-185464757D02*
X208243740Y-185393328D01*
X208243740Y-185393328D02*
X208458026Y-185393328D01*
X208458026Y-185393328D02*
X208600883Y-185464757D01*
X208600883Y-185464757D02*
X208672312Y-185536185D01*
X208672312Y-185536185D02*
X208743740Y-185679042D01*
X208743740Y-185679042D02*
X208743740Y-186107614D01*
X208743740Y-186107614D02*
X208672312Y-186250471D01*
X208672312Y-186250471D02*
X208600883Y-186321900D01*
X208600883Y-186321900D02*
X208458026Y-186393328D01*
X208458026Y-186393328D02*
X208243740Y-186393328D01*
X210029455Y-186393328D02*
X210029455Y-185607614D01*
X210029455Y-185607614D02*
X209958026Y-185464757D01*
X209958026Y-185464757D02*
X209815169Y-185393328D01*
X209815169Y-185393328D02*
X209529455Y-185393328D01*
X209529455Y-185393328D02*
X209386597Y-185464757D01*
X210029455Y-186321900D02*
X209886597Y-186393328D01*
X209886597Y-186393328D02*
X209529455Y-186393328D01*
X209529455Y-186393328D02*
X209386597Y-186321900D01*
X209386597Y-186321900D02*
X209315169Y-186179042D01*
X209315169Y-186179042D02*
X209315169Y-186036185D01*
X209315169Y-186036185D02*
X209386597Y-185893328D01*
X209386597Y-185893328D02*
X209529455Y-185821900D01*
X209529455Y-185821900D02*
X209886597Y-185821900D01*
X209886597Y-185821900D02*
X210029455Y-185750471D01*
X210743740Y-186393328D02*
X210743740Y-185393328D01*
X210743740Y-185679042D02*
X210815169Y-185536185D01*
X210815169Y-185536185D02*
X210886598Y-185464757D01*
X210886598Y-185464757D02*
X211029455Y-185393328D01*
X211029455Y-185393328D02*
X211172312Y-185393328D01*
X212315169Y-186393328D02*
X212315169Y-184893328D01*
X212315169Y-186321900D02*
X212172311Y-186393328D01*
X212172311Y-186393328D02*
X211886597Y-186393328D01*
X211886597Y-186393328D02*
X211743740Y-186321900D01*
X211743740Y-186321900D02*
X211672311Y-186250471D01*
X211672311Y-186250471D02*
X211600883Y-186107614D01*
X211600883Y-186107614D02*
X211600883Y-185679042D01*
X211600883Y-185679042D02*
X211672311Y-185536185D01*
X211672311Y-185536185D02*
X211743740Y-185464757D01*
X211743740Y-185464757D02*
X211886597Y-185393328D01*
X211886597Y-185393328D02*
X212172311Y-185393328D01*
X212172311Y-185393328D02*
X212315169Y-185464757D01*
X213029454Y-186250471D02*
X213100883Y-186321900D01*
X213100883Y-186321900D02*
X213029454Y-186393328D01*
X213029454Y-186393328D02*
X212958026Y-186321900D01*
X212958026Y-186321900D02*
X213029454Y-186250471D01*
X213029454Y-186250471D02*
X213029454Y-186393328D01*
X213743740Y-186393328D02*
X213743740Y-184893328D01*
X213886598Y-185821900D02*
X214315169Y-186393328D01*
X214315169Y-185393328D02*
X213743740Y-185964757D01*
X214958026Y-186393328D02*
X214958026Y-185393328D01*
X214958026Y-184893328D02*
X214886598Y-184964757D01*
X214886598Y-184964757D02*
X214958026Y-185036185D01*
X214958026Y-185036185D02*
X215029455Y-184964757D01*
X215029455Y-184964757D02*
X214958026Y-184893328D01*
X214958026Y-184893328D02*
X214958026Y-185036185D01*
X216315170Y-186321900D02*
X216172312Y-186393328D01*
X216172312Y-186393328D02*
X215886598Y-186393328D01*
X215886598Y-186393328D02*
X215743741Y-186321900D01*
X215743741Y-186321900D02*
X215672312Y-186250471D01*
X215672312Y-186250471D02*
X215600884Y-186107614D01*
X215600884Y-186107614D02*
X215600884Y-185679042D01*
X215600884Y-185679042D02*
X215672312Y-185536185D01*
X215672312Y-185536185D02*
X215743741Y-185464757D01*
X215743741Y-185464757D02*
X215886598Y-185393328D01*
X215886598Y-185393328D02*
X216172312Y-185393328D01*
X216172312Y-185393328D02*
X216315170Y-185464757D01*
X217600884Y-186393328D02*
X217600884Y-185607614D01*
X217600884Y-185607614D02*
X217529455Y-185464757D01*
X217529455Y-185464757D02*
X217386598Y-185393328D01*
X217386598Y-185393328D02*
X217100884Y-185393328D01*
X217100884Y-185393328D02*
X216958026Y-185464757D01*
X217600884Y-186321900D02*
X217458026Y-186393328D01*
X217458026Y-186393328D02*
X217100884Y-186393328D01*
X217100884Y-186393328D02*
X216958026Y-186321900D01*
X216958026Y-186321900D02*
X216886598Y-186179042D01*
X216886598Y-186179042D02*
X216886598Y-186036185D01*
X216886598Y-186036185D02*
X216958026Y-185893328D01*
X216958026Y-185893328D02*
X217100884Y-185821900D01*
X217100884Y-185821900D02*
X217458026Y-185821900D01*
X217458026Y-185821900D02*
X217600884Y-185750471D01*
X218958027Y-186393328D02*
X218958027Y-184893328D01*
X218958027Y-186321900D02*
X218815169Y-186393328D01*
X218815169Y-186393328D02*
X218529455Y-186393328D01*
X218529455Y-186393328D02*
X218386598Y-186321900D01*
X218386598Y-186321900D02*
X218315169Y-186250471D01*
X218315169Y-186250471D02*
X218243741Y-186107614D01*
X218243741Y-186107614D02*
X218243741Y-185679042D01*
X218243741Y-185679042D02*
X218315169Y-185536185D01*
X218315169Y-185536185D02*
X218386598Y-185464757D01*
X218386598Y-185464757D02*
X218529455Y-185393328D01*
X218529455Y-185393328D02*
X218815169Y-185393328D01*
X218815169Y-185393328D02*
X218958027Y-185464757D01*
X219315170Y-186536185D02*
X220458027Y-186536185D01*
X220815169Y-185393328D02*
X220815169Y-186893328D01*
X220815169Y-185464757D02*
X220958027Y-185393328D01*
X220958027Y-185393328D02*
X221243741Y-185393328D01*
X221243741Y-185393328D02*
X221386598Y-185464757D01*
X221386598Y-185464757D02*
X221458027Y-185536185D01*
X221458027Y-185536185D02*
X221529455Y-185679042D01*
X221529455Y-185679042D02*
X221529455Y-186107614D01*
X221529455Y-186107614D02*
X221458027Y-186250471D01*
X221458027Y-186250471D02*
X221386598Y-186321900D01*
X221386598Y-186321900D02*
X221243741Y-186393328D01*
X221243741Y-186393328D02*
X220958027Y-186393328D01*
X220958027Y-186393328D02*
X220815169Y-186321900D01*
X222815170Y-186321900D02*
X222672312Y-186393328D01*
X222672312Y-186393328D02*
X222386598Y-186393328D01*
X222386598Y-186393328D02*
X222243741Y-186321900D01*
X222243741Y-186321900D02*
X222172312Y-186250471D01*
X222172312Y-186250471D02*
X222100884Y-186107614D01*
X222100884Y-186107614D02*
X222100884Y-185679042D01*
X222100884Y-185679042D02*
X222172312Y-185536185D01*
X222172312Y-185536185D02*
X222243741Y-185464757D01*
X222243741Y-185464757D02*
X222386598Y-185393328D01*
X222386598Y-185393328D02*
X222672312Y-185393328D01*
X222672312Y-185393328D02*
X222815170Y-185464757D01*
X223458026Y-186393328D02*
X223458026Y-184893328D01*
X223458026Y-185464757D02*
X223600884Y-185393328D01*
X223600884Y-185393328D02*
X223886598Y-185393328D01*
X223886598Y-185393328D02*
X224029455Y-185464757D01*
X224029455Y-185464757D02*
X224100884Y-185536185D01*
X224100884Y-185536185D02*
X224172312Y-185679042D01*
X224172312Y-185679042D02*
X224172312Y-186107614D01*
X224172312Y-186107614D02*
X224100884Y-186250471D01*
X224100884Y-186250471D02*
X224029455Y-186321900D01*
X224029455Y-186321900D02*
X223886598Y-186393328D01*
X223886598Y-186393328D02*
X223600884Y-186393328D01*
X223600884Y-186393328D02*
X223458026Y-186321900D01*
D10*
D11*
X177002200Y-181507200D02*
X285002200Y-181507200D01*
D10*
D11*
X178386598Y-183621900D02*
X178600884Y-183693328D01*
X178600884Y-183693328D02*
X178958026Y-183693328D01*
X178958026Y-183693328D02*
X179100884Y-183621900D01*
X179100884Y-183621900D02*
X179172312Y-183550471D01*
X179172312Y-183550471D02*
X179243741Y-183407614D01*
X179243741Y-183407614D02*
X179243741Y-183264757D01*
X179243741Y-183264757D02*
X179172312Y-183121900D01*
X179172312Y-183121900D02*
X179100884Y-183050471D01*
X179100884Y-183050471D02*
X178958026Y-182979042D01*
X178958026Y-182979042D02*
X178672312Y-182907614D01*
X178672312Y-182907614D02*
X178529455Y-182836185D01*
X178529455Y-182836185D02*
X178458026Y-182764757D01*
X178458026Y-182764757D02*
X178386598Y-182621900D01*
X178386598Y-182621900D02*
X178386598Y-182479042D01*
X178386598Y-182479042D02*
X178458026Y-182336185D01*
X178458026Y-182336185D02*
X178529455Y-182264757D01*
X178529455Y-182264757D02*
X178672312Y-182193328D01*
X178672312Y-182193328D02*
X179029455Y-182193328D01*
X179029455Y-182193328D02*
X179243741Y-182264757D01*
X179886597Y-183693328D02*
X179886597Y-182193328D01*
X180529455Y-183693328D02*
X180529455Y-182907614D01*
X180529455Y-182907614D02*
X180458026Y-182764757D01*
X180458026Y-182764757D02*
X180315169Y-182693328D01*
X180315169Y-182693328D02*
X180100883Y-182693328D01*
X180100883Y-182693328D02*
X179958026Y-182764757D01*
X179958026Y-182764757D02*
X179886597Y-182836185D01*
X181815169Y-183621900D02*
X181672312Y-183693328D01*
X181672312Y-183693328D02*
X181386598Y-183693328D01*
X181386598Y-183693328D02*
X181243740Y-183621900D01*
X181243740Y-183621900D02*
X181172312Y-183479042D01*
X181172312Y-183479042D02*
X181172312Y-182907614D01*
X181172312Y-182907614D02*
X181243740Y-182764757D01*
X181243740Y-182764757D02*
X181386598Y-182693328D01*
X181386598Y-182693328D02*
X181672312Y-182693328D01*
X181672312Y-182693328D02*
X181815169Y-182764757D01*
X181815169Y-182764757D02*
X181886598Y-182907614D01*
X181886598Y-182907614D02*
X181886598Y-183050471D01*
X181886598Y-183050471D02*
X181172312Y-183193328D01*
X183100883Y-183621900D02*
X182958026Y-183693328D01*
X182958026Y-183693328D02*
X182672312Y-183693328D01*
X182672312Y-183693328D02*
X182529454Y-183621900D01*
X182529454Y-183621900D02*
X182458026Y-183479042D01*
X182458026Y-183479042D02*
X182458026Y-182907614D01*
X182458026Y-182907614D02*
X182529454Y-182764757D01*
X182529454Y-182764757D02*
X182672312Y-182693328D01*
X182672312Y-182693328D02*
X182958026Y-182693328D01*
X182958026Y-182693328D02*
X183100883Y-182764757D01*
X183100883Y-182764757D02*
X183172312Y-182907614D01*
X183172312Y-182907614D02*
X183172312Y-183050471D01*
X183172312Y-183050471D02*
X182458026Y-183193328D01*
X183600883Y-182693328D02*
X184172311Y-182693328D01*
X183815168Y-182193328D02*
X183815168Y-183479042D01*
X183815168Y-183479042D02*
X183886597Y-183621900D01*
X183886597Y-183621900D02*
X184029454Y-183693328D01*
X184029454Y-183693328D02*
X184172311Y-183693328D01*
X184672311Y-183550471D02*
X184743740Y-183621900D01*
X184743740Y-183621900D02*
X184672311Y-183693328D01*
X184672311Y-183693328D02*
X184600883Y-183621900D01*
X184600883Y-183621900D02*
X184672311Y-183550471D01*
X184672311Y-183550471D02*
X184672311Y-183693328D01*
X184672311Y-182764757D02*
X184743740Y-182836185D01*
X184743740Y-182836185D02*
X184672311Y-182907614D01*
X184672311Y-182907614D02*
X184600883Y-182836185D01*
X184600883Y-182836185D02*
X184672311Y-182764757D01*
X184672311Y-182764757D02*
X184672311Y-182907614D01*
D10*
D12*
X178342425Y-179185528D02*
X179199568Y-179185528D01*
X178770996Y-180685528D02*
X178770996Y-179185528D01*
X179699567Y-180685528D02*
X179699567Y-179185528D01*
X180342425Y-180685528D02*
X180342425Y-179899814D01*
X180342425Y-179899814D02*
X180270996Y-179756957D01*
X180270996Y-179756957D02*
X180128139Y-179685528D01*
X180128139Y-179685528D02*
X179913853Y-179685528D01*
X179913853Y-179685528D02*
X179770996Y-179756957D01*
X179770996Y-179756957D02*
X179699567Y-179828385D01*
X181628139Y-180614100D02*
X181485282Y-180685528D01*
X181485282Y-180685528D02*
X181199568Y-180685528D01*
X181199568Y-180685528D02*
X181056710Y-180614100D01*
X181056710Y-180614100D02*
X180985282Y-180471242D01*
X180985282Y-180471242D02*
X180985282Y-179899814D01*
X180985282Y-179899814D02*
X181056710Y-179756957D01*
X181056710Y-179756957D02*
X181199568Y-179685528D01*
X181199568Y-179685528D02*
X181485282Y-179685528D01*
X181485282Y-179685528D02*
X181628139Y-179756957D01*
X181628139Y-179756957D02*
X181699568Y-179899814D01*
X181699568Y-179899814D02*
X181699568Y-180042671D01*
X181699568Y-180042671D02*
X180985282Y-180185528D01*
X183770996Y-179185528D02*
X184056710Y-179185528D01*
X184056710Y-179185528D02*
X184199567Y-179256957D01*
X184199567Y-179256957D02*
X184342424Y-179399814D01*
X184342424Y-179399814D02*
X184413853Y-179685528D01*
X184413853Y-179685528D02*
X184413853Y-180185528D01*
X184413853Y-180185528D02*
X184342424Y-180471242D01*
X184342424Y-180471242D02*
X184199567Y-180614100D01*
X184199567Y-180614100D02*
X184056710Y-180685528D01*
X184056710Y-180685528D02*
X183770996Y-180685528D01*
X183770996Y-180685528D02*
X183628139Y-180614100D01*
X183628139Y-180614100D02*
X183485281Y-180471242D01*
X183485281Y-180471242D02*
X183413853Y-180185528D01*
X183413853Y-180185528D02*
X183413853Y-179685528D01*
X183413853Y-179685528D02*
X183485281Y-179399814D01*
X183485281Y-179399814D02*
X183628139Y-179256957D01*
X183628139Y-179256957D02*
X183770996Y-179185528D01*
X185699568Y-180614100D02*
X185556710Y-180685528D01*
X185556710Y-180685528D02*
X185270996Y-180685528D01*
X185270996Y-180685528D02*
X185128139Y-180614100D01*
X185128139Y-180614100D02*
X185056710Y-180542671D01*
X185056710Y-180542671D02*
X184985282Y-180399814D01*
X184985282Y-180399814D02*
X184985282Y-179971242D01*
X184985282Y-179971242D02*
X185056710Y-179828385D01*
X185056710Y-179828385D02*
X185128139Y-179756957D01*
X185128139Y-179756957D02*
X185270996Y-179685528D01*
X185270996Y-179685528D02*
X185556710Y-179685528D01*
X185556710Y-179685528D02*
X185699568Y-179756957D01*
X186128139Y-179685528D02*
X186699567Y-179685528D01*
X186342424Y-179185528D02*
X186342424Y-180471242D01*
X186342424Y-180471242D02*
X186413853Y-180614100D01*
X186413853Y-180614100D02*
X186556710Y-180685528D01*
X186556710Y-180685528D02*
X186699567Y-180685528D01*
X187413853Y-180685528D02*
X187270996Y-180614100D01*
X187270996Y-180614100D02*
X187199567Y-180542671D01*
X187199567Y-180542671D02*
X187128139Y-180399814D01*
X187128139Y-180399814D02*
X187128139Y-179971242D01*
X187128139Y-179971242D02*
X187199567Y-179828385D01*
X187199567Y-179828385D02*
X187270996Y-179756957D01*
X187270996Y-179756957D02*
X187413853Y-179685528D01*
X187413853Y-179685528D02*
X187628139Y-179685528D01*
X187628139Y-179685528D02*
X187770996Y-179756957D01*
X187770996Y-179756957D02*
X187842425Y-179828385D01*
X187842425Y-179828385D02*
X187913853Y-179971242D01*
X187913853Y-179971242D02*
X187913853Y-180399814D01*
X187913853Y-180399814D02*
X187842425Y-180542671D01*
X187842425Y-180542671D02*
X187770996Y-180614100D01*
X187770996Y-180614100D02*
X187628139Y-180685528D01*
X187628139Y-180685528D02*
X187413853Y-180685528D01*
X188342425Y-179685528D02*
X188913853Y-179685528D01*
X188556710Y-179185528D02*
X188556710Y-180471242D01*
X188556710Y-180471242D02*
X188628139Y-180614100D01*
X188628139Y-180614100D02*
X188770996Y-180685528D01*
X188770996Y-180685528D02*
X188913853Y-180685528D01*
X189413853Y-180685528D02*
X189413853Y-179185528D01*
X190056711Y-180685528D02*
X190056711Y-179899814D01*
X190056711Y-179899814D02*
X189985282Y-179756957D01*
X189985282Y-179756957D02*
X189842425Y-179685528D01*
X189842425Y-179685528D02*
X189628139Y-179685528D01*
X189628139Y-179685528D02*
X189485282Y-179756957D01*
X189485282Y-179756957D02*
X189413853Y-179828385D01*
X190985282Y-180685528D02*
X190842425Y-180614100D01*
X190842425Y-180614100D02*
X190770996Y-180542671D01*
X190770996Y-180542671D02*
X190699568Y-180399814D01*
X190699568Y-180399814D02*
X190699568Y-179971242D01*
X190699568Y-179971242D02*
X190770996Y-179828385D01*
X190770996Y-179828385D02*
X190842425Y-179756957D01*
X190842425Y-179756957D02*
X190985282Y-179685528D01*
X190985282Y-179685528D02*
X191199568Y-179685528D01*
X191199568Y-179685528D02*
X191342425Y-179756957D01*
X191342425Y-179756957D02*
X191413854Y-179828385D01*
X191413854Y-179828385D02*
X191485282Y-179971242D01*
X191485282Y-179971242D02*
X191485282Y-180399814D01*
X191485282Y-180399814D02*
X191413854Y-180542671D01*
X191413854Y-180542671D02*
X191342425Y-180614100D01*
X191342425Y-180614100D02*
X191199568Y-180685528D01*
X191199568Y-180685528D02*
X190985282Y-180685528D01*
X192128139Y-180685528D02*
X192128139Y-179685528D01*
X192128139Y-179971242D02*
X192199568Y-179828385D01*
X192199568Y-179828385D02*
X192270997Y-179756957D01*
X192270997Y-179756957D02*
X192413854Y-179685528D01*
X192413854Y-179685528D02*
X192556711Y-179685528D01*
X193056710Y-179685528D02*
X193056710Y-181185528D01*
X193056710Y-179756957D02*
X193199568Y-179685528D01*
X193199568Y-179685528D02*
X193485282Y-179685528D01*
X193485282Y-179685528D02*
X193628139Y-179756957D01*
X193628139Y-179756957D02*
X193699568Y-179828385D01*
X193699568Y-179828385D02*
X193770996Y-179971242D01*
X193770996Y-179971242D02*
X193770996Y-180399814D01*
X193770996Y-180399814D02*
X193699568Y-180542671D01*
X193699568Y-180542671D02*
X193628139Y-180614100D01*
X193628139Y-180614100D02*
X193485282Y-180685528D01*
X193485282Y-180685528D02*
X193199568Y-180685528D01*
X193199568Y-180685528D02*
X193056710Y-180614100D01*
X194985282Y-180614100D02*
X194842425Y-180685528D01*
X194842425Y-180685528D02*
X194556711Y-180685528D01*
X194556711Y-180685528D02*
X194413853Y-180614100D01*
X194413853Y-180614100D02*
X194342425Y-180471242D01*
X194342425Y-180471242D02*
X194342425Y-179899814D01*
X194342425Y-179899814D02*
X194413853Y-179756957D01*
X194413853Y-179756957D02*
X194556711Y-179685528D01*
X194556711Y-179685528D02*
X194842425Y-179685528D01*
X194842425Y-179685528D02*
X194985282Y-179756957D01*
X194985282Y-179756957D02*
X195056711Y-179899814D01*
X195056711Y-179899814D02*
X195056711Y-180042671D01*
X195056711Y-180042671D02*
X194342425Y-180185528D01*
D10*
D11*
X197002200Y-191507200D02*
X197002200Y-194507200D01*
D10*
D11*
X261002200Y-191507200D02*
X261002200Y-198007200D01*
X188806621Y-111038837D02*
X188759002Y-110895980D01*
X188759002Y-110895980D02*
X188711383Y-110848361D01*
X188711383Y-110848361D02*
X188616145Y-110800742D01*
X188616145Y-110800742D02*
X188473288Y-110800742D01*
X188473288Y-110800742D02*
X188378050Y-110848361D01*
X188378050Y-110848361D02*
X188330431Y-110895980D01*
X188330431Y-110895980D02*
X188282811Y-110991218D01*
X188282811Y-110991218D02*
X188282811Y-111372170D01*
X188282811Y-111372170D02*
X189282811Y-111372170D01*
X189282811Y-111372170D02*
X189282811Y-111038837D01*
X189282811Y-111038837D02*
X189235192Y-110943599D01*
X189235192Y-110943599D02*
X189187573Y-110895980D01*
X189187573Y-110895980D02*
X189092335Y-110848361D01*
X189092335Y-110848361D02*
X188997097Y-110848361D01*
X188997097Y-110848361D02*
X188901859Y-110895980D01*
X188901859Y-110895980D02*
X188854240Y-110943599D01*
X188854240Y-110943599D02*
X188806621Y-111038837D01*
X188806621Y-111038837D02*
X188806621Y-111372170D01*
X188282811Y-110372170D02*
X188949478Y-110372170D01*
X188759002Y-110372170D02*
X188854240Y-110324551D01*
X188854240Y-110324551D02*
X188901859Y-110276932D01*
X188901859Y-110276932D02*
X188949478Y-110181694D01*
X188949478Y-110181694D02*
X188949478Y-110086456D01*
X188330431Y-109372170D02*
X188282811Y-109467408D01*
X188282811Y-109467408D02*
X188282811Y-109657884D01*
X188282811Y-109657884D02*
X188330431Y-109753122D01*
X188330431Y-109753122D02*
X188425669Y-109800741D01*
X188425669Y-109800741D02*
X188806621Y-109800741D01*
X188806621Y-109800741D02*
X188901859Y-109753122D01*
X188901859Y-109753122D02*
X188949478Y-109657884D01*
X188949478Y-109657884D02*
X188949478Y-109467408D01*
X188949478Y-109467408D02*
X188901859Y-109372170D01*
X188901859Y-109372170D02*
X188806621Y-109324551D01*
X188806621Y-109324551D02*
X188711383Y-109324551D01*
X188711383Y-109324551D02*
X188616145Y-109800741D01*
X188282811Y-108467408D02*
X188806621Y-108467408D01*
X188806621Y-108467408D02*
X188901859Y-108515027D01*
X188901859Y-108515027D02*
X188949478Y-108610265D01*
X188949478Y-108610265D02*
X188949478Y-108800741D01*
X188949478Y-108800741D02*
X188901859Y-108895979D01*
X188330431Y-108467408D02*
X188282811Y-108562646D01*
X188282811Y-108562646D02*
X188282811Y-108800741D01*
X188282811Y-108800741D02*
X188330431Y-108895979D01*
X188330431Y-108895979D02*
X188425669Y-108943598D01*
X188425669Y-108943598D02*
X188520907Y-108943598D01*
X188520907Y-108943598D02*
X188616145Y-108895979D01*
X188616145Y-108895979D02*
X188663764Y-108800741D01*
X188663764Y-108800741D02*
X188663764Y-108562646D01*
X188663764Y-108562646D02*
X188711383Y-108467408D01*
X188282811Y-107562646D02*
X189282811Y-107562646D01*
X188330431Y-107562646D02*
X188282811Y-107657884D01*
X188282811Y-107657884D02*
X188282811Y-107848360D01*
X188282811Y-107848360D02*
X188330431Y-107943598D01*
X188330431Y-107943598D02*
X188378050Y-107991217D01*
X188378050Y-107991217D02*
X188473288Y-108038836D01*
X188473288Y-108038836D02*
X188759002Y-108038836D01*
X188759002Y-108038836D02*
X188854240Y-107991217D01*
X188854240Y-107991217D02*
X188901859Y-107943598D01*
X188901859Y-107943598D02*
X188949478Y-107848360D01*
X188949478Y-107848360D02*
X188949478Y-107657884D01*
X188949478Y-107657884D02*
X188901859Y-107562646D01*
X188282811Y-107086455D02*
X189282811Y-107086455D01*
X188901859Y-107086455D02*
X188949478Y-106991217D01*
X188949478Y-106991217D02*
X188949478Y-106800741D01*
X188949478Y-106800741D02*
X188901859Y-106705503D01*
X188901859Y-106705503D02*
X188854240Y-106657884D01*
X188854240Y-106657884D02*
X188759002Y-106610265D01*
X188759002Y-106610265D02*
X188473288Y-106610265D01*
X188473288Y-106610265D02*
X188378050Y-106657884D01*
X188378050Y-106657884D02*
X188330431Y-106705503D01*
X188330431Y-106705503D02*
X188282811Y-106800741D01*
X188282811Y-106800741D02*
X188282811Y-106991217D01*
X188282811Y-106991217D02*
X188330431Y-107086455D01*
X188282811Y-106038836D02*
X188330431Y-106134074D01*
X188330431Y-106134074D02*
X188378050Y-106181693D01*
X188378050Y-106181693D02*
X188473288Y-106229312D01*
X188473288Y-106229312D02*
X188759002Y-106229312D01*
X188759002Y-106229312D02*
X188854240Y-106181693D01*
X188854240Y-106181693D02*
X188901859Y-106134074D01*
X188901859Y-106134074D02*
X188949478Y-106038836D01*
X188949478Y-106038836D02*
X188949478Y-105895979D01*
X188949478Y-105895979D02*
X188901859Y-105800741D01*
X188901859Y-105800741D02*
X188854240Y-105753122D01*
X188854240Y-105753122D02*
X188759002Y-105705503D01*
X188759002Y-105705503D02*
X188473288Y-105705503D01*
X188473288Y-105705503D02*
X188378050Y-105753122D01*
X188378050Y-105753122D02*
X188330431Y-105800741D01*
X188330431Y-105800741D02*
X188282811Y-105895979D01*
X188282811Y-105895979D02*
X188282811Y-106038836D01*
X188282811Y-104848360D02*
X188806621Y-104848360D01*
X188806621Y-104848360D02*
X188901859Y-104895979D01*
X188901859Y-104895979D02*
X188949478Y-104991217D01*
X188949478Y-104991217D02*
X188949478Y-105181693D01*
X188949478Y-105181693D02*
X188901859Y-105276931D01*
X188330431Y-104848360D02*
X188282811Y-104943598D01*
X188282811Y-104943598D02*
X188282811Y-105181693D01*
X188282811Y-105181693D02*
X188330431Y-105276931D01*
X188330431Y-105276931D02*
X188425669Y-105324550D01*
X188425669Y-105324550D02*
X188520907Y-105324550D01*
X188520907Y-105324550D02*
X188616145Y-105276931D01*
X188616145Y-105276931D02*
X188663764Y-105181693D01*
X188663764Y-105181693D02*
X188663764Y-104943598D01*
X188663764Y-104943598D02*
X188711383Y-104848360D01*
X188282811Y-104372169D02*
X188949478Y-104372169D01*
X188759002Y-104372169D02*
X188854240Y-104324550D01*
X188854240Y-104324550D02*
X188901859Y-104276931D01*
X188901859Y-104276931D02*
X188949478Y-104181693D01*
X188949478Y-104181693D02*
X188949478Y-104086455D01*
X188282811Y-103324550D02*
X189282811Y-103324550D01*
X188330431Y-103324550D02*
X188282811Y-103419788D01*
X188282811Y-103419788D02*
X188282811Y-103610264D01*
X188282811Y-103610264D02*
X188330431Y-103705502D01*
X188330431Y-103705502D02*
X188378050Y-103753121D01*
X188378050Y-103753121D02*
X188473288Y-103800740D01*
X188473288Y-103800740D02*
X188759002Y-103800740D01*
X188759002Y-103800740D02*
X188854240Y-103753121D01*
X188854240Y-103753121D02*
X188901859Y-103705502D01*
X188901859Y-103705502D02*
X188949478Y-103610264D01*
X188949478Y-103610264D02*
X188949478Y-103419788D01*
X188949478Y-103419788D02*
X188901859Y-103324550D01*
X186672867Y-111372170D02*
X187672867Y-111372170D01*
X187672867Y-111372170D02*
X187672867Y-110991218D01*
X187672867Y-110991218D02*
X187625248Y-110895980D01*
X187625248Y-110895980D02*
X187577629Y-110848361D01*
X187577629Y-110848361D02*
X187482391Y-110800742D01*
X187482391Y-110800742D02*
X187339534Y-110800742D01*
X187339534Y-110800742D02*
X187244296Y-110848361D01*
X187244296Y-110848361D02*
X187196677Y-110895980D01*
X187196677Y-110895980D02*
X187149058Y-110991218D01*
X187149058Y-110991218D02*
X187149058Y-111372170D01*
X186672867Y-110229313D02*
X186720487Y-110324551D01*
X186720487Y-110324551D02*
X186768106Y-110372170D01*
X186768106Y-110372170D02*
X186863344Y-110419789D01*
X186863344Y-110419789D02*
X187149058Y-110419789D01*
X187149058Y-110419789D02*
X187244296Y-110372170D01*
X187244296Y-110372170D02*
X187291915Y-110324551D01*
X187291915Y-110324551D02*
X187339534Y-110229313D01*
X187339534Y-110229313D02*
X187339534Y-110086456D01*
X187339534Y-110086456D02*
X187291915Y-109991218D01*
X187291915Y-109991218D02*
X187244296Y-109943599D01*
X187244296Y-109943599D02*
X187149058Y-109895980D01*
X187149058Y-109895980D02*
X186863344Y-109895980D01*
X186863344Y-109895980D02*
X186768106Y-109943599D01*
X186768106Y-109943599D02*
X186720487Y-109991218D01*
X186720487Y-109991218D02*
X186672867Y-110086456D01*
X186672867Y-110086456D02*
X186672867Y-110229313D01*
X187339534Y-109562646D02*
X186672867Y-109372170D01*
X186672867Y-109372170D02*
X187149058Y-109181694D01*
X187149058Y-109181694D02*
X186672867Y-108991218D01*
X186672867Y-108991218D02*
X187339534Y-108800742D01*
X186720487Y-108038837D02*
X186672867Y-108134075D01*
X186672867Y-108134075D02*
X186672867Y-108324551D01*
X186672867Y-108324551D02*
X186720487Y-108419789D01*
X186720487Y-108419789D02*
X186815725Y-108467408D01*
X186815725Y-108467408D02*
X187196677Y-108467408D01*
X187196677Y-108467408D02*
X187291915Y-108419789D01*
X187291915Y-108419789D02*
X187339534Y-108324551D01*
X187339534Y-108324551D02*
X187339534Y-108134075D01*
X187339534Y-108134075D02*
X187291915Y-108038837D01*
X187291915Y-108038837D02*
X187196677Y-107991218D01*
X187196677Y-107991218D02*
X187101439Y-107991218D01*
X187101439Y-107991218D02*
X187006201Y-108467408D01*
X186672867Y-107562646D02*
X187339534Y-107562646D01*
X187149058Y-107562646D02*
X187244296Y-107515027D01*
X187244296Y-107515027D02*
X187291915Y-107467408D01*
X187291915Y-107467408D02*
X187339534Y-107372170D01*
X187339534Y-107372170D02*
X187339534Y-107276932D01*
X186720487Y-106229312D02*
X186672867Y-106086455D01*
X186672867Y-106086455D02*
X186672867Y-105848360D01*
X186672867Y-105848360D02*
X186720487Y-105753122D01*
X186720487Y-105753122D02*
X186768106Y-105705503D01*
X186768106Y-105705503D02*
X186863344Y-105657884D01*
X186863344Y-105657884D02*
X186958582Y-105657884D01*
X186958582Y-105657884D02*
X187053820Y-105705503D01*
X187053820Y-105705503D02*
X187101439Y-105753122D01*
X187101439Y-105753122D02*
X187149058Y-105848360D01*
X187149058Y-105848360D02*
X187196677Y-106038836D01*
X187196677Y-106038836D02*
X187244296Y-106134074D01*
X187244296Y-106134074D02*
X187291915Y-106181693D01*
X187291915Y-106181693D02*
X187387153Y-106229312D01*
X187387153Y-106229312D02*
X187482391Y-106229312D01*
X187482391Y-106229312D02*
X187577629Y-106181693D01*
X187577629Y-106181693D02*
X187625248Y-106134074D01*
X187625248Y-106134074D02*
X187672867Y-106038836D01*
X187672867Y-106038836D02*
X187672867Y-105800741D01*
X187672867Y-105800741D02*
X187625248Y-105657884D01*
X187339534Y-104800741D02*
X186672867Y-104800741D01*
X187339534Y-105229312D02*
X186815725Y-105229312D01*
X186815725Y-105229312D02*
X186720487Y-105181693D01*
X186720487Y-105181693D02*
X186672867Y-105086455D01*
X186672867Y-105086455D02*
X186672867Y-104943598D01*
X186672867Y-104943598D02*
X186720487Y-104848360D01*
X186720487Y-104848360D02*
X186768106Y-104800741D01*
X187339534Y-104324550D02*
X186339534Y-104324550D01*
X187291915Y-104324550D02*
X187339534Y-104229312D01*
X187339534Y-104229312D02*
X187339534Y-104038836D01*
X187339534Y-104038836D02*
X187291915Y-103943598D01*
X187291915Y-103943598D02*
X187244296Y-103895979D01*
X187244296Y-103895979D02*
X187149058Y-103848360D01*
X187149058Y-103848360D02*
X186863344Y-103848360D01*
X186863344Y-103848360D02*
X186768106Y-103895979D01*
X186768106Y-103895979D02*
X186720487Y-103943598D01*
X186720487Y-103943598D02*
X186672867Y-104038836D01*
X186672867Y-104038836D02*
X186672867Y-104229312D01*
X186672867Y-104229312D02*
X186720487Y-104324550D01*
X187339534Y-103419788D02*
X186339534Y-103419788D01*
X187291915Y-103419788D02*
X187339534Y-103324550D01*
X187339534Y-103324550D02*
X187339534Y-103134074D01*
X187339534Y-103134074D02*
X187291915Y-103038836D01*
X187291915Y-103038836D02*
X187244296Y-102991217D01*
X187244296Y-102991217D02*
X187149058Y-102943598D01*
X187149058Y-102943598D02*
X186863344Y-102943598D01*
X186863344Y-102943598D02*
X186768106Y-102991217D01*
X186768106Y-102991217D02*
X186720487Y-103038836D01*
X186720487Y-103038836D02*
X186672867Y-103134074D01*
X186672867Y-103134074D02*
X186672867Y-103324550D01*
X186672867Y-103324550D02*
X186720487Y-103419788D01*
X186672867Y-102372169D02*
X186720487Y-102467407D01*
X186720487Y-102467407D02*
X186815725Y-102515026D01*
X186815725Y-102515026D02*
X187672867Y-102515026D01*
X187339534Y-102086454D02*
X186672867Y-101848359D01*
X187339534Y-101610264D02*
X186672867Y-101848359D01*
X186672867Y-101848359D02*
X186434772Y-101943597D01*
X186434772Y-101943597D02*
X186387153Y-101991216D01*
X186387153Y-101991216D02*
X186339534Y-102086454D01*
X191834485Y-107718065D02*
X191167818Y-107479970D01*
X191167818Y-107479970D02*
X191834485Y-107241875D01*
X192167818Y-106670446D02*
X192167818Y-106575208D01*
X192167818Y-106575208D02*
X192120199Y-106479970D01*
X192120199Y-106479970D02*
X192072580Y-106432351D01*
X192072580Y-106432351D02*
X191977342Y-106384732D01*
X191977342Y-106384732D02*
X191786866Y-106337113D01*
X191786866Y-106337113D02*
X191548771Y-106337113D01*
X191548771Y-106337113D02*
X191358295Y-106384732D01*
X191358295Y-106384732D02*
X191263057Y-106432351D01*
X191263057Y-106432351D02*
X191215438Y-106479970D01*
X191215438Y-106479970D02*
X191167818Y-106575208D01*
X191167818Y-106575208D02*
X191167818Y-106670446D01*
X191167818Y-106670446D02*
X191215438Y-106765684D01*
X191215438Y-106765684D02*
X191263057Y-106813303D01*
X191263057Y-106813303D02*
X191358295Y-106860922D01*
X191358295Y-106860922D02*
X191548771Y-106908541D01*
X191548771Y-106908541D02*
X191786866Y-106908541D01*
X191786866Y-106908541D02*
X191977342Y-106860922D01*
X191977342Y-106860922D02*
X192072580Y-106813303D01*
X192072580Y-106813303D02*
X192120199Y-106765684D01*
X192120199Y-106765684D02*
X192167818Y-106670446D01*
X191263057Y-105908541D02*
X191215438Y-105860922D01*
X191215438Y-105860922D02*
X191167818Y-105908541D01*
X191167818Y-105908541D02*
X191215438Y-105956160D01*
X191215438Y-105956160D02*
X191263057Y-105908541D01*
X191263057Y-105908541D02*
X191167818Y-105908541D01*
X191167818Y-104908542D02*
X191167818Y-105479970D01*
X191167818Y-105194256D02*
X192167818Y-105194256D01*
X192167818Y-105194256D02*
X192024961Y-105289494D01*
X192024961Y-105289494D02*
X191929723Y-105384732D01*
X191929723Y-105384732D02*
X191882104Y-105479970D01*
D14*
X194501097Y-106243001D02*
G75*
G02*
X189576669Y-106243001I-2462214J0D01*
G01*
X189576669Y-106243001D02*
G75*
G02*
X194501097Y-106243001I2462214J0D01*
G01*
D15*
%TO.C,G\u002A\u002A\u002A*%
G36*
X171136892Y-136362957D02*
G01*
X171152510Y-136385812D01*
X171161240Y-136439703D01*
X171163955Y-136528930D01*
X171163955Y-136696367D01*
X170877489Y-136766358D01*
X170591023Y-136836348D01*
X170591023Y-136660280D01*
X170591023Y-136484211D01*
X170843454Y-136422852D01*
X170909658Y-136407040D01*
X171012819Y-136383609D01*
X171090613Y-136367490D01*
X171129920Y-136361492D01*
X171136892Y-136362957D01*
G37*
G36*
X170513221Y-130970305D02*
G01*
X170523288Y-130971588D01*
X170553947Y-130982182D01*
X170569833Y-131006271D01*
X170571464Y-131050161D01*
X170559362Y-131120158D01*
X170534048Y-131222568D01*
X170514298Y-131284253D01*
X170480543Y-131342240D01*
X170439677Y-131362848D01*
X170390125Y-131347445D01*
X170383591Y-131343876D01*
X170310425Y-131323261D01*
X170204121Y-131312337D01*
X170082376Y-131312095D01*
X169962886Y-131323526D01*
X169957979Y-131324290D01*
X169870272Y-131335463D01*
X169820581Y-131334386D01*
X169795491Y-131320843D01*
X169779100Y-131285443D01*
X169773671Y-131232890D01*
X169781178Y-131183666D01*
X169801026Y-131155546D01*
X169820927Y-131152165D01*
X169866646Y-131165196D01*
X169907579Y-131175716D01*
X169995588Y-131182047D01*
X170117814Y-131181839D01*
X170331839Y-131175991D01*
X170327415Y-131081378D01*
X170326668Y-131061254D01*
X170330043Y-131011884D01*
X170347680Y-130987098D01*
X170386026Y-130975222D01*
X170432367Y-130969904D01*
X170513221Y-130970305D01*
G37*
G36*
X171756971Y-135067639D02*
G01*
X171776479Y-135119363D01*
X171786332Y-135207158D01*
X171788302Y-135292421D01*
X171785284Y-135377181D01*
X171777840Y-135440842D01*
X171775023Y-135454347D01*
X171759755Y-135501095D01*
X171733783Y-135521168D01*
X171685198Y-135525442D01*
X171676345Y-135525394D01*
X171608448Y-135518504D01*
X171592259Y-135499615D01*
X171627276Y-135468230D01*
X171660285Y-135438493D01*
X171687502Y-135386101D01*
X171695964Y-135336336D01*
X171450421Y-135337680D01*
X171404104Y-135338201D01*
X171290306Y-135341709D01*
X171197909Y-135347596D01*
X171143493Y-135354931D01*
X171140899Y-135355599D01*
X171101691Y-135361470D01*
X171085367Y-135345543D01*
X171082108Y-135298845D01*
X171082108Y-135226853D01*
X171395857Y-135226853D01*
X171709605Y-135226853D01*
X171709605Y-135178077D01*
X171699161Y-135143227D01*
X171661861Y-135108771D01*
X171651127Y-135104006D01*
X171629417Y-135086657D01*
X171655040Y-135067994D01*
X171675903Y-135058538D01*
X171724536Y-135048519D01*
X171756971Y-135067639D01*
G37*
G36*
X170318720Y-131474677D02*
G01*
X170394131Y-131495695D01*
X170458312Y-131541611D01*
X170516000Y-131626414D01*
X170536458Y-131729685D01*
X170533233Y-131766091D01*
X170492430Y-131854940D01*
X170409470Y-131923100D01*
X170290300Y-131966779D01*
X170188644Y-131977257D01*
X170140862Y-131982182D01*
X170114581Y-131981818D01*
X169975535Y-131963276D01*
X169871470Y-131915432D01*
X169798286Y-131836544D01*
X169774622Y-131794307D01*
X169753595Y-131723042D01*
X169883758Y-131723042D01*
X169910249Y-131786930D01*
X169925117Y-131799655D01*
X169990618Y-131822768D01*
X170083846Y-131834075D01*
X170188644Y-131834081D01*
X170288854Y-131823289D01*
X170368319Y-131802202D01*
X170410882Y-131771325D01*
X170426868Y-131719082D01*
X170416187Y-131661371D01*
X170374557Y-131624575D01*
X170315357Y-131611231D01*
X170216814Y-131604248D01*
X170107481Y-131606218D01*
X170008825Y-131616626D01*
X169942314Y-131634957D01*
X169903511Y-131665152D01*
X169883758Y-131723042D01*
X169753595Y-131723042D01*
X169745011Y-131693947D01*
X169764367Y-131610762D01*
X169833045Y-131543959D01*
X169951399Y-131492741D01*
X169984490Y-131484151D01*
X170093447Y-131468769D01*
X170211675Y-131465656D01*
X170318720Y-131474677D01*
G37*
G36*
X170318720Y-133106965D02*
G01*
X170394131Y-133127983D01*
X170456274Y-133172423D01*
X170512588Y-133251294D01*
X170536724Y-133341381D01*
X170525894Y-133430062D01*
X170477312Y-133504715D01*
X170404600Y-133554533D01*
X170277307Y-133598813D01*
X170188644Y-133608034D01*
X170126742Y-133614471D01*
X170122141Y-133614457D01*
X169981765Y-133597799D01*
X169874112Y-133549390D01*
X169798286Y-133468832D01*
X169774622Y-133426595D01*
X169753595Y-133355330D01*
X169883758Y-133355330D01*
X169910249Y-133419218D01*
X169925117Y-133431944D01*
X169990618Y-133455056D01*
X170083846Y-133466363D01*
X170188644Y-133466369D01*
X170288854Y-133455577D01*
X170368319Y-133434491D01*
X170410882Y-133403614D01*
X170426868Y-133351371D01*
X170416187Y-133293660D01*
X170374557Y-133256864D01*
X170315357Y-133243519D01*
X170216814Y-133236536D01*
X170107481Y-133238506D01*
X170008825Y-133248914D01*
X169942314Y-133267245D01*
X169903511Y-133297440D01*
X169883758Y-133355330D01*
X169753595Y-133355330D01*
X169745011Y-133326235D01*
X169764367Y-133243051D01*
X169833045Y-133176247D01*
X169951399Y-133125030D01*
X169984490Y-133116440D01*
X170093447Y-133101057D01*
X170211675Y-133097944D01*
X170318720Y-133106965D01*
G37*
G36*
X171202648Y-134363074D02*
G01*
X171235184Y-134380648D01*
X171241807Y-134412434D01*
X171204879Y-134437813D01*
X171186252Y-134448366D01*
X171166508Y-134486387D01*
X171169037Y-134530914D01*
X171195377Y-134561870D01*
X171223003Y-134564394D01*
X171260440Y-134540856D01*
X171261416Y-134539281D01*
X171358684Y-134539281D01*
X171394246Y-134550050D01*
X171418519Y-134547100D01*
X171453931Y-134523535D01*
X171449603Y-134489366D01*
X171434015Y-134479771D01*
X171393428Y-134491803D01*
X171366333Y-134512743D01*
X171358684Y-134539281D01*
X171261416Y-134539281D01*
X171289000Y-134494785D01*
X171300368Y-134436138D01*
X171301701Y-134415883D01*
X171325205Y-134368876D01*
X171375714Y-134356167D01*
X171450199Y-134378913D01*
X171460928Y-134384335D01*
X171525405Y-134439011D01*
X171543013Y-134502358D01*
X171514203Y-134564464D01*
X171439426Y-134615414D01*
X171434738Y-134617402D01*
X171394246Y-134627864D01*
X171320849Y-134646828D01*
X171212830Y-134641096D01*
X171121791Y-134600720D01*
X171095453Y-134580035D01*
X171061841Y-134537207D01*
X171062169Y-134488440D01*
X171094357Y-134420022D01*
X171109584Y-134393821D01*
X171134125Y-134361026D01*
X171160116Y-134353423D01*
X171202648Y-134363074D01*
G37*
G36*
X171290727Y-134713085D02*
G01*
X171407672Y-134724430D01*
X171502198Y-134751990D01*
X171549841Y-134795974D01*
X171552843Y-134857619D01*
X171548443Y-134878026D01*
X171555016Y-134898688D01*
X171590340Y-134906893D01*
X171667313Y-134908358D01*
X171720677Y-134908772D01*
X171770810Y-134913898D01*
X171788236Y-134929941D01*
X171786444Y-134963099D01*
X171782702Y-134980787D01*
X171759359Y-135010307D01*
X171702785Y-135016596D01*
X171668905Y-135016079D01*
X171582666Y-135014863D01*
X171467670Y-135013306D01*
X171339394Y-135011620D01*
X171267805Y-135010635D01*
X171164178Y-135008269D01*
X171100938Y-135003960D01*
X171068706Y-134996080D01*
X171058103Y-134983002D01*
X171059748Y-134963099D01*
X171066396Y-134943418D01*
X171089062Y-134926351D01*
X171139545Y-134917273D01*
X171231218Y-134912213D01*
X171282401Y-134909599D01*
X171387002Y-134896274D01*
X171445717Y-134872424D01*
X171464063Y-134836249D01*
X171452177Y-134821585D01*
X171402694Y-134811669D01*
X171307188Y-134808523D01*
X171221854Y-134806402D01*
X171132996Y-134795120D01*
X171091031Y-134773021D01*
X171092128Y-134738864D01*
X171102505Y-134725628D01*
X171132465Y-134713688D01*
X171190935Y-134710061D01*
X171290727Y-134713085D01*
G37*
G36*
X170343425Y-133704094D02*
G01*
X170377727Y-133743859D01*
X170381857Y-133750341D01*
X170399325Y-133770908D01*
X170426346Y-133783651D01*
X170474172Y-133790438D01*
X170554056Y-133793139D01*
X170677250Y-133793624D01*
X170945695Y-133793624D01*
X170945695Y-133861496D01*
X170945695Y-133929369D01*
X170755484Y-133952778D01*
X170652117Y-133962515D01*
X170552032Y-133966432D01*
X170483025Y-133963006D01*
X170444614Y-133958269D01*
X170399937Y-133965800D01*
X170368750Y-134001114D01*
X170363914Y-134008424D01*
X170322683Y-134045315D01*
X170281450Y-134047279D01*
X170250293Y-134013281D01*
X170217052Y-133983107D01*
X170132504Y-133962583D01*
X170130965Y-133962406D01*
X170034692Y-133951432D01*
X169944246Y-133941245D01*
X169873496Y-133922741D01*
X169801013Y-133879776D01*
X169755828Y-133818927D01*
X169749966Y-133759321D01*
X169787034Y-133713489D01*
X169810825Y-133702518D01*
X169835455Y-133710436D01*
X169861221Y-133750864D01*
X169877475Y-133779045D01*
X169904397Y-133802317D01*
X169951460Y-133811755D01*
X170035855Y-133813530D01*
X170077129Y-133813184D01*
X170148778Y-133807383D01*
X170194999Y-133789634D01*
X170236351Y-133753812D01*
X170259791Y-133731060D01*
X170306743Y-133699642D01*
X170343425Y-133704094D01*
G37*
G36*
X169835455Y-132675327D02*
G01*
X169861221Y-132715754D01*
X169868429Y-132728687D01*
X169897677Y-132760888D01*
X169943376Y-132776320D01*
X170017639Y-132777218D01*
X170132580Y-132765817D01*
X170160258Y-132761899D01*
X170219495Y-132743463D01*
X170241710Y-132711294D01*
X170254206Y-132687192D01*
X170295382Y-132669571D01*
X170345702Y-132678523D01*
X170386053Y-132713726D01*
X170386512Y-132714487D01*
X170402710Y-132734921D01*
X170428722Y-132747821D01*
X170475734Y-132754908D01*
X170554932Y-132757899D01*
X170677501Y-132758514D01*
X170791218Y-132759058D01*
X170873623Y-132761852D01*
X170922014Y-132768452D01*
X170947141Y-132780411D01*
X170959752Y-132799282D01*
X170964279Y-132827524D01*
X170946444Y-132867339D01*
X170910340Y-132884214D01*
X170830740Y-132903073D01*
X170728795Y-132918120D01*
X170622235Y-132927386D01*
X170528786Y-132928901D01*
X170466177Y-132920694D01*
X170434205Y-132911737D01*
X170397994Y-132916257D01*
X170366934Y-132951884D01*
X170360881Y-132960537D01*
X170317030Y-133002665D01*
X170275939Y-133011191D01*
X170245176Y-132984112D01*
X170220197Y-132949893D01*
X170167702Y-132925179D01*
X170078600Y-132918067D01*
X170026218Y-132915129D01*
X169921921Y-132895811D01*
X169831846Y-132863726D01*
X169776164Y-132825074D01*
X169753157Y-132783539D01*
X169751329Y-132723505D01*
X169787034Y-132678379D01*
X169810825Y-132667409D01*
X169835455Y-132675327D01*
G37*
G36*
X170595548Y-134797670D02*
G01*
X170746796Y-134826532D01*
X170860473Y-134878358D01*
X170942298Y-134955787D01*
X170997993Y-135061461D01*
X171012511Y-135113225D01*
X171009133Y-135219653D01*
X170958124Y-135310710D01*
X170862280Y-135384611D01*
X170724398Y-135439569D01*
X170547275Y-135473801D01*
X170333708Y-135485519D01*
X170286179Y-135483933D01*
X170168973Y-135480023D01*
X170025439Y-135459137D01*
X169918821Y-135419773D01*
X169841302Y-135358911D01*
X169785061Y-135273529D01*
X169769965Y-135239188D01*
X169745146Y-135126196D01*
X169749972Y-135097276D01*
X169884157Y-135097276D01*
X169891219Y-135182620D01*
X169929465Y-135266665D01*
X169977167Y-135336336D01*
X170263633Y-135340768D01*
X170286179Y-135341055D01*
X170504139Y-135335710D01*
X170672108Y-135314881D01*
X170789983Y-135278589D01*
X170857658Y-135226853D01*
X170873028Y-135198586D01*
X170882732Y-135118714D01*
X170856090Y-135036943D01*
X170797051Y-134970015D01*
X170770219Y-134951664D01*
X170731745Y-134933593D01*
X170681373Y-134923796D01*
X170604890Y-134919962D01*
X170488085Y-134919780D01*
X170336623Y-134925379D01*
X170184516Y-134940843D01*
X170055717Y-134964201D01*
X169960618Y-134993529D01*
X169909614Y-135026902D01*
X169884157Y-135097276D01*
X169749972Y-135097276D01*
X169761791Y-135026448D01*
X169819178Y-134946852D01*
X169882337Y-134900382D01*
X170020464Y-134837945D01*
X170194271Y-134801232D01*
X170407953Y-134789116D01*
X170595548Y-134797670D01*
G37*
G36*
X169984513Y-134171830D02*
G01*
X170001715Y-134183925D01*
X170039395Y-134221607D01*
X170028272Y-134250568D01*
X169966832Y-134280073D01*
X169900931Y-134315196D01*
X169863728Y-134370093D01*
X169878040Y-134434330D01*
X169944135Y-134505262D01*
X169951292Y-134510658D01*
X170030355Y-134543640D01*
X170123315Y-134548391D01*
X170218762Y-134529682D01*
X170305287Y-134492287D01*
X170371479Y-134440980D01*
X170405928Y-134380533D01*
X170397225Y-134315720D01*
X170375961Y-134261489D01*
X170384326Y-134219458D01*
X170430798Y-134190388D01*
X170445104Y-134185322D01*
X170490794Y-134181228D01*
X170518803Y-134205852D01*
X170531180Y-134262592D01*
X170529974Y-134354845D01*
X170525861Y-134402261D01*
X170512387Y-134466096D01*
X170485207Y-134514692D01*
X170437313Y-134563858D01*
X170435631Y-134565367D01*
X170345079Y-134627324D01*
X170236202Y-134674392D01*
X170125916Y-134700859D01*
X170099938Y-134700901D01*
X170031133Y-134701014D01*
X169998990Y-134692381D01*
X169914547Y-134648519D01*
X169860606Y-134602485D01*
X170077482Y-134602485D01*
X170099938Y-134609768D01*
X170114381Y-134608332D01*
X170118126Y-134596498D01*
X170114128Y-134594115D01*
X170081750Y-134596498D01*
X170077482Y-134602485D01*
X169860606Y-134602485D01*
X169836769Y-134582142D01*
X169780293Y-134504703D01*
X169761082Y-134444328D01*
X169760826Y-134337417D01*
X169791383Y-134211649D01*
X169803399Y-134185061D01*
X169848565Y-134143134D01*
X169910696Y-134138361D01*
X169984513Y-134171830D01*
G37*
G36*
X170313877Y-129729513D02*
G01*
X170428464Y-129769919D01*
X170514043Y-129838407D01*
X170555851Y-129929492D01*
X170558819Y-129982052D01*
X170530891Y-130052108D01*
X170458488Y-130110380D01*
X170336576Y-130162213D01*
X170290485Y-130176835D01*
X170258379Y-130183237D01*
X170134274Y-130207984D01*
X170000366Y-130202909D01*
X169888295Y-130161542D01*
X169797595Y-130083817D01*
X169763621Y-130035738D01*
X169748446Y-129984617D01*
X169756238Y-129923055D01*
X169786404Y-129838021D01*
X169795652Y-129817116D01*
X169843035Y-129749914D01*
X169901111Y-129721314D01*
X169968485Y-129731626D01*
X170043762Y-129781157D01*
X170058040Y-129796381D01*
X170052112Y-129815111D01*
X170001149Y-129833254D01*
X169941660Y-129854130D01*
X169895219Y-129892612D01*
X169882096Y-129952770D01*
X169890473Y-129995572D01*
X169936012Y-130037305D01*
X170020628Y-130051304D01*
X170037759Y-130050889D01*
X170083236Y-130041070D01*
X170094412Y-130029500D01*
X170237415Y-130029500D01*
X170258379Y-130046317D01*
X170311225Y-130041909D01*
X170314901Y-130041224D01*
X170401823Y-130015203D01*
X170448046Y-129981231D01*
X170449477Y-129945134D01*
X170402022Y-129912734D01*
X170353901Y-129900996D01*
X170291257Y-129912640D01*
X170253053Y-129958128D01*
X170243853Y-129985003D01*
X170237415Y-130029500D01*
X170094412Y-130029500D01*
X170110489Y-130012856D01*
X170123742Y-129959176D01*
X170127221Y-129872960D01*
X170127625Y-129848723D01*
X170139010Y-129773069D01*
X170170166Y-129730811D01*
X170226615Y-129717707D01*
X170313877Y-129729513D01*
G37*
G36*
X170036943Y-132074981D02*
G01*
X170133473Y-132079941D01*
X170279037Y-132091311D01*
X170383934Y-132107257D01*
X170457242Y-132130119D01*
X170508039Y-132162233D01*
X170545404Y-132205938D01*
X170550124Y-132213033D01*
X170577238Y-132261708D01*
X170578206Y-132297650D01*
X170554316Y-132340304D01*
X170513358Y-132400207D01*
X170742648Y-132400207D01*
X170840557Y-132400596D01*
X170915393Y-132403400D01*
X170957285Y-132410982D01*
X170977934Y-132425704D01*
X170989042Y-132449928D01*
X170995799Y-132470121D01*
X171002080Y-132499608D01*
X170995884Y-132521767D01*
X170971197Y-132537644D01*
X170922009Y-132548288D01*
X170842305Y-132554744D01*
X170727435Y-132558020D01*
X170726073Y-132558059D01*
X170567302Y-132559280D01*
X170359978Y-132559455D01*
X169745266Y-132559455D01*
X169745266Y-132479831D01*
X169745266Y-132452642D01*
X170704979Y-132452642D01*
X170727435Y-132459925D01*
X170741879Y-132458489D01*
X170745624Y-132446654D01*
X170741625Y-132444272D01*
X170709247Y-132446654D01*
X170704979Y-132452642D01*
X169745266Y-132452642D01*
X169745266Y-132400207D01*
X170014411Y-132400207D01*
X170082983Y-132399974D01*
X170190793Y-132397428D01*
X170263442Y-132390794D01*
X170313976Y-132378494D01*
X170355443Y-132358951D01*
X170395120Y-132329537D01*
X170425181Y-132280928D01*
X170417055Y-132237617D01*
X170369704Y-132210392D01*
X170348614Y-132207438D01*
X170274671Y-132203576D01*
X170169703Y-132202354D01*
X170049134Y-132204074D01*
X169786189Y-132211101D01*
X169777759Y-132136909D01*
X169769329Y-132062718D01*
X170036943Y-132074981D01*
G37*
G36*
X170387863Y-130323475D02*
G01*
X170501703Y-130380272D01*
X170512456Y-130388390D01*
X170577383Y-130462170D01*
X170589174Y-130542079D01*
X170548369Y-130631019D01*
X170523304Y-130685006D01*
X170521038Y-130744489D01*
X170522298Y-130748937D01*
X170529159Y-130784937D01*
X170522192Y-130811358D01*
X170494607Y-130829755D01*
X170439616Y-130841685D01*
X170350428Y-130848704D01*
X170220255Y-130852370D01*
X170139992Y-130853212D01*
X170042308Y-130854237D01*
X169862784Y-130856779D01*
X169702755Y-130862357D01*
X169593722Y-130870688D01*
X169537414Y-130881678D01*
X169495915Y-130894044D01*
X169461129Y-130892372D01*
X169456187Y-130884742D01*
X169449607Y-130845652D01*
X169450721Y-130788566D01*
X169458800Y-130698248D01*
X169622495Y-130698248D01*
X169786189Y-130698248D01*
X169793559Y-130585626D01*
X169881920Y-130585626D01*
X169911146Y-130653460D01*
X169925129Y-130666166D01*
X169962923Y-130679713D01*
X170030429Y-130686463D01*
X170139992Y-130688295D01*
X170211934Y-130688081D01*
X170288465Y-130685147D01*
X170334989Y-130675623D01*
X170366457Y-130655620D01*
X170397820Y-130621251D01*
X170439634Y-130561433D01*
X170449790Y-130506654D01*
X170413875Y-130469597D01*
X170330007Y-130448590D01*
X170196307Y-130441959D01*
X170177424Y-130442059D01*
X170042419Y-130451298D01*
X169952903Y-130476009D01*
X169897843Y-130522052D01*
X169881920Y-130585626D01*
X169793559Y-130585626D01*
X169794291Y-130574433D01*
X169797898Y-130532128D01*
X169810573Y-130473002D01*
X169836953Y-130430886D01*
X169884392Y-130390788D01*
X169979688Y-130338501D01*
X170113277Y-130302821D01*
X170253862Y-130297735D01*
X170387863Y-130323475D01*
G37*
G36*
X171346942Y-135506325D02*
G01*
X171422148Y-135537606D01*
X171448169Y-135550457D01*
X171533146Y-135599424D01*
X171600475Y-135647450D01*
X171668681Y-135705658D01*
X171798115Y-135673436D01*
X171856552Y-135659578D01*
X171917939Y-135651559D01*
X171973534Y-135659499D01*
X172050371Y-135684596D01*
X172122443Y-135712134D01*
X172203394Y-135755918D01*
X172249075Y-135808337D01*
X172266705Y-135879364D01*
X172263506Y-135978972D01*
X172259401Y-136017813D01*
X172244906Y-136093867D01*
X172216670Y-136147517D01*
X172165161Y-136187453D01*
X172080847Y-136222364D01*
X171954194Y-136260942D01*
X171918394Y-136271498D01*
X171843625Y-136296188D01*
X171804109Y-136313609D01*
X171807821Y-136320517D01*
X171836825Y-136324830D01*
X171911324Y-136350660D01*
X171996704Y-136392148D01*
X172075752Y-136440449D01*
X172131252Y-136486715D01*
X172150780Y-136512436D01*
X172157602Y-136542314D01*
X172146767Y-136584477D01*
X172117218Y-136651335D01*
X172091972Y-136699180D01*
X172021839Y-136785162D01*
X171924044Y-136845733D01*
X171785508Y-136890314D01*
X171656792Y-136921634D01*
X171649095Y-137142092D01*
X171647204Y-137193097D01*
X171642654Y-137273672D01*
X171635234Y-137326550D01*
X171622476Y-137359912D01*
X171601914Y-137381937D01*
X171571081Y-137400804D01*
X171510055Y-137427123D01*
X171385776Y-137460399D01*
X171212577Y-137489983D01*
X171159313Y-137490101D01*
X171091961Y-137470754D01*
X171001138Y-137426931D01*
X170989444Y-137420656D01*
X170918861Y-137380318D01*
X170881349Y-137348167D01*
X170866486Y-137311282D01*
X170863848Y-137256740D01*
X170862257Y-137215519D01*
X170849204Y-137163653D01*
X170821104Y-137147059D01*
X170775698Y-137163345D01*
X170764961Y-137172637D01*
X170742819Y-137216062D01*
X170723165Y-137292983D01*
X170705080Y-137406555D01*
X170703307Y-137419867D01*
X170689538Y-137513566D01*
X170676017Y-137577000D01*
X170659523Y-137618628D01*
X170636840Y-137646911D01*
X170604750Y-137670309D01*
X170602613Y-137671634D01*
X170534206Y-137702376D01*
X170470149Y-137714927D01*
X170469279Y-137715097D01*
X170455864Y-137713793D01*
X170393834Y-137694869D01*
X170309983Y-137658357D01*
X170215743Y-137610607D01*
X170122545Y-137557967D01*
X170041822Y-137506788D01*
X169985005Y-137463417D01*
X169963526Y-137434204D01*
X169958269Y-137412141D01*
X169930533Y-137398960D01*
X169871148Y-137403942D01*
X169771429Y-137426749D01*
X169742399Y-137433833D01*
X169660783Y-137446014D01*
X169588713Y-137438619D01*
X169510651Y-137408437D01*
X169411055Y-137352255D01*
X169350306Y-137313750D01*
X169305696Y-137275510D01*
X169288692Y-137237813D01*
X169581571Y-137237813D01*
X169583964Y-137291727D01*
X169591904Y-137338709D01*
X169603477Y-137356790D01*
X169630408Y-137351722D01*
X169699350Y-137335400D01*
X169798361Y-137310492D01*
X169916231Y-137279758D01*
X170022130Y-137252695D01*
X170121677Y-137229421D01*
X170191808Y-137215542D01*
X170221714Y-137213405D01*
X170223304Y-137215477D01*
X170229935Y-137246291D01*
X170234592Y-137304213D01*
X170236351Y-137378785D01*
X170236351Y-137533486D01*
X170311350Y-137529738D01*
X170326422Y-137529238D01*
X170376048Y-137537778D01*
X170395095Y-137570779D01*
X170414744Y-137603891D01*
X170470149Y-137615568D01*
X170513359Y-137614383D01*
X170538102Y-137610591D01*
X170538162Y-137610332D01*
X170540794Y-137587107D01*
X170546300Y-137532511D01*
X170553911Y-137454316D01*
X170562859Y-137360292D01*
X170563463Y-137353921D01*
X170573403Y-137260033D01*
X170583514Y-137181924D01*
X170592645Y-137127582D01*
X170599645Y-137104993D01*
X170606275Y-137101549D01*
X170653495Y-137085187D01*
X170731606Y-137062199D01*
X170827003Y-137036133D01*
X170926083Y-137010535D01*
X171015243Y-136988955D01*
X171080880Y-136974940D01*
X171109390Y-136972038D01*
X171114846Y-136988404D01*
X171122375Y-137037608D01*
X171129990Y-137111003D01*
X171136673Y-137200067D01*
X171139770Y-137248342D01*
X171146005Y-137327090D01*
X171153185Y-137374802D01*
X171163300Y-137397471D01*
X171178341Y-137401091D01*
X171200298Y-137391655D01*
X171207160Y-137387448D01*
X171236005Y-137353352D01*
X171259766Y-137291800D01*
X171280999Y-137196615D01*
X171311717Y-137028342D01*
X171333516Y-137167684D01*
X171345470Y-137239832D01*
X171359181Y-137301886D01*
X171374378Y-137337226D01*
X171394493Y-137353109D01*
X171422958Y-137356790D01*
X171441904Y-137354193D01*
X171476800Y-137327726D01*
X171500629Y-137270399D01*
X171514276Y-137179386D01*
X171518628Y-137051862D01*
X171518628Y-136849056D01*
X171702785Y-136802353D01*
X171795644Y-136777950D01*
X171879671Y-136751369D01*
X171927933Y-136726432D01*
X171949927Y-136697788D01*
X171955148Y-136660082D01*
X171965267Y-136617947D01*
X171996071Y-136580458D01*
X171998638Y-136578862D01*
X172031258Y-136544978D01*
X172032279Y-136514236D01*
X172000850Y-136500834D01*
X171996684Y-136501044D01*
X171947214Y-136509186D01*
X171864553Y-136526789D01*
X171764170Y-136550599D01*
X171743677Y-136555654D01*
X171648244Y-136578366D01*
X171575585Y-136594333D01*
X171540069Y-136600364D01*
X171535583Y-136596991D01*
X171527376Y-136564666D01*
X171523369Y-136505420D01*
X171524386Y-136428298D01*
X171532269Y-136256232D01*
X171818735Y-136184450D01*
X171897604Y-136164563D01*
X171996509Y-136138186D01*
X172058320Y-136117710D01*
X172092278Y-136098897D01*
X172107628Y-136077513D01*
X172113613Y-136049321D01*
X172114850Y-136008271D01*
X172092920Y-135987474D01*
X172031765Y-135979110D01*
X171941506Y-135972245D01*
X172043816Y-135934263D01*
X172056654Y-135929280D01*
X172121748Y-135894022D01*
X172146125Y-135860157D01*
X172143775Y-135842595D01*
X172130161Y-135830288D01*
X172097345Y-135829037D01*
X172037468Y-135839786D01*
X171942671Y-135863475D01*
X171805094Y-135901048D01*
X171532269Y-135976737D01*
X171525197Y-135875502D01*
X171517544Y-135790077D01*
X171505430Y-135731102D01*
X171484955Y-135699221D01*
X171451717Y-135687862D01*
X171401317Y-135690452D01*
X171323473Y-135703053D01*
X171238982Y-135722262D01*
X171204949Y-135733208D01*
X171181653Y-135749198D01*
X171169438Y-135778097D01*
X171164730Y-135828872D01*
X171163955Y-135910491D01*
X171163955Y-136077559D01*
X170911592Y-136147419D01*
X170841066Y-136166381D01*
X170742845Y-136190674D01*
X170671427Y-136205636D01*
X170638767Y-136208587D01*
X170637361Y-136207644D01*
X170627707Y-136180487D01*
X170620889Y-136125536D01*
X170618305Y-136053403D01*
X170617348Y-135980982D01*
X170609119Y-135906538D01*
X170586285Y-135863051D01*
X170541587Y-135845307D01*
X170467766Y-135848097D01*
X170357562Y-135866207D01*
X170236351Y-135888476D01*
X170236351Y-136113031D01*
X170236351Y-136337587D01*
X169979541Y-136403801D01*
X169722730Y-136470015D01*
X169704465Y-136576677D01*
X169698099Y-136619357D01*
X169693863Y-136668587D01*
X169696468Y-136690831D01*
X169706604Y-136690901D01*
X169758663Y-136682517D01*
X169843985Y-136665137D01*
X169950644Y-136641094D01*
X170010304Y-136627523D01*
X170109389Y-136607086D01*
X170181963Y-136594918D01*
X170215451Y-136593289D01*
X170223295Y-136605856D01*
X170231372Y-136649526D01*
X170235242Y-136712256D01*
X170234726Y-136781778D01*
X170229645Y-136845823D01*
X170219819Y-136892123D01*
X170203093Y-136913696D01*
X170158534Y-136937809D01*
X170078458Y-136964830D01*
X169954188Y-136998224D01*
X169894655Y-137013635D01*
X169784164Y-137044137D01*
X169695218Y-137071120D01*
X169642956Y-137090114D01*
X169623692Y-137100289D01*
X169597014Y-137126164D01*
X169584612Y-137168063D01*
X169581571Y-137237813D01*
X169288692Y-137237813D01*
X169287173Y-137234446D01*
X169289972Y-137178543D01*
X169309326Y-137095783D01*
X169330537Y-137033512D01*
X169370795Y-136973146D01*
X169435520Y-136925354D01*
X169534410Y-136883408D01*
X169677162Y-136840581D01*
X169711708Y-136831154D01*
X169798860Y-136806081D01*
X169840357Y-136790757D01*
X169840927Y-136782964D01*
X169805297Y-136780485D01*
X169742909Y-136775850D01*
X169614163Y-136738644D01*
X169489387Y-136663069D01*
X169458611Y-136638121D01*
X169428580Y-136602262D01*
X169418903Y-136559022D01*
X169423390Y-136492399D01*
X169432165Y-136439348D01*
X169457573Y-136378212D01*
X169506410Y-136331612D01*
X169588464Y-136291344D01*
X169713519Y-136249205D01*
X169721306Y-136246813D01*
X169811764Y-136217343D01*
X169880040Y-136192156D01*
X169911880Y-136176479D01*
X169915186Y-136170394D01*
X169924977Y-136131275D01*
X169935154Y-136066625D01*
X169943981Y-135986710D01*
X169946873Y-135956857D01*
X169956530Y-135877932D01*
X169966962Y-135816028D01*
X169976364Y-135782513D01*
X169977706Y-135780208D01*
X170024511Y-135744649D01*
X170110804Y-135711685D01*
X170222491Y-135685587D01*
X170345481Y-135670627D01*
X170418479Y-135667064D01*
X170484047Y-135671562D01*
X170539820Y-135691749D01*
X170610487Y-135733482D01*
X170701258Y-135804709D01*
X170743115Y-135874725D01*
X170743798Y-135877322D01*
X170768780Y-135927645D01*
X170809400Y-135943467D01*
X170836738Y-135940115D01*
X170868946Y-135916680D01*
X170886082Y-135865813D01*
X170891130Y-135781603D01*
X170895813Y-135713245D01*
X170922379Y-135638392D01*
X170979524Y-135583333D01*
X171075243Y-135541308D01*
X171217529Y-135505556D01*
X171225041Y-135504030D01*
X171289420Y-135496415D01*
X171346942Y-135506325D01*
G37*
D16*
%TO.C,REF\u002A\u002A*%
X173868470Y-112847136D02*
X173964780Y-112873399D01*
X174053506Y-112918418D01*
X174128581Y-112979373D01*
X174188359Y-113054184D01*
X174231191Y-113140768D01*
X174255429Y-113237043D01*
X174259424Y-113340928D01*
X174249150Y-113418562D01*
X174221947Y-113501313D01*
X174176516Y-113576406D01*
X174110698Y-113648298D01*
X174066433Y-113686846D01*
X174008039Y-113726256D01*
X173947414Y-113751446D01*
X173878135Y-113764861D01*
X173793778Y-113768948D01*
X173747693Y-113768669D01*
X173706550Y-113766460D01*
X173674418Y-113760894D01*
X173643878Y-113750586D01*
X173607511Y-113734148D01*
X173580272Y-113720200D01*
X173494571Y-113661665D01*
X173425383Y-113589619D01*
X173374259Y-113505947D01*
X173342750Y-113412531D01*
X173335775Y-113379434D01*
X173328906Y-113338960D01*
X173327081Y-113305999D01*
X173330053Y-113271698D01*
X173337574Y-113227200D01*
X173349998Y-113175934D01*
X173387888Y-113085434D01*
X173442164Y-113006345D01*
X173510230Y-112940528D01*
X173589489Y-112889840D01*
X173677346Y-112856140D01*
X173771205Y-112841286D01*
X173868470Y-112847136D01*
G36*
X173868470Y-112847136D02*
G01*
X173964780Y-112873399D01*
X174053506Y-112918418D01*
X174128581Y-112979373D01*
X174188359Y-113054184D01*
X174231191Y-113140768D01*
X174255429Y-113237043D01*
X174259424Y-113340928D01*
X174249150Y-113418562D01*
X174221947Y-113501313D01*
X174176516Y-113576406D01*
X174110698Y-113648298D01*
X174066433Y-113686846D01*
X174008039Y-113726256D01*
X173947414Y-113751446D01*
X173878135Y-113764861D01*
X173793778Y-113768948D01*
X173747693Y-113768669D01*
X173706550Y-113766460D01*
X173674418Y-113760894D01*
X173643878Y-113750586D01*
X173607511Y-113734148D01*
X173580272Y-113720200D01*
X173494571Y-113661665D01*
X173425383Y-113589619D01*
X173374259Y-113505947D01*
X173342750Y-113412531D01*
X173335775Y-113379434D01*
X173328906Y-113338960D01*
X173327081Y-113305999D01*
X173330053Y-113271698D01*
X173337574Y-113227200D01*
X173349998Y-113175934D01*
X173387888Y-113085434D01*
X173442164Y-113006345D01*
X173510230Y-112940528D01*
X173589489Y-112889840D01*
X173677346Y-112856140D01*
X173771205Y-112841286D01*
X173868470Y-112847136D01*
G37*
X170138016Y-109699076D02*
X170157921Y-109710250D01*
X170193580Y-109731134D01*
X170242541Y-109760265D01*
X170302354Y-109796181D01*
X170370567Y-109837420D01*
X170444729Y-109882517D01*
X170741992Y-110063785D01*
X170697461Y-110110315D01*
X170619135Y-110201723D01*
X170544561Y-110315334D01*
X170490526Y-110433122D01*
X170457710Y-110553559D01*
X170446789Y-110675117D01*
X170448132Y-110716585D01*
X170466388Y-110834080D01*
X170505383Y-110944089D01*
X170564330Y-111045430D01*
X170642443Y-111136921D01*
X170738936Y-111217380D01*
X170853022Y-111285627D01*
X170887276Y-111301908D01*
X171010760Y-111347982D01*
X171149082Y-111383106D01*
X171298439Y-111407197D01*
X171455027Y-111420173D01*
X171615044Y-111421949D01*
X171774686Y-111412443D01*
X171930150Y-111391572D01*
X172077634Y-111359252D01*
X172213333Y-111315399D01*
X172299924Y-111277982D01*
X172413312Y-111213185D01*
X172506930Y-111137772D01*
X172581041Y-111051418D01*
X172635906Y-110953795D01*
X172671788Y-110844577D01*
X172688949Y-110723439D01*
X172690120Y-110654038D01*
X172675859Y-110531168D01*
X172640759Y-110415664D01*
X172585318Y-110308953D01*
X172510036Y-110212464D01*
X172495560Y-110196720D01*
X172469038Y-110166150D01*
X172451862Y-110143809D01*
X172447213Y-110133691D01*
X172449403Y-110131706D01*
X172468279Y-110117241D01*
X172501603Y-110093400D01*
X172546620Y-110062029D01*
X172600575Y-110024974D01*
X172660715Y-109984083D01*
X172724282Y-109941202D01*
X172788524Y-109898178D01*
X172850685Y-109856857D01*
X172908009Y-109819086D01*
X172957743Y-109786712D01*
X172997132Y-109761582D01*
X173023420Y-109745542D01*
X173033853Y-109740439D01*
X173038059Y-109745050D01*
X173043067Y-109764267D01*
X173045614Y-109773838D01*
X173056751Y-109801809D01*
X173075198Y-109843448D01*
X173099275Y-109894995D01*
X173127301Y-109952690D01*
X173132846Y-109963957D01*
X173212111Y-110141687D01*
X173271615Y-110311490D01*
X173311755Y-110475430D01*
X173332929Y-110635571D01*
X173335534Y-110793977D01*
X173319967Y-110952711D01*
X173302477Y-111048268D01*
X173257436Y-111212558D01*
X173194344Y-111366589D01*
X173112085Y-111512509D01*
X173009543Y-111652466D01*
X172885601Y-111788608D01*
X172840339Y-111832473D01*
X172708135Y-111944758D01*
X172570168Y-112037972D01*
X172422250Y-112114719D01*
X172260197Y-112177603D01*
X172248609Y-112181420D01*
X172062608Y-112231507D01*
X171866479Y-112264899D01*
X171664432Y-112281584D01*
X171460675Y-112281551D01*
X171259419Y-112264791D01*
X171064872Y-112231292D01*
X170881244Y-112181044D01*
X170763947Y-112137190D01*
X170601049Y-112059348D01*
X170447134Y-111965828D01*
X170305329Y-111858822D01*
X170178761Y-111740519D01*
X170070559Y-111613111D01*
X170017880Y-111535606D01*
X169948250Y-111408725D01*
X169889532Y-111271243D01*
X169844413Y-111129716D01*
X169815578Y-110990702D01*
X169813894Y-110976597D01*
X169810566Y-110933153D01*
X169807725Y-110875723D01*
X169805627Y-110810122D01*
X169804532Y-110742167D01*
X169806860Y-110615378D01*
X169819864Y-110467673D01*
X169844867Y-110329779D01*
X169882682Y-110196014D01*
X169891111Y-110172562D01*
X169910592Y-110124612D01*
X169935527Y-110068140D01*
X169964278Y-110006379D01*
X169995210Y-109942563D01*
X170026685Y-109879926D01*
X170057066Y-109821703D01*
X170084717Y-109771127D01*
X170108001Y-109731433D01*
X170125282Y-109705854D01*
X170134921Y-109697625D01*
X170138016Y-109699076D01*
G36*
X170138016Y-109699076D02*
G01*
X170157921Y-109710250D01*
X170193580Y-109731134D01*
X170242541Y-109760265D01*
X170302354Y-109796181D01*
X170370567Y-109837420D01*
X170444729Y-109882517D01*
X170741992Y-110063785D01*
X170697461Y-110110315D01*
X170619135Y-110201723D01*
X170544561Y-110315334D01*
X170490526Y-110433122D01*
X170457710Y-110553559D01*
X170446789Y-110675117D01*
X170448132Y-110716585D01*
X170466388Y-110834080D01*
X170505383Y-110944089D01*
X170564330Y-111045430D01*
X170642443Y-111136921D01*
X170738936Y-111217380D01*
X170853022Y-111285627D01*
X170887276Y-111301908D01*
X171010760Y-111347982D01*
X171149082Y-111383106D01*
X171298439Y-111407197D01*
X171455027Y-111420173D01*
X171615044Y-111421949D01*
X171774686Y-111412443D01*
X171930150Y-111391572D01*
X172077634Y-111359252D01*
X172213333Y-111315399D01*
X172299924Y-111277982D01*
X172413312Y-111213185D01*
X172506930Y-111137772D01*
X172581041Y-111051418D01*
X172635906Y-110953795D01*
X172671788Y-110844577D01*
X172688949Y-110723439D01*
X172690120Y-110654038D01*
X172675859Y-110531168D01*
X172640759Y-110415664D01*
X172585318Y-110308953D01*
X172510036Y-110212464D01*
X172495560Y-110196720D01*
X172469038Y-110166150D01*
X172451862Y-110143809D01*
X172447213Y-110133691D01*
X172449403Y-110131706D01*
X172468279Y-110117241D01*
X172501603Y-110093400D01*
X172546620Y-110062029D01*
X172600575Y-110024974D01*
X172660715Y-109984083D01*
X172724282Y-109941202D01*
X172788524Y-109898178D01*
X172850685Y-109856857D01*
X172908009Y-109819086D01*
X172957743Y-109786712D01*
X172997132Y-109761582D01*
X173023420Y-109745542D01*
X173033853Y-109740439D01*
X173038059Y-109745050D01*
X173043067Y-109764267D01*
X173045614Y-109773838D01*
X173056751Y-109801809D01*
X173075198Y-109843448D01*
X173099275Y-109894995D01*
X173127301Y-109952690D01*
X173132846Y-109963957D01*
X173212111Y-110141687D01*
X173271615Y-110311490D01*
X173311755Y-110475430D01*
X173332929Y-110635571D01*
X173335534Y-110793977D01*
X173319967Y-110952711D01*
X173302477Y-111048268D01*
X173257436Y-111212558D01*
X173194344Y-111366589D01*
X173112085Y-111512509D01*
X173009543Y-111652466D01*
X172885601Y-111788608D01*
X172840339Y-111832473D01*
X172708135Y-111944758D01*
X172570168Y-112037972D01*
X172422250Y-112114719D01*
X172260197Y-112177603D01*
X172248609Y-112181420D01*
X172062608Y-112231507D01*
X171866479Y-112264899D01*
X171664432Y-112281584D01*
X171460675Y-112281551D01*
X171259419Y-112264791D01*
X171064872Y-112231292D01*
X170881244Y-112181044D01*
X170763947Y-112137190D01*
X170601049Y-112059348D01*
X170447134Y-111965828D01*
X170305329Y-111858822D01*
X170178761Y-111740519D01*
X170070559Y-111613111D01*
X170017880Y-111535606D01*
X169948250Y-111408725D01*
X169889532Y-111271243D01*
X169844413Y-111129716D01*
X169815578Y-110990702D01*
X169813894Y-110976597D01*
X169810566Y-110933153D01*
X169807725Y-110875723D01*
X169805627Y-110810122D01*
X169804532Y-110742167D01*
X169806860Y-110615378D01*
X169819864Y-110467673D01*
X169844867Y-110329779D01*
X169882682Y-110196014D01*
X169891111Y-110172562D01*
X169910592Y-110124612D01*
X169935527Y-110068140D01*
X169964278Y-110006379D01*
X169995210Y-109942563D01*
X170026685Y-109879926D01*
X170057066Y-109821703D01*
X170084717Y-109771127D01*
X170108001Y-109731433D01*
X170125282Y-109705854D01*
X170134921Y-109697625D01*
X170138016Y-109699076D01*
G37*
X169909026Y-104710161D02*
X169918132Y-104715355D01*
X169932751Y-104723715D01*
X169946827Y-104731288D01*
X169961460Y-104738112D01*
X169977751Y-104744227D01*
X169996802Y-104749673D01*
X170019714Y-104754487D01*
X170047587Y-104758708D01*
X170081522Y-104762377D01*
X170122621Y-104765531D01*
X170171985Y-104768211D01*
X170230714Y-104770454D01*
X170299910Y-104772299D01*
X170380674Y-104773787D01*
X170474106Y-104774955D01*
X170581308Y-104775844D01*
X170703380Y-104776491D01*
X170841424Y-104776936D01*
X170996541Y-104777218D01*
X171169832Y-104777375D01*
X171362397Y-104777448D01*
X171575338Y-104777474D01*
X171809755Y-104777493D01*
X173494622Y-104777689D01*
X173494622Y-105683017D01*
X173457933Y-105658585D01*
X173448353Y-105652318D01*
X173402019Y-105626208D01*
X173354898Y-105608469D01*
X173299749Y-105596908D01*
X173229333Y-105589331D01*
X173222350Y-105588839D01*
X173184359Y-105587062D01*
X173130424Y-105585444D01*
X173063297Y-105583999D01*
X172985729Y-105582740D01*
X172900472Y-105581680D01*
X172810276Y-105580829D01*
X172717893Y-105580203D01*
X172626075Y-105579812D01*
X172537573Y-105579670D01*
X172455138Y-105579790D01*
X172381521Y-105580183D01*
X172319474Y-105580862D01*
X172271749Y-105581841D01*
X172241096Y-105583132D01*
X172230267Y-105584747D01*
X172234667Y-105592957D01*
X172249638Y-105614647D01*
X172271552Y-105644014D01*
X172305764Y-105692879D01*
X172352286Y-105781125D01*
X172385954Y-105879916D01*
X172407769Y-105992510D01*
X172418735Y-106122164D01*
X172419781Y-106214670D01*
X172409986Y-106336011D01*
X172385826Y-106446099D01*
X172346215Y-106549389D01*
X172290068Y-106650338D01*
X172259117Y-106695503D01*
X172167885Y-106800911D01*
X172058894Y-106892538D01*
X171932274Y-106970332D01*
X171788155Y-107034241D01*
X171626668Y-107084214D01*
X171447941Y-107120198D01*
X171252105Y-107142143D01*
X171096066Y-107147900D01*
X171039289Y-107149994D01*
X170961842Y-107149268D01*
X170810406Y-107140689D01*
X170673717Y-107121833D01*
X170547724Y-107091837D01*
X170428375Y-107049836D01*
X170311619Y-106994969D01*
X170200821Y-106928167D01*
X170087261Y-106837363D01*
X169991789Y-106733708D01*
X169914927Y-106617887D01*
X169857203Y-106490586D01*
X169819142Y-106352489D01*
X169813334Y-106314793D01*
X169807604Y-106235752D01*
X169807417Y-106147629D01*
X169812461Y-106058236D01*
X169822422Y-105975384D01*
X169827112Y-105953331D01*
X170420459Y-105953331D01*
X170428635Y-106037900D01*
X170456195Y-106111219D01*
X170503358Y-106173637D01*
X170570342Y-106225502D01*
X170657367Y-106267160D01*
X170764650Y-106298962D01*
X170776991Y-106301545D01*
X170838228Y-106310000D01*
X170915308Y-106315663D01*
X171002998Y-106318576D01*
X171096066Y-106318783D01*
X171189280Y-106316330D01*
X171277406Y-106311261D01*
X171355212Y-106303619D01*
X171417467Y-106293448D01*
X171423334Y-106292167D01*
X171533879Y-106263126D01*
X171624425Y-106228610D01*
X171697047Y-106187456D01*
X171753819Y-106138499D01*
X171796816Y-106080574D01*
X171812385Y-106048620D01*
X171831278Y-105975784D01*
X171834535Y-105894443D01*
X171822611Y-105809319D01*
X171795960Y-105725133D01*
X171755038Y-105646608D01*
X171711470Y-105579200D01*
X170561279Y-105579200D01*
X170514911Y-105649756D01*
X170491209Y-105690417D01*
X170465361Y-105744546D01*
X170447171Y-105793689D01*
X170431449Y-105857165D01*
X170420459Y-105953331D01*
X169827112Y-105953331D01*
X169836988Y-105906887D01*
X169846636Y-105876035D01*
X169876877Y-105798730D01*
X169914383Y-105721679D01*
X169955386Y-105652200D01*
X169996121Y-105597615D01*
X170015495Y-105574916D01*
X170033338Y-105552201D01*
X170040222Y-105540779D01*
X170038576Y-105539537D01*
X170020795Y-105536728D01*
X169987630Y-105534776D01*
X169944267Y-105534045D01*
X169848311Y-105534045D01*
X169848311Y-104675896D01*
X169909026Y-104710161D01*
G36*
X169909026Y-104710161D02*
G01*
X169918132Y-104715355D01*
X169932751Y-104723715D01*
X169946827Y-104731288D01*
X169961460Y-104738112D01*
X169977751Y-104744227D01*
X169996802Y-104749673D01*
X170019714Y-104754487D01*
X170047587Y-104758708D01*
X170081522Y-104762377D01*
X170122621Y-104765531D01*
X170171985Y-104768211D01*
X170230714Y-104770454D01*
X170299910Y-104772299D01*
X170380674Y-104773787D01*
X170474106Y-104774955D01*
X170581308Y-104775844D01*
X170703380Y-104776491D01*
X170841424Y-104776936D01*
X170996541Y-104777218D01*
X171169832Y-104777375D01*
X171362397Y-104777448D01*
X171575338Y-104777474D01*
X171809755Y-104777493D01*
X173494622Y-104777689D01*
X173494622Y-105683017D01*
X173457933Y-105658585D01*
X173448353Y-105652318D01*
X173402019Y-105626208D01*
X173354898Y-105608469D01*
X173299749Y-105596908D01*
X173229333Y-105589331D01*
X173222350Y-105588839D01*
X173184359Y-105587062D01*
X173130424Y-105585444D01*
X173063297Y-105583999D01*
X172985729Y-105582740D01*
X172900472Y-105581680D01*
X172810276Y-105580829D01*
X172717893Y-105580203D01*
X172626075Y-105579812D01*
X172537573Y-105579670D01*
X172455138Y-105579790D01*
X172381521Y-105580183D01*
X172319474Y-105580862D01*
X172271749Y-105581841D01*
X172241096Y-105583132D01*
X172230267Y-105584747D01*
X172234667Y-105592957D01*
X172249638Y-105614647D01*
X172271552Y-105644014D01*
X172305764Y-105692879D01*
X172352286Y-105781125D01*
X172385954Y-105879916D01*
X172407769Y-105992510D01*
X172418735Y-106122164D01*
X172419781Y-106214670D01*
X172409986Y-106336011D01*
X172385826Y-106446099D01*
X172346215Y-106549389D01*
X172290068Y-106650338D01*
X172259117Y-106695503D01*
X172167885Y-106800911D01*
X172058894Y-106892538D01*
X171932274Y-106970332D01*
X171788155Y-107034241D01*
X171626668Y-107084214D01*
X171447941Y-107120198D01*
X171252105Y-107142143D01*
X171096066Y-107147900D01*
X171039289Y-107149994D01*
X170961842Y-107149268D01*
X170810406Y-107140689D01*
X170673717Y-107121833D01*
X170547724Y-107091837D01*
X170428375Y-107049836D01*
X170311619Y-106994969D01*
X170200821Y-106928167D01*
X170087261Y-106837363D01*
X169991789Y-106733708D01*
X169914927Y-106617887D01*
X169857203Y-106490586D01*
X169819142Y-106352489D01*
X169813334Y-106314793D01*
X169807604Y-106235752D01*
X169807417Y-106147629D01*
X169812461Y-106058236D01*
X169822422Y-105975384D01*
X169827112Y-105953331D01*
X170420459Y-105953331D01*
X170428635Y-106037900D01*
X170456195Y-106111219D01*
X170503358Y-106173637D01*
X170570342Y-106225502D01*
X170657367Y-106267160D01*
X170764650Y-106298962D01*
X170776991Y-106301545D01*
X170838228Y-106310000D01*
X170915308Y-106315663D01*
X171002998Y-106318576D01*
X171096066Y-106318783D01*
X171189280Y-106316330D01*
X171277406Y-106311261D01*
X171355212Y-106303619D01*
X171417467Y-106293448D01*
X171423334Y-106292167D01*
X171533879Y-106263126D01*
X171624425Y-106228610D01*
X171697047Y-106187456D01*
X171753819Y-106138499D01*
X171796816Y-106080574D01*
X171812385Y-106048620D01*
X171831278Y-105975784D01*
X171834535Y-105894443D01*
X171822611Y-105809319D01*
X171795960Y-105725133D01*
X171755038Y-105646608D01*
X171711470Y-105579200D01*
X170561279Y-105579200D01*
X170514911Y-105649756D01*
X170491209Y-105690417D01*
X170465361Y-105744546D01*
X170447171Y-105793689D01*
X170431449Y-105857165D01*
X170420459Y-105953331D01*
X169827112Y-105953331D01*
X169836988Y-105906887D01*
X169846636Y-105876035D01*
X169876877Y-105798730D01*
X169914383Y-105721679D01*
X169955386Y-105652200D01*
X169996121Y-105597615D01*
X170015495Y-105574916D01*
X170033338Y-105552201D01*
X170040222Y-105540779D01*
X170038576Y-105539537D01*
X170020795Y-105536728D01*
X169987630Y-105534776D01*
X169944267Y-105534045D01*
X169848311Y-105534045D01*
X169848311Y-104675896D01*
X169909026Y-104710161D01*
G37*
X169858537Y-107351578D02*
X169874090Y-107358614D01*
X169896929Y-107374434D01*
X169902362Y-107378734D01*
X169916394Y-107389777D01*
X169929814Y-107399311D01*
X169944278Y-107407461D01*
X169961444Y-107414352D01*
X169982966Y-107420111D01*
X170010502Y-107424862D01*
X170045708Y-107428731D01*
X170090240Y-107431844D01*
X170145754Y-107434325D01*
X170213907Y-107436300D01*
X170296355Y-107437894D01*
X170394754Y-107439234D01*
X170510761Y-107440444D01*
X170646032Y-107441649D01*
X170802222Y-107442975D01*
X170944988Y-107444228D01*
X171090058Y-107445651D01*
X171215973Y-107447176D01*
X171324564Y-107448933D01*
X171417666Y-107451051D01*
X171497109Y-107453660D01*
X171564727Y-107456890D01*
X171622351Y-107460869D01*
X171671815Y-107465728D01*
X171714950Y-107471597D01*
X171753590Y-107478604D01*
X171789566Y-107486880D01*
X171824711Y-107496554D01*
X171860858Y-107507756D01*
X171899839Y-107520616D01*
X171942909Y-107536090D01*
X172035129Y-107578994D01*
X172114901Y-107632735D01*
X172189035Y-107701576D01*
X172252595Y-107779185D01*
X172314275Y-107883761D01*
X172361798Y-108003244D01*
X172395433Y-108138508D01*
X172415448Y-108290426D01*
X172422111Y-108459872D01*
X172421713Y-108517890D01*
X172419665Y-108583398D01*
X172415296Y-108644693D01*
X172407965Y-108706097D01*
X172397031Y-108771932D01*
X172381853Y-108846520D01*
X172361791Y-108934184D01*
X172336203Y-109039245D01*
X172329180Y-109067806D01*
X172311224Y-109143054D01*
X172295180Y-109213388D01*
X172281972Y-109274567D01*
X172272526Y-109322354D01*
X172267769Y-109352511D01*
X172264090Y-109380783D01*
X172258813Y-109407060D01*
X172254058Y-109417059D01*
X172245219Y-109413952D01*
X172217928Y-109403194D01*
X172175094Y-109385864D01*
X172119575Y-109363126D01*
X172054228Y-109336147D01*
X171981911Y-109306090D01*
X171966121Y-109299493D01*
X171875516Y-109260907D01*
X171805783Y-109229768D01*
X171756595Y-109205917D01*
X171727626Y-109189198D01*
X171718548Y-109179454D01*
X171720595Y-109171766D01*
X171730240Y-109145415D01*
X171745810Y-109106982D01*
X171765185Y-109061822D01*
X171803186Y-108967293D01*
X171844220Y-108830480D01*
X171869388Y-108689289D01*
X171873389Y-108651314D01*
X171875553Y-108548059D01*
X171862378Y-108460952D01*
X171833244Y-108389129D01*
X171787534Y-108331731D01*
X171724628Y-108287896D01*
X171643908Y-108256762D01*
X171544755Y-108237470D01*
X171485776Y-108230050D01*
X171492555Y-108391936D01*
X171494187Y-108518495D01*
X171487806Y-108669951D01*
X171473223Y-108818396D01*
X171451118Y-108954578D01*
X171436179Y-109019245D01*
X171393259Y-109151490D01*
X171336660Y-109273762D01*
X171267983Y-109383685D01*
X171188830Y-109478883D01*
X171100804Y-109556980D01*
X171005507Y-109615599D01*
X170953136Y-109639595D01*
X170882410Y-109665232D01*
X170811188Y-109681478D01*
X170732288Y-109689822D01*
X170641718Y-109691690D01*
X170638533Y-109691755D01*
X170604637Y-109691261D01*
X170529798Y-109687632D01*
X170467599Y-109680022D01*
X170411016Y-109667688D01*
X170284924Y-109623313D01*
X170170321Y-109560400D01*
X170069432Y-109480238D01*
X169983076Y-109383740D01*
X169912068Y-109271822D01*
X169857224Y-109145397D01*
X169819362Y-109005378D01*
X169813649Y-108969149D01*
X169807687Y-108890155D01*
X169807354Y-108801841D01*
X169812341Y-108712075D01*
X169822334Y-108628722D01*
X169827453Y-108604648D01*
X170370617Y-108604648D01*
X170373460Y-108680011D01*
X170385380Y-108740743D01*
X170407963Y-108792452D01*
X170442789Y-108840746D01*
X170447202Y-108845803D01*
X170502840Y-108894272D01*
X170566667Y-108922459D01*
X170641718Y-108931752D01*
X170713307Y-108924520D01*
X170776355Y-108899796D01*
X170834242Y-108855249D01*
X170881192Y-108800319D01*
X170921039Y-108727894D01*
X170948737Y-108641340D01*
X170964904Y-108538670D01*
X170970158Y-108417894D01*
X170970143Y-108409007D01*
X170969345Y-108353660D01*
X170967512Y-108306736D01*
X170964889Y-108272953D01*
X170961726Y-108257028D01*
X170955259Y-108252943D01*
X170933125Y-108248572D01*
X170894012Y-108245604D01*
X170836061Y-108243914D01*
X170757414Y-108243378D01*
X170561538Y-108243378D01*
X170505027Y-108288048D01*
X170489788Y-108300785D01*
X170447156Y-108347604D01*
X170411328Y-108408255D01*
X170406150Y-108418897D01*
X170389255Y-108457676D01*
X170379091Y-108492692D01*
X170373675Y-108532722D01*
X170371022Y-108586541D01*
X170370617Y-108604648D01*
X169827453Y-108604648D01*
X169837022Y-108559651D01*
X169867251Y-108473187D01*
X169921943Y-108363286D01*
X169989457Y-108265956D01*
X170040444Y-108203867D01*
X169944378Y-108200605D01*
X169848311Y-108197343D01*
X169848311Y-107774450D01*
X169848314Y-107763543D01*
X169848620Y-107669056D01*
X169849384Y-107582331D01*
X169850549Y-107505837D01*
X169852058Y-107442043D01*
X169853853Y-107393418D01*
X169855879Y-107362433D01*
X169858078Y-107351556D01*
X169858537Y-107351578D01*
G36*
X169858537Y-107351578D02*
G01*
X169874090Y-107358614D01*
X169896929Y-107374434D01*
X169902362Y-107378734D01*
X169916394Y-107389777D01*
X169929814Y-107399311D01*
X169944278Y-107407461D01*
X169961444Y-107414352D01*
X169982966Y-107420111D01*
X170010502Y-107424862D01*
X170045708Y-107428731D01*
X170090240Y-107431844D01*
X170145754Y-107434325D01*
X170213907Y-107436300D01*
X170296355Y-107437894D01*
X170394754Y-107439234D01*
X170510761Y-107440444D01*
X170646032Y-107441649D01*
X170802222Y-107442975D01*
X170944988Y-107444228D01*
X171090058Y-107445651D01*
X171215973Y-107447176D01*
X171324564Y-107448933D01*
X171417666Y-107451051D01*
X171497109Y-107453660D01*
X171564727Y-107456890D01*
X171622351Y-107460869D01*
X171671815Y-107465728D01*
X171714950Y-107471597D01*
X171753590Y-107478604D01*
X171789566Y-107486880D01*
X171824711Y-107496554D01*
X171860858Y-107507756D01*
X171899839Y-107520616D01*
X171942909Y-107536090D01*
X172035129Y-107578994D01*
X172114901Y-107632735D01*
X172189035Y-107701576D01*
X172252595Y-107779185D01*
X172314275Y-107883761D01*
X172361798Y-108003244D01*
X172395433Y-108138508D01*
X172415448Y-108290426D01*
X172422111Y-108459872D01*
X172421713Y-108517890D01*
X172419665Y-108583398D01*
X172415296Y-108644693D01*
X172407965Y-108706097D01*
X172397031Y-108771932D01*
X172381853Y-108846520D01*
X172361791Y-108934184D01*
X172336203Y-109039245D01*
X172329180Y-109067806D01*
X172311224Y-109143054D01*
X172295180Y-109213388D01*
X172281972Y-109274567D01*
X172272526Y-109322354D01*
X172267769Y-109352511D01*
X172264090Y-109380783D01*
X172258813Y-109407060D01*
X172254058Y-109417059D01*
X172245219Y-109413952D01*
X172217928Y-109403194D01*
X172175094Y-109385864D01*
X172119575Y-109363126D01*
X172054228Y-109336147D01*
X171981911Y-109306090D01*
X171966121Y-109299493D01*
X171875516Y-109260907D01*
X171805783Y-109229768D01*
X171756595Y-109205917D01*
X171727626Y-109189198D01*
X171718548Y-109179454D01*
X171720595Y-109171766D01*
X171730240Y-109145415D01*
X171745810Y-109106982D01*
X171765185Y-109061822D01*
X171803186Y-108967293D01*
X171844220Y-108830480D01*
X171869388Y-108689289D01*
X171873389Y-108651314D01*
X171875553Y-108548059D01*
X171862378Y-108460952D01*
X171833244Y-108389129D01*
X171787534Y-108331731D01*
X171724628Y-108287896D01*
X171643908Y-108256762D01*
X171544755Y-108237470D01*
X171485776Y-108230050D01*
X171492555Y-108391936D01*
X171494187Y-108518495D01*
X171487806Y-108669951D01*
X171473223Y-108818396D01*
X171451118Y-108954578D01*
X171436179Y-109019245D01*
X171393259Y-109151490D01*
X171336660Y-109273762D01*
X171267983Y-109383685D01*
X171188830Y-109478883D01*
X171100804Y-109556980D01*
X171005507Y-109615599D01*
X170953136Y-109639595D01*
X170882410Y-109665232D01*
X170811188Y-109681478D01*
X170732288Y-109689822D01*
X170641718Y-109691690D01*
X170638533Y-109691755D01*
X170604637Y-109691261D01*
X170529798Y-109687632D01*
X170467599Y-109680022D01*
X170411016Y-109667688D01*
X170284924Y-109623313D01*
X170170321Y-109560400D01*
X170069432Y-109480238D01*
X169983076Y-109383740D01*
X169912068Y-109271822D01*
X169857224Y-109145397D01*
X169819362Y-109005378D01*
X169813649Y-108969149D01*
X169807687Y-108890155D01*
X169807354Y-108801841D01*
X169812341Y-108712075D01*
X169822334Y-108628722D01*
X169827453Y-108604648D01*
X170370617Y-108604648D01*
X170373460Y-108680011D01*
X170385380Y-108740743D01*
X170407963Y-108792452D01*
X170442789Y-108840746D01*
X170447202Y-108845803D01*
X170502840Y-108894272D01*
X170566667Y-108922459D01*
X170641718Y-108931752D01*
X170713307Y-108924520D01*
X170776355Y-108899796D01*
X170834242Y-108855249D01*
X170881192Y-108800319D01*
X170921039Y-108727894D01*
X170948737Y-108641340D01*
X170964904Y-108538670D01*
X170970158Y-108417894D01*
X170970143Y-108409007D01*
X170969345Y-108353660D01*
X170967512Y-108306736D01*
X170964889Y-108272953D01*
X170961726Y-108257028D01*
X170955259Y-108252943D01*
X170933125Y-108248572D01*
X170894012Y-108245604D01*
X170836061Y-108243914D01*
X170757414Y-108243378D01*
X170561538Y-108243378D01*
X170505027Y-108288048D01*
X170489788Y-108300785D01*
X170447156Y-108347604D01*
X170411328Y-108408255D01*
X170406150Y-108418897D01*
X170389255Y-108457676D01*
X170379091Y-108492692D01*
X170373675Y-108532722D01*
X170371022Y-108586541D01*
X170370617Y-108604648D01*
X169827453Y-108604648D01*
X169837022Y-108559651D01*
X169867251Y-108473187D01*
X169921943Y-108363286D01*
X169989457Y-108265956D01*
X170040444Y-108203867D01*
X169944378Y-108200605D01*
X169848311Y-108197343D01*
X169848311Y-107774450D01*
X169848314Y-107763543D01*
X169848620Y-107669056D01*
X169849384Y-107582331D01*
X169850549Y-107505837D01*
X169852058Y-107442043D01*
X169853853Y-107393418D01*
X169855879Y-107362433D01*
X169858078Y-107351556D01*
X169858537Y-107351578D01*
G37*
X173851351Y-112560249D02*
X173875089Y-112587355D01*
X173886889Y-112614253D01*
X173889733Y-112650560D01*
X173889733Y-112702489D01*
X173801794Y-112702489D01*
X173751898Y-112704427D01*
X173641477Y-112723199D01*
X173540013Y-112760217D01*
X173448848Y-112813369D01*
X173369327Y-112880546D01*
X173302795Y-112959638D01*
X173250594Y-113048534D01*
X173214070Y-113145125D01*
X173194566Y-113247300D01*
X173193427Y-113352950D01*
X173211995Y-113459964D01*
X173251616Y-113566232D01*
X173309484Y-113663219D01*
X173384316Y-113748293D01*
X173472385Y-113817015D01*
X173571384Y-113867918D01*
X173679007Y-113899535D01*
X173792946Y-113910400D01*
X173889733Y-113910400D01*
X173889733Y-115530753D01*
X173889720Y-115741897D01*
X173889670Y-115946020D01*
X173889570Y-116129686D01*
X173889408Y-116293991D01*
X173889171Y-116440029D01*
X173888847Y-116568894D01*
X173888425Y-116681683D01*
X173887891Y-116779488D01*
X173887233Y-116863404D01*
X173886439Y-116934527D01*
X173885496Y-116993950D01*
X173884392Y-117042768D01*
X173883116Y-117082077D01*
X173881653Y-117112969D01*
X173879993Y-117136541D01*
X173878122Y-117153886D01*
X173876028Y-117166099D01*
X173873700Y-117174275D01*
X173871124Y-117179508D01*
X173867555Y-117185504D01*
X173864022Y-117192279D01*
X173860512Y-117198478D01*
X173856082Y-117204126D01*
X173849792Y-117209247D01*
X173840699Y-117213869D01*
X173827861Y-117218015D01*
X173810338Y-117221713D01*
X173787187Y-117224987D01*
X173757466Y-117227863D01*
X173720235Y-117230367D01*
X173674551Y-117232524D01*
X173619473Y-117234360D01*
X173554059Y-117235900D01*
X173477367Y-117237170D01*
X173388456Y-117238195D01*
X173286383Y-117239001D01*
X173280133Y-117239034D01*
X173170208Y-117239614D01*
X173038989Y-117240059D01*
X172891784Y-117240362D01*
X172727651Y-117240548D01*
X172545648Y-117240642D01*
X172344835Y-117240671D01*
X172124268Y-117240661D01*
X171883008Y-117240636D01*
X171620111Y-117240622D01*
X171577960Y-117240622D01*
X171317332Y-117240646D01*
X171078204Y-117240685D01*
X170859640Y-117240708D01*
X170660705Y-117240687D01*
X170480465Y-117240593D01*
X170317985Y-117240395D01*
X170172330Y-117240063D01*
X170042566Y-117239569D01*
X169927757Y-117238883D01*
X169826970Y-117237976D01*
X169739270Y-117236817D01*
X169663721Y-117235378D01*
X169599389Y-117233629D01*
X169545339Y-117231540D01*
X169500637Y-117229083D01*
X169464348Y-117226227D01*
X169435537Y-117222943D01*
X169413269Y-117219202D01*
X169396610Y-117214974D01*
X169384625Y-117210229D01*
X169376379Y-117204939D01*
X169370938Y-117199073D01*
X169367366Y-117192602D01*
X169364730Y-117185497D01*
X169362094Y-117177728D01*
X169358523Y-117169266D01*
X169356855Y-117164908D01*
X169354889Y-117156395D01*
X169353089Y-117143694D01*
X169351445Y-117125885D01*
X169349953Y-117102049D01*
X169348603Y-117071266D01*
X169347389Y-117032617D01*
X169346303Y-116985182D01*
X169345339Y-116928043D01*
X169344489Y-116860279D01*
X169343747Y-116780971D01*
X169343103Y-116689199D01*
X169342553Y-116584044D01*
X169342087Y-116464587D01*
X169341700Y-116329908D01*
X169341384Y-116179088D01*
X169341131Y-116011206D01*
X169340934Y-115825345D01*
X169340787Y-115620583D01*
X169340682Y-115396002D01*
X169340613Y-115159090D01*
X169859600Y-115159090D01*
X169935800Y-115158456D01*
X169977840Y-115159574D01*
X170013666Y-115165304D01*
X170051228Y-115177890D01*
X170099423Y-115199568D01*
X170106103Y-115202789D01*
X170155641Y-115228188D01*
X170203631Y-115254996D01*
X170240534Y-115277917D01*
X170247166Y-115282485D01*
X170278407Y-115304516D01*
X170323346Y-115336693D01*
X170379853Y-115377457D01*
X170445796Y-115425245D01*
X170519043Y-115478498D01*
X170597464Y-115535655D01*
X170678928Y-115595155D01*
X170761302Y-115655437D01*
X170842456Y-115714940D01*
X170920258Y-115772105D01*
X170992577Y-115825370D01*
X171057282Y-115873174D01*
X171112241Y-115913957D01*
X171155324Y-115946158D01*
X171184398Y-115968216D01*
X171197333Y-115978571D01*
X171201649Y-115983044D01*
X171203688Y-115987236D01*
X171201074Y-115990643D01*
X171192014Y-115993325D01*
X171174715Y-115995341D01*
X171147386Y-115996748D01*
X171108235Y-115997605D01*
X171055467Y-115997970D01*
X170987293Y-115997903D01*
X170901918Y-115997460D01*
X170797551Y-115996702D01*
X170672400Y-115995685D01*
X170627700Y-115995308D01*
X170506605Y-115994169D01*
X170405312Y-115992972D01*
X170321738Y-115991636D01*
X170253796Y-115990077D01*
X170199401Y-115988215D01*
X170156468Y-115985966D01*
X170122911Y-115983248D01*
X170096645Y-115979979D01*
X170075584Y-115976078D01*
X170057643Y-115971461D01*
X170031230Y-115963192D01*
X169969228Y-115939583D01*
X169916427Y-115913685D01*
X169879355Y-115888535D01*
X169877925Y-115887339D01*
X169873576Y-115885168D01*
X169869974Y-115887328D01*
X169867049Y-115895644D01*
X169864731Y-115911940D01*
X169862949Y-115938041D01*
X169861633Y-115975771D01*
X169860714Y-116026956D01*
X169860122Y-116093420D01*
X169859785Y-116176987D01*
X169859635Y-116279483D01*
X169859600Y-116402732D01*
X169859600Y-116934296D01*
X169917217Y-116895523D01*
X169926107Y-116889432D01*
X169940931Y-116878976D01*
X169954578Y-116869579D01*
X169968235Y-116861183D01*
X169983089Y-116853733D01*
X170000330Y-116847173D01*
X170021145Y-116841446D01*
X170046720Y-116836495D01*
X170078245Y-116832266D01*
X170116907Y-116828701D01*
X170163893Y-116825744D01*
X170220392Y-116823340D01*
X170287591Y-116821431D01*
X170366678Y-116819962D01*
X170458840Y-116818876D01*
X170565266Y-116818118D01*
X170687143Y-116817630D01*
X170825659Y-116817358D01*
X170982001Y-116817243D01*
X171157358Y-116817231D01*
X171352918Y-116817265D01*
X171569867Y-116817289D01*
X171692487Y-116817280D01*
X171897553Y-116817243D01*
X172081884Y-116817227D01*
X172246666Y-116817288D01*
X172393084Y-116817484D01*
X172522326Y-116817870D01*
X172635578Y-116818505D01*
X172734025Y-116819444D01*
X172818856Y-116820745D01*
X172891256Y-116822464D01*
X172952411Y-116824659D01*
X173003508Y-116827385D01*
X173045733Y-116830701D01*
X173080273Y-116834662D01*
X173108314Y-116839325D01*
X173131042Y-116844747D01*
X173149644Y-116850986D01*
X173165307Y-116858097D01*
X173179216Y-116866138D01*
X173192559Y-116875166D01*
X173206521Y-116885236D01*
X173222289Y-116896407D01*
X173280133Y-116936197D01*
X173280133Y-115876314D01*
X173217034Y-115914311D01*
X173191995Y-115928993D01*
X173164414Y-115943531D01*
X173136300Y-115955627D01*
X173105449Y-115965532D01*
X173069656Y-115973494D01*
X173026717Y-115979761D01*
X172974426Y-115984582D01*
X172910581Y-115988206D01*
X172832975Y-115990881D01*
X172739406Y-115992857D01*
X172627667Y-115994382D01*
X172495555Y-115995704D01*
X172375566Y-115996613D01*
X172258937Y-115997020D01*
X172163469Y-115996767D01*
X172089444Y-115995857D01*
X172037145Y-115994293D01*
X172006851Y-115992079D01*
X171998844Y-115989220D01*
X172002142Y-115986161D01*
X172023592Y-115968006D01*
X172060111Y-115938275D01*
X172109558Y-115898639D01*
X172169793Y-115850771D01*
X172238673Y-115796343D01*
X172314057Y-115737027D01*
X172393804Y-115674495D01*
X172475772Y-115610421D01*
X172557820Y-115546475D01*
X172637806Y-115484331D01*
X172713589Y-115425661D01*
X172783027Y-115372137D01*
X172843979Y-115325430D01*
X172894304Y-115287214D01*
X172931860Y-115259161D01*
X172954505Y-115242943D01*
X173026788Y-115197635D01*
X173106537Y-115157661D01*
X173174812Y-115136130D01*
X173232156Y-115132827D01*
X173280133Y-115138116D01*
X173279883Y-114006356D01*
X173249278Y-114045867D01*
X173241911Y-114055248D01*
X173187562Y-114118183D01*
X173119741Y-114186997D01*
X173036484Y-114263596D01*
X172935822Y-114349888D01*
X172915153Y-114367052D01*
X172865591Y-114407833D01*
X172804674Y-114457588D01*
X172734102Y-114514955D01*
X172655576Y-114578569D01*
X172570796Y-114647069D01*
X172481463Y-114719090D01*
X172389278Y-114793270D01*
X172370298Y-114808517D01*
X172295940Y-114868246D01*
X172203152Y-114942653D01*
X172112612Y-115015131D01*
X172026022Y-115084314D01*
X171945082Y-115148841D01*
X171871494Y-115207347D01*
X171806956Y-115258470D01*
X171753171Y-115300847D01*
X171711838Y-115333115D01*
X171684658Y-115353910D01*
X171673332Y-115361869D01*
X171669229Y-115360111D01*
X171648666Y-115347230D01*
X171612439Y-115322885D01*
X171562176Y-115288247D01*
X171499508Y-115244486D01*
X171426064Y-115192775D01*
X171343473Y-115134284D01*
X171253364Y-115070184D01*
X171157369Y-115001646D01*
X171057115Y-114929843D01*
X170954232Y-114855944D01*
X170850350Y-114781121D01*
X170747099Y-114706545D01*
X170646108Y-114633387D01*
X170549006Y-114562819D01*
X170457423Y-114496011D01*
X170372989Y-114434135D01*
X170297333Y-114378361D01*
X170232084Y-114329862D01*
X170178872Y-114289807D01*
X170139327Y-114259369D01*
X170113974Y-114238944D01*
X170059705Y-114192899D01*
X170003225Y-114142612D01*
X169953331Y-114095815D01*
X169859600Y-114004651D01*
X169859600Y-115159090D01*
X169340613Y-115159090D01*
X169340611Y-115150682D01*
X169340568Y-114883704D01*
X169340563Y-114845321D01*
X169340520Y-114579922D01*
X169340475Y-114336050D01*
X169340452Y-114112783D01*
X169340476Y-113909196D01*
X169340570Y-113724367D01*
X169340757Y-113557373D01*
X169341061Y-113407290D01*
X169341396Y-113306445D01*
X169859600Y-113306445D01*
X169859651Y-113375356D01*
X169859909Y-113473607D01*
X169860363Y-113563030D01*
X169860990Y-113641333D01*
X169861765Y-113706223D01*
X169862665Y-113755411D01*
X169863666Y-113786604D01*
X169864743Y-113797511D01*
X169867963Y-113796322D01*
X169885548Y-113786176D01*
X169911842Y-113769040D01*
X169924309Y-113760540D01*
X169938378Y-113751329D01*
X169952649Y-113743233D01*
X169968521Y-113736185D01*
X169987391Y-113730117D01*
X170010659Y-113724961D01*
X170039722Y-113720651D01*
X170075979Y-113717119D01*
X170120830Y-113714297D01*
X170175672Y-113712118D01*
X170241903Y-113710514D01*
X170320923Y-113709419D01*
X170414129Y-113708765D01*
X170522921Y-113708484D01*
X170648697Y-113708509D01*
X170792855Y-113708772D01*
X170956793Y-113709206D01*
X171141911Y-113709745D01*
X171320768Y-113710279D01*
X171479626Y-113710805D01*
X171618684Y-113711350D01*
X171739335Y-113711945D01*
X171842972Y-113712619D01*
X171930989Y-113713403D01*
X172004777Y-113714326D01*
X172065731Y-113715419D01*
X172115243Y-113716712D01*
X172154707Y-113718235D01*
X172185516Y-113720019D01*
X172209062Y-113722092D01*
X172226740Y-113724486D01*
X172239941Y-113727230D01*
X172250060Y-113730356D01*
X172258489Y-113733892D01*
X172266625Y-113737791D01*
X172303456Y-113757438D01*
X172333609Y-113776225D01*
X172335092Y-113777272D01*
X172357341Y-113791602D01*
X172370298Y-113797511D01*
X172370751Y-113796504D01*
X172372197Y-113779305D01*
X172373520Y-113742656D01*
X172374684Y-113688962D01*
X172375653Y-113620630D01*
X172376389Y-113540064D01*
X172376858Y-113449670D01*
X172377022Y-113351853D01*
X172377022Y-112906195D01*
X171200155Y-112903120D01*
X170023289Y-112900045D01*
X169964378Y-112873407D01*
X169939817Y-112861485D01*
X169909566Y-112844246D01*
X169892440Y-112831074D01*
X169884409Y-112823076D01*
X169869507Y-112815378D01*
X169868235Y-112819260D01*
X169866209Y-112842520D01*
X169864374Y-112884874D01*
X169862773Y-112944132D01*
X169861451Y-113018107D01*
X169860452Y-113104610D01*
X169859820Y-113201452D01*
X169859600Y-113306445D01*
X169341396Y-113306445D01*
X169341506Y-113273196D01*
X169342115Y-113154166D01*
X169342911Y-113049279D01*
X169343920Y-112957610D01*
X169345163Y-112878237D01*
X169346665Y-112810237D01*
X169348449Y-112752686D01*
X169350539Y-112704662D01*
X169352958Y-112665240D01*
X169355730Y-112633499D01*
X169358879Y-112608514D01*
X169362428Y-112589364D01*
X169366402Y-112575123D01*
X169370822Y-112564871D01*
X169375714Y-112557682D01*
X169381100Y-112552635D01*
X169387004Y-112548805D01*
X169393451Y-112545271D01*
X169400463Y-112541108D01*
X169402313Y-112540025D01*
X169407820Y-112537813D01*
X169416132Y-112535786D01*
X169428191Y-112533938D01*
X169444937Y-112532261D01*
X169467313Y-112530745D01*
X169496260Y-112529383D01*
X169532720Y-112528167D01*
X169577633Y-112527089D01*
X169631943Y-112526140D01*
X169696590Y-112525312D01*
X169772516Y-112524597D01*
X169860662Y-112523987D01*
X169961971Y-112523474D01*
X170077383Y-112523050D01*
X170207840Y-112522706D01*
X170354284Y-112522434D01*
X170517656Y-112522227D01*
X170698899Y-112522076D01*
X170898952Y-112521972D01*
X171118759Y-112521908D01*
X171359261Y-112521876D01*
X171621398Y-112521867D01*
X173812969Y-112521867D01*
X173851351Y-112560249D01*
G36*
X173851351Y-112560249D02*
G01*
X173875089Y-112587355D01*
X173886889Y-112614253D01*
X173889733Y-112650560D01*
X173889733Y-112702489D01*
X173801794Y-112702489D01*
X173751898Y-112704427D01*
X173641477Y-112723199D01*
X173540013Y-112760217D01*
X173448848Y-112813369D01*
X173369327Y-112880546D01*
X173302795Y-112959638D01*
X173250594Y-113048534D01*
X173214070Y-113145125D01*
X173194566Y-113247300D01*
X173193427Y-113352950D01*
X173211995Y-113459964D01*
X173251616Y-113566232D01*
X173309484Y-113663219D01*
X173384316Y-113748293D01*
X173472385Y-113817015D01*
X173571384Y-113867918D01*
X173679007Y-113899535D01*
X173792946Y-113910400D01*
X173889733Y-113910400D01*
X173889733Y-115530753D01*
X173889720Y-115741897D01*
X173889670Y-115946020D01*
X173889570Y-116129686D01*
X173889408Y-116293991D01*
X173889171Y-116440029D01*
X173888847Y-116568894D01*
X173888425Y-116681683D01*
X173887891Y-116779488D01*
X173887233Y-116863404D01*
X173886439Y-116934527D01*
X173885496Y-116993950D01*
X173884392Y-117042768D01*
X173883116Y-117082077D01*
X173881653Y-117112969D01*
X173879993Y-117136541D01*
X173878122Y-117153886D01*
X173876028Y-117166099D01*
X173873700Y-117174275D01*
X173871124Y-117179508D01*
X173867555Y-117185504D01*
X173864022Y-117192279D01*
X173860512Y-117198478D01*
X173856082Y-117204126D01*
X173849792Y-117209247D01*
X173840699Y-117213869D01*
X173827861Y-117218015D01*
X173810338Y-117221713D01*
X173787187Y-117224987D01*
X173757466Y-117227863D01*
X173720235Y-117230367D01*
X173674551Y-117232524D01*
X173619473Y-117234360D01*
X173554059Y-117235900D01*
X173477367Y-117237170D01*
X173388456Y-117238195D01*
X173286383Y-117239001D01*
X173280133Y-117239034D01*
X173170208Y-117239614D01*
X173038989Y-117240059D01*
X172891784Y-117240362D01*
X172727651Y-117240548D01*
X172545648Y-117240642D01*
X172344835Y-117240671D01*
X172124268Y-117240661D01*
X171883008Y-117240636D01*
X171620111Y-117240622D01*
X171577960Y-117240622D01*
X171317332Y-117240646D01*
X171078204Y-117240685D01*
X170859640Y-117240708D01*
X170660705Y-117240687D01*
X170480465Y-117240593D01*
X170317985Y-117240395D01*
X170172330Y-117240063D01*
X170042566Y-117239569D01*
X169927757Y-117238883D01*
X169826970Y-117237976D01*
X169739270Y-117236817D01*
X169663721Y-117235378D01*
X169599389Y-117233629D01*
X169545339Y-117231540D01*
X169500637Y-117229083D01*
X169464348Y-117226227D01*
X169435537Y-117222943D01*
X169413269Y-117219202D01*
X169396610Y-117214974D01*
X169384625Y-117210229D01*
X169376379Y-117204939D01*
X169370938Y-117199073D01*
X169367366Y-117192602D01*
X169364730Y-117185497D01*
X169362094Y-117177728D01*
X169358523Y-117169266D01*
X169356855Y-117164908D01*
X169354889Y-117156395D01*
X169353089Y-117143694D01*
X169351445Y-117125885D01*
X169349953Y-117102049D01*
X169348603Y-117071266D01*
X169347389Y-117032617D01*
X169346303Y-116985182D01*
X169345339Y-116928043D01*
X169344489Y-116860279D01*
X169343747Y-116780971D01*
X169343103Y-116689199D01*
X169342553Y-116584044D01*
X169342087Y-116464587D01*
X169341700Y-116329908D01*
X169341384Y-116179088D01*
X169341131Y-116011206D01*
X169340934Y-115825345D01*
X169340787Y-115620583D01*
X169340682Y-115396002D01*
X169340613Y-115159090D01*
X169859600Y-115159090D01*
X169935800Y-115158456D01*
X169977840Y-115159574D01*
X170013666Y-115165304D01*
X170051228Y-115177890D01*
X170099423Y-115199568D01*
X170106103Y-115202789D01*
X170155641Y-115228188D01*
X170203631Y-115254996D01*
X170240534Y-115277917D01*
X170247166Y-115282485D01*
X170278407Y-115304516D01*
X170323346Y-115336693D01*
X170379853Y-115377457D01*
X170445796Y-115425245D01*
X170519043Y-115478498D01*
X170597464Y-115535655D01*
X170678928Y-115595155D01*
X170761302Y-115655437D01*
X170842456Y-115714940D01*
X170920258Y-115772105D01*
X170992577Y-115825370D01*
X171057282Y-115873174D01*
X171112241Y-115913957D01*
X171155324Y-115946158D01*
X171184398Y-115968216D01*
X171197333Y-115978571D01*
X171201649Y-115983044D01*
X171203688Y-115987236D01*
X171201074Y-115990643D01*
X171192014Y-115993325D01*
X171174715Y-115995341D01*
X171147386Y-115996748D01*
X171108235Y-115997605D01*
X171055467Y-115997970D01*
X170987293Y-115997903D01*
X170901918Y-115997460D01*
X170797551Y-115996702D01*
X170672400Y-115995685D01*
X170627700Y-115995308D01*
X170506605Y-115994169D01*
X170405312Y-115992972D01*
X170321738Y-115991636D01*
X170253796Y-115990077D01*
X170199401Y-115988215D01*
X170156468Y-115985966D01*
X170122911Y-115983248D01*
X170096645Y-115979979D01*
X170075584Y-115976078D01*
X170057643Y-115971461D01*
X170031230Y-115963192D01*
X169969228Y-115939583D01*
X169916427Y-115913685D01*
X169879355Y-115888535D01*
X169877925Y-115887339D01*
X169873576Y-115885168D01*
X169869974Y-115887328D01*
X169867049Y-115895644D01*
X169864731Y-115911940D01*
X169862949Y-115938041D01*
X169861633Y-115975771D01*
X169860714Y-116026956D01*
X169860122Y-116093420D01*
X169859785Y-116176987D01*
X169859635Y-116279483D01*
X169859600Y-116402732D01*
X169859600Y-116934296D01*
X169917217Y-116895523D01*
X169926107Y-116889432D01*
X169940931Y-116878976D01*
X169954578Y-116869579D01*
X169968235Y-116861183D01*
X169983089Y-116853733D01*
X170000330Y-116847173D01*
X170021145Y-116841446D01*
X170046720Y-116836495D01*
X170078245Y-116832266D01*
X170116907Y-116828701D01*
X170163893Y-116825744D01*
X170220392Y-116823340D01*
X170287591Y-116821431D01*
X170366678Y-116819962D01*
X170458840Y-116818876D01*
X170565266Y-116818118D01*
X170687143Y-116817630D01*
X170825659Y-116817358D01*
X170982001Y-116817243D01*
X171157358Y-116817231D01*
X171352918Y-116817265D01*
X171569867Y-116817289D01*
X171692487Y-116817280D01*
X171897553Y-116817243D01*
X172081884Y-116817227D01*
X172246666Y-116817288D01*
X172393084Y-116817484D01*
X172522326Y-116817870D01*
X172635578Y-116818505D01*
X172734025Y-116819444D01*
X172818856Y-116820745D01*
X172891256Y-116822464D01*
X172952411Y-116824659D01*
X173003508Y-116827385D01*
X173045733Y-116830701D01*
X173080273Y-116834662D01*
X173108314Y-116839325D01*
X173131042Y-116844747D01*
X173149644Y-116850986D01*
X173165307Y-116858097D01*
X173179216Y-116866138D01*
X173192559Y-116875166D01*
X173206521Y-116885236D01*
X173222289Y-116896407D01*
X173280133Y-116936197D01*
X173280133Y-115876314D01*
X173217034Y-115914311D01*
X173191995Y-115928993D01*
X173164414Y-115943531D01*
X173136300Y-115955627D01*
X173105449Y-115965532D01*
X173069656Y-115973494D01*
X173026717Y-115979761D01*
X172974426Y-115984582D01*
X172910581Y-115988206D01*
X172832975Y-115990881D01*
X172739406Y-115992857D01*
X172627667Y-115994382D01*
X172495555Y-115995704D01*
X172375566Y-115996613D01*
X172258937Y-115997020D01*
X172163469Y-115996767D01*
X172089444Y-115995857D01*
X172037145Y-115994293D01*
X172006851Y-115992079D01*
X171998844Y-115989220D01*
X172002142Y-115986161D01*
X172023592Y-115968006D01*
X172060111Y-115938275D01*
X172109558Y-115898639D01*
X172169793Y-115850771D01*
X172238673Y-115796343D01*
X172314057Y-115737027D01*
X172393804Y-115674495D01*
X172475772Y-115610421D01*
X172557820Y-115546475D01*
X172637806Y-115484331D01*
X172713589Y-115425661D01*
X172783027Y-115372137D01*
X172843979Y-115325430D01*
X172894304Y-115287214D01*
X172931860Y-115259161D01*
X172954505Y-115242943D01*
X173026788Y-115197635D01*
X173106537Y-115157661D01*
X173174812Y-115136130D01*
X173232156Y-115132827D01*
X173280133Y-115138116D01*
X173279883Y-114006356D01*
X173249278Y-114045867D01*
X173241911Y-114055248D01*
X173187562Y-114118183D01*
X173119741Y-114186997D01*
X173036484Y-114263596D01*
X172935822Y-114349888D01*
X172915153Y-114367052D01*
X172865591Y-114407833D01*
X172804674Y-114457588D01*
X172734102Y-114514955D01*
X172655576Y-114578569D01*
X172570796Y-114647069D01*
X172481463Y-114719090D01*
X172389278Y-114793270D01*
X172370298Y-114808517D01*
X172295940Y-114868246D01*
X172203152Y-114942653D01*
X172112612Y-115015131D01*
X172026022Y-115084314D01*
X171945082Y-115148841D01*
X171871494Y-115207347D01*
X171806956Y-115258470D01*
X171753171Y-115300847D01*
X171711838Y-115333115D01*
X171684658Y-115353910D01*
X171673332Y-115361869D01*
X171669229Y-115360111D01*
X171648666Y-115347230D01*
X171612439Y-115322885D01*
X171562176Y-115288247D01*
X171499508Y-115244486D01*
X171426064Y-115192775D01*
X171343473Y-115134284D01*
X171253364Y-115070184D01*
X171157369Y-115001646D01*
X171057115Y-114929843D01*
X170954232Y-114855944D01*
X170850350Y-114781121D01*
X170747099Y-114706545D01*
X170646108Y-114633387D01*
X170549006Y-114562819D01*
X170457423Y-114496011D01*
X170372989Y-114434135D01*
X170297333Y-114378361D01*
X170232084Y-114329862D01*
X170178872Y-114289807D01*
X170139327Y-114259369D01*
X170113974Y-114238944D01*
X170059705Y-114192899D01*
X170003225Y-114142612D01*
X169953331Y-114095815D01*
X169859600Y-114004651D01*
X169859600Y-115159090D01*
X169340613Y-115159090D01*
X169340611Y-115150682D01*
X169340568Y-114883704D01*
X169340563Y-114845321D01*
X169340520Y-114579922D01*
X169340475Y-114336050D01*
X169340452Y-114112783D01*
X169340476Y-113909196D01*
X169340570Y-113724367D01*
X169340757Y-113557373D01*
X169341061Y-113407290D01*
X169341396Y-113306445D01*
X169859600Y-113306445D01*
X169859651Y-113375356D01*
X169859909Y-113473607D01*
X169860363Y-113563030D01*
X169860990Y-113641333D01*
X169861765Y-113706223D01*
X169862665Y-113755411D01*
X169863666Y-113786604D01*
X169864743Y-113797511D01*
X169867963Y-113796322D01*
X169885548Y-113786176D01*
X169911842Y-113769040D01*
X169924309Y-113760540D01*
X169938378Y-113751329D01*
X169952649Y-113743233D01*
X169968521Y-113736185D01*
X169987391Y-113730117D01*
X170010659Y-113724961D01*
X170039722Y-113720651D01*
X170075979Y-113717119D01*
X170120830Y-113714297D01*
X170175672Y-113712118D01*
X170241903Y-113710514D01*
X170320923Y-113709419D01*
X170414129Y-113708765D01*
X170522921Y-113708484D01*
X170648697Y-113708509D01*
X170792855Y-113708772D01*
X170956793Y-113709206D01*
X171141911Y-113709745D01*
X171320768Y-113710279D01*
X171479626Y-113710805D01*
X171618684Y-113711350D01*
X171739335Y-113711945D01*
X171842972Y-113712619D01*
X171930989Y-113713403D01*
X172004777Y-113714326D01*
X172065731Y-113715419D01*
X172115243Y-113716712D01*
X172154707Y-113718235D01*
X172185516Y-113720019D01*
X172209062Y-113722092D01*
X172226740Y-113724486D01*
X172239941Y-113727230D01*
X172250060Y-113730356D01*
X172258489Y-113733892D01*
X172266625Y-113737791D01*
X172303456Y-113757438D01*
X172333609Y-113776225D01*
X172335092Y-113777272D01*
X172357341Y-113791602D01*
X172370298Y-113797511D01*
X172370751Y-113796504D01*
X172372197Y-113779305D01*
X172373520Y-113742656D01*
X172374684Y-113688962D01*
X172375653Y-113620630D01*
X172376389Y-113540064D01*
X172376858Y-113449670D01*
X172377022Y-113351853D01*
X172377022Y-112906195D01*
X171200155Y-112903120D01*
X170023289Y-112900045D01*
X169964378Y-112873407D01*
X169939817Y-112861485D01*
X169909566Y-112844246D01*
X169892440Y-112831074D01*
X169884409Y-112823076D01*
X169869507Y-112815378D01*
X169868235Y-112819260D01*
X169866209Y-112842520D01*
X169864374Y-112884874D01*
X169862773Y-112944132D01*
X169861451Y-113018107D01*
X169860452Y-113104610D01*
X169859820Y-113201452D01*
X169859600Y-113306445D01*
X169341396Y-113306445D01*
X169341506Y-113273196D01*
X169342115Y-113154166D01*
X169342911Y-113049279D01*
X169343920Y-112957610D01*
X169345163Y-112878237D01*
X169346665Y-112810237D01*
X169348449Y-112752686D01*
X169350539Y-112704662D01*
X169352958Y-112665240D01*
X169355730Y-112633499D01*
X169358879Y-112608514D01*
X169362428Y-112589364D01*
X169366402Y-112575123D01*
X169370822Y-112564871D01*
X169375714Y-112557682D01*
X169381100Y-112552635D01*
X169387004Y-112548805D01*
X169393451Y-112545271D01*
X169400463Y-112541108D01*
X169402313Y-112540025D01*
X169407820Y-112537813D01*
X169416132Y-112535786D01*
X169428191Y-112533938D01*
X169444937Y-112532261D01*
X169467313Y-112530745D01*
X169496260Y-112529383D01*
X169532720Y-112528167D01*
X169577633Y-112527089D01*
X169631943Y-112526140D01*
X169696590Y-112525312D01*
X169772516Y-112524597D01*
X169860662Y-112523987D01*
X169961971Y-112523474D01*
X170077383Y-112523050D01*
X170207840Y-112522706D01*
X170354284Y-112522434D01*
X170517656Y-112522227D01*
X170698899Y-112522076D01*
X170898952Y-112521972D01*
X171118759Y-112521908D01*
X171359261Y-112521876D01*
X171621398Y-112521867D01*
X173812969Y-112521867D01*
X173851351Y-112560249D01*
G37*
%TD*%
M02*
