%TF.GenerationSoftware,KiCad,Pcbnew,9.0.5*%
%TF.CreationDate,2025-11-01T23:40:51+06:00*%
%TF.ProjectId,led_matrix_array,6c65645f-6d61-4747-9269-785f61727261,1.0*%
%TF.SameCoordinates,Original*%
%TF.FileFunction,Legend,Bot*%
%TF.FilePolarity,Positive*%
%FSLAX46Y46*%
G04 Gerber Fmt 4.6, Leading zero omitted, Abs format (unit mm)*
G04 Created by KiCad (PCBNEW 9.0.5) date 2025-11-01 23:40:51*
%MOMM*%
%LPD*%
G01*
G04 APERTURE LIST*
%ADD10C,0.200000*%
%ADD11C,0.100000*%
%ADD12C,0.150000*%
%ADD13C,0.000000*%
%ADD14C,0.010000*%
%ADD15C,0.127000*%
%ADD16C,0.120000*%
G04 APERTURE END LIST*
D10*
X171317599Y-104244781D02*
X171317599Y-103244781D01*
X171317599Y-103625733D02*
X171222361Y-103578114D01*
X171222361Y-103578114D02*
X171031885Y-103578114D01*
X171031885Y-103578114D02*
X170936647Y-103625733D01*
X170936647Y-103625733D02*
X170889028Y-103673352D01*
X170889028Y-103673352D02*
X170841409Y-103768590D01*
X170841409Y-103768590D02*
X170841409Y-104054304D01*
X170841409Y-104054304D02*
X170889028Y-104149542D01*
X170889028Y-104149542D02*
X170936647Y-104197162D01*
X170936647Y-104197162D02*
X171031885Y-104244781D01*
X171031885Y-104244781D02*
X171222361Y-104244781D01*
X171222361Y-104244781D02*
X171317599Y-104197162D01*
X170508075Y-103578114D02*
X170269980Y-104244781D01*
X170031885Y-103578114D02*
X170269980Y-104244781D01*
X170269980Y-104244781D02*
X170365218Y-104482876D01*
X170365218Y-104482876D02*
X170412837Y-104530495D01*
X170412837Y-104530495D02*
X170508075Y-104578114D01*
X170905755Y-91316608D02*
X170905755Y-91983275D01*
X171143850Y-90935656D02*
X171381945Y-91649941D01*
X171381945Y-91649941D02*
X170762898Y-91649941D01*
X169715278Y-91983275D02*
X169191469Y-91316608D01*
X169715278Y-91316608D02*
X169191469Y-91983275D01*
X167905754Y-91411846D02*
X168000992Y-91364227D01*
X168000992Y-91364227D02*
X168048611Y-91316608D01*
X168048611Y-91316608D02*
X168096230Y-91221370D01*
X168096230Y-91221370D02*
X168096230Y-91173751D01*
X168096230Y-91173751D02*
X168048611Y-91078513D01*
X168048611Y-91078513D02*
X168000992Y-91030894D01*
X168000992Y-91030894D02*
X167905754Y-90983275D01*
X167905754Y-90983275D02*
X167715278Y-90983275D01*
X167715278Y-90983275D02*
X167620040Y-91030894D01*
X167620040Y-91030894D02*
X167572421Y-91078513D01*
X167572421Y-91078513D02*
X167524802Y-91173751D01*
X167524802Y-91173751D02*
X167524802Y-91221370D01*
X167524802Y-91221370D02*
X167572421Y-91316608D01*
X167572421Y-91316608D02*
X167620040Y-91364227D01*
X167620040Y-91364227D02*
X167715278Y-91411846D01*
X167715278Y-91411846D02*
X167905754Y-91411846D01*
X167905754Y-91411846D02*
X168000992Y-91459465D01*
X168000992Y-91459465D02*
X168048611Y-91507084D01*
X168048611Y-91507084D02*
X168096230Y-91602322D01*
X168096230Y-91602322D02*
X168096230Y-91792798D01*
X168096230Y-91792798D02*
X168048611Y-91888036D01*
X168048611Y-91888036D02*
X168000992Y-91935656D01*
X168000992Y-91935656D02*
X167905754Y-91983275D01*
X167905754Y-91983275D02*
X167715278Y-91983275D01*
X167715278Y-91983275D02*
X167620040Y-91935656D01*
X167620040Y-91935656D02*
X167572421Y-91888036D01*
X167572421Y-91888036D02*
X167524802Y-91792798D01*
X167524802Y-91792798D02*
X167524802Y-91602322D01*
X167524802Y-91602322D02*
X167572421Y-91507084D01*
X167572421Y-91507084D02*
X167620040Y-91459465D01*
X167620040Y-91459465D02*
X167715278Y-91411846D01*
X166429563Y-91983275D02*
X165905754Y-91316608D01*
X166429563Y-91316608D02*
X165905754Y-91983275D01*
X164620039Y-91411846D02*
X164715277Y-91364227D01*
X164715277Y-91364227D02*
X164762896Y-91316608D01*
X164762896Y-91316608D02*
X164810515Y-91221370D01*
X164810515Y-91221370D02*
X164810515Y-91173751D01*
X164810515Y-91173751D02*
X164762896Y-91078513D01*
X164762896Y-91078513D02*
X164715277Y-91030894D01*
X164715277Y-91030894D02*
X164620039Y-90983275D01*
X164620039Y-90983275D02*
X164429563Y-90983275D01*
X164429563Y-90983275D02*
X164334325Y-91030894D01*
X164334325Y-91030894D02*
X164286706Y-91078513D01*
X164286706Y-91078513D02*
X164239087Y-91173751D01*
X164239087Y-91173751D02*
X164239087Y-91221370D01*
X164239087Y-91221370D02*
X164286706Y-91316608D01*
X164286706Y-91316608D02*
X164334325Y-91364227D01*
X164334325Y-91364227D02*
X164429563Y-91411846D01*
X164429563Y-91411846D02*
X164620039Y-91411846D01*
X164620039Y-91411846D02*
X164715277Y-91459465D01*
X164715277Y-91459465D02*
X164762896Y-91507084D01*
X164762896Y-91507084D02*
X164810515Y-91602322D01*
X164810515Y-91602322D02*
X164810515Y-91792798D01*
X164810515Y-91792798D02*
X164762896Y-91888036D01*
X164762896Y-91888036D02*
X164715277Y-91935656D01*
X164715277Y-91935656D02*
X164620039Y-91983275D01*
X164620039Y-91983275D02*
X164429563Y-91983275D01*
X164429563Y-91983275D02*
X164334325Y-91935656D01*
X164334325Y-91935656D02*
X164286706Y-91888036D01*
X164286706Y-91888036D02*
X164239087Y-91792798D01*
X164239087Y-91792798D02*
X164239087Y-91602322D01*
X164239087Y-91602322D02*
X164286706Y-91507084D01*
X164286706Y-91507084D02*
X164334325Y-91459465D01*
X164334325Y-91459465D02*
X164429563Y-91411846D01*
X170858136Y-93593219D02*
X171334326Y-93593219D01*
X171334326Y-93593219D02*
X171334326Y-92593219D01*
X170524802Y-93069409D02*
X170191469Y-93069409D01*
X170048612Y-93593219D02*
X170524802Y-93593219D01*
X170524802Y-93593219D02*
X170524802Y-92593219D01*
X170524802Y-92593219D02*
X170048612Y-92593219D01*
X169620040Y-93593219D02*
X169620040Y-92593219D01*
X169620040Y-92593219D02*
X169381945Y-92593219D01*
X169381945Y-92593219D02*
X169239088Y-92640838D01*
X169239088Y-92640838D02*
X169143850Y-92736076D01*
X169143850Y-92736076D02*
X169096231Y-92831314D01*
X169096231Y-92831314D02*
X169048612Y-93021790D01*
X169048612Y-93021790D02*
X169048612Y-93164647D01*
X169048612Y-93164647D02*
X169096231Y-93355123D01*
X169096231Y-93355123D02*
X169143850Y-93450361D01*
X169143850Y-93450361D02*
X169239088Y-93545600D01*
X169239088Y-93545600D02*
X169381945Y-93593219D01*
X169381945Y-93593219D02*
X169620040Y-93593219D01*
X167858135Y-93593219D02*
X167858135Y-92593219D01*
X167858135Y-92593219D02*
X167524802Y-93307504D01*
X167524802Y-93307504D02*
X167191469Y-92593219D01*
X167191469Y-92593219D02*
X167191469Y-93593219D01*
X166286707Y-93593219D02*
X166286707Y-93069409D01*
X166286707Y-93069409D02*
X166334326Y-92974171D01*
X166334326Y-92974171D02*
X166429564Y-92926552D01*
X166429564Y-92926552D02*
X166620040Y-92926552D01*
X166620040Y-92926552D02*
X166715278Y-92974171D01*
X166286707Y-93545600D02*
X166381945Y-93593219D01*
X166381945Y-93593219D02*
X166620040Y-93593219D01*
X166620040Y-93593219D02*
X166715278Y-93545600D01*
X166715278Y-93545600D02*
X166762897Y-93450361D01*
X166762897Y-93450361D02*
X166762897Y-93355123D01*
X166762897Y-93355123D02*
X166715278Y-93259885D01*
X166715278Y-93259885D02*
X166620040Y-93212266D01*
X166620040Y-93212266D02*
X166381945Y-93212266D01*
X166381945Y-93212266D02*
X166286707Y-93164647D01*
X165953373Y-92926552D02*
X165572421Y-92926552D01*
X165810516Y-92593219D02*
X165810516Y-93450361D01*
X165810516Y-93450361D02*
X165762897Y-93545600D01*
X165762897Y-93545600D02*
X165667659Y-93593219D01*
X165667659Y-93593219D02*
X165572421Y-93593219D01*
X165239087Y-93593219D02*
X165239087Y-92926552D01*
X165239087Y-93117028D02*
X165191468Y-93021790D01*
X165191468Y-93021790D02*
X165143849Y-92974171D01*
X165143849Y-92974171D02*
X165048611Y-92926552D01*
X165048611Y-92926552D02*
X164953373Y-92926552D01*
X164620039Y-93593219D02*
X164620039Y-92926552D01*
X164620039Y-92593219D02*
X164667658Y-92640838D01*
X164667658Y-92640838D02*
X164620039Y-92688457D01*
X164620039Y-92688457D02*
X164572420Y-92640838D01*
X164572420Y-92640838D02*
X164620039Y-92593219D01*
X164620039Y-92593219D02*
X164620039Y-92688457D01*
X164239087Y-93593219D02*
X163715278Y-92926552D01*
X164239087Y-92926552D02*
X163715278Y-93593219D01*
X162000992Y-93497980D02*
X162048611Y-93545600D01*
X162048611Y-93545600D02*
X162191468Y-93593219D01*
X162191468Y-93593219D02*
X162286706Y-93593219D01*
X162286706Y-93593219D02*
X162429563Y-93545600D01*
X162429563Y-93545600D02*
X162524801Y-93450361D01*
X162524801Y-93450361D02*
X162572420Y-93355123D01*
X162572420Y-93355123D02*
X162620039Y-93164647D01*
X162620039Y-93164647D02*
X162620039Y-93021790D01*
X162620039Y-93021790D02*
X162572420Y-92831314D01*
X162572420Y-92831314D02*
X162524801Y-92736076D01*
X162524801Y-92736076D02*
X162429563Y-92640838D01*
X162429563Y-92640838D02*
X162286706Y-92593219D01*
X162286706Y-92593219D02*
X162191468Y-92593219D01*
X162191468Y-92593219D02*
X162048611Y-92640838D01*
X162048611Y-92640838D02*
X162000992Y-92688457D01*
X161429563Y-93593219D02*
X161524801Y-93545600D01*
X161524801Y-93545600D02*
X161572420Y-93450361D01*
X161572420Y-93450361D02*
X161572420Y-92593219D01*
X160905753Y-93593219D02*
X161000991Y-93545600D01*
X161000991Y-93545600D02*
X161048610Y-93497980D01*
X161048610Y-93497980D02*
X161096229Y-93402742D01*
X161096229Y-93402742D02*
X161096229Y-93117028D01*
X161096229Y-93117028D02*
X161048610Y-93021790D01*
X161048610Y-93021790D02*
X161000991Y-92974171D01*
X161000991Y-92974171D02*
X160905753Y-92926552D01*
X160905753Y-92926552D02*
X160762896Y-92926552D01*
X160762896Y-92926552D02*
X160667658Y-92974171D01*
X160667658Y-92974171D02*
X160620039Y-93021790D01*
X160620039Y-93021790D02*
X160572420Y-93117028D01*
X160572420Y-93117028D02*
X160572420Y-93402742D01*
X160572420Y-93402742D02*
X160620039Y-93497980D01*
X160620039Y-93497980D02*
X160667658Y-93545600D01*
X160667658Y-93545600D02*
X160762896Y-93593219D01*
X160762896Y-93593219D02*
X160905753Y-93593219D01*
X159715277Y-93545600D02*
X159810515Y-93593219D01*
X159810515Y-93593219D02*
X160000991Y-93593219D01*
X160000991Y-93593219D02*
X160096229Y-93545600D01*
X160096229Y-93545600D02*
X160143848Y-93497980D01*
X160143848Y-93497980D02*
X160191467Y-93402742D01*
X160191467Y-93402742D02*
X160191467Y-93117028D01*
X160191467Y-93117028D02*
X160143848Y-93021790D01*
X160143848Y-93021790D02*
X160096229Y-92974171D01*
X160096229Y-92974171D02*
X160000991Y-92926552D01*
X160000991Y-92926552D02*
X159810515Y-92926552D01*
X159810515Y-92926552D02*
X159715277Y-92974171D01*
X159286705Y-93593219D02*
X159286705Y-92593219D01*
X159191467Y-93212266D02*
X158905753Y-93593219D01*
X158905753Y-92926552D02*
X159286705Y-93307504D01*
X171477183Y-94371219D02*
X171143850Y-95371219D01*
X171143850Y-95371219D02*
X170810517Y-94371219D01*
X170096231Y-95323600D02*
X170191469Y-95371219D01*
X170191469Y-95371219D02*
X170381945Y-95371219D01*
X170381945Y-95371219D02*
X170477183Y-95323600D01*
X170477183Y-95323600D02*
X170524802Y-95228361D01*
X170524802Y-95228361D02*
X170524802Y-94847409D01*
X170524802Y-94847409D02*
X170477183Y-94752171D01*
X170477183Y-94752171D02*
X170381945Y-94704552D01*
X170381945Y-94704552D02*
X170191469Y-94704552D01*
X170191469Y-94704552D02*
X170096231Y-94752171D01*
X170096231Y-94752171D02*
X170048612Y-94847409D01*
X170048612Y-94847409D02*
X170048612Y-94942647D01*
X170048612Y-94942647D02*
X170524802Y-95037885D01*
X169620040Y-95371219D02*
X169620040Y-94704552D01*
X169620040Y-94895028D02*
X169572421Y-94799790D01*
X169572421Y-94799790D02*
X169524802Y-94752171D01*
X169524802Y-94752171D02*
X169429564Y-94704552D01*
X169429564Y-94704552D02*
X169334326Y-94704552D01*
X169048611Y-95323600D02*
X168953373Y-95371219D01*
X168953373Y-95371219D02*
X168762897Y-95371219D01*
X168762897Y-95371219D02*
X168667659Y-95323600D01*
X168667659Y-95323600D02*
X168620040Y-95228361D01*
X168620040Y-95228361D02*
X168620040Y-95180742D01*
X168620040Y-95180742D02*
X168667659Y-95085504D01*
X168667659Y-95085504D02*
X168762897Y-95037885D01*
X168762897Y-95037885D02*
X168905754Y-95037885D01*
X168905754Y-95037885D02*
X169000992Y-94990266D01*
X169000992Y-94990266D02*
X169048611Y-94895028D01*
X169048611Y-94895028D02*
X169048611Y-94847409D01*
X169048611Y-94847409D02*
X169000992Y-94752171D01*
X169000992Y-94752171D02*
X168905754Y-94704552D01*
X168905754Y-94704552D02*
X168762897Y-94704552D01*
X168762897Y-94704552D02*
X168667659Y-94752171D01*
X168191468Y-95371219D02*
X168191468Y-94704552D01*
X168191468Y-94371219D02*
X168239087Y-94418838D01*
X168239087Y-94418838D02*
X168191468Y-94466457D01*
X168191468Y-94466457D02*
X168143849Y-94418838D01*
X168143849Y-94418838D02*
X168191468Y-94371219D01*
X168191468Y-94371219D02*
X168191468Y-94466457D01*
X167572421Y-95371219D02*
X167667659Y-95323600D01*
X167667659Y-95323600D02*
X167715278Y-95275980D01*
X167715278Y-95275980D02*
X167762897Y-95180742D01*
X167762897Y-95180742D02*
X167762897Y-94895028D01*
X167762897Y-94895028D02*
X167715278Y-94799790D01*
X167715278Y-94799790D02*
X167667659Y-94752171D01*
X167667659Y-94752171D02*
X167572421Y-94704552D01*
X167572421Y-94704552D02*
X167429564Y-94704552D01*
X167429564Y-94704552D02*
X167334326Y-94752171D01*
X167334326Y-94752171D02*
X167286707Y-94799790D01*
X167286707Y-94799790D02*
X167239088Y-94895028D01*
X167239088Y-94895028D02*
X167239088Y-95180742D01*
X167239088Y-95180742D02*
X167286707Y-95275980D01*
X167286707Y-95275980D02*
X167334326Y-95323600D01*
X167334326Y-95323600D02*
X167429564Y-95371219D01*
X167429564Y-95371219D02*
X167572421Y-95371219D01*
X166810516Y-94704552D02*
X166810516Y-95371219D01*
X166810516Y-94799790D02*
X166762897Y-94752171D01*
X166762897Y-94752171D02*
X166667659Y-94704552D01*
X166667659Y-94704552D02*
X166524802Y-94704552D01*
X166524802Y-94704552D02*
X166429564Y-94752171D01*
X166429564Y-94752171D02*
X166381945Y-94847409D01*
X166381945Y-94847409D02*
X166381945Y-95371219D01*
X165905754Y-95275980D02*
X165858135Y-95323600D01*
X165858135Y-95323600D02*
X165905754Y-95371219D01*
X165905754Y-95371219D02*
X165953373Y-95323600D01*
X165953373Y-95323600D02*
X165905754Y-95275980D01*
X165905754Y-95275980D02*
X165905754Y-95371219D01*
X165905754Y-94752171D02*
X165858135Y-94799790D01*
X165858135Y-94799790D02*
X165905754Y-94847409D01*
X165905754Y-94847409D02*
X165953373Y-94799790D01*
X165953373Y-94799790D02*
X165905754Y-94752171D01*
X165905754Y-94752171D02*
X165905754Y-94847409D01*
X164905755Y-95371219D02*
X165477183Y-95371219D01*
X165191469Y-95371219D02*
X165191469Y-94371219D01*
X165191469Y-94371219D02*
X165286707Y-94514076D01*
X165286707Y-94514076D02*
X165381945Y-94609314D01*
X165381945Y-94609314D02*
X165477183Y-94656933D01*
X164477183Y-95275980D02*
X164429564Y-95323600D01*
X164429564Y-95323600D02*
X164477183Y-95371219D01*
X164477183Y-95371219D02*
X164524802Y-95323600D01*
X164524802Y-95323600D02*
X164477183Y-95275980D01*
X164477183Y-95275980D02*
X164477183Y-95371219D01*
X163810517Y-94371219D02*
X163715279Y-94371219D01*
X163715279Y-94371219D02*
X163620041Y-94418838D01*
X163620041Y-94418838D02*
X163572422Y-94466457D01*
X163572422Y-94466457D02*
X163524803Y-94561695D01*
X163524803Y-94561695D02*
X163477184Y-94752171D01*
X163477184Y-94752171D02*
X163477184Y-94990266D01*
X163477184Y-94990266D02*
X163524803Y-95180742D01*
X163524803Y-95180742D02*
X163572422Y-95275980D01*
X163572422Y-95275980D02*
X163620041Y-95323600D01*
X163620041Y-95323600D02*
X163715279Y-95371219D01*
X163715279Y-95371219D02*
X163810517Y-95371219D01*
X163810517Y-95371219D02*
X163905755Y-95323600D01*
X163905755Y-95323600D02*
X163953374Y-95275980D01*
X163953374Y-95275980D02*
X164000993Y-95180742D01*
X164000993Y-95180742D02*
X164048612Y-94990266D01*
X164048612Y-94990266D02*
X164048612Y-94752171D01*
X164048612Y-94752171D02*
X164000993Y-94561695D01*
X164000993Y-94561695D02*
X163953374Y-94466457D01*
X163953374Y-94466457D02*
X163905755Y-94418838D01*
X163905755Y-94418838D02*
X163810517Y-94371219D01*
D11*
X166891639Y-85740419D02*
X166701163Y-85740419D01*
X166701163Y-85740419D02*
X166605925Y-85788038D01*
X166605925Y-85788038D02*
X166510687Y-85883276D01*
X166510687Y-85883276D02*
X166463068Y-86073752D01*
X166463068Y-86073752D02*
X166463068Y-86407085D01*
X166463068Y-86407085D02*
X166510687Y-86597561D01*
X166510687Y-86597561D02*
X166605925Y-86692800D01*
X166605925Y-86692800D02*
X166701163Y-86740419D01*
X166701163Y-86740419D02*
X166891639Y-86740419D01*
X166891639Y-86740419D02*
X166986877Y-86692800D01*
X166986877Y-86692800D02*
X167082115Y-86597561D01*
X167082115Y-86597561D02*
X167129734Y-86407085D01*
X167129734Y-86407085D02*
X167129734Y-86073752D01*
X167129734Y-86073752D02*
X167082115Y-85883276D01*
X167082115Y-85883276D02*
X166986877Y-85788038D01*
X166986877Y-85788038D02*
X166891639Y-85740419D01*
X165701163Y-86216609D02*
X166034496Y-86216609D01*
X166034496Y-86740419D02*
X166034496Y-85740419D01*
X166034496Y-85740419D02*
X165558306Y-85740419D01*
X164844020Y-86216609D02*
X165177353Y-86216609D01*
X165177353Y-86740419D02*
X165177353Y-85740419D01*
X165177353Y-85740419D02*
X164701163Y-85740419D01*
X166383639Y-81422419D02*
X166193163Y-81422419D01*
X166193163Y-81422419D02*
X166097925Y-81470038D01*
X166097925Y-81470038D02*
X166002687Y-81565276D01*
X166002687Y-81565276D02*
X165955068Y-81755752D01*
X165955068Y-81755752D02*
X165955068Y-82089085D01*
X165955068Y-82089085D02*
X166002687Y-82279561D01*
X166002687Y-82279561D02*
X166097925Y-82374800D01*
X166097925Y-82374800D02*
X166193163Y-82422419D01*
X166193163Y-82422419D02*
X166383639Y-82422419D01*
X166383639Y-82422419D02*
X166478877Y-82374800D01*
X166478877Y-82374800D02*
X166574115Y-82279561D01*
X166574115Y-82279561D02*
X166621734Y-82089085D01*
X166621734Y-82089085D02*
X166621734Y-81755752D01*
X166621734Y-81755752D02*
X166574115Y-81565276D01*
X166574115Y-81565276D02*
X166478877Y-81470038D01*
X166478877Y-81470038D02*
X166383639Y-81422419D01*
X165526496Y-82422419D02*
X165526496Y-81422419D01*
X165526496Y-81422419D02*
X164955068Y-82422419D01*
X164955068Y-82422419D02*
X164955068Y-81422419D01*
D12*
X142277180Y-98805904D02*
X141467657Y-98805904D01*
X141467657Y-98805904D02*
X141372419Y-98758285D01*
X141372419Y-98758285D02*
X141324800Y-98710666D01*
X141324800Y-98710666D02*
X141277180Y-98615428D01*
X141277180Y-98615428D02*
X141277180Y-98424952D01*
X141277180Y-98424952D02*
X141324800Y-98329714D01*
X141324800Y-98329714D02*
X141372419Y-98282095D01*
X141372419Y-98282095D02*
X141467657Y-98234476D01*
X141467657Y-98234476D02*
X142277180Y-98234476D01*
X141277180Y-97234476D02*
X141277180Y-97805904D01*
X141277180Y-97520190D02*
X142277180Y-97520190D01*
X142277180Y-97520190D02*
X142134323Y-97615428D01*
X142134323Y-97615428D02*
X142039085Y-97710666D01*
X142039085Y-97710666D02*
X141991466Y-97805904D01*
X123742380Y-80880295D02*
X124009047Y-80499342D01*
X124199523Y-80880295D02*
X124199523Y-80080295D01*
X124199523Y-80080295D02*
X123894761Y-80080295D01*
X123894761Y-80080295D02*
X123818571Y-80118390D01*
X123818571Y-80118390D02*
X123780476Y-80156485D01*
X123780476Y-80156485D02*
X123742380Y-80232676D01*
X123742380Y-80232676D02*
X123742380Y-80346961D01*
X123742380Y-80346961D02*
X123780476Y-80423152D01*
X123780476Y-80423152D02*
X123818571Y-80461247D01*
X123818571Y-80461247D02*
X123894761Y-80499342D01*
X123894761Y-80499342D02*
X124199523Y-80499342D01*
X123437619Y-80651723D02*
X123056666Y-80651723D01*
X123513809Y-80880295D02*
X123247142Y-80080295D01*
X123247142Y-80080295D02*
X122980476Y-80880295D01*
X122790000Y-80080295D02*
X122599524Y-80880295D01*
X122599524Y-80880295D02*
X122447143Y-80308866D01*
X122447143Y-80308866D02*
X122294762Y-80880295D01*
X122294762Y-80880295D02*
X122104286Y-80080295D01*
X134968847Y-105994190D02*
X135006942Y-106070380D01*
X135006942Y-106070380D02*
X135045038Y-106108475D01*
X135045038Y-106108475D02*
X135121228Y-106146571D01*
X135121228Y-106146571D02*
X135159323Y-106146571D01*
X135159323Y-106146571D02*
X135235514Y-106108475D01*
X135235514Y-106108475D02*
X135273609Y-106070380D01*
X135273609Y-106070380D02*
X135311704Y-105994190D01*
X135311704Y-105994190D02*
X135311704Y-105841809D01*
X135311704Y-105841809D02*
X135273609Y-105765618D01*
X135273609Y-105765618D02*
X135235514Y-105727523D01*
X135235514Y-105727523D02*
X135159323Y-105689428D01*
X135159323Y-105689428D02*
X135121228Y-105689428D01*
X135121228Y-105689428D02*
X135045038Y-105727523D01*
X135045038Y-105727523D02*
X135006942Y-105765618D01*
X135006942Y-105765618D02*
X134968847Y-105841809D01*
X134968847Y-105841809D02*
X134968847Y-105994190D01*
X134968847Y-105994190D02*
X134930752Y-106070380D01*
X134930752Y-106070380D02*
X134892657Y-106108475D01*
X134892657Y-106108475D02*
X134816466Y-106146571D01*
X134816466Y-106146571D02*
X134664085Y-106146571D01*
X134664085Y-106146571D02*
X134587895Y-106108475D01*
X134587895Y-106108475D02*
X134549800Y-106070380D01*
X134549800Y-106070380D02*
X134511704Y-105994190D01*
X134511704Y-105994190D02*
X134511704Y-105841809D01*
X134511704Y-105841809D02*
X134549800Y-105765618D01*
X134549800Y-105765618D02*
X134587895Y-105727523D01*
X134587895Y-105727523D02*
X134664085Y-105689428D01*
X134664085Y-105689428D02*
X134816466Y-105689428D01*
X134816466Y-105689428D02*
X134892657Y-105727523D01*
X134892657Y-105727523D02*
X134930752Y-105765618D01*
X134930752Y-105765618D02*
X134968847Y-105841809D01*
X134511704Y-83381808D02*
X134892657Y-83648475D01*
X134511704Y-83838951D02*
X135311704Y-83838951D01*
X135311704Y-83838951D02*
X135311704Y-83534189D01*
X135311704Y-83534189D02*
X135273609Y-83457999D01*
X135273609Y-83457999D02*
X135235514Y-83419904D01*
X135235514Y-83419904D02*
X135159323Y-83381808D01*
X135159323Y-83381808D02*
X135045038Y-83381808D01*
X135045038Y-83381808D02*
X134968847Y-83419904D01*
X134968847Y-83419904D02*
X134930752Y-83457999D01*
X134930752Y-83457999D02*
X134892657Y-83534189D01*
X134892657Y-83534189D02*
X134892657Y-83838951D01*
X135311704Y-83115142D02*
X134511704Y-82581808D01*
X135311704Y-82581808D02*
X134511704Y-83115142D01*
X134511704Y-82277046D02*
X135311704Y-82277046D01*
X135311704Y-98615523D02*
X135311704Y-98996475D01*
X135311704Y-98996475D02*
X134930752Y-99034571D01*
X134930752Y-99034571D02*
X134968847Y-98996475D01*
X134968847Y-98996475D02*
X135006942Y-98920285D01*
X135006942Y-98920285D02*
X135006942Y-98729809D01*
X135006942Y-98729809D02*
X134968847Y-98653618D01*
X134968847Y-98653618D02*
X134930752Y-98615523D01*
X134930752Y-98615523D02*
X134854561Y-98577428D01*
X134854561Y-98577428D02*
X134664085Y-98577428D01*
X134664085Y-98577428D02*
X134587895Y-98615523D01*
X134587895Y-98615523D02*
X134549800Y-98653618D01*
X134549800Y-98653618D02*
X134511704Y-98729809D01*
X134511704Y-98729809D02*
X134511704Y-98920285D01*
X134511704Y-98920285D02*
X134549800Y-98996475D01*
X134549800Y-98996475D02*
X134587895Y-99034571D01*
X122548276Y-91249428D02*
X122548276Y-90868475D01*
X122319704Y-91325618D02*
X123119704Y-91058951D01*
X123119704Y-91058951D02*
X122319704Y-90792285D01*
X123119704Y-90601809D02*
X123119704Y-90106571D01*
X123119704Y-90106571D02*
X122814942Y-90373237D01*
X122814942Y-90373237D02*
X122814942Y-90258952D01*
X122814942Y-90258952D02*
X122776847Y-90182761D01*
X122776847Y-90182761D02*
X122738752Y-90144666D01*
X122738752Y-90144666D02*
X122662561Y-90106571D01*
X122662561Y-90106571D02*
X122472085Y-90106571D01*
X122472085Y-90106571D02*
X122395895Y-90144666D01*
X122395895Y-90144666D02*
X122357800Y-90182761D01*
X122357800Y-90182761D02*
X122319704Y-90258952D01*
X122319704Y-90258952D02*
X122319704Y-90487523D01*
X122319704Y-90487523D02*
X122357800Y-90563714D01*
X122357800Y-90563714D02*
X122395895Y-90601809D01*
X127945704Y-80771904D02*
X127145704Y-80505237D01*
X127145704Y-80505237D02*
X127945704Y-80238571D01*
X127183800Y-79629047D02*
X127145704Y-79705238D01*
X127145704Y-79705238D02*
X127145704Y-79857619D01*
X127145704Y-79857619D02*
X127183800Y-79933809D01*
X127183800Y-79933809D02*
X127221895Y-79971904D01*
X127221895Y-79971904D02*
X127298085Y-80010000D01*
X127298085Y-80010000D02*
X127526657Y-80010000D01*
X127526657Y-80010000D02*
X127602847Y-79971904D01*
X127602847Y-79971904D02*
X127640942Y-79933809D01*
X127640942Y-79933809D02*
X127679038Y-79857619D01*
X127679038Y-79857619D02*
X127679038Y-79705238D01*
X127679038Y-79705238D02*
X127640942Y-79629047D01*
X127183800Y-78943333D02*
X127145704Y-79019524D01*
X127145704Y-79019524D02*
X127145704Y-79171905D01*
X127145704Y-79171905D02*
X127183800Y-79248095D01*
X127183800Y-79248095D02*
X127221895Y-79286190D01*
X127221895Y-79286190D02*
X127298085Y-79324286D01*
X127298085Y-79324286D02*
X127526657Y-79324286D01*
X127526657Y-79324286D02*
X127602847Y-79286190D01*
X127602847Y-79286190D02*
X127640942Y-79248095D01*
X127640942Y-79248095D02*
X127679038Y-79171905D01*
X127679038Y-79171905D02*
X127679038Y-79019524D01*
X127679038Y-79019524D02*
X127640942Y-78943333D01*
X134511704Y-86036094D02*
X134892657Y-86302761D01*
X134511704Y-86493237D02*
X135311704Y-86493237D01*
X135311704Y-86493237D02*
X135311704Y-86188475D01*
X135311704Y-86188475D02*
X135273609Y-86112285D01*
X135273609Y-86112285D02*
X135235514Y-86074190D01*
X135235514Y-86074190D02*
X135159323Y-86036094D01*
X135159323Y-86036094D02*
X135045038Y-86036094D01*
X135045038Y-86036094D02*
X134968847Y-86074190D01*
X134968847Y-86074190D02*
X134930752Y-86112285D01*
X134930752Y-86112285D02*
X134892657Y-86188475D01*
X134892657Y-86188475D02*
X134892657Y-86493237D01*
X134549800Y-85731333D02*
X134511704Y-85617047D01*
X134511704Y-85617047D02*
X134511704Y-85426571D01*
X134511704Y-85426571D02*
X134549800Y-85350380D01*
X134549800Y-85350380D02*
X134587895Y-85312285D01*
X134587895Y-85312285D02*
X134664085Y-85274190D01*
X134664085Y-85274190D02*
X134740276Y-85274190D01*
X134740276Y-85274190D02*
X134816466Y-85312285D01*
X134816466Y-85312285D02*
X134854561Y-85350380D01*
X134854561Y-85350380D02*
X134892657Y-85426571D01*
X134892657Y-85426571D02*
X134930752Y-85578952D01*
X134930752Y-85578952D02*
X134968847Y-85655142D01*
X134968847Y-85655142D02*
X135006942Y-85693237D01*
X135006942Y-85693237D02*
X135083133Y-85731333D01*
X135083133Y-85731333D02*
X135159323Y-85731333D01*
X135159323Y-85731333D02*
X135235514Y-85693237D01*
X135235514Y-85693237D02*
X135273609Y-85655142D01*
X135273609Y-85655142D02*
X135311704Y-85578952D01*
X135311704Y-85578952D02*
X135311704Y-85388475D01*
X135311704Y-85388475D02*
X135273609Y-85274190D01*
X135311704Y-85045618D02*
X135311704Y-84588475D01*
X134511704Y-84817047D02*
X135311704Y-84817047D01*
X134511704Y-108610380D02*
X134511704Y-108457999D01*
X134511704Y-108457999D02*
X134549800Y-108381809D01*
X134549800Y-108381809D02*
X134587895Y-108343713D01*
X134587895Y-108343713D02*
X134702180Y-108267523D01*
X134702180Y-108267523D02*
X134854561Y-108229428D01*
X134854561Y-108229428D02*
X135159323Y-108229428D01*
X135159323Y-108229428D02*
X135235514Y-108267523D01*
X135235514Y-108267523D02*
X135273609Y-108305618D01*
X135273609Y-108305618D02*
X135311704Y-108381809D01*
X135311704Y-108381809D02*
X135311704Y-108534190D01*
X135311704Y-108534190D02*
X135273609Y-108610380D01*
X135273609Y-108610380D02*
X135235514Y-108648475D01*
X135235514Y-108648475D02*
X135159323Y-108686571D01*
X135159323Y-108686571D02*
X134968847Y-108686571D01*
X134968847Y-108686571D02*
X134892657Y-108648475D01*
X134892657Y-108648475D02*
X134854561Y-108610380D01*
X134854561Y-108610380D02*
X134816466Y-108534190D01*
X134816466Y-108534190D02*
X134816466Y-108381809D01*
X134816466Y-108381809D02*
X134854561Y-108305618D01*
X134854561Y-108305618D02*
X134892657Y-108267523D01*
X134892657Y-108267523D02*
X134968847Y-108229428D01*
X123961382Y-106989503D02*
X124230756Y-106720129D01*
X123745883Y-106881754D02*
X124500130Y-107258877D01*
X124500130Y-107258877D02*
X124123006Y-106504630D01*
X124823378Y-106935629D02*
X125200502Y-106558505D01*
X125200502Y-106558505D02*
X124392380Y-106235256D01*
X125088276Y-89979428D02*
X125088276Y-89598475D01*
X124859704Y-90055618D02*
X125659704Y-89788951D01*
X125659704Y-89788951D02*
X124859704Y-89522285D01*
X125659704Y-88874666D02*
X125659704Y-89255618D01*
X125659704Y-89255618D02*
X125278752Y-89293714D01*
X125278752Y-89293714D02*
X125316847Y-89255618D01*
X125316847Y-89255618D02*
X125354942Y-89179428D01*
X125354942Y-89179428D02*
X125354942Y-88988952D01*
X125354942Y-88988952D02*
X125316847Y-88912761D01*
X125316847Y-88912761D02*
X125278752Y-88874666D01*
X125278752Y-88874666D02*
X125202561Y-88836571D01*
X125202561Y-88836571D02*
X125012085Y-88836571D01*
X125012085Y-88836571D02*
X124935895Y-88874666D01*
X124935895Y-88874666D02*
X124897800Y-88912761D01*
X124897800Y-88912761D02*
X124859704Y-88988952D01*
X124859704Y-88988952D02*
X124859704Y-89179428D01*
X124859704Y-89179428D02*
X124897800Y-89255618D01*
X124897800Y-89255618D02*
X124935895Y-89293714D01*
X129177609Y-107015696D02*
X129215704Y-107091886D01*
X129215704Y-107091886D02*
X129215704Y-107206172D01*
X129215704Y-107206172D02*
X129177609Y-107320458D01*
X129177609Y-107320458D02*
X129101419Y-107396648D01*
X129101419Y-107396648D02*
X129025228Y-107434743D01*
X129025228Y-107434743D02*
X128872847Y-107472839D01*
X128872847Y-107472839D02*
X128758561Y-107472839D01*
X128758561Y-107472839D02*
X128606180Y-107434743D01*
X128606180Y-107434743D02*
X128529990Y-107396648D01*
X128529990Y-107396648D02*
X128453800Y-107320458D01*
X128453800Y-107320458D02*
X128415704Y-107206172D01*
X128415704Y-107206172D02*
X128415704Y-107129981D01*
X128415704Y-107129981D02*
X128453800Y-107015696D01*
X128453800Y-107015696D02*
X128491895Y-106977600D01*
X128491895Y-106977600D02*
X128758561Y-106977600D01*
X128758561Y-106977600D02*
X128758561Y-107129981D01*
X128415704Y-106634743D02*
X129215704Y-106634743D01*
X129215704Y-106634743D02*
X128415704Y-106177600D01*
X128415704Y-106177600D02*
X129215704Y-106177600D01*
X128415704Y-105796648D02*
X129215704Y-105796648D01*
X129215704Y-105796648D02*
X129215704Y-105606172D01*
X129215704Y-105606172D02*
X129177609Y-105491886D01*
X129177609Y-105491886D02*
X129101419Y-105415696D01*
X129101419Y-105415696D02*
X129025228Y-105377601D01*
X129025228Y-105377601D02*
X128872847Y-105339505D01*
X128872847Y-105339505D02*
X128758561Y-105339505D01*
X128758561Y-105339505D02*
X128606180Y-105377601D01*
X128606180Y-105377601D02*
X128529990Y-105415696D01*
X128529990Y-105415696D02*
X128453800Y-105491886D01*
X128453800Y-105491886D02*
X128415704Y-105606172D01*
X128415704Y-105606172D02*
X128415704Y-105796648D01*
X122319704Y-103530381D02*
X122319704Y-103987524D01*
X122319704Y-103758952D02*
X123119704Y-103758952D01*
X123119704Y-103758952D02*
X123005419Y-103835143D01*
X123005419Y-103835143D02*
X122929228Y-103911333D01*
X122929228Y-103911333D02*
X122891133Y-103987524D01*
X123043514Y-103225619D02*
X123081609Y-103187523D01*
X123081609Y-103187523D02*
X123119704Y-103111333D01*
X123119704Y-103111333D02*
X123119704Y-102920857D01*
X123119704Y-102920857D02*
X123081609Y-102844666D01*
X123081609Y-102844666D02*
X123043514Y-102806571D01*
X123043514Y-102806571D02*
X122967323Y-102768476D01*
X122967323Y-102768476D02*
X122891133Y-102768476D01*
X122891133Y-102768476D02*
X122776847Y-102806571D01*
X122776847Y-102806571D02*
X122319704Y-103263714D01*
X122319704Y-103263714D02*
X122319704Y-102768476D01*
X135311704Y-81546571D02*
X135311704Y-81089428D01*
X134511704Y-81318000D02*
X135311704Y-81318000D01*
X135311704Y-80898952D02*
X134511704Y-80365618D01*
X135311704Y-80365618D02*
X134511704Y-80898952D01*
X135311704Y-79908475D02*
X135311704Y-79756094D01*
X135311704Y-79756094D02*
X135273609Y-79679904D01*
X135273609Y-79679904D02*
X135197419Y-79603713D01*
X135197419Y-79603713D02*
X135045038Y-79565618D01*
X135045038Y-79565618D02*
X134778371Y-79565618D01*
X134778371Y-79565618D02*
X134625990Y-79603713D01*
X134625990Y-79603713D02*
X134549800Y-79679904D01*
X134549800Y-79679904D02*
X134511704Y-79756094D01*
X134511704Y-79756094D02*
X134511704Y-79908475D01*
X134511704Y-79908475D02*
X134549800Y-79984666D01*
X134549800Y-79984666D02*
X134625990Y-80060856D01*
X134625990Y-80060856D02*
X134778371Y-80098952D01*
X134778371Y-80098952D02*
X135045038Y-80098952D01*
X135045038Y-80098952D02*
X135197419Y-80060856D01*
X135197419Y-80060856D02*
X135273609Y-79984666D01*
X135273609Y-79984666D02*
X135311704Y-79908475D01*
X121303609Y-78587523D02*
X121341704Y-78663713D01*
X121341704Y-78663713D02*
X121341704Y-78777999D01*
X121341704Y-78777999D02*
X121303609Y-78892285D01*
X121303609Y-78892285D02*
X121227419Y-78968475D01*
X121227419Y-78968475D02*
X121151228Y-79006570D01*
X121151228Y-79006570D02*
X120998847Y-79044666D01*
X120998847Y-79044666D02*
X120884561Y-79044666D01*
X120884561Y-79044666D02*
X120732180Y-79006570D01*
X120732180Y-79006570D02*
X120655990Y-78968475D01*
X120655990Y-78968475D02*
X120579800Y-78892285D01*
X120579800Y-78892285D02*
X120541704Y-78777999D01*
X120541704Y-78777999D02*
X120541704Y-78701808D01*
X120541704Y-78701808D02*
X120579800Y-78587523D01*
X120579800Y-78587523D02*
X120617895Y-78549427D01*
X120617895Y-78549427D02*
X120884561Y-78549427D01*
X120884561Y-78549427D02*
X120884561Y-78701808D01*
X120541704Y-78206570D02*
X121341704Y-78206570D01*
X121341704Y-78206570D02*
X120541704Y-77749427D01*
X120541704Y-77749427D02*
X121341704Y-77749427D01*
X120541704Y-77368475D02*
X121341704Y-77368475D01*
X121341704Y-77368475D02*
X121341704Y-77177999D01*
X121341704Y-77177999D02*
X121303609Y-77063713D01*
X121303609Y-77063713D02*
X121227419Y-76987523D01*
X121227419Y-76987523D02*
X121151228Y-76949428D01*
X121151228Y-76949428D02*
X120998847Y-76911332D01*
X120998847Y-76911332D02*
X120884561Y-76911332D01*
X120884561Y-76911332D02*
X120732180Y-76949428D01*
X120732180Y-76949428D02*
X120655990Y-76987523D01*
X120655990Y-76987523D02*
X120579800Y-77063713D01*
X120579800Y-77063713D02*
X120541704Y-77177999D01*
X120541704Y-77177999D02*
X120541704Y-77368475D01*
X135273609Y-88747523D02*
X135311704Y-88823713D01*
X135311704Y-88823713D02*
X135311704Y-88937999D01*
X135311704Y-88937999D02*
X135273609Y-89052285D01*
X135273609Y-89052285D02*
X135197419Y-89128475D01*
X135197419Y-89128475D02*
X135121228Y-89166570D01*
X135121228Y-89166570D02*
X134968847Y-89204666D01*
X134968847Y-89204666D02*
X134854561Y-89204666D01*
X134854561Y-89204666D02*
X134702180Y-89166570D01*
X134702180Y-89166570D02*
X134625990Y-89128475D01*
X134625990Y-89128475D02*
X134549800Y-89052285D01*
X134549800Y-89052285D02*
X134511704Y-88937999D01*
X134511704Y-88937999D02*
X134511704Y-88861808D01*
X134511704Y-88861808D02*
X134549800Y-88747523D01*
X134549800Y-88747523D02*
X134587895Y-88709427D01*
X134587895Y-88709427D02*
X134854561Y-88709427D01*
X134854561Y-88709427D02*
X134854561Y-88861808D01*
X134511704Y-88366570D02*
X135311704Y-88366570D01*
X135311704Y-88366570D02*
X134511704Y-87909427D01*
X134511704Y-87909427D02*
X135311704Y-87909427D01*
X134511704Y-87528475D02*
X135311704Y-87528475D01*
X135311704Y-87528475D02*
X135311704Y-87337999D01*
X135311704Y-87337999D02*
X135273609Y-87223713D01*
X135273609Y-87223713D02*
X135197419Y-87147523D01*
X135197419Y-87147523D02*
X135121228Y-87109428D01*
X135121228Y-87109428D02*
X134968847Y-87071332D01*
X134968847Y-87071332D02*
X134854561Y-87071332D01*
X134854561Y-87071332D02*
X134702180Y-87109428D01*
X134702180Y-87109428D02*
X134625990Y-87147523D01*
X134625990Y-87147523D02*
X134549800Y-87223713D01*
X134549800Y-87223713D02*
X134511704Y-87337999D01*
X134511704Y-87337999D02*
X134511704Y-87528475D01*
X122319704Y-86036094D02*
X122700657Y-86302761D01*
X122319704Y-86493237D02*
X123119704Y-86493237D01*
X123119704Y-86493237D02*
X123119704Y-86188475D01*
X123119704Y-86188475D02*
X123081609Y-86112285D01*
X123081609Y-86112285D02*
X123043514Y-86074190D01*
X123043514Y-86074190D02*
X122967323Y-86036094D01*
X122967323Y-86036094D02*
X122853038Y-86036094D01*
X122853038Y-86036094D02*
X122776847Y-86074190D01*
X122776847Y-86074190D02*
X122738752Y-86112285D01*
X122738752Y-86112285D02*
X122700657Y-86188475D01*
X122700657Y-86188475D02*
X122700657Y-86493237D01*
X122357800Y-85731333D02*
X122319704Y-85617047D01*
X122319704Y-85617047D02*
X122319704Y-85426571D01*
X122319704Y-85426571D02*
X122357800Y-85350380D01*
X122357800Y-85350380D02*
X122395895Y-85312285D01*
X122395895Y-85312285D02*
X122472085Y-85274190D01*
X122472085Y-85274190D02*
X122548276Y-85274190D01*
X122548276Y-85274190D02*
X122624466Y-85312285D01*
X122624466Y-85312285D02*
X122662561Y-85350380D01*
X122662561Y-85350380D02*
X122700657Y-85426571D01*
X122700657Y-85426571D02*
X122738752Y-85578952D01*
X122738752Y-85578952D02*
X122776847Y-85655142D01*
X122776847Y-85655142D02*
X122814942Y-85693237D01*
X122814942Y-85693237D02*
X122891133Y-85731333D01*
X122891133Y-85731333D02*
X122967323Y-85731333D01*
X122967323Y-85731333D02*
X123043514Y-85693237D01*
X123043514Y-85693237D02*
X123081609Y-85655142D01*
X123081609Y-85655142D02*
X123119704Y-85578952D01*
X123119704Y-85578952D02*
X123119704Y-85388475D01*
X123119704Y-85388475D02*
X123081609Y-85274190D01*
X123119704Y-85045618D02*
X123119704Y-84588475D01*
X122319704Y-84817047D02*
X123119704Y-84817047D01*
X122319704Y-106070381D02*
X122319704Y-106527524D01*
X122319704Y-106298952D02*
X123119704Y-106298952D01*
X123119704Y-106298952D02*
X123005419Y-106375143D01*
X123005419Y-106375143D02*
X122929228Y-106451333D01*
X122929228Y-106451333D02*
X122891133Y-106527524D01*
X122319704Y-105308476D02*
X122319704Y-105765619D01*
X122319704Y-105537047D02*
X123119704Y-105537047D01*
X123119704Y-105537047D02*
X123005419Y-105613238D01*
X123005419Y-105613238D02*
X122929228Y-105689428D01*
X122929228Y-105689428D02*
X122891133Y-105765619D01*
X135311704Y-93484666D02*
X135311704Y-92989428D01*
X135311704Y-92989428D02*
X135006942Y-93256094D01*
X135006942Y-93256094D02*
X135006942Y-93141809D01*
X135006942Y-93141809D02*
X134968847Y-93065618D01*
X134968847Y-93065618D02*
X134930752Y-93027523D01*
X134930752Y-93027523D02*
X134854561Y-92989428D01*
X134854561Y-92989428D02*
X134664085Y-92989428D01*
X134664085Y-92989428D02*
X134587895Y-93027523D01*
X134587895Y-93027523D02*
X134549800Y-93065618D01*
X134549800Y-93065618D02*
X134511704Y-93141809D01*
X134511704Y-93141809D02*
X134511704Y-93370380D01*
X134511704Y-93370380D02*
X134549800Y-93446571D01*
X134549800Y-93446571D02*
X134587895Y-93484666D01*
X122865704Y-89090380D02*
X122065704Y-88823713D01*
X122065704Y-88823713D02*
X122865704Y-88557047D01*
X122103800Y-87947523D02*
X122065704Y-88023714D01*
X122065704Y-88023714D02*
X122065704Y-88176095D01*
X122065704Y-88176095D02*
X122103800Y-88252285D01*
X122103800Y-88252285D02*
X122141895Y-88290380D01*
X122141895Y-88290380D02*
X122218085Y-88328476D01*
X122218085Y-88328476D02*
X122446657Y-88328476D01*
X122446657Y-88328476D02*
X122522847Y-88290380D01*
X122522847Y-88290380D02*
X122560942Y-88252285D01*
X122560942Y-88252285D02*
X122599038Y-88176095D01*
X122599038Y-88176095D02*
X122599038Y-88023714D01*
X122599038Y-88023714D02*
X122560942Y-87947523D01*
X122103800Y-87261809D02*
X122065704Y-87338000D01*
X122065704Y-87338000D02*
X122065704Y-87490381D01*
X122065704Y-87490381D02*
X122103800Y-87566571D01*
X122103800Y-87566571D02*
X122141895Y-87604666D01*
X122141895Y-87604666D02*
X122218085Y-87642762D01*
X122218085Y-87642762D02*
X122446657Y-87642762D01*
X122446657Y-87642762D02*
X122522847Y-87604666D01*
X122522847Y-87604666D02*
X122560942Y-87566571D01*
X122560942Y-87566571D02*
X122599038Y-87490381D01*
X122599038Y-87490381D02*
X122599038Y-87338000D01*
X122599038Y-87338000D02*
X122560942Y-87261809D01*
X125367609Y-80619523D02*
X125405704Y-80695713D01*
X125405704Y-80695713D02*
X125405704Y-80809999D01*
X125405704Y-80809999D02*
X125367609Y-80924285D01*
X125367609Y-80924285D02*
X125291419Y-81000475D01*
X125291419Y-81000475D02*
X125215228Y-81038570D01*
X125215228Y-81038570D02*
X125062847Y-81076666D01*
X125062847Y-81076666D02*
X124948561Y-81076666D01*
X124948561Y-81076666D02*
X124796180Y-81038570D01*
X124796180Y-81038570D02*
X124719990Y-81000475D01*
X124719990Y-81000475D02*
X124643800Y-80924285D01*
X124643800Y-80924285D02*
X124605704Y-80809999D01*
X124605704Y-80809999D02*
X124605704Y-80733808D01*
X124605704Y-80733808D02*
X124643800Y-80619523D01*
X124643800Y-80619523D02*
X124681895Y-80581427D01*
X124681895Y-80581427D02*
X124948561Y-80581427D01*
X124948561Y-80581427D02*
X124948561Y-80733808D01*
X124605704Y-80238570D02*
X125405704Y-80238570D01*
X125405704Y-80238570D02*
X124605704Y-79781427D01*
X124605704Y-79781427D02*
X125405704Y-79781427D01*
X124605704Y-79400475D02*
X125405704Y-79400475D01*
X125405704Y-79400475D02*
X125405704Y-79209999D01*
X125405704Y-79209999D02*
X125367609Y-79095713D01*
X125367609Y-79095713D02*
X125291419Y-79019523D01*
X125291419Y-79019523D02*
X125215228Y-78981428D01*
X125215228Y-78981428D02*
X125062847Y-78943332D01*
X125062847Y-78943332D02*
X124948561Y-78943332D01*
X124948561Y-78943332D02*
X124796180Y-78981428D01*
X124796180Y-78981428D02*
X124719990Y-79019523D01*
X124719990Y-79019523D02*
X124643800Y-79095713D01*
X124643800Y-79095713D02*
X124605704Y-79209999D01*
X124605704Y-79209999D02*
X124605704Y-79400475D01*
X135311704Y-100685618D02*
X135311704Y-100837999D01*
X135311704Y-100837999D02*
X135273609Y-100914190D01*
X135273609Y-100914190D02*
X135235514Y-100952285D01*
X135235514Y-100952285D02*
X135121228Y-101028475D01*
X135121228Y-101028475D02*
X134968847Y-101066571D01*
X134968847Y-101066571D02*
X134664085Y-101066571D01*
X134664085Y-101066571D02*
X134587895Y-101028475D01*
X134587895Y-101028475D02*
X134549800Y-100990380D01*
X134549800Y-100990380D02*
X134511704Y-100914190D01*
X134511704Y-100914190D02*
X134511704Y-100761809D01*
X134511704Y-100761809D02*
X134549800Y-100685618D01*
X134549800Y-100685618D02*
X134587895Y-100647523D01*
X134587895Y-100647523D02*
X134664085Y-100609428D01*
X134664085Y-100609428D02*
X134854561Y-100609428D01*
X134854561Y-100609428D02*
X134930752Y-100647523D01*
X134930752Y-100647523D02*
X134968847Y-100685618D01*
X134968847Y-100685618D02*
X135006942Y-100761809D01*
X135006942Y-100761809D02*
X135006942Y-100914190D01*
X135006942Y-100914190D02*
X134968847Y-100990380D01*
X134968847Y-100990380D02*
X134930752Y-101028475D01*
X134930752Y-101028475D02*
X134854561Y-101066571D01*
X135311704Y-103644666D02*
X135311704Y-103111332D01*
X135311704Y-103111332D02*
X134511704Y-103454190D01*
X126104276Y-107472839D02*
X126104276Y-107091886D01*
X125875704Y-107549029D02*
X126675704Y-107282362D01*
X126675704Y-107282362D02*
X125875704Y-107015696D01*
X126675704Y-106406172D02*
X126675704Y-106558553D01*
X126675704Y-106558553D02*
X126637609Y-106634744D01*
X126637609Y-106634744D02*
X126599514Y-106672839D01*
X126599514Y-106672839D02*
X126485228Y-106749029D01*
X126485228Y-106749029D02*
X126332847Y-106787125D01*
X126332847Y-106787125D02*
X126028085Y-106787125D01*
X126028085Y-106787125D02*
X125951895Y-106749029D01*
X125951895Y-106749029D02*
X125913800Y-106710934D01*
X125913800Y-106710934D02*
X125875704Y-106634744D01*
X125875704Y-106634744D02*
X125875704Y-106482363D01*
X125875704Y-106482363D02*
X125913800Y-106406172D01*
X125913800Y-106406172D02*
X125951895Y-106368077D01*
X125951895Y-106368077D02*
X126028085Y-106329982D01*
X126028085Y-106329982D02*
X126218561Y-106329982D01*
X126218561Y-106329982D02*
X126294752Y-106368077D01*
X126294752Y-106368077D02*
X126332847Y-106406172D01*
X126332847Y-106406172D02*
X126370942Y-106482363D01*
X126370942Y-106482363D02*
X126370942Y-106634744D01*
X126370942Y-106634744D02*
X126332847Y-106710934D01*
X126332847Y-106710934D02*
X126294752Y-106749029D01*
X126294752Y-106749029D02*
X126218561Y-106787125D01*
X136035704Y-78892285D02*
X136835704Y-78892285D01*
X136835704Y-78892285D02*
X136835704Y-78701809D01*
X136835704Y-78701809D02*
X136797609Y-78587523D01*
X136797609Y-78587523D02*
X136721419Y-78511333D01*
X136721419Y-78511333D02*
X136645228Y-78473238D01*
X136645228Y-78473238D02*
X136492847Y-78435142D01*
X136492847Y-78435142D02*
X136378561Y-78435142D01*
X136378561Y-78435142D02*
X136226180Y-78473238D01*
X136226180Y-78473238D02*
X136149990Y-78511333D01*
X136149990Y-78511333D02*
X136073800Y-78587523D01*
X136073800Y-78587523D02*
X136035704Y-78701809D01*
X136035704Y-78701809D02*
X136035704Y-78892285D01*
X136835704Y-78206571D02*
X136835704Y-77749428D01*
X136035704Y-77978000D02*
X136835704Y-77978000D01*
X136035704Y-77025618D02*
X136416657Y-77292285D01*
X136035704Y-77482761D02*
X136835704Y-77482761D01*
X136835704Y-77482761D02*
X136835704Y-77177999D01*
X136835704Y-77177999D02*
X136797609Y-77101809D01*
X136797609Y-77101809D02*
X136759514Y-77063714D01*
X136759514Y-77063714D02*
X136683323Y-77025618D01*
X136683323Y-77025618D02*
X136569038Y-77025618D01*
X136569038Y-77025618D02*
X136492847Y-77063714D01*
X136492847Y-77063714D02*
X136454752Y-77101809D01*
X136454752Y-77101809D02*
X136416657Y-77177999D01*
X136416657Y-77177999D02*
X136416657Y-77482761D01*
X125088276Y-92519428D02*
X125088276Y-92138475D01*
X124859704Y-92595618D02*
X125659704Y-92328951D01*
X125659704Y-92328951D02*
X124859704Y-92062285D01*
X125393038Y-91452761D02*
X124859704Y-91452761D01*
X125697800Y-91643237D02*
X125126371Y-91833714D01*
X125126371Y-91833714D02*
X125126371Y-91338475D01*
X123081609Y-83667523D02*
X123119704Y-83743713D01*
X123119704Y-83743713D02*
X123119704Y-83857999D01*
X123119704Y-83857999D02*
X123081609Y-83972285D01*
X123081609Y-83972285D02*
X123005419Y-84048475D01*
X123005419Y-84048475D02*
X122929228Y-84086570D01*
X122929228Y-84086570D02*
X122776847Y-84124666D01*
X122776847Y-84124666D02*
X122662561Y-84124666D01*
X122662561Y-84124666D02*
X122510180Y-84086570D01*
X122510180Y-84086570D02*
X122433990Y-84048475D01*
X122433990Y-84048475D02*
X122357800Y-83972285D01*
X122357800Y-83972285D02*
X122319704Y-83857999D01*
X122319704Y-83857999D02*
X122319704Y-83781808D01*
X122319704Y-83781808D02*
X122357800Y-83667523D01*
X122357800Y-83667523D02*
X122395895Y-83629427D01*
X122395895Y-83629427D02*
X122662561Y-83629427D01*
X122662561Y-83629427D02*
X122662561Y-83781808D01*
X122319704Y-83286570D02*
X123119704Y-83286570D01*
X123119704Y-83286570D02*
X122319704Y-82829427D01*
X122319704Y-82829427D02*
X123119704Y-82829427D01*
X122319704Y-82448475D02*
X123119704Y-82448475D01*
X123119704Y-82448475D02*
X123119704Y-82257999D01*
X123119704Y-82257999D02*
X123081609Y-82143713D01*
X123081609Y-82143713D02*
X123005419Y-82067523D01*
X123005419Y-82067523D02*
X122929228Y-82029428D01*
X122929228Y-82029428D02*
X122776847Y-81991332D01*
X122776847Y-81991332D02*
X122662561Y-81991332D01*
X122662561Y-81991332D02*
X122510180Y-82029428D01*
X122510180Y-82029428D02*
X122433990Y-82067523D01*
X122433990Y-82067523D02*
X122357800Y-82143713D01*
X122357800Y-82143713D02*
X122319704Y-82257999D01*
X122319704Y-82257999D02*
X122319704Y-82448475D01*
X122065704Y-108356381D02*
X122065704Y-108813524D01*
X122065704Y-108584952D02*
X122865704Y-108584952D01*
X122865704Y-108584952D02*
X122751419Y-108661143D01*
X122751419Y-108661143D02*
X122675228Y-108737333D01*
X122675228Y-108737333D02*
X122637133Y-108813524D01*
X122865704Y-107861142D02*
X122865704Y-107784952D01*
X122865704Y-107784952D02*
X122827609Y-107708761D01*
X122827609Y-107708761D02*
X122789514Y-107670666D01*
X122789514Y-107670666D02*
X122713323Y-107632571D01*
X122713323Y-107632571D02*
X122560942Y-107594476D01*
X122560942Y-107594476D02*
X122370466Y-107594476D01*
X122370466Y-107594476D02*
X122218085Y-107632571D01*
X122218085Y-107632571D02*
X122141895Y-107670666D01*
X122141895Y-107670666D02*
X122103800Y-107708761D01*
X122103800Y-107708761D02*
X122065704Y-107784952D01*
X122065704Y-107784952D02*
X122065704Y-107861142D01*
X122065704Y-107861142D02*
X122103800Y-107937333D01*
X122103800Y-107937333D02*
X122141895Y-107975428D01*
X122141895Y-107975428D02*
X122218085Y-108013523D01*
X122218085Y-108013523D02*
X122370466Y-108051619D01*
X122370466Y-108051619D02*
X122560942Y-108051619D01*
X122560942Y-108051619D02*
X122713323Y-108013523D01*
X122713323Y-108013523D02*
X122789514Y-107975428D01*
X122789514Y-107975428D02*
X122827609Y-107937333D01*
X122827609Y-107937333D02*
X122865704Y-107861142D01*
X122548276Y-98869428D02*
X122548276Y-98488475D01*
X122319704Y-98945618D02*
X123119704Y-98678951D01*
X123119704Y-98678951D02*
X122319704Y-98412285D01*
X123119704Y-97993237D02*
X123119704Y-97917047D01*
X123119704Y-97917047D02*
X123081609Y-97840856D01*
X123081609Y-97840856D02*
X123043514Y-97802761D01*
X123043514Y-97802761D02*
X122967323Y-97764666D01*
X122967323Y-97764666D02*
X122814942Y-97726571D01*
X122814942Y-97726571D02*
X122624466Y-97726571D01*
X122624466Y-97726571D02*
X122472085Y-97764666D01*
X122472085Y-97764666D02*
X122395895Y-97802761D01*
X122395895Y-97802761D02*
X122357800Y-97840856D01*
X122357800Y-97840856D02*
X122319704Y-97917047D01*
X122319704Y-97917047D02*
X122319704Y-97993237D01*
X122319704Y-97993237D02*
X122357800Y-98069428D01*
X122357800Y-98069428D02*
X122395895Y-98107523D01*
X122395895Y-98107523D02*
X122472085Y-98145618D01*
X122472085Y-98145618D02*
X122624466Y-98183714D01*
X122624466Y-98183714D02*
X122814942Y-98183714D01*
X122814942Y-98183714D02*
X122967323Y-98145618D01*
X122967323Y-98145618D02*
X123043514Y-98107523D01*
X123043514Y-98107523D02*
X123081609Y-98069428D01*
X123081609Y-98069428D02*
X123119704Y-97993237D01*
X122548276Y-93789428D02*
X122548276Y-93408475D01*
X122319704Y-93865618D02*
X123119704Y-93598951D01*
X123119704Y-93598951D02*
X122319704Y-93332285D01*
X123043514Y-93103714D02*
X123081609Y-93065618D01*
X123081609Y-93065618D02*
X123119704Y-92989428D01*
X123119704Y-92989428D02*
X123119704Y-92798952D01*
X123119704Y-92798952D02*
X123081609Y-92722761D01*
X123081609Y-92722761D02*
X123043514Y-92684666D01*
X123043514Y-92684666D02*
X122967323Y-92646571D01*
X122967323Y-92646571D02*
X122891133Y-92646571D01*
X122891133Y-92646571D02*
X122776847Y-92684666D01*
X122776847Y-92684666D02*
X122319704Y-93141809D01*
X122319704Y-93141809D02*
X122319704Y-92646571D01*
X122319704Y-100990381D02*
X122319704Y-101447524D01*
X122319704Y-101218952D02*
X123119704Y-101218952D01*
X123119704Y-101218952D02*
X123005419Y-101295143D01*
X123005419Y-101295143D02*
X122929228Y-101371333D01*
X122929228Y-101371333D02*
X122891133Y-101447524D01*
X123119704Y-100723714D02*
X123119704Y-100228476D01*
X123119704Y-100228476D02*
X122814942Y-100495142D01*
X122814942Y-100495142D02*
X122814942Y-100380857D01*
X122814942Y-100380857D02*
X122776847Y-100304666D01*
X122776847Y-100304666D02*
X122738752Y-100266571D01*
X122738752Y-100266571D02*
X122662561Y-100228476D01*
X122662561Y-100228476D02*
X122472085Y-100228476D01*
X122472085Y-100228476D02*
X122395895Y-100266571D01*
X122395895Y-100266571D02*
X122357800Y-100304666D01*
X122357800Y-100304666D02*
X122319704Y-100380857D01*
X122319704Y-100380857D02*
X122319704Y-100609428D01*
X122319704Y-100609428D02*
X122357800Y-100685619D01*
X122357800Y-100685619D02*
X122395895Y-100723714D01*
X129685704Y-80086189D02*
X130066657Y-80352856D01*
X129685704Y-80543332D02*
X130485704Y-80543332D01*
X130485704Y-80543332D02*
X130485704Y-80238570D01*
X130485704Y-80238570D02*
X130447609Y-80162380D01*
X130447609Y-80162380D02*
X130409514Y-80124285D01*
X130409514Y-80124285D02*
X130333323Y-80086189D01*
X130333323Y-80086189D02*
X130219038Y-80086189D01*
X130219038Y-80086189D02*
X130142847Y-80124285D01*
X130142847Y-80124285D02*
X130104752Y-80162380D01*
X130104752Y-80162380D02*
X130066657Y-80238570D01*
X130066657Y-80238570D02*
X130066657Y-80543332D01*
X130485704Y-79819523D02*
X129685704Y-79286189D01*
X130485704Y-79286189D02*
X129685704Y-79819523D01*
X129685704Y-78981427D02*
X130485704Y-78981427D01*
X133025704Y-80924285D02*
X133025704Y-80467142D01*
X132225704Y-80695714D02*
X133025704Y-80695714D01*
X133025704Y-80276666D02*
X132225704Y-79743332D01*
X133025704Y-79743332D02*
X132225704Y-80276666D01*
X133025704Y-79286189D02*
X133025704Y-79133808D01*
X133025704Y-79133808D02*
X132987609Y-79057618D01*
X132987609Y-79057618D02*
X132911419Y-78981427D01*
X132911419Y-78981427D02*
X132759038Y-78943332D01*
X132759038Y-78943332D02*
X132492371Y-78943332D01*
X132492371Y-78943332D02*
X132339990Y-78981427D01*
X132339990Y-78981427D02*
X132263800Y-79057618D01*
X132263800Y-79057618D02*
X132225704Y-79133808D01*
X132225704Y-79133808D02*
X132225704Y-79286189D01*
X132225704Y-79286189D02*
X132263800Y-79362380D01*
X132263800Y-79362380D02*
X132339990Y-79438570D01*
X132339990Y-79438570D02*
X132492371Y-79476666D01*
X132492371Y-79476666D02*
X132759038Y-79476666D01*
X132759038Y-79476666D02*
X132911419Y-79438570D01*
X132911419Y-79438570D02*
X132987609Y-79362380D01*
X132987609Y-79362380D02*
X133025704Y-79286189D01*
X135045038Y-95605618D02*
X134511704Y-95605618D01*
X135349800Y-95796094D02*
X134778371Y-95986571D01*
X134778371Y-95986571D02*
X134778371Y-95491332D01*
X139784895Y-104417047D02*
X139784895Y-103940857D01*
X139499180Y-104512285D02*
X140499180Y-104178952D01*
X140499180Y-104178952D02*
X139499180Y-103845619D01*
X139499180Y-103512285D02*
X140165847Y-103512285D01*
X139975371Y-103512285D02*
X140070609Y-103464666D01*
X140070609Y-103464666D02*
X140118228Y-103417047D01*
X140118228Y-103417047D02*
X140165847Y-103321809D01*
X140165847Y-103321809D02*
X140165847Y-103226571D01*
X139499180Y-102464666D02*
X140499180Y-102464666D01*
X139546800Y-102464666D02*
X139499180Y-102559904D01*
X139499180Y-102559904D02*
X139499180Y-102750380D01*
X139499180Y-102750380D02*
X139546800Y-102845618D01*
X139546800Y-102845618D02*
X139594419Y-102893237D01*
X139594419Y-102893237D02*
X139689657Y-102940856D01*
X139689657Y-102940856D02*
X139975371Y-102940856D01*
X139975371Y-102940856D02*
X140070609Y-102893237D01*
X140070609Y-102893237D02*
X140118228Y-102845618D01*
X140118228Y-102845618D02*
X140165847Y-102750380D01*
X140165847Y-102750380D02*
X140165847Y-102559904D01*
X140165847Y-102559904D02*
X140118228Y-102464666D01*
X140165847Y-101559904D02*
X139499180Y-101559904D01*
X140165847Y-101988475D02*
X139642038Y-101988475D01*
X139642038Y-101988475D02*
X139546800Y-101940856D01*
X139546800Y-101940856D02*
X139499180Y-101845618D01*
X139499180Y-101845618D02*
X139499180Y-101702761D01*
X139499180Y-101702761D02*
X139546800Y-101607523D01*
X139546800Y-101607523D02*
X139594419Y-101559904D01*
X139499180Y-101083713D02*
X140165847Y-101083713D01*
X140499180Y-101083713D02*
X140451561Y-101131332D01*
X140451561Y-101131332D02*
X140403942Y-101083713D01*
X140403942Y-101083713D02*
X140451561Y-101036094D01*
X140451561Y-101036094D02*
X140499180Y-101083713D01*
X140499180Y-101083713D02*
X140403942Y-101083713D01*
X140165847Y-100607523D02*
X139499180Y-100607523D01*
X140070609Y-100607523D02*
X140118228Y-100559904D01*
X140118228Y-100559904D02*
X140165847Y-100464666D01*
X140165847Y-100464666D02*
X140165847Y-100321809D01*
X140165847Y-100321809D02*
X140118228Y-100226571D01*
X140118228Y-100226571D02*
X140022990Y-100178952D01*
X140022990Y-100178952D02*
X139499180Y-100178952D01*
X139499180Y-99559904D02*
X139546800Y-99655142D01*
X139546800Y-99655142D02*
X139594419Y-99702761D01*
X139594419Y-99702761D02*
X139689657Y-99750380D01*
X139689657Y-99750380D02*
X139975371Y-99750380D01*
X139975371Y-99750380D02*
X140070609Y-99702761D01*
X140070609Y-99702761D02*
X140118228Y-99655142D01*
X140118228Y-99655142D02*
X140165847Y-99559904D01*
X140165847Y-99559904D02*
X140165847Y-99417047D01*
X140165847Y-99417047D02*
X140118228Y-99321809D01*
X140118228Y-99321809D02*
X140070609Y-99274190D01*
X140070609Y-99274190D02*
X139975371Y-99226571D01*
X139975371Y-99226571D02*
X139689657Y-99226571D01*
X139689657Y-99226571D02*
X139594419Y-99274190D01*
X139594419Y-99274190D02*
X139546800Y-99321809D01*
X139546800Y-99321809D02*
X139499180Y-99417047D01*
X139499180Y-99417047D02*
X139499180Y-99559904D01*
X139499180Y-98036094D02*
X140499180Y-98036094D01*
X140499180Y-98036094D02*
X140499180Y-97655142D01*
X140499180Y-97655142D02*
X140451561Y-97559904D01*
X140451561Y-97559904D02*
X140403942Y-97512285D01*
X140403942Y-97512285D02*
X140308704Y-97464666D01*
X140308704Y-97464666D02*
X140165847Y-97464666D01*
X140165847Y-97464666D02*
X140070609Y-97512285D01*
X140070609Y-97512285D02*
X140022990Y-97559904D01*
X140022990Y-97559904D02*
X139975371Y-97655142D01*
X139975371Y-97655142D02*
X139975371Y-98036094D01*
X139499180Y-97036094D02*
X140165847Y-97036094D01*
X139975371Y-97036094D02*
X140070609Y-96988475D01*
X140070609Y-96988475D02*
X140118228Y-96940856D01*
X140118228Y-96940856D02*
X140165847Y-96845618D01*
X140165847Y-96845618D02*
X140165847Y-96750380D01*
X139499180Y-96274189D02*
X139546800Y-96369427D01*
X139546800Y-96369427D02*
X139594419Y-96417046D01*
X139594419Y-96417046D02*
X139689657Y-96464665D01*
X139689657Y-96464665D02*
X139975371Y-96464665D01*
X139975371Y-96464665D02*
X140070609Y-96417046D01*
X140070609Y-96417046D02*
X140118228Y-96369427D01*
X140118228Y-96369427D02*
X140165847Y-96274189D01*
X140165847Y-96274189D02*
X140165847Y-96131332D01*
X140165847Y-96131332D02*
X140118228Y-96036094D01*
X140118228Y-96036094D02*
X140070609Y-95988475D01*
X140070609Y-95988475D02*
X139975371Y-95940856D01*
X139975371Y-95940856D02*
X139689657Y-95940856D01*
X139689657Y-95940856D02*
X139594419Y-95988475D01*
X139594419Y-95988475D02*
X139546800Y-96036094D01*
X139546800Y-96036094D02*
X139499180Y-96131332D01*
X139499180Y-96131332D02*
X139499180Y-96274189D01*
X139499180Y-94750379D02*
X140499180Y-94750379D01*
X140499180Y-94750379D02*
X139784895Y-94417046D01*
X139784895Y-94417046D02*
X140499180Y-94083713D01*
X140499180Y-94083713D02*
X139499180Y-94083713D01*
X139499180Y-93607522D02*
X140165847Y-93607522D01*
X140499180Y-93607522D02*
X140451561Y-93655141D01*
X140451561Y-93655141D02*
X140403942Y-93607522D01*
X140403942Y-93607522D02*
X140451561Y-93559903D01*
X140451561Y-93559903D02*
X140499180Y-93607522D01*
X140499180Y-93607522D02*
X140403942Y-93607522D01*
X140165847Y-93131332D02*
X139499180Y-93131332D01*
X140070609Y-93131332D02*
X140118228Y-93083713D01*
X140118228Y-93083713D02*
X140165847Y-92988475D01*
X140165847Y-92988475D02*
X140165847Y-92845618D01*
X140165847Y-92845618D02*
X140118228Y-92750380D01*
X140118228Y-92750380D02*
X140022990Y-92702761D01*
X140022990Y-92702761D02*
X139499180Y-92702761D01*
X139499180Y-92226570D02*
X140165847Y-92226570D01*
X140499180Y-92226570D02*
X140451561Y-92274189D01*
X140451561Y-92274189D02*
X140403942Y-92226570D01*
X140403942Y-92226570D02*
X140451561Y-92178951D01*
X140451561Y-92178951D02*
X140499180Y-92226570D01*
X140499180Y-92226570D02*
X140403942Y-92226570D01*
X135235514Y-90906571D02*
X135273609Y-90868475D01*
X135273609Y-90868475D02*
X135311704Y-90792285D01*
X135311704Y-90792285D02*
X135311704Y-90601809D01*
X135311704Y-90601809D02*
X135273609Y-90525618D01*
X135273609Y-90525618D02*
X135235514Y-90487523D01*
X135235514Y-90487523D02*
X135159323Y-90449428D01*
X135159323Y-90449428D02*
X135083133Y-90449428D01*
X135083133Y-90449428D02*
X134968847Y-90487523D01*
X134968847Y-90487523D02*
X134511704Y-90944666D01*
X134511704Y-90944666D02*
X134511704Y-90449428D01*
X122548276Y-96329428D02*
X122548276Y-95948475D01*
X122319704Y-96405618D02*
X123119704Y-96138951D01*
X123119704Y-96138951D02*
X122319704Y-95872285D01*
X122319704Y-95186571D02*
X122319704Y-95643714D01*
X122319704Y-95415142D02*
X123119704Y-95415142D01*
X123119704Y-95415142D02*
X123005419Y-95491333D01*
X123005419Y-95491333D02*
X122929228Y-95567523D01*
X122929228Y-95567523D02*
X122891133Y-95643714D01*
X162559904Y-77877200D02*
X162417047Y-77924819D01*
X162417047Y-77924819D02*
X162178952Y-77924819D01*
X162178952Y-77924819D02*
X162083714Y-77877200D01*
X162083714Y-77877200D02*
X162036095Y-77829580D01*
X162036095Y-77829580D02*
X161988476Y-77734342D01*
X161988476Y-77734342D02*
X161988476Y-77639104D01*
X161988476Y-77639104D02*
X162036095Y-77543866D01*
X162036095Y-77543866D02*
X162083714Y-77496247D01*
X162083714Y-77496247D02*
X162178952Y-77448628D01*
X162178952Y-77448628D02*
X162369428Y-77401009D01*
X162369428Y-77401009D02*
X162464666Y-77353390D01*
X162464666Y-77353390D02*
X162512285Y-77305771D01*
X162512285Y-77305771D02*
X162559904Y-77210533D01*
X162559904Y-77210533D02*
X162559904Y-77115295D01*
X162559904Y-77115295D02*
X162512285Y-77020057D01*
X162512285Y-77020057D02*
X162464666Y-76972438D01*
X162464666Y-76972438D02*
X162369428Y-76924819D01*
X162369428Y-76924819D02*
X162131333Y-76924819D01*
X162131333Y-76924819D02*
X161988476Y-76972438D01*
X161655142Y-76924819D02*
X161036095Y-76924819D01*
X161036095Y-76924819D02*
X161369428Y-77305771D01*
X161369428Y-77305771D02*
X161226571Y-77305771D01*
X161226571Y-77305771D02*
X161131333Y-77353390D01*
X161131333Y-77353390D02*
X161083714Y-77401009D01*
X161083714Y-77401009D02*
X161036095Y-77496247D01*
X161036095Y-77496247D02*
X161036095Y-77734342D01*
X161036095Y-77734342D02*
X161083714Y-77829580D01*
X161083714Y-77829580D02*
X161131333Y-77877200D01*
X161131333Y-77877200D02*
X161226571Y-77924819D01*
X161226571Y-77924819D02*
X161512285Y-77924819D01*
X161512285Y-77924819D02*
X161607523Y-77877200D01*
X161607523Y-77877200D02*
X161655142Y-77829580D01*
X158395200Y-78232571D02*
X158442819Y-78375428D01*
X158442819Y-78375428D02*
X158442819Y-78613523D01*
X158442819Y-78613523D02*
X158395200Y-78708761D01*
X158395200Y-78708761D02*
X158347580Y-78756380D01*
X158347580Y-78756380D02*
X158252342Y-78803999D01*
X158252342Y-78803999D02*
X158157104Y-78803999D01*
X158157104Y-78803999D02*
X158061866Y-78756380D01*
X158061866Y-78756380D02*
X158014247Y-78708761D01*
X158014247Y-78708761D02*
X157966628Y-78613523D01*
X157966628Y-78613523D02*
X157919009Y-78423047D01*
X157919009Y-78423047D02*
X157871390Y-78327809D01*
X157871390Y-78327809D02*
X157823771Y-78280190D01*
X157823771Y-78280190D02*
X157728533Y-78232571D01*
X157728533Y-78232571D02*
X157633295Y-78232571D01*
X157633295Y-78232571D02*
X157538057Y-78280190D01*
X157538057Y-78280190D02*
X157490438Y-78327809D01*
X157490438Y-78327809D02*
X157442819Y-78423047D01*
X157442819Y-78423047D02*
X157442819Y-78661142D01*
X157442819Y-78661142D02*
X157490438Y-78803999D01*
X158395200Y-79184952D02*
X158442819Y-79327809D01*
X158442819Y-79327809D02*
X158442819Y-79565904D01*
X158442819Y-79565904D02*
X158395200Y-79661142D01*
X158395200Y-79661142D02*
X158347580Y-79708761D01*
X158347580Y-79708761D02*
X158252342Y-79756380D01*
X158252342Y-79756380D02*
X158157104Y-79756380D01*
X158157104Y-79756380D02*
X158061866Y-79708761D01*
X158061866Y-79708761D02*
X158014247Y-79661142D01*
X158014247Y-79661142D02*
X157966628Y-79565904D01*
X157966628Y-79565904D02*
X157919009Y-79375428D01*
X157919009Y-79375428D02*
X157871390Y-79280190D01*
X157871390Y-79280190D02*
X157823771Y-79232571D01*
X157823771Y-79232571D02*
X157728533Y-79184952D01*
X157728533Y-79184952D02*
X157633295Y-79184952D01*
X157633295Y-79184952D02*
X157538057Y-79232571D01*
X157538057Y-79232571D02*
X157490438Y-79280190D01*
X157490438Y-79280190D02*
X157442819Y-79375428D01*
X157442819Y-79375428D02*
X157442819Y-79613523D01*
X157442819Y-79613523D02*
X157490438Y-79756380D01*
X158442819Y-80708761D02*
X158442819Y-80137333D01*
X158442819Y-80423047D02*
X157442819Y-80423047D01*
X157442819Y-80423047D02*
X157585676Y-80327809D01*
X157585676Y-80327809D02*
X157680914Y-80232571D01*
X157680914Y-80232571D02*
X157728533Y-80137333D01*
X157538057Y-81089714D02*
X157490438Y-81137333D01*
X157490438Y-81137333D02*
X157442819Y-81232571D01*
X157442819Y-81232571D02*
X157442819Y-81470666D01*
X157442819Y-81470666D02*
X157490438Y-81565904D01*
X157490438Y-81565904D02*
X157538057Y-81613523D01*
X157538057Y-81613523D02*
X157633295Y-81661142D01*
X157633295Y-81661142D02*
X157728533Y-81661142D01*
X157728533Y-81661142D02*
X157871390Y-81613523D01*
X157871390Y-81613523D02*
X158442819Y-81042095D01*
X158442819Y-81042095D02*
X158442819Y-81661142D01*
X158442819Y-82089714D02*
X157442819Y-82089714D01*
X157442819Y-82089714D02*
X157442819Y-82327809D01*
X157442819Y-82327809D02*
X157490438Y-82470666D01*
X157490438Y-82470666D02*
X157585676Y-82565904D01*
X157585676Y-82565904D02*
X157680914Y-82613523D01*
X157680914Y-82613523D02*
X157871390Y-82661142D01*
X157871390Y-82661142D02*
X158014247Y-82661142D01*
X158014247Y-82661142D02*
X158204723Y-82613523D01*
X158204723Y-82613523D02*
X158299961Y-82565904D01*
X158299961Y-82565904D02*
X158395200Y-82470666D01*
X158395200Y-82470666D02*
X158442819Y-82327809D01*
X158442819Y-82327809D02*
X158442819Y-82089714D01*
X157442819Y-83280190D02*
X157442819Y-83375428D01*
X157442819Y-83375428D02*
X157490438Y-83470666D01*
X157490438Y-83470666D02*
X157538057Y-83518285D01*
X157538057Y-83518285D02*
X157633295Y-83565904D01*
X157633295Y-83565904D02*
X157823771Y-83613523D01*
X157823771Y-83613523D02*
X158061866Y-83613523D01*
X158061866Y-83613523D02*
X158252342Y-83565904D01*
X158252342Y-83565904D02*
X158347580Y-83518285D01*
X158347580Y-83518285D02*
X158395200Y-83470666D01*
X158395200Y-83470666D02*
X158442819Y-83375428D01*
X158442819Y-83375428D02*
X158442819Y-83280190D01*
X158442819Y-83280190D02*
X158395200Y-83184952D01*
X158395200Y-83184952D02*
X158347580Y-83137333D01*
X158347580Y-83137333D02*
X158252342Y-83089714D01*
X158252342Y-83089714D02*
X158061866Y-83042095D01*
X158061866Y-83042095D02*
X157823771Y-83042095D01*
X157823771Y-83042095D02*
X157633295Y-83089714D01*
X157633295Y-83089714D02*
X157538057Y-83137333D01*
X157538057Y-83137333D02*
X157490438Y-83184952D01*
X157490438Y-83184952D02*
X157442819Y-83280190D01*
X157442819Y-83946857D02*
X157442819Y-84613523D01*
X157442819Y-84613523D02*
X158442819Y-84184952D01*
X157442819Y-84851619D02*
X158442819Y-85184952D01*
X158442819Y-85184952D02*
X157442819Y-85518285D01*
X157490438Y-86375428D02*
X157442819Y-86280190D01*
X157442819Y-86280190D02*
X157442819Y-86137333D01*
X157442819Y-86137333D02*
X157490438Y-85994476D01*
X157490438Y-85994476D02*
X157585676Y-85899238D01*
X157585676Y-85899238D02*
X157680914Y-85851619D01*
X157680914Y-85851619D02*
X157871390Y-85804000D01*
X157871390Y-85804000D02*
X158014247Y-85804000D01*
X158014247Y-85804000D02*
X158204723Y-85851619D01*
X158204723Y-85851619D02*
X158299961Y-85899238D01*
X158299961Y-85899238D02*
X158395200Y-85994476D01*
X158395200Y-85994476D02*
X158442819Y-86137333D01*
X158442819Y-86137333D02*
X158442819Y-86232571D01*
X158442819Y-86232571D02*
X158395200Y-86375428D01*
X158395200Y-86375428D02*
X158347580Y-86423047D01*
X158347580Y-86423047D02*
X158014247Y-86423047D01*
X158014247Y-86423047D02*
X158014247Y-86232571D01*
X157776152Y-87280190D02*
X158442819Y-87280190D01*
X157395200Y-87042095D02*
X158109485Y-86804000D01*
X158109485Y-86804000D02*
X158109485Y-87423047D01*
D11*
X152660726Y-104260666D02*
X152375012Y-103993999D01*
X152660726Y-103803523D02*
X152060726Y-103803523D01*
X152060726Y-103803523D02*
X152060726Y-104108285D01*
X152060726Y-104108285D02*
X152089297Y-104184475D01*
X152089297Y-104184475D02*
X152117869Y-104222570D01*
X152117869Y-104222570D02*
X152175012Y-104260666D01*
X152175012Y-104260666D02*
X152260726Y-104260666D01*
X152260726Y-104260666D02*
X152317869Y-104222570D01*
X152317869Y-104222570D02*
X152346440Y-104184475D01*
X152346440Y-104184475D02*
X152375012Y-104108285D01*
X152375012Y-104108285D02*
X152375012Y-103803523D01*
X152117869Y-104565427D02*
X152089297Y-104603523D01*
X152089297Y-104603523D02*
X152060726Y-104679713D01*
X152060726Y-104679713D02*
X152060726Y-104870189D01*
X152060726Y-104870189D02*
X152089297Y-104946380D01*
X152089297Y-104946380D02*
X152117869Y-104984475D01*
X152117869Y-104984475D02*
X152175012Y-105022570D01*
X152175012Y-105022570D02*
X152232155Y-105022570D01*
X152232155Y-105022570D02*
X152317869Y-104984475D01*
X152317869Y-104984475D02*
X152660726Y-104527332D01*
X152660726Y-104527332D02*
X152660726Y-105022570D01*
D12*
X149274793Y-103916735D02*
X149274793Y-103345307D01*
X149274793Y-103631021D02*
X148274793Y-103631021D01*
X148274793Y-103631021D02*
X148417650Y-103535783D01*
X148417650Y-103535783D02*
X148512888Y-103440545D01*
X148512888Y-103440545D02*
X148560507Y-103345307D01*
X148274793Y-104535783D02*
X148274793Y-104631021D01*
X148274793Y-104631021D02*
X148322412Y-104726259D01*
X148322412Y-104726259D02*
X148370031Y-104773878D01*
X148370031Y-104773878D02*
X148465269Y-104821497D01*
X148465269Y-104821497D02*
X148655745Y-104869116D01*
X148655745Y-104869116D02*
X148893840Y-104869116D01*
X148893840Y-104869116D02*
X149084316Y-104821497D01*
X149084316Y-104821497D02*
X149179554Y-104773878D01*
X149179554Y-104773878D02*
X149227174Y-104726259D01*
X149227174Y-104726259D02*
X149274793Y-104631021D01*
X149274793Y-104631021D02*
X149274793Y-104535783D01*
X149274793Y-104535783D02*
X149227174Y-104440545D01*
X149227174Y-104440545D02*
X149179554Y-104392926D01*
X149179554Y-104392926D02*
X149084316Y-104345307D01*
X149084316Y-104345307D02*
X148893840Y-104297688D01*
X148893840Y-104297688D02*
X148655745Y-104297688D01*
X148655745Y-104297688D02*
X148465269Y-104345307D01*
X148465269Y-104345307D02*
X148370031Y-104392926D01*
X148370031Y-104392926D02*
X148322412Y-104440545D01*
X148322412Y-104440545D02*
X148274793Y-104535783D01*
X149274793Y-105297688D02*
X148274793Y-105297688D01*
X148893840Y-105392926D02*
X149274793Y-105678640D01*
X148608126Y-105678640D02*
X148989078Y-105297688D01*
X153112137Y-81864222D02*
X153826422Y-81864222D01*
X153826422Y-81864222D02*
X153969279Y-81816603D01*
X153969279Y-81816603D02*
X154064518Y-81721365D01*
X154064518Y-81721365D02*
X154112137Y-81578508D01*
X154112137Y-81578508D02*
X154112137Y-81483270D01*
X154112137Y-82864222D02*
X154112137Y-82292794D01*
X154112137Y-82578508D02*
X153112137Y-82578508D01*
X153112137Y-82578508D02*
X153254994Y-82483270D01*
X153254994Y-82483270D02*
X153350232Y-82388032D01*
X153350232Y-82388032D02*
X153397851Y-82292794D01*
X142338327Y-80709459D02*
X142385946Y-80852316D01*
X142385946Y-80852316D02*
X142433565Y-80899935D01*
X142433565Y-80899935D02*
X142528803Y-80947554D01*
X142528803Y-80947554D02*
X142671660Y-80947554D01*
X142671660Y-80947554D02*
X142766898Y-80899935D01*
X142766898Y-80899935D02*
X142814518Y-80852316D01*
X142814518Y-80852316D02*
X142862137Y-80757078D01*
X142862137Y-80757078D02*
X142862137Y-80376126D01*
X142862137Y-80376126D02*
X141862137Y-80376126D01*
X141862137Y-80376126D02*
X141862137Y-80709459D01*
X141862137Y-80709459D02*
X141909756Y-80804697D01*
X141909756Y-80804697D02*
X141957375Y-80852316D01*
X141957375Y-80852316D02*
X142052613Y-80899935D01*
X142052613Y-80899935D02*
X142147851Y-80899935D01*
X142147851Y-80899935D02*
X142243089Y-80852316D01*
X142243089Y-80852316D02*
X142290708Y-80804697D01*
X142290708Y-80804697D02*
X142338327Y-80709459D01*
X142338327Y-80709459D02*
X142338327Y-80376126D01*
X142862137Y-81804697D02*
X142338327Y-81804697D01*
X142338327Y-81804697D02*
X142243089Y-81757078D01*
X142243089Y-81757078D02*
X142195470Y-81661840D01*
X142195470Y-81661840D02*
X142195470Y-81471364D01*
X142195470Y-81471364D02*
X142243089Y-81376126D01*
X142814518Y-81804697D02*
X142862137Y-81709459D01*
X142862137Y-81709459D02*
X142862137Y-81471364D01*
X142862137Y-81471364D02*
X142814518Y-81376126D01*
X142814518Y-81376126D02*
X142719279Y-81328507D01*
X142719279Y-81328507D02*
X142624041Y-81328507D01*
X142624041Y-81328507D02*
X142528803Y-81376126D01*
X142528803Y-81376126D02*
X142481184Y-81471364D01*
X142481184Y-81471364D02*
X142481184Y-81709459D01*
X142481184Y-81709459D02*
X142433565Y-81804697D01*
X142862137Y-82280888D02*
X142195470Y-82280888D01*
X142385946Y-82280888D02*
X142290708Y-82328507D01*
X142290708Y-82328507D02*
X142243089Y-82376126D01*
X142243089Y-82376126D02*
X142195470Y-82471364D01*
X142195470Y-82471364D02*
X142195470Y-82566602D01*
X142862137Y-82899936D02*
X142195470Y-82899936D01*
X142385946Y-82899936D02*
X142290708Y-82947555D01*
X142290708Y-82947555D02*
X142243089Y-82995174D01*
X142243089Y-82995174D02*
X142195470Y-83090412D01*
X142195470Y-83090412D02*
X142195470Y-83185650D01*
X142814518Y-83899936D02*
X142862137Y-83804698D01*
X142862137Y-83804698D02*
X142862137Y-83614222D01*
X142862137Y-83614222D02*
X142814518Y-83518984D01*
X142814518Y-83518984D02*
X142719279Y-83471365D01*
X142719279Y-83471365D02*
X142338327Y-83471365D01*
X142338327Y-83471365D02*
X142243089Y-83518984D01*
X142243089Y-83518984D02*
X142195470Y-83614222D01*
X142195470Y-83614222D02*
X142195470Y-83804698D01*
X142195470Y-83804698D02*
X142243089Y-83899936D01*
X142243089Y-83899936D02*
X142338327Y-83947555D01*
X142338327Y-83947555D02*
X142433565Y-83947555D01*
X142433565Y-83947555D02*
X142528803Y-83471365D01*
X142862137Y-84518984D02*
X142814518Y-84423746D01*
X142814518Y-84423746D02*
X142719279Y-84376127D01*
X142719279Y-84376127D02*
X141862137Y-84376127D01*
X142957375Y-84661842D02*
X142957375Y-85423746D01*
X141862137Y-85947556D02*
X142576422Y-85947556D01*
X142576422Y-85947556D02*
X142719279Y-85899937D01*
X142719279Y-85899937D02*
X142814518Y-85804699D01*
X142814518Y-85804699D02*
X142862137Y-85661842D01*
X142862137Y-85661842D02*
X142862137Y-85566604D01*
X142862137Y-86852318D02*
X142338327Y-86852318D01*
X142338327Y-86852318D02*
X142243089Y-86804699D01*
X142243089Y-86804699D02*
X142195470Y-86709461D01*
X142195470Y-86709461D02*
X142195470Y-86518985D01*
X142195470Y-86518985D02*
X142243089Y-86423747D01*
X142814518Y-86852318D02*
X142862137Y-86757080D01*
X142862137Y-86757080D02*
X142862137Y-86518985D01*
X142862137Y-86518985D02*
X142814518Y-86423747D01*
X142814518Y-86423747D02*
X142719279Y-86376128D01*
X142719279Y-86376128D02*
X142624041Y-86376128D01*
X142624041Y-86376128D02*
X142528803Y-86423747D01*
X142528803Y-86423747D02*
X142481184Y-86518985D01*
X142481184Y-86518985D02*
X142481184Y-86757080D01*
X142481184Y-86757080D02*
X142433565Y-86852318D01*
X142814518Y-87757080D02*
X142862137Y-87661842D01*
X142862137Y-87661842D02*
X142862137Y-87471366D01*
X142862137Y-87471366D02*
X142814518Y-87376128D01*
X142814518Y-87376128D02*
X142766898Y-87328509D01*
X142766898Y-87328509D02*
X142671660Y-87280890D01*
X142671660Y-87280890D02*
X142385946Y-87280890D01*
X142385946Y-87280890D02*
X142290708Y-87328509D01*
X142290708Y-87328509D02*
X142243089Y-87376128D01*
X142243089Y-87376128D02*
X142195470Y-87471366D01*
X142195470Y-87471366D02*
X142195470Y-87661842D01*
X142195470Y-87661842D02*
X142243089Y-87757080D01*
X142862137Y-88185652D02*
X141862137Y-88185652D01*
X142481184Y-88280890D02*
X142862137Y-88566604D01*
X142195470Y-88566604D02*
X142576422Y-88185652D01*
D11*
X147842604Y-104256900D02*
X147556890Y-103990233D01*
X147842604Y-103799757D02*
X147242604Y-103799757D01*
X147242604Y-103799757D02*
X147242604Y-104104519D01*
X147242604Y-104104519D02*
X147271175Y-104180709D01*
X147271175Y-104180709D02*
X147299747Y-104218804D01*
X147299747Y-104218804D02*
X147356890Y-104256900D01*
X147356890Y-104256900D02*
X147442604Y-104256900D01*
X147442604Y-104256900D02*
X147499747Y-104218804D01*
X147499747Y-104218804D02*
X147528318Y-104180709D01*
X147528318Y-104180709D02*
X147556890Y-104104519D01*
X147556890Y-104104519D02*
X147556890Y-103799757D01*
X147842604Y-105018804D02*
X147842604Y-104561661D01*
X147842604Y-104790233D02*
X147242604Y-104790233D01*
X147242604Y-104790233D02*
X147328318Y-104714042D01*
X147328318Y-104714042D02*
X147385461Y-104637852D01*
X147385461Y-104637852D02*
X147414033Y-104561661D01*
D12*
X144346793Y-103916735D02*
X144346793Y-103345307D01*
X144346793Y-103631021D02*
X143346793Y-103631021D01*
X143346793Y-103631021D02*
X143489650Y-103535783D01*
X143489650Y-103535783D02*
X143584888Y-103440545D01*
X143584888Y-103440545D02*
X143632507Y-103345307D01*
X143346793Y-104535783D02*
X143346793Y-104631021D01*
X143346793Y-104631021D02*
X143394412Y-104726259D01*
X143394412Y-104726259D02*
X143442031Y-104773878D01*
X143442031Y-104773878D02*
X143537269Y-104821497D01*
X143537269Y-104821497D02*
X143727745Y-104869116D01*
X143727745Y-104869116D02*
X143965840Y-104869116D01*
X143965840Y-104869116D02*
X144156316Y-104821497D01*
X144156316Y-104821497D02*
X144251554Y-104773878D01*
X144251554Y-104773878D02*
X144299174Y-104726259D01*
X144299174Y-104726259D02*
X144346793Y-104631021D01*
X144346793Y-104631021D02*
X144346793Y-104535783D01*
X144346793Y-104535783D02*
X144299174Y-104440545D01*
X144299174Y-104440545D02*
X144251554Y-104392926D01*
X144251554Y-104392926D02*
X144156316Y-104345307D01*
X144156316Y-104345307D02*
X143965840Y-104297688D01*
X143965840Y-104297688D02*
X143727745Y-104297688D01*
X143727745Y-104297688D02*
X143537269Y-104345307D01*
X143537269Y-104345307D02*
X143442031Y-104392926D01*
X143442031Y-104392926D02*
X143394412Y-104440545D01*
X143394412Y-104440545D02*
X143346793Y-104535783D01*
X144346793Y-105297688D02*
X143346793Y-105297688D01*
X143965840Y-105392926D02*
X144346793Y-105678640D01*
X143680126Y-105678640D02*
X144061078Y-105297688D01*
D13*
%TO.C,G\u002A\u002A\u002A*%
G36*
X169609097Y-104198721D02*
G01*
X169607793Y-104212136D01*
X169588869Y-104274166D01*
X169552357Y-104358017D01*
X169504607Y-104452257D01*
X169451967Y-104545455D01*
X169400788Y-104626178D01*
X169357417Y-104682995D01*
X169328204Y-104704474D01*
X169306141Y-104709731D01*
X169292960Y-104737467D01*
X169297942Y-104796852D01*
X169320749Y-104896571D01*
X169327833Y-104925601D01*
X169340014Y-105007217D01*
X169332619Y-105079287D01*
X169302437Y-105157349D01*
X169246255Y-105256945D01*
X169207750Y-105317694D01*
X169169510Y-105362304D01*
X169128446Y-105380827D01*
X169072543Y-105378028D01*
X168989783Y-105358674D01*
X168927512Y-105337463D01*
X168867146Y-105297205D01*
X168819354Y-105232480D01*
X168777408Y-105133590D01*
X168734581Y-104990838D01*
X168725154Y-104956292D01*
X168700081Y-104869140D01*
X168684757Y-104827643D01*
X168676964Y-104827073D01*
X168674485Y-104862703D01*
X168669850Y-104925091D01*
X168632644Y-105053837D01*
X168557069Y-105178613D01*
X168532121Y-105209389D01*
X168496262Y-105239420D01*
X168453022Y-105249097D01*
X168386399Y-105244610D01*
X168333348Y-105235835D01*
X168272212Y-105210427D01*
X168225612Y-105161590D01*
X168185344Y-105079536D01*
X168143205Y-104954481D01*
X168140813Y-104946694D01*
X168111343Y-104856236D01*
X168086156Y-104787960D01*
X168070479Y-104756120D01*
X168064394Y-104752814D01*
X168025275Y-104743023D01*
X167960625Y-104732846D01*
X167880710Y-104724019D01*
X167850857Y-104721127D01*
X167771932Y-104711470D01*
X167710028Y-104701038D01*
X167676513Y-104691636D01*
X167674208Y-104690294D01*
X167638649Y-104643489D01*
X167605685Y-104557196D01*
X167579587Y-104445509D01*
X167564627Y-104322519D01*
X167561064Y-104249521D01*
X167565562Y-104183953D01*
X167585749Y-104128180D01*
X167627482Y-104057513D01*
X167698709Y-103966742D01*
X167768725Y-103924885D01*
X167771322Y-103924202D01*
X167821645Y-103899220D01*
X167837467Y-103858600D01*
X167834115Y-103831262D01*
X167810680Y-103799054D01*
X167759813Y-103781918D01*
X167675603Y-103776870D01*
X167607245Y-103772187D01*
X167532392Y-103745621D01*
X167477333Y-103688476D01*
X167435308Y-103592757D01*
X167399556Y-103450471D01*
X167398030Y-103442959D01*
X167390415Y-103378580D01*
X167400325Y-103321058D01*
X167431606Y-103245852D01*
X167444457Y-103219831D01*
X167446501Y-103216283D01*
X167581862Y-103216283D01*
X167584452Y-103266683D01*
X167597053Y-103344527D01*
X167616262Y-103429018D01*
X167627208Y-103463051D01*
X167643198Y-103486347D01*
X167672097Y-103498562D01*
X167722872Y-103503270D01*
X167804491Y-103504045D01*
X167971559Y-103504045D01*
X168041419Y-103756408D01*
X168060381Y-103826934D01*
X168084674Y-103925155D01*
X168099636Y-103996573D01*
X168102587Y-104029233D01*
X168101644Y-104030639D01*
X168074487Y-104040293D01*
X168019536Y-104047111D01*
X167947403Y-104049695D01*
X167874982Y-104050652D01*
X167800538Y-104058881D01*
X167757051Y-104081715D01*
X167739307Y-104126413D01*
X167742097Y-104200234D01*
X167760207Y-104310438D01*
X167782476Y-104431649D01*
X168007031Y-104431649D01*
X168231587Y-104431649D01*
X168297801Y-104688459D01*
X168364015Y-104945270D01*
X168470677Y-104963535D01*
X168513357Y-104969901D01*
X168562587Y-104974137D01*
X168584831Y-104971532D01*
X168584901Y-104961396D01*
X168576517Y-104909337D01*
X168559137Y-104824015D01*
X168535094Y-104717356D01*
X168521523Y-104657696D01*
X168501086Y-104558611D01*
X168488918Y-104486037D01*
X168487289Y-104452549D01*
X168499856Y-104444705D01*
X168543526Y-104436628D01*
X168606256Y-104432758D01*
X168675778Y-104433274D01*
X168739823Y-104438355D01*
X168786123Y-104448181D01*
X168807696Y-104464907D01*
X168831809Y-104509466D01*
X168858830Y-104589542D01*
X168892224Y-104713812D01*
X168907635Y-104773345D01*
X168938137Y-104883836D01*
X168965120Y-104972782D01*
X168984114Y-105025044D01*
X168994289Y-105044308D01*
X169020164Y-105070986D01*
X169062063Y-105083388D01*
X169131813Y-105086429D01*
X169185727Y-105084036D01*
X169232709Y-105076096D01*
X169250790Y-105064523D01*
X169245722Y-105037592D01*
X169229400Y-104968650D01*
X169204492Y-104869639D01*
X169173758Y-104751769D01*
X169146695Y-104645870D01*
X169123421Y-104546323D01*
X169109542Y-104476192D01*
X169107405Y-104446286D01*
X169109477Y-104444696D01*
X169140291Y-104438065D01*
X169198213Y-104433408D01*
X169272785Y-104431649D01*
X169427486Y-104431649D01*
X169423738Y-104356650D01*
X169423238Y-104341578D01*
X169431778Y-104291952D01*
X169464779Y-104272905D01*
X169497891Y-104253256D01*
X169509568Y-104197851D01*
X169508383Y-104154641D01*
X169504591Y-104129898D01*
X169504332Y-104129838D01*
X169481107Y-104127206D01*
X169426511Y-104121700D01*
X169348316Y-104114089D01*
X169254292Y-104105141D01*
X169247921Y-104104537D01*
X169154033Y-104094597D01*
X169075924Y-104084486D01*
X169021582Y-104075355D01*
X168998993Y-104068355D01*
X168995549Y-104061725D01*
X168979187Y-104014505D01*
X168956199Y-103936394D01*
X168930133Y-103840997D01*
X168904535Y-103741917D01*
X168882955Y-103652757D01*
X168868940Y-103587120D01*
X168866038Y-103558610D01*
X168882404Y-103553154D01*
X168931608Y-103545625D01*
X169005003Y-103538010D01*
X169094067Y-103531327D01*
X169142342Y-103528230D01*
X169221090Y-103521995D01*
X169268802Y-103514815D01*
X169291471Y-103504700D01*
X169295091Y-103489659D01*
X169285655Y-103467702D01*
X169281448Y-103460840D01*
X169247352Y-103431995D01*
X169185800Y-103408234D01*
X169090615Y-103387001D01*
X168922342Y-103356283D01*
X169061684Y-103334484D01*
X169133832Y-103322530D01*
X169195886Y-103308819D01*
X169231226Y-103293622D01*
X169247109Y-103273507D01*
X169250790Y-103245042D01*
X169248193Y-103226096D01*
X169221726Y-103191200D01*
X169164399Y-103167371D01*
X169073386Y-103153724D01*
X168945862Y-103149372D01*
X168743056Y-103149372D01*
X168696353Y-102965215D01*
X168671950Y-102872356D01*
X168645369Y-102788329D01*
X168620432Y-102740067D01*
X168591788Y-102718073D01*
X168554082Y-102712852D01*
X168511947Y-102702733D01*
X168474458Y-102671929D01*
X168472862Y-102669362D01*
X168438978Y-102636742D01*
X168408236Y-102635721D01*
X168394834Y-102667150D01*
X168395044Y-102671316D01*
X168403186Y-102720786D01*
X168420789Y-102803447D01*
X168444599Y-102903830D01*
X168449654Y-102924323D01*
X168472366Y-103019756D01*
X168488333Y-103092415D01*
X168494364Y-103127931D01*
X168490991Y-103132417D01*
X168458666Y-103140624D01*
X168399420Y-103144631D01*
X168322298Y-103143614D01*
X168150232Y-103135731D01*
X168078450Y-102849265D01*
X168058563Y-102770396D01*
X168032186Y-102671491D01*
X168011710Y-102609680D01*
X167992897Y-102575722D01*
X167971513Y-102560372D01*
X167943321Y-102554387D01*
X167902271Y-102553150D01*
X167881474Y-102575080D01*
X167873110Y-102636235D01*
X167866245Y-102726494D01*
X167828263Y-102624184D01*
X167823280Y-102611346D01*
X167788022Y-102546252D01*
X167754157Y-102521875D01*
X167736595Y-102524225D01*
X167724288Y-102537839D01*
X167723037Y-102570655D01*
X167733786Y-102630532D01*
X167757475Y-102725329D01*
X167795048Y-102862906D01*
X167870737Y-103135731D01*
X167769502Y-103142803D01*
X167684077Y-103150456D01*
X167625102Y-103162570D01*
X167593221Y-103183045D01*
X167581862Y-103216283D01*
X167446501Y-103216283D01*
X167493424Y-103134854D01*
X167541450Y-103067525D01*
X167599658Y-102999319D01*
X167567436Y-102869885D01*
X167553578Y-102811448D01*
X167545559Y-102750061D01*
X167553499Y-102694466D01*
X167578596Y-102617629D01*
X167606134Y-102545557D01*
X167649918Y-102464606D01*
X167702337Y-102418925D01*
X167773364Y-102401295D01*
X167872972Y-102404494D01*
X167911813Y-102408599D01*
X167987867Y-102423094D01*
X168041517Y-102451330D01*
X168081453Y-102502839D01*
X168116364Y-102587153D01*
X168154942Y-102713806D01*
X168165498Y-102749606D01*
X168190188Y-102824375D01*
X168207609Y-102863891D01*
X168214517Y-102860179D01*
X168218830Y-102831175D01*
X168244660Y-102756676D01*
X168286148Y-102671296D01*
X168334449Y-102592248D01*
X168380715Y-102536748D01*
X168406436Y-102517220D01*
X168436314Y-102510398D01*
X168478477Y-102521233D01*
X168545335Y-102550782D01*
X168593180Y-102576028D01*
X168679162Y-102646161D01*
X168739733Y-102743956D01*
X168784314Y-102882492D01*
X168815634Y-103011208D01*
X169036092Y-103018905D01*
X169087097Y-103020796D01*
X169167672Y-103025346D01*
X169220550Y-103032766D01*
X169253912Y-103045524D01*
X169275937Y-103066086D01*
X169294804Y-103096919D01*
X169321123Y-103157945D01*
X169354399Y-103282224D01*
X169383983Y-103455423D01*
X169384101Y-103508687D01*
X169364754Y-103576039D01*
X169320931Y-103666862D01*
X169314656Y-103678556D01*
X169274318Y-103749139D01*
X169242167Y-103786651D01*
X169205282Y-103801514D01*
X169150740Y-103804152D01*
X169109519Y-103805743D01*
X169057653Y-103818796D01*
X169041059Y-103846896D01*
X169057345Y-103892302D01*
X169066637Y-103903039D01*
X169110062Y-103925181D01*
X169186983Y-103944835D01*
X169300555Y-103962920D01*
X169313867Y-103964693D01*
X169407566Y-103978462D01*
X169471000Y-103991983D01*
X169512628Y-104008477D01*
X169540911Y-104031160D01*
X169564309Y-104063250D01*
X169565634Y-104065387D01*
X169596376Y-104133794D01*
X169608927Y-104197851D01*
X169609097Y-104198721D01*
G37*
G36*
X162748237Y-104625692D02*
G01*
X162750779Y-104805216D01*
X162756357Y-104965245D01*
X162764688Y-105074278D01*
X162775678Y-105130586D01*
X162788044Y-105172085D01*
X162786372Y-105206871D01*
X162778742Y-105211813D01*
X162739652Y-105218393D01*
X162682566Y-105217279D01*
X162592248Y-105209200D01*
X162592248Y-105045505D01*
X162592248Y-104881811D01*
X162468433Y-104873709D01*
X162426128Y-104870102D01*
X162367002Y-104857427D01*
X162324886Y-104831047D01*
X162284788Y-104783608D01*
X162232501Y-104688312D01*
X162196821Y-104554723D01*
X162193817Y-104471693D01*
X162335959Y-104471693D01*
X162336059Y-104490576D01*
X162345298Y-104625581D01*
X162370009Y-104715097D01*
X162416052Y-104770157D01*
X162479626Y-104786080D01*
X162547460Y-104756854D01*
X162560166Y-104742871D01*
X162573713Y-104705077D01*
X162580463Y-104637571D01*
X162582295Y-104528008D01*
X162582081Y-104456066D01*
X162579147Y-104379535D01*
X162569623Y-104333011D01*
X162549620Y-104301543D01*
X162515251Y-104270180D01*
X162455433Y-104228366D01*
X162400654Y-104218210D01*
X162363597Y-104254125D01*
X162342590Y-104337993D01*
X162335959Y-104471693D01*
X162193817Y-104471693D01*
X162191735Y-104414138D01*
X162217475Y-104280137D01*
X162274272Y-104166297D01*
X162282390Y-104155544D01*
X162356170Y-104090617D01*
X162436079Y-104078826D01*
X162525019Y-104119631D01*
X162579006Y-104144696D01*
X162638489Y-104146962D01*
X162642937Y-104145702D01*
X162678937Y-104138841D01*
X162705358Y-104145808D01*
X162723755Y-104173393D01*
X162735685Y-104228384D01*
X162742704Y-104317572D01*
X162746370Y-104447745D01*
X162747212Y-104528008D01*
X162748237Y-104625692D01*
G37*
G36*
X167374023Y-104499027D02*
G01*
X167353137Y-104642561D01*
X167313773Y-104749179D01*
X167252911Y-104826698D01*
X167167529Y-104882939D01*
X167133188Y-104898035D01*
X167020196Y-104922854D01*
X166920448Y-104906209D01*
X166840852Y-104848822D01*
X166794382Y-104785663D01*
X166731945Y-104647536D01*
X166695232Y-104473729D01*
X166683116Y-104260047D01*
X166686770Y-104179915D01*
X166813780Y-104179915D01*
X166819379Y-104331377D01*
X166834843Y-104483484D01*
X166858201Y-104612283D01*
X166887529Y-104707382D01*
X166920902Y-104758386D01*
X166991276Y-104783843D01*
X167076620Y-104776781D01*
X167160665Y-104738535D01*
X167230336Y-104690833D01*
X167234768Y-104404367D01*
X167235055Y-104381821D01*
X167229710Y-104163861D01*
X167208881Y-103995892D01*
X167172589Y-103878017D01*
X167120853Y-103810342D01*
X167092586Y-103794972D01*
X167012714Y-103785268D01*
X166930943Y-103811910D01*
X166864015Y-103870949D01*
X166845664Y-103897781D01*
X166827593Y-103936255D01*
X166817796Y-103986627D01*
X166813962Y-104063110D01*
X166813780Y-104179915D01*
X166686770Y-104179915D01*
X166691670Y-104072452D01*
X166720532Y-103921204D01*
X166772358Y-103807527D01*
X166849787Y-103725702D01*
X166955461Y-103670007D01*
X167007225Y-103655489D01*
X167113653Y-103658867D01*
X167204710Y-103709876D01*
X167278611Y-103805720D01*
X167333569Y-103943602D01*
X167367801Y-104120725D01*
X167379519Y-104334292D01*
X167377933Y-104381821D01*
X167374023Y-104499027D01*
G37*
G36*
X166595014Y-104636867D02*
G01*
X166586381Y-104669010D01*
X166542519Y-104753453D01*
X166476142Y-104831231D01*
X166398703Y-104887707D01*
X166338328Y-104906918D01*
X166231417Y-104907174D01*
X166105649Y-104876617D01*
X166079061Y-104864601D01*
X166037134Y-104819435D01*
X166032361Y-104757304D01*
X166065830Y-104683487D01*
X166077925Y-104666285D01*
X166115607Y-104628605D01*
X166144568Y-104639728D01*
X166174073Y-104701168D01*
X166209196Y-104767069D01*
X166264093Y-104804272D01*
X166328330Y-104789960D01*
X166399262Y-104723865D01*
X166404658Y-104716708D01*
X166437640Y-104637645D01*
X166441921Y-104553872D01*
X166488115Y-104553872D01*
X166490498Y-104586250D01*
X166496485Y-104590518D01*
X166503768Y-104568062D01*
X166502332Y-104553619D01*
X166490498Y-104549874D01*
X166488115Y-104553872D01*
X166441921Y-104553872D01*
X166442391Y-104544685D01*
X166423682Y-104449238D01*
X166386287Y-104362713D01*
X166334980Y-104296521D01*
X166274533Y-104262072D01*
X166209720Y-104270775D01*
X166155489Y-104292039D01*
X166113458Y-104283674D01*
X166084388Y-104237202D01*
X166079322Y-104222896D01*
X166075228Y-104177206D01*
X166099852Y-104149197D01*
X166156592Y-104136820D01*
X166248845Y-104138026D01*
X166296261Y-104142139D01*
X166360096Y-104155613D01*
X166408692Y-104182793D01*
X166457858Y-104230687D01*
X166459367Y-104232369D01*
X166521324Y-104322921D01*
X166568392Y-104431798D01*
X166594859Y-104542084D01*
X166594901Y-104568062D01*
X166595014Y-104636867D01*
G37*
G36*
X165846778Y-103912516D02*
G01*
X165856515Y-104015883D01*
X165860432Y-104115968D01*
X165857006Y-104184975D01*
X165852269Y-104223386D01*
X165859800Y-104268063D01*
X165895114Y-104299250D01*
X165902424Y-104304086D01*
X165939315Y-104345317D01*
X165941279Y-104386550D01*
X165907281Y-104417707D01*
X165877107Y-104450948D01*
X165856583Y-104535496D01*
X165856406Y-104537035D01*
X165845432Y-104633308D01*
X165835245Y-104723754D01*
X165816741Y-104794504D01*
X165773776Y-104866987D01*
X165712927Y-104912172D01*
X165653321Y-104918034D01*
X165607489Y-104880966D01*
X165596518Y-104857175D01*
X165604436Y-104832545D01*
X165644864Y-104806779D01*
X165673045Y-104790525D01*
X165696317Y-104763603D01*
X165705755Y-104716540D01*
X165707530Y-104632145D01*
X165707184Y-104590871D01*
X165701383Y-104519222D01*
X165683634Y-104473001D01*
X165647812Y-104431649D01*
X165625060Y-104408209D01*
X165593642Y-104361257D01*
X165598094Y-104324575D01*
X165637859Y-104290273D01*
X165644341Y-104286143D01*
X165664908Y-104268675D01*
X165677651Y-104241654D01*
X165684438Y-104193828D01*
X165687139Y-104113944D01*
X165687624Y-103990750D01*
X165687624Y-103722305D01*
X165755496Y-103722305D01*
X165823369Y-103722305D01*
X165846778Y-103912516D01*
G37*
G36*
X165508471Y-104541258D02*
G01*
X165508457Y-104545859D01*
X165491799Y-104686235D01*
X165443390Y-104793888D01*
X165362832Y-104869714D01*
X165320595Y-104893378D01*
X165220235Y-104922989D01*
X165137051Y-104903633D01*
X165070247Y-104834955D01*
X165019030Y-104716601D01*
X165010440Y-104683510D01*
X164995057Y-104574553D01*
X164991944Y-104456325D01*
X164992377Y-104451186D01*
X165130536Y-104451186D01*
X165132506Y-104560519D01*
X165142914Y-104659175D01*
X165161245Y-104725686D01*
X165191440Y-104764489D01*
X165249330Y-104784242D01*
X165313218Y-104757751D01*
X165325944Y-104742883D01*
X165349056Y-104677382D01*
X165360363Y-104584154D01*
X165360369Y-104479356D01*
X165349577Y-104379146D01*
X165328491Y-104299681D01*
X165297614Y-104257118D01*
X165245371Y-104241132D01*
X165187660Y-104251813D01*
X165150864Y-104293443D01*
X165137519Y-104352643D01*
X165130536Y-104451186D01*
X164992377Y-104451186D01*
X165000965Y-104349280D01*
X165021983Y-104273869D01*
X165066423Y-104211726D01*
X165145294Y-104155412D01*
X165235381Y-104131276D01*
X165324062Y-104142106D01*
X165398715Y-104190688D01*
X165448533Y-104263400D01*
X165492813Y-104390693D01*
X165502034Y-104479356D01*
X165508471Y-104541258D01*
G37*
G36*
X164761339Y-103721556D02*
G01*
X164778214Y-103757660D01*
X164797073Y-103837260D01*
X164812120Y-103939205D01*
X164821386Y-104045765D01*
X164822901Y-104139214D01*
X164814694Y-104201823D01*
X164805737Y-104233795D01*
X164810257Y-104270006D01*
X164845884Y-104301066D01*
X164854537Y-104307119D01*
X164896665Y-104350970D01*
X164905191Y-104392061D01*
X164878112Y-104422824D01*
X164843893Y-104447803D01*
X164819179Y-104500298D01*
X164812067Y-104589400D01*
X164809129Y-104641782D01*
X164789811Y-104746079D01*
X164757726Y-104836154D01*
X164719074Y-104891836D01*
X164677539Y-104914843D01*
X164617505Y-104916671D01*
X164572379Y-104880966D01*
X164561409Y-104857175D01*
X164569327Y-104832545D01*
X164609754Y-104806779D01*
X164622687Y-104799571D01*
X164654888Y-104770323D01*
X164670320Y-104724624D01*
X164671218Y-104650361D01*
X164659817Y-104535420D01*
X164655899Y-104507742D01*
X164637463Y-104448505D01*
X164605294Y-104426290D01*
X164581192Y-104413794D01*
X164563571Y-104372618D01*
X164572523Y-104322298D01*
X164607726Y-104281947D01*
X164608487Y-104281488D01*
X164628921Y-104265290D01*
X164641821Y-104239278D01*
X164648908Y-104192266D01*
X164651899Y-104113068D01*
X164652514Y-103990499D01*
X164653058Y-103876782D01*
X164655852Y-103794377D01*
X164662452Y-103745986D01*
X164674411Y-103720859D01*
X164693282Y-103708248D01*
X164721524Y-103703721D01*
X164761339Y-103721556D01*
G37*
G36*
X164452059Y-103941927D02*
G01*
X164453280Y-104100698D01*
X164453455Y-104308022D01*
X164453455Y-104922734D01*
X164373831Y-104922734D01*
X164294207Y-104922734D01*
X164294207Y-104653589D01*
X164293974Y-104585017D01*
X164291428Y-104477207D01*
X164284794Y-104404558D01*
X164272494Y-104354024D01*
X164252951Y-104312557D01*
X164223537Y-104272880D01*
X164174928Y-104242819D01*
X164131617Y-104250945D01*
X164104392Y-104298296D01*
X164101438Y-104319386D01*
X164097576Y-104393329D01*
X164096354Y-104498297D01*
X164098074Y-104618866D01*
X164105101Y-104881811D01*
X164030909Y-104890241D01*
X163956718Y-104898671D01*
X163968981Y-104631057D01*
X163973941Y-104534527D01*
X163985311Y-104388963D01*
X164001257Y-104284066D01*
X164024119Y-104210758D01*
X164056233Y-104159961D01*
X164099938Y-104122596D01*
X164107033Y-104117876D01*
X164155708Y-104090762D01*
X164191650Y-104089794D01*
X164234304Y-104113684D01*
X164294207Y-104154642D01*
X164294207Y-103926375D01*
X164338272Y-103926375D01*
X164340654Y-103958753D01*
X164346642Y-103963021D01*
X164353925Y-103940565D01*
X164352489Y-103926121D01*
X164340654Y-103922376D01*
X164338272Y-103926375D01*
X164294207Y-103926375D01*
X164294207Y-103925352D01*
X164294596Y-103827443D01*
X164297400Y-103752607D01*
X164304982Y-103710715D01*
X164319704Y-103690066D01*
X164343928Y-103678958D01*
X164364121Y-103672201D01*
X164393608Y-103665920D01*
X164415767Y-103672116D01*
X164431644Y-103696803D01*
X164442288Y-103745991D01*
X164448744Y-103825695D01*
X164452020Y-103940565D01*
X164452059Y-103941927D01*
G37*
G36*
X163876182Y-104527138D02*
G01*
X163875818Y-104553419D01*
X163857276Y-104692465D01*
X163809432Y-104796530D01*
X163730544Y-104869714D01*
X163688307Y-104893378D01*
X163587947Y-104922989D01*
X163504762Y-104903633D01*
X163437959Y-104834955D01*
X163386741Y-104716601D01*
X163378151Y-104683510D01*
X163362769Y-104574553D01*
X163359656Y-104456325D01*
X163360089Y-104451186D01*
X163498248Y-104451186D01*
X163500218Y-104560519D01*
X163510626Y-104659175D01*
X163528957Y-104725686D01*
X163559152Y-104764489D01*
X163617042Y-104784242D01*
X163680930Y-104757751D01*
X163693655Y-104742883D01*
X163716768Y-104677382D01*
X163728075Y-104584154D01*
X163728081Y-104479356D01*
X163717289Y-104379146D01*
X163696202Y-104299681D01*
X163665325Y-104257118D01*
X163613082Y-104241132D01*
X163555371Y-104251813D01*
X163518575Y-104293443D01*
X163505231Y-104352643D01*
X163498248Y-104451186D01*
X163360089Y-104451186D01*
X163368677Y-104349280D01*
X163389695Y-104273869D01*
X163435611Y-104209688D01*
X163520414Y-104152000D01*
X163623685Y-104131542D01*
X163660091Y-104134767D01*
X163748940Y-104175570D01*
X163817100Y-104258530D01*
X163860779Y-104377700D01*
X163871257Y-104479356D01*
X163876182Y-104527138D01*
G37*
G36*
X162101984Y-104533726D02*
G01*
X162096909Y-104667634D01*
X162055542Y-104779705D01*
X161977817Y-104870405D01*
X161929738Y-104904379D01*
X161878617Y-104919554D01*
X161817055Y-104911762D01*
X161732021Y-104881596D01*
X161711116Y-104872348D01*
X161643914Y-104824965D01*
X161615314Y-104766889D01*
X161625626Y-104699515D01*
X161675157Y-104624238D01*
X161690381Y-104609960D01*
X161709111Y-104615888D01*
X161727254Y-104666851D01*
X161748130Y-104726340D01*
X161786612Y-104772781D01*
X161846770Y-104785904D01*
X161889572Y-104777527D01*
X161931305Y-104731988D01*
X161945304Y-104647372D01*
X161944889Y-104630241D01*
X161935070Y-104584764D01*
X161906856Y-104557511D01*
X161853176Y-104544258D01*
X161766960Y-104540779D01*
X161742723Y-104540375D01*
X161667069Y-104528990D01*
X161624811Y-104497834D01*
X161611707Y-104441385D01*
X161623513Y-104354123D01*
X161637626Y-104314099D01*
X161794996Y-104314099D01*
X161806640Y-104376743D01*
X161852128Y-104414947D01*
X161879003Y-104424147D01*
X161923500Y-104430585D01*
X161940317Y-104409621D01*
X161935909Y-104356775D01*
X161935224Y-104353099D01*
X161909203Y-104266177D01*
X161875231Y-104219954D01*
X161839134Y-104218523D01*
X161806734Y-104265978D01*
X161794996Y-104314099D01*
X161637626Y-104314099D01*
X161663919Y-104239536D01*
X161732407Y-104153957D01*
X161823492Y-104112149D01*
X161876052Y-104109181D01*
X161946108Y-104137109D01*
X162004380Y-104209512D01*
X162056213Y-104331424D01*
X162070835Y-104377515D01*
X162077237Y-104409621D01*
X162101984Y-104533726D01*
G37*
G36*
X163014158Y-104108638D02*
G01*
X163116568Y-104133952D01*
X163178253Y-104153702D01*
X163236240Y-104187457D01*
X163256848Y-104228323D01*
X163241445Y-104277875D01*
X163237876Y-104284409D01*
X163217261Y-104357575D01*
X163206337Y-104463879D01*
X163206095Y-104585624D01*
X163217526Y-104705114D01*
X163218290Y-104710021D01*
X163229463Y-104797728D01*
X163228386Y-104847419D01*
X163214843Y-104872509D01*
X163179443Y-104888900D01*
X163126890Y-104894329D01*
X163077666Y-104886822D01*
X163049546Y-104866974D01*
X163046165Y-104847073D01*
X163059196Y-104801354D01*
X163069716Y-104760421D01*
X163076047Y-104672412D01*
X163075839Y-104550186D01*
X163069991Y-104336161D01*
X162975378Y-104340585D01*
X162955254Y-104341332D01*
X162905884Y-104337957D01*
X162881098Y-104320320D01*
X162869222Y-104281974D01*
X162863904Y-104235633D01*
X162864305Y-104154779D01*
X162865588Y-104144712D01*
X162876182Y-104114053D01*
X162900271Y-104098167D01*
X162944161Y-104096536D01*
X163014158Y-104108638D01*
G37*
G36*
X166857099Y-102881556D02*
G01*
X166874787Y-102885298D01*
X166904307Y-102908641D01*
X166910596Y-102965215D01*
X166910079Y-102999095D01*
X166908863Y-103085334D01*
X166907306Y-103200330D01*
X166905620Y-103328606D01*
X166904635Y-103400195D01*
X166902269Y-103503822D01*
X166897960Y-103567062D01*
X166890080Y-103599294D01*
X166877002Y-103609897D01*
X166857099Y-103608252D01*
X166837418Y-103601604D01*
X166820351Y-103578938D01*
X166811273Y-103528455D01*
X166806213Y-103436782D01*
X166803599Y-103385599D01*
X166790274Y-103280998D01*
X166766424Y-103222283D01*
X166730249Y-103203937D01*
X166715585Y-103215823D01*
X166705669Y-103265306D01*
X166702523Y-103360812D01*
X166700402Y-103446146D01*
X166689120Y-103535004D01*
X166667021Y-103576969D01*
X166632864Y-103575872D01*
X166619628Y-103565495D01*
X166607688Y-103535535D01*
X166604061Y-103477065D01*
X166607085Y-103377273D01*
X166618430Y-103260328D01*
X166645990Y-103165802D01*
X166689974Y-103118159D01*
X166751619Y-103115157D01*
X166772026Y-103119557D01*
X166792688Y-103112984D01*
X166800893Y-103077660D01*
X166802358Y-103000687D01*
X166802772Y-102947323D01*
X166807898Y-102897190D01*
X166823941Y-102879764D01*
X166857099Y-102881556D01*
G37*
G36*
X166540828Y-103347151D02*
G01*
X166535096Y-103455170D01*
X166494720Y-103546209D01*
X166474035Y-103572547D01*
X166431207Y-103606159D01*
X166382440Y-103605831D01*
X166314022Y-103573643D01*
X166287821Y-103558416D01*
X166255026Y-103533875D01*
X166247423Y-103507884D01*
X166257074Y-103465352D01*
X166274648Y-103432816D01*
X166306434Y-103426193D01*
X166331813Y-103463121D01*
X166342366Y-103481748D01*
X166380387Y-103501492D01*
X166424914Y-103498963D01*
X166455870Y-103472623D01*
X166458394Y-103444997D01*
X166434856Y-103407560D01*
X166388785Y-103379000D01*
X166330138Y-103367632D01*
X166309883Y-103366299D01*
X166262876Y-103342795D01*
X166250167Y-103292286D01*
X166267971Y-103233985D01*
X166373771Y-103233985D01*
X166385803Y-103274572D01*
X166406743Y-103301667D01*
X166433281Y-103309316D01*
X166444050Y-103273754D01*
X166441100Y-103249481D01*
X166417535Y-103214069D01*
X166383366Y-103218397D01*
X166373771Y-103233985D01*
X166267971Y-103233985D01*
X166272913Y-103217801D01*
X166278335Y-103207072D01*
X166333011Y-103142595D01*
X166396358Y-103124987D01*
X166458464Y-103153797D01*
X166509414Y-103228574D01*
X166511402Y-103233262D01*
X166521864Y-103273754D01*
X166540828Y-103347151D01*
G37*
G36*
X167271181Y-102882716D02*
G01*
X167334842Y-102890160D01*
X167348347Y-102892977D01*
X167395095Y-102908245D01*
X167415168Y-102934217D01*
X167419442Y-102982802D01*
X167419394Y-102991655D01*
X167412504Y-103059552D01*
X167393615Y-103075741D01*
X167362230Y-103040724D01*
X167332493Y-103007715D01*
X167280101Y-102980498D01*
X167230336Y-102972036D01*
X167231680Y-103217579D01*
X167232201Y-103263896D01*
X167235709Y-103377694D01*
X167241596Y-103470091D01*
X167248931Y-103524507D01*
X167249599Y-103527101D01*
X167255470Y-103566309D01*
X167239543Y-103582633D01*
X167192845Y-103585892D01*
X167120853Y-103585892D01*
X167120853Y-103272143D01*
X167120853Y-102958395D01*
X167072077Y-102958395D01*
X167037227Y-102968839D01*
X167002771Y-103006139D01*
X166998006Y-103016873D01*
X166980657Y-103038583D01*
X166961994Y-103012960D01*
X166952538Y-102992097D01*
X166942519Y-102943464D01*
X166961639Y-102911029D01*
X167013363Y-102891521D01*
X167101158Y-102881668D01*
X167186421Y-102879698D01*
X167271181Y-102882716D01*
G37*
G36*
X168660358Y-103790511D02*
G01*
X168730348Y-104076977D01*
X168554280Y-104076977D01*
X168378211Y-104076977D01*
X168316852Y-103824546D01*
X168301040Y-103758342D01*
X168277609Y-103655181D01*
X168261490Y-103577387D01*
X168255492Y-103538080D01*
X168256957Y-103531108D01*
X168279812Y-103515490D01*
X168333703Y-103506760D01*
X168422930Y-103504045D01*
X168590367Y-103504045D01*
X168660358Y-103790511D01*
G37*
D14*
%TO.C,REF\u002A\u002A*%
X161190572Y-101067567D02*
X161216293Y-101083265D01*
X161242944Y-101104845D01*
X161242944Y-101752302D01*
X161216293Y-101773882D01*
X161184933Y-101791357D01*
X161149132Y-101792193D01*
X161117694Y-101771700D01*
X161113818Y-101767034D01*
X161108352Y-101757567D01*
X161104145Y-101743885D01*
X161101033Y-101723366D01*
X161098853Y-101693386D01*
X161097442Y-101651322D01*
X161096637Y-101594550D01*
X161096273Y-101520448D01*
X161096188Y-101426391D01*
X161096188Y-101104845D01*
X161122839Y-101083265D01*
X161146552Y-101068495D01*
X161169566Y-101061685D01*
X161190572Y-101067567D01*
G36*
X161190572Y-101067567D02*
G01*
X161216293Y-101083265D01*
X161242944Y-101104845D01*
X161242944Y-101752302D01*
X161216293Y-101773882D01*
X161184933Y-101791357D01*
X161149132Y-101792193D01*
X161117694Y-101771700D01*
X161113818Y-101767034D01*
X161108352Y-101757567D01*
X161104145Y-101743885D01*
X161101033Y-101723366D01*
X161098853Y-101693386D01*
X161097442Y-101651322D01*
X161096637Y-101594550D01*
X161096273Y-101520448D01*
X161096188Y-101426391D01*
X161096188Y-101104845D01*
X161122839Y-101083265D01*
X161146552Y-101068495D01*
X161169566Y-101061685D01*
X161190572Y-101067567D01*
G37*
X168321303Y-101066081D02*
X168355457Y-101089394D01*
X168383166Y-101117103D01*
X168383166Y-101430155D01*
X168383125Y-101514185D01*
X168382867Y-101588407D01*
X168382196Y-101645159D01*
X168380918Y-101687130D01*
X168378839Y-101717007D01*
X168375765Y-101737479D01*
X168371500Y-101751232D01*
X168365850Y-101760955D01*
X168358621Y-101769335D01*
X168327157Y-101790799D01*
X168291992Y-101792565D01*
X168258988Y-101772885D01*
X168253682Y-101767016D01*
X168248232Y-101757932D01*
X168244066Y-101744591D01*
X168241012Y-101724375D01*
X168238898Y-101694667D01*
X168237552Y-101652850D01*
X168236804Y-101596307D01*
X168236480Y-101522420D01*
X168236411Y-101428574D01*
X168236450Y-101352912D01*
X168236705Y-101275003D01*
X168237349Y-101214993D01*
X168238553Y-101170266D01*
X168240490Y-101138203D01*
X168243330Y-101116189D01*
X168247245Y-101101605D01*
X168252408Y-101091836D01*
X168258988Y-101084263D01*
X168288172Y-101065241D01*
X168321303Y-101066081D01*
G36*
X168321303Y-101066081D02*
G01*
X168355457Y-101089394D01*
X168383166Y-101117103D01*
X168383166Y-101430155D01*
X168383125Y-101514185D01*
X168382867Y-101588407D01*
X168382196Y-101645159D01*
X168380918Y-101687130D01*
X168378839Y-101717007D01*
X168375765Y-101737479D01*
X168371500Y-101751232D01*
X168365850Y-101760955D01*
X168358621Y-101769335D01*
X168327157Y-101790799D01*
X168291992Y-101792565D01*
X168258988Y-101772885D01*
X168253682Y-101767016D01*
X168248232Y-101757932D01*
X168244066Y-101744591D01*
X168241012Y-101724375D01*
X168238898Y-101694667D01*
X168237552Y-101652850D01*
X168236804Y-101596307D01*
X168236480Y-101522420D01*
X168236411Y-101428574D01*
X168236450Y-101352912D01*
X168236705Y-101275003D01*
X168237349Y-101214993D01*
X168238553Y-101170266D01*
X168240490Y-101138203D01*
X168243330Y-101116189D01*
X168247245Y-101101605D01*
X168252408Y-101091836D01*
X168258988Y-101084263D01*
X168288172Y-101065241D01*
X168321303Y-101066081D01*
G37*
X167789728Y-95825468D02*
X167872479Y-95852671D01*
X167947572Y-95898102D01*
X168019464Y-95963920D01*
X168058012Y-96008185D01*
X168097422Y-96066579D01*
X168122612Y-96127204D01*
X168136027Y-96196483D01*
X168140114Y-96280840D01*
X168139835Y-96326925D01*
X168137626Y-96368068D01*
X168132060Y-96400200D01*
X168121752Y-96430740D01*
X168105314Y-96467107D01*
X168091366Y-96494346D01*
X168032831Y-96580047D01*
X167960785Y-96649235D01*
X167877113Y-96700359D01*
X167783697Y-96731868D01*
X167750600Y-96738843D01*
X167710126Y-96745712D01*
X167677165Y-96747537D01*
X167642864Y-96744565D01*
X167598366Y-96737044D01*
X167547100Y-96724620D01*
X167456600Y-96686730D01*
X167377511Y-96632454D01*
X167311694Y-96564388D01*
X167261006Y-96485129D01*
X167227306Y-96397272D01*
X167212452Y-96303413D01*
X167218302Y-96206148D01*
X167244565Y-96109838D01*
X167289584Y-96021112D01*
X167350539Y-95946037D01*
X167425350Y-95886259D01*
X167511934Y-95843427D01*
X167608209Y-95819189D01*
X167712094Y-95815194D01*
X167789728Y-95825468D01*
G36*
X167789728Y-95825468D02*
G01*
X167872479Y-95852671D01*
X167947572Y-95898102D01*
X168019464Y-95963920D01*
X168058012Y-96008185D01*
X168097422Y-96066579D01*
X168122612Y-96127204D01*
X168136027Y-96196483D01*
X168140114Y-96280840D01*
X168139835Y-96326925D01*
X168137626Y-96368068D01*
X168132060Y-96400200D01*
X168121752Y-96430740D01*
X168105314Y-96467107D01*
X168091366Y-96494346D01*
X168032831Y-96580047D01*
X167960785Y-96649235D01*
X167877113Y-96700359D01*
X167783697Y-96731868D01*
X167750600Y-96738843D01*
X167710126Y-96745712D01*
X167677165Y-96747537D01*
X167642864Y-96744565D01*
X167598366Y-96737044D01*
X167547100Y-96724620D01*
X167456600Y-96686730D01*
X167377511Y-96632454D01*
X167311694Y-96564388D01*
X167261006Y-96485129D01*
X167227306Y-96397272D01*
X167212452Y-96303413D01*
X167218302Y-96206148D01*
X167244565Y-96109838D01*
X167289584Y-96021112D01*
X167350539Y-95946037D01*
X167425350Y-95886259D01*
X167511934Y-95843427D01*
X167608209Y-95819189D01*
X167712094Y-95815194D01*
X167789728Y-95825468D01*
G37*
X160490933Y-101061686D02*
X160585056Y-101061776D01*
X160659571Y-101062116D01*
X160716977Y-101062857D01*
X160759777Y-101064153D01*
X160790470Y-101066155D01*
X160811557Y-101069014D01*
X160825539Y-101072884D01*
X160834916Y-101077916D01*
X160842188Y-101084263D01*
X160860994Y-101116980D01*
X160862441Y-101154557D01*
X160846083Y-101187796D01*
X160844723Y-101189249D01*
X160833520Y-101197610D01*
X160816418Y-101203165D01*
X160789248Y-101206458D01*
X160747844Y-101208036D01*
X160688039Y-101208440D01*
X160548677Y-101208440D01*
X160548677Y-101472207D01*
X160548602Y-101548035D01*
X160548194Y-101614701D01*
X160547212Y-101664485D01*
X160545416Y-101700402D01*
X160542565Y-101725468D01*
X160538419Y-101742699D01*
X160532737Y-101755110D01*
X160525280Y-101765718D01*
X160522990Y-101768524D01*
X160491812Y-101791166D01*
X160457432Y-101792730D01*
X160424500Y-101772885D01*
X160417521Y-101764809D01*
X160412049Y-101754211D01*
X160408029Y-101738367D01*
X160405238Y-101714391D01*
X160403454Y-101679392D01*
X160402455Y-101630482D01*
X160402018Y-101564772D01*
X160401922Y-101479374D01*
X160401922Y-101208440D01*
X160255986Y-101208440D01*
X160244886Y-101208439D01*
X160188368Y-101208214D01*
X160149524Y-101207075D01*
X160124131Y-101204275D01*
X160107970Y-101199068D01*
X160096818Y-101190707D01*
X160086455Y-101178444D01*
X160070607Y-101147756D01*
X160073709Y-101113976D01*
X160099353Y-101081440D01*
X160104295Y-101077723D01*
X160114504Y-101072887D01*
X160129930Y-101069124D01*
X160153052Y-101066301D01*
X160186349Y-101064288D01*
X160232303Y-101062951D01*
X160293394Y-101062160D01*
X160372101Y-101061781D01*
X160470906Y-101061685D01*
X160490933Y-101061686D01*
G36*
X160490933Y-101061686D02*
G01*
X160585056Y-101061776D01*
X160659571Y-101062116D01*
X160716977Y-101062857D01*
X160759777Y-101064153D01*
X160790470Y-101066155D01*
X160811557Y-101069014D01*
X160825539Y-101072884D01*
X160834916Y-101077916D01*
X160842188Y-101084263D01*
X160860994Y-101116980D01*
X160862441Y-101154557D01*
X160846083Y-101187796D01*
X160844723Y-101189249D01*
X160833520Y-101197610D01*
X160816418Y-101203165D01*
X160789248Y-101206458D01*
X160747844Y-101208036D01*
X160688039Y-101208440D01*
X160548677Y-101208440D01*
X160548677Y-101472207D01*
X160548602Y-101548035D01*
X160548194Y-101614701D01*
X160547212Y-101664485D01*
X160545416Y-101700402D01*
X160542565Y-101725468D01*
X160538419Y-101742699D01*
X160532737Y-101755110D01*
X160525280Y-101765718D01*
X160522990Y-101768524D01*
X160491812Y-101791166D01*
X160457432Y-101792730D01*
X160424500Y-101772885D01*
X160417521Y-101764809D01*
X160412049Y-101754211D01*
X160408029Y-101738367D01*
X160405238Y-101714391D01*
X160403454Y-101679392D01*
X160402455Y-101630482D01*
X160402018Y-101564772D01*
X160401922Y-101479374D01*
X160401922Y-101208440D01*
X160255986Y-101208440D01*
X160244886Y-101208439D01*
X160188368Y-101208214D01*
X160149524Y-101207075D01*
X160124131Y-101204275D01*
X160107970Y-101199068D01*
X160096818Y-101190707D01*
X160086455Y-101178444D01*
X160070607Y-101147756D01*
X160073709Y-101113976D01*
X160099353Y-101081440D01*
X160104295Y-101077723D01*
X160114504Y-101072887D01*
X160129930Y-101069124D01*
X160153052Y-101066301D01*
X160186349Y-101064288D01*
X160232303Y-101062951D01*
X160293394Y-101062160D01*
X160372101Y-101061781D01*
X160470906Y-101061685D01*
X160490933Y-101061686D01*
G37*
X159814900Y-101084263D02*
X159820532Y-101090453D01*
X159825622Y-101098659D01*
X159829709Y-101110435D01*
X159832887Y-101127894D01*
X159835253Y-101153148D01*
X159836904Y-101188308D01*
X159837935Y-101235487D01*
X159838443Y-101296795D01*
X159838525Y-101374345D01*
X159838275Y-101470249D01*
X159837791Y-101586618D01*
X159837723Y-101600793D01*
X159837137Y-101662555D01*
X159835814Y-101706238D01*
X159833269Y-101735619D01*
X159829014Y-101754473D01*
X159822562Y-101766577D01*
X159813428Y-101775707D01*
X159779970Y-101793124D01*
X159745022Y-101790222D01*
X159714119Y-101765718D01*
X159705110Y-101752515D01*
X159697658Y-101733979D01*
X159693290Y-101707951D01*
X159691235Y-101669405D01*
X159690722Y-101613318D01*
X159690722Y-101490663D01*
X159194011Y-101490663D01*
X159194011Y-101625489D01*
X159193938Y-101661280D01*
X159193175Y-101707610D01*
X159190999Y-101738144D01*
X159186702Y-101757175D01*
X159179578Y-101768992D01*
X159168921Y-101777889D01*
X159136670Y-101792959D01*
X159101383Y-101790291D01*
X159070652Y-101765718D01*
X159065997Y-101759463D01*
X159060061Y-101748939D01*
X159055530Y-101735009D01*
X159052214Y-101714935D01*
X159049925Y-101685978D01*
X159048474Y-101645398D01*
X159047671Y-101590458D01*
X159047328Y-101518417D01*
X159047255Y-101426538D01*
X159047255Y-101117103D01*
X159074964Y-101089394D01*
X159106343Y-101067151D01*
X159139572Y-101064462D01*
X159171433Y-101084263D01*
X159179719Y-101094033D01*
X159187131Y-101109925D01*
X159191468Y-101133893D01*
X159193504Y-101170766D01*
X159194011Y-101225374D01*
X159194011Y-101343907D01*
X159690722Y-101343907D01*
X159690722Y-101228394D01*
X159691160Y-101176696D01*
X159693124Y-101142172D01*
X159697640Y-101119596D01*
X159705733Y-101103744D01*
X159718431Y-101089394D01*
X159749809Y-101067151D01*
X159783038Y-101064462D01*
X159814900Y-101084263D01*
G36*
X159814900Y-101084263D02*
G01*
X159820532Y-101090453D01*
X159825622Y-101098659D01*
X159829709Y-101110435D01*
X159832887Y-101127894D01*
X159835253Y-101153148D01*
X159836904Y-101188308D01*
X159837935Y-101235487D01*
X159838443Y-101296795D01*
X159838525Y-101374345D01*
X159838275Y-101470249D01*
X159837791Y-101586618D01*
X159837723Y-101600793D01*
X159837137Y-101662555D01*
X159835814Y-101706238D01*
X159833269Y-101735619D01*
X159829014Y-101754473D01*
X159822562Y-101766577D01*
X159813428Y-101775707D01*
X159779970Y-101793124D01*
X159745022Y-101790222D01*
X159714119Y-101765718D01*
X159705110Y-101752515D01*
X159697658Y-101733979D01*
X159693290Y-101707951D01*
X159691235Y-101669405D01*
X159690722Y-101613318D01*
X159690722Y-101490663D01*
X159194011Y-101490663D01*
X159194011Y-101625489D01*
X159193938Y-101661280D01*
X159193175Y-101707610D01*
X159190999Y-101738144D01*
X159186702Y-101757175D01*
X159179578Y-101768992D01*
X159168921Y-101777889D01*
X159136670Y-101792959D01*
X159101383Y-101790291D01*
X159070652Y-101765718D01*
X159065997Y-101759463D01*
X159060061Y-101748939D01*
X159055530Y-101735009D01*
X159052214Y-101714935D01*
X159049925Y-101685978D01*
X159048474Y-101645398D01*
X159047671Y-101590458D01*
X159047328Y-101518417D01*
X159047255Y-101426538D01*
X159047255Y-101117103D01*
X159074964Y-101089394D01*
X159106343Y-101067151D01*
X159139572Y-101064462D01*
X159171433Y-101084263D01*
X159179719Y-101094033D01*
X159187131Y-101109925D01*
X159191468Y-101133893D01*
X159193504Y-101170766D01*
X159194011Y-101225374D01*
X159194011Y-101343907D01*
X159690722Y-101343907D01*
X159690722Y-101228394D01*
X159691160Y-101176696D01*
X159693124Y-101142172D01*
X159697640Y-101119596D01*
X159705733Y-101103744D01*
X159718431Y-101089394D01*
X159749809Y-101067151D01*
X159783038Y-101064462D01*
X159814900Y-101084263D01*
G37*
X164520299Y-101673014D02*
X164518329Y-101705793D01*
X164515401Y-101728713D01*
X164511324Y-101744515D01*
X164505909Y-101755937D01*
X164498969Y-101765718D01*
X164475572Y-101795463D01*
X164309880Y-101794869D01*
X164275084Y-101794571D01*
X164176601Y-101791140D01*
X164095639Y-101783457D01*
X164028545Y-101770900D01*
X163971662Y-101752845D01*
X163921335Y-101728670D01*
X163917976Y-101726753D01*
X163860164Y-101690035D01*
X163817810Y-101653069D01*
X163784994Y-101609584D01*
X163755794Y-101553307D01*
X163751512Y-101543691D01*
X163728935Y-101480505D01*
X163723200Y-101434951D01*
X163872445Y-101434951D01*
X163878058Y-101459679D01*
X163883784Y-101475557D01*
X163916714Y-101535465D01*
X163964052Y-101581218D01*
X164027818Y-101614354D01*
X164110027Y-101636408D01*
X164112821Y-101636910D01*
X164159106Y-101642873D01*
X164215502Y-101647101D01*
X164270440Y-101648707D01*
X164364322Y-101648707D01*
X164364322Y-101208440D01*
X164276833Y-101208888D01*
X164209913Y-101211364D01*
X164117515Y-101222616D01*
X164038200Y-101242155D01*
X163976226Y-101269129D01*
X163945286Y-101289858D01*
X163917166Y-101319624D01*
X163893826Y-101362052D01*
X163886699Y-101378018D01*
X163874875Y-101410520D01*
X163872445Y-101434951D01*
X163723200Y-101434951D01*
X163721963Y-101425127D01*
X163730565Y-101370101D01*
X163754707Y-101307969D01*
X163755503Y-101306276D01*
X163795954Y-101236854D01*
X163846639Y-101180256D01*
X163909364Y-101135688D01*
X163985940Y-101102359D01*
X164078175Y-101079479D01*
X164187878Y-101066254D01*
X164316857Y-101061893D01*
X164320429Y-101061888D01*
X164380449Y-101062028D01*
X164422380Y-101063064D01*
X164450494Y-101065658D01*
X164469063Y-101070471D01*
X164482360Y-101078162D01*
X164494657Y-101089394D01*
X164522366Y-101117103D01*
X164522366Y-101426538D01*
X164522341Y-101488144D01*
X164522116Y-101566929D01*
X164521498Y-101627639D01*
X164520941Y-101648707D01*
X164520299Y-101673014D01*
G36*
X164520299Y-101673014D02*
G01*
X164518329Y-101705793D01*
X164515401Y-101728713D01*
X164511324Y-101744515D01*
X164505909Y-101755937D01*
X164498969Y-101765718D01*
X164475572Y-101795463D01*
X164309880Y-101794869D01*
X164275084Y-101794571D01*
X164176601Y-101791140D01*
X164095639Y-101783457D01*
X164028545Y-101770900D01*
X163971662Y-101752845D01*
X163921335Y-101728670D01*
X163917976Y-101726753D01*
X163860164Y-101690035D01*
X163817810Y-101653069D01*
X163784994Y-101609584D01*
X163755794Y-101553307D01*
X163751512Y-101543691D01*
X163728935Y-101480505D01*
X163723200Y-101434951D01*
X163872445Y-101434951D01*
X163878058Y-101459679D01*
X163883784Y-101475557D01*
X163916714Y-101535465D01*
X163964052Y-101581218D01*
X164027818Y-101614354D01*
X164110027Y-101636408D01*
X164112821Y-101636910D01*
X164159106Y-101642873D01*
X164215502Y-101647101D01*
X164270440Y-101648707D01*
X164364322Y-101648707D01*
X164364322Y-101208440D01*
X164276833Y-101208888D01*
X164209913Y-101211364D01*
X164117515Y-101222616D01*
X164038200Y-101242155D01*
X163976226Y-101269129D01*
X163945286Y-101289858D01*
X163917166Y-101319624D01*
X163893826Y-101362052D01*
X163886699Y-101378018D01*
X163874875Y-101410520D01*
X163872445Y-101434951D01*
X163723200Y-101434951D01*
X163721963Y-101425127D01*
X163730565Y-101370101D01*
X163754707Y-101307969D01*
X163755503Y-101306276D01*
X163795954Y-101236854D01*
X163846639Y-101180256D01*
X163909364Y-101135688D01*
X163985940Y-101102359D01*
X164078175Y-101079479D01*
X164187878Y-101066254D01*
X164316857Y-101061893D01*
X164320429Y-101061888D01*
X164380449Y-101062028D01*
X164422380Y-101063064D01*
X164450494Y-101065658D01*
X164469063Y-101070471D01*
X164482360Y-101078162D01*
X164494657Y-101089394D01*
X164522366Y-101117103D01*
X164522366Y-101426538D01*
X164522341Y-101488144D01*
X164522116Y-101566929D01*
X164521498Y-101627639D01*
X164520941Y-101648707D01*
X164520299Y-101673014D01*
G37*
X171611983Y-101247045D02*
X171612036Y-101327659D01*
X171611788Y-101428574D01*
X171611749Y-101504235D01*
X171611494Y-101582144D01*
X171610850Y-101642154D01*
X171609646Y-101686882D01*
X171607709Y-101718944D01*
X171604869Y-101740958D01*
X171600954Y-101755542D01*
X171595792Y-101765312D01*
X171589211Y-101772885D01*
X171582243Y-101779119D01*
X171569245Y-101786419D01*
X171550097Y-101791172D01*
X171520694Y-101793910D01*
X171476928Y-101795163D01*
X171414694Y-101795463D01*
X171365748Y-101795087D01*
X171258888Y-101790659D01*
X171169660Y-101780571D01*
X171094862Y-101763983D01*
X171031291Y-101740053D01*
X170975745Y-101707939D01*
X170925020Y-101666800D01*
X170919032Y-101660948D01*
X170882165Y-101612439D01*
X170851065Y-101551631D01*
X170829583Y-101487387D01*
X170824302Y-101448644D01*
X170971519Y-101448644D01*
X170989801Y-101499579D01*
X171019471Y-101545496D01*
X171066168Y-101587905D01*
X171127558Y-101617708D01*
X171206704Y-101636844D01*
X171208194Y-101637082D01*
X171257165Y-101642874D01*
X171315859Y-101647014D01*
X171371900Y-101648622D01*
X171465033Y-101648707D01*
X171465033Y-101208440D01*
X171388833Y-101208426D01*
X171385805Y-101208435D01*
X171334685Y-101210400D01*
X171274582Y-101215125D01*
X171217874Y-101221653D01*
X171167916Y-101230949D01*
X171093164Y-101257218D01*
X171035655Y-101296517D01*
X170994154Y-101349551D01*
X170972937Y-101400818D01*
X170971519Y-101448644D01*
X170824302Y-101448644D01*
X170821566Y-101428574D01*
X170822845Y-101407357D01*
X170835157Y-101349941D01*
X170857686Y-101290031D01*
X170886916Y-101235981D01*
X170919333Y-101196150D01*
X170938874Y-101179128D01*
X170993586Y-101139940D01*
X171053889Y-101109811D01*
X171123085Y-101087850D01*
X171204477Y-101073168D01*
X171301366Y-101064877D01*
X171417055Y-101062085D01*
X171456537Y-101061684D01*
X171502248Y-101061271D01*
X171538049Y-101063075D01*
X171565140Y-101069357D01*
X171584722Y-101082377D01*
X171597996Y-101104396D01*
X171606164Y-101137673D01*
X171610426Y-101184469D01*
X171611023Y-101208440D01*
X171611983Y-101247045D01*
G36*
X171611983Y-101247045D02*
G01*
X171612036Y-101327659D01*
X171611788Y-101428574D01*
X171611749Y-101504235D01*
X171611494Y-101582144D01*
X171610850Y-101642154D01*
X171609646Y-101686882D01*
X171607709Y-101718944D01*
X171604869Y-101740958D01*
X171600954Y-101755542D01*
X171595792Y-101765312D01*
X171589211Y-101772885D01*
X171582243Y-101779119D01*
X171569245Y-101786419D01*
X171550097Y-101791172D01*
X171520694Y-101793910D01*
X171476928Y-101795163D01*
X171414694Y-101795463D01*
X171365748Y-101795087D01*
X171258888Y-101790659D01*
X171169660Y-101780571D01*
X171094862Y-101763983D01*
X171031291Y-101740053D01*
X170975745Y-101707939D01*
X170925020Y-101666800D01*
X170919032Y-101660948D01*
X170882165Y-101612439D01*
X170851065Y-101551631D01*
X170829583Y-101487387D01*
X170824302Y-101448644D01*
X170971519Y-101448644D01*
X170989801Y-101499579D01*
X171019471Y-101545496D01*
X171066168Y-101587905D01*
X171127558Y-101617708D01*
X171206704Y-101636844D01*
X171208194Y-101637082D01*
X171257165Y-101642874D01*
X171315859Y-101647014D01*
X171371900Y-101648622D01*
X171465033Y-101648707D01*
X171465033Y-101208440D01*
X171388833Y-101208426D01*
X171385805Y-101208435D01*
X171334685Y-101210400D01*
X171274582Y-101215125D01*
X171217874Y-101221653D01*
X171167916Y-101230949D01*
X171093164Y-101257218D01*
X171035655Y-101296517D01*
X170994154Y-101349551D01*
X170972937Y-101400818D01*
X170971519Y-101448644D01*
X170824302Y-101448644D01*
X170821566Y-101428574D01*
X170822845Y-101407357D01*
X170835157Y-101349941D01*
X170857686Y-101290031D01*
X170886916Y-101235981D01*
X170919333Y-101196150D01*
X170938874Y-101179128D01*
X170993586Y-101139940D01*
X171053889Y-101109811D01*
X171123085Y-101087850D01*
X171204477Y-101073168D01*
X171301366Y-101064877D01*
X171417055Y-101062085D01*
X171456537Y-101061684D01*
X171502248Y-101061271D01*
X171538049Y-101063075D01*
X171565140Y-101069357D01*
X171584722Y-101082377D01*
X171597996Y-101104396D01*
X171606164Y-101137673D01*
X171610426Y-101184469D01*
X171611023Y-101208440D01*
X171611983Y-101247045D01*
G37*
X166667059Y-101060510D02*
X166678467Y-101066647D01*
X166689016Y-101077309D01*
X166700302Y-101091429D01*
X166704755Y-101097390D01*
X166710754Y-101107886D01*
X166715333Y-101121711D01*
X166718685Y-101141616D01*
X166720999Y-101170350D01*
X166722467Y-101210663D01*
X166723279Y-101265305D01*
X166723626Y-101337025D01*
X166723700Y-101428574D01*
X166723677Y-101487104D01*
X166723458Y-101566191D01*
X166722849Y-101627134D01*
X166721658Y-101672680D01*
X166719695Y-101705581D01*
X166716769Y-101728586D01*
X166712689Y-101744444D01*
X166707263Y-101755904D01*
X166700302Y-101765718D01*
X166669874Y-101790111D01*
X166634931Y-101792990D01*
X166597950Y-101773900D01*
X166593766Y-101770425D01*
X166585590Y-101761897D01*
X166579530Y-101750346D01*
X166575147Y-101732514D01*
X166572005Y-101705142D01*
X166569668Y-101664972D01*
X166567697Y-101608746D01*
X166565655Y-101533207D01*
X166560011Y-101314076D01*
X166294722Y-101554717D01*
X166220888Y-101621493D01*
X166155708Y-101679609D01*
X166103514Y-101724567D01*
X166062439Y-101757489D01*
X166030621Y-101779497D01*
X166006192Y-101791712D01*
X165987290Y-101795257D01*
X165972049Y-101791254D01*
X165958605Y-101780825D01*
X165945093Y-101765092D01*
X165938848Y-101756609D01*
X165933216Y-101746031D01*
X165929005Y-101731873D01*
X165926053Y-101711421D01*
X165924198Y-101681960D01*
X165923279Y-101640779D01*
X165923134Y-101585162D01*
X165923601Y-101512397D01*
X165924518Y-101419769D01*
X165927833Y-101104817D01*
X165954484Y-101083251D01*
X165980549Y-101067059D01*
X166013407Y-101064288D01*
X166047938Y-101083241D01*
X166052250Y-101086826D01*
X166060382Y-101095355D01*
X166066411Y-101106947D01*
X166070772Y-101124853D01*
X166073900Y-101152324D01*
X166076229Y-101192612D01*
X166078195Y-101248969D01*
X166080233Y-101324647D01*
X166085877Y-101544496D01*
X166266500Y-101380702D01*
X166353238Y-101302069D01*
X166429009Y-101233676D01*
X166491146Y-101178326D01*
X166541244Y-101134956D01*
X166580901Y-101102499D01*
X166611714Y-101079891D01*
X166635280Y-101066066D01*
X166653196Y-101059961D01*
X166667059Y-101060510D01*
G36*
X166667059Y-101060510D02*
G01*
X166678467Y-101066647D01*
X166689016Y-101077309D01*
X166700302Y-101091429D01*
X166704755Y-101097390D01*
X166710754Y-101107886D01*
X166715333Y-101121711D01*
X166718685Y-101141616D01*
X166720999Y-101170350D01*
X166722467Y-101210663D01*
X166723279Y-101265305D01*
X166723626Y-101337025D01*
X166723700Y-101428574D01*
X166723677Y-101487104D01*
X166723458Y-101566191D01*
X166722849Y-101627134D01*
X166721658Y-101672680D01*
X166719695Y-101705581D01*
X166716769Y-101728586D01*
X166712689Y-101744444D01*
X166707263Y-101755904D01*
X166700302Y-101765718D01*
X166669874Y-101790111D01*
X166634931Y-101792990D01*
X166597950Y-101773900D01*
X166593766Y-101770425D01*
X166585590Y-101761897D01*
X166579530Y-101750346D01*
X166575147Y-101732514D01*
X166572005Y-101705142D01*
X166569668Y-101664972D01*
X166567697Y-101608746D01*
X166565655Y-101533207D01*
X166560011Y-101314076D01*
X166294722Y-101554717D01*
X166220888Y-101621493D01*
X166155708Y-101679609D01*
X166103514Y-101724567D01*
X166062439Y-101757489D01*
X166030621Y-101779497D01*
X166006192Y-101791712D01*
X165987290Y-101795257D01*
X165972049Y-101791254D01*
X165958605Y-101780825D01*
X165945093Y-101765092D01*
X165938848Y-101756609D01*
X165933216Y-101746031D01*
X165929005Y-101731873D01*
X165926053Y-101711421D01*
X165924198Y-101681960D01*
X165923279Y-101640779D01*
X165923134Y-101585162D01*
X165923601Y-101512397D01*
X165924518Y-101419769D01*
X165927833Y-101104817D01*
X165954484Y-101083251D01*
X165980549Y-101067059D01*
X166013407Y-101064288D01*
X166047938Y-101083241D01*
X166052250Y-101086826D01*
X166060382Y-101095355D01*
X166066411Y-101106947D01*
X166070772Y-101124853D01*
X166073900Y-101152324D01*
X166076229Y-101192612D01*
X166078195Y-101248969D01*
X166080233Y-101324647D01*
X166085877Y-101544496D01*
X166266500Y-101380702D01*
X166353238Y-101302069D01*
X166429009Y-101233676D01*
X166491146Y-101178326D01*
X166541244Y-101134956D01*
X166580901Y-101102499D01*
X166611714Y-101079891D01*
X166635280Y-101066066D01*
X166653196Y-101059961D01*
X166667059Y-101060510D01*
G37*
X167464316Y-101066797D02*
X167570323Y-101083112D01*
X167664135Y-101111163D01*
X167742931Y-101150070D01*
X167803885Y-101198952D01*
X167829955Y-101231813D01*
X167859463Y-101281012D01*
X167884734Y-101334870D01*
X167902384Y-101386037D01*
X167909024Y-101427162D01*
X167907464Y-101446877D01*
X167894523Y-101498210D01*
X167871360Y-101554736D01*
X167841468Y-101608653D01*
X167808339Y-101652157D01*
X167798143Y-101662505D01*
X167731058Y-101714280D01*
X167650932Y-101754172D01*
X167564722Y-101778574D01*
X167509758Y-101786686D01*
X167416305Y-101793291D01*
X167326524Y-101791204D01*
X167244035Y-101780958D01*
X167172452Y-101763088D01*
X167115394Y-101738126D01*
X167076477Y-101706606D01*
X167075102Y-101704630D01*
X167068014Y-101679404D01*
X167063775Y-101632153D01*
X167062366Y-101562689D01*
X167063226Y-101500456D01*
X167067946Y-101453074D01*
X167079636Y-101420971D01*
X167101405Y-101401418D01*
X167136364Y-101391688D01*
X167187622Y-101389051D01*
X167258289Y-101390779D01*
X167306909Y-101393791D01*
X167357105Y-101401984D01*
X167389599Y-101416037D01*
X167407058Y-101437272D01*
X167412149Y-101467012D01*
X167412043Y-101471554D01*
X167403341Y-101506348D01*
X167379331Y-101529765D01*
X167338066Y-101542965D01*
X167277597Y-101547107D01*
X167209122Y-101547107D01*
X167209122Y-101585459D01*
X167209172Y-101594594D01*
X167211393Y-101611845D01*
X167220660Y-101622139D01*
X167242041Y-101629077D01*
X167280602Y-101636259D01*
X167286076Y-101637193D01*
X167383026Y-101647096D01*
X167473018Y-101644177D01*
X167553926Y-101629447D01*
X167623625Y-101603917D01*
X167679990Y-101568596D01*
X167720895Y-101524497D01*
X167744217Y-101472630D01*
X167747829Y-101414006D01*
X167742311Y-101385112D01*
X167715627Y-101329222D01*
X167669439Y-101283563D01*
X167604457Y-101248726D01*
X167521395Y-101225308D01*
X167496721Y-101220859D01*
X167407392Y-101210360D01*
X167327585Y-101211589D01*
X167249492Y-101224524D01*
X167214349Y-101231314D01*
X167168911Y-101232331D01*
X167137596Y-101219800D01*
X167117443Y-101193013D01*
X167111059Y-101164766D01*
X167120545Y-101133542D01*
X167129874Y-101120117D01*
X167164109Y-101096585D01*
X167216731Y-101078713D01*
X167285247Y-101067217D01*
X167367166Y-101062810D01*
X167464316Y-101066797D01*
G36*
X167464316Y-101066797D02*
G01*
X167570323Y-101083112D01*
X167664135Y-101111163D01*
X167742931Y-101150070D01*
X167803885Y-101198952D01*
X167829955Y-101231813D01*
X167859463Y-101281012D01*
X167884734Y-101334870D01*
X167902384Y-101386037D01*
X167909024Y-101427162D01*
X167907464Y-101446877D01*
X167894523Y-101498210D01*
X167871360Y-101554736D01*
X167841468Y-101608653D01*
X167808339Y-101652157D01*
X167798143Y-101662505D01*
X167731058Y-101714280D01*
X167650932Y-101754172D01*
X167564722Y-101778574D01*
X167509758Y-101786686D01*
X167416305Y-101793291D01*
X167326524Y-101791204D01*
X167244035Y-101780958D01*
X167172452Y-101763088D01*
X167115394Y-101738126D01*
X167076477Y-101706606D01*
X167075102Y-101704630D01*
X167068014Y-101679404D01*
X167063775Y-101632153D01*
X167062366Y-101562689D01*
X167063226Y-101500456D01*
X167067946Y-101453074D01*
X167079636Y-101420971D01*
X167101405Y-101401418D01*
X167136364Y-101391688D01*
X167187622Y-101389051D01*
X167258289Y-101390779D01*
X167306909Y-101393791D01*
X167357105Y-101401984D01*
X167389599Y-101416037D01*
X167407058Y-101437272D01*
X167412149Y-101467012D01*
X167412043Y-101471554D01*
X167403341Y-101506348D01*
X167379331Y-101529765D01*
X167338066Y-101542965D01*
X167277597Y-101547107D01*
X167209122Y-101547107D01*
X167209122Y-101585459D01*
X167209172Y-101594594D01*
X167211393Y-101611845D01*
X167220660Y-101622139D01*
X167242041Y-101629077D01*
X167280602Y-101636259D01*
X167286076Y-101637193D01*
X167383026Y-101647096D01*
X167473018Y-101644177D01*
X167553926Y-101629447D01*
X167623625Y-101603917D01*
X167679990Y-101568596D01*
X167720895Y-101524497D01*
X167744217Y-101472630D01*
X167747829Y-101414006D01*
X167742311Y-101385112D01*
X167715627Y-101329222D01*
X167669439Y-101283563D01*
X167604457Y-101248726D01*
X167521395Y-101225308D01*
X167496721Y-101220859D01*
X167407392Y-101210360D01*
X167327585Y-101211589D01*
X167249492Y-101224524D01*
X167214349Y-101231314D01*
X167168911Y-101232331D01*
X167137596Y-101219800D01*
X167117443Y-101193013D01*
X167111059Y-101164766D01*
X167120545Y-101133542D01*
X167129874Y-101120117D01*
X167164109Y-101096585D01*
X167216731Y-101078713D01*
X167285247Y-101067217D01*
X167367166Y-101062810D01*
X167464316Y-101066797D01*
G37*
X165514969Y-101091429D02*
X165519918Y-101098113D01*
X165525762Y-101108684D01*
X165530223Y-101122771D01*
X165533487Y-101143096D01*
X165535740Y-101172383D01*
X165537168Y-101213355D01*
X165537958Y-101268735D01*
X165538295Y-101341246D01*
X165538366Y-101433612D01*
X165538337Y-101499529D01*
X165538105Y-101577846D01*
X165537485Y-101638114D01*
X165536292Y-101683011D01*
X165534345Y-101715220D01*
X165531460Y-101737418D01*
X165527454Y-101752287D01*
X165522145Y-101762507D01*
X165515349Y-101770756D01*
X165510834Y-101775413D01*
X165502604Y-101781900D01*
X165491244Y-101786812D01*
X165473976Y-101790367D01*
X165448021Y-101792785D01*
X165410602Y-101794285D01*
X165358939Y-101795085D01*
X165290255Y-101795405D01*
X165201772Y-101795463D01*
X165182097Y-101795456D01*
X165095072Y-101795190D01*
X165027420Y-101794424D01*
X164976465Y-101793010D01*
X164939533Y-101790798D01*
X164913949Y-101787640D01*
X164897037Y-101783387D01*
X164886123Y-101777889D01*
X164875630Y-101767903D01*
X164862369Y-101736786D01*
X164863552Y-101700898D01*
X164879716Y-101669351D01*
X164881905Y-101667075D01*
X164890593Y-101660807D01*
X164903935Y-101656141D01*
X164924918Y-101652845D01*
X164956529Y-101650686D01*
X165001756Y-101649432D01*
X165063586Y-101648849D01*
X165145005Y-101648707D01*
X165391611Y-101648707D01*
X165391611Y-101490663D01*
X165229172Y-101490663D01*
X165193504Y-101490582D01*
X165137734Y-101489785D01*
X165098596Y-101487780D01*
X165072142Y-101484139D01*
X165054425Y-101478430D01*
X165041495Y-101470225D01*
X165037852Y-101467041D01*
X165019444Y-101436066D01*
X165018810Y-101399730D01*
X165036349Y-101366111D01*
X165036411Y-101366042D01*
X165046082Y-101357416D01*
X165059375Y-101351360D01*
X165080083Y-101347429D01*
X165111994Y-101345174D01*
X165158900Y-101344149D01*
X165224590Y-101343907D01*
X165392737Y-101343907D01*
X165389352Y-101278996D01*
X165385966Y-101214085D01*
X165143889Y-101211032D01*
X165118873Y-101210704D01*
X165037253Y-101209224D01*
X164974934Y-101206840D01*
X164929320Y-101202845D01*
X164897818Y-101196531D01*
X164877833Y-101187192D01*
X164866770Y-101174121D01*
X164862035Y-101156610D01*
X164861033Y-101133953D01*
X164861039Y-101131588D01*
X164862193Y-101111557D01*
X164866990Y-101095764D01*
X164877798Y-101083708D01*
X164896983Y-101074885D01*
X164926911Y-101068793D01*
X164969949Y-101064929D01*
X165028465Y-101062792D01*
X165104823Y-101061878D01*
X165201392Y-101061685D01*
X165491572Y-101061685D01*
X165514969Y-101091429D01*
G36*
X165514969Y-101091429D02*
G01*
X165519918Y-101098113D01*
X165525762Y-101108684D01*
X165530223Y-101122771D01*
X165533487Y-101143096D01*
X165535740Y-101172383D01*
X165537168Y-101213355D01*
X165537958Y-101268735D01*
X165538295Y-101341246D01*
X165538366Y-101433612D01*
X165538337Y-101499529D01*
X165538105Y-101577846D01*
X165537485Y-101638114D01*
X165536292Y-101683011D01*
X165534345Y-101715220D01*
X165531460Y-101737418D01*
X165527454Y-101752287D01*
X165522145Y-101762507D01*
X165515349Y-101770756D01*
X165510834Y-101775413D01*
X165502604Y-101781900D01*
X165491244Y-101786812D01*
X165473976Y-101790367D01*
X165448021Y-101792785D01*
X165410602Y-101794285D01*
X165358939Y-101795085D01*
X165290255Y-101795405D01*
X165201772Y-101795463D01*
X165182097Y-101795456D01*
X165095072Y-101795190D01*
X165027420Y-101794424D01*
X164976465Y-101793010D01*
X164939533Y-101790798D01*
X164913949Y-101787640D01*
X164897037Y-101783387D01*
X164886123Y-101777889D01*
X164875630Y-101767903D01*
X164862369Y-101736786D01*
X164863552Y-101700898D01*
X164879716Y-101669351D01*
X164881905Y-101667075D01*
X164890593Y-101660807D01*
X164903935Y-101656141D01*
X164924918Y-101652845D01*
X164956529Y-101650686D01*
X165001756Y-101649432D01*
X165063586Y-101648849D01*
X165145005Y-101648707D01*
X165391611Y-101648707D01*
X165391611Y-101490663D01*
X165229172Y-101490663D01*
X165193504Y-101490582D01*
X165137734Y-101489785D01*
X165098596Y-101487780D01*
X165072142Y-101484139D01*
X165054425Y-101478430D01*
X165041495Y-101470225D01*
X165037852Y-101467041D01*
X165019444Y-101436066D01*
X165018810Y-101399730D01*
X165036349Y-101366111D01*
X165036411Y-101366042D01*
X165046082Y-101357416D01*
X165059375Y-101351360D01*
X165080083Y-101347429D01*
X165111994Y-101345174D01*
X165158900Y-101344149D01*
X165224590Y-101343907D01*
X165392737Y-101343907D01*
X165389352Y-101278996D01*
X165385966Y-101214085D01*
X165143889Y-101211032D01*
X165118873Y-101210704D01*
X165037253Y-101209224D01*
X164974934Y-101206840D01*
X164929320Y-101202845D01*
X164897818Y-101196531D01*
X164877833Y-101187192D01*
X164866770Y-101174121D01*
X164862035Y-101156610D01*
X164861033Y-101133953D01*
X164861039Y-101131588D01*
X164862193Y-101111557D01*
X164866990Y-101095764D01*
X164877798Y-101083708D01*
X164896983Y-101074885D01*
X164926911Y-101068793D01*
X164969949Y-101064929D01*
X165028465Y-101062792D01*
X165104823Y-101061878D01*
X165201392Y-101061685D01*
X165491572Y-101061685D01*
X165514969Y-101091429D01*
G37*
X170191900Y-101061701D02*
X170268997Y-101061893D01*
X170327943Y-101062478D01*
X170371530Y-101063669D01*
X170402549Y-101065682D01*
X170423791Y-101068730D01*
X170438048Y-101073027D01*
X170448111Y-101078790D01*
X170456772Y-101086230D01*
X170458557Y-101087911D01*
X170465801Y-101095450D01*
X170471443Y-101104468D01*
X170475683Y-101117602D01*
X170478722Y-101137490D01*
X170480760Y-101166769D01*
X170481996Y-101208076D01*
X170482631Y-101264049D01*
X170482866Y-101337325D01*
X170482900Y-101430541D01*
X170482863Y-101503331D01*
X170482614Y-101581507D01*
X170481978Y-101641721D01*
X170480781Y-101686600D01*
X170478850Y-101718770D01*
X170476012Y-101740857D01*
X170472093Y-101755488D01*
X170466921Y-101765288D01*
X170460322Y-101772885D01*
X170456988Y-101776062D01*
X170448466Y-101782172D01*
X170436464Y-101786847D01*
X170418253Y-101790277D01*
X170391106Y-101792654D01*
X170352295Y-101794170D01*
X170299090Y-101795016D01*
X170228764Y-101795383D01*
X170138588Y-101795463D01*
X170096480Y-101795451D01*
X170015333Y-101795269D01*
X169952841Y-101794716D01*
X169906275Y-101793600D01*
X169872907Y-101791731D01*
X169850010Y-101788916D01*
X169834854Y-101784964D01*
X169824712Y-101779684D01*
X169816855Y-101772885D01*
X169802129Y-101751285D01*
X169794277Y-101722085D01*
X169799776Y-101698178D01*
X169816855Y-101671285D01*
X169821834Y-101666677D01*
X169831609Y-101660390D01*
X169845725Y-101655764D01*
X169867220Y-101652548D01*
X169899134Y-101650488D01*
X169944508Y-101649330D01*
X170006379Y-101648820D01*
X170087788Y-101648707D01*
X170336144Y-101648707D01*
X170336144Y-101490663D01*
X170174967Y-101490663D01*
X170139149Y-101490517D01*
X170073525Y-101488794D01*
X170026284Y-101484359D01*
X169994549Y-101476255D01*
X169975443Y-101463524D01*
X169966089Y-101445210D01*
X169963611Y-101420356D01*
X169964408Y-101400100D01*
X169969660Y-101378274D01*
X169982454Y-101362922D01*
X170005794Y-101352927D01*
X170042683Y-101347171D01*
X170096125Y-101344537D01*
X170169124Y-101343907D01*
X170337271Y-101343907D01*
X170333885Y-101278996D01*
X170330500Y-101214085D01*
X170082783Y-101211036D01*
X170020192Y-101210157D01*
X169951731Y-101208713D01*
X169900827Y-101206782D01*
X169864574Y-101204132D01*
X169840067Y-101200528D01*
X169824401Y-101195739D01*
X169814672Y-101189531D01*
X169808657Y-101183128D01*
X169795648Y-101151446D01*
X169799209Y-101115760D01*
X169818984Y-101084702D01*
X169822235Y-101081779D01*
X169831215Y-101075428D01*
X169843319Y-101070575D01*
X169861325Y-101067021D01*
X169888013Y-101064564D01*
X169926163Y-101063003D01*
X169978552Y-101062136D01*
X170047960Y-101061764D01*
X170137167Y-101061685D01*
X170191900Y-101061701D01*
G36*
X170191900Y-101061701D02*
G01*
X170268997Y-101061893D01*
X170327943Y-101062478D01*
X170371530Y-101063669D01*
X170402549Y-101065682D01*
X170423791Y-101068730D01*
X170438048Y-101073027D01*
X170448111Y-101078790D01*
X170456772Y-101086230D01*
X170458557Y-101087911D01*
X170465801Y-101095450D01*
X170471443Y-101104468D01*
X170475683Y-101117602D01*
X170478722Y-101137490D01*
X170480760Y-101166769D01*
X170481996Y-101208076D01*
X170482631Y-101264049D01*
X170482866Y-101337325D01*
X170482900Y-101430541D01*
X170482863Y-101503331D01*
X170482614Y-101581507D01*
X170481978Y-101641721D01*
X170480781Y-101686600D01*
X170478850Y-101718770D01*
X170476012Y-101740857D01*
X170472093Y-101755488D01*
X170466921Y-101765288D01*
X170460322Y-101772885D01*
X170456988Y-101776062D01*
X170448466Y-101782172D01*
X170436464Y-101786847D01*
X170418253Y-101790277D01*
X170391106Y-101792654D01*
X170352295Y-101794170D01*
X170299090Y-101795016D01*
X170228764Y-101795383D01*
X170138588Y-101795463D01*
X170096480Y-101795451D01*
X170015333Y-101795269D01*
X169952841Y-101794716D01*
X169906275Y-101793600D01*
X169872907Y-101791731D01*
X169850010Y-101788916D01*
X169834854Y-101784964D01*
X169824712Y-101779684D01*
X169816855Y-101772885D01*
X169802129Y-101751285D01*
X169794277Y-101722085D01*
X169799776Y-101698178D01*
X169816855Y-101671285D01*
X169821834Y-101666677D01*
X169831609Y-101660390D01*
X169845725Y-101655764D01*
X169867220Y-101652548D01*
X169899134Y-101650488D01*
X169944508Y-101649330D01*
X170006379Y-101648820D01*
X170087788Y-101648707D01*
X170336144Y-101648707D01*
X170336144Y-101490663D01*
X170174967Y-101490663D01*
X170139149Y-101490517D01*
X170073525Y-101488794D01*
X170026284Y-101484359D01*
X169994549Y-101476255D01*
X169975443Y-101463524D01*
X169966089Y-101445210D01*
X169963611Y-101420356D01*
X169964408Y-101400100D01*
X169969660Y-101378274D01*
X169982454Y-101362922D01*
X170005794Y-101352927D01*
X170042683Y-101347171D01*
X170096125Y-101344537D01*
X170169124Y-101343907D01*
X170337271Y-101343907D01*
X170333885Y-101278996D01*
X170330500Y-101214085D01*
X170082783Y-101211036D01*
X170020192Y-101210157D01*
X169951731Y-101208713D01*
X169900827Y-101206782D01*
X169864574Y-101204132D01*
X169840067Y-101200528D01*
X169824401Y-101195739D01*
X169814672Y-101189531D01*
X169808657Y-101183128D01*
X169795648Y-101151446D01*
X169799209Y-101115760D01*
X169818984Y-101084702D01*
X169822235Y-101081779D01*
X169831215Y-101075428D01*
X169843319Y-101070575D01*
X169861325Y-101067021D01*
X169888013Y-101064564D01*
X169926163Y-101063003D01*
X169978552Y-101062136D01*
X170047960Y-101061764D01*
X170137167Y-101061685D01*
X170191900Y-101061701D01*
G37*
X161624868Y-101071096D02*
X161642829Y-101089607D01*
X161663429Y-101120689D01*
X161688261Y-101166374D01*
X161718916Y-101228696D01*
X161756986Y-101309689D01*
X161771620Y-101341072D01*
X161801369Y-101404256D01*
X161827463Y-101458862D01*
X161848458Y-101501908D01*
X161862905Y-101530411D01*
X161869357Y-101541388D01*
X161870716Y-101540807D01*
X161880708Y-101526860D01*
X161897999Y-101497322D01*
X161920596Y-101455705D01*
X161946504Y-101405521D01*
X161962477Y-101374032D01*
X161991427Y-101318679D01*
X162013915Y-101279662D01*
X162032131Y-101254184D01*
X162048262Y-101239449D01*
X162064496Y-101232660D01*
X162083023Y-101231018D01*
X162093526Y-101231493D01*
X162109642Y-101235700D01*
X162124956Y-101246564D01*
X162141554Y-101266837D01*
X162161523Y-101299272D01*
X162186949Y-101346622D01*
X162219918Y-101411640D01*
X162229651Y-101430895D01*
X162254109Y-101477564D01*
X162274344Y-101513727D01*
X162288477Y-101536115D01*
X162294626Y-101541463D01*
X162295993Y-101538191D01*
X162305368Y-101517282D01*
X162322228Y-101480343D01*
X162345145Y-101430492D01*
X162372686Y-101370844D01*
X162403421Y-101304516D01*
X162430136Y-101247295D01*
X162459759Y-101185306D01*
X162482830Y-101139567D01*
X162500809Y-101107526D01*
X162515156Y-101086632D01*
X162527332Y-101074336D01*
X162538798Y-101068084D01*
X162548208Y-101065192D01*
X162573313Y-101065043D01*
X162600456Y-101080386D01*
X162601756Y-101081371D01*
X162623840Y-101104006D01*
X162634889Y-101126231D01*
X162634935Y-101126871D01*
X162630394Y-101144533D01*
X162617530Y-101179099D01*
X162597771Y-101227444D01*
X162572547Y-101286443D01*
X162543285Y-101352973D01*
X162511416Y-101423909D01*
X162478367Y-101496125D01*
X162445567Y-101566498D01*
X162414446Y-101631903D01*
X162386431Y-101689215D01*
X162362952Y-101735310D01*
X162345438Y-101767064D01*
X162335317Y-101781351D01*
X162300909Y-101794720D01*
X162259212Y-101788359D01*
X162253847Y-101783662D01*
X162238018Y-101761511D01*
X162215816Y-101724750D01*
X162189399Y-101677033D01*
X162160926Y-101622011D01*
X162081152Y-101462768D01*
X162007965Y-101609360D01*
X161998269Y-101628650D01*
X161971291Y-101680998D01*
X161947262Y-101725788D01*
X161928498Y-101758772D01*
X161917312Y-101775707D01*
X161916166Y-101776950D01*
X161888045Y-101792237D01*
X161852983Y-101793920D01*
X161821942Y-101781351D01*
X161819516Y-101778502D01*
X161807256Y-101757877D01*
X161787518Y-101720326D01*
X161761614Y-101668498D01*
X161730851Y-101605041D01*
X161696541Y-101532603D01*
X161659991Y-101453834D01*
X161639751Y-101409711D01*
X161602978Y-101328983D01*
X161574521Y-101265305D01*
X161553497Y-101216370D01*
X161539020Y-101179875D01*
X161530205Y-101153513D01*
X161526170Y-101134979D01*
X161526028Y-101121970D01*
X161528896Y-101112179D01*
X161543553Y-101091296D01*
X161570156Y-101070995D01*
X161570911Y-101070653D01*
X161590501Y-101063652D01*
X161607956Y-101063122D01*
X161624868Y-101071096D01*
G36*
X161624868Y-101071096D02*
G01*
X161642829Y-101089607D01*
X161663429Y-101120689D01*
X161688261Y-101166374D01*
X161718916Y-101228696D01*
X161756986Y-101309689D01*
X161771620Y-101341072D01*
X161801369Y-101404256D01*
X161827463Y-101458862D01*
X161848458Y-101501908D01*
X161862905Y-101530411D01*
X161869357Y-101541388D01*
X161870716Y-101540807D01*
X161880708Y-101526860D01*
X161897999Y-101497322D01*
X161920596Y-101455705D01*
X161946504Y-101405521D01*
X161962477Y-101374032D01*
X161991427Y-101318679D01*
X162013915Y-101279662D01*
X162032131Y-101254184D01*
X162048262Y-101239449D01*
X162064496Y-101232660D01*
X162083023Y-101231018D01*
X162093526Y-101231493D01*
X162109642Y-101235700D01*
X162124956Y-101246564D01*
X162141554Y-101266837D01*
X162161523Y-101299272D01*
X162186949Y-101346622D01*
X162219918Y-101411640D01*
X162229651Y-101430895D01*
X162254109Y-101477564D01*
X162274344Y-101513727D01*
X162288477Y-101536115D01*
X162294626Y-101541463D01*
X162295993Y-101538191D01*
X162305368Y-101517282D01*
X162322228Y-101480343D01*
X162345145Y-101430492D01*
X162372686Y-101370844D01*
X162403421Y-101304516D01*
X162430136Y-101247295D01*
X162459759Y-101185306D01*
X162482830Y-101139567D01*
X162500809Y-101107526D01*
X162515156Y-101086632D01*
X162527332Y-101074336D01*
X162538798Y-101068084D01*
X162548208Y-101065192D01*
X162573313Y-101065043D01*
X162600456Y-101080386D01*
X162601756Y-101081371D01*
X162623840Y-101104006D01*
X162634889Y-101126231D01*
X162634935Y-101126871D01*
X162630394Y-101144533D01*
X162617530Y-101179099D01*
X162597771Y-101227444D01*
X162572547Y-101286443D01*
X162543285Y-101352973D01*
X162511416Y-101423909D01*
X162478367Y-101496125D01*
X162445567Y-101566498D01*
X162414446Y-101631903D01*
X162386431Y-101689215D01*
X162362952Y-101735310D01*
X162345438Y-101767064D01*
X162335317Y-101781351D01*
X162300909Y-101794720D01*
X162259212Y-101788359D01*
X162253847Y-101783662D01*
X162238018Y-101761511D01*
X162215816Y-101724750D01*
X162189399Y-101677033D01*
X162160926Y-101622011D01*
X162081152Y-101462768D01*
X162007965Y-101609360D01*
X161998269Y-101628650D01*
X161971291Y-101680998D01*
X161947262Y-101725788D01*
X161928498Y-101758772D01*
X161917312Y-101775707D01*
X161916166Y-101776950D01*
X161888045Y-101792237D01*
X161852983Y-101793920D01*
X161821942Y-101781351D01*
X161819516Y-101778502D01*
X161807256Y-101757877D01*
X161787518Y-101720326D01*
X161761614Y-101668498D01*
X161730851Y-101605041D01*
X161696541Y-101532603D01*
X161659991Y-101453834D01*
X161639751Y-101409711D01*
X161602978Y-101328983D01*
X161574521Y-101265305D01*
X161553497Y-101216370D01*
X161539020Y-101179875D01*
X161530205Y-101153513D01*
X161526170Y-101134979D01*
X161526028Y-101121970D01*
X161528896Y-101112179D01*
X161543553Y-101091296D01*
X161570156Y-101070995D01*
X161570911Y-101070653D01*
X161590501Y-101063652D01*
X161607956Y-101063122D01*
X161624868Y-101071096D01*
G37*
X169176019Y-101062554D02*
X169242266Y-101067984D01*
X169297566Y-101077582D01*
X169348449Y-101092443D01*
X169419761Y-101125576D01*
X169470918Y-101168258D01*
X169501741Y-101220323D01*
X169512055Y-101281601D01*
X169511118Y-101312850D01*
X169505326Y-101337647D01*
X169490519Y-101359317D01*
X169462546Y-101386667D01*
X169454568Y-101393996D01*
X169430858Y-101414899D01*
X169408464Y-101431869D01*
X169384431Y-101445823D01*
X169355803Y-101457674D01*
X169319626Y-101468338D01*
X169272946Y-101478729D01*
X169212807Y-101489764D01*
X169136256Y-101502356D01*
X169040337Y-101517422D01*
X169021974Y-101520456D01*
X168959644Y-101534076D01*
X168914426Y-101549810D01*
X168888142Y-101566881D01*
X168882613Y-101584515D01*
X168885234Y-101588786D01*
X168903166Y-101603851D01*
X168931292Y-101620485D01*
X168944092Y-101626475D01*
X168965390Y-101633668D01*
X168991776Y-101638445D01*
X169027620Y-101641264D01*
X169077294Y-101642582D01*
X169145166Y-101642855D01*
X169162951Y-101642782D01*
X169230572Y-101641671D01*
X169295511Y-101639446D01*
X169351136Y-101636380D01*
X169390817Y-101632745D01*
X169426328Y-101628677D01*
X169455581Y-101627894D01*
X169474481Y-101632494D01*
X169489595Y-101643169D01*
X169493251Y-101646762D01*
X169509593Y-101678536D01*
X169508273Y-101714190D01*
X169489316Y-101744808D01*
X169468946Y-101756414D01*
X169432962Y-101769109D01*
X169390538Y-101779159D01*
X169387088Y-101779758D01*
X169344418Y-101784974D01*
X169287032Y-101789348D01*
X169222015Y-101792436D01*
X169156455Y-101793795D01*
X169140223Y-101793836D01*
X169041910Y-101791359D01*
X168961858Y-101783353D01*
X168896679Y-101768821D01*
X168842983Y-101746767D01*
X168797382Y-101716194D01*
X168756489Y-101676104D01*
X168736368Y-101649877D01*
X168724742Y-101620330D01*
X168721833Y-101580613D01*
X168721974Y-101568644D01*
X168725847Y-101535963D01*
X168738231Y-101509437D01*
X168763396Y-101478589D01*
X168784608Y-101456449D01*
X168811004Y-101433903D01*
X168840721Y-101415535D01*
X168876951Y-101400279D01*
X168922883Y-101387067D01*
X168981710Y-101374832D01*
X169056622Y-101362507D01*
X169150811Y-101349024D01*
X169196123Y-101342014D01*
X169264077Y-101327455D01*
X169313213Y-101310955D01*
X169342780Y-101293057D01*
X169352030Y-101274303D01*
X169340214Y-101255233D01*
X169306582Y-101236389D01*
X169303536Y-101235175D01*
X169257177Y-101223097D01*
X169194527Y-101214897D01*
X169121093Y-101210737D01*
X169042383Y-101210779D01*
X168963905Y-101215187D01*
X168891166Y-101224123D01*
X168887239Y-101224772D01*
X168838423Y-101232479D01*
X168806171Y-101236091D01*
X168785174Y-101235494D01*
X168770120Y-101230572D01*
X168755700Y-101221214D01*
X168754530Y-101220343D01*
X168730013Y-101189969D01*
X168725220Y-101154468D01*
X168741026Y-101119887D01*
X168745572Y-101115431D01*
X168775186Y-101100291D01*
X168822168Y-101087168D01*
X168882472Y-101076368D01*
X168952054Y-101068199D01*
X169026869Y-101062969D01*
X169102872Y-101060985D01*
X169176019Y-101062554D01*
G36*
X169176019Y-101062554D02*
G01*
X169242266Y-101067984D01*
X169297566Y-101077582D01*
X169348449Y-101092443D01*
X169419761Y-101125576D01*
X169470918Y-101168258D01*
X169501741Y-101220323D01*
X169512055Y-101281601D01*
X169511118Y-101312850D01*
X169505326Y-101337647D01*
X169490519Y-101359317D01*
X169462546Y-101386667D01*
X169454568Y-101393996D01*
X169430858Y-101414899D01*
X169408464Y-101431869D01*
X169384431Y-101445823D01*
X169355803Y-101457674D01*
X169319626Y-101468338D01*
X169272946Y-101478729D01*
X169212807Y-101489764D01*
X169136256Y-101502356D01*
X169040337Y-101517422D01*
X169021974Y-101520456D01*
X168959644Y-101534076D01*
X168914426Y-101549810D01*
X168888142Y-101566881D01*
X168882613Y-101584515D01*
X168885234Y-101588786D01*
X168903166Y-101603851D01*
X168931292Y-101620485D01*
X168944092Y-101626475D01*
X168965390Y-101633668D01*
X168991776Y-101638445D01*
X169027620Y-101641264D01*
X169077294Y-101642582D01*
X169145166Y-101642855D01*
X169162951Y-101642782D01*
X169230572Y-101641671D01*
X169295511Y-101639446D01*
X169351136Y-101636380D01*
X169390817Y-101632745D01*
X169426328Y-101628677D01*
X169455581Y-101627894D01*
X169474481Y-101632494D01*
X169489595Y-101643169D01*
X169493251Y-101646762D01*
X169509593Y-101678536D01*
X169508273Y-101714190D01*
X169489316Y-101744808D01*
X169468946Y-101756414D01*
X169432962Y-101769109D01*
X169390538Y-101779159D01*
X169387088Y-101779758D01*
X169344418Y-101784974D01*
X169287032Y-101789348D01*
X169222015Y-101792436D01*
X169156455Y-101793795D01*
X169140223Y-101793836D01*
X169041910Y-101791359D01*
X168961858Y-101783353D01*
X168896679Y-101768821D01*
X168842983Y-101746767D01*
X168797382Y-101716194D01*
X168756489Y-101676104D01*
X168736368Y-101649877D01*
X168724742Y-101620330D01*
X168721833Y-101580613D01*
X168721974Y-101568644D01*
X168725847Y-101535963D01*
X168738231Y-101509437D01*
X168763396Y-101478589D01*
X168784608Y-101456449D01*
X168811004Y-101433903D01*
X168840721Y-101415535D01*
X168876951Y-101400279D01*
X168922883Y-101387067D01*
X168981710Y-101374832D01*
X169056622Y-101362507D01*
X169150811Y-101349024D01*
X169196123Y-101342014D01*
X169264077Y-101327455D01*
X169313213Y-101310955D01*
X169342780Y-101293057D01*
X169352030Y-101274303D01*
X169340214Y-101255233D01*
X169306582Y-101236389D01*
X169303536Y-101235175D01*
X169257177Y-101223097D01*
X169194527Y-101214897D01*
X169121093Y-101210737D01*
X169042383Y-101210779D01*
X168963905Y-101215187D01*
X168891166Y-101224123D01*
X168887239Y-101224772D01*
X168838423Y-101232479D01*
X168806171Y-101236091D01*
X168785174Y-101235494D01*
X168770120Y-101230572D01*
X168755700Y-101221214D01*
X168754530Y-101220343D01*
X168730013Y-101189969D01*
X168725220Y-101154468D01*
X168741026Y-101119887D01*
X168745572Y-101115431D01*
X168775186Y-101100291D01*
X168822168Y-101087168D01*
X168882472Y-101076368D01*
X168952054Y-101068199D01*
X169026869Y-101062969D01*
X169102872Y-101060985D01*
X169176019Y-101062554D01*
G37*
X165323877Y-96754651D02*
X165419434Y-96772141D01*
X165583724Y-96817182D01*
X165737755Y-96880274D01*
X165883675Y-96962533D01*
X166023632Y-97065075D01*
X166159774Y-97189017D01*
X166203639Y-97234279D01*
X166315924Y-97366483D01*
X166409138Y-97504450D01*
X166485885Y-97652368D01*
X166548769Y-97814421D01*
X166552586Y-97826009D01*
X166602673Y-98012010D01*
X166636065Y-98208139D01*
X166652750Y-98410186D01*
X166652717Y-98613943D01*
X166635957Y-98815199D01*
X166602458Y-99009746D01*
X166552210Y-99193374D01*
X166508356Y-99310671D01*
X166430514Y-99473569D01*
X166336994Y-99627484D01*
X166229988Y-99769289D01*
X166111685Y-99895857D01*
X165984277Y-100004059D01*
X165906772Y-100056738D01*
X165779891Y-100126368D01*
X165642409Y-100185086D01*
X165500882Y-100230205D01*
X165361868Y-100259040D01*
X165347763Y-100260724D01*
X165304319Y-100264052D01*
X165246889Y-100266893D01*
X165181288Y-100268991D01*
X165113333Y-100270086D01*
X164986544Y-100267758D01*
X164838839Y-100254754D01*
X164700945Y-100229751D01*
X164567180Y-100191936D01*
X164543728Y-100183507D01*
X164495778Y-100164026D01*
X164439306Y-100139091D01*
X164377545Y-100110340D01*
X164313729Y-100079408D01*
X164251092Y-100047933D01*
X164192869Y-100017552D01*
X164142293Y-99989901D01*
X164102599Y-99966617D01*
X164077020Y-99949336D01*
X164068791Y-99939697D01*
X164070242Y-99936602D01*
X164081416Y-99916697D01*
X164102300Y-99881038D01*
X164131431Y-99832077D01*
X164167347Y-99772264D01*
X164208586Y-99704051D01*
X164253683Y-99629889D01*
X164434951Y-99332626D01*
X164481481Y-99377157D01*
X164572889Y-99455483D01*
X164686500Y-99530057D01*
X164804288Y-99584092D01*
X164924725Y-99616908D01*
X165046283Y-99627829D01*
X165087751Y-99626486D01*
X165205246Y-99608230D01*
X165315255Y-99569235D01*
X165416596Y-99510288D01*
X165508087Y-99432175D01*
X165588546Y-99335682D01*
X165656793Y-99221596D01*
X165673074Y-99187342D01*
X165719148Y-99063858D01*
X165754272Y-98925536D01*
X165778363Y-98776179D01*
X165791339Y-98619591D01*
X165793115Y-98459574D01*
X165783609Y-98299932D01*
X165762738Y-98144468D01*
X165730418Y-97996984D01*
X165686565Y-97861285D01*
X165649148Y-97774694D01*
X165584351Y-97661306D01*
X165508938Y-97567688D01*
X165422584Y-97493577D01*
X165324961Y-97438712D01*
X165215743Y-97402830D01*
X165094605Y-97385669D01*
X165025204Y-97384498D01*
X164902334Y-97398759D01*
X164786830Y-97433859D01*
X164680119Y-97489300D01*
X164583630Y-97564582D01*
X164567886Y-97579058D01*
X164537316Y-97605580D01*
X164514975Y-97622756D01*
X164504857Y-97627405D01*
X164502872Y-97625215D01*
X164488407Y-97606339D01*
X164464566Y-97573015D01*
X164433195Y-97527998D01*
X164396140Y-97474043D01*
X164355249Y-97413903D01*
X164312368Y-97350336D01*
X164269344Y-97286094D01*
X164228023Y-97223933D01*
X164190252Y-97166609D01*
X164157878Y-97116875D01*
X164132748Y-97077486D01*
X164116708Y-97051198D01*
X164111605Y-97040765D01*
X164116216Y-97036559D01*
X164135433Y-97031551D01*
X164145004Y-97029004D01*
X164172975Y-97017867D01*
X164214614Y-96999420D01*
X164266161Y-96975343D01*
X164323856Y-96947317D01*
X164335123Y-96941772D01*
X164512853Y-96862507D01*
X164682656Y-96803003D01*
X164846596Y-96762863D01*
X165006737Y-96741689D01*
X165165143Y-96739084D01*
X165323877Y-96754651D01*
G36*
X165323877Y-96754651D02*
G01*
X165419434Y-96772141D01*
X165583724Y-96817182D01*
X165737755Y-96880274D01*
X165883675Y-96962533D01*
X166023632Y-97065075D01*
X166159774Y-97189017D01*
X166203639Y-97234279D01*
X166315924Y-97366483D01*
X166409138Y-97504450D01*
X166485885Y-97652368D01*
X166548769Y-97814421D01*
X166552586Y-97826009D01*
X166602673Y-98012010D01*
X166636065Y-98208139D01*
X166652750Y-98410186D01*
X166652717Y-98613943D01*
X166635957Y-98815199D01*
X166602458Y-99009746D01*
X166552210Y-99193374D01*
X166508356Y-99310671D01*
X166430514Y-99473569D01*
X166336994Y-99627484D01*
X166229988Y-99769289D01*
X166111685Y-99895857D01*
X165984277Y-100004059D01*
X165906772Y-100056738D01*
X165779891Y-100126368D01*
X165642409Y-100185086D01*
X165500882Y-100230205D01*
X165361868Y-100259040D01*
X165347763Y-100260724D01*
X165304319Y-100264052D01*
X165246889Y-100266893D01*
X165181288Y-100268991D01*
X165113333Y-100270086D01*
X164986544Y-100267758D01*
X164838839Y-100254754D01*
X164700945Y-100229751D01*
X164567180Y-100191936D01*
X164543728Y-100183507D01*
X164495778Y-100164026D01*
X164439306Y-100139091D01*
X164377545Y-100110340D01*
X164313729Y-100079408D01*
X164251092Y-100047933D01*
X164192869Y-100017552D01*
X164142293Y-99989901D01*
X164102599Y-99966617D01*
X164077020Y-99949336D01*
X164068791Y-99939697D01*
X164070242Y-99936602D01*
X164081416Y-99916697D01*
X164102300Y-99881038D01*
X164131431Y-99832077D01*
X164167347Y-99772264D01*
X164208586Y-99704051D01*
X164253683Y-99629889D01*
X164434951Y-99332626D01*
X164481481Y-99377157D01*
X164572889Y-99455483D01*
X164686500Y-99530057D01*
X164804288Y-99584092D01*
X164924725Y-99616908D01*
X165046283Y-99627829D01*
X165087751Y-99626486D01*
X165205246Y-99608230D01*
X165315255Y-99569235D01*
X165416596Y-99510288D01*
X165508087Y-99432175D01*
X165588546Y-99335682D01*
X165656793Y-99221596D01*
X165673074Y-99187342D01*
X165719148Y-99063858D01*
X165754272Y-98925536D01*
X165778363Y-98776179D01*
X165791339Y-98619591D01*
X165793115Y-98459574D01*
X165783609Y-98299932D01*
X165762738Y-98144468D01*
X165730418Y-97996984D01*
X165686565Y-97861285D01*
X165649148Y-97774694D01*
X165584351Y-97661306D01*
X165508938Y-97567688D01*
X165422584Y-97493577D01*
X165324961Y-97438712D01*
X165215743Y-97402830D01*
X165094605Y-97385669D01*
X165025204Y-97384498D01*
X164902334Y-97398759D01*
X164786830Y-97433859D01*
X164680119Y-97489300D01*
X164583630Y-97564582D01*
X164567886Y-97579058D01*
X164537316Y-97605580D01*
X164514975Y-97622756D01*
X164504857Y-97627405D01*
X164502872Y-97625215D01*
X164488407Y-97606339D01*
X164464566Y-97573015D01*
X164433195Y-97527998D01*
X164396140Y-97474043D01*
X164355249Y-97413903D01*
X164312368Y-97350336D01*
X164269344Y-97286094D01*
X164228023Y-97223933D01*
X164190252Y-97166609D01*
X164157878Y-97116875D01*
X164132748Y-97077486D01*
X164116708Y-97051198D01*
X164111605Y-97040765D01*
X164116216Y-97036559D01*
X164135433Y-97031551D01*
X164145004Y-97029004D01*
X164172975Y-97017867D01*
X164214614Y-96999420D01*
X164266161Y-96975343D01*
X164323856Y-96947317D01*
X164335123Y-96941772D01*
X164512853Y-96862507D01*
X164682656Y-96803003D01*
X164846596Y-96762863D01*
X165006737Y-96741689D01*
X165165143Y-96739084D01*
X165323877Y-96754651D01*
G37*
X161521160Y-99035329D02*
X161520434Y-99112776D01*
X161511855Y-99264212D01*
X161492999Y-99400901D01*
X161463003Y-99526894D01*
X161421002Y-99646243D01*
X161366135Y-99762999D01*
X161299333Y-99873797D01*
X161208529Y-99987357D01*
X161104874Y-100082829D01*
X160989053Y-100159691D01*
X160861752Y-100217415D01*
X160723655Y-100255476D01*
X160685959Y-100261284D01*
X160606918Y-100267014D01*
X160518795Y-100267201D01*
X160429402Y-100262157D01*
X160346550Y-100252196D01*
X160278053Y-100237630D01*
X160247201Y-100227982D01*
X160169896Y-100197741D01*
X160092845Y-100160235D01*
X160023366Y-100119232D01*
X159968781Y-100078497D01*
X159946082Y-100059123D01*
X159923367Y-100041280D01*
X159911945Y-100034396D01*
X159910703Y-100036042D01*
X159907894Y-100053823D01*
X159905942Y-100086988D01*
X159905211Y-100130351D01*
X159905211Y-100226307D01*
X159047062Y-100226307D01*
X159081327Y-100165592D01*
X159086521Y-100156486D01*
X159094881Y-100141867D01*
X159102454Y-100127791D01*
X159109278Y-100113158D01*
X159115393Y-100096867D01*
X159120839Y-100077816D01*
X159125653Y-100054904D01*
X159129874Y-100027031D01*
X159133543Y-99993096D01*
X159136697Y-99951997D01*
X159139377Y-99902633D01*
X159141620Y-99843904D01*
X159143465Y-99774708D01*
X159144953Y-99693944D01*
X159146121Y-99600512D01*
X159147010Y-99493310D01*
X159147657Y-99371238D01*
X159148102Y-99233194D01*
X159148384Y-99078077D01*
X159148541Y-98904786D01*
X159148614Y-98712221D01*
X159148640Y-98499280D01*
X159148651Y-98363148D01*
X159950366Y-98363148D01*
X159950366Y-99513339D01*
X160020922Y-99559707D01*
X160061583Y-99583409D01*
X160115712Y-99609257D01*
X160164855Y-99627447D01*
X160228331Y-99643169D01*
X160324497Y-99654159D01*
X160409066Y-99645983D01*
X160482385Y-99618423D01*
X160544803Y-99571260D01*
X160596668Y-99504276D01*
X160638326Y-99417251D01*
X160670128Y-99309968D01*
X160672711Y-99297627D01*
X160681166Y-99236390D01*
X160686829Y-99159310D01*
X160689742Y-99071620D01*
X160689949Y-98978552D01*
X160687496Y-98885338D01*
X160682427Y-98797212D01*
X160674785Y-98719406D01*
X160664614Y-98657151D01*
X160663333Y-98651284D01*
X160634292Y-98540739D01*
X160599776Y-98450193D01*
X160558622Y-98377571D01*
X160509665Y-98320799D01*
X160451740Y-98277802D01*
X160419786Y-98262233D01*
X160346950Y-98243340D01*
X160265609Y-98240083D01*
X160180485Y-98252007D01*
X160096299Y-98278658D01*
X160017774Y-98319580D01*
X159950366Y-98363148D01*
X159148651Y-98363148D01*
X159148659Y-98264863D01*
X159148855Y-96579996D01*
X160054183Y-96579996D01*
X160029751Y-96616685D01*
X160023484Y-96626265D01*
X159997374Y-96672599D01*
X159979635Y-96719720D01*
X159968074Y-96774869D01*
X159960497Y-96845285D01*
X159960005Y-96852268D01*
X159958228Y-96890259D01*
X159956610Y-96944194D01*
X159955165Y-97011321D01*
X159953906Y-97088889D01*
X159952846Y-97174146D01*
X159951995Y-97264342D01*
X159951369Y-97356725D01*
X159950978Y-97448543D01*
X159950836Y-97537045D01*
X159950956Y-97619480D01*
X159951349Y-97693097D01*
X159952028Y-97755144D01*
X159953007Y-97802869D01*
X159954298Y-97833522D01*
X159955913Y-97844351D01*
X159964123Y-97839951D01*
X159985813Y-97824980D01*
X160015180Y-97803066D01*
X160064045Y-97768854D01*
X160152291Y-97722332D01*
X160251082Y-97688664D01*
X160363676Y-97666849D01*
X160493330Y-97655883D01*
X160585836Y-97654837D01*
X160707177Y-97664632D01*
X160817265Y-97688792D01*
X160920555Y-97728403D01*
X161021504Y-97784550D01*
X161066669Y-97815501D01*
X161172077Y-97906733D01*
X161263704Y-98015724D01*
X161341498Y-98142344D01*
X161405407Y-98286463D01*
X161455380Y-98447950D01*
X161491364Y-98626677D01*
X161513309Y-98822513D01*
X161519066Y-98978552D01*
X161521160Y-99035329D01*
G36*
X161521160Y-99035329D02*
G01*
X161520434Y-99112776D01*
X161511855Y-99264212D01*
X161492999Y-99400901D01*
X161463003Y-99526894D01*
X161421002Y-99646243D01*
X161366135Y-99762999D01*
X161299333Y-99873797D01*
X161208529Y-99987357D01*
X161104874Y-100082829D01*
X160989053Y-100159691D01*
X160861752Y-100217415D01*
X160723655Y-100255476D01*
X160685959Y-100261284D01*
X160606918Y-100267014D01*
X160518795Y-100267201D01*
X160429402Y-100262157D01*
X160346550Y-100252196D01*
X160278053Y-100237630D01*
X160247201Y-100227982D01*
X160169896Y-100197741D01*
X160092845Y-100160235D01*
X160023366Y-100119232D01*
X159968781Y-100078497D01*
X159946082Y-100059123D01*
X159923367Y-100041280D01*
X159911945Y-100034396D01*
X159910703Y-100036042D01*
X159907894Y-100053823D01*
X159905942Y-100086988D01*
X159905211Y-100130351D01*
X159905211Y-100226307D01*
X159047062Y-100226307D01*
X159081327Y-100165592D01*
X159086521Y-100156486D01*
X159094881Y-100141867D01*
X159102454Y-100127791D01*
X159109278Y-100113158D01*
X159115393Y-100096867D01*
X159120839Y-100077816D01*
X159125653Y-100054904D01*
X159129874Y-100027031D01*
X159133543Y-99993096D01*
X159136697Y-99951997D01*
X159139377Y-99902633D01*
X159141620Y-99843904D01*
X159143465Y-99774708D01*
X159144953Y-99693944D01*
X159146121Y-99600512D01*
X159147010Y-99493310D01*
X159147657Y-99371238D01*
X159148102Y-99233194D01*
X159148384Y-99078077D01*
X159148541Y-98904786D01*
X159148614Y-98712221D01*
X159148640Y-98499280D01*
X159148651Y-98363148D01*
X159950366Y-98363148D01*
X159950366Y-99513339D01*
X160020922Y-99559707D01*
X160061583Y-99583409D01*
X160115712Y-99609257D01*
X160164855Y-99627447D01*
X160228331Y-99643169D01*
X160324497Y-99654159D01*
X160409066Y-99645983D01*
X160482385Y-99618423D01*
X160544803Y-99571260D01*
X160596668Y-99504276D01*
X160638326Y-99417251D01*
X160670128Y-99309968D01*
X160672711Y-99297627D01*
X160681166Y-99236390D01*
X160686829Y-99159310D01*
X160689742Y-99071620D01*
X160689949Y-98978552D01*
X160687496Y-98885338D01*
X160682427Y-98797212D01*
X160674785Y-98719406D01*
X160664614Y-98657151D01*
X160663333Y-98651284D01*
X160634292Y-98540739D01*
X160599776Y-98450193D01*
X160558622Y-98377571D01*
X160509665Y-98320799D01*
X160451740Y-98277802D01*
X160419786Y-98262233D01*
X160346950Y-98243340D01*
X160265609Y-98240083D01*
X160180485Y-98252007D01*
X160096299Y-98278658D01*
X160017774Y-98319580D01*
X159950366Y-98363148D01*
X159148651Y-98363148D01*
X159148659Y-98264863D01*
X159148855Y-96579996D01*
X160054183Y-96579996D01*
X160029751Y-96616685D01*
X160023484Y-96626265D01*
X159997374Y-96672599D01*
X159979635Y-96719720D01*
X159968074Y-96774869D01*
X159960497Y-96845285D01*
X159960005Y-96852268D01*
X159958228Y-96890259D01*
X159956610Y-96944194D01*
X159955165Y-97011321D01*
X159953906Y-97088889D01*
X159952846Y-97174146D01*
X159951995Y-97264342D01*
X159951369Y-97356725D01*
X159950978Y-97448543D01*
X159950836Y-97537045D01*
X159950956Y-97619480D01*
X159951349Y-97693097D01*
X159952028Y-97755144D01*
X159953007Y-97802869D01*
X159954298Y-97833522D01*
X159955913Y-97844351D01*
X159964123Y-97839951D01*
X159985813Y-97824980D01*
X160015180Y-97803066D01*
X160064045Y-97768854D01*
X160152291Y-97722332D01*
X160251082Y-97688664D01*
X160363676Y-97666849D01*
X160493330Y-97655883D01*
X160585836Y-97654837D01*
X160707177Y-97664632D01*
X160817265Y-97688792D01*
X160920555Y-97728403D01*
X161021504Y-97784550D01*
X161066669Y-97815501D01*
X161172077Y-97906733D01*
X161263704Y-98015724D01*
X161341498Y-98142344D01*
X161405407Y-98286463D01*
X161455380Y-98447950D01*
X161491364Y-98626677D01*
X161513309Y-98822513D01*
X161519066Y-98978552D01*
X161521160Y-99035329D01*
G37*
X164062921Y-99436085D02*
X164062427Y-99469981D01*
X164058798Y-99544820D01*
X164051188Y-99607019D01*
X164038854Y-99663602D01*
X163994479Y-99789694D01*
X163931566Y-99904297D01*
X163851404Y-100005186D01*
X163754906Y-100091542D01*
X163642988Y-100162550D01*
X163516563Y-100217394D01*
X163376544Y-100255256D01*
X163340315Y-100260969D01*
X163261321Y-100266931D01*
X163173007Y-100267264D01*
X163083241Y-100262277D01*
X162999888Y-100252284D01*
X162930817Y-100237596D01*
X162844353Y-100207367D01*
X162734452Y-100152675D01*
X162637122Y-100085161D01*
X162575033Y-100034174D01*
X162571771Y-100130240D01*
X162568509Y-100226307D01*
X162145616Y-100226307D01*
X162134709Y-100226304D01*
X162040222Y-100225998D01*
X161953497Y-100225234D01*
X161877003Y-100224069D01*
X161813209Y-100222560D01*
X161764584Y-100220765D01*
X161733599Y-100218739D01*
X161722722Y-100216540D01*
X161722744Y-100216081D01*
X161729780Y-100200528D01*
X161745600Y-100177689D01*
X161749900Y-100172256D01*
X161760943Y-100158224D01*
X161770477Y-100144804D01*
X161778627Y-100130340D01*
X161785518Y-100113174D01*
X161791277Y-100091652D01*
X161796028Y-100064116D01*
X161799897Y-100028910D01*
X161803010Y-99984378D01*
X161805491Y-99928864D01*
X161807466Y-99860711D01*
X161809060Y-99778263D01*
X161810400Y-99679864D01*
X161811610Y-99563857D01*
X161812815Y-99428586D01*
X161813761Y-99317204D01*
X162614544Y-99317204D01*
X162614544Y-99513080D01*
X162659214Y-99569591D01*
X162671951Y-99584830D01*
X162718770Y-99627462D01*
X162779421Y-99663290D01*
X162790063Y-99668468D01*
X162828842Y-99685363D01*
X162863858Y-99695527D01*
X162903888Y-99700943D01*
X162957707Y-99703596D01*
X162975814Y-99704001D01*
X163051177Y-99701158D01*
X163111909Y-99689238D01*
X163163618Y-99666655D01*
X163211912Y-99631829D01*
X163216969Y-99627416D01*
X163265438Y-99571778D01*
X163293625Y-99507951D01*
X163302918Y-99432900D01*
X163295686Y-99361311D01*
X163270962Y-99298263D01*
X163226415Y-99240376D01*
X163171485Y-99193426D01*
X163099060Y-99153579D01*
X163012506Y-99125881D01*
X162909836Y-99109714D01*
X162789060Y-99104460D01*
X162780173Y-99104475D01*
X162724826Y-99105273D01*
X162677902Y-99107106D01*
X162644119Y-99109729D01*
X162628194Y-99112892D01*
X162624109Y-99119359D01*
X162619738Y-99141493D01*
X162616770Y-99180606D01*
X162615080Y-99238557D01*
X162614544Y-99317204D01*
X161813761Y-99317204D01*
X161814141Y-99272396D01*
X161815394Y-99129630D01*
X161816817Y-98984560D01*
X161818342Y-98858645D01*
X161820099Y-98750054D01*
X161822217Y-98656952D01*
X161824826Y-98577509D01*
X161828056Y-98509891D01*
X161832035Y-98452267D01*
X161836894Y-98402803D01*
X161842763Y-98359668D01*
X161849770Y-98321028D01*
X161858046Y-98285052D01*
X161867720Y-98249907D01*
X161878922Y-98213760D01*
X161891782Y-98174779D01*
X161907256Y-98131709D01*
X161950160Y-98039489D01*
X162003901Y-97959717D01*
X162072742Y-97885583D01*
X162150351Y-97822023D01*
X162254927Y-97760343D01*
X162374410Y-97712820D01*
X162509674Y-97679185D01*
X162661592Y-97659170D01*
X162831038Y-97652507D01*
X162889056Y-97652905D01*
X162954564Y-97654953D01*
X163015859Y-97659322D01*
X163077263Y-97666653D01*
X163143098Y-97677587D01*
X163217686Y-97692765D01*
X163305350Y-97712827D01*
X163410411Y-97738415D01*
X163438972Y-97745438D01*
X163514220Y-97763394D01*
X163584554Y-97779438D01*
X163645733Y-97792646D01*
X163693520Y-97802092D01*
X163723677Y-97806849D01*
X163751949Y-97810528D01*
X163778226Y-97815805D01*
X163788225Y-97820560D01*
X163785118Y-97829399D01*
X163774360Y-97856690D01*
X163757030Y-97899524D01*
X163734292Y-97955043D01*
X163707313Y-98020390D01*
X163677256Y-98092707D01*
X163670659Y-98108497D01*
X163632073Y-98199102D01*
X163600934Y-98268835D01*
X163577083Y-98318023D01*
X163560364Y-98346992D01*
X163550620Y-98356070D01*
X163542932Y-98354023D01*
X163516581Y-98344378D01*
X163478148Y-98328808D01*
X163432988Y-98309433D01*
X163338459Y-98271432D01*
X163201646Y-98230398D01*
X163060455Y-98205230D01*
X163022480Y-98201229D01*
X162919225Y-98199065D01*
X162832118Y-98212240D01*
X162760295Y-98241374D01*
X162702897Y-98287084D01*
X162659062Y-98349990D01*
X162627928Y-98430710D01*
X162608636Y-98529863D01*
X162601216Y-98588842D01*
X162763102Y-98582063D01*
X162889661Y-98580431D01*
X163041117Y-98586812D01*
X163189562Y-98601395D01*
X163325744Y-98623500D01*
X163390411Y-98638439D01*
X163522656Y-98681359D01*
X163644928Y-98737958D01*
X163754851Y-98806635D01*
X163850049Y-98885788D01*
X163928146Y-98973814D01*
X163986765Y-99069111D01*
X164010761Y-99121482D01*
X164036398Y-99192208D01*
X164052644Y-99263430D01*
X164060988Y-99342330D01*
X164062856Y-99432900D01*
X164062921Y-99436085D01*
G36*
X164062921Y-99436085D02*
G01*
X164062427Y-99469981D01*
X164058798Y-99544820D01*
X164051188Y-99607019D01*
X164038854Y-99663602D01*
X163994479Y-99789694D01*
X163931566Y-99904297D01*
X163851404Y-100005186D01*
X163754906Y-100091542D01*
X163642988Y-100162550D01*
X163516563Y-100217394D01*
X163376544Y-100255256D01*
X163340315Y-100260969D01*
X163261321Y-100266931D01*
X163173007Y-100267264D01*
X163083241Y-100262277D01*
X162999888Y-100252284D01*
X162930817Y-100237596D01*
X162844353Y-100207367D01*
X162734452Y-100152675D01*
X162637122Y-100085161D01*
X162575033Y-100034174D01*
X162571771Y-100130240D01*
X162568509Y-100226307D01*
X162145616Y-100226307D01*
X162134709Y-100226304D01*
X162040222Y-100225998D01*
X161953497Y-100225234D01*
X161877003Y-100224069D01*
X161813209Y-100222560D01*
X161764584Y-100220765D01*
X161733599Y-100218739D01*
X161722722Y-100216540D01*
X161722744Y-100216081D01*
X161729780Y-100200528D01*
X161745600Y-100177689D01*
X161749900Y-100172256D01*
X161760943Y-100158224D01*
X161770477Y-100144804D01*
X161778627Y-100130340D01*
X161785518Y-100113174D01*
X161791277Y-100091652D01*
X161796028Y-100064116D01*
X161799897Y-100028910D01*
X161803010Y-99984378D01*
X161805491Y-99928864D01*
X161807466Y-99860711D01*
X161809060Y-99778263D01*
X161810400Y-99679864D01*
X161811610Y-99563857D01*
X161812815Y-99428586D01*
X161813761Y-99317204D01*
X162614544Y-99317204D01*
X162614544Y-99513080D01*
X162659214Y-99569591D01*
X162671951Y-99584830D01*
X162718770Y-99627462D01*
X162779421Y-99663290D01*
X162790063Y-99668468D01*
X162828842Y-99685363D01*
X162863858Y-99695527D01*
X162903888Y-99700943D01*
X162957707Y-99703596D01*
X162975814Y-99704001D01*
X163051177Y-99701158D01*
X163111909Y-99689238D01*
X163163618Y-99666655D01*
X163211912Y-99631829D01*
X163216969Y-99627416D01*
X163265438Y-99571778D01*
X163293625Y-99507951D01*
X163302918Y-99432900D01*
X163295686Y-99361311D01*
X163270962Y-99298263D01*
X163226415Y-99240376D01*
X163171485Y-99193426D01*
X163099060Y-99153579D01*
X163012506Y-99125881D01*
X162909836Y-99109714D01*
X162789060Y-99104460D01*
X162780173Y-99104475D01*
X162724826Y-99105273D01*
X162677902Y-99107106D01*
X162644119Y-99109729D01*
X162628194Y-99112892D01*
X162624109Y-99119359D01*
X162619738Y-99141493D01*
X162616770Y-99180606D01*
X162615080Y-99238557D01*
X162614544Y-99317204D01*
X161813761Y-99317204D01*
X161814141Y-99272396D01*
X161815394Y-99129630D01*
X161816817Y-98984560D01*
X161818342Y-98858645D01*
X161820099Y-98750054D01*
X161822217Y-98656952D01*
X161824826Y-98577509D01*
X161828056Y-98509891D01*
X161832035Y-98452267D01*
X161836894Y-98402803D01*
X161842763Y-98359668D01*
X161849770Y-98321028D01*
X161858046Y-98285052D01*
X161867720Y-98249907D01*
X161878922Y-98213760D01*
X161891782Y-98174779D01*
X161907256Y-98131709D01*
X161950160Y-98039489D01*
X162003901Y-97959717D01*
X162072742Y-97885583D01*
X162150351Y-97822023D01*
X162254927Y-97760343D01*
X162374410Y-97712820D01*
X162509674Y-97679185D01*
X162661592Y-97659170D01*
X162831038Y-97652507D01*
X162889056Y-97652905D01*
X162954564Y-97654953D01*
X163015859Y-97659322D01*
X163077263Y-97666653D01*
X163143098Y-97677587D01*
X163217686Y-97692765D01*
X163305350Y-97712827D01*
X163410411Y-97738415D01*
X163438972Y-97745438D01*
X163514220Y-97763394D01*
X163584554Y-97779438D01*
X163645733Y-97792646D01*
X163693520Y-97802092D01*
X163723677Y-97806849D01*
X163751949Y-97810528D01*
X163778226Y-97815805D01*
X163788225Y-97820560D01*
X163785118Y-97829399D01*
X163774360Y-97856690D01*
X163757030Y-97899524D01*
X163734292Y-97955043D01*
X163707313Y-98020390D01*
X163677256Y-98092707D01*
X163670659Y-98108497D01*
X163632073Y-98199102D01*
X163600934Y-98268835D01*
X163577083Y-98318023D01*
X163560364Y-98346992D01*
X163550620Y-98356070D01*
X163542932Y-98354023D01*
X163516581Y-98344378D01*
X163478148Y-98328808D01*
X163432988Y-98309433D01*
X163338459Y-98271432D01*
X163201646Y-98230398D01*
X163060455Y-98205230D01*
X163022480Y-98201229D01*
X162919225Y-98199065D01*
X162832118Y-98212240D01*
X162760295Y-98241374D01*
X162702897Y-98287084D01*
X162659062Y-98349990D01*
X162627928Y-98430710D01*
X162608636Y-98529863D01*
X162601216Y-98588842D01*
X162763102Y-98582063D01*
X162889661Y-98580431D01*
X163041117Y-98586812D01*
X163189562Y-98601395D01*
X163325744Y-98623500D01*
X163390411Y-98638439D01*
X163522656Y-98681359D01*
X163644928Y-98737958D01*
X163754851Y-98806635D01*
X163850049Y-98885788D01*
X163928146Y-98973814D01*
X163986765Y-99069111D01*
X164010761Y-99121482D01*
X164036398Y-99192208D01*
X164052644Y-99263430D01*
X164060988Y-99342330D01*
X164062856Y-99432900D01*
X164062921Y-99436085D01*
G37*
X171610780Y-96904410D02*
X171611225Y-97035629D01*
X171611528Y-97182834D01*
X171611714Y-97346967D01*
X171611808Y-97528970D01*
X171611837Y-97729783D01*
X171611827Y-97950350D01*
X171611802Y-98191610D01*
X171611788Y-98454507D01*
X171611788Y-98496658D01*
X171611812Y-98757286D01*
X171611851Y-98996414D01*
X171611874Y-99214978D01*
X171611853Y-99413913D01*
X171611759Y-99594153D01*
X171611561Y-99756633D01*
X171611229Y-99902288D01*
X171610735Y-100032052D01*
X171610049Y-100146861D01*
X171609142Y-100247648D01*
X171607983Y-100335348D01*
X171606544Y-100410897D01*
X171604795Y-100475229D01*
X171602706Y-100529279D01*
X171600249Y-100573981D01*
X171597393Y-100610270D01*
X171594109Y-100639081D01*
X171590368Y-100661349D01*
X171586140Y-100678008D01*
X171581395Y-100689993D01*
X171576105Y-100698239D01*
X171570239Y-100703680D01*
X171563768Y-100707252D01*
X171556663Y-100709888D01*
X171548894Y-100712524D01*
X171540432Y-100716095D01*
X171536074Y-100717763D01*
X171527561Y-100719729D01*
X171514860Y-100721529D01*
X171497051Y-100723173D01*
X171473215Y-100724665D01*
X171442432Y-100726015D01*
X171403783Y-100727229D01*
X171356348Y-100728315D01*
X171299209Y-100729279D01*
X171231445Y-100730129D01*
X171152137Y-100730871D01*
X171060365Y-100731515D01*
X170955210Y-100732065D01*
X170835753Y-100732531D01*
X170701074Y-100732918D01*
X170550254Y-100733234D01*
X170382372Y-100733487D01*
X170196511Y-100733684D01*
X169991749Y-100733831D01*
X169767168Y-100733936D01*
X169521848Y-100734007D01*
X169254870Y-100734050D01*
X169216487Y-100734055D01*
X168951088Y-100734098D01*
X168707216Y-100734143D01*
X168483949Y-100734166D01*
X168280362Y-100734142D01*
X168095533Y-100734048D01*
X167928539Y-100733861D01*
X167778456Y-100733557D01*
X167644362Y-100733112D01*
X167525332Y-100732503D01*
X167420445Y-100731707D01*
X167328776Y-100730698D01*
X167249403Y-100729455D01*
X167181403Y-100727953D01*
X167123852Y-100726169D01*
X167075828Y-100724079D01*
X167036406Y-100721660D01*
X167004665Y-100718888D01*
X166979680Y-100715739D01*
X166960530Y-100712190D01*
X166946289Y-100708216D01*
X166936037Y-100703796D01*
X166928848Y-100698904D01*
X166923801Y-100693518D01*
X166919971Y-100687614D01*
X166916437Y-100681167D01*
X166912274Y-100674155D01*
X166911191Y-100672305D01*
X166908979Y-100666798D01*
X166906952Y-100658486D01*
X166905104Y-100646427D01*
X166903427Y-100629681D01*
X166901911Y-100607305D01*
X166900549Y-100578358D01*
X166899333Y-100541898D01*
X166898255Y-100496985D01*
X166897306Y-100442675D01*
X166896478Y-100378028D01*
X166895763Y-100302102D01*
X166895153Y-100213956D01*
X166895108Y-100205111D01*
X167186544Y-100205111D01*
X167190426Y-100206383D01*
X167213686Y-100208409D01*
X167256040Y-100210244D01*
X167315298Y-100211845D01*
X167389273Y-100213167D01*
X167475776Y-100214166D01*
X167572618Y-100214798D01*
X167677611Y-100215018D01*
X168375817Y-100215018D01*
X169530256Y-100215018D01*
X169529622Y-100138818D01*
X169530740Y-100096778D01*
X169536470Y-100060952D01*
X169549056Y-100023390D01*
X169570734Y-99975195D01*
X169573955Y-99968515D01*
X169599354Y-99918977D01*
X169626162Y-99870987D01*
X169649083Y-99834084D01*
X169653651Y-99827452D01*
X169675682Y-99796211D01*
X169707859Y-99751272D01*
X169748623Y-99694765D01*
X169796411Y-99628822D01*
X169849664Y-99555575D01*
X169906821Y-99477154D01*
X169966321Y-99395690D01*
X170026603Y-99313316D01*
X170086106Y-99232162D01*
X170143271Y-99154360D01*
X170196536Y-99082041D01*
X170244340Y-99017336D01*
X170285123Y-98962377D01*
X170317324Y-98919294D01*
X170339382Y-98890220D01*
X170349737Y-98877285D01*
X170354210Y-98872969D01*
X170358402Y-98870930D01*
X170361809Y-98873544D01*
X170364491Y-98882604D01*
X170366507Y-98899903D01*
X170367914Y-98927232D01*
X170368771Y-98966383D01*
X170369136Y-99019151D01*
X170369069Y-99087325D01*
X170368626Y-99172700D01*
X170367868Y-99277067D01*
X170366851Y-99402218D01*
X170366474Y-99446918D01*
X170365335Y-99568013D01*
X170364138Y-99669306D01*
X170362802Y-99752880D01*
X170361243Y-99820822D01*
X170359381Y-99875217D01*
X170357132Y-99918150D01*
X170354414Y-99951707D01*
X170351145Y-99977973D01*
X170347244Y-99999034D01*
X170342627Y-100016975D01*
X170334358Y-100043388D01*
X170310749Y-100105390D01*
X170284851Y-100158191D01*
X170259701Y-100195263D01*
X170258505Y-100196693D01*
X170256334Y-100201042D01*
X170258494Y-100204644D01*
X170266810Y-100207569D01*
X170283106Y-100209887D01*
X170309207Y-100211669D01*
X170346937Y-100212985D01*
X170398122Y-100213904D01*
X170464586Y-100214496D01*
X170548153Y-100214833D01*
X170650649Y-100214983D01*
X170773898Y-100215018D01*
X171305462Y-100215018D01*
X171266689Y-100157401D01*
X171260598Y-100148511D01*
X171250142Y-100133687D01*
X171240745Y-100120040D01*
X171232349Y-100106383D01*
X171224899Y-100091529D01*
X171218339Y-100074288D01*
X171212612Y-100053473D01*
X171207661Y-100027898D01*
X171203432Y-99996373D01*
X171199867Y-99957711D01*
X171196910Y-99910725D01*
X171194506Y-99854226D01*
X171192597Y-99787027D01*
X171191128Y-99707940D01*
X171190042Y-99615778D01*
X171189284Y-99509352D01*
X171188796Y-99387475D01*
X171188524Y-99248959D01*
X171188409Y-99092617D01*
X171188397Y-98917260D01*
X171188431Y-98721700D01*
X171188455Y-98504751D01*
X171188446Y-98382131D01*
X171188409Y-98177065D01*
X171188393Y-97992734D01*
X171188454Y-97827952D01*
X171188650Y-97681534D01*
X171189036Y-97552292D01*
X171189671Y-97439040D01*
X171190610Y-97340593D01*
X171191911Y-97255762D01*
X171193630Y-97183362D01*
X171195825Y-97122207D01*
X171198551Y-97071110D01*
X171201867Y-97028885D01*
X171205828Y-96994345D01*
X171210491Y-96966304D01*
X171215913Y-96943576D01*
X171222152Y-96924974D01*
X171229263Y-96909311D01*
X171237304Y-96895402D01*
X171246332Y-96882059D01*
X171256402Y-96868097D01*
X171267573Y-96852329D01*
X171307363Y-96794485D01*
X170247480Y-96794485D01*
X170285477Y-96857584D01*
X170300159Y-96882623D01*
X170314697Y-96910204D01*
X170326793Y-96938318D01*
X170336698Y-96969169D01*
X170344660Y-97004962D01*
X170350927Y-97047901D01*
X170355748Y-97100192D01*
X170359372Y-97164037D01*
X170362047Y-97241643D01*
X170364023Y-97335212D01*
X170365548Y-97446951D01*
X170366870Y-97579063D01*
X170367779Y-97699052D01*
X170368186Y-97815681D01*
X170367933Y-97911149D01*
X170367023Y-97985174D01*
X170365459Y-98037473D01*
X170363245Y-98067767D01*
X170360386Y-98075774D01*
X170357327Y-98072476D01*
X170339172Y-98051026D01*
X170309441Y-98014507D01*
X170269805Y-97965060D01*
X170221937Y-97904825D01*
X170167509Y-97835945D01*
X170108193Y-97760561D01*
X170045661Y-97680814D01*
X169981587Y-97598846D01*
X169917641Y-97516798D01*
X169855497Y-97436812D01*
X169796827Y-97361029D01*
X169743303Y-97291591D01*
X169696596Y-97230639D01*
X169658380Y-97180314D01*
X169630327Y-97142758D01*
X169614109Y-97120113D01*
X169568801Y-97047830D01*
X169528827Y-96968081D01*
X169507296Y-96899806D01*
X169503993Y-96842462D01*
X169509282Y-96794485D01*
X168377522Y-96794735D01*
X168417033Y-96825340D01*
X168426414Y-96832707D01*
X168489349Y-96887056D01*
X168558163Y-96954877D01*
X168634762Y-97038134D01*
X168721054Y-97138796D01*
X168738218Y-97159465D01*
X168778999Y-97209027D01*
X168828754Y-97269944D01*
X168886121Y-97340516D01*
X168949735Y-97419042D01*
X169018235Y-97503822D01*
X169090256Y-97593155D01*
X169164436Y-97685340D01*
X169179683Y-97704320D01*
X169239412Y-97778678D01*
X169313819Y-97871466D01*
X169386297Y-97962006D01*
X169455480Y-98048596D01*
X169520007Y-98129536D01*
X169578513Y-98203124D01*
X169629636Y-98267662D01*
X169672013Y-98321447D01*
X169704281Y-98362780D01*
X169725076Y-98389960D01*
X169733035Y-98401286D01*
X169731277Y-98405389D01*
X169718396Y-98425952D01*
X169694051Y-98462179D01*
X169659413Y-98512442D01*
X169615652Y-98575110D01*
X169563941Y-98648554D01*
X169505450Y-98731145D01*
X169441350Y-98821254D01*
X169372812Y-98917249D01*
X169301009Y-99017503D01*
X169227110Y-99120386D01*
X169152287Y-99224268D01*
X169077711Y-99327519D01*
X169004553Y-99428510D01*
X168933985Y-99525612D01*
X168867177Y-99617195D01*
X168805301Y-99701629D01*
X168749527Y-99777285D01*
X168701028Y-99842534D01*
X168660973Y-99895746D01*
X168630535Y-99935291D01*
X168610110Y-99960644D01*
X168564065Y-100014913D01*
X168513778Y-100071393D01*
X168466981Y-100121287D01*
X168375817Y-100215018D01*
X167677611Y-100215018D01*
X167746522Y-100214967D01*
X167844773Y-100214709D01*
X167934196Y-100214255D01*
X168012499Y-100213628D01*
X168077389Y-100212853D01*
X168126577Y-100211953D01*
X168157770Y-100210952D01*
X168168677Y-100209875D01*
X168167488Y-100206655D01*
X168157342Y-100189070D01*
X168140206Y-100162776D01*
X168131706Y-100150309D01*
X168122495Y-100136240D01*
X168114399Y-100121969D01*
X168107351Y-100106097D01*
X168101283Y-100087227D01*
X168096127Y-100063959D01*
X168091817Y-100034896D01*
X168088285Y-99998639D01*
X168085463Y-99953788D01*
X168083284Y-99898946D01*
X168081680Y-99832715D01*
X168080585Y-99753695D01*
X168079931Y-99660489D01*
X168079650Y-99551697D01*
X168079675Y-99425921D01*
X168079938Y-99281763D01*
X168080372Y-99117825D01*
X168080911Y-98932707D01*
X168081445Y-98753850D01*
X168081971Y-98594992D01*
X168082516Y-98455934D01*
X168083111Y-98335283D01*
X168083785Y-98231646D01*
X168084569Y-98143629D01*
X168085492Y-98069841D01*
X168086585Y-98008887D01*
X168087878Y-97959375D01*
X168089401Y-97919911D01*
X168091185Y-97889102D01*
X168093258Y-97865556D01*
X168095652Y-97847878D01*
X168098396Y-97834677D01*
X168101522Y-97824558D01*
X168105058Y-97816129D01*
X168108957Y-97807993D01*
X168128604Y-97771162D01*
X168147391Y-97741009D01*
X168148438Y-97739526D01*
X168162768Y-97717277D01*
X168168677Y-97704320D01*
X168167670Y-97703867D01*
X168150471Y-97702421D01*
X168113822Y-97701098D01*
X168060128Y-97699934D01*
X167991796Y-97698965D01*
X167911230Y-97698229D01*
X167820836Y-97697760D01*
X167723019Y-97697596D01*
X167277361Y-97697596D01*
X167274286Y-98874463D01*
X167271211Y-100051329D01*
X167244573Y-100110240D01*
X167232651Y-100134801D01*
X167215412Y-100165052D01*
X167202240Y-100182178D01*
X167194242Y-100190209D01*
X167186544Y-100205111D01*
X166895108Y-100205111D01*
X166894640Y-100112647D01*
X166894216Y-99997235D01*
X166893872Y-99866778D01*
X166893600Y-99720334D01*
X166893393Y-99556962D01*
X166893242Y-99375719D01*
X166893138Y-99175666D01*
X166893074Y-98955859D01*
X166893042Y-98715357D01*
X166893033Y-98453220D01*
X166893033Y-96261649D01*
X166931415Y-96223267D01*
X166958521Y-96199529D01*
X166985419Y-96187729D01*
X167021726Y-96184885D01*
X167073655Y-96184885D01*
X167073655Y-96272824D01*
X167075593Y-96322720D01*
X167094365Y-96433141D01*
X167131383Y-96534605D01*
X167184535Y-96625770D01*
X167251712Y-96705291D01*
X167330804Y-96771823D01*
X167419700Y-96824024D01*
X167516291Y-96860548D01*
X167618466Y-96880052D01*
X167724116Y-96881191D01*
X167831130Y-96862623D01*
X167937398Y-96823002D01*
X168034385Y-96765134D01*
X168119459Y-96690302D01*
X168188181Y-96602233D01*
X168239084Y-96503234D01*
X168270701Y-96395611D01*
X168281566Y-96281672D01*
X168281566Y-96184885D01*
X169901919Y-96184885D01*
X170113063Y-96184898D01*
X170317186Y-96184948D01*
X170500852Y-96185048D01*
X170665157Y-96185210D01*
X170811195Y-96185447D01*
X170940060Y-96185771D01*
X171052849Y-96186193D01*
X171150654Y-96186727D01*
X171234570Y-96187385D01*
X171305693Y-96188179D01*
X171365116Y-96189122D01*
X171413934Y-96190226D01*
X171453243Y-96191502D01*
X171484135Y-96192965D01*
X171507707Y-96194625D01*
X171525052Y-96196496D01*
X171537265Y-96198590D01*
X171545441Y-96200918D01*
X171550674Y-96203494D01*
X171556670Y-96207063D01*
X171563445Y-96210596D01*
X171569644Y-96214106D01*
X171575292Y-96218536D01*
X171580413Y-96224826D01*
X171585035Y-96233919D01*
X171589181Y-96246757D01*
X171592879Y-96264280D01*
X171596153Y-96287431D01*
X171599029Y-96317152D01*
X171601533Y-96354383D01*
X171603690Y-96400067D01*
X171605526Y-96455145D01*
X171607066Y-96520559D01*
X171608336Y-96597251D01*
X171609361Y-96686162D01*
X171610167Y-96788235D01*
X171610200Y-96794485D01*
X171610780Y-96904410D01*
G36*
X171610780Y-96904410D02*
G01*
X171611225Y-97035629D01*
X171611528Y-97182834D01*
X171611714Y-97346967D01*
X171611808Y-97528970D01*
X171611837Y-97729783D01*
X171611827Y-97950350D01*
X171611802Y-98191610D01*
X171611788Y-98454507D01*
X171611788Y-98496658D01*
X171611812Y-98757286D01*
X171611851Y-98996414D01*
X171611874Y-99214978D01*
X171611853Y-99413913D01*
X171611759Y-99594153D01*
X171611561Y-99756633D01*
X171611229Y-99902288D01*
X171610735Y-100032052D01*
X171610049Y-100146861D01*
X171609142Y-100247648D01*
X171607983Y-100335348D01*
X171606544Y-100410897D01*
X171604795Y-100475229D01*
X171602706Y-100529279D01*
X171600249Y-100573981D01*
X171597393Y-100610270D01*
X171594109Y-100639081D01*
X171590368Y-100661349D01*
X171586140Y-100678008D01*
X171581395Y-100689993D01*
X171576105Y-100698239D01*
X171570239Y-100703680D01*
X171563768Y-100707252D01*
X171556663Y-100709888D01*
X171548894Y-100712524D01*
X171540432Y-100716095D01*
X171536074Y-100717763D01*
X171527561Y-100719729D01*
X171514860Y-100721529D01*
X171497051Y-100723173D01*
X171473215Y-100724665D01*
X171442432Y-100726015D01*
X171403783Y-100727229D01*
X171356348Y-100728315D01*
X171299209Y-100729279D01*
X171231445Y-100730129D01*
X171152137Y-100730871D01*
X171060365Y-100731515D01*
X170955210Y-100732065D01*
X170835753Y-100732531D01*
X170701074Y-100732918D01*
X170550254Y-100733234D01*
X170382372Y-100733487D01*
X170196511Y-100733684D01*
X169991749Y-100733831D01*
X169767168Y-100733936D01*
X169521848Y-100734007D01*
X169254870Y-100734050D01*
X169216487Y-100734055D01*
X168951088Y-100734098D01*
X168707216Y-100734143D01*
X168483949Y-100734166D01*
X168280362Y-100734142D01*
X168095533Y-100734048D01*
X167928539Y-100733861D01*
X167778456Y-100733557D01*
X167644362Y-100733112D01*
X167525332Y-100732503D01*
X167420445Y-100731707D01*
X167328776Y-100730698D01*
X167249403Y-100729455D01*
X167181403Y-100727953D01*
X167123852Y-100726169D01*
X167075828Y-100724079D01*
X167036406Y-100721660D01*
X167004665Y-100718888D01*
X166979680Y-100715739D01*
X166960530Y-100712190D01*
X166946289Y-100708216D01*
X166936037Y-100703796D01*
X166928848Y-100698904D01*
X166923801Y-100693518D01*
X166919971Y-100687614D01*
X166916437Y-100681167D01*
X166912274Y-100674155D01*
X166911191Y-100672305D01*
X166908979Y-100666798D01*
X166906952Y-100658486D01*
X166905104Y-100646427D01*
X166903427Y-100629681D01*
X166901911Y-100607305D01*
X166900549Y-100578358D01*
X166899333Y-100541898D01*
X166898255Y-100496985D01*
X166897306Y-100442675D01*
X166896478Y-100378028D01*
X166895763Y-100302102D01*
X166895153Y-100213956D01*
X166895108Y-100205111D01*
X167186544Y-100205111D01*
X167190426Y-100206383D01*
X167213686Y-100208409D01*
X167256040Y-100210244D01*
X167315298Y-100211845D01*
X167389273Y-100213167D01*
X167475776Y-100214166D01*
X167572618Y-100214798D01*
X167677611Y-100215018D01*
X168375817Y-100215018D01*
X169530256Y-100215018D01*
X169529622Y-100138818D01*
X169530740Y-100096778D01*
X169536470Y-100060952D01*
X169549056Y-100023390D01*
X169570734Y-99975195D01*
X169573955Y-99968515D01*
X169599354Y-99918977D01*
X169626162Y-99870987D01*
X169649083Y-99834084D01*
X169653651Y-99827452D01*
X169675682Y-99796211D01*
X169707859Y-99751272D01*
X169748623Y-99694765D01*
X169796411Y-99628822D01*
X169849664Y-99555575D01*
X169906821Y-99477154D01*
X169966321Y-99395690D01*
X170026603Y-99313316D01*
X170086106Y-99232162D01*
X170143271Y-99154360D01*
X170196536Y-99082041D01*
X170244340Y-99017336D01*
X170285123Y-98962377D01*
X170317324Y-98919294D01*
X170339382Y-98890220D01*
X170349737Y-98877285D01*
X170354210Y-98872969D01*
X170358402Y-98870930D01*
X170361809Y-98873544D01*
X170364491Y-98882604D01*
X170366507Y-98899903D01*
X170367914Y-98927232D01*
X170368771Y-98966383D01*
X170369136Y-99019151D01*
X170369069Y-99087325D01*
X170368626Y-99172700D01*
X170367868Y-99277067D01*
X170366851Y-99402218D01*
X170366474Y-99446918D01*
X170365335Y-99568013D01*
X170364138Y-99669306D01*
X170362802Y-99752880D01*
X170361243Y-99820822D01*
X170359381Y-99875217D01*
X170357132Y-99918150D01*
X170354414Y-99951707D01*
X170351145Y-99977973D01*
X170347244Y-99999034D01*
X170342627Y-100016975D01*
X170334358Y-100043388D01*
X170310749Y-100105390D01*
X170284851Y-100158191D01*
X170259701Y-100195263D01*
X170258505Y-100196693D01*
X170256334Y-100201042D01*
X170258494Y-100204644D01*
X170266810Y-100207569D01*
X170283106Y-100209887D01*
X170309207Y-100211669D01*
X170346937Y-100212985D01*
X170398122Y-100213904D01*
X170464586Y-100214496D01*
X170548153Y-100214833D01*
X170650649Y-100214983D01*
X170773898Y-100215018D01*
X171305462Y-100215018D01*
X171266689Y-100157401D01*
X171260598Y-100148511D01*
X171250142Y-100133687D01*
X171240745Y-100120040D01*
X171232349Y-100106383D01*
X171224899Y-100091529D01*
X171218339Y-100074288D01*
X171212612Y-100053473D01*
X171207661Y-100027898D01*
X171203432Y-99996373D01*
X171199867Y-99957711D01*
X171196910Y-99910725D01*
X171194506Y-99854226D01*
X171192597Y-99787027D01*
X171191128Y-99707940D01*
X171190042Y-99615778D01*
X171189284Y-99509352D01*
X171188796Y-99387475D01*
X171188524Y-99248959D01*
X171188409Y-99092617D01*
X171188397Y-98917260D01*
X171188431Y-98721700D01*
X171188455Y-98504751D01*
X171188446Y-98382131D01*
X171188409Y-98177065D01*
X171188393Y-97992734D01*
X171188454Y-97827952D01*
X171188650Y-97681534D01*
X171189036Y-97552292D01*
X171189671Y-97439040D01*
X171190610Y-97340593D01*
X171191911Y-97255762D01*
X171193630Y-97183362D01*
X171195825Y-97122207D01*
X171198551Y-97071110D01*
X171201867Y-97028885D01*
X171205828Y-96994345D01*
X171210491Y-96966304D01*
X171215913Y-96943576D01*
X171222152Y-96924974D01*
X171229263Y-96909311D01*
X171237304Y-96895402D01*
X171246332Y-96882059D01*
X171256402Y-96868097D01*
X171267573Y-96852329D01*
X171307363Y-96794485D01*
X170247480Y-96794485D01*
X170285477Y-96857584D01*
X170300159Y-96882623D01*
X170314697Y-96910204D01*
X170326793Y-96938318D01*
X170336698Y-96969169D01*
X170344660Y-97004962D01*
X170350927Y-97047901D01*
X170355748Y-97100192D01*
X170359372Y-97164037D01*
X170362047Y-97241643D01*
X170364023Y-97335212D01*
X170365548Y-97446951D01*
X170366870Y-97579063D01*
X170367779Y-97699052D01*
X170368186Y-97815681D01*
X170367933Y-97911149D01*
X170367023Y-97985174D01*
X170365459Y-98037473D01*
X170363245Y-98067767D01*
X170360386Y-98075774D01*
X170357327Y-98072476D01*
X170339172Y-98051026D01*
X170309441Y-98014507D01*
X170269805Y-97965060D01*
X170221937Y-97904825D01*
X170167509Y-97835945D01*
X170108193Y-97760561D01*
X170045661Y-97680814D01*
X169981587Y-97598846D01*
X169917641Y-97516798D01*
X169855497Y-97436812D01*
X169796827Y-97361029D01*
X169743303Y-97291591D01*
X169696596Y-97230639D01*
X169658380Y-97180314D01*
X169630327Y-97142758D01*
X169614109Y-97120113D01*
X169568801Y-97047830D01*
X169528827Y-96968081D01*
X169507296Y-96899806D01*
X169503993Y-96842462D01*
X169509282Y-96794485D01*
X168377522Y-96794735D01*
X168417033Y-96825340D01*
X168426414Y-96832707D01*
X168489349Y-96887056D01*
X168558163Y-96954877D01*
X168634762Y-97038134D01*
X168721054Y-97138796D01*
X168738218Y-97159465D01*
X168778999Y-97209027D01*
X168828754Y-97269944D01*
X168886121Y-97340516D01*
X168949735Y-97419042D01*
X169018235Y-97503822D01*
X169090256Y-97593155D01*
X169164436Y-97685340D01*
X169179683Y-97704320D01*
X169239412Y-97778678D01*
X169313819Y-97871466D01*
X169386297Y-97962006D01*
X169455480Y-98048596D01*
X169520007Y-98129536D01*
X169578513Y-98203124D01*
X169629636Y-98267662D01*
X169672013Y-98321447D01*
X169704281Y-98362780D01*
X169725076Y-98389960D01*
X169733035Y-98401286D01*
X169731277Y-98405389D01*
X169718396Y-98425952D01*
X169694051Y-98462179D01*
X169659413Y-98512442D01*
X169615652Y-98575110D01*
X169563941Y-98648554D01*
X169505450Y-98731145D01*
X169441350Y-98821254D01*
X169372812Y-98917249D01*
X169301009Y-99017503D01*
X169227110Y-99120386D01*
X169152287Y-99224268D01*
X169077711Y-99327519D01*
X169004553Y-99428510D01*
X168933985Y-99525612D01*
X168867177Y-99617195D01*
X168805301Y-99701629D01*
X168749527Y-99777285D01*
X168701028Y-99842534D01*
X168660973Y-99895746D01*
X168630535Y-99935291D01*
X168610110Y-99960644D01*
X168564065Y-100014913D01*
X168513778Y-100071393D01*
X168466981Y-100121287D01*
X168375817Y-100215018D01*
X167677611Y-100215018D01*
X167746522Y-100214967D01*
X167844773Y-100214709D01*
X167934196Y-100214255D01*
X168012499Y-100213628D01*
X168077389Y-100212853D01*
X168126577Y-100211953D01*
X168157770Y-100210952D01*
X168168677Y-100209875D01*
X168167488Y-100206655D01*
X168157342Y-100189070D01*
X168140206Y-100162776D01*
X168131706Y-100150309D01*
X168122495Y-100136240D01*
X168114399Y-100121969D01*
X168107351Y-100106097D01*
X168101283Y-100087227D01*
X168096127Y-100063959D01*
X168091817Y-100034896D01*
X168088285Y-99998639D01*
X168085463Y-99953788D01*
X168083284Y-99898946D01*
X168081680Y-99832715D01*
X168080585Y-99753695D01*
X168079931Y-99660489D01*
X168079650Y-99551697D01*
X168079675Y-99425921D01*
X168079938Y-99281763D01*
X168080372Y-99117825D01*
X168080911Y-98932707D01*
X168081445Y-98753850D01*
X168081971Y-98594992D01*
X168082516Y-98455934D01*
X168083111Y-98335283D01*
X168083785Y-98231646D01*
X168084569Y-98143629D01*
X168085492Y-98069841D01*
X168086585Y-98008887D01*
X168087878Y-97959375D01*
X168089401Y-97919911D01*
X168091185Y-97889102D01*
X168093258Y-97865556D01*
X168095652Y-97847878D01*
X168098396Y-97834677D01*
X168101522Y-97824558D01*
X168105058Y-97816129D01*
X168108957Y-97807993D01*
X168128604Y-97771162D01*
X168147391Y-97741009D01*
X168148438Y-97739526D01*
X168162768Y-97717277D01*
X168168677Y-97704320D01*
X168167670Y-97703867D01*
X168150471Y-97702421D01*
X168113822Y-97701098D01*
X168060128Y-97699934D01*
X167991796Y-97698965D01*
X167911230Y-97698229D01*
X167820836Y-97697760D01*
X167723019Y-97697596D01*
X167277361Y-97697596D01*
X167274286Y-98874463D01*
X167271211Y-100051329D01*
X167244573Y-100110240D01*
X167232651Y-100134801D01*
X167215412Y-100165052D01*
X167202240Y-100182178D01*
X167194242Y-100190209D01*
X167186544Y-100205111D01*
X166895108Y-100205111D01*
X166894640Y-100112647D01*
X166894216Y-99997235D01*
X166893872Y-99866778D01*
X166893600Y-99720334D01*
X166893393Y-99556962D01*
X166893242Y-99375719D01*
X166893138Y-99175666D01*
X166893074Y-98955859D01*
X166893042Y-98715357D01*
X166893033Y-98453220D01*
X166893033Y-96261649D01*
X166931415Y-96223267D01*
X166958521Y-96199529D01*
X166985419Y-96187729D01*
X167021726Y-96184885D01*
X167073655Y-96184885D01*
X167073655Y-96272824D01*
X167075593Y-96322720D01*
X167094365Y-96433141D01*
X167131383Y-96534605D01*
X167184535Y-96625770D01*
X167251712Y-96705291D01*
X167330804Y-96771823D01*
X167419700Y-96824024D01*
X167516291Y-96860548D01*
X167618466Y-96880052D01*
X167724116Y-96881191D01*
X167831130Y-96862623D01*
X167937398Y-96823002D01*
X168034385Y-96765134D01*
X168119459Y-96690302D01*
X168188181Y-96602233D01*
X168239084Y-96503234D01*
X168270701Y-96395611D01*
X168281566Y-96281672D01*
X168281566Y-96184885D01*
X169901919Y-96184885D01*
X170113063Y-96184898D01*
X170317186Y-96184948D01*
X170500852Y-96185048D01*
X170665157Y-96185210D01*
X170811195Y-96185447D01*
X170940060Y-96185771D01*
X171052849Y-96186193D01*
X171150654Y-96186727D01*
X171234570Y-96187385D01*
X171305693Y-96188179D01*
X171365116Y-96189122D01*
X171413934Y-96190226D01*
X171453243Y-96191502D01*
X171484135Y-96192965D01*
X171507707Y-96194625D01*
X171525052Y-96196496D01*
X171537265Y-96198590D01*
X171545441Y-96200918D01*
X171550674Y-96203494D01*
X171556670Y-96207063D01*
X171563445Y-96210596D01*
X171569644Y-96214106D01*
X171575292Y-96218536D01*
X171580413Y-96224826D01*
X171585035Y-96233919D01*
X171589181Y-96246757D01*
X171592879Y-96264280D01*
X171596153Y-96287431D01*
X171599029Y-96317152D01*
X171601533Y-96354383D01*
X171603690Y-96400067D01*
X171605526Y-96455145D01*
X171607066Y-96520559D01*
X171608336Y-96597251D01*
X171609361Y-96686162D01*
X171610167Y-96788235D01*
X171610200Y-96794485D01*
X171610780Y-96904410D01*
G37*
D15*
%TO.C,S3*%
X164206256Y-88305188D02*
X163456256Y-88305188D01*
X159606256Y-88305188D02*
X160356256Y-88305188D01*
X159606256Y-88305188D02*
X159606256Y-79505188D01*
X164206256Y-79505188D02*
X164206256Y-88305188D01*
X164206256Y-79505188D02*
X163456256Y-79505188D01*
X159606256Y-79505188D02*
X160356256Y-79505188D01*
D10*
X159006256Y-85905188D02*
G75*
G02*
X158806256Y-85905188I-100000J0D01*
G01*
X158806256Y-85905188D02*
G75*
G02*
X159006256Y-85905188I100000J0D01*
G01*
D16*
%TO.C,R2*%
X150739974Y-107381974D02*
X150739974Y-106431974D01*
X150739974Y-101641974D02*
X150739974Y-102591974D01*
X151659974Y-106431974D02*
X149819974Y-106431974D01*
X149819974Y-102591974D01*
X151659974Y-102591974D01*
X151659974Y-106431974D01*
%TO.C,J1*%
X143307318Y-76847556D02*
X143307318Y-91547556D01*
X152507318Y-76847556D02*
X143307318Y-76847556D01*
X152507318Y-85647556D02*
X152507318Y-76847556D01*
X143107318Y-90697556D02*
X143107318Y-91747556D01*
X143307318Y-91547556D02*
X145907318Y-91547556D01*
X149807318Y-91547556D02*
X152507318Y-91547556D01*
X152507318Y-91547556D02*
X152507318Y-89647556D01*
X144157318Y-91747556D02*
X143107318Y-91747556D01*
%TO.C,R1*%
X145811974Y-107381974D02*
X145811974Y-106431974D01*
X145811974Y-101641974D02*
X145811974Y-102591974D01*
X146731974Y-106431974D02*
X144891974Y-106431974D01*
X144891974Y-102591974D01*
X146731974Y-102591974D01*
X146731974Y-106431974D01*
%TD*%
M02*
