%TF.GenerationSoftware,KiCad,Pcbnew,9.0.5*%
%TF.CreationDate,2025-11-01T23:40:48+06:00*%
%TF.ProjectId,led_matrix_array,6c65645f-6d61-4747-9269-785f61727261,1.0*%
%TF.SameCoordinates,Original*%
%TF.FileFunction,Plated,1,2,PTH,Mixed*%
%TF.FilePolarity,Positive*%
%FSLAX46Y46*%
G04 Gerber Fmt 4.6, Leading zero omitted, Abs format (unit mm)*
G04 Created by KiCad (PCBNEW 9.0.5) date 2025-11-01 23:40:48*
%MOMM*%
%LPD*%
G01*
G04 APERTURE LIST*
%TA.AperFunction,ViaDrill*%
%ADD10C,0.300000*%
%TD*%
%TA.AperFunction,ComponentDrill*%
%ADD11C,0.700000*%
%TD*%
G04 aperture for slot hole*
%TA.AperFunction,ComponentDrill*%
%ADD12C,0.700000*%
%TD*%
%TA.AperFunction,ComponentDrill*%
%ADD13C,0.762000*%
%TD*%
%TA.AperFunction,ComponentDrill*%
%ADD14C,0.800000*%
%TD*%
%TA.AperFunction,ComponentDrill*%
%ADD15C,1.000000*%
%TD*%
G04 aperture for slot hole*
%TA.AperFunction,ComponentDrill*%
%ADD16C,1.000000*%
%TD*%
G04 APERTURE END LIST*
D10*
X116586000Y-113284000D03*
X116668867Y-115652867D03*
X117094000Y-111506000D03*
X117659687Y-110940313D03*
X117662059Y-110094155D03*
X119380000Y-113792000D03*
X119888000Y-113030000D03*
X120070614Y-112251120D03*
X140672735Y-120439265D03*
X140716000Y-118618000D03*
X145034000Y-112390000D03*
X145034000Y-114392000D03*
X149098000Y-112390000D03*
X149098000Y-114554000D03*
D11*
%TO.C,R1*%
X145811974Y-100701974D03*
X145811974Y-108321974D03*
%TO.C,R2*%
X150739974Y-100701974D03*
X150739974Y-108321974D03*
D12*
%TO.C,S3*%
X162306256Y-79705188D02*
X161506256Y-79705188D01*
X162306256Y-88105188D02*
X161506256Y-88105188D01*
D13*
%TO.C,U1*%
X121158000Y-80518000D03*
X121158000Y-83058000D03*
X121158000Y-85598000D03*
X121158000Y-88138000D03*
X121158000Y-90678000D03*
X121158000Y-93218000D03*
X121158000Y-95758000D03*
X121158000Y-98298000D03*
X121158000Y-100838000D03*
X121158000Y-103378000D03*
X121158000Y-105918000D03*
X121158000Y-108458000D03*
X122428000Y-77978000D03*
X123698000Y-89408000D03*
X123698000Y-91948000D03*
X123698000Y-108458000D03*
X124968000Y-77978000D03*
X126238000Y-108458000D03*
X127508000Y-77978000D03*
X128778000Y-108458000D03*
X130048000Y-77978000D03*
X132588000Y-77978000D03*
X135128000Y-77978000D03*
X136398000Y-80518000D03*
X136398000Y-83058000D03*
X136398000Y-85598000D03*
X136398000Y-88138000D03*
X136398000Y-90678000D03*
X136398000Y-93218000D03*
X136398000Y-95758000D03*
X136398000Y-98298000D03*
X136398000Y-100838000D03*
X136398000Y-103378000D03*
X136398000Y-105918000D03*
X136398000Y-108458000D03*
D14*
%TO.C,S3*%
X161906256Y-81905188D03*
X161906256Y-83905188D03*
X161906256Y-85905188D03*
D15*
%TO.C,J2*%
X87475997Y-117716941D03*
%TO.C,J3*%
X87489544Y-71745974D03*
%TO.C,J2*%
X90015997Y-117716941D03*
%TO.C,J3*%
X90029544Y-71745974D03*
%TO.C,J2*%
X92555997Y-117716941D03*
%TO.C,J3*%
X92569544Y-71745974D03*
%TO.C,J2*%
X95095997Y-117716941D03*
%TO.C,J3*%
X95109544Y-71745974D03*
%TO.C,J2*%
X97635997Y-117716941D03*
%TO.C,J3*%
X97649544Y-71745974D03*
%TO.C,J5*%
X119993552Y-71745974D03*
%TO.C,J4*%
X119993552Y-117719973D03*
%TO.C,J5*%
X122533552Y-71745974D03*
%TO.C,J4*%
X122533552Y-117719973D03*
%TO.C,J5*%
X125073552Y-71745974D03*
%TO.C,J4*%
X125073552Y-117719973D03*
%TO.C,J5*%
X127613552Y-71745974D03*
%TO.C,J4*%
X127613552Y-117719973D03*
%TO.C,J5*%
X130153552Y-71745974D03*
%TO.C,J4*%
X130153552Y-117719973D03*
%TO.C,S1*%
X133058876Y-123347253D03*
X133058876Y-127847253D03*
X139558876Y-123347253D03*
X139558876Y-127847253D03*
%TO.C,S2*%
X142952363Y-123318450D03*
X142952363Y-127818450D03*
D16*
%TO.C,J1*%
X146907318Y-84647556D02*
X148907318Y-84647556D01*
X146907318Y-90647556D02*
X148907318Y-90647556D01*
D15*
%TO.C,S2*%
X149452363Y-123318450D03*
X149452363Y-127818450D03*
%TO.C,J7*%
X152503591Y-71745974D03*
%TO.C,J6*%
X152503591Y-117676827D03*
D16*
%TO.C,J1*%
X152607318Y-88647556D02*
X152607318Y-86647556D01*
D15*
%TO.C,J7*%
X155043591Y-71745974D03*
%TO.C,J6*%
X155043591Y-117676827D03*
%TO.C,J7*%
X157583591Y-71745974D03*
%TO.C,J6*%
X157583591Y-117676827D03*
%TO.C,J7*%
X160123591Y-71745974D03*
%TO.C,J6*%
X160123591Y-117676827D03*
%TO.C,J7*%
X162663591Y-71745974D03*
%TO.C,J6*%
X162663591Y-117676827D03*
%TO.C,J9*%
X185014332Y-71745974D03*
%TO.C,J8*%
X185014332Y-117704332D03*
%TO.C,J9*%
X187554332Y-71745974D03*
%TO.C,J8*%
X187554332Y-117704332D03*
%TO.C,J9*%
X190094332Y-71745974D03*
%TO.C,J8*%
X190094332Y-117704332D03*
%TO.C,J9*%
X192634332Y-71745974D03*
%TO.C,J8*%
X192634332Y-117704332D03*
%TO.C,J9*%
X195174332Y-71745974D03*
%TO.C,J8*%
X195174332Y-117704332D03*
M02*
