%TF.GenerationSoftware,KiCad,Pcbnew,9.0.5*%
%TF.CreationDate,2025-11-01T23:40:51+06:00*%
%TF.ProjectId,led_matrix_array,6c65645f-6d61-4747-9269-785f61727261,1.0*%
%TF.SameCoordinates,Original*%
%TF.FileFunction,Profile,NP*%
%FSLAX46Y46*%
G04 Gerber Fmt 4.6, Leading zero omitted, Abs format (unit mm)*
G04 Created by KiCad (PCBNEW 9.0.5) date 2025-11-01 23:40:51*
%MOMM*%
%LPD*%
G01*
G04 APERTURE LIST*
%TA.AperFunction,Profile*%
%ADD10C,0.050000*%
%TD*%
G04 APERTURE END LIST*
D10*
X85715974Y-74793974D02*
X108067974Y-74793974D01*
X109337974Y-76063974D02*
X109337974Y-113401974D01*
X196967974Y-68697974D02*
G75*
G02*
X198237974Y-69967974I0J-1270000D01*
G01*
X198237974Y-73523974D02*
G75*
G02*
X196967974Y-74793974I-1270000J0D01*
G01*
X173091974Y-76063974D02*
G75*
G02*
X174361974Y-74793974I1270000J0D01*
G01*
X174361974Y-114671974D02*
G75*
G02*
X173091974Y-113401974I0J1270000D01*
G01*
X196967974Y-114671974D02*
G75*
G02*
X198237974Y-115941974I0J-1270000D01*
G01*
X198237974Y-119497974D02*
G75*
G02*
X196967974Y-120767974I-1270000J0D01*
G01*
X151755974Y-122037974D02*
G75*
G02*
X153025974Y-120767974I1270000J0D01*
G01*
X151755974Y-128895974D02*
G75*
G02*
X150485974Y-130165974I-1270000J0D01*
G01*
X131943974Y-130165974D02*
G75*
G02*
X130673974Y-128895974I0J1270000D01*
G01*
X129403974Y-120767974D02*
G75*
G02*
X130673974Y-122037974I0J-1270000D01*
G01*
X85715974Y-120767974D02*
G75*
G02*
X84445974Y-119497974I0J1270000D01*
G01*
X84445974Y-115941974D02*
G75*
G02*
X85715974Y-114671974I1270000J0D01*
G01*
X109337974Y-113401974D02*
G75*
G02*
X108067974Y-114671974I-1270000J0D01*
G01*
X108067974Y-74793974D02*
G75*
G02*
X109337974Y-76063974I0J-1270000D01*
G01*
X85715974Y-74793974D02*
G75*
G02*
X84445974Y-73523974I0J1270000D01*
G01*
X84445974Y-69967974D02*
G75*
G02*
X85715974Y-68697974I1270000J0D01*
G01*
X151755974Y-128895974D02*
X151755974Y-122037974D01*
X196967974Y-114671974D02*
X174361974Y-114671974D01*
X153025974Y-120767974D02*
X196967974Y-120767974D01*
X174361974Y-74793974D02*
X196967974Y-74793974D01*
X173091974Y-113401974D02*
X173091974Y-76063974D01*
X198237974Y-119497974D02*
X198237974Y-115941974D01*
X196967974Y-68697974D02*
X85715974Y-68697974D01*
X198237974Y-73523974D02*
X198237974Y-69967974D01*
X131943974Y-130165974D02*
X150485974Y-130165974D01*
X130673974Y-122037974D02*
X130673974Y-128895974D01*
X85715974Y-120767974D02*
X129403974Y-120767974D01*
X84445974Y-115941974D02*
X84445974Y-119497974D01*
X108067974Y-114671974D02*
X85715974Y-114671974D01*
X84445974Y-69967974D02*
X84445974Y-73523974D01*
M02*
