%TF.GenerationSoftware,KiCad,Pcbnew,9.0.5*%
%TF.CreationDate,2025-11-01T23:40:51+06:00*%
%TF.ProjectId,led_matrix_array,6c65645f-6d61-4747-9269-785f61727261,1.0*%
%TF.SameCoordinates,Original*%
%TF.FileFunction,Soldermask,Top*%
%TF.FilePolarity,Negative*%
%FSLAX46Y46*%
G04 Gerber Fmt 4.6, Leading zero omitted, Abs format (unit mm)*
G04 Created by KiCad (PCBNEW 9.0.5) date 2025-11-01 23:40:51*
%MOMM*%
%LPD*%
G01*
G04 APERTURE LIST*
G04 Aperture macros list*
%AMRoundRect*
0 Rectangle with rounded corners*
0 $1 Rounding radius*
0 $2 $3 $4 $5 $6 $7 $8 $9 X,Y pos of 4 corners*
0 Add a 4 corners polygon primitive as box body*
4,1,4,$2,$3,$4,$5,$6,$7,$8,$9,$2,$3,0*
0 Add four circle primitives for the rounded corners*
1,1,$1+$1,$2,$3*
1,1,$1+$1,$4,$5*
1,1,$1+$1,$6,$7*
1,1,$1+$1,$8,$9*
0 Add four rect primitives between the rounded corners*
20,1,$1+$1,$2,$3,$4,$5,0*
20,1,$1+$1,$4,$5,$6,$7,0*
20,1,$1+$1,$6,$7,$8,$9,0*
20,1,$1+$1,$8,$9,$2,$3,0*%
G04 Aperture macros list end*
%ADD10C,1.524000*%
%ADD11C,2.500000*%
%ADD12R,1.700000X1.700000*%
%ADD13C,1.700000*%
%ADD14R,1.508000X1.508000*%
%ADD15C,1.508000*%
%ADD16R,1.308000X1.308000*%
%ADD17C,1.308000*%
%ADD18O,2.460000X1.230000*%
%ADD19C,1.400000*%
%ADD20R,3.500000X3.500000*%
%ADD21RoundRect,0.750000X-1.000000X0.750000X-1.000000X-0.750000X1.000000X-0.750000X1.000000X0.750000X0*%
%ADD22RoundRect,0.875000X-0.875000X0.875000X-0.875000X-0.875000X0.875000X-0.875000X0.875000X0.875000X0*%
G04 APERTURE END LIST*
D10*
%TO.C,U1*%
X123698000Y-89408000D03*
X123698000Y-91948000D03*
X135128000Y-77978000D03*
X132588000Y-77978000D03*
X130048000Y-77978000D03*
X127508000Y-77978000D03*
X124968000Y-77978000D03*
X122428000Y-77978000D03*
X121158000Y-80518000D03*
X121158000Y-83058000D03*
X121158000Y-85598000D03*
X121158000Y-88138000D03*
X121158000Y-90678000D03*
X121158000Y-93218000D03*
X121158000Y-95758000D03*
X121158000Y-98298000D03*
X121158000Y-100838000D03*
X121158000Y-103378000D03*
X121158000Y-105918000D03*
X121158000Y-108458000D03*
X123698000Y-108458000D03*
X126238000Y-108458000D03*
X128778000Y-108458000D03*
X136398000Y-108458000D03*
X136398000Y-105918000D03*
X136398000Y-103378000D03*
X136398000Y-100838000D03*
X136398000Y-98298000D03*
X136398000Y-95758000D03*
X136398000Y-93218000D03*
X136398000Y-90678000D03*
X136398000Y-88138000D03*
X136398000Y-85598000D03*
X136398000Y-83058000D03*
X136398000Y-80518000D03*
%TD*%
D11*
%TO.C,H2*%
X112881598Y-113140468D03*
%TD*%
%TO.C,H4*%
X169276341Y-113140468D03*
%TD*%
D12*
%TO.C,J7*%
X162663591Y-71745974D03*
D13*
X160123591Y-71745974D03*
X157583591Y-71745974D03*
X155043591Y-71745974D03*
X152503591Y-71745974D03*
%TD*%
D12*
%TO.C,J8*%
X195174332Y-117704332D03*
D13*
X192634332Y-117704332D03*
X190094332Y-117704332D03*
X187554332Y-117704332D03*
X185014332Y-117704332D03*
%TD*%
D11*
%TO.C,H1*%
X112888996Y-76306384D03*
%TD*%
D12*
%TO.C,J2*%
X97635997Y-117716941D03*
D13*
X95095997Y-117716941D03*
X92555997Y-117716941D03*
X90015997Y-117716941D03*
X87475997Y-117716941D03*
%TD*%
D14*
%TO.C,S1*%
X133058876Y-123347253D03*
D15*
X139558876Y-123347253D03*
X133058876Y-127847253D03*
X139558876Y-127847253D03*
%TD*%
D12*
%TO.C,J4*%
X130153552Y-117719973D03*
D13*
X127613552Y-117719973D03*
X125073552Y-117719973D03*
X122533552Y-117719973D03*
X119993552Y-117719973D03*
%TD*%
D16*
%TO.C,S3*%
X161906256Y-85905188D03*
D17*
X161906256Y-83905188D03*
X161906256Y-81905188D03*
D18*
X161906256Y-88105188D03*
X161906256Y-79705188D03*
%TD*%
D11*
%TO.C,H3*%
X169276341Y-77323697D03*
%TD*%
D19*
%TO.C,R2*%
X150739974Y-108321974D03*
X150739974Y-100701974D03*
%TD*%
D12*
%TO.C,J5*%
X130153552Y-71745974D03*
D13*
X127613552Y-71745974D03*
X125073552Y-71745974D03*
X122533552Y-71745974D03*
X119993552Y-71745974D03*
%TD*%
D14*
%TO.C,S2*%
X142952363Y-123318450D03*
D15*
X149452363Y-123318450D03*
X142952363Y-127818450D03*
X149452363Y-127818450D03*
%TD*%
D12*
%TO.C,J9*%
X195174332Y-71745974D03*
D13*
X192634332Y-71745974D03*
X190094332Y-71745974D03*
X187554332Y-71745974D03*
X185014332Y-71745974D03*
%TD*%
D20*
%TO.C,J1*%
X147907318Y-90647556D03*
D21*
X147907318Y-84647556D03*
D22*
X152607318Y-87647556D03*
%TD*%
D12*
%TO.C,J3*%
X97649544Y-71745974D03*
D13*
X95109544Y-71745974D03*
X92569544Y-71745974D03*
X90029544Y-71745974D03*
X87489544Y-71745974D03*
%TD*%
D12*
%TO.C,J6*%
X162663591Y-117676827D03*
D13*
X160123591Y-117676827D03*
X157583591Y-117676827D03*
X155043591Y-117676827D03*
X152503591Y-117676827D03*
%TD*%
D19*
%TO.C,R1*%
X145811974Y-108321974D03*
X145811974Y-100701974D03*
%TD*%
M02*
