%TF.GenerationSoftware,KiCad,Pcbnew,9.0.5*%
%TF.CreationDate,2025-11-03T15:57:11+06:00*%
%TF.ProjectId,mcu_datalogger,6d63755f-6461-4746-916c-6f676765722e,1*%
%TF.SameCoordinates,Original*%
%TF.FileFunction,Plated,1,2,PTH,Drill*%
%TF.FilePolarity,Positive*%
%FSLAX46Y46*%
G04 Gerber Fmt 4.6, Leading zero omitted, Abs format (unit mm)*
G04 Created by KiCad (PCBNEW 9.0.5) date 2025-11-03 15:57:11*
%MOMM*%
%LPD*%
G01*
G04 APERTURE LIST*
%TA.AperFunction,ViaDrill*%
%ADD10C,0.300000*%
%TD*%
%TA.AperFunction,ComponentDrill*%
%ADD11C,1.000000*%
%TD*%
G04 APERTURE END LIST*
D10*
X105156000Y-75438000D03*
X107950000Y-86106000D03*
X108026686Y-89446686D03*
X110998000Y-81788000D03*
X111543000Y-89662000D03*
X112691269Y-82719269D03*
X113030000Y-89662000D03*
X116198293Y-86589513D03*
X116494000Y-88900000D03*
X116840000Y-92202000D03*
X116976000Y-93811819D03*
X117109000Y-85896941D03*
X117510000Y-84074000D03*
X117602000Y-78740000D03*
X119512000Y-87884000D03*
X120488000Y-93255000D03*
X120650000Y-87122000D03*
X123028000Y-80264000D03*
X123695071Y-80864000D03*
X123952000Y-89754000D03*
X124460000Y-84582000D03*
X124472165Y-83020435D03*
X124695071Y-77308000D03*
X125895071Y-80590775D03*
X126238000Y-76708000D03*
X126441200Y-82880200D03*
X127496070Y-81743507D03*
X127675000Y-76952472D03*
X128778000Y-88554000D03*
X128955800Y-78536800D03*
X129194896Y-87871211D03*
X130665893Y-86504108D03*
X130810000Y-90653825D03*
X130900000Y-81026000D03*
X131496998Y-78526369D03*
X131622800Y-80111600D03*
X134640657Y-84856658D03*
X135395847Y-88669153D03*
X135890000Y-81626000D03*
X135951313Y-83546001D03*
X136652000Y-87376000D03*
X136869000Y-91948000D03*
X137266648Y-91253825D03*
D11*
%TO.C,BT1*%
X104775000Y-78105000D03*
X104775000Y-80645000D03*
%TO.C,J1*%
X106680000Y-97155000D03*
X109220000Y-97155000D03*
X111760000Y-97155000D03*
X114300000Y-97155000D03*
X116840000Y-97155000D03*
X119380000Y-97155000D03*
X121920000Y-97155000D03*
X124460000Y-97155000D03*
X127000000Y-97155000D03*
%TO.C,J3*%
X132715000Y-97155000D03*
X135255000Y-97155000D03*
X137795000Y-97155000D03*
X140335000Y-97155000D03*
%TO.C,J4*%
X142875000Y-78105000D03*
X142875000Y-80645000D03*
X142875000Y-83185000D03*
X145415000Y-78105000D03*
X145415000Y-80645000D03*
X145415000Y-83185000D03*
%TO.C,J2*%
X145415000Y-86995000D03*
X145415000Y-89535000D03*
X145415000Y-92075000D03*
X145415000Y-94615000D03*
M02*
