%TF.GenerationSoftware,KiCad,Pcbnew,9.0.5*%
%TF.CreationDate,2025-11-03T15:57:16+06:00*%
%TF.ProjectId,mcu_datalogger,6d63755f-6461-4746-916c-6f676765722e,1*%
%TF.SameCoordinates,Original*%
%TF.FileFunction,Soldermask,Top*%
%TF.FilePolarity,Negative*%
%FSLAX46Y46*%
G04 Gerber Fmt 4.6, Leading zero omitted, Abs format (unit mm)*
G04 Created by KiCad (PCBNEW 9.0.5) date 2025-11-03 15:57:16*
%MOMM*%
%LPD*%
G01*
G04 APERTURE LIST*
G04 Aperture macros list*
%AMRoundRect*
0 Rectangle with rounded corners*
0 $1 Rounding radius*
0 $2 $3 $4 $5 $6 $7 $8 $9 X,Y pos of 4 corners*
0 Add a 4 corners polygon primitive as box body*
4,1,4,$2,$3,$4,$5,$6,$7,$8,$9,$2,$3,0*
0 Add four circle primitives for the rounded corners*
1,1,$1+$1,$2,$3*
1,1,$1+$1,$4,$5*
1,1,$1+$1,$6,$7*
1,1,$1+$1,$8,$9*
0 Add four rect primitives between the rounded corners*
20,1,$1+$1,$2,$3,$4,$5,0*
20,1,$1+$1,$4,$5,$6,$7,0*
20,1,$1+$1,$6,$7,$8,$9,0*
20,1,$1+$1,$8,$9,$2,$3,0*%
G04 Aperture macros list end*
%ADD10C,0.100000*%
%ADD11C,0.150000*%
%ADD12C,0.300000*%
%ADD13C,0.400000*%
%ADD14RoundRect,0.099250X-0.987750X-0.297750X0.987750X-0.297750X0.987750X0.297750X-0.987750X0.297750X0*%
%ADD15RoundRect,0.250000X-0.250000X-0.475000X0.250000X-0.475000X0.250000X0.475000X-0.250000X0.475000X0*%
%ADD16RoundRect,0.250000X0.250000X0.475000X-0.250000X0.475000X-0.250000X-0.475000X0.250000X-0.475000X0*%
%ADD17R,1.700000X1.700000*%
%ADD18C,1.700000*%
%ADD19RoundRect,0.250000X-0.262500X-0.450000X0.262500X-0.450000X0.262500X0.450000X-0.262500X0.450000X0*%
%ADD20C,2.100000*%
%ADD21RoundRect,0.250000X0.262500X0.450000X-0.262500X0.450000X-0.262500X-0.450000X0.262500X-0.450000X0*%
%ADD22RoundRect,0.162500X-0.650000X-0.162500X0.650000X-0.162500X0.650000X0.162500X-0.650000X0.162500X0*%
%ADD23RoundRect,0.250001X0.949999X-1.499999X0.949999X1.499999X-0.949999X1.499999X-0.949999X-1.499999X0*%
%ADD24RoundRect,0.250001X1.499999X0.949999X-1.499999X0.949999X-1.499999X-0.949999X1.499999X-0.949999X0*%
%ADD25RoundRect,0.243750X-0.243750X-0.456250X0.243750X-0.456250X0.243750X0.456250X-0.243750X0.456250X0*%
%ADD26RoundRect,0.094250X-0.742750X-0.282750X0.742750X-0.282750X0.742750X0.282750X-0.742750X0.282750X0*%
%ADD27RoundRect,0.094250X-0.282750X-0.742750X0.282750X-0.742750X0.282750X0.742750X-0.282750X0.742750X0*%
G04 APERTURE END LIST*
D10*
D11*
X177002200Y-166007200D02*
X285002200Y-166007200D01*
X285002200Y-198007200D01*
X177002200Y-198007200D01*
X177002200Y-166007200D01*
D10*
D11*
X10000000Y-10000000D02*
X287002200Y-10000000D01*
X287002200Y-200007200D01*
X10000000Y-200007200D01*
X10000000Y-10000000D01*
D10*
D11*
X12000000Y-12000000D02*
X285002200Y-12000000D01*
X285002200Y-198007200D01*
X12000000Y-198007200D01*
X12000000Y-12000000D01*
D10*
D11*
X60000000Y-12000000D02*
X60000000Y-10000000D01*
D10*
D11*
X110000000Y-12000000D02*
X110000000Y-10000000D01*
D10*
D11*
X160000000Y-12000000D02*
X160000000Y-10000000D01*
D10*
D11*
X210000000Y-12000000D02*
X210000000Y-10000000D01*
D10*
D11*
X260000000Y-12000000D02*
X260000000Y-10000000D01*
D10*
D11*
X36089160Y-11593604D02*
X35346303Y-11593604D01*
X35717731Y-11593604D02*
X35717731Y-10293604D01*
X35717731Y-10293604D02*
X35593922Y-10479319D01*
X35593922Y-10479319D02*
X35470112Y-10603128D01*
X35470112Y-10603128D02*
X35346303Y-10665033D01*
D10*
D11*
X85346303Y-10417414D02*
X85408207Y-10355509D01*
X85408207Y-10355509D02*
X85532017Y-10293604D01*
X85532017Y-10293604D02*
X85841541Y-10293604D01*
X85841541Y-10293604D02*
X85965350Y-10355509D01*
X85965350Y-10355509D02*
X86027255Y-10417414D01*
X86027255Y-10417414D02*
X86089160Y-10541223D01*
X86089160Y-10541223D02*
X86089160Y-10665033D01*
X86089160Y-10665033D02*
X86027255Y-10850747D01*
X86027255Y-10850747D02*
X85284398Y-11593604D01*
X85284398Y-11593604D02*
X86089160Y-11593604D01*
D10*
D11*
X135284398Y-10293604D02*
X136089160Y-10293604D01*
X136089160Y-10293604D02*
X135655826Y-10788842D01*
X135655826Y-10788842D02*
X135841541Y-10788842D01*
X135841541Y-10788842D02*
X135965350Y-10850747D01*
X135965350Y-10850747D02*
X136027255Y-10912652D01*
X136027255Y-10912652D02*
X136089160Y-11036461D01*
X136089160Y-11036461D02*
X136089160Y-11345985D01*
X136089160Y-11345985D02*
X136027255Y-11469795D01*
X136027255Y-11469795D02*
X135965350Y-11531700D01*
X135965350Y-11531700D02*
X135841541Y-11593604D01*
X135841541Y-11593604D02*
X135470112Y-11593604D01*
X135470112Y-11593604D02*
X135346303Y-11531700D01*
X135346303Y-11531700D02*
X135284398Y-11469795D01*
D10*
D11*
X185965350Y-10726938D02*
X185965350Y-11593604D01*
X185655826Y-10231700D02*
X185346303Y-11160271D01*
X185346303Y-11160271D02*
X186151064Y-11160271D01*
D10*
D11*
X236027255Y-10293604D02*
X235408207Y-10293604D01*
X235408207Y-10293604D02*
X235346303Y-10912652D01*
X235346303Y-10912652D02*
X235408207Y-10850747D01*
X235408207Y-10850747D02*
X235532017Y-10788842D01*
X235532017Y-10788842D02*
X235841541Y-10788842D01*
X235841541Y-10788842D02*
X235965350Y-10850747D01*
X235965350Y-10850747D02*
X236027255Y-10912652D01*
X236027255Y-10912652D02*
X236089160Y-11036461D01*
X236089160Y-11036461D02*
X236089160Y-11345985D01*
X236089160Y-11345985D02*
X236027255Y-11469795D01*
X236027255Y-11469795D02*
X235965350Y-11531700D01*
X235965350Y-11531700D02*
X235841541Y-11593604D01*
X235841541Y-11593604D02*
X235532017Y-11593604D01*
X235532017Y-11593604D02*
X235408207Y-11531700D01*
X235408207Y-11531700D02*
X235346303Y-11469795D01*
D10*
D11*
X285965350Y-10293604D02*
X285717731Y-10293604D01*
X285717731Y-10293604D02*
X285593922Y-10355509D01*
X285593922Y-10355509D02*
X285532017Y-10417414D01*
X285532017Y-10417414D02*
X285408207Y-10603128D01*
X285408207Y-10603128D02*
X285346303Y-10850747D01*
X285346303Y-10850747D02*
X285346303Y-11345985D01*
X285346303Y-11345985D02*
X285408207Y-11469795D01*
X285408207Y-11469795D02*
X285470112Y-11531700D01*
X285470112Y-11531700D02*
X285593922Y-11593604D01*
X285593922Y-11593604D02*
X285841541Y-11593604D01*
X285841541Y-11593604D02*
X285965350Y-11531700D01*
X285965350Y-11531700D02*
X286027255Y-11469795D01*
X286027255Y-11469795D02*
X286089160Y-11345985D01*
X286089160Y-11345985D02*
X286089160Y-11036461D01*
X286089160Y-11036461D02*
X286027255Y-10912652D01*
X286027255Y-10912652D02*
X285965350Y-10850747D01*
X285965350Y-10850747D02*
X285841541Y-10788842D01*
X285841541Y-10788842D02*
X285593922Y-10788842D01*
X285593922Y-10788842D02*
X285470112Y-10850747D01*
X285470112Y-10850747D02*
X285408207Y-10912652D01*
X285408207Y-10912652D02*
X285346303Y-11036461D01*
D10*
D11*
X60000000Y-198007200D02*
X60000000Y-200007200D01*
D10*
D11*
X110000000Y-198007200D02*
X110000000Y-200007200D01*
D10*
D11*
X160000000Y-198007200D02*
X160000000Y-200007200D01*
D10*
D11*
X210000000Y-198007200D02*
X210000000Y-200007200D01*
D10*
D11*
X260000000Y-198007200D02*
X260000000Y-200007200D01*
D10*
D11*
X36089160Y-199600804D02*
X35346303Y-199600804D01*
X35717731Y-199600804D02*
X35717731Y-198300804D01*
X35717731Y-198300804D02*
X35593922Y-198486519D01*
X35593922Y-198486519D02*
X35470112Y-198610328D01*
X35470112Y-198610328D02*
X35346303Y-198672233D01*
D10*
D11*
X85346303Y-198424614D02*
X85408207Y-198362709D01*
X85408207Y-198362709D02*
X85532017Y-198300804D01*
X85532017Y-198300804D02*
X85841541Y-198300804D01*
X85841541Y-198300804D02*
X85965350Y-198362709D01*
X85965350Y-198362709D02*
X86027255Y-198424614D01*
X86027255Y-198424614D02*
X86089160Y-198548423D01*
X86089160Y-198548423D02*
X86089160Y-198672233D01*
X86089160Y-198672233D02*
X86027255Y-198857947D01*
X86027255Y-198857947D02*
X85284398Y-199600804D01*
X85284398Y-199600804D02*
X86089160Y-199600804D01*
D10*
D11*
X135284398Y-198300804D02*
X136089160Y-198300804D01*
X136089160Y-198300804D02*
X135655826Y-198796042D01*
X135655826Y-198796042D02*
X135841541Y-198796042D01*
X135841541Y-198796042D02*
X135965350Y-198857947D01*
X135965350Y-198857947D02*
X136027255Y-198919852D01*
X136027255Y-198919852D02*
X136089160Y-199043661D01*
X136089160Y-199043661D02*
X136089160Y-199353185D01*
X136089160Y-199353185D02*
X136027255Y-199476995D01*
X136027255Y-199476995D02*
X135965350Y-199538900D01*
X135965350Y-199538900D02*
X135841541Y-199600804D01*
X135841541Y-199600804D02*
X135470112Y-199600804D01*
X135470112Y-199600804D02*
X135346303Y-199538900D01*
X135346303Y-199538900D02*
X135284398Y-199476995D01*
D10*
D11*
X185965350Y-198734138D02*
X185965350Y-199600804D01*
X185655826Y-198238900D02*
X185346303Y-199167471D01*
X185346303Y-199167471D02*
X186151064Y-199167471D01*
D10*
D11*
X236027255Y-198300804D02*
X235408207Y-198300804D01*
X235408207Y-198300804D02*
X235346303Y-198919852D01*
X235346303Y-198919852D02*
X235408207Y-198857947D01*
X235408207Y-198857947D02*
X235532017Y-198796042D01*
X235532017Y-198796042D02*
X235841541Y-198796042D01*
X235841541Y-198796042D02*
X235965350Y-198857947D01*
X235965350Y-198857947D02*
X236027255Y-198919852D01*
X236027255Y-198919852D02*
X236089160Y-199043661D01*
X236089160Y-199043661D02*
X236089160Y-199353185D01*
X236089160Y-199353185D02*
X236027255Y-199476995D01*
X236027255Y-199476995D02*
X235965350Y-199538900D01*
X235965350Y-199538900D02*
X235841541Y-199600804D01*
X235841541Y-199600804D02*
X235532017Y-199600804D01*
X235532017Y-199600804D02*
X235408207Y-199538900D01*
X235408207Y-199538900D02*
X235346303Y-199476995D01*
D10*
D11*
X285965350Y-198300804D02*
X285717731Y-198300804D01*
X285717731Y-198300804D02*
X285593922Y-198362709D01*
X285593922Y-198362709D02*
X285532017Y-198424614D01*
X285532017Y-198424614D02*
X285408207Y-198610328D01*
X285408207Y-198610328D02*
X285346303Y-198857947D01*
X285346303Y-198857947D02*
X285346303Y-199353185D01*
X285346303Y-199353185D02*
X285408207Y-199476995D01*
X285408207Y-199476995D02*
X285470112Y-199538900D01*
X285470112Y-199538900D02*
X285593922Y-199600804D01*
X285593922Y-199600804D02*
X285841541Y-199600804D01*
X285841541Y-199600804D02*
X285965350Y-199538900D01*
X285965350Y-199538900D02*
X286027255Y-199476995D01*
X286027255Y-199476995D02*
X286089160Y-199353185D01*
X286089160Y-199353185D02*
X286089160Y-199043661D01*
X286089160Y-199043661D02*
X286027255Y-198919852D01*
X286027255Y-198919852D02*
X285965350Y-198857947D01*
X285965350Y-198857947D02*
X285841541Y-198796042D01*
X285841541Y-198796042D02*
X285593922Y-198796042D01*
X285593922Y-198796042D02*
X285470112Y-198857947D01*
X285470112Y-198857947D02*
X285408207Y-198919852D01*
X285408207Y-198919852D02*
X285346303Y-199043661D01*
D10*
D11*
X10000000Y-60000000D02*
X12000000Y-60000000D01*
D10*
D11*
X10000000Y-110000000D02*
X12000000Y-110000000D01*
D10*
D11*
X10000000Y-160000000D02*
X12000000Y-160000000D01*
D10*
D11*
X10690476Y-35222176D02*
X11309523Y-35222176D01*
X10566666Y-35593604D02*
X10999999Y-34293604D01*
X10999999Y-34293604D02*
X11433333Y-35593604D01*
D10*
D11*
X11092857Y-84912652D02*
X11278571Y-84974557D01*
X11278571Y-84974557D02*
X11340476Y-85036461D01*
X11340476Y-85036461D02*
X11402380Y-85160271D01*
X11402380Y-85160271D02*
X11402380Y-85345985D01*
X11402380Y-85345985D02*
X11340476Y-85469795D01*
X11340476Y-85469795D02*
X11278571Y-85531700D01*
X11278571Y-85531700D02*
X11154761Y-85593604D01*
X11154761Y-85593604D02*
X10659523Y-85593604D01*
X10659523Y-85593604D02*
X10659523Y-84293604D01*
X10659523Y-84293604D02*
X11092857Y-84293604D01*
X11092857Y-84293604D02*
X11216666Y-84355509D01*
X11216666Y-84355509D02*
X11278571Y-84417414D01*
X11278571Y-84417414D02*
X11340476Y-84541223D01*
X11340476Y-84541223D02*
X11340476Y-84665033D01*
X11340476Y-84665033D02*
X11278571Y-84788842D01*
X11278571Y-84788842D02*
X11216666Y-84850747D01*
X11216666Y-84850747D02*
X11092857Y-84912652D01*
X11092857Y-84912652D02*
X10659523Y-84912652D01*
D10*
D11*
X11402380Y-135469795D02*
X11340476Y-135531700D01*
X11340476Y-135531700D02*
X11154761Y-135593604D01*
X11154761Y-135593604D02*
X11030952Y-135593604D01*
X11030952Y-135593604D02*
X10845238Y-135531700D01*
X10845238Y-135531700D02*
X10721428Y-135407890D01*
X10721428Y-135407890D02*
X10659523Y-135284080D01*
X10659523Y-135284080D02*
X10597619Y-135036461D01*
X10597619Y-135036461D02*
X10597619Y-134850747D01*
X10597619Y-134850747D02*
X10659523Y-134603128D01*
X10659523Y-134603128D02*
X10721428Y-134479319D01*
X10721428Y-134479319D02*
X10845238Y-134355509D01*
X10845238Y-134355509D02*
X11030952Y-134293604D01*
X11030952Y-134293604D02*
X11154761Y-134293604D01*
X11154761Y-134293604D02*
X11340476Y-134355509D01*
X11340476Y-134355509D02*
X11402380Y-134417414D01*
D10*
D11*
X10659523Y-185593604D02*
X10659523Y-184293604D01*
X10659523Y-184293604D02*
X10969047Y-184293604D01*
X10969047Y-184293604D02*
X11154761Y-184355509D01*
X11154761Y-184355509D02*
X11278571Y-184479319D01*
X11278571Y-184479319D02*
X11340476Y-184603128D01*
X11340476Y-184603128D02*
X11402380Y-184850747D01*
X11402380Y-184850747D02*
X11402380Y-185036461D01*
X11402380Y-185036461D02*
X11340476Y-185284080D01*
X11340476Y-185284080D02*
X11278571Y-185407890D01*
X11278571Y-185407890D02*
X11154761Y-185531700D01*
X11154761Y-185531700D02*
X10969047Y-185593604D01*
X10969047Y-185593604D02*
X10659523Y-185593604D01*
D10*
D11*
X287002200Y-60000000D02*
X285002200Y-60000000D01*
D10*
D11*
X287002200Y-110000000D02*
X285002200Y-110000000D01*
D10*
D11*
X287002200Y-160000000D02*
X285002200Y-160000000D01*
D10*
D11*
X285692676Y-35222176D02*
X286311723Y-35222176D01*
X285568866Y-35593604D02*
X286002199Y-34293604D01*
X286002199Y-34293604D02*
X286435533Y-35593604D01*
D10*
D11*
X286095057Y-84912652D02*
X286280771Y-84974557D01*
X286280771Y-84974557D02*
X286342676Y-85036461D01*
X286342676Y-85036461D02*
X286404580Y-85160271D01*
X286404580Y-85160271D02*
X286404580Y-85345985D01*
X286404580Y-85345985D02*
X286342676Y-85469795D01*
X286342676Y-85469795D02*
X286280771Y-85531700D01*
X286280771Y-85531700D02*
X286156961Y-85593604D01*
X286156961Y-85593604D02*
X285661723Y-85593604D01*
X285661723Y-85593604D02*
X285661723Y-84293604D01*
X285661723Y-84293604D02*
X286095057Y-84293604D01*
X286095057Y-84293604D02*
X286218866Y-84355509D01*
X286218866Y-84355509D02*
X286280771Y-84417414D01*
X286280771Y-84417414D02*
X286342676Y-84541223D01*
X286342676Y-84541223D02*
X286342676Y-84665033D01*
X286342676Y-84665033D02*
X286280771Y-84788842D01*
X286280771Y-84788842D02*
X286218866Y-84850747D01*
X286218866Y-84850747D02*
X286095057Y-84912652D01*
X286095057Y-84912652D02*
X285661723Y-84912652D01*
D10*
D11*
X286404580Y-135469795D02*
X286342676Y-135531700D01*
X286342676Y-135531700D02*
X286156961Y-135593604D01*
X286156961Y-135593604D02*
X286033152Y-135593604D01*
X286033152Y-135593604D02*
X285847438Y-135531700D01*
X285847438Y-135531700D02*
X285723628Y-135407890D01*
X285723628Y-135407890D02*
X285661723Y-135284080D01*
X285661723Y-135284080D02*
X285599819Y-135036461D01*
X285599819Y-135036461D02*
X285599819Y-134850747D01*
X285599819Y-134850747D02*
X285661723Y-134603128D01*
X285661723Y-134603128D02*
X285723628Y-134479319D01*
X285723628Y-134479319D02*
X285847438Y-134355509D01*
X285847438Y-134355509D02*
X286033152Y-134293604D01*
X286033152Y-134293604D02*
X286156961Y-134293604D01*
X286156961Y-134293604D02*
X286342676Y-134355509D01*
X286342676Y-134355509D02*
X286404580Y-134417414D01*
D10*
D11*
X285661723Y-185593604D02*
X285661723Y-184293604D01*
X285661723Y-184293604D02*
X285971247Y-184293604D01*
X285971247Y-184293604D02*
X286156961Y-184355509D01*
X286156961Y-184355509D02*
X286280771Y-184479319D01*
X286280771Y-184479319D02*
X286342676Y-184603128D01*
X286342676Y-184603128D02*
X286404580Y-184850747D01*
X286404580Y-184850747D02*
X286404580Y-185036461D01*
X286404580Y-185036461D02*
X286342676Y-185284080D01*
X286342676Y-185284080D02*
X286280771Y-185407890D01*
X286280771Y-185407890D02*
X286156961Y-185531700D01*
X286156961Y-185531700D02*
X285971247Y-185593604D01*
X285971247Y-185593604D02*
X285661723Y-185593604D01*
D10*
D11*
X200458026Y-193793328D02*
X200458026Y-192293328D01*
X200458026Y-192293328D02*
X200815169Y-192293328D01*
X200815169Y-192293328D02*
X201029455Y-192364757D01*
X201029455Y-192364757D02*
X201172312Y-192507614D01*
X201172312Y-192507614D02*
X201243741Y-192650471D01*
X201243741Y-192650471D02*
X201315169Y-192936185D01*
X201315169Y-192936185D02*
X201315169Y-193150471D01*
X201315169Y-193150471D02*
X201243741Y-193436185D01*
X201243741Y-193436185D02*
X201172312Y-193579042D01*
X201172312Y-193579042D02*
X201029455Y-193721900D01*
X201029455Y-193721900D02*
X200815169Y-193793328D01*
X200815169Y-193793328D02*
X200458026Y-193793328D01*
X202600884Y-193793328D02*
X202600884Y-193007614D01*
X202600884Y-193007614D02*
X202529455Y-192864757D01*
X202529455Y-192864757D02*
X202386598Y-192793328D01*
X202386598Y-192793328D02*
X202100884Y-192793328D01*
X202100884Y-192793328D02*
X201958026Y-192864757D01*
X202600884Y-193721900D02*
X202458026Y-193793328D01*
X202458026Y-193793328D02*
X202100884Y-193793328D01*
X202100884Y-193793328D02*
X201958026Y-193721900D01*
X201958026Y-193721900D02*
X201886598Y-193579042D01*
X201886598Y-193579042D02*
X201886598Y-193436185D01*
X201886598Y-193436185D02*
X201958026Y-193293328D01*
X201958026Y-193293328D02*
X202100884Y-193221900D01*
X202100884Y-193221900D02*
X202458026Y-193221900D01*
X202458026Y-193221900D02*
X202600884Y-193150471D01*
X203100884Y-192793328D02*
X203672312Y-192793328D01*
X203315169Y-192293328D02*
X203315169Y-193579042D01*
X203315169Y-193579042D02*
X203386598Y-193721900D01*
X203386598Y-193721900D02*
X203529455Y-193793328D01*
X203529455Y-193793328D02*
X203672312Y-193793328D01*
X204743741Y-193721900D02*
X204600884Y-193793328D01*
X204600884Y-193793328D02*
X204315170Y-193793328D01*
X204315170Y-193793328D02*
X204172312Y-193721900D01*
X204172312Y-193721900D02*
X204100884Y-193579042D01*
X204100884Y-193579042D02*
X204100884Y-193007614D01*
X204100884Y-193007614D02*
X204172312Y-192864757D01*
X204172312Y-192864757D02*
X204315170Y-192793328D01*
X204315170Y-192793328D02*
X204600884Y-192793328D01*
X204600884Y-192793328D02*
X204743741Y-192864757D01*
X204743741Y-192864757D02*
X204815170Y-193007614D01*
X204815170Y-193007614D02*
X204815170Y-193150471D01*
X204815170Y-193150471D02*
X204100884Y-193293328D01*
X205458026Y-193650471D02*
X205529455Y-193721900D01*
X205529455Y-193721900D02*
X205458026Y-193793328D01*
X205458026Y-193793328D02*
X205386598Y-193721900D01*
X205386598Y-193721900D02*
X205458026Y-193650471D01*
X205458026Y-193650471D02*
X205458026Y-193793328D01*
X205458026Y-192864757D02*
X205529455Y-192936185D01*
X205529455Y-192936185D02*
X205458026Y-193007614D01*
X205458026Y-193007614D02*
X205386598Y-192936185D01*
X205386598Y-192936185D02*
X205458026Y-192864757D01*
X205458026Y-192864757D02*
X205458026Y-193007614D01*
X207243741Y-192436185D02*
X207315169Y-192364757D01*
X207315169Y-192364757D02*
X207458027Y-192293328D01*
X207458027Y-192293328D02*
X207815169Y-192293328D01*
X207815169Y-192293328D02*
X207958027Y-192364757D01*
X207958027Y-192364757D02*
X208029455Y-192436185D01*
X208029455Y-192436185D02*
X208100884Y-192579042D01*
X208100884Y-192579042D02*
X208100884Y-192721900D01*
X208100884Y-192721900D02*
X208029455Y-192936185D01*
X208029455Y-192936185D02*
X207172312Y-193793328D01*
X207172312Y-193793328D02*
X208100884Y-193793328D01*
X209029455Y-192293328D02*
X209172312Y-192293328D01*
X209172312Y-192293328D02*
X209315169Y-192364757D01*
X209315169Y-192364757D02*
X209386598Y-192436185D01*
X209386598Y-192436185D02*
X209458026Y-192579042D01*
X209458026Y-192579042D02*
X209529455Y-192864757D01*
X209529455Y-192864757D02*
X209529455Y-193221900D01*
X209529455Y-193221900D02*
X209458026Y-193507614D01*
X209458026Y-193507614D02*
X209386598Y-193650471D01*
X209386598Y-193650471D02*
X209315169Y-193721900D01*
X209315169Y-193721900D02*
X209172312Y-193793328D01*
X209172312Y-193793328D02*
X209029455Y-193793328D01*
X209029455Y-193793328D02*
X208886598Y-193721900D01*
X208886598Y-193721900D02*
X208815169Y-193650471D01*
X208815169Y-193650471D02*
X208743740Y-193507614D01*
X208743740Y-193507614D02*
X208672312Y-193221900D01*
X208672312Y-193221900D02*
X208672312Y-192864757D01*
X208672312Y-192864757D02*
X208743740Y-192579042D01*
X208743740Y-192579042D02*
X208815169Y-192436185D01*
X208815169Y-192436185D02*
X208886598Y-192364757D01*
X208886598Y-192364757D02*
X209029455Y-192293328D01*
X210100883Y-192436185D02*
X210172311Y-192364757D01*
X210172311Y-192364757D02*
X210315169Y-192293328D01*
X210315169Y-192293328D02*
X210672311Y-192293328D01*
X210672311Y-192293328D02*
X210815169Y-192364757D01*
X210815169Y-192364757D02*
X210886597Y-192436185D01*
X210886597Y-192436185D02*
X210958026Y-192579042D01*
X210958026Y-192579042D02*
X210958026Y-192721900D01*
X210958026Y-192721900D02*
X210886597Y-192936185D01*
X210886597Y-192936185D02*
X210029454Y-193793328D01*
X210029454Y-193793328D02*
X210958026Y-193793328D01*
X212315168Y-192293328D02*
X211600882Y-192293328D01*
X211600882Y-192293328D02*
X211529454Y-193007614D01*
X211529454Y-193007614D02*
X211600882Y-192936185D01*
X211600882Y-192936185D02*
X211743740Y-192864757D01*
X211743740Y-192864757D02*
X212100882Y-192864757D01*
X212100882Y-192864757D02*
X212243740Y-192936185D01*
X212243740Y-192936185D02*
X212315168Y-193007614D01*
X212315168Y-193007614D02*
X212386597Y-193150471D01*
X212386597Y-193150471D02*
X212386597Y-193507614D01*
X212386597Y-193507614D02*
X212315168Y-193650471D01*
X212315168Y-193650471D02*
X212243740Y-193721900D01*
X212243740Y-193721900D02*
X212100882Y-193793328D01*
X212100882Y-193793328D02*
X211743740Y-193793328D01*
X211743740Y-193793328D02*
X211600882Y-193721900D01*
X211600882Y-193721900D02*
X211529454Y-193650471D01*
X213029453Y-193221900D02*
X214172311Y-193221900D01*
X215672311Y-193793328D02*
X214815168Y-193793328D01*
X215243739Y-193793328D02*
X215243739Y-192293328D01*
X215243739Y-192293328D02*
X215100882Y-192507614D01*
X215100882Y-192507614D02*
X214958025Y-192650471D01*
X214958025Y-192650471D02*
X214815168Y-192721900D01*
X217100882Y-193793328D02*
X216243739Y-193793328D01*
X216672310Y-193793328D02*
X216672310Y-192293328D01*
X216672310Y-192293328D02*
X216529453Y-192507614D01*
X216529453Y-192507614D02*
X216386596Y-192650471D01*
X216386596Y-192650471D02*
X216243739Y-192721900D01*
X217743738Y-193221900D02*
X218886596Y-193221900D01*
X219886596Y-192293328D02*
X220029453Y-192293328D01*
X220029453Y-192293328D02*
X220172310Y-192364757D01*
X220172310Y-192364757D02*
X220243739Y-192436185D01*
X220243739Y-192436185D02*
X220315167Y-192579042D01*
X220315167Y-192579042D02*
X220386596Y-192864757D01*
X220386596Y-192864757D02*
X220386596Y-193221900D01*
X220386596Y-193221900D02*
X220315167Y-193507614D01*
X220315167Y-193507614D02*
X220243739Y-193650471D01*
X220243739Y-193650471D02*
X220172310Y-193721900D01*
X220172310Y-193721900D02*
X220029453Y-193793328D01*
X220029453Y-193793328D02*
X219886596Y-193793328D01*
X219886596Y-193793328D02*
X219743739Y-193721900D01*
X219743739Y-193721900D02*
X219672310Y-193650471D01*
X219672310Y-193650471D02*
X219600881Y-193507614D01*
X219600881Y-193507614D02*
X219529453Y-193221900D01*
X219529453Y-193221900D02*
X219529453Y-192864757D01*
X219529453Y-192864757D02*
X219600881Y-192579042D01*
X219600881Y-192579042D02*
X219672310Y-192436185D01*
X219672310Y-192436185D02*
X219743739Y-192364757D01*
X219743739Y-192364757D02*
X219886596Y-192293328D01*
X220958024Y-192436185D02*
X221029452Y-192364757D01*
X221029452Y-192364757D02*
X221172310Y-192293328D01*
X221172310Y-192293328D02*
X221529452Y-192293328D01*
X221529452Y-192293328D02*
X221672310Y-192364757D01*
X221672310Y-192364757D02*
X221743738Y-192436185D01*
X221743738Y-192436185D02*
X221815167Y-192579042D01*
X221815167Y-192579042D02*
X221815167Y-192721900D01*
X221815167Y-192721900D02*
X221743738Y-192936185D01*
X221743738Y-192936185D02*
X220886595Y-193793328D01*
X220886595Y-193793328D02*
X221815167Y-193793328D01*
D10*
D11*
X177002200Y-194507200D02*
X285002200Y-194507200D01*
D10*
D11*
X178458026Y-196593328D02*
X178458026Y-195093328D01*
X179315169Y-196593328D02*
X178672312Y-195736185D01*
X179315169Y-195093328D02*
X178458026Y-195950471D01*
X179958026Y-196593328D02*
X179958026Y-195593328D01*
X179958026Y-195093328D02*
X179886598Y-195164757D01*
X179886598Y-195164757D02*
X179958026Y-195236185D01*
X179958026Y-195236185D02*
X180029455Y-195164757D01*
X180029455Y-195164757D02*
X179958026Y-195093328D01*
X179958026Y-195093328D02*
X179958026Y-195236185D01*
X181529455Y-196450471D02*
X181458027Y-196521900D01*
X181458027Y-196521900D02*
X181243741Y-196593328D01*
X181243741Y-196593328D02*
X181100884Y-196593328D01*
X181100884Y-196593328D02*
X180886598Y-196521900D01*
X180886598Y-196521900D02*
X180743741Y-196379042D01*
X180743741Y-196379042D02*
X180672312Y-196236185D01*
X180672312Y-196236185D02*
X180600884Y-195950471D01*
X180600884Y-195950471D02*
X180600884Y-195736185D01*
X180600884Y-195736185D02*
X180672312Y-195450471D01*
X180672312Y-195450471D02*
X180743741Y-195307614D01*
X180743741Y-195307614D02*
X180886598Y-195164757D01*
X180886598Y-195164757D02*
X181100884Y-195093328D01*
X181100884Y-195093328D02*
X181243741Y-195093328D01*
X181243741Y-195093328D02*
X181458027Y-195164757D01*
X181458027Y-195164757D02*
X181529455Y-195236185D01*
X182815170Y-196593328D02*
X182815170Y-195807614D01*
X182815170Y-195807614D02*
X182743741Y-195664757D01*
X182743741Y-195664757D02*
X182600884Y-195593328D01*
X182600884Y-195593328D02*
X182315170Y-195593328D01*
X182315170Y-195593328D02*
X182172312Y-195664757D01*
X182815170Y-196521900D02*
X182672312Y-196593328D01*
X182672312Y-196593328D02*
X182315170Y-196593328D01*
X182315170Y-196593328D02*
X182172312Y-196521900D01*
X182172312Y-196521900D02*
X182100884Y-196379042D01*
X182100884Y-196379042D02*
X182100884Y-196236185D01*
X182100884Y-196236185D02*
X182172312Y-196093328D01*
X182172312Y-196093328D02*
X182315170Y-196021900D01*
X182315170Y-196021900D02*
X182672312Y-196021900D01*
X182672312Y-196021900D02*
X182815170Y-195950471D01*
X184172313Y-196593328D02*
X184172313Y-195093328D01*
X184172313Y-196521900D02*
X184029455Y-196593328D01*
X184029455Y-196593328D02*
X183743741Y-196593328D01*
X183743741Y-196593328D02*
X183600884Y-196521900D01*
X183600884Y-196521900D02*
X183529455Y-196450471D01*
X183529455Y-196450471D02*
X183458027Y-196307614D01*
X183458027Y-196307614D02*
X183458027Y-195879042D01*
X183458027Y-195879042D02*
X183529455Y-195736185D01*
X183529455Y-195736185D02*
X183600884Y-195664757D01*
X183600884Y-195664757D02*
X183743741Y-195593328D01*
X183743741Y-195593328D02*
X184029455Y-195593328D01*
X184029455Y-195593328D02*
X184172313Y-195664757D01*
X186029455Y-195807614D02*
X186529455Y-195807614D01*
X186743741Y-196593328D02*
X186029455Y-196593328D01*
X186029455Y-196593328D02*
X186029455Y-195093328D01*
X186029455Y-195093328D02*
X186743741Y-195093328D01*
X187386598Y-196450471D02*
X187458027Y-196521900D01*
X187458027Y-196521900D02*
X187386598Y-196593328D01*
X187386598Y-196593328D02*
X187315170Y-196521900D01*
X187315170Y-196521900D02*
X187386598Y-196450471D01*
X187386598Y-196450471D02*
X187386598Y-196593328D01*
X188100884Y-196593328D02*
X188100884Y-195093328D01*
X188100884Y-195093328D02*
X188458027Y-195093328D01*
X188458027Y-195093328D02*
X188672313Y-195164757D01*
X188672313Y-195164757D02*
X188815170Y-195307614D01*
X188815170Y-195307614D02*
X188886599Y-195450471D01*
X188886599Y-195450471D02*
X188958027Y-195736185D01*
X188958027Y-195736185D02*
X188958027Y-195950471D01*
X188958027Y-195950471D02*
X188886599Y-196236185D01*
X188886599Y-196236185D02*
X188815170Y-196379042D01*
X188815170Y-196379042D02*
X188672313Y-196521900D01*
X188672313Y-196521900D02*
X188458027Y-196593328D01*
X188458027Y-196593328D02*
X188100884Y-196593328D01*
X189600884Y-196450471D02*
X189672313Y-196521900D01*
X189672313Y-196521900D02*
X189600884Y-196593328D01*
X189600884Y-196593328D02*
X189529456Y-196521900D01*
X189529456Y-196521900D02*
X189600884Y-196450471D01*
X189600884Y-196450471D02*
X189600884Y-196593328D01*
X190243742Y-196164757D02*
X190958028Y-196164757D01*
X190100885Y-196593328D02*
X190600885Y-195093328D01*
X190600885Y-195093328D02*
X191100885Y-196593328D01*
X191600884Y-196450471D02*
X191672313Y-196521900D01*
X191672313Y-196521900D02*
X191600884Y-196593328D01*
X191600884Y-196593328D02*
X191529456Y-196521900D01*
X191529456Y-196521900D02*
X191600884Y-196450471D01*
X191600884Y-196450471D02*
X191600884Y-196593328D01*
X193529456Y-196593328D02*
X193815170Y-196593328D01*
X193815170Y-196593328D02*
X193958027Y-196521900D01*
X193958027Y-196521900D02*
X194029456Y-196450471D01*
X194029456Y-196450471D02*
X194172313Y-196236185D01*
X194172313Y-196236185D02*
X194243742Y-195950471D01*
X194243742Y-195950471D02*
X194243742Y-195379042D01*
X194243742Y-195379042D02*
X194172313Y-195236185D01*
X194172313Y-195236185D02*
X194100885Y-195164757D01*
X194100885Y-195164757D02*
X193958027Y-195093328D01*
X193958027Y-195093328D02*
X193672313Y-195093328D01*
X193672313Y-195093328D02*
X193529456Y-195164757D01*
X193529456Y-195164757D02*
X193458027Y-195236185D01*
X193458027Y-195236185D02*
X193386599Y-195379042D01*
X193386599Y-195379042D02*
X193386599Y-195736185D01*
X193386599Y-195736185D02*
X193458027Y-195879042D01*
X193458027Y-195879042D02*
X193529456Y-195950471D01*
X193529456Y-195950471D02*
X193672313Y-196021900D01*
X193672313Y-196021900D02*
X193958027Y-196021900D01*
X193958027Y-196021900D02*
X194100885Y-195950471D01*
X194100885Y-195950471D02*
X194172313Y-195879042D01*
X194172313Y-195879042D02*
X194243742Y-195736185D01*
X194886598Y-196450471D02*
X194958027Y-196521900D01*
X194958027Y-196521900D02*
X194886598Y-196593328D01*
X194886598Y-196593328D02*
X194815170Y-196521900D01*
X194815170Y-196521900D02*
X194886598Y-196450471D01*
X194886598Y-196450471D02*
X194886598Y-196593328D01*
X195886599Y-195093328D02*
X196029456Y-195093328D01*
X196029456Y-195093328D02*
X196172313Y-195164757D01*
X196172313Y-195164757D02*
X196243742Y-195236185D01*
X196243742Y-195236185D02*
X196315170Y-195379042D01*
X196315170Y-195379042D02*
X196386599Y-195664757D01*
X196386599Y-195664757D02*
X196386599Y-196021900D01*
X196386599Y-196021900D02*
X196315170Y-196307614D01*
X196315170Y-196307614D02*
X196243742Y-196450471D01*
X196243742Y-196450471D02*
X196172313Y-196521900D01*
X196172313Y-196521900D02*
X196029456Y-196593328D01*
X196029456Y-196593328D02*
X195886599Y-196593328D01*
X195886599Y-196593328D02*
X195743742Y-196521900D01*
X195743742Y-196521900D02*
X195672313Y-196450471D01*
X195672313Y-196450471D02*
X195600884Y-196307614D01*
X195600884Y-196307614D02*
X195529456Y-196021900D01*
X195529456Y-196021900D02*
X195529456Y-195664757D01*
X195529456Y-195664757D02*
X195600884Y-195379042D01*
X195600884Y-195379042D02*
X195672313Y-195236185D01*
X195672313Y-195236185D02*
X195743742Y-195164757D01*
X195743742Y-195164757D02*
X195886599Y-195093328D01*
X197029455Y-196450471D02*
X197100884Y-196521900D01*
X197100884Y-196521900D02*
X197029455Y-196593328D01*
X197029455Y-196593328D02*
X196958027Y-196521900D01*
X196958027Y-196521900D02*
X197029455Y-196450471D01*
X197029455Y-196450471D02*
X197029455Y-196593328D01*
X198458027Y-195093328D02*
X197743741Y-195093328D01*
X197743741Y-195093328D02*
X197672313Y-195807614D01*
X197672313Y-195807614D02*
X197743741Y-195736185D01*
X197743741Y-195736185D02*
X197886599Y-195664757D01*
X197886599Y-195664757D02*
X198243741Y-195664757D01*
X198243741Y-195664757D02*
X198386599Y-195736185D01*
X198386599Y-195736185D02*
X198458027Y-195807614D01*
X198458027Y-195807614D02*
X198529456Y-195950471D01*
X198529456Y-195950471D02*
X198529456Y-196307614D01*
X198529456Y-196307614D02*
X198458027Y-196450471D01*
X198458027Y-196450471D02*
X198386599Y-196521900D01*
X198386599Y-196521900D02*
X198243741Y-196593328D01*
X198243741Y-196593328D02*
X197886599Y-196593328D01*
X197886599Y-196593328D02*
X197743741Y-196521900D01*
X197743741Y-196521900D02*
X197672313Y-196450471D01*
D10*
D11*
X177002200Y-191507200D02*
X285002200Y-191507200D01*
D10*
D12*
X264413853Y-193785528D02*
X263913853Y-193071242D01*
X263556710Y-193785528D02*
X263556710Y-192285528D01*
X263556710Y-192285528D02*
X264128139Y-192285528D01*
X264128139Y-192285528D02*
X264270996Y-192356957D01*
X264270996Y-192356957D02*
X264342425Y-192428385D01*
X264342425Y-192428385D02*
X264413853Y-192571242D01*
X264413853Y-192571242D02*
X264413853Y-192785528D01*
X264413853Y-192785528D02*
X264342425Y-192928385D01*
X264342425Y-192928385D02*
X264270996Y-192999814D01*
X264270996Y-192999814D02*
X264128139Y-193071242D01*
X264128139Y-193071242D02*
X263556710Y-193071242D01*
X265628139Y-193714100D02*
X265485282Y-193785528D01*
X265485282Y-193785528D02*
X265199568Y-193785528D01*
X265199568Y-193785528D02*
X265056710Y-193714100D01*
X265056710Y-193714100D02*
X264985282Y-193571242D01*
X264985282Y-193571242D02*
X264985282Y-192999814D01*
X264985282Y-192999814D02*
X265056710Y-192856957D01*
X265056710Y-192856957D02*
X265199568Y-192785528D01*
X265199568Y-192785528D02*
X265485282Y-192785528D01*
X265485282Y-192785528D02*
X265628139Y-192856957D01*
X265628139Y-192856957D02*
X265699568Y-192999814D01*
X265699568Y-192999814D02*
X265699568Y-193142671D01*
X265699568Y-193142671D02*
X264985282Y-193285528D01*
X266199567Y-192785528D02*
X266556710Y-193785528D01*
X266556710Y-193785528D02*
X266913853Y-192785528D01*
X267485281Y-193642671D02*
X267556710Y-193714100D01*
X267556710Y-193714100D02*
X267485281Y-193785528D01*
X267485281Y-193785528D02*
X267413853Y-193714100D01*
X267413853Y-193714100D02*
X267485281Y-193642671D01*
X267485281Y-193642671D02*
X267485281Y-193785528D01*
X267485281Y-192856957D02*
X267556710Y-192928385D01*
X267556710Y-192928385D02*
X267485281Y-192999814D01*
X267485281Y-192999814D02*
X267413853Y-192928385D01*
X267413853Y-192928385D02*
X267485281Y-192856957D01*
X267485281Y-192856957D02*
X267485281Y-192999814D01*
X270128139Y-193785528D02*
X269270996Y-193785528D01*
X269699567Y-193785528D02*
X269699567Y-192285528D01*
X269699567Y-192285528D02*
X269556710Y-192499814D01*
X269556710Y-192499814D02*
X269413853Y-192642671D01*
X269413853Y-192642671D02*
X269270996Y-192714100D01*
D10*
D11*
X178386598Y-193721900D02*
X178600884Y-193793328D01*
X178600884Y-193793328D02*
X178958026Y-193793328D01*
X178958026Y-193793328D02*
X179100884Y-193721900D01*
X179100884Y-193721900D02*
X179172312Y-193650471D01*
X179172312Y-193650471D02*
X179243741Y-193507614D01*
X179243741Y-193507614D02*
X179243741Y-193364757D01*
X179243741Y-193364757D02*
X179172312Y-193221900D01*
X179172312Y-193221900D02*
X179100884Y-193150471D01*
X179100884Y-193150471D02*
X178958026Y-193079042D01*
X178958026Y-193079042D02*
X178672312Y-193007614D01*
X178672312Y-193007614D02*
X178529455Y-192936185D01*
X178529455Y-192936185D02*
X178458026Y-192864757D01*
X178458026Y-192864757D02*
X178386598Y-192721900D01*
X178386598Y-192721900D02*
X178386598Y-192579042D01*
X178386598Y-192579042D02*
X178458026Y-192436185D01*
X178458026Y-192436185D02*
X178529455Y-192364757D01*
X178529455Y-192364757D02*
X178672312Y-192293328D01*
X178672312Y-192293328D02*
X179029455Y-192293328D01*
X179029455Y-192293328D02*
X179243741Y-192364757D01*
X179886597Y-193793328D02*
X179886597Y-192793328D01*
X179886597Y-192293328D02*
X179815169Y-192364757D01*
X179815169Y-192364757D02*
X179886597Y-192436185D01*
X179886597Y-192436185D02*
X179958026Y-192364757D01*
X179958026Y-192364757D02*
X179886597Y-192293328D01*
X179886597Y-192293328D02*
X179886597Y-192436185D01*
X180458026Y-192793328D02*
X181243741Y-192793328D01*
X181243741Y-192793328D02*
X180458026Y-193793328D01*
X180458026Y-193793328D02*
X181243741Y-193793328D01*
X182386598Y-193721900D02*
X182243741Y-193793328D01*
X182243741Y-193793328D02*
X181958027Y-193793328D01*
X181958027Y-193793328D02*
X181815169Y-193721900D01*
X181815169Y-193721900D02*
X181743741Y-193579042D01*
X181743741Y-193579042D02*
X181743741Y-193007614D01*
X181743741Y-193007614D02*
X181815169Y-192864757D01*
X181815169Y-192864757D02*
X181958027Y-192793328D01*
X181958027Y-192793328D02*
X182243741Y-192793328D01*
X182243741Y-192793328D02*
X182386598Y-192864757D01*
X182386598Y-192864757D02*
X182458027Y-193007614D01*
X182458027Y-193007614D02*
X182458027Y-193150471D01*
X182458027Y-193150471D02*
X181743741Y-193293328D01*
X183100883Y-193650471D02*
X183172312Y-193721900D01*
X183172312Y-193721900D02*
X183100883Y-193793328D01*
X183100883Y-193793328D02*
X183029455Y-193721900D01*
X183029455Y-193721900D02*
X183100883Y-193650471D01*
X183100883Y-193650471D02*
X183100883Y-193793328D01*
X183100883Y-192864757D02*
X183172312Y-192936185D01*
X183172312Y-192936185D02*
X183100883Y-193007614D01*
X183100883Y-193007614D02*
X183029455Y-192936185D01*
X183029455Y-192936185D02*
X183100883Y-192864757D01*
X183100883Y-192864757D02*
X183100883Y-193007614D01*
X184886598Y-193364757D02*
X185600884Y-193364757D01*
X184743741Y-193793328D02*
X185243741Y-192293328D01*
X185243741Y-192293328D02*
X185743741Y-193793328D01*
X186886598Y-192793328D02*
X186886598Y-193793328D01*
X186529455Y-192221900D02*
X186172312Y-193293328D01*
X186172312Y-193293328D02*
X187100883Y-193293328D01*
D10*
D11*
X263458026Y-196593328D02*
X263458026Y-195093328D01*
X264815170Y-196593328D02*
X264815170Y-195093328D01*
X264815170Y-196521900D02*
X264672312Y-196593328D01*
X264672312Y-196593328D02*
X264386598Y-196593328D01*
X264386598Y-196593328D02*
X264243741Y-196521900D01*
X264243741Y-196521900D02*
X264172312Y-196450471D01*
X264172312Y-196450471D02*
X264100884Y-196307614D01*
X264100884Y-196307614D02*
X264100884Y-195879042D01*
X264100884Y-195879042D02*
X264172312Y-195736185D01*
X264172312Y-195736185D02*
X264243741Y-195664757D01*
X264243741Y-195664757D02*
X264386598Y-195593328D01*
X264386598Y-195593328D02*
X264672312Y-195593328D01*
X264672312Y-195593328D02*
X264815170Y-195664757D01*
X265529455Y-196450471D02*
X265600884Y-196521900D01*
X265600884Y-196521900D02*
X265529455Y-196593328D01*
X265529455Y-196593328D02*
X265458027Y-196521900D01*
X265458027Y-196521900D02*
X265529455Y-196450471D01*
X265529455Y-196450471D02*
X265529455Y-196593328D01*
X265529455Y-195664757D02*
X265600884Y-195736185D01*
X265600884Y-195736185D02*
X265529455Y-195807614D01*
X265529455Y-195807614D02*
X265458027Y-195736185D01*
X265458027Y-195736185D02*
X265529455Y-195664757D01*
X265529455Y-195664757D02*
X265529455Y-195807614D01*
X267243741Y-195093328D02*
X268243741Y-195093328D01*
X268243741Y-195093328D02*
X267600884Y-196593328D01*
X269886598Y-195021900D02*
X268600884Y-196950471D01*
X270458027Y-196593328D02*
X270743741Y-196593328D01*
X270743741Y-196593328D02*
X270886598Y-196521900D01*
X270886598Y-196521900D02*
X270958027Y-196450471D01*
X270958027Y-196450471D02*
X271100884Y-196236185D01*
X271100884Y-196236185D02*
X271172313Y-195950471D01*
X271172313Y-195950471D02*
X271172313Y-195379042D01*
X271172313Y-195379042D02*
X271100884Y-195236185D01*
X271100884Y-195236185D02*
X271029456Y-195164757D01*
X271029456Y-195164757D02*
X270886598Y-195093328D01*
X270886598Y-195093328D02*
X270600884Y-195093328D01*
X270600884Y-195093328D02*
X270458027Y-195164757D01*
X270458027Y-195164757D02*
X270386598Y-195236185D01*
X270386598Y-195236185D02*
X270315170Y-195379042D01*
X270315170Y-195379042D02*
X270315170Y-195736185D01*
X270315170Y-195736185D02*
X270386598Y-195879042D01*
X270386598Y-195879042D02*
X270458027Y-195950471D01*
X270458027Y-195950471D02*
X270600884Y-196021900D01*
X270600884Y-196021900D02*
X270886598Y-196021900D01*
X270886598Y-196021900D02*
X271029456Y-195950471D01*
X271029456Y-195950471D02*
X271100884Y-195879042D01*
X271100884Y-195879042D02*
X271172313Y-195736185D01*
D10*
D11*
X177002200Y-187507200D02*
X285002200Y-187507200D01*
D10*
D13*
X178693928Y-188211638D02*
X179836785Y-188211638D01*
X179015357Y-190211638D02*
X179265357Y-188211638D01*
X180253452Y-190211638D02*
X180420119Y-188878304D01*
X180503452Y-188211638D02*
X180396309Y-188306876D01*
X180396309Y-188306876D02*
X180479643Y-188402114D01*
X180479643Y-188402114D02*
X180586786Y-188306876D01*
X180586786Y-188306876D02*
X180503452Y-188211638D01*
X180503452Y-188211638D02*
X180479643Y-188402114D01*
X181086786Y-188878304D02*
X181848690Y-188878304D01*
X181455833Y-188211638D02*
X181241548Y-189925923D01*
X181241548Y-189925923D02*
X181312976Y-190116400D01*
X181312976Y-190116400D02*
X181491548Y-190211638D01*
X181491548Y-190211638D02*
X181682024Y-190211638D01*
X182634405Y-190211638D02*
X182455833Y-190116400D01*
X182455833Y-190116400D02*
X182384405Y-189925923D01*
X182384405Y-189925923D02*
X182598690Y-188211638D01*
X184170119Y-190116400D02*
X183967738Y-190211638D01*
X183967738Y-190211638D02*
X183586785Y-190211638D01*
X183586785Y-190211638D02*
X183408214Y-190116400D01*
X183408214Y-190116400D02*
X183336785Y-189925923D01*
X183336785Y-189925923D02*
X183432024Y-189164019D01*
X183432024Y-189164019D02*
X183551071Y-188973542D01*
X183551071Y-188973542D02*
X183753452Y-188878304D01*
X183753452Y-188878304D02*
X184134404Y-188878304D01*
X184134404Y-188878304D02*
X184312976Y-188973542D01*
X184312976Y-188973542D02*
X184384404Y-189164019D01*
X184384404Y-189164019D02*
X184360595Y-189354495D01*
X184360595Y-189354495D02*
X183384404Y-189544971D01*
X185134405Y-190021161D02*
X185217738Y-190116400D01*
X185217738Y-190116400D02*
X185110595Y-190211638D01*
X185110595Y-190211638D02*
X185027262Y-190116400D01*
X185027262Y-190116400D02*
X185134405Y-190021161D01*
X185134405Y-190021161D02*
X185110595Y-190211638D01*
X185265357Y-188973542D02*
X185348690Y-189068780D01*
X185348690Y-189068780D02*
X185241548Y-189164019D01*
X185241548Y-189164019D02*
X185158214Y-189068780D01*
X185158214Y-189068780D02*
X185265357Y-188973542D01*
X185265357Y-188973542D02*
X185241548Y-189164019D01*
X187586786Y-190211638D02*
X187836786Y-188211638D01*
X187836786Y-188211638D02*
X188324881Y-189640209D01*
X188324881Y-189640209D02*
X189170120Y-188211638D01*
X189170120Y-188211638D02*
X188920120Y-190211638D01*
X191039167Y-190021161D02*
X190932024Y-190116400D01*
X190932024Y-190116400D02*
X190634405Y-190211638D01*
X190634405Y-190211638D02*
X190443929Y-190211638D01*
X190443929Y-190211638D02*
X190170119Y-190116400D01*
X190170119Y-190116400D02*
X190003453Y-189925923D01*
X190003453Y-189925923D02*
X189932024Y-189735447D01*
X189932024Y-189735447D02*
X189884405Y-189354495D01*
X189884405Y-189354495D02*
X189920119Y-189068780D01*
X189920119Y-189068780D02*
X190062976Y-188687828D01*
X190062976Y-188687828D02*
X190182024Y-188497352D01*
X190182024Y-188497352D02*
X190396310Y-188306876D01*
X190396310Y-188306876D02*
X190693929Y-188211638D01*
X190693929Y-188211638D02*
X190884405Y-188211638D01*
X190884405Y-188211638D02*
X191158215Y-188306876D01*
X191158215Y-188306876D02*
X191241548Y-188402114D01*
X192122500Y-188211638D02*
X191920119Y-189830685D01*
X191920119Y-189830685D02*
X191991548Y-190021161D01*
X191991548Y-190021161D02*
X192074881Y-190116400D01*
X192074881Y-190116400D02*
X192253453Y-190211638D01*
X192253453Y-190211638D02*
X192634405Y-190211638D01*
X192634405Y-190211638D02*
X192836786Y-190116400D01*
X192836786Y-190116400D02*
X192943929Y-190021161D01*
X192943929Y-190021161D02*
X193062976Y-189830685D01*
X193062976Y-189830685D02*
X193265357Y-188211638D01*
X195491548Y-190211638D02*
X195741548Y-188211638D01*
X195741548Y-188211638D02*
X196217739Y-188211638D01*
X196217739Y-188211638D02*
X196491548Y-188306876D01*
X196491548Y-188306876D02*
X196658215Y-188497352D01*
X196658215Y-188497352D02*
X196729643Y-188687828D01*
X196729643Y-188687828D02*
X196777263Y-189068780D01*
X196777263Y-189068780D02*
X196741548Y-189354495D01*
X196741548Y-189354495D02*
X196598691Y-189735447D01*
X196598691Y-189735447D02*
X196479643Y-189925923D01*
X196479643Y-189925923D02*
X196265358Y-190116400D01*
X196265358Y-190116400D02*
X195967739Y-190211638D01*
X195967739Y-190211638D02*
X195491548Y-190211638D01*
X198348691Y-190211638D02*
X198479643Y-189164019D01*
X198479643Y-189164019D02*
X198408215Y-188973542D01*
X198408215Y-188973542D02*
X198229643Y-188878304D01*
X198229643Y-188878304D02*
X197848691Y-188878304D01*
X197848691Y-188878304D02*
X197646310Y-188973542D01*
X198360596Y-190116400D02*
X198158215Y-190211638D01*
X198158215Y-190211638D02*
X197682024Y-190211638D01*
X197682024Y-190211638D02*
X197503453Y-190116400D01*
X197503453Y-190116400D02*
X197432024Y-189925923D01*
X197432024Y-189925923D02*
X197455834Y-189735447D01*
X197455834Y-189735447D02*
X197574882Y-189544971D01*
X197574882Y-189544971D02*
X197777263Y-189449733D01*
X197777263Y-189449733D02*
X198253453Y-189449733D01*
X198253453Y-189449733D02*
X198455834Y-189354495D01*
X199182025Y-188878304D02*
X199943929Y-188878304D01*
X199551072Y-188211638D02*
X199336787Y-189925923D01*
X199336787Y-189925923D02*
X199408215Y-190116400D01*
X199408215Y-190116400D02*
X199586787Y-190211638D01*
X199586787Y-190211638D02*
X199777263Y-190211638D01*
X201301072Y-190211638D02*
X201432024Y-189164019D01*
X201432024Y-189164019D02*
X201360596Y-188973542D01*
X201360596Y-188973542D02*
X201182024Y-188878304D01*
X201182024Y-188878304D02*
X200801072Y-188878304D01*
X200801072Y-188878304D02*
X200598691Y-188973542D01*
X201312977Y-190116400D02*
X201110596Y-190211638D01*
X201110596Y-190211638D02*
X200634405Y-190211638D01*
X200634405Y-190211638D02*
X200455834Y-190116400D01*
X200455834Y-190116400D02*
X200384405Y-189925923D01*
X200384405Y-189925923D02*
X200408215Y-189735447D01*
X200408215Y-189735447D02*
X200527263Y-189544971D01*
X200527263Y-189544971D02*
X200729644Y-189449733D01*
X200729644Y-189449733D02*
X201205834Y-189449733D01*
X201205834Y-189449733D02*
X201408215Y-189354495D01*
X202539168Y-190211638D02*
X202360596Y-190116400D01*
X202360596Y-190116400D02*
X202289168Y-189925923D01*
X202289168Y-189925923D02*
X202503453Y-188211638D01*
X203586787Y-190211638D02*
X203408215Y-190116400D01*
X203408215Y-190116400D02*
X203324882Y-190021161D01*
X203324882Y-190021161D02*
X203253453Y-189830685D01*
X203253453Y-189830685D02*
X203324882Y-189259257D01*
X203324882Y-189259257D02*
X203443929Y-189068780D01*
X203443929Y-189068780D02*
X203551072Y-188973542D01*
X203551072Y-188973542D02*
X203753453Y-188878304D01*
X203753453Y-188878304D02*
X204039167Y-188878304D01*
X204039167Y-188878304D02*
X204217739Y-188973542D01*
X204217739Y-188973542D02*
X204301072Y-189068780D01*
X204301072Y-189068780D02*
X204372501Y-189259257D01*
X204372501Y-189259257D02*
X204301072Y-189830685D01*
X204301072Y-189830685D02*
X204182025Y-190021161D01*
X204182025Y-190021161D02*
X204074882Y-190116400D01*
X204074882Y-190116400D02*
X203872501Y-190211638D01*
X203872501Y-190211638D02*
X203586787Y-190211638D01*
X206134406Y-188878304D02*
X205932025Y-190497352D01*
X205932025Y-190497352D02*
X205812977Y-190687828D01*
X205812977Y-190687828D02*
X205705834Y-190783066D01*
X205705834Y-190783066D02*
X205503453Y-190878304D01*
X205503453Y-190878304D02*
X205217739Y-190878304D01*
X205217739Y-190878304D02*
X205039168Y-190783066D01*
X205979644Y-190116400D02*
X205777263Y-190211638D01*
X205777263Y-190211638D02*
X205396311Y-190211638D01*
X205396311Y-190211638D02*
X205217739Y-190116400D01*
X205217739Y-190116400D02*
X205134406Y-190021161D01*
X205134406Y-190021161D02*
X205062977Y-189830685D01*
X205062977Y-189830685D02*
X205134406Y-189259257D01*
X205134406Y-189259257D02*
X205253453Y-189068780D01*
X205253453Y-189068780D02*
X205360596Y-188973542D01*
X205360596Y-188973542D02*
X205562977Y-188878304D01*
X205562977Y-188878304D02*
X205943930Y-188878304D01*
X205943930Y-188878304D02*
X206122501Y-188973542D01*
X207943930Y-188878304D02*
X207741549Y-190497352D01*
X207741549Y-190497352D02*
X207622501Y-190687828D01*
X207622501Y-190687828D02*
X207515358Y-190783066D01*
X207515358Y-190783066D02*
X207312977Y-190878304D01*
X207312977Y-190878304D02*
X207027263Y-190878304D01*
X207027263Y-190878304D02*
X206848692Y-190783066D01*
X207789168Y-190116400D02*
X207586787Y-190211638D01*
X207586787Y-190211638D02*
X207205835Y-190211638D01*
X207205835Y-190211638D02*
X207027263Y-190116400D01*
X207027263Y-190116400D02*
X206943930Y-190021161D01*
X206943930Y-190021161D02*
X206872501Y-189830685D01*
X206872501Y-189830685D02*
X206943930Y-189259257D01*
X206943930Y-189259257D02*
X207062977Y-189068780D01*
X207062977Y-189068780D02*
X207170120Y-188973542D01*
X207170120Y-188973542D02*
X207372501Y-188878304D01*
X207372501Y-188878304D02*
X207753454Y-188878304D01*
X207753454Y-188878304D02*
X207932025Y-188973542D01*
X209503454Y-190116400D02*
X209301073Y-190211638D01*
X209301073Y-190211638D02*
X208920120Y-190211638D01*
X208920120Y-190211638D02*
X208741549Y-190116400D01*
X208741549Y-190116400D02*
X208670120Y-189925923D01*
X208670120Y-189925923D02*
X208765359Y-189164019D01*
X208765359Y-189164019D02*
X208884406Y-188973542D01*
X208884406Y-188973542D02*
X209086787Y-188878304D01*
X209086787Y-188878304D02*
X209467739Y-188878304D01*
X209467739Y-188878304D02*
X209646311Y-188973542D01*
X209646311Y-188973542D02*
X209717739Y-189164019D01*
X209717739Y-189164019D02*
X209693930Y-189354495D01*
X209693930Y-189354495D02*
X208717739Y-189544971D01*
X210443930Y-190211638D02*
X210610597Y-188878304D01*
X210562978Y-189259257D02*
X210682025Y-189068780D01*
X210682025Y-189068780D02*
X210789168Y-188973542D01*
X210789168Y-188973542D02*
X210991549Y-188878304D01*
X210991549Y-188878304D02*
X211182025Y-188878304D01*
X213182026Y-188878304D02*
X213396311Y-190211638D01*
X213396311Y-190211638D02*
X213896311Y-189259257D01*
X213896311Y-189259257D02*
X214158216Y-190211638D01*
X214158216Y-190211638D02*
X214705835Y-188878304D01*
X215301073Y-190211638D02*
X215467740Y-188878304D01*
X215551073Y-188211638D02*
X215443930Y-188306876D01*
X215443930Y-188306876D02*
X215527264Y-188402114D01*
X215527264Y-188402114D02*
X215634407Y-188306876D01*
X215634407Y-188306876D02*
X215551073Y-188211638D01*
X215551073Y-188211638D02*
X215527264Y-188402114D01*
X216134407Y-188878304D02*
X216896311Y-188878304D01*
X216503454Y-188211638D02*
X216289169Y-189925923D01*
X216289169Y-189925923D02*
X216360597Y-190116400D01*
X216360597Y-190116400D02*
X216539169Y-190211638D01*
X216539169Y-190211638D02*
X216729645Y-190211638D01*
X217396311Y-190211638D02*
X217646311Y-188211638D01*
X218253454Y-190211638D02*
X218384406Y-189164019D01*
X218384406Y-189164019D02*
X218312978Y-188973542D01*
X218312978Y-188973542D02*
X218134406Y-188878304D01*
X218134406Y-188878304D02*
X217848692Y-188878304D01*
X217848692Y-188878304D02*
X217646311Y-188973542D01*
X217646311Y-188973542D02*
X217539168Y-189068780D01*
X220729645Y-190211638D02*
X220896312Y-188878304D01*
X220872502Y-189068780D02*
X220979645Y-188973542D01*
X220979645Y-188973542D02*
X221182026Y-188878304D01*
X221182026Y-188878304D02*
X221467740Y-188878304D01*
X221467740Y-188878304D02*
X221646312Y-188973542D01*
X221646312Y-188973542D02*
X221717740Y-189164019D01*
X221717740Y-189164019D02*
X221586788Y-190211638D01*
X221717740Y-189164019D02*
X221836788Y-188973542D01*
X221836788Y-188973542D02*
X222039169Y-188878304D01*
X222039169Y-188878304D02*
X222324883Y-188878304D01*
X222324883Y-188878304D02*
X222503455Y-188973542D01*
X222503455Y-188973542D02*
X222574883Y-189164019D01*
X222574883Y-189164019D02*
X222443931Y-190211638D01*
X224170122Y-190116400D02*
X223967741Y-190211638D01*
X223967741Y-190211638D02*
X223586788Y-190211638D01*
X223586788Y-190211638D02*
X223408217Y-190116400D01*
X223408217Y-190116400D02*
X223336788Y-189925923D01*
X223336788Y-189925923D02*
X223432027Y-189164019D01*
X223432027Y-189164019D02*
X223551074Y-188973542D01*
X223551074Y-188973542D02*
X223753455Y-188878304D01*
X223753455Y-188878304D02*
X224134407Y-188878304D01*
X224134407Y-188878304D02*
X224312979Y-188973542D01*
X224312979Y-188973542D02*
X224384407Y-189164019D01*
X224384407Y-189164019D02*
X224360598Y-189354495D01*
X224360598Y-189354495D02*
X223384407Y-189544971D01*
X225110598Y-190211638D02*
X225277265Y-188878304D01*
X225253455Y-189068780D02*
X225360598Y-188973542D01*
X225360598Y-188973542D02*
X225562979Y-188878304D01*
X225562979Y-188878304D02*
X225848693Y-188878304D01*
X225848693Y-188878304D02*
X226027265Y-188973542D01*
X226027265Y-188973542D02*
X226098693Y-189164019D01*
X226098693Y-189164019D02*
X225967741Y-190211638D01*
X226098693Y-189164019D02*
X226217741Y-188973542D01*
X226217741Y-188973542D02*
X226420122Y-188878304D01*
X226420122Y-188878304D02*
X226705836Y-188878304D01*
X226705836Y-188878304D02*
X226884408Y-188973542D01*
X226884408Y-188973542D02*
X226955836Y-189164019D01*
X226955836Y-189164019D02*
X226824884Y-190211638D01*
X228062980Y-190211638D02*
X227884408Y-190116400D01*
X227884408Y-190116400D02*
X227801075Y-190021161D01*
X227801075Y-190021161D02*
X227729646Y-189830685D01*
X227729646Y-189830685D02*
X227801075Y-189259257D01*
X227801075Y-189259257D02*
X227920122Y-189068780D01*
X227920122Y-189068780D02*
X228027265Y-188973542D01*
X228027265Y-188973542D02*
X228229646Y-188878304D01*
X228229646Y-188878304D02*
X228515360Y-188878304D01*
X228515360Y-188878304D02*
X228693932Y-188973542D01*
X228693932Y-188973542D02*
X228777265Y-189068780D01*
X228777265Y-189068780D02*
X228848694Y-189259257D01*
X228848694Y-189259257D02*
X228777265Y-189830685D01*
X228777265Y-189830685D02*
X228658218Y-190021161D01*
X228658218Y-190021161D02*
X228551075Y-190116400D01*
X228551075Y-190116400D02*
X228348694Y-190211638D01*
X228348694Y-190211638D02*
X228062980Y-190211638D01*
X229586789Y-190211638D02*
X229753456Y-188878304D01*
X229705837Y-189259257D02*
X229824884Y-189068780D01*
X229824884Y-189068780D02*
X229932027Y-188973542D01*
X229932027Y-188973542D02*
X230134408Y-188878304D01*
X230134408Y-188878304D02*
X230324884Y-188878304D01*
X230801075Y-188878304D02*
X231110599Y-190211638D01*
X231753456Y-188878304D02*
X231110599Y-190211638D01*
X231110599Y-190211638D02*
X230860599Y-190687828D01*
X230860599Y-190687828D02*
X230753456Y-190783066D01*
X230753456Y-190783066D02*
X230551075Y-190878304D01*
X234729647Y-190211638D02*
X234860599Y-189164019D01*
X234860599Y-189164019D02*
X234789171Y-188973542D01*
X234789171Y-188973542D02*
X234610599Y-188878304D01*
X234610599Y-188878304D02*
X234229647Y-188878304D01*
X234229647Y-188878304D02*
X234027266Y-188973542D01*
X234741552Y-190116400D02*
X234539171Y-190211638D01*
X234539171Y-190211638D02*
X234062980Y-190211638D01*
X234062980Y-190211638D02*
X233884409Y-190116400D01*
X233884409Y-190116400D02*
X233812980Y-189925923D01*
X233812980Y-189925923D02*
X233836790Y-189735447D01*
X233836790Y-189735447D02*
X233955838Y-189544971D01*
X233955838Y-189544971D02*
X234158219Y-189449733D01*
X234158219Y-189449733D02*
X234634409Y-189449733D01*
X234634409Y-189449733D02*
X234836790Y-189354495D01*
X235848695Y-188878304D02*
X235682028Y-190211638D01*
X235824885Y-189068780D02*
X235932028Y-188973542D01*
X235932028Y-188973542D02*
X236134409Y-188878304D01*
X236134409Y-188878304D02*
X236420123Y-188878304D01*
X236420123Y-188878304D02*
X236598695Y-188973542D01*
X236598695Y-188973542D02*
X236670123Y-189164019D01*
X236670123Y-189164019D02*
X236539171Y-190211638D01*
X238348695Y-190211638D02*
X238598695Y-188211638D01*
X238360600Y-190116400D02*
X238158219Y-190211638D01*
X238158219Y-190211638D02*
X237777267Y-190211638D01*
X237777267Y-190211638D02*
X237598695Y-190116400D01*
X237598695Y-190116400D02*
X237515362Y-190021161D01*
X237515362Y-190021161D02*
X237443933Y-189830685D01*
X237443933Y-189830685D02*
X237515362Y-189259257D01*
X237515362Y-189259257D02*
X237634409Y-189068780D01*
X237634409Y-189068780D02*
X237741552Y-188973542D01*
X237741552Y-188973542D02*
X237943933Y-188878304D01*
X237943933Y-188878304D02*
X238324886Y-188878304D01*
X238324886Y-188878304D02*
X238503457Y-188973542D01*
X241693934Y-190116400D02*
X241491553Y-190211638D01*
X241491553Y-190211638D02*
X241110601Y-190211638D01*
X241110601Y-190211638D02*
X240932029Y-190116400D01*
X240932029Y-190116400D02*
X240848696Y-190021161D01*
X240848696Y-190021161D02*
X240777267Y-189830685D01*
X240777267Y-189830685D02*
X240848696Y-189259257D01*
X240848696Y-189259257D02*
X240967743Y-189068780D01*
X240967743Y-189068780D02*
X241074886Y-188973542D01*
X241074886Y-188973542D02*
X241277267Y-188878304D01*
X241277267Y-188878304D02*
X241658220Y-188878304D01*
X241658220Y-188878304D02*
X241836791Y-188973542D01*
X242824887Y-190211638D02*
X242646315Y-190116400D01*
X242646315Y-190116400D02*
X242574887Y-189925923D01*
X242574887Y-189925923D02*
X242789172Y-188211638D01*
X243872506Y-190211638D02*
X243693934Y-190116400D01*
X243693934Y-190116400D02*
X243610601Y-190021161D01*
X243610601Y-190021161D02*
X243539172Y-189830685D01*
X243539172Y-189830685D02*
X243610601Y-189259257D01*
X243610601Y-189259257D02*
X243729648Y-189068780D01*
X243729648Y-189068780D02*
X243836791Y-188973542D01*
X243836791Y-188973542D02*
X244039172Y-188878304D01*
X244039172Y-188878304D02*
X244324886Y-188878304D01*
X244324886Y-188878304D02*
X244503458Y-188973542D01*
X244503458Y-188973542D02*
X244586791Y-189068780D01*
X244586791Y-189068780D02*
X244658220Y-189259257D01*
X244658220Y-189259257D02*
X244586791Y-189830685D01*
X244586791Y-189830685D02*
X244467744Y-190021161D01*
X244467744Y-190021161D02*
X244360601Y-190116400D01*
X244360601Y-190116400D02*
X244158220Y-190211638D01*
X244158220Y-190211638D02*
X243872506Y-190211638D01*
X246265363Y-190116400D02*
X246062982Y-190211638D01*
X246062982Y-190211638D02*
X245682030Y-190211638D01*
X245682030Y-190211638D02*
X245503458Y-190116400D01*
X245503458Y-190116400D02*
X245420125Y-190021161D01*
X245420125Y-190021161D02*
X245348696Y-189830685D01*
X245348696Y-189830685D02*
X245420125Y-189259257D01*
X245420125Y-189259257D02*
X245539172Y-189068780D01*
X245539172Y-189068780D02*
X245646315Y-188973542D01*
X245646315Y-188973542D02*
X245848696Y-188878304D01*
X245848696Y-188878304D02*
X246229649Y-188878304D01*
X246229649Y-188878304D02*
X246408220Y-188973542D01*
X247110601Y-190211638D02*
X247360601Y-188211638D01*
X247396316Y-189449733D02*
X247872506Y-190211638D01*
X248039173Y-188878304D02*
X247182030Y-189640209D01*
D10*
D11*
X178958026Y-185607614D02*
X178458026Y-185607614D01*
X178458026Y-186393328D02*
X178458026Y-184893328D01*
X178458026Y-184893328D02*
X179172312Y-184893328D01*
X179743740Y-186393328D02*
X179743740Y-185393328D01*
X179743740Y-184893328D02*
X179672312Y-184964757D01*
X179672312Y-184964757D02*
X179743740Y-185036185D01*
X179743740Y-185036185D02*
X179815169Y-184964757D01*
X179815169Y-184964757D02*
X179743740Y-184893328D01*
X179743740Y-184893328D02*
X179743740Y-185036185D01*
X180672312Y-186393328D02*
X180529455Y-186321900D01*
X180529455Y-186321900D02*
X180458026Y-186179042D01*
X180458026Y-186179042D02*
X180458026Y-184893328D01*
X181815169Y-186321900D02*
X181672312Y-186393328D01*
X181672312Y-186393328D02*
X181386598Y-186393328D01*
X181386598Y-186393328D02*
X181243740Y-186321900D01*
X181243740Y-186321900D02*
X181172312Y-186179042D01*
X181172312Y-186179042D02*
X181172312Y-185607614D01*
X181172312Y-185607614D02*
X181243740Y-185464757D01*
X181243740Y-185464757D02*
X181386598Y-185393328D01*
X181386598Y-185393328D02*
X181672312Y-185393328D01*
X181672312Y-185393328D02*
X181815169Y-185464757D01*
X181815169Y-185464757D02*
X181886598Y-185607614D01*
X181886598Y-185607614D02*
X181886598Y-185750471D01*
X181886598Y-185750471D02*
X181172312Y-185893328D01*
X182529454Y-186250471D02*
X182600883Y-186321900D01*
X182600883Y-186321900D02*
X182529454Y-186393328D01*
X182529454Y-186393328D02*
X182458026Y-186321900D01*
X182458026Y-186321900D02*
X182529454Y-186250471D01*
X182529454Y-186250471D02*
X182529454Y-186393328D01*
X182529454Y-185464757D02*
X182600883Y-185536185D01*
X182600883Y-185536185D02*
X182529454Y-185607614D01*
X182529454Y-185607614D02*
X182458026Y-185536185D01*
X182458026Y-185536185D02*
X182529454Y-185464757D01*
X182529454Y-185464757D02*
X182529454Y-185607614D01*
X184386597Y-186393328D02*
X184386597Y-185393328D01*
X184386597Y-185536185D02*
X184458026Y-185464757D01*
X184458026Y-185464757D02*
X184600883Y-185393328D01*
X184600883Y-185393328D02*
X184815169Y-185393328D01*
X184815169Y-185393328D02*
X184958026Y-185464757D01*
X184958026Y-185464757D02*
X185029455Y-185607614D01*
X185029455Y-185607614D02*
X185029455Y-186393328D01*
X185029455Y-185607614D02*
X185100883Y-185464757D01*
X185100883Y-185464757D02*
X185243740Y-185393328D01*
X185243740Y-185393328D02*
X185458026Y-185393328D01*
X185458026Y-185393328D02*
X185600883Y-185464757D01*
X185600883Y-185464757D02*
X185672312Y-185607614D01*
X185672312Y-185607614D02*
X185672312Y-186393328D01*
X187029455Y-186321900D02*
X186886597Y-186393328D01*
X186886597Y-186393328D02*
X186600883Y-186393328D01*
X186600883Y-186393328D02*
X186458026Y-186321900D01*
X186458026Y-186321900D02*
X186386597Y-186250471D01*
X186386597Y-186250471D02*
X186315169Y-186107614D01*
X186315169Y-186107614D02*
X186315169Y-185679042D01*
X186315169Y-185679042D02*
X186386597Y-185536185D01*
X186386597Y-185536185D02*
X186458026Y-185464757D01*
X186458026Y-185464757D02*
X186600883Y-185393328D01*
X186600883Y-185393328D02*
X186886597Y-185393328D01*
X186886597Y-185393328D02*
X187029455Y-185464757D01*
X188315169Y-185393328D02*
X188315169Y-186393328D01*
X187672311Y-185393328D02*
X187672311Y-186179042D01*
X187672311Y-186179042D02*
X187743740Y-186321900D01*
X187743740Y-186321900D02*
X187886597Y-186393328D01*
X187886597Y-186393328D02*
X188100883Y-186393328D01*
X188100883Y-186393328D02*
X188243740Y-186321900D01*
X188243740Y-186321900D02*
X188315169Y-186250471D01*
X188672312Y-186536185D02*
X189815169Y-186536185D01*
X190815169Y-186393328D02*
X190815169Y-184893328D01*
X190815169Y-186321900D02*
X190672311Y-186393328D01*
X190672311Y-186393328D02*
X190386597Y-186393328D01*
X190386597Y-186393328D02*
X190243740Y-186321900D01*
X190243740Y-186321900D02*
X190172311Y-186250471D01*
X190172311Y-186250471D02*
X190100883Y-186107614D01*
X190100883Y-186107614D02*
X190100883Y-185679042D01*
X190100883Y-185679042D02*
X190172311Y-185536185D01*
X190172311Y-185536185D02*
X190243740Y-185464757D01*
X190243740Y-185464757D02*
X190386597Y-185393328D01*
X190386597Y-185393328D02*
X190672311Y-185393328D01*
X190672311Y-185393328D02*
X190815169Y-185464757D01*
X192172312Y-186393328D02*
X192172312Y-185607614D01*
X192172312Y-185607614D02*
X192100883Y-185464757D01*
X192100883Y-185464757D02*
X191958026Y-185393328D01*
X191958026Y-185393328D02*
X191672312Y-185393328D01*
X191672312Y-185393328D02*
X191529454Y-185464757D01*
X192172312Y-186321900D02*
X192029454Y-186393328D01*
X192029454Y-186393328D02*
X191672312Y-186393328D01*
X191672312Y-186393328D02*
X191529454Y-186321900D01*
X191529454Y-186321900D02*
X191458026Y-186179042D01*
X191458026Y-186179042D02*
X191458026Y-186036185D01*
X191458026Y-186036185D02*
X191529454Y-185893328D01*
X191529454Y-185893328D02*
X191672312Y-185821900D01*
X191672312Y-185821900D02*
X192029454Y-185821900D01*
X192029454Y-185821900D02*
X192172312Y-185750471D01*
X192672312Y-185393328D02*
X193243740Y-185393328D01*
X192886597Y-184893328D02*
X192886597Y-186179042D01*
X192886597Y-186179042D02*
X192958026Y-186321900D01*
X192958026Y-186321900D02*
X193100883Y-186393328D01*
X193100883Y-186393328D02*
X193243740Y-186393328D01*
X194386598Y-186393328D02*
X194386598Y-185607614D01*
X194386598Y-185607614D02*
X194315169Y-185464757D01*
X194315169Y-185464757D02*
X194172312Y-185393328D01*
X194172312Y-185393328D02*
X193886598Y-185393328D01*
X193886598Y-185393328D02*
X193743740Y-185464757D01*
X194386598Y-186321900D02*
X194243740Y-186393328D01*
X194243740Y-186393328D02*
X193886598Y-186393328D01*
X193886598Y-186393328D02*
X193743740Y-186321900D01*
X193743740Y-186321900D02*
X193672312Y-186179042D01*
X193672312Y-186179042D02*
X193672312Y-186036185D01*
X193672312Y-186036185D02*
X193743740Y-185893328D01*
X193743740Y-185893328D02*
X193886598Y-185821900D01*
X193886598Y-185821900D02*
X194243740Y-185821900D01*
X194243740Y-185821900D02*
X194386598Y-185750471D01*
X195315169Y-186393328D02*
X195172312Y-186321900D01*
X195172312Y-186321900D02*
X195100883Y-186179042D01*
X195100883Y-186179042D02*
X195100883Y-184893328D01*
X196100883Y-186393328D02*
X195958026Y-186321900D01*
X195958026Y-186321900D02*
X195886597Y-186250471D01*
X195886597Y-186250471D02*
X195815169Y-186107614D01*
X195815169Y-186107614D02*
X195815169Y-185679042D01*
X195815169Y-185679042D02*
X195886597Y-185536185D01*
X195886597Y-185536185D02*
X195958026Y-185464757D01*
X195958026Y-185464757D02*
X196100883Y-185393328D01*
X196100883Y-185393328D02*
X196315169Y-185393328D01*
X196315169Y-185393328D02*
X196458026Y-185464757D01*
X196458026Y-185464757D02*
X196529455Y-185536185D01*
X196529455Y-185536185D02*
X196600883Y-185679042D01*
X196600883Y-185679042D02*
X196600883Y-186107614D01*
X196600883Y-186107614D02*
X196529455Y-186250471D01*
X196529455Y-186250471D02*
X196458026Y-186321900D01*
X196458026Y-186321900D02*
X196315169Y-186393328D01*
X196315169Y-186393328D02*
X196100883Y-186393328D01*
X197886598Y-185393328D02*
X197886598Y-186607614D01*
X197886598Y-186607614D02*
X197815169Y-186750471D01*
X197815169Y-186750471D02*
X197743740Y-186821900D01*
X197743740Y-186821900D02*
X197600883Y-186893328D01*
X197600883Y-186893328D02*
X197386598Y-186893328D01*
X197386598Y-186893328D02*
X197243740Y-186821900D01*
X197886598Y-186321900D02*
X197743740Y-186393328D01*
X197743740Y-186393328D02*
X197458026Y-186393328D01*
X197458026Y-186393328D02*
X197315169Y-186321900D01*
X197315169Y-186321900D02*
X197243740Y-186250471D01*
X197243740Y-186250471D02*
X197172312Y-186107614D01*
X197172312Y-186107614D02*
X197172312Y-185679042D01*
X197172312Y-185679042D02*
X197243740Y-185536185D01*
X197243740Y-185536185D02*
X197315169Y-185464757D01*
X197315169Y-185464757D02*
X197458026Y-185393328D01*
X197458026Y-185393328D02*
X197743740Y-185393328D01*
X197743740Y-185393328D02*
X197886598Y-185464757D01*
X199243741Y-185393328D02*
X199243741Y-186607614D01*
X199243741Y-186607614D02*
X199172312Y-186750471D01*
X199172312Y-186750471D02*
X199100883Y-186821900D01*
X199100883Y-186821900D02*
X198958026Y-186893328D01*
X198958026Y-186893328D02*
X198743741Y-186893328D01*
X198743741Y-186893328D02*
X198600883Y-186821900D01*
X199243741Y-186321900D02*
X199100883Y-186393328D01*
X199100883Y-186393328D02*
X198815169Y-186393328D01*
X198815169Y-186393328D02*
X198672312Y-186321900D01*
X198672312Y-186321900D02*
X198600883Y-186250471D01*
X198600883Y-186250471D02*
X198529455Y-186107614D01*
X198529455Y-186107614D02*
X198529455Y-185679042D01*
X198529455Y-185679042D02*
X198600883Y-185536185D01*
X198600883Y-185536185D02*
X198672312Y-185464757D01*
X198672312Y-185464757D02*
X198815169Y-185393328D01*
X198815169Y-185393328D02*
X199100883Y-185393328D01*
X199100883Y-185393328D02*
X199243741Y-185464757D01*
X200529455Y-186321900D02*
X200386598Y-186393328D01*
X200386598Y-186393328D02*
X200100884Y-186393328D01*
X200100884Y-186393328D02*
X199958026Y-186321900D01*
X199958026Y-186321900D02*
X199886598Y-186179042D01*
X199886598Y-186179042D02*
X199886598Y-185607614D01*
X199886598Y-185607614D02*
X199958026Y-185464757D01*
X199958026Y-185464757D02*
X200100884Y-185393328D01*
X200100884Y-185393328D02*
X200386598Y-185393328D01*
X200386598Y-185393328D02*
X200529455Y-185464757D01*
X200529455Y-185464757D02*
X200600884Y-185607614D01*
X200600884Y-185607614D02*
X200600884Y-185750471D01*
X200600884Y-185750471D02*
X199886598Y-185893328D01*
X201243740Y-186393328D02*
X201243740Y-185393328D01*
X201243740Y-185679042D02*
X201315169Y-185536185D01*
X201315169Y-185536185D02*
X201386598Y-185464757D01*
X201386598Y-185464757D02*
X201529455Y-185393328D01*
X201529455Y-185393328D02*
X201672312Y-185393328D01*
X202172311Y-186250471D02*
X202243740Y-186321900D01*
X202243740Y-186321900D02*
X202172311Y-186393328D01*
X202172311Y-186393328D02*
X202100883Y-186321900D01*
X202100883Y-186321900D02*
X202172311Y-186250471D01*
X202172311Y-186250471D02*
X202172311Y-186393328D01*
X202886597Y-186393328D02*
X202886597Y-184893328D01*
X203029455Y-185821900D02*
X203458026Y-186393328D01*
X203458026Y-185393328D02*
X202886597Y-185964757D01*
X204100883Y-186393328D02*
X204100883Y-185393328D01*
X204100883Y-184893328D02*
X204029455Y-184964757D01*
X204029455Y-184964757D02*
X204100883Y-185036185D01*
X204100883Y-185036185D02*
X204172312Y-184964757D01*
X204172312Y-184964757D02*
X204100883Y-184893328D01*
X204100883Y-184893328D02*
X204100883Y-185036185D01*
X205458027Y-186321900D02*
X205315169Y-186393328D01*
X205315169Y-186393328D02*
X205029455Y-186393328D01*
X205029455Y-186393328D02*
X204886598Y-186321900D01*
X204886598Y-186321900D02*
X204815169Y-186250471D01*
X204815169Y-186250471D02*
X204743741Y-186107614D01*
X204743741Y-186107614D02*
X204743741Y-185679042D01*
X204743741Y-185679042D02*
X204815169Y-185536185D01*
X204815169Y-185536185D02*
X204886598Y-185464757D01*
X204886598Y-185464757D02*
X205029455Y-185393328D01*
X205029455Y-185393328D02*
X205315169Y-185393328D01*
X205315169Y-185393328D02*
X205458027Y-185464757D01*
X206743741Y-186393328D02*
X206743741Y-185607614D01*
X206743741Y-185607614D02*
X206672312Y-185464757D01*
X206672312Y-185464757D02*
X206529455Y-185393328D01*
X206529455Y-185393328D02*
X206243741Y-185393328D01*
X206243741Y-185393328D02*
X206100883Y-185464757D01*
X206743741Y-186321900D02*
X206600883Y-186393328D01*
X206600883Y-186393328D02*
X206243741Y-186393328D01*
X206243741Y-186393328D02*
X206100883Y-186321900D01*
X206100883Y-186321900D02*
X206029455Y-186179042D01*
X206029455Y-186179042D02*
X206029455Y-186036185D01*
X206029455Y-186036185D02*
X206100883Y-185893328D01*
X206100883Y-185893328D02*
X206243741Y-185821900D01*
X206243741Y-185821900D02*
X206600883Y-185821900D01*
X206600883Y-185821900D02*
X206743741Y-185750471D01*
X208100884Y-186393328D02*
X208100884Y-184893328D01*
X208100884Y-186321900D02*
X207958026Y-186393328D01*
X207958026Y-186393328D02*
X207672312Y-186393328D01*
X207672312Y-186393328D02*
X207529455Y-186321900D01*
X207529455Y-186321900D02*
X207458026Y-186250471D01*
X207458026Y-186250471D02*
X207386598Y-186107614D01*
X207386598Y-186107614D02*
X207386598Y-185679042D01*
X207386598Y-185679042D02*
X207458026Y-185536185D01*
X207458026Y-185536185D02*
X207529455Y-185464757D01*
X207529455Y-185464757D02*
X207672312Y-185393328D01*
X207672312Y-185393328D02*
X207958026Y-185393328D01*
X207958026Y-185393328D02*
X208100884Y-185464757D01*
X208458027Y-186536185D02*
X209600884Y-186536185D01*
X209958026Y-185393328D02*
X209958026Y-186893328D01*
X209958026Y-185464757D02*
X210100884Y-185393328D01*
X210100884Y-185393328D02*
X210386598Y-185393328D01*
X210386598Y-185393328D02*
X210529455Y-185464757D01*
X210529455Y-185464757D02*
X210600884Y-185536185D01*
X210600884Y-185536185D02*
X210672312Y-185679042D01*
X210672312Y-185679042D02*
X210672312Y-186107614D01*
X210672312Y-186107614D02*
X210600884Y-186250471D01*
X210600884Y-186250471D02*
X210529455Y-186321900D01*
X210529455Y-186321900D02*
X210386598Y-186393328D01*
X210386598Y-186393328D02*
X210100884Y-186393328D01*
X210100884Y-186393328D02*
X209958026Y-186321900D01*
X211958027Y-186321900D02*
X211815169Y-186393328D01*
X211815169Y-186393328D02*
X211529455Y-186393328D01*
X211529455Y-186393328D02*
X211386598Y-186321900D01*
X211386598Y-186321900D02*
X211315169Y-186250471D01*
X211315169Y-186250471D02*
X211243741Y-186107614D01*
X211243741Y-186107614D02*
X211243741Y-185679042D01*
X211243741Y-185679042D02*
X211315169Y-185536185D01*
X211315169Y-185536185D02*
X211386598Y-185464757D01*
X211386598Y-185464757D02*
X211529455Y-185393328D01*
X211529455Y-185393328D02*
X211815169Y-185393328D01*
X211815169Y-185393328D02*
X211958027Y-185464757D01*
X212600883Y-186393328D02*
X212600883Y-184893328D01*
X212600883Y-185464757D02*
X212743741Y-185393328D01*
X212743741Y-185393328D02*
X213029455Y-185393328D01*
X213029455Y-185393328D02*
X213172312Y-185464757D01*
X213172312Y-185464757D02*
X213243741Y-185536185D01*
X213243741Y-185536185D02*
X213315169Y-185679042D01*
X213315169Y-185679042D02*
X213315169Y-186107614D01*
X213315169Y-186107614D02*
X213243741Y-186250471D01*
X213243741Y-186250471D02*
X213172312Y-186321900D01*
X213172312Y-186321900D02*
X213029455Y-186393328D01*
X213029455Y-186393328D02*
X212743741Y-186393328D01*
X212743741Y-186393328D02*
X212600883Y-186321900D01*
D10*
D11*
X177002200Y-181507200D02*
X285002200Y-181507200D01*
D10*
D11*
X178386598Y-183621900D02*
X178600884Y-183693328D01*
X178600884Y-183693328D02*
X178958026Y-183693328D01*
X178958026Y-183693328D02*
X179100884Y-183621900D01*
X179100884Y-183621900D02*
X179172312Y-183550471D01*
X179172312Y-183550471D02*
X179243741Y-183407614D01*
X179243741Y-183407614D02*
X179243741Y-183264757D01*
X179243741Y-183264757D02*
X179172312Y-183121900D01*
X179172312Y-183121900D02*
X179100884Y-183050471D01*
X179100884Y-183050471D02*
X178958026Y-182979042D01*
X178958026Y-182979042D02*
X178672312Y-182907614D01*
X178672312Y-182907614D02*
X178529455Y-182836185D01*
X178529455Y-182836185D02*
X178458026Y-182764757D01*
X178458026Y-182764757D02*
X178386598Y-182621900D01*
X178386598Y-182621900D02*
X178386598Y-182479042D01*
X178386598Y-182479042D02*
X178458026Y-182336185D01*
X178458026Y-182336185D02*
X178529455Y-182264757D01*
X178529455Y-182264757D02*
X178672312Y-182193328D01*
X178672312Y-182193328D02*
X179029455Y-182193328D01*
X179029455Y-182193328D02*
X179243741Y-182264757D01*
X179886597Y-183693328D02*
X179886597Y-182193328D01*
X180529455Y-183693328D02*
X180529455Y-182907614D01*
X180529455Y-182907614D02*
X180458026Y-182764757D01*
X180458026Y-182764757D02*
X180315169Y-182693328D01*
X180315169Y-182693328D02*
X180100883Y-182693328D01*
X180100883Y-182693328D02*
X179958026Y-182764757D01*
X179958026Y-182764757D02*
X179886597Y-182836185D01*
X181815169Y-183621900D02*
X181672312Y-183693328D01*
X181672312Y-183693328D02*
X181386598Y-183693328D01*
X181386598Y-183693328D02*
X181243740Y-183621900D01*
X181243740Y-183621900D02*
X181172312Y-183479042D01*
X181172312Y-183479042D02*
X181172312Y-182907614D01*
X181172312Y-182907614D02*
X181243740Y-182764757D01*
X181243740Y-182764757D02*
X181386598Y-182693328D01*
X181386598Y-182693328D02*
X181672312Y-182693328D01*
X181672312Y-182693328D02*
X181815169Y-182764757D01*
X181815169Y-182764757D02*
X181886598Y-182907614D01*
X181886598Y-182907614D02*
X181886598Y-183050471D01*
X181886598Y-183050471D02*
X181172312Y-183193328D01*
X183100883Y-183621900D02*
X182958026Y-183693328D01*
X182958026Y-183693328D02*
X182672312Y-183693328D01*
X182672312Y-183693328D02*
X182529454Y-183621900D01*
X182529454Y-183621900D02*
X182458026Y-183479042D01*
X182458026Y-183479042D02*
X182458026Y-182907614D01*
X182458026Y-182907614D02*
X182529454Y-182764757D01*
X182529454Y-182764757D02*
X182672312Y-182693328D01*
X182672312Y-182693328D02*
X182958026Y-182693328D01*
X182958026Y-182693328D02*
X183100883Y-182764757D01*
X183100883Y-182764757D02*
X183172312Y-182907614D01*
X183172312Y-182907614D02*
X183172312Y-183050471D01*
X183172312Y-183050471D02*
X182458026Y-183193328D01*
X183600883Y-182693328D02*
X184172311Y-182693328D01*
X183815168Y-182193328D02*
X183815168Y-183479042D01*
X183815168Y-183479042D02*
X183886597Y-183621900D01*
X183886597Y-183621900D02*
X184029454Y-183693328D01*
X184029454Y-183693328D02*
X184172311Y-183693328D01*
X184672311Y-183550471D02*
X184743740Y-183621900D01*
X184743740Y-183621900D02*
X184672311Y-183693328D01*
X184672311Y-183693328D02*
X184600883Y-183621900D01*
X184600883Y-183621900D02*
X184672311Y-183550471D01*
X184672311Y-183550471D02*
X184672311Y-183693328D01*
X184672311Y-182764757D02*
X184743740Y-182836185D01*
X184743740Y-182836185D02*
X184672311Y-182907614D01*
X184672311Y-182907614D02*
X184600883Y-182836185D01*
X184600883Y-182836185D02*
X184672311Y-182764757D01*
X184672311Y-182764757D02*
X184672311Y-182907614D01*
D10*
D12*
X178342425Y-179185528D02*
X179199568Y-179185528D01*
X178770996Y-180685528D02*
X178770996Y-179185528D01*
X179699567Y-180685528D02*
X179699567Y-179185528D01*
X180342425Y-180685528D02*
X180342425Y-179899814D01*
X180342425Y-179899814D02*
X180270996Y-179756957D01*
X180270996Y-179756957D02*
X180128139Y-179685528D01*
X180128139Y-179685528D02*
X179913853Y-179685528D01*
X179913853Y-179685528D02*
X179770996Y-179756957D01*
X179770996Y-179756957D02*
X179699567Y-179828385D01*
X181628139Y-180614100D02*
X181485282Y-180685528D01*
X181485282Y-180685528D02*
X181199568Y-180685528D01*
X181199568Y-180685528D02*
X181056710Y-180614100D01*
X181056710Y-180614100D02*
X180985282Y-180471242D01*
X180985282Y-180471242D02*
X180985282Y-179899814D01*
X180985282Y-179899814D02*
X181056710Y-179756957D01*
X181056710Y-179756957D02*
X181199568Y-179685528D01*
X181199568Y-179685528D02*
X181485282Y-179685528D01*
X181485282Y-179685528D02*
X181628139Y-179756957D01*
X181628139Y-179756957D02*
X181699568Y-179899814D01*
X181699568Y-179899814D02*
X181699568Y-180042671D01*
X181699568Y-180042671D02*
X180985282Y-180185528D01*
X183770996Y-179185528D02*
X184056710Y-179185528D01*
X184056710Y-179185528D02*
X184199567Y-179256957D01*
X184199567Y-179256957D02*
X184342424Y-179399814D01*
X184342424Y-179399814D02*
X184413853Y-179685528D01*
X184413853Y-179685528D02*
X184413853Y-180185528D01*
X184413853Y-180185528D02*
X184342424Y-180471242D01*
X184342424Y-180471242D02*
X184199567Y-180614100D01*
X184199567Y-180614100D02*
X184056710Y-180685528D01*
X184056710Y-180685528D02*
X183770996Y-180685528D01*
X183770996Y-180685528D02*
X183628139Y-180614100D01*
X183628139Y-180614100D02*
X183485281Y-180471242D01*
X183485281Y-180471242D02*
X183413853Y-180185528D01*
X183413853Y-180185528D02*
X183413853Y-179685528D01*
X183413853Y-179685528D02*
X183485281Y-179399814D01*
X183485281Y-179399814D02*
X183628139Y-179256957D01*
X183628139Y-179256957D02*
X183770996Y-179185528D01*
X185699568Y-180614100D02*
X185556710Y-180685528D01*
X185556710Y-180685528D02*
X185270996Y-180685528D01*
X185270996Y-180685528D02*
X185128139Y-180614100D01*
X185128139Y-180614100D02*
X185056710Y-180542671D01*
X185056710Y-180542671D02*
X184985282Y-180399814D01*
X184985282Y-180399814D02*
X184985282Y-179971242D01*
X184985282Y-179971242D02*
X185056710Y-179828385D01*
X185056710Y-179828385D02*
X185128139Y-179756957D01*
X185128139Y-179756957D02*
X185270996Y-179685528D01*
X185270996Y-179685528D02*
X185556710Y-179685528D01*
X185556710Y-179685528D02*
X185699568Y-179756957D01*
X186128139Y-179685528D02*
X186699567Y-179685528D01*
X186342424Y-179185528D02*
X186342424Y-180471242D01*
X186342424Y-180471242D02*
X186413853Y-180614100D01*
X186413853Y-180614100D02*
X186556710Y-180685528D01*
X186556710Y-180685528D02*
X186699567Y-180685528D01*
X187413853Y-180685528D02*
X187270996Y-180614100D01*
X187270996Y-180614100D02*
X187199567Y-180542671D01*
X187199567Y-180542671D02*
X187128139Y-180399814D01*
X187128139Y-180399814D02*
X187128139Y-179971242D01*
X187128139Y-179971242D02*
X187199567Y-179828385D01*
X187199567Y-179828385D02*
X187270996Y-179756957D01*
X187270996Y-179756957D02*
X187413853Y-179685528D01*
X187413853Y-179685528D02*
X187628139Y-179685528D01*
X187628139Y-179685528D02*
X187770996Y-179756957D01*
X187770996Y-179756957D02*
X187842425Y-179828385D01*
X187842425Y-179828385D02*
X187913853Y-179971242D01*
X187913853Y-179971242D02*
X187913853Y-180399814D01*
X187913853Y-180399814D02*
X187842425Y-180542671D01*
X187842425Y-180542671D02*
X187770996Y-180614100D01*
X187770996Y-180614100D02*
X187628139Y-180685528D01*
X187628139Y-180685528D02*
X187413853Y-180685528D01*
X188342425Y-179685528D02*
X188913853Y-179685528D01*
X188556710Y-179185528D02*
X188556710Y-180471242D01*
X188556710Y-180471242D02*
X188628139Y-180614100D01*
X188628139Y-180614100D02*
X188770996Y-180685528D01*
X188770996Y-180685528D02*
X188913853Y-180685528D01*
X189413853Y-180685528D02*
X189413853Y-179185528D01*
X190056711Y-180685528D02*
X190056711Y-179899814D01*
X190056711Y-179899814D02*
X189985282Y-179756957D01*
X189985282Y-179756957D02*
X189842425Y-179685528D01*
X189842425Y-179685528D02*
X189628139Y-179685528D01*
X189628139Y-179685528D02*
X189485282Y-179756957D01*
X189485282Y-179756957D02*
X189413853Y-179828385D01*
X190985282Y-180685528D02*
X190842425Y-180614100D01*
X190842425Y-180614100D02*
X190770996Y-180542671D01*
X190770996Y-180542671D02*
X190699568Y-180399814D01*
X190699568Y-180399814D02*
X190699568Y-179971242D01*
X190699568Y-179971242D02*
X190770996Y-179828385D01*
X190770996Y-179828385D02*
X190842425Y-179756957D01*
X190842425Y-179756957D02*
X190985282Y-179685528D01*
X190985282Y-179685528D02*
X191199568Y-179685528D01*
X191199568Y-179685528D02*
X191342425Y-179756957D01*
X191342425Y-179756957D02*
X191413854Y-179828385D01*
X191413854Y-179828385D02*
X191485282Y-179971242D01*
X191485282Y-179971242D02*
X191485282Y-180399814D01*
X191485282Y-180399814D02*
X191413854Y-180542671D01*
X191413854Y-180542671D02*
X191342425Y-180614100D01*
X191342425Y-180614100D02*
X191199568Y-180685528D01*
X191199568Y-180685528D02*
X190985282Y-180685528D01*
X192128139Y-180685528D02*
X192128139Y-179685528D01*
X192128139Y-179971242D02*
X192199568Y-179828385D01*
X192199568Y-179828385D02*
X192270997Y-179756957D01*
X192270997Y-179756957D02*
X192413854Y-179685528D01*
X192413854Y-179685528D02*
X192556711Y-179685528D01*
X193056710Y-179685528D02*
X193056710Y-181185528D01*
X193056710Y-179756957D02*
X193199568Y-179685528D01*
X193199568Y-179685528D02*
X193485282Y-179685528D01*
X193485282Y-179685528D02*
X193628139Y-179756957D01*
X193628139Y-179756957D02*
X193699568Y-179828385D01*
X193699568Y-179828385D02*
X193770996Y-179971242D01*
X193770996Y-179971242D02*
X193770996Y-180399814D01*
X193770996Y-180399814D02*
X193699568Y-180542671D01*
X193699568Y-180542671D02*
X193628139Y-180614100D01*
X193628139Y-180614100D02*
X193485282Y-180685528D01*
X193485282Y-180685528D02*
X193199568Y-180685528D01*
X193199568Y-180685528D02*
X193056710Y-180614100D01*
X194985282Y-180614100D02*
X194842425Y-180685528D01*
X194842425Y-180685528D02*
X194556711Y-180685528D01*
X194556711Y-180685528D02*
X194413853Y-180614100D01*
X194413853Y-180614100D02*
X194342425Y-180471242D01*
X194342425Y-180471242D02*
X194342425Y-179899814D01*
X194342425Y-179899814D02*
X194413853Y-179756957D01*
X194413853Y-179756957D02*
X194556711Y-179685528D01*
X194556711Y-179685528D02*
X194842425Y-179685528D01*
X194842425Y-179685528D02*
X194985282Y-179756957D01*
X194985282Y-179756957D02*
X195056711Y-179899814D01*
X195056711Y-179899814D02*
X195056711Y-180042671D01*
X195056711Y-180042671D02*
X194342425Y-180185528D01*
D10*
D11*
X178386598Y-176336185D02*
X178458026Y-176264757D01*
X178458026Y-176264757D02*
X178600884Y-176193328D01*
X178600884Y-176193328D02*
X178958026Y-176193328D01*
X178958026Y-176193328D02*
X179100884Y-176264757D01*
X179100884Y-176264757D02*
X179172312Y-176336185D01*
X179172312Y-176336185D02*
X179243741Y-176479042D01*
X179243741Y-176479042D02*
X179243741Y-176621900D01*
X179243741Y-176621900D02*
X179172312Y-176836185D01*
X179172312Y-176836185D02*
X178315169Y-177693328D01*
X178315169Y-177693328D02*
X179243741Y-177693328D01*
X179886597Y-177121900D02*
X181029455Y-177121900D01*
X181958026Y-177693328D02*
X181815169Y-177621900D01*
X181815169Y-177621900D02*
X181743740Y-177479042D01*
X181743740Y-177479042D02*
X181743740Y-176193328D01*
X183172312Y-177693328D02*
X183172312Y-176907614D01*
X183172312Y-176907614D02*
X183100883Y-176764757D01*
X183100883Y-176764757D02*
X182958026Y-176693328D01*
X182958026Y-176693328D02*
X182672312Y-176693328D01*
X182672312Y-176693328D02*
X182529454Y-176764757D01*
X183172312Y-177621900D02*
X183029454Y-177693328D01*
X183029454Y-177693328D02*
X182672312Y-177693328D01*
X182672312Y-177693328D02*
X182529454Y-177621900D01*
X182529454Y-177621900D02*
X182458026Y-177479042D01*
X182458026Y-177479042D02*
X182458026Y-177336185D01*
X182458026Y-177336185D02*
X182529454Y-177193328D01*
X182529454Y-177193328D02*
X182672312Y-177121900D01*
X182672312Y-177121900D02*
X183029454Y-177121900D01*
X183029454Y-177121900D02*
X183172312Y-177050471D01*
X183743740Y-176693328D02*
X184100883Y-177693328D01*
X184458026Y-176693328D02*
X184100883Y-177693328D01*
X184100883Y-177693328D02*
X183958026Y-178050471D01*
X183958026Y-178050471D02*
X183886597Y-178121900D01*
X183886597Y-178121900D02*
X183743740Y-178193328D01*
X185600883Y-177621900D02*
X185458026Y-177693328D01*
X185458026Y-177693328D02*
X185172312Y-177693328D01*
X185172312Y-177693328D02*
X185029454Y-177621900D01*
X185029454Y-177621900D02*
X184958026Y-177479042D01*
X184958026Y-177479042D02*
X184958026Y-176907614D01*
X184958026Y-176907614D02*
X185029454Y-176764757D01*
X185029454Y-176764757D02*
X185172312Y-176693328D01*
X185172312Y-176693328D02*
X185458026Y-176693328D01*
X185458026Y-176693328D02*
X185600883Y-176764757D01*
X185600883Y-176764757D02*
X185672312Y-176907614D01*
X185672312Y-176907614D02*
X185672312Y-177050471D01*
X185672312Y-177050471D02*
X184958026Y-177193328D01*
X186315168Y-177693328D02*
X186315168Y-176693328D01*
X186315168Y-176979042D02*
X186386597Y-176836185D01*
X186386597Y-176836185D02*
X186458026Y-176764757D01*
X186458026Y-176764757D02*
X186600883Y-176693328D01*
X186600883Y-176693328D02*
X186743740Y-176693328D01*
X188386596Y-177693328D02*
X188386596Y-176193328D01*
X188386596Y-176193328D02*
X188958025Y-176193328D01*
X188958025Y-176193328D02*
X189100882Y-176264757D01*
X189100882Y-176264757D02*
X189172311Y-176336185D01*
X189172311Y-176336185D02*
X189243739Y-176479042D01*
X189243739Y-176479042D02*
X189243739Y-176693328D01*
X189243739Y-176693328D02*
X189172311Y-176836185D01*
X189172311Y-176836185D02*
X189100882Y-176907614D01*
X189100882Y-176907614D02*
X188958025Y-176979042D01*
X188958025Y-176979042D02*
X188386596Y-176979042D01*
X190743739Y-177550471D02*
X190672311Y-177621900D01*
X190672311Y-177621900D02*
X190458025Y-177693328D01*
X190458025Y-177693328D02*
X190315168Y-177693328D01*
X190315168Y-177693328D02*
X190100882Y-177621900D01*
X190100882Y-177621900D02*
X189958025Y-177479042D01*
X189958025Y-177479042D02*
X189886596Y-177336185D01*
X189886596Y-177336185D02*
X189815168Y-177050471D01*
X189815168Y-177050471D02*
X189815168Y-176836185D01*
X189815168Y-176836185D02*
X189886596Y-176550471D01*
X189886596Y-176550471D02*
X189958025Y-176407614D01*
X189958025Y-176407614D02*
X190100882Y-176264757D01*
X190100882Y-176264757D02*
X190315168Y-176193328D01*
X190315168Y-176193328D02*
X190458025Y-176193328D01*
X190458025Y-176193328D02*
X190672311Y-176264757D01*
X190672311Y-176264757D02*
X190743739Y-176336185D01*
X191886596Y-176907614D02*
X192100882Y-176979042D01*
X192100882Y-176979042D02*
X192172311Y-177050471D01*
X192172311Y-177050471D02*
X192243739Y-177193328D01*
X192243739Y-177193328D02*
X192243739Y-177407614D01*
X192243739Y-177407614D02*
X192172311Y-177550471D01*
X192172311Y-177550471D02*
X192100882Y-177621900D01*
X192100882Y-177621900D02*
X191958025Y-177693328D01*
X191958025Y-177693328D02*
X191386596Y-177693328D01*
X191386596Y-177693328D02*
X191386596Y-176193328D01*
X191386596Y-176193328D02*
X191886596Y-176193328D01*
X191886596Y-176193328D02*
X192029454Y-176264757D01*
X192029454Y-176264757D02*
X192100882Y-176336185D01*
X192100882Y-176336185D02*
X192172311Y-176479042D01*
X192172311Y-176479042D02*
X192172311Y-176621900D01*
X192172311Y-176621900D02*
X192100882Y-176764757D01*
X192100882Y-176764757D02*
X192029454Y-176836185D01*
X192029454Y-176836185D02*
X191886596Y-176907614D01*
X191886596Y-176907614D02*
X191386596Y-176907614D01*
X193886596Y-176693328D02*
X194243739Y-177693328D01*
X194243739Y-177693328D02*
X194600882Y-176693328D01*
X195743739Y-177621900D02*
X195600882Y-177693328D01*
X195600882Y-177693328D02*
X195315168Y-177693328D01*
X195315168Y-177693328D02*
X195172310Y-177621900D01*
X195172310Y-177621900D02*
X195100882Y-177479042D01*
X195100882Y-177479042D02*
X195100882Y-176907614D01*
X195100882Y-176907614D02*
X195172310Y-176764757D01*
X195172310Y-176764757D02*
X195315168Y-176693328D01*
X195315168Y-176693328D02*
X195600882Y-176693328D01*
X195600882Y-176693328D02*
X195743739Y-176764757D01*
X195743739Y-176764757D02*
X195815168Y-176907614D01*
X195815168Y-176907614D02*
X195815168Y-177050471D01*
X195815168Y-177050471D02*
X195100882Y-177193328D01*
X196458024Y-177693328D02*
X196458024Y-176693328D01*
X196458024Y-176979042D02*
X196529453Y-176836185D01*
X196529453Y-176836185D02*
X196600882Y-176764757D01*
X196600882Y-176764757D02*
X196743739Y-176693328D01*
X196743739Y-176693328D02*
X196886596Y-176693328D01*
X197315167Y-177621900D02*
X197458024Y-177693328D01*
X197458024Y-177693328D02*
X197743738Y-177693328D01*
X197743738Y-177693328D02*
X197886595Y-177621900D01*
X197886595Y-177621900D02*
X197958024Y-177479042D01*
X197958024Y-177479042D02*
X197958024Y-177407614D01*
X197958024Y-177407614D02*
X197886595Y-177264757D01*
X197886595Y-177264757D02*
X197743738Y-177193328D01*
X197743738Y-177193328D02*
X197529453Y-177193328D01*
X197529453Y-177193328D02*
X197386595Y-177121900D01*
X197386595Y-177121900D02*
X197315167Y-176979042D01*
X197315167Y-176979042D02*
X197315167Y-176907614D01*
X197315167Y-176907614D02*
X197386595Y-176764757D01*
X197386595Y-176764757D02*
X197529453Y-176693328D01*
X197529453Y-176693328D02*
X197743738Y-176693328D01*
X197743738Y-176693328D02*
X197886595Y-176764757D01*
X198600881Y-177693328D02*
X198600881Y-176693328D01*
X198600881Y-176193328D02*
X198529453Y-176264757D01*
X198529453Y-176264757D02*
X198600881Y-176336185D01*
X198600881Y-176336185D02*
X198672310Y-176264757D01*
X198672310Y-176264757D02*
X198600881Y-176193328D01*
X198600881Y-176193328D02*
X198600881Y-176336185D01*
X199529453Y-177693328D02*
X199386596Y-177621900D01*
X199386596Y-177621900D02*
X199315167Y-177550471D01*
X199315167Y-177550471D02*
X199243739Y-177407614D01*
X199243739Y-177407614D02*
X199243739Y-176979042D01*
X199243739Y-176979042D02*
X199315167Y-176836185D01*
X199315167Y-176836185D02*
X199386596Y-176764757D01*
X199386596Y-176764757D02*
X199529453Y-176693328D01*
X199529453Y-176693328D02*
X199743739Y-176693328D01*
X199743739Y-176693328D02*
X199886596Y-176764757D01*
X199886596Y-176764757D02*
X199958025Y-176836185D01*
X199958025Y-176836185D02*
X200029453Y-176979042D01*
X200029453Y-176979042D02*
X200029453Y-177407614D01*
X200029453Y-177407614D02*
X199958025Y-177550471D01*
X199958025Y-177550471D02*
X199886596Y-177621900D01*
X199886596Y-177621900D02*
X199743739Y-177693328D01*
X199743739Y-177693328D02*
X199529453Y-177693328D01*
X200672310Y-176693328D02*
X200672310Y-177693328D01*
X200672310Y-176836185D02*
X200743739Y-176764757D01*
X200743739Y-176764757D02*
X200886596Y-176693328D01*
X200886596Y-176693328D02*
X201100882Y-176693328D01*
X201100882Y-176693328D02*
X201243739Y-176764757D01*
X201243739Y-176764757D02*
X201315168Y-176907614D01*
X201315168Y-176907614D02*
X201315168Y-177693328D01*
D10*
D11*
X197002200Y-191507200D02*
X197002200Y-194507200D01*
D10*
D11*
X261002200Y-191507200D02*
X261002200Y-198007200D01*
D14*
%TO.C,U2*%
X109740000Y-86995000D03*
X109740000Y-88265000D03*
X109740000Y-89535000D03*
X109740000Y-90805000D03*
X114690000Y-90805000D03*
X114690000Y-89535000D03*
X114690000Y-88265000D03*
X114690000Y-86995000D03*
%TD*%
D15*
%TO.C,C4*%
X132654000Y-93218000D03*
X134554000Y-93218000D03*
%TD*%
D16*
%TO.C,C5*%
X130175000Y-75565000D03*
X128275000Y-75565000D03*
%TD*%
D17*
%TO.C,J3*%
X132715000Y-97155000D03*
D18*
X135255000Y-97155000D03*
X137795000Y-97155000D03*
X140335000Y-97155000D03*
%TD*%
D19*
%TO.C,R4*%
X132795000Y-82550000D03*
X134620000Y-82550000D03*
%TD*%
D20*
%TO.C,H3*%
X147869232Y-73018200D03*
%TD*%
D21*
%TO.C,R2*%
X115353626Y-93471999D03*
X113528626Y-93471999D03*
%TD*%
D22*
%TO.C,U1*%
X108653445Y-74520600D03*
X108653445Y-75790600D03*
X108653445Y-77060600D03*
X108653445Y-78330600D03*
X115828445Y-78330600D03*
X115828445Y-77060600D03*
X115828445Y-75790600D03*
X115828445Y-74520600D03*
%TD*%
D16*
%TO.C,C2*%
X134554000Y-90170000D03*
X132654000Y-90170000D03*
%TD*%
D15*
%TO.C,C1*%
X119385000Y-75565000D03*
X121285000Y-75565000D03*
%TD*%
D23*
%TO.C,Y2*%
X104648000Y-91948000D03*
X104648000Y-86748000D03*
%TD*%
D24*
%TO.C,Y1*%
X127868000Y-91939246D03*
X122668000Y-91939246D03*
%TD*%
D20*
%TO.C,H4*%
X147935770Y-99694999D03*
%TD*%
D22*
%TO.C,U3*%
X108653445Y-80897156D03*
X108653445Y-82167156D03*
X108653445Y-83437156D03*
X108653445Y-84707156D03*
X115828445Y-84707156D03*
X115828445Y-83437156D03*
X115828445Y-82167156D03*
X115828445Y-80897156D03*
%TD*%
D19*
%TO.C,R3*%
X132795000Y-86360000D03*
X134620000Y-86360000D03*
%TD*%
%TO.C,R7*%
X132875000Y-79375000D03*
X134700000Y-79375000D03*
%TD*%
%TO.C,R1*%
X109173000Y-93472000D03*
X110998000Y-93472000D03*
%TD*%
D17*
%TO.C,J1*%
X106680000Y-97155000D03*
D18*
X109220000Y-97155000D03*
X111760000Y-97155000D03*
X114300000Y-97155000D03*
X116840000Y-97155000D03*
X119380000Y-97155000D03*
X121920000Y-97155000D03*
X124460000Y-97155000D03*
X127000000Y-97155000D03*
%TD*%
D25*
%TO.C,D1*%
X137190000Y-75565000D03*
X139065000Y-75565000D03*
%TD*%
D19*
%TO.C,R6*%
X137160000Y-82550000D03*
X138985000Y-82550000D03*
%TD*%
D15*
%TO.C,C3*%
X123835000Y-75565000D03*
X125735000Y-75565000D03*
%TD*%
D20*
%TO.C,H1*%
X101582293Y-72992052D03*
%TD*%
D17*
%TO.C,J2*%
X145415000Y-86995000D03*
D18*
X145415000Y-89535000D03*
X145415000Y-92075000D03*
X145415000Y-94615000D03*
%TD*%
D25*
%TO.C,D2*%
X132745000Y-75565000D03*
X134620000Y-75565000D03*
%TD*%
D17*
%TO.C,J4*%
X142875000Y-78105000D03*
D18*
X145415000Y-78105000D03*
X142875000Y-80645000D03*
X145415000Y-80645000D03*
X142875000Y-83185000D03*
X145415000Y-83185000D03*
%TD*%
D19*
%TO.C,R5*%
X137240000Y-79375000D03*
X139065000Y-79375000D03*
%TD*%
D20*
%TO.C,H2*%
X101589626Y-99694999D03*
%TD*%
D26*
%TO.C,U4*%
X120725071Y-80151816D03*
X120725071Y-80951816D03*
X120725071Y-81751816D03*
X120725071Y-82551816D03*
X120725071Y-83351816D03*
X120725071Y-84151816D03*
X120725071Y-84951816D03*
X120725071Y-85751816D03*
D27*
X122095071Y-87121816D03*
X122895071Y-87121816D03*
X123695071Y-87121816D03*
X124495071Y-87121816D03*
X125295071Y-87121816D03*
X126095071Y-87121816D03*
X126895071Y-87121816D03*
X127695071Y-87121816D03*
D26*
X129065071Y-85751816D03*
X129065071Y-84951816D03*
X129065071Y-84151816D03*
X129065071Y-83351816D03*
X129065071Y-82551816D03*
X129065071Y-81751816D03*
X129065071Y-80951816D03*
X129065071Y-80151816D03*
D27*
X127695071Y-78781816D03*
X126895071Y-78781816D03*
X126095071Y-78781816D03*
X125295071Y-78781816D03*
X124495071Y-78781816D03*
X123695071Y-78781816D03*
X122895071Y-78781816D03*
X122095071Y-78781816D03*
%TD*%
D17*
%TO.C,BT1*%
X104775000Y-78105000D03*
D18*
X104775000Y-80645000D03*
%TD*%
M02*
