%TF.GenerationSoftware,KiCad,Pcbnew,9.0.5*%
%TF.CreationDate,2025-11-03T15:57:16+06:00*%
%TF.ProjectId,mcu_datalogger,6d63755f-6461-4746-916c-6f676765722e,1*%
%TF.SameCoordinates,Original*%
%TF.FileFunction,Copper,L2,Bot*%
%TF.FilePolarity,Positive*%
%FSLAX46Y46*%
G04 Gerber Fmt 4.6, Leading zero omitted, Abs format (unit mm)*
G04 Created by KiCad (PCBNEW 9.0.5) date 2025-11-03 15:57:16*
%MOMM*%
%LPD*%
G01*
G04 APERTURE LIST*
%ADD10C,0.100000*%
%ADD11C,0.150000*%
%ADD12C,0.300000*%
%ADD13C,0.400000*%
%TA.AperFunction,ComponentPad*%
%ADD14R,1.700000X1.700000*%
%TD*%
%TA.AperFunction,ComponentPad*%
%ADD15C,1.700000*%
%TD*%
%TA.AperFunction,ViaPad*%
%ADD16C,0.900000*%
%TD*%
%TA.AperFunction,ViaPad*%
%ADD17C,0.600000*%
%TD*%
%TA.AperFunction,Conductor*%
%ADD18C,0.350000*%
%TD*%
%TA.AperFunction,Conductor*%
%ADD19C,0.200000*%
%TD*%
G04 APERTURE END LIST*
D10*
D11*
X177002200Y-166007200D02*
X285002200Y-166007200D01*
X285002200Y-198007200D01*
X177002200Y-198007200D01*
X177002200Y-166007200D01*
D10*
D11*
X10000000Y-10000000D02*
X287002200Y-10000000D01*
X287002200Y-200007200D01*
X10000000Y-200007200D01*
X10000000Y-10000000D01*
D10*
D11*
X12000000Y-12000000D02*
X285002200Y-12000000D01*
X285002200Y-198007200D01*
X12000000Y-198007200D01*
X12000000Y-12000000D01*
D10*
D11*
X60000000Y-12000000D02*
X60000000Y-10000000D01*
D10*
D11*
X110000000Y-12000000D02*
X110000000Y-10000000D01*
D10*
D11*
X160000000Y-12000000D02*
X160000000Y-10000000D01*
D10*
D11*
X210000000Y-12000000D02*
X210000000Y-10000000D01*
D10*
D11*
X260000000Y-12000000D02*
X260000000Y-10000000D01*
D10*
D11*
X36089160Y-11593604D02*
X35346303Y-11593604D01*
X35717731Y-11593604D02*
X35717731Y-10293604D01*
X35717731Y-10293604D02*
X35593922Y-10479319D01*
X35593922Y-10479319D02*
X35470112Y-10603128D01*
X35470112Y-10603128D02*
X35346303Y-10665033D01*
D10*
D11*
X85346303Y-10417414D02*
X85408207Y-10355509D01*
X85408207Y-10355509D02*
X85532017Y-10293604D01*
X85532017Y-10293604D02*
X85841541Y-10293604D01*
X85841541Y-10293604D02*
X85965350Y-10355509D01*
X85965350Y-10355509D02*
X86027255Y-10417414D01*
X86027255Y-10417414D02*
X86089160Y-10541223D01*
X86089160Y-10541223D02*
X86089160Y-10665033D01*
X86089160Y-10665033D02*
X86027255Y-10850747D01*
X86027255Y-10850747D02*
X85284398Y-11593604D01*
X85284398Y-11593604D02*
X86089160Y-11593604D01*
D10*
D11*
X135284398Y-10293604D02*
X136089160Y-10293604D01*
X136089160Y-10293604D02*
X135655826Y-10788842D01*
X135655826Y-10788842D02*
X135841541Y-10788842D01*
X135841541Y-10788842D02*
X135965350Y-10850747D01*
X135965350Y-10850747D02*
X136027255Y-10912652D01*
X136027255Y-10912652D02*
X136089160Y-11036461D01*
X136089160Y-11036461D02*
X136089160Y-11345985D01*
X136089160Y-11345985D02*
X136027255Y-11469795D01*
X136027255Y-11469795D02*
X135965350Y-11531700D01*
X135965350Y-11531700D02*
X135841541Y-11593604D01*
X135841541Y-11593604D02*
X135470112Y-11593604D01*
X135470112Y-11593604D02*
X135346303Y-11531700D01*
X135346303Y-11531700D02*
X135284398Y-11469795D01*
D10*
D11*
X185965350Y-10726938D02*
X185965350Y-11593604D01*
X185655826Y-10231700D02*
X185346303Y-11160271D01*
X185346303Y-11160271D02*
X186151064Y-11160271D01*
D10*
D11*
X236027255Y-10293604D02*
X235408207Y-10293604D01*
X235408207Y-10293604D02*
X235346303Y-10912652D01*
X235346303Y-10912652D02*
X235408207Y-10850747D01*
X235408207Y-10850747D02*
X235532017Y-10788842D01*
X235532017Y-10788842D02*
X235841541Y-10788842D01*
X235841541Y-10788842D02*
X235965350Y-10850747D01*
X235965350Y-10850747D02*
X236027255Y-10912652D01*
X236027255Y-10912652D02*
X236089160Y-11036461D01*
X236089160Y-11036461D02*
X236089160Y-11345985D01*
X236089160Y-11345985D02*
X236027255Y-11469795D01*
X236027255Y-11469795D02*
X235965350Y-11531700D01*
X235965350Y-11531700D02*
X235841541Y-11593604D01*
X235841541Y-11593604D02*
X235532017Y-11593604D01*
X235532017Y-11593604D02*
X235408207Y-11531700D01*
X235408207Y-11531700D02*
X235346303Y-11469795D01*
D10*
D11*
X285965350Y-10293604D02*
X285717731Y-10293604D01*
X285717731Y-10293604D02*
X285593922Y-10355509D01*
X285593922Y-10355509D02*
X285532017Y-10417414D01*
X285532017Y-10417414D02*
X285408207Y-10603128D01*
X285408207Y-10603128D02*
X285346303Y-10850747D01*
X285346303Y-10850747D02*
X285346303Y-11345985D01*
X285346303Y-11345985D02*
X285408207Y-11469795D01*
X285408207Y-11469795D02*
X285470112Y-11531700D01*
X285470112Y-11531700D02*
X285593922Y-11593604D01*
X285593922Y-11593604D02*
X285841541Y-11593604D01*
X285841541Y-11593604D02*
X285965350Y-11531700D01*
X285965350Y-11531700D02*
X286027255Y-11469795D01*
X286027255Y-11469795D02*
X286089160Y-11345985D01*
X286089160Y-11345985D02*
X286089160Y-11036461D01*
X286089160Y-11036461D02*
X286027255Y-10912652D01*
X286027255Y-10912652D02*
X285965350Y-10850747D01*
X285965350Y-10850747D02*
X285841541Y-10788842D01*
X285841541Y-10788842D02*
X285593922Y-10788842D01*
X285593922Y-10788842D02*
X285470112Y-10850747D01*
X285470112Y-10850747D02*
X285408207Y-10912652D01*
X285408207Y-10912652D02*
X285346303Y-11036461D01*
D10*
D11*
X60000000Y-198007200D02*
X60000000Y-200007200D01*
D10*
D11*
X110000000Y-198007200D02*
X110000000Y-200007200D01*
D10*
D11*
X160000000Y-198007200D02*
X160000000Y-200007200D01*
D10*
D11*
X210000000Y-198007200D02*
X210000000Y-200007200D01*
D10*
D11*
X260000000Y-198007200D02*
X260000000Y-200007200D01*
D10*
D11*
X36089160Y-199600804D02*
X35346303Y-199600804D01*
X35717731Y-199600804D02*
X35717731Y-198300804D01*
X35717731Y-198300804D02*
X35593922Y-198486519D01*
X35593922Y-198486519D02*
X35470112Y-198610328D01*
X35470112Y-198610328D02*
X35346303Y-198672233D01*
D10*
D11*
X85346303Y-198424614D02*
X85408207Y-198362709D01*
X85408207Y-198362709D02*
X85532017Y-198300804D01*
X85532017Y-198300804D02*
X85841541Y-198300804D01*
X85841541Y-198300804D02*
X85965350Y-198362709D01*
X85965350Y-198362709D02*
X86027255Y-198424614D01*
X86027255Y-198424614D02*
X86089160Y-198548423D01*
X86089160Y-198548423D02*
X86089160Y-198672233D01*
X86089160Y-198672233D02*
X86027255Y-198857947D01*
X86027255Y-198857947D02*
X85284398Y-199600804D01*
X85284398Y-199600804D02*
X86089160Y-199600804D01*
D10*
D11*
X135284398Y-198300804D02*
X136089160Y-198300804D01*
X136089160Y-198300804D02*
X135655826Y-198796042D01*
X135655826Y-198796042D02*
X135841541Y-198796042D01*
X135841541Y-198796042D02*
X135965350Y-198857947D01*
X135965350Y-198857947D02*
X136027255Y-198919852D01*
X136027255Y-198919852D02*
X136089160Y-199043661D01*
X136089160Y-199043661D02*
X136089160Y-199353185D01*
X136089160Y-199353185D02*
X136027255Y-199476995D01*
X136027255Y-199476995D02*
X135965350Y-199538900D01*
X135965350Y-199538900D02*
X135841541Y-199600804D01*
X135841541Y-199600804D02*
X135470112Y-199600804D01*
X135470112Y-199600804D02*
X135346303Y-199538900D01*
X135346303Y-199538900D02*
X135284398Y-199476995D01*
D10*
D11*
X185965350Y-198734138D02*
X185965350Y-199600804D01*
X185655826Y-198238900D02*
X185346303Y-199167471D01*
X185346303Y-199167471D02*
X186151064Y-199167471D01*
D10*
D11*
X236027255Y-198300804D02*
X235408207Y-198300804D01*
X235408207Y-198300804D02*
X235346303Y-198919852D01*
X235346303Y-198919852D02*
X235408207Y-198857947D01*
X235408207Y-198857947D02*
X235532017Y-198796042D01*
X235532017Y-198796042D02*
X235841541Y-198796042D01*
X235841541Y-198796042D02*
X235965350Y-198857947D01*
X235965350Y-198857947D02*
X236027255Y-198919852D01*
X236027255Y-198919852D02*
X236089160Y-199043661D01*
X236089160Y-199043661D02*
X236089160Y-199353185D01*
X236089160Y-199353185D02*
X236027255Y-199476995D01*
X236027255Y-199476995D02*
X235965350Y-199538900D01*
X235965350Y-199538900D02*
X235841541Y-199600804D01*
X235841541Y-199600804D02*
X235532017Y-199600804D01*
X235532017Y-199600804D02*
X235408207Y-199538900D01*
X235408207Y-199538900D02*
X235346303Y-199476995D01*
D10*
D11*
X285965350Y-198300804D02*
X285717731Y-198300804D01*
X285717731Y-198300804D02*
X285593922Y-198362709D01*
X285593922Y-198362709D02*
X285532017Y-198424614D01*
X285532017Y-198424614D02*
X285408207Y-198610328D01*
X285408207Y-198610328D02*
X285346303Y-198857947D01*
X285346303Y-198857947D02*
X285346303Y-199353185D01*
X285346303Y-199353185D02*
X285408207Y-199476995D01*
X285408207Y-199476995D02*
X285470112Y-199538900D01*
X285470112Y-199538900D02*
X285593922Y-199600804D01*
X285593922Y-199600804D02*
X285841541Y-199600804D01*
X285841541Y-199600804D02*
X285965350Y-199538900D01*
X285965350Y-199538900D02*
X286027255Y-199476995D01*
X286027255Y-199476995D02*
X286089160Y-199353185D01*
X286089160Y-199353185D02*
X286089160Y-199043661D01*
X286089160Y-199043661D02*
X286027255Y-198919852D01*
X286027255Y-198919852D02*
X285965350Y-198857947D01*
X285965350Y-198857947D02*
X285841541Y-198796042D01*
X285841541Y-198796042D02*
X285593922Y-198796042D01*
X285593922Y-198796042D02*
X285470112Y-198857947D01*
X285470112Y-198857947D02*
X285408207Y-198919852D01*
X285408207Y-198919852D02*
X285346303Y-199043661D01*
D10*
D11*
X10000000Y-60000000D02*
X12000000Y-60000000D01*
D10*
D11*
X10000000Y-110000000D02*
X12000000Y-110000000D01*
D10*
D11*
X10000000Y-160000000D02*
X12000000Y-160000000D01*
D10*
D11*
X10690476Y-35222176D02*
X11309523Y-35222176D01*
X10566666Y-35593604D02*
X10999999Y-34293604D01*
X10999999Y-34293604D02*
X11433333Y-35593604D01*
D10*
D11*
X11092857Y-84912652D02*
X11278571Y-84974557D01*
X11278571Y-84974557D02*
X11340476Y-85036461D01*
X11340476Y-85036461D02*
X11402380Y-85160271D01*
X11402380Y-85160271D02*
X11402380Y-85345985D01*
X11402380Y-85345985D02*
X11340476Y-85469795D01*
X11340476Y-85469795D02*
X11278571Y-85531700D01*
X11278571Y-85531700D02*
X11154761Y-85593604D01*
X11154761Y-85593604D02*
X10659523Y-85593604D01*
X10659523Y-85593604D02*
X10659523Y-84293604D01*
X10659523Y-84293604D02*
X11092857Y-84293604D01*
X11092857Y-84293604D02*
X11216666Y-84355509D01*
X11216666Y-84355509D02*
X11278571Y-84417414D01*
X11278571Y-84417414D02*
X11340476Y-84541223D01*
X11340476Y-84541223D02*
X11340476Y-84665033D01*
X11340476Y-84665033D02*
X11278571Y-84788842D01*
X11278571Y-84788842D02*
X11216666Y-84850747D01*
X11216666Y-84850747D02*
X11092857Y-84912652D01*
X11092857Y-84912652D02*
X10659523Y-84912652D01*
D10*
D11*
X11402380Y-135469795D02*
X11340476Y-135531700D01*
X11340476Y-135531700D02*
X11154761Y-135593604D01*
X11154761Y-135593604D02*
X11030952Y-135593604D01*
X11030952Y-135593604D02*
X10845238Y-135531700D01*
X10845238Y-135531700D02*
X10721428Y-135407890D01*
X10721428Y-135407890D02*
X10659523Y-135284080D01*
X10659523Y-135284080D02*
X10597619Y-135036461D01*
X10597619Y-135036461D02*
X10597619Y-134850747D01*
X10597619Y-134850747D02*
X10659523Y-134603128D01*
X10659523Y-134603128D02*
X10721428Y-134479319D01*
X10721428Y-134479319D02*
X10845238Y-134355509D01*
X10845238Y-134355509D02*
X11030952Y-134293604D01*
X11030952Y-134293604D02*
X11154761Y-134293604D01*
X11154761Y-134293604D02*
X11340476Y-134355509D01*
X11340476Y-134355509D02*
X11402380Y-134417414D01*
D10*
D11*
X10659523Y-185593604D02*
X10659523Y-184293604D01*
X10659523Y-184293604D02*
X10969047Y-184293604D01*
X10969047Y-184293604D02*
X11154761Y-184355509D01*
X11154761Y-184355509D02*
X11278571Y-184479319D01*
X11278571Y-184479319D02*
X11340476Y-184603128D01*
X11340476Y-184603128D02*
X11402380Y-184850747D01*
X11402380Y-184850747D02*
X11402380Y-185036461D01*
X11402380Y-185036461D02*
X11340476Y-185284080D01*
X11340476Y-185284080D02*
X11278571Y-185407890D01*
X11278571Y-185407890D02*
X11154761Y-185531700D01*
X11154761Y-185531700D02*
X10969047Y-185593604D01*
X10969047Y-185593604D02*
X10659523Y-185593604D01*
D10*
D11*
X287002200Y-60000000D02*
X285002200Y-60000000D01*
D10*
D11*
X287002200Y-110000000D02*
X285002200Y-110000000D01*
D10*
D11*
X287002200Y-160000000D02*
X285002200Y-160000000D01*
D10*
D11*
X285692676Y-35222176D02*
X286311723Y-35222176D01*
X285568866Y-35593604D02*
X286002199Y-34293604D01*
X286002199Y-34293604D02*
X286435533Y-35593604D01*
D10*
D11*
X286095057Y-84912652D02*
X286280771Y-84974557D01*
X286280771Y-84974557D02*
X286342676Y-85036461D01*
X286342676Y-85036461D02*
X286404580Y-85160271D01*
X286404580Y-85160271D02*
X286404580Y-85345985D01*
X286404580Y-85345985D02*
X286342676Y-85469795D01*
X286342676Y-85469795D02*
X286280771Y-85531700D01*
X286280771Y-85531700D02*
X286156961Y-85593604D01*
X286156961Y-85593604D02*
X285661723Y-85593604D01*
X285661723Y-85593604D02*
X285661723Y-84293604D01*
X285661723Y-84293604D02*
X286095057Y-84293604D01*
X286095057Y-84293604D02*
X286218866Y-84355509D01*
X286218866Y-84355509D02*
X286280771Y-84417414D01*
X286280771Y-84417414D02*
X286342676Y-84541223D01*
X286342676Y-84541223D02*
X286342676Y-84665033D01*
X286342676Y-84665033D02*
X286280771Y-84788842D01*
X286280771Y-84788842D02*
X286218866Y-84850747D01*
X286218866Y-84850747D02*
X286095057Y-84912652D01*
X286095057Y-84912652D02*
X285661723Y-84912652D01*
D10*
D11*
X286404580Y-135469795D02*
X286342676Y-135531700D01*
X286342676Y-135531700D02*
X286156961Y-135593604D01*
X286156961Y-135593604D02*
X286033152Y-135593604D01*
X286033152Y-135593604D02*
X285847438Y-135531700D01*
X285847438Y-135531700D02*
X285723628Y-135407890D01*
X285723628Y-135407890D02*
X285661723Y-135284080D01*
X285661723Y-135284080D02*
X285599819Y-135036461D01*
X285599819Y-135036461D02*
X285599819Y-134850747D01*
X285599819Y-134850747D02*
X285661723Y-134603128D01*
X285661723Y-134603128D02*
X285723628Y-134479319D01*
X285723628Y-134479319D02*
X285847438Y-134355509D01*
X285847438Y-134355509D02*
X286033152Y-134293604D01*
X286033152Y-134293604D02*
X286156961Y-134293604D01*
X286156961Y-134293604D02*
X286342676Y-134355509D01*
X286342676Y-134355509D02*
X286404580Y-134417414D01*
D10*
D11*
X285661723Y-185593604D02*
X285661723Y-184293604D01*
X285661723Y-184293604D02*
X285971247Y-184293604D01*
X285971247Y-184293604D02*
X286156961Y-184355509D01*
X286156961Y-184355509D02*
X286280771Y-184479319D01*
X286280771Y-184479319D02*
X286342676Y-184603128D01*
X286342676Y-184603128D02*
X286404580Y-184850747D01*
X286404580Y-184850747D02*
X286404580Y-185036461D01*
X286404580Y-185036461D02*
X286342676Y-185284080D01*
X286342676Y-185284080D02*
X286280771Y-185407890D01*
X286280771Y-185407890D02*
X286156961Y-185531700D01*
X286156961Y-185531700D02*
X285971247Y-185593604D01*
X285971247Y-185593604D02*
X285661723Y-185593604D01*
D10*
D11*
X200458026Y-193793328D02*
X200458026Y-192293328D01*
X200458026Y-192293328D02*
X200815169Y-192293328D01*
X200815169Y-192293328D02*
X201029455Y-192364757D01*
X201029455Y-192364757D02*
X201172312Y-192507614D01*
X201172312Y-192507614D02*
X201243741Y-192650471D01*
X201243741Y-192650471D02*
X201315169Y-192936185D01*
X201315169Y-192936185D02*
X201315169Y-193150471D01*
X201315169Y-193150471D02*
X201243741Y-193436185D01*
X201243741Y-193436185D02*
X201172312Y-193579042D01*
X201172312Y-193579042D02*
X201029455Y-193721900D01*
X201029455Y-193721900D02*
X200815169Y-193793328D01*
X200815169Y-193793328D02*
X200458026Y-193793328D01*
X202600884Y-193793328D02*
X202600884Y-193007614D01*
X202600884Y-193007614D02*
X202529455Y-192864757D01*
X202529455Y-192864757D02*
X202386598Y-192793328D01*
X202386598Y-192793328D02*
X202100884Y-192793328D01*
X202100884Y-192793328D02*
X201958026Y-192864757D01*
X202600884Y-193721900D02*
X202458026Y-193793328D01*
X202458026Y-193793328D02*
X202100884Y-193793328D01*
X202100884Y-193793328D02*
X201958026Y-193721900D01*
X201958026Y-193721900D02*
X201886598Y-193579042D01*
X201886598Y-193579042D02*
X201886598Y-193436185D01*
X201886598Y-193436185D02*
X201958026Y-193293328D01*
X201958026Y-193293328D02*
X202100884Y-193221900D01*
X202100884Y-193221900D02*
X202458026Y-193221900D01*
X202458026Y-193221900D02*
X202600884Y-193150471D01*
X203100884Y-192793328D02*
X203672312Y-192793328D01*
X203315169Y-192293328D02*
X203315169Y-193579042D01*
X203315169Y-193579042D02*
X203386598Y-193721900D01*
X203386598Y-193721900D02*
X203529455Y-193793328D01*
X203529455Y-193793328D02*
X203672312Y-193793328D01*
X204743741Y-193721900D02*
X204600884Y-193793328D01*
X204600884Y-193793328D02*
X204315170Y-193793328D01*
X204315170Y-193793328D02*
X204172312Y-193721900D01*
X204172312Y-193721900D02*
X204100884Y-193579042D01*
X204100884Y-193579042D02*
X204100884Y-193007614D01*
X204100884Y-193007614D02*
X204172312Y-192864757D01*
X204172312Y-192864757D02*
X204315170Y-192793328D01*
X204315170Y-192793328D02*
X204600884Y-192793328D01*
X204600884Y-192793328D02*
X204743741Y-192864757D01*
X204743741Y-192864757D02*
X204815170Y-193007614D01*
X204815170Y-193007614D02*
X204815170Y-193150471D01*
X204815170Y-193150471D02*
X204100884Y-193293328D01*
X205458026Y-193650471D02*
X205529455Y-193721900D01*
X205529455Y-193721900D02*
X205458026Y-193793328D01*
X205458026Y-193793328D02*
X205386598Y-193721900D01*
X205386598Y-193721900D02*
X205458026Y-193650471D01*
X205458026Y-193650471D02*
X205458026Y-193793328D01*
X205458026Y-192864757D02*
X205529455Y-192936185D01*
X205529455Y-192936185D02*
X205458026Y-193007614D01*
X205458026Y-193007614D02*
X205386598Y-192936185D01*
X205386598Y-192936185D02*
X205458026Y-192864757D01*
X205458026Y-192864757D02*
X205458026Y-193007614D01*
X207243741Y-192436185D02*
X207315169Y-192364757D01*
X207315169Y-192364757D02*
X207458027Y-192293328D01*
X207458027Y-192293328D02*
X207815169Y-192293328D01*
X207815169Y-192293328D02*
X207958027Y-192364757D01*
X207958027Y-192364757D02*
X208029455Y-192436185D01*
X208029455Y-192436185D02*
X208100884Y-192579042D01*
X208100884Y-192579042D02*
X208100884Y-192721900D01*
X208100884Y-192721900D02*
X208029455Y-192936185D01*
X208029455Y-192936185D02*
X207172312Y-193793328D01*
X207172312Y-193793328D02*
X208100884Y-193793328D01*
X209029455Y-192293328D02*
X209172312Y-192293328D01*
X209172312Y-192293328D02*
X209315169Y-192364757D01*
X209315169Y-192364757D02*
X209386598Y-192436185D01*
X209386598Y-192436185D02*
X209458026Y-192579042D01*
X209458026Y-192579042D02*
X209529455Y-192864757D01*
X209529455Y-192864757D02*
X209529455Y-193221900D01*
X209529455Y-193221900D02*
X209458026Y-193507614D01*
X209458026Y-193507614D02*
X209386598Y-193650471D01*
X209386598Y-193650471D02*
X209315169Y-193721900D01*
X209315169Y-193721900D02*
X209172312Y-193793328D01*
X209172312Y-193793328D02*
X209029455Y-193793328D01*
X209029455Y-193793328D02*
X208886598Y-193721900D01*
X208886598Y-193721900D02*
X208815169Y-193650471D01*
X208815169Y-193650471D02*
X208743740Y-193507614D01*
X208743740Y-193507614D02*
X208672312Y-193221900D01*
X208672312Y-193221900D02*
X208672312Y-192864757D01*
X208672312Y-192864757D02*
X208743740Y-192579042D01*
X208743740Y-192579042D02*
X208815169Y-192436185D01*
X208815169Y-192436185D02*
X208886598Y-192364757D01*
X208886598Y-192364757D02*
X209029455Y-192293328D01*
X210100883Y-192436185D02*
X210172311Y-192364757D01*
X210172311Y-192364757D02*
X210315169Y-192293328D01*
X210315169Y-192293328D02*
X210672311Y-192293328D01*
X210672311Y-192293328D02*
X210815169Y-192364757D01*
X210815169Y-192364757D02*
X210886597Y-192436185D01*
X210886597Y-192436185D02*
X210958026Y-192579042D01*
X210958026Y-192579042D02*
X210958026Y-192721900D01*
X210958026Y-192721900D02*
X210886597Y-192936185D01*
X210886597Y-192936185D02*
X210029454Y-193793328D01*
X210029454Y-193793328D02*
X210958026Y-193793328D01*
X212315168Y-192293328D02*
X211600882Y-192293328D01*
X211600882Y-192293328D02*
X211529454Y-193007614D01*
X211529454Y-193007614D02*
X211600882Y-192936185D01*
X211600882Y-192936185D02*
X211743740Y-192864757D01*
X211743740Y-192864757D02*
X212100882Y-192864757D01*
X212100882Y-192864757D02*
X212243740Y-192936185D01*
X212243740Y-192936185D02*
X212315168Y-193007614D01*
X212315168Y-193007614D02*
X212386597Y-193150471D01*
X212386597Y-193150471D02*
X212386597Y-193507614D01*
X212386597Y-193507614D02*
X212315168Y-193650471D01*
X212315168Y-193650471D02*
X212243740Y-193721900D01*
X212243740Y-193721900D02*
X212100882Y-193793328D01*
X212100882Y-193793328D02*
X211743740Y-193793328D01*
X211743740Y-193793328D02*
X211600882Y-193721900D01*
X211600882Y-193721900D02*
X211529454Y-193650471D01*
X213029453Y-193221900D02*
X214172311Y-193221900D01*
X215672311Y-193793328D02*
X214815168Y-193793328D01*
X215243739Y-193793328D02*
X215243739Y-192293328D01*
X215243739Y-192293328D02*
X215100882Y-192507614D01*
X215100882Y-192507614D02*
X214958025Y-192650471D01*
X214958025Y-192650471D02*
X214815168Y-192721900D01*
X217100882Y-193793328D02*
X216243739Y-193793328D01*
X216672310Y-193793328D02*
X216672310Y-192293328D01*
X216672310Y-192293328D02*
X216529453Y-192507614D01*
X216529453Y-192507614D02*
X216386596Y-192650471D01*
X216386596Y-192650471D02*
X216243739Y-192721900D01*
X217743738Y-193221900D02*
X218886596Y-193221900D01*
X219886596Y-192293328D02*
X220029453Y-192293328D01*
X220029453Y-192293328D02*
X220172310Y-192364757D01*
X220172310Y-192364757D02*
X220243739Y-192436185D01*
X220243739Y-192436185D02*
X220315167Y-192579042D01*
X220315167Y-192579042D02*
X220386596Y-192864757D01*
X220386596Y-192864757D02*
X220386596Y-193221900D01*
X220386596Y-193221900D02*
X220315167Y-193507614D01*
X220315167Y-193507614D02*
X220243739Y-193650471D01*
X220243739Y-193650471D02*
X220172310Y-193721900D01*
X220172310Y-193721900D02*
X220029453Y-193793328D01*
X220029453Y-193793328D02*
X219886596Y-193793328D01*
X219886596Y-193793328D02*
X219743739Y-193721900D01*
X219743739Y-193721900D02*
X219672310Y-193650471D01*
X219672310Y-193650471D02*
X219600881Y-193507614D01*
X219600881Y-193507614D02*
X219529453Y-193221900D01*
X219529453Y-193221900D02*
X219529453Y-192864757D01*
X219529453Y-192864757D02*
X219600881Y-192579042D01*
X219600881Y-192579042D02*
X219672310Y-192436185D01*
X219672310Y-192436185D02*
X219743739Y-192364757D01*
X219743739Y-192364757D02*
X219886596Y-192293328D01*
X220958024Y-192436185D02*
X221029452Y-192364757D01*
X221029452Y-192364757D02*
X221172310Y-192293328D01*
X221172310Y-192293328D02*
X221529452Y-192293328D01*
X221529452Y-192293328D02*
X221672310Y-192364757D01*
X221672310Y-192364757D02*
X221743738Y-192436185D01*
X221743738Y-192436185D02*
X221815167Y-192579042D01*
X221815167Y-192579042D02*
X221815167Y-192721900D01*
X221815167Y-192721900D02*
X221743738Y-192936185D01*
X221743738Y-192936185D02*
X220886595Y-193793328D01*
X220886595Y-193793328D02*
X221815167Y-193793328D01*
D10*
D11*
X177002200Y-194507200D02*
X285002200Y-194507200D01*
D10*
D11*
X178458026Y-196593328D02*
X178458026Y-195093328D01*
X179315169Y-196593328D02*
X178672312Y-195736185D01*
X179315169Y-195093328D02*
X178458026Y-195950471D01*
X179958026Y-196593328D02*
X179958026Y-195593328D01*
X179958026Y-195093328D02*
X179886598Y-195164757D01*
X179886598Y-195164757D02*
X179958026Y-195236185D01*
X179958026Y-195236185D02*
X180029455Y-195164757D01*
X180029455Y-195164757D02*
X179958026Y-195093328D01*
X179958026Y-195093328D02*
X179958026Y-195236185D01*
X181529455Y-196450471D02*
X181458027Y-196521900D01*
X181458027Y-196521900D02*
X181243741Y-196593328D01*
X181243741Y-196593328D02*
X181100884Y-196593328D01*
X181100884Y-196593328D02*
X180886598Y-196521900D01*
X180886598Y-196521900D02*
X180743741Y-196379042D01*
X180743741Y-196379042D02*
X180672312Y-196236185D01*
X180672312Y-196236185D02*
X180600884Y-195950471D01*
X180600884Y-195950471D02*
X180600884Y-195736185D01*
X180600884Y-195736185D02*
X180672312Y-195450471D01*
X180672312Y-195450471D02*
X180743741Y-195307614D01*
X180743741Y-195307614D02*
X180886598Y-195164757D01*
X180886598Y-195164757D02*
X181100884Y-195093328D01*
X181100884Y-195093328D02*
X181243741Y-195093328D01*
X181243741Y-195093328D02*
X181458027Y-195164757D01*
X181458027Y-195164757D02*
X181529455Y-195236185D01*
X182815170Y-196593328D02*
X182815170Y-195807614D01*
X182815170Y-195807614D02*
X182743741Y-195664757D01*
X182743741Y-195664757D02*
X182600884Y-195593328D01*
X182600884Y-195593328D02*
X182315170Y-195593328D01*
X182315170Y-195593328D02*
X182172312Y-195664757D01*
X182815170Y-196521900D02*
X182672312Y-196593328D01*
X182672312Y-196593328D02*
X182315170Y-196593328D01*
X182315170Y-196593328D02*
X182172312Y-196521900D01*
X182172312Y-196521900D02*
X182100884Y-196379042D01*
X182100884Y-196379042D02*
X182100884Y-196236185D01*
X182100884Y-196236185D02*
X182172312Y-196093328D01*
X182172312Y-196093328D02*
X182315170Y-196021900D01*
X182315170Y-196021900D02*
X182672312Y-196021900D01*
X182672312Y-196021900D02*
X182815170Y-195950471D01*
X184172313Y-196593328D02*
X184172313Y-195093328D01*
X184172313Y-196521900D02*
X184029455Y-196593328D01*
X184029455Y-196593328D02*
X183743741Y-196593328D01*
X183743741Y-196593328D02*
X183600884Y-196521900D01*
X183600884Y-196521900D02*
X183529455Y-196450471D01*
X183529455Y-196450471D02*
X183458027Y-196307614D01*
X183458027Y-196307614D02*
X183458027Y-195879042D01*
X183458027Y-195879042D02*
X183529455Y-195736185D01*
X183529455Y-195736185D02*
X183600884Y-195664757D01*
X183600884Y-195664757D02*
X183743741Y-195593328D01*
X183743741Y-195593328D02*
X184029455Y-195593328D01*
X184029455Y-195593328D02*
X184172313Y-195664757D01*
X186029455Y-195807614D02*
X186529455Y-195807614D01*
X186743741Y-196593328D02*
X186029455Y-196593328D01*
X186029455Y-196593328D02*
X186029455Y-195093328D01*
X186029455Y-195093328D02*
X186743741Y-195093328D01*
X187386598Y-196450471D02*
X187458027Y-196521900D01*
X187458027Y-196521900D02*
X187386598Y-196593328D01*
X187386598Y-196593328D02*
X187315170Y-196521900D01*
X187315170Y-196521900D02*
X187386598Y-196450471D01*
X187386598Y-196450471D02*
X187386598Y-196593328D01*
X188100884Y-196593328D02*
X188100884Y-195093328D01*
X188100884Y-195093328D02*
X188458027Y-195093328D01*
X188458027Y-195093328D02*
X188672313Y-195164757D01*
X188672313Y-195164757D02*
X188815170Y-195307614D01*
X188815170Y-195307614D02*
X188886599Y-195450471D01*
X188886599Y-195450471D02*
X188958027Y-195736185D01*
X188958027Y-195736185D02*
X188958027Y-195950471D01*
X188958027Y-195950471D02*
X188886599Y-196236185D01*
X188886599Y-196236185D02*
X188815170Y-196379042D01*
X188815170Y-196379042D02*
X188672313Y-196521900D01*
X188672313Y-196521900D02*
X188458027Y-196593328D01*
X188458027Y-196593328D02*
X188100884Y-196593328D01*
X189600884Y-196450471D02*
X189672313Y-196521900D01*
X189672313Y-196521900D02*
X189600884Y-196593328D01*
X189600884Y-196593328D02*
X189529456Y-196521900D01*
X189529456Y-196521900D02*
X189600884Y-196450471D01*
X189600884Y-196450471D02*
X189600884Y-196593328D01*
X190243742Y-196164757D02*
X190958028Y-196164757D01*
X190100885Y-196593328D02*
X190600885Y-195093328D01*
X190600885Y-195093328D02*
X191100885Y-196593328D01*
X191600884Y-196450471D02*
X191672313Y-196521900D01*
X191672313Y-196521900D02*
X191600884Y-196593328D01*
X191600884Y-196593328D02*
X191529456Y-196521900D01*
X191529456Y-196521900D02*
X191600884Y-196450471D01*
X191600884Y-196450471D02*
X191600884Y-196593328D01*
X193529456Y-196593328D02*
X193815170Y-196593328D01*
X193815170Y-196593328D02*
X193958027Y-196521900D01*
X193958027Y-196521900D02*
X194029456Y-196450471D01*
X194029456Y-196450471D02*
X194172313Y-196236185D01*
X194172313Y-196236185D02*
X194243742Y-195950471D01*
X194243742Y-195950471D02*
X194243742Y-195379042D01*
X194243742Y-195379042D02*
X194172313Y-195236185D01*
X194172313Y-195236185D02*
X194100885Y-195164757D01*
X194100885Y-195164757D02*
X193958027Y-195093328D01*
X193958027Y-195093328D02*
X193672313Y-195093328D01*
X193672313Y-195093328D02*
X193529456Y-195164757D01*
X193529456Y-195164757D02*
X193458027Y-195236185D01*
X193458027Y-195236185D02*
X193386599Y-195379042D01*
X193386599Y-195379042D02*
X193386599Y-195736185D01*
X193386599Y-195736185D02*
X193458027Y-195879042D01*
X193458027Y-195879042D02*
X193529456Y-195950471D01*
X193529456Y-195950471D02*
X193672313Y-196021900D01*
X193672313Y-196021900D02*
X193958027Y-196021900D01*
X193958027Y-196021900D02*
X194100885Y-195950471D01*
X194100885Y-195950471D02*
X194172313Y-195879042D01*
X194172313Y-195879042D02*
X194243742Y-195736185D01*
X194886598Y-196450471D02*
X194958027Y-196521900D01*
X194958027Y-196521900D02*
X194886598Y-196593328D01*
X194886598Y-196593328D02*
X194815170Y-196521900D01*
X194815170Y-196521900D02*
X194886598Y-196450471D01*
X194886598Y-196450471D02*
X194886598Y-196593328D01*
X195886599Y-195093328D02*
X196029456Y-195093328D01*
X196029456Y-195093328D02*
X196172313Y-195164757D01*
X196172313Y-195164757D02*
X196243742Y-195236185D01*
X196243742Y-195236185D02*
X196315170Y-195379042D01*
X196315170Y-195379042D02*
X196386599Y-195664757D01*
X196386599Y-195664757D02*
X196386599Y-196021900D01*
X196386599Y-196021900D02*
X196315170Y-196307614D01*
X196315170Y-196307614D02*
X196243742Y-196450471D01*
X196243742Y-196450471D02*
X196172313Y-196521900D01*
X196172313Y-196521900D02*
X196029456Y-196593328D01*
X196029456Y-196593328D02*
X195886599Y-196593328D01*
X195886599Y-196593328D02*
X195743742Y-196521900D01*
X195743742Y-196521900D02*
X195672313Y-196450471D01*
X195672313Y-196450471D02*
X195600884Y-196307614D01*
X195600884Y-196307614D02*
X195529456Y-196021900D01*
X195529456Y-196021900D02*
X195529456Y-195664757D01*
X195529456Y-195664757D02*
X195600884Y-195379042D01*
X195600884Y-195379042D02*
X195672313Y-195236185D01*
X195672313Y-195236185D02*
X195743742Y-195164757D01*
X195743742Y-195164757D02*
X195886599Y-195093328D01*
X197029455Y-196450471D02*
X197100884Y-196521900D01*
X197100884Y-196521900D02*
X197029455Y-196593328D01*
X197029455Y-196593328D02*
X196958027Y-196521900D01*
X196958027Y-196521900D02*
X197029455Y-196450471D01*
X197029455Y-196450471D02*
X197029455Y-196593328D01*
X198458027Y-195093328D02*
X197743741Y-195093328D01*
X197743741Y-195093328D02*
X197672313Y-195807614D01*
X197672313Y-195807614D02*
X197743741Y-195736185D01*
X197743741Y-195736185D02*
X197886599Y-195664757D01*
X197886599Y-195664757D02*
X198243741Y-195664757D01*
X198243741Y-195664757D02*
X198386599Y-195736185D01*
X198386599Y-195736185D02*
X198458027Y-195807614D01*
X198458027Y-195807614D02*
X198529456Y-195950471D01*
X198529456Y-195950471D02*
X198529456Y-196307614D01*
X198529456Y-196307614D02*
X198458027Y-196450471D01*
X198458027Y-196450471D02*
X198386599Y-196521900D01*
X198386599Y-196521900D02*
X198243741Y-196593328D01*
X198243741Y-196593328D02*
X197886599Y-196593328D01*
X197886599Y-196593328D02*
X197743741Y-196521900D01*
X197743741Y-196521900D02*
X197672313Y-196450471D01*
D10*
D11*
X177002200Y-191507200D02*
X285002200Y-191507200D01*
D10*
D12*
X264413853Y-193785528D02*
X263913853Y-193071242D01*
X263556710Y-193785528D02*
X263556710Y-192285528D01*
X263556710Y-192285528D02*
X264128139Y-192285528D01*
X264128139Y-192285528D02*
X264270996Y-192356957D01*
X264270996Y-192356957D02*
X264342425Y-192428385D01*
X264342425Y-192428385D02*
X264413853Y-192571242D01*
X264413853Y-192571242D02*
X264413853Y-192785528D01*
X264413853Y-192785528D02*
X264342425Y-192928385D01*
X264342425Y-192928385D02*
X264270996Y-192999814D01*
X264270996Y-192999814D02*
X264128139Y-193071242D01*
X264128139Y-193071242D02*
X263556710Y-193071242D01*
X265628139Y-193714100D02*
X265485282Y-193785528D01*
X265485282Y-193785528D02*
X265199568Y-193785528D01*
X265199568Y-193785528D02*
X265056710Y-193714100D01*
X265056710Y-193714100D02*
X264985282Y-193571242D01*
X264985282Y-193571242D02*
X264985282Y-192999814D01*
X264985282Y-192999814D02*
X265056710Y-192856957D01*
X265056710Y-192856957D02*
X265199568Y-192785528D01*
X265199568Y-192785528D02*
X265485282Y-192785528D01*
X265485282Y-192785528D02*
X265628139Y-192856957D01*
X265628139Y-192856957D02*
X265699568Y-192999814D01*
X265699568Y-192999814D02*
X265699568Y-193142671D01*
X265699568Y-193142671D02*
X264985282Y-193285528D01*
X266199567Y-192785528D02*
X266556710Y-193785528D01*
X266556710Y-193785528D02*
X266913853Y-192785528D01*
X267485281Y-193642671D02*
X267556710Y-193714100D01*
X267556710Y-193714100D02*
X267485281Y-193785528D01*
X267485281Y-193785528D02*
X267413853Y-193714100D01*
X267413853Y-193714100D02*
X267485281Y-193642671D01*
X267485281Y-193642671D02*
X267485281Y-193785528D01*
X267485281Y-192856957D02*
X267556710Y-192928385D01*
X267556710Y-192928385D02*
X267485281Y-192999814D01*
X267485281Y-192999814D02*
X267413853Y-192928385D01*
X267413853Y-192928385D02*
X267485281Y-192856957D01*
X267485281Y-192856957D02*
X267485281Y-192999814D01*
X270128139Y-193785528D02*
X269270996Y-193785528D01*
X269699567Y-193785528D02*
X269699567Y-192285528D01*
X269699567Y-192285528D02*
X269556710Y-192499814D01*
X269556710Y-192499814D02*
X269413853Y-192642671D01*
X269413853Y-192642671D02*
X269270996Y-192714100D01*
D10*
D11*
X178386598Y-193721900D02*
X178600884Y-193793328D01*
X178600884Y-193793328D02*
X178958026Y-193793328D01*
X178958026Y-193793328D02*
X179100884Y-193721900D01*
X179100884Y-193721900D02*
X179172312Y-193650471D01*
X179172312Y-193650471D02*
X179243741Y-193507614D01*
X179243741Y-193507614D02*
X179243741Y-193364757D01*
X179243741Y-193364757D02*
X179172312Y-193221900D01*
X179172312Y-193221900D02*
X179100884Y-193150471D01*
X179100884Y-193150471D02*
X178958026Y-193079042D01*
X178958026Y-193079042D02*
X178672312Y-193007614D01*
X178672312Y-193007614D02*
X178529455Y-192936185D01*
X178529455Y-192936185D02*
X178458026Y-192864757D01*
X178458026Y-192864757D02*
X178386598Y-192721900D01*
X178386598Y-192721900D02*
X178386598Y-192579042D01*
X178386598Y-192579042D02*
X178458026Y-192436185D01*
X178458026Y-192436185D02*
X178529455Y-192364757D01*
X178529455Y-192364757D02*
X178672312Y-192293328D01*
X178672312Y-192293328D02*
X179029455Y-192293328D01*
X179029455Y-192293328D02*
X179243741Y-192364757D01*
X179886597Y-193793328D02*
X179886597Y-192793328D01*
X179886597Y-192293328D02*
X179815169Y-192364757D01*
X179815169Y-192364757D02*
X179886597Y-192436185D01*
X179886597Y-192436185D02*
X179958026Y-192364757D01*
X179958026Y-192364757D02*
X179886597Y-192293328D01*
X179886597Y-192293328D02*
X179886597Y-192436185D01*
X180458026Y-192793328D02*
X181243741Y-192793328D01*
X181243741Y-192793328D02*
X180458026Y-193793328D01*
X180458026Y-193793328D02*
X181243741Y-193793328D01*
X182386598Y-193721900D02*
X182243741Y-193793328D01*
X182243741Y-193793328D02*
X181958027Y-193793328D01*
X181958027Y-193793328D02*
X181815169Y-193721900D01*
X181815169Y-193721900D02*
X181743741Y-193579042D01*
X181743741Y-193579042D02*
X181743741Y-193007614D01*
X181743741Y-193007614D02*
X181815169Y-192864757D01*
X181815169Y-192864757D02*
X181958027Y-192793328D01*
X181958027Y-192793328D02*
X182243741Y-192793328D01*
X182243741Y-192793328D02*
X182386598Y-192864757D01*
X182386598Y-192864757D02*
X182458027Y-193007614D01*
X182458027Y-193007614D02*
X182458027Y-193150471D01*
X182458027Y-193150471D02*
X181743741Y-193293328D01*
X183100883Y-193650471D02*
X183172312Y-193721900D01*
X183172312Y-193721900D02*
X183100883Y-193793328D01*
X183100883Y-193793328D02*
X183029455Y-193721900D01*
X183029455Y-193721900D02*
X183100883Y-193650471D01*
X183100883Y-193650471D02*
X183100883Y-193793328D01*
X183100883Y-192864757D02*
X183172312Y-192936185D01*
X183172312Y-192936185D02*
X183100883Y-193007614D01*
X183100883Y-193007614D02*
X183029455Y-192936185D01*
X183029455Y-192936185D02*
X183100883Y-192864757D01*
X183100883Y-192864757D02*
X183100883Y-193007614D01*
X184886598Y-193364757D02*
X185600884Y-193364757D01*
X184743741Y-193793328D02*
X185243741Y-192293328D01*
X185243741Y-192293328D02*
X185743741Y-193793328D01*
X186886598Y-192793328D02*
X186886598Y-193793328D01*
X186529455Y-192221900D02*
X186172312Y-193293328D01*
X186172312Y-193293328D02*
X187100883Y-193293328D01*
D10*
D11*
X263458026Y-196593328D02*
X263458026Y-195093328D01*
X264815170Y-196593328D02*
X264815170Y-195093328D01*
X264815170Y-196521900D02*
X264672312Y-196593328D01*
X264672312Y-196593328D02*
X264386598Y-196593328D01*
X264386598Y-196593328D02*
X264243741Y-196521900D01*
X264243741Y-196521900D02*
X264172312Y-196450471D01*
X264172312Y-196450471D02*
X264100884Y-196307614D01*
X264100884Y-196307614D02*
X264100884Y-195879042D01*
X264100884Y-195879042D02*
X264172312Y-195736185D01*
X264172312Y-195736185D02*
X264243741Y-195664757D01*
X264243741Y-195664757D02*
X264386598Y-195593328D01*
X264386598Y-195593328D02*
X264672312Y-195593328D01*
X264672312Y-195593328D02*
X264815170Y-195664757D01*
X265529455Y-196450471D02*
X265600884Y-196521900D01*
X265600884Y-196521900D02*
X265529455Y-196593328D01*
X265529455Y-196593328D02*
X265458027Y-196521900D01*
X265458027Y-196521900D02*
X265529455Y-196450471D01*
X265529455Y-196450471D02*
X265529455Y-196593328D01*
X265529455Y-195664757D02*
X265600884Y-195736185D01*
X265600884Y-195736185D02*
X265529455Y-195807614D01*
X265529455Y-195807614D02*
X265458027Y-195736185D01*
X265458027Y-195736185D02*
X265529455Y-195664757D01*
X265529455Y-195664757D02*
X265529455Y-195807614D01*
X267315170Y-195236185D02*
X267386598Y-195164757D01*
X267386598Y-195164757D02*
X267529456Y-195093328D01*
X267529456Y-195093328D02*
X267886598Y-195093328D01*
X267886598Y-195093328D02*
X268029456Y-195164757D01*
X268029456Y-195164757D02*
X268100884Y-195236185D01*
X268100884Y-195236185D02*
X268172313Y-195379042D01*
X268172313Y-195379042D02*
X268172313Y-195521900D01*
X268172313Y-195521900D02*
X268100884Y-195736185D01*
X268100884Y-195736185D02*
X267243741Y-196593328D01*
X267243741Y-196593328D02*
X268172313Y-196593328D01*
X269886598Y-195021900D02*
X268600884Y-196950471D01*
X270458027Y-196593328D02*
X270743741Y-196593328D01*
X270743741Y-196593328D02*
X270886598Y-196521900D01*
X270886598Y-196521900D02*
X270958027Y-196450471D01*
X270958027Y-196450471D02*
X271100884Y-196236185D01*
X271100884Y-196236185D02*
X271172313Y-195950471D01*
X271172313Y-195950471D02*
X271172313Y-195379042D01*
X271172313Y-195379042D02*
X271100884Y-195236185D01*
X271100884Y-195236185D02*
X271029456Y-195164757D01*
X271029456Y-195164757D02*
X270886598Y-195093328D01*
X270886598Y-195093328D02*
X270600884Y-195093328D01*
X270600884Y-195093328D02*
X270458027Y-195164757D01*
X270458027Y-195164757D02*
X270386598Y-195236185D01*
X270386598Y-195236185D02*
X270315170Y-195379042D01*
X270315170Y-195379042D02*
X270315170Y-195736185D01*
X270315170Y-195736185D02*
X270386598Y-195879042D01*
X270386598Y-195879042D02*
X270458027Y-195950471D01*
X270458027Y-195950471D02*
X270600884Y-196021900D01*
X270600884Y-196021900D02*
X270886598Y-196021900D01*
X270886598Y-196021900D02*
X271029456Y-195950471D01*
X271029456Y-195950471D02*
X271100884Y-195879042D01*
X271100884Y-195879042D02*
X271172313Y-195736185D01*
D10*
D11*
X177002200Y-187507200D02*
X285002200Y-187507200D01*
D10*
D13*
X178693928Y-188211638D02*
X179836785Y-188211638D01*
X179015357Y-190211638D02*
X179265357Y-188211638D01*
X180253452Y-190211638D02*
X180420119Y-188878304D01*
X180503452Y-188211638D02*
X180396309Y-188306876D01*
X180396309Y-188306876D02*
X180479643Y-188402114D01*
X180479643Y-188402114D02*
X180586786Y-188306876D01*
X180586786Y-188306876D02*
X180503452Y-188211638D01*
X180503452Y-188211638D02*
X180479643Y-188402114D01*
X181086786Y-188878304D02*
X181848690Y-188878304D01*
X181455833Y-188211638D02*
X181241548Y-189925923D01*
X181241548Y-189925923D02*
X181312976Y-190116400D01*
X181312976Y-190116400D02*
X181491548Y-190211638D01*
X181491548Y-190211638D02*
X181682024Y-190211638D01*
X182634405Y-190211638D02*
X182455833Y-190116400D01*
X182455833Y-190116400D02*
X182384405Y-189925923D01*
X182384405Y-189925923D02*
X182598690Y-188211638D01*
X184170119Y-190116400D02*
X183967738Y-190211638D01*
X183967738Y-190211638D02*
X183586785Y-190211638D01*
X183586785Y-190211638D02*
X183408214Y-190116400D01*
X183408214Y-190116400D02*
X183336785Y-189925923D01*
X183336785Y-189925923D02*
X183432024Y-189164019D01*
X183432024Y-189164019D02*
X183551071Y-188973542D01*
X183551071Y-188973542D02*
X183753452Y-188878304D01*
X183753452Y-188878304D02*
X184134404Y-188878304D01*
X184134404Y-188878304D02*
X184312976Y-188973542D01*
X184312976Y-188973542D02*
X184384404Y-189164019D01*
X184384404Y-189164019D02*
X184360595Y-189354495D01*
X184360595Y-189354495D02*
X183384404Y-189544971D01*
X185134405Y-190021161D02*
X185217738Y-190116400D01*
X185217738Y-190116400D02*
X185110595Y-190211638D01*
X185110595Y-190211638D02*
X185027262Y-190116400D01*
X185027262Y-190116400D02*
X185134405Y-190021161D01*
X185134405Y-190021161D02*
X185110595Y-190211638D01*
X185265357Y-188973542D02*
X185348690Y-189068780D01*
X185348690Y-189068780D02*
X185241548Y-189164019D01*
X185241548Y-189164019D02*
X185158214Y-189068780D01*
X185158214Y-189068780D02*
X185265357Y-188973542D01*
X185265357Y-188973542D02*
X185241548Y-189164019D01*
X187586786Y-190211638D02*
X187836786Y-188211638D01*
X187836786Y-188211638D02*
X188324881Y-189640209D01*
X188324881Y-189640209D02*
X189170120Y-188211638D01*
X189170120Y-188211638D02*
X188920120Y-190211638D01*
X191039167Y-190021161D02*
X190932024Y-190116400D01*
X190932024Y-190116400D02*
X190634405Y-190211638D01*
X190634405Y-190211638D02*
X190443929Y-190211638D01*
X190443929Y-190211638D02*
X190170119Y-190116400D01*
X190170119Y-190116400D02*
X190003453Y-189925923D01*
X190003453Y-189925923D02*
X189932024Y-189735447D01*
X189932024Y-189735447D02*
X189884405Y-189354495D01*
X189884405Y-189354495D02*
X189920119Y-189068780D01*
X189920119Y-189068780D02*
X190062976Y-188687828D01*
X190062976Y-188687828D02*
X190182024Y-188497352D01*
X190182024Y-188497352D02*
X190396310Y-188306876D01*
X190396310Y-188306876D02*
X190693929Y-188211638D01*
X190693929Y-188211638D02*
X190884405Y-188211638D01*
X190884405Y-188211638D02*
X191158215Y-188306876D01*
X191158215Y-188306876D02*
X191241548Y-188402114D01*
X192122500Y-188211638D02*
X191920119Y-189830685D01*
X191920119Y-189830685D02*
X191991548Y-190021161D01*
X191991548Y-190021161D02*
X192074881Y-190116400D01*
X192074881Y-190116400D02*
X192253453Y-190211638D01*
X192253453Y-190211638D02*
X192634405Y-190211638D01*
X192634405Y-190211638D02*
X192836786Y-190116400D01*
X192836786Y-190116400D02*
X192943929Y-190021161D01*
X192943929Y-190021161D02*
X193062976Y-189830685D01*
X193062976Y-189830685D02*
X193265357Y-188211638D01*
X195491548Y-190211638D02*
X195741548Y-188211638D01*
X195741548Y-188211638D02*
X196217739Y-188211638D01*
X196217739Y-188211638D02*
X196491548Y-188306876D01*
X196491548Y-188306876D02*
X196658215Y-188497352D01*
X196658215Y-188497352D02*
X196729643Y-188687828D01*
X196729643Y-188687828D02*
X196777263Y-189068780D01*
X196777263Y-189068780D02*
X196741548Y-189354495D01*
X196741548Y-189354495D02*
X196598691Y-189735447D01*
X196598691Y-189735447D02*
X196479643Y-189925923D01*
X196479643Y-189925923D02*
X196265358Y-190116400D01*
X196265358Y-190116400D02*
X195967739Y-190211638D01*
X195967739Y-190211638D02*
X195491548Y-190211638D01*
X198348691Y-190211638D02*
X198479643Y-189164019D01*
X198479643Y-189164019D02*
X198408215Y-188973542D01*
X198408215Y-188973542D02*
X198229643Y-188878304D01*
X198229643Y-188878304D02*
X197848691Y-188878304D01*
X197848691Y-188878304D02*
X197646310Y-188973542D01*
X198360596Y-190116400D02*
X198158215Y-190211638D01*
X198158215Y-190211638D02*
X197682024Y-190211638D01*
X197682024Y-190211638D02*
X197503453Y-190116400D01*
X197503453Y-190116400D02*
X197432024Y-189925923D01*
X197432024Y-189925923D02*
X197455834Y-189735447D01*
X197455834Y-189735447D02*
X197574882Y-189544971D01*
X197574882Y-189544971D02*
X197777263Y-189449733D01*
X197777263Y-189449733D02*
X198253453Y-189449733D01*
X198253453Y-189449733D02*
X198455834Y-189354495D01*
X199182025Y-188878304D02*
X199943929Y-188878304D01*
X199551072Y-188211638D02*
X199336787Y-189925923D01*
X199336787Y-189925923D02*
X199408215Y-190116400D01*
X199408215Y-190116400D02*
X199586787Y-190211638D01*
X199586787Y-190211638D02*
X199777263Y-190211638D01*
X201301072Y-190211638D02*
X201432024Y-189164019D01*
X201432024Y-189164019D02*
X201360596Y-188973542D01*
X201360596Y-188973542D02*
X201182024Y-188878304D01*
X201182024Y-188878304D02*
X200801072Y-188878304D01*
X200801072Y-188878304D02*
X200598691Y-188973542D01*
X201312977Y-190116400D02*
X201110596Y-190211638D01*
X201110596Y-190211638D02*
X200634405Y-190211638D01*
X200634405Y-190211638D02*
X200455834Y-190116400D01*
X200455834Y-190116400D02*
X200384405Y-189925923D01*
X200384405Y-189925923D02*
X200408215Y-189735447D01*
X200408215Y-189735447D02*
X200527263Y-189544971D01*
X200527263Y-189544971D02*
X200729644Y-189449733D01*
X200729644Y-189449733D02*
X201205834Y-189449733D01*
X201205834Y-189449733D02*
X201408215Y-189354495D01*
X202539168Y-190211638D02*
X202360596Y-190116400D01*
X202360596Y-190116400D02*
X202289168Y-189925923D01*
X202289168Y-189925923D02*
X202503453Y-188211638D01*
X203586787Y-190211638D02*
X203408215Y-190116400D01*
X203408215Y-190116400D02*
X203324882Y-190021161D01*
X203324882Y-190021161D02*
X203253453Y-189830685D01*
X203253453Y-189830685D02*
X203324882Y-189259257D01*
X203324882Y-189259257D02*
X203443929Y-189068780D01*
X203443929Y-189068780D02*
X203551072Y-188973542D01*
X203551072Y-188973542D02*
X203753453Y-188878304D01*
X203753453Y-188878304D02*
X204039167Y-188878304D01*
X204039167Y-188878304D02*
X204217739Y-188973542D01*
X204217739Y-188973542D02*
X204301072Y-189068780D01*
X204301072Y-189068780D02*
X204372501Y-189259257D01*
X204372501Y-189259257D02*
X204301072Y-189830685D01*
X204301072Y-189830685D02*
X204182025Y-190021161D01*
X204182025Y-190021161D02*
X204074882Y-190116400D01*
X204074882Y-190116400D02*
X203872501Y-190211638D01*
X203872501Y-190211638D02*
X203586787Y-190211638D01*
X206134406Y-188878304D02*
X205932025Y-190497352D01*
X205932025Y-190497352D02*
X205812977Y-190687828D01*
X205812977Y-190687828D02*
X205705834Y-190783066D01*
X205705834Y-190783066D02*
X205503453Y-190878304D01*
X205503453Y-190878304D02*
X205217739Y-190878304D01*
X205217739Y-190878304D02*
X205039168Y-190783066D01*
X205979644Y-190116400D02*
X205777263Y-190211638D01*
X205777263Y-190211638D02*
X205396311Y-190211638D01*
X205396311Y-190211638D02*
X205217739Y-190116400D01*
X205217739Y-190116400D02*
X205134406Y-190021161D01*
X205134406Y-190021161D02*
X205062977Y-189830685D01*
X205062977Y-189830685D02*
X205134406Y-189259257D01*
X205134406Y-189259257D02*
X205253453Y-189068780D01*
X205253453Y-189068780D02*
X205360596Y-188973542D01*
X205360596Y-188973542D02*
X205562977Y-188878304D01*
X205562977Y-188878304D02*
X205943930Y-188878304D01*
X205943930Y-188878304D02*
X206122501Y-188973542D01*
X207943930Y-188878304D02*
X207741549Y-190497352D01*
X207741549Y-190497352D02*
X207622501Y-190687828D01*
X207622501Y-190687828D02*
X207515358Y-190783066D01*
X207515358Y-190783066D02*
X207312977Y-190878304D01*
X207312977Y-190878304D02*
X207027263Y-190878304D01*
X207027263Y-190878304D02*
X206848692Y-190783066D01*
X207789168Y-190116400D02*
X207586787Y-190211638D01*
X207586787Y-190211638D02*
X207205835Y-190211638D01*
X207205835Y-190211638D02*
X207027263Y-190116400D01*
X207027263Y-190116400D02*
X206943930Y-190021161D01*
X206943930Y-190021161D02*
X206872501Y-189830685D01*
X206872501Y-189830685D02*
X206943930Y-189259257D01*
X206943930Y-189259257D02*
X207062977Y-189068780D01*
X207062977Y-189068780D02*
X207170120Y-188973542D01*
X207170120Y-188973542D02*
X207372501Y-188878304D01*
X207372501Y-188878304D02*
X207753454Y-188878304D01*
X207753454Y-188878304D02*
X207932025Y-188973542D01*
X209503454Y-190116400D02*
X209301073Y-190211638D01*
X209301073Y-190211638D02*
X208920120Y-190211638D01*
X208920120Y-190211638D02*
X208741549Y-190116400D01*
X208741549Y-190116400D02*
X208670120Y-189925923D01*
X208670120Y-189925923D02*
X208765359Y-189164019D01*
X208765359Y-189164019D02*
X208884406Y-188973542D01*
X208884406Y-188973542D02*
X209086787Y-188878304D01*
X209086787Y-188878304D02*
X209467739Y-188878304D01*
X209467739Y-188878304D02*
X209646311Y-188973542D01*
X209646311Y-188973542D02*
X209717739Y-189164019D01*
X209717739Y-189164019D02*
X209693930Y-189354495D01*
X209693930Y-189354495D02*
X208717739Y-189544971D01*
X210443930Y-190211638D02*
X210610597Y-188878304D01*
X210562978Y-189259257D02*
X210682025Y-189068780D01*
X210682025Y-189068780D02*
X210789168Y-188973542D01*
X210789168Y-188973542D02*
X210991549Y-188878304D01*
X210991549Y-188878304D02*
X211182025Y-188878304D01*
X213182026Y-188878304D02*
X213396311Y-190211638D01*
X213396311Y-190211638D02*
X213896311Y-189259257D01*
X213896311Y-189259257D02*
X214158216Y-190211638D01*
X214158216Y-190211638D02*
X214705835Y-188878304D01*
X215301073Y-190211638D02*
X215467740Y-188878304D01*
X215551073Y-188211638D02*
X215443930Y-188306876D01*
X215443930Y-188306876D02*
X215527264Y-188402114D01*
X215527264Y-188402114D02*
X215634407Y-188306876D01*
X215634407Y-188306876D02*
X215551073Y-188211638D01*
X215551073Y-188211638D02*
X215527264Y-188402114D01*
X216134407Y-188878304D02*
X216896311Y-188878304D01*
X216503454Y-188211638D02*
X216289169Y-189925923D01*
X216289169Y-189925923D02*
X216360597Y-190116400D01*
X216360597Y-190116400D02*
X216539169Y-190211638D01*
X216539169Y-190211638D02*
X216729645Y-190211638D01*
X217396311Y-190211638D02*
X217646311Y-188211638D01*
X218253454Y-190211638D02*
X218384406Y-189164019D01*
X218384406Y-189164019D02*
X218312978Y-188973542D01*
X218312978Y-188973542D02*
X218134406Y-188878304D01*
X218134406Y-188878304D02*
X217848692Y-188878304D01*
X217848692Y-188878304D02*
X217646311Y-188973542D01*
X217646311Y-188973542D02*
X217539168Y-189068780D01*
X220729645Y-190211638D02*
X220896312Y-188878304D01*
X220872502Y-189068780D02*
X220979645Y-188973542D01*
X220979645Y-188973542D02*
X221182026Y-188878304D01*
X221182026Y-188878304D02*
X221467740Y-188878304D01*
X221467740Y-188878304D02*
X221646312Y-188973542D01*
X221646312Y-188973542D02*
X221717740Y-189164019D01*
X221717740Y-189164019D02*
X221586788Y-190211638D01*
X221717740Y-189164019D02*
X221836788Y-188973542D01*
X221836788Y-188973542D02*
X222039169Y-188878304D01*
X222039169Y-188878304D02*
X222324883Y-188878304D01*
X222324883Y-188878304D02*
X222503455Y-188973542D01*
X222503455Y-188973542D02*
X222574883Y-189164019D01*
X222574883Y-189164019D02*
X222443931Y-190211638D01*
X224170122Y-190116400D02*
X223967741Y-190211638D01*
X223967741Y-190211638D02*
X223586788Y-190211638D01*
X223586788Y-190211638D02*
X223408217Y-190116400D01*
X223408217Y-190116400D02*
X223336788Y-189925923D01*
X223336788Y-189925923D02*
X223432027Y-189164019D01*
X223432027Y-189164019D02*
X223551074Y-188973542D01*
X223551074Y-188973542D02*
X223753455Y-188878304D01*
X223753455Y-188878304D02*
X224134407Y-188878304D01*
X224134407Y-188878304D02*
X224312979Y-188973542D01*
X224312979Y-188973542D02*
X224384407Y-189164019D01*
X224384407Y-189164019D02*
X224360598Y-189354495D01*
X224360598Y-189354495D02*
X223384407Y-189544971D01*
X225110598Y-190211638D02*
X225277265Y-188878304D01*
X225253455Y-189068780D02*
X225360598Y-188973542D01*
X225360598Y-188973542D02*
X225562979Y-188878304D01*
X225562979Y-188878304D02*
X225848693Y-188878304D01*
X225848693Y-188878304D02*
X226027265Y-188973542D01*
X226027265Y-188973542D02*
X226098693Y-189164019D01*
X226098693Y-189164019D02*
X225967741Y-190211638D01*
X226098693Y-189164019D02*
X226217741Y-188973542D01*
X226217741Y-188973542D02*
X226420122Y-188878304D01*
X226420122Y-188878304D02*
X226705836Y-188878304D01*
X226705836Y-188878304D02*
X226884408Y-188973542D01*
X226884408Y-188973542D02*
X226955836Y-189164019D01*
X226955836Y-189164019D02*
X226824884Y-190211638D01*
X228062980Y-190211638D02*
X227884408Y-190116400D01*
X227884408Y-190116400D02*
X227801075Y-190021161D01*
X227801075Y-190021161D02*
X227729646Y-189830685D01*
X227729646Y-189830685D02*
X227801075Y-189259257D01*
X227801075Y-189259257D02*
X227920122Y-189068780D01*
X227920122Y-189068780D02*
X228027265Y-188973542D01*
X228027265Y-188973542D02*
X228229646Y-188878304D01*
X228229646Y-188878304D02*
X228515360Y-188878304D01*
X228515360Y-188878304D02*
X228693932Y-188973542D01*
X228693932Y-188973542D02*
X228777265Y-189068780D01*
X228777265Y-189068780D02*
X228848694Y-189259257D01*
X228848694Y-189259257D02*
X228777265Y-189830685D01*
X228777265Y-189830685D02*
X228658218Y-190021161D01*
X228658218Y-190021161D02*
X228551075Y-190116400D01*
X228551075Y-190116400D02*
X228348694Y-190211638D01*
X228348694Y-190211638D02*
X228062980Y-190211638D01*
X229586789Y-190211638D02*
X229753456Y-188878304D01*
X229705837Y-189259257D02*
X229824884Y-189068780D01*
X229824884Y-189068780D02*
X229932027Y-188973542D01*
X229932027Y-188973542D02*
X230134408Y-188878304D01*
X230134408Y-188878304D02*
X230324884Y-188878304D01*
X230801075Y-188878304D02*
X231110599Y-190211638D01*
X231753456Y-188878304D02*
X231110599Y-190211638D01*
X231110599Y-190211638D02*
X230860599Y-190687828D01*
X230860599Y-190687828D02*
X230753456Y-190783066D01*
X230753456Y-190783066D02*
X230551075Y-190878304D01*
X234729647Y-190211638D02*
X234860599Y-189164019D01*
X234860599Y-189164019D02*
X234789171Y-188973542D01*
X234789171Y-188973542D02*
X234610599Y-188878304D01*
X234610599Y-188878304D02*
X234229647Y-188878304D01*
X234229647Y-188878304D02*
X234027266Y-188973542D01*
X234741552Y-190116400D02*
X234539171Y-190211638D01*
X234539171Y-190211638D02*
X234062980Y-190211638D01*
X234062980Y-190211638D02*
X233884409Y-190116400D01*
X233884409Y-190116400D02*
X233812980Y-189925923D01*
X233812980Y-189925923D02*
X233836790Y-189735447D01*
X233836790Y-189735447D02*
X233955838Y-189544971D01*
X233955838Y-189544971D02*
X234158219Y-189449733D01*
X234158219Y-189449733D02*
X234634409Y-189449733D01*
X234634409Y-189449733D02*
X234836790Y-189354495D01*
X235848695Y-188878304D02*
X235682028Y-190211638D01*
X235824885Y-189068780D02*
X235932028Y-188973542D01*
X235932028Y-188973542D02*
X236134409Y-188878304D01*
X236134409Y-188878304D02*
X236420123Y-188878304D01*
X236420123Y-188878304D02*
X236598695Y-188973542D01*
X236598695Y-188973542D02*
X236670123Y-189164019D01*
X236670123Y-189164019D02*
X236539171Y-190211638D01*
X238348695Y-190211638D02*
X238598695Y-188211638D01*
X238360600Y-190116400D02*
X238158219Y-190211638D01*
X238158219Y-190211638D02*
X237777267Y-190211638D01*
X237777267Y-190211638D02*
X237598695Y-190116400D01*
X237598695Y-190116400D02*
X237515362Y-190021161D01*
X237515362Y-190021161D02*
X237443933Y-189830685D01*
X237443933Y-189830685D02*
X237515362Y-189259257D01*
X237515362Y-189259257D02*
X237634409Y-189068780D01*
X237634409Y-189068780D02*
X237741552Y-188973542D01*
X237741552Y-188973542D02*
X237943933Y-188878304D01*
X237943933Y-188878304D02*
X238324886Y-188878304D01*
X238324886Y-188878304D02*
X238503457Y-188973542D01*
X241693934Y-190116400D02*
X241491553Y-190211638D01*
X241491553Y-190211638D02*
X241110601Y-190211638D01*
X241110601Y-190211638D02*
X240932029Y-190116400D01*
X240932029Y-190116400D02*
X240848696Y-190021161D01*
X240848696Y-190021161D02*
X240777267Y-189830685D01*
X240777267Y-189830685D02*
X240848696Y-189259257D01*
X240848696Y-189259257D02*
X240967743Y-189068780D01*
X240967743Y-189068780D02*
X241074886Y-188973542D01*
X241074886Y-188973542D02*
X241277267Y-188878304D01*
X241277267Y-188878304D02*
X241658220Y-188878304D01*
X241658220Y-188878304D02*
X241836791Y-188973542D01*
X242824887Y-190211638D02*
X242646315Y-190116400D01*
X242646315Y-190116400D02*
X242574887Y-189925923D01*
X242574887Y-189925923D02*
X242789172Y-188211638D01*
X243872506Y-190211638D02*
X243693934Y-190116400D01*
X243693934Y-190116400D02*
X243610601Y-190021161D01*
X243610601Y-190021161D02*
X243539172Y-189830685D01*
X243539172Y-189830685D02*
X243610601Y-189259257D01*
X243610601Y-189259257D02*
X243729648Y-189068780D01*
X243729648Y-189068780D02*
X243836791Y-188973542D01*
X243836791Y-188973542D02*
X244039172Y-188878304D01*
X244039172Y-188878304D02*
X244324886Y-188878304D01*
X244324886Y-188878304D02*
X244503458Y-188973542D01*
X244503458Y-188973542D02*
X244586791Y-189068780D01*
X244586791Y-189068780D02*
X244658220Y-189259257D01*
X244658220Y-189259257D02*
X244586791Y-189830685D01*
X244586791Y-189830685D02*
X244467744Y-190021161D01*
X244467744Y-190021161D02*
X244360601Y-190116400D01*
X244360601Y-190116400D02*
X244158220Y-190211638D01*
X244158220Y-190211638D02*
X243872506Y-190211638D01*
X246265363Y-190116400D02*
X246062982Y-190211638D01*
X246062982Y-190211638D02*
X245682030Y-190211638D01*
X245682030Y-190211638D02*
X245503458Y-190116400D01*
X245503458Y-190116400D02*
X245420125Y-190021161D01*
X245420125Y-190021161D02*
X245348696Y-189830685D01*
X245348696Y-189830685D02*
X245420125Y-189259257D01*
X245420125Y-189259257D02*
X245539172Y-189068780D01*
X245539172Y-189068780D02*
X245646315Y-188973542D01*
X245646315Y-188973542D02*
X245848696Y-188878304D01*
X245848696Y-188878304D02*
X246229649Y-188878304D01*
X246229649Y-188878304D02*
X246408220Y-188973542D01*
X247110601Y-190211638D02*
X247360601Y-188211638D01*
X247396316Y-189449733D02*
X247872506Y-190211638D01*
X248039173Y-188878304D02*
X247182030Y-189640209D01*
D10*
D11*
X178958026Y-185607614D02*
X178458026Y-185607614D01*
X178458026Y-186393328D02*
X178458026Y-184893328D01*
X178458026Y-184893328D02*
X179172312Y-184893328D01*
X179743740Y-186393328D02*
X179743740Y-185393328D01*
X179743740Y-184893328D02*
X179672312Y-184964757D01*
X179672312Y-184964757D02*
X179743740Y-185036185D01*
X179743740Y-185036185D02*
X179815169Y-184964757D01*
X179815169Y-184964757D02*
X179743740Y-184893328D01*
X179743740Y-184893328D02*
X179743740Y-185036185D01*
X180672312Y-186393328D02*
X180529455Y-186321900D01*
X180529455Y-186321900D02*
X180458026Y-186179042D01*
X180458026Y-186179042D02*
X180458026Y-184893328D01*
X181815169Y-186321900D02*
X181672312Y-186393328D01*
X181672312Y-186393328D02*
X181386598Y-186393328D01*
X181386598Y-186393328D02*
X181243740Y-186321900D01*
X181243740Y-186321900D02*
X181172312Y-186179042D01*
X181172312Y-186179042D02*
X181172312Y-185607614D01*
X181172312Y-185607614D02*
X181243740Y-185464757D01*
X181243740Y-185464757D02*
X181386598Y-185393328D01*
X181386598Y-185393328D02*
X181672312Y-185393328D01*
X181672312Y-185393328D02*
X181815169Y-185464757D01*
X181815169Y-185464757D02*
X181886598Y-185607614D01*
X181886598Y-185607614D02*
X181886598Y-185750471D01*
X181886598Y-185750471D02*
X181172312Y-185893328D01*
X182529454Y-186250471D02*
X182600883Y-186321900D01*
X182600883Y-186321900D02*
X182529454Y-186393328D01*
X182529454Y-186393328D02*
X182458026Y-186321900D01*
X182458026Y-186321900D02*
X182529454Y-186250471D01*
X182529454Y-186250471D02*
X182529454Y-186393328D01*
X182529454Y-185464757D02*
X182600883Y-185536185D01*
X182600883Y-185536185D02*
X182529454Y-185607614D01*
X182529454Y-185607614D02*
X182458026Y-185536185D01*
X182458026Y-185536185D02*
X182529454Y-185464757D01*
X182529454Y-185464757D02*
X182529454Y-185607614D01*
X184386597Y-186393328D02*
X184386597Y-185393328D01*
X184386597Y-185536185D02*
X184458026Y-185464757D01*
X184458026Y-185464757D02*
X184600883Y-185393328D01*
X184600883Y-185393328D02*
X184815169Y-185393328D01*
X184815169Y-185393328D02*
X184958026Y-185464757D01*
X184958026Y-185464757D02*
X185029455Y-185607614D01*
X185029455Y-185607614D02*
X185029455Y-186393328D01*
X185029455Y-185607614D02*
X185100883Y-185464757D01*
X185100883Y-185464757D02*
X185243740Y-185393328D01*
X185243740Y-185393328D02*
X185458026Y-185393328D01*
X185458026Y-185393328D02*
X185600883Y-185464757D01*
X185600883Y-185464757D02*
X185672312Y-185607614D01*
X185672312Y-185607614D02*
X185672312Y-186393328D01*
X187029455Y-186321900D02*
X186886597Y-186393328D01*
X186886597Y-186393328D02*
X186600883Y-186393328D01*
X186600883Y-186393328D02*
X186458026Y-186321900D01*
X186458026Y-186321900D02*
X186386597Y-186250471D01*
X186386597Y-186250471D02*
X186315169Y-186107614D01*
X186315169Y-186107614D02*
X186315169Y-185679042D01*
X186315169Y-185679042D02*
X186386597Y-185536185D01*
X186386597Y-185536185D02*
X186458026Y-185464757D01*
X186458026Y-185464757D02*
X186600883Y-185393328D01*
X186600883Y-185393328D02*
X186886597Y-185393328D01*
X186886597Y-185393328D02*
X187029455Y-185464757D01*
X188315169Y-185393328D02*
X188315169Y-186393328D01*
X187672311Y-185393328D02*
X187672311Y-186179042D01*
X187672311Y-186179042D02*
X187743740Y-186321900D01*
X187743740Y-186321900D02*
X187886597Y-186393328D01*
X187886597Y-186393328D02*
X188100883Y-186393328D01*
X188100883Y-186393328D02*
X188243740Y-186321900D01*
X188243740Y-186321900D02*
X188315169Y-186250471D01*
X188672312Y-186536185D02*
X189815169Y-186536185D01*
X190815169Y-186393328D02*
X190815169Y-184893328D01*
X190815169Y-186321900D02*
X190672311Y-186393328D01*
X190672311Y-186393328D02*
X190386597Y-186393328D01*
X190386597Y-186393328D02*
X190243740Y-186321900D01*
X190243740Y-186321900D02*
X190172311Y-186250471D01*
X190172311Y-186250471D02*
X190100883Y-186107614D01*
X190100883Y-186107614D02*
X190100883Y-185679042D01*
X190100883Y-185679042D02*
X190172311Y-185536185D01*
X190172311Y-185536185D02*
X190243740Y-185464757D01*
X190243740Y-185464757D02*
X190386597Y-185393328D01*
X190386597Y-185393328D02*
X190672311Y-185393328D01*
X190672311Y-185393328D02*
X190815169Y-185464757D01*
X192172312Y-186393328D02*
X192172312Y-185607614D01*
X192172312Y-185607614D02*
X192100883Y-185464757D01*
X192100883Y-185464757D02*
X191958026Y-185393328D01*
X191958026Y-185393328D02*
X191672312Y-185393328D01*
X191672312Y-185393328D02*
X191529454Y-185464757D01*
X192172312Y-186321900D02*
X192029454Y-186393328D01*
X192029454Y-186393328D02*
X191672312Y-186393328D01*
X191672312Y-186393328D02*
X191529454Y-186321900D01*
X191529454Y-186321900D02*
X191458026Y-186179042D01*
X191458026Y-186179042D02*
X191458026Y-186036185D01*
X191458026Y-186036185D02*
X191529454Y-185893328D01*
X191529454Y-185893328D02*
X191672312Y-185821900D01*
X191672312Y-185821900D02*
X192029454Y-185821900D01*
X192029454Y-185821900D02*
X192172312Y-185750471D01*
X192672312Y-185393328D02*
X193243740Y-185393328D01*
X192886597Y-184893328D02*
X192886597Y-186179042D01*
X192886597Y-186179042D02*
X192958026Y-186321900D01*
X192958026Y-186321900D02*
X193100883Y-186393328D01*
X193100883Y-186393328D02*
X193243740Y-186393328D01*
X194386598Y-186393328D02*
X194386598Y-185607614D01*
X194386598Y-185607614D02*
X194315169Y-185464757D01*
X194315169Y-185464757D02*
X194172312Y-185393328D01*
X194172312Y-185393328D02*
X193886598Y-185393328D01*
X193886598Y-185393328D02*
X193743740Y-185464757D01*
X194386598Y-186321900D02*
X194243740Y-186393328D01*
X194243740Y-186393328D02*
X193886598Y-186393328D01*
X193886598Y-186393328D02*
X193743740Y-186321900D01*
X193743740Y-186321900D02*
X193672312Y-186179042D01*
X193672312Y-186179042D02*
X193672312Y-186036185D01*
X193672312Y-186036185D02*
X193743740Y-185893328D01*
X193743740Y-185893328D02*
X193886598Y-185821900D01*
X193886598Y-185821900D02*
X194243740Y-185821900D01*
X194243740Y-185821900D02*
X194386598Y-185750471D01*
X195315169Y-186393328D02*
X195172312Y-186321900D01*
X195172312Y-186321900D02*
X195100883Y-186179042D01*
X195100883Y-186179042D02*
X195100883Y-184893328D01*
X196100883Y-186393328D02*
X195958026Y-186321900D01*
X195958026Y-186321900D02*
X195886597Y-186250471D01*
X195886597Y-186250471D02*
X195815169Y-186107614D01*
X195815169Y-186107614D02*
X195815169Y-185679042D01*
X195815169Y-185679042D02*
X195886597Y-185536185D01*
X195886597Y-185536185D02*
X195958026Y-185464757D01*
X195958026Y-185464757D02*
X196100883Y-185393328D01*
X196100883Y-185393328D02*
X196315169Y-185393328D01*
X196315169Y-185393328D02*
X196458026Y-185464757D01*
X196458026Y-185464757D02*
X196529455Y-185536185D01*
X196529455Y-185536185D02*
X196600883Y-185679042D01*
X196600883Y-185679042D02*
X196600883Y-186107614D01*
X196600883Y-186107614D02*
X196529455Y-186250471D01*
X196529455Y-186250471D02*
X196458026Y-186321900D01*
X196458026Y-186321900D02*
X196315169Y-186393328D01*
X196315169Y-186393328D02*
X196100883Y-186393328D01*
X197886598Y-185393328D02*
X197886598Y-186607614D01*
X197886598Y-186607614D02*
X197815169Y-186750471D01*
X197815169Y-186750471D02*
X197743740Y-186821900D01*
X197743740Y-186821900D02*
X197600883Y-186893328D01*
X197600883Y-186893328D02*
X197386598Y-186893328D01*
X197386598Y-186893328D02*
X197243740Y-186821900D01*
X197886598Y-186321900D02*
X197743740Y-186393328D01*
X197743740Y-186393328D02*
X197458026Y-186393328D01*
X197458026Y-186393328D02*
X197315169Y-186321900D01*
X197315169Y-186321900D02*
X197243740Y-186250471D01*
X197243740Y-186250471D02*
X197172312Y-186107614D01*
X197172312Y-186107614D02*
X197172312Y-185679042D01*
X197172312Y-185679042D02*
X197243740Y-185536185D01*
X197243740Y-185536185D02*
X197315169Y-185464757D01*
X197315169Y-185464757D02*
X197458026Y-185393328D01*
X197458026Y-185393328D02*
X197743740Y-185393328D01*
X197743740Y-185393328D02*
X197886598Y-185464757D01*
X199243741Y-185393328D02*
X199243741Y-186607614D01*
X199243741Y-186607614D02*
X199172312Y-186750471D01*
X199172312Y-186750471D02*
X199100883Y-186821900D01*
X199100883Y-186821900D02*
X198958026Y-186893328D01*
X198958026Y-186893328D02*
X198743741Y-186893328D01*
X198743741Y-186893328D02*
X198600883Y-186821900D01*
X199243741Y-186321900D02*
X199100883Y-186393328D01*
X199100883Y-186393328D02*
X198815169Y-186393328D01*
X198815169Y-186393328D02*
X198672312Y-186321900D01*
X198672312Y-186321900D02*
X198600883Y-186250471D01*
X198600883Y-186250471D02*
X198529455Y-186107614D01*
X198529455Y-186107614D02*
X198529455Y-185679042D01*
X198529455Y-185679042D02*
X198600883Y-185536185D01*
X198600883Y-185536185D02*
X198672312Y-185464757D01*
X198672312Y-185464757D02*
X198815169Y-185393328D01*
X198815169Y-185393328D02*
X199100883Y-185393328D01*
X199100883Y-185393328D02*
X199243741Y-185464757D01*
X200529455Y-186321900D02*
X200386598Y-186393328D01*
X200386598Y-186393328D02*
X200100884Y-186393328D01*
X200100884Y-186393328D02*
X199958026Y-186321900D01*
X199958026Y-186321900D02*
X199886598Y-186179042D01*
X199886598Y-186179042D02*
X199886598Y-185607614D01*
X199886598Y-185607614D02*
X199958026Y-185464757D01*
X199958026Y-185464757D02*
X200100884Y-185393328D01*
X200100884Y-185393328D02*
X200386598Y-185393328D01*
X200386598Y-185393328D02*
X200529455Y-185464757D01*
X200529455Y-185464757D02*
X200600884Y-185607614D01*
X200600884Y-185607614D02*
X200600884Y-185750471D01*
X200600884Y-185750471D02*
X199886598Y-185893328D01*
X201243740Y-186393328D02*
X201243740Y-185393328D01*
X201243740Y-185679042D02*
X201315169Y-185536185D01*
X201315169Y-185536185D02*
X201386598Y-185464757D01*
X201386598Y-185464757D02*
X201529455Y-185393328D01*
X201529455Y-185393328D02*
X201672312Y-185393328D01*
X202172311Y-186250471D02*
X202243740Y-186321900D01*
X202243740Y-186321900D02*
X202172311Y-186393328D01*
X202172311Y-186393328D02*
X202100883Y-186321900D01*
X202100883Y-186321900D02*
X202172311Y-186250471D01*
X202172311Y-186250471D02*
X202172311Y-186393328D01*
X202886597Y-186393328D02*
X202886597Y-184893328D01*
X203029455Y-185821900D02*
X203458026Y-186393328D01*
X203458026Y-185393328D02*
X202886597Y-185964757D01*
X204100883Y-186393328D02*
X204100883Y-185393328D01*
X204100883Y-184893328D02*
X204029455Y-184964757D01*
X204029455Y-184964757D02*
X204100883Y-185036185D01*
X204100883Y-185036185D02*
X204172312Y-184964757D01*
X204172312Y-184964757D02*
X204100883Y-184893328D01*
X204100883Y-184893328D02*
X204100883Y-185036185D01*
X205458027Y-186321900D02*
X205315169Y-186393328D01*
X205315169Y-186393328D02*
X205029455Y-186393328D01*
X205029455Y-186393328D02*
X204886598Y-186321900D01*
X204886598Y-186321900D02*
X204815169Y-186250471D01*
X204815169Y-186250471D02*
X204743741Y-186107614D01*
X204743741Y-186107614D02*
X204743741Y-185679042D01*
X204743741Y-185679042D02*
X204815169Y-185536185D01*
X204815169Y-185536185D02*
X204886598Y-185464757D01*
X204886598Y-185464757D02*
X205029455Y-185393328D01*
X205029455Y-185393328D02*
X205315169Y-185393328D01*
X205315169Y-185393328D02*
X205458027Y-185464757D01*
X206743741Y-186393328D02*
X206743741Y-185607614D01*
X206743741Y-185607614D02*
X206672312Y-185464757D01*
X206672312Y-185464757D02*
X206529455Y-185393328D01*
X206529455Y-185393328D02*
X206243741Y-185393328D01*
X206243741Y-185393328D02*
X206100883Y-185464757D01*
X206743741Y-186321900D02*
X206600883Y-186393328D01*
X206600883Y-186393328D02*
X206243741Y-186393328D01*
X206243741Y-186393328D02*
X206100883Y-186321900D01*
X206100883Y-186321900D02*
X206029455Y-186179042D01*
X206029455Y-186179042D02*
X206029455Y-186036185D01*
X206029455Y-186036185D02*
X206100883Y-185893328D01*
X206100883Y-185893328D02*
X206243741Y-185821900D01*
X206243741Y-185821900D02*
X206600883Y-185821900D01*
X206600883Y-185821900D02*
X206743741Y-185750471D01*
X208100884Y-186393328D02*
X208100884Y-184893328D01*
X208100884Y-186321900D02*
X207958026Y-186393328D01*
X207958026Y-186393328D02*
X207672312Y-186393328D01*
X207672312Y-186393328D02*
X207529455Y-186321900D01*
X207529455Y-186321900D02*
X207458026Y-186250471D01*
X207458026Y-186250471D02*
X207386598Y-186107614D01*
X207386598Y-186107614D02*
X207386598Y-185679042D01*
X207386598Y-185679042D02*
X207458026Y-185536185D01*
X207458026Y-185536185D02*
X207529455Y-185464757D01*
X207529455Y-185464757D02*
X207672312Y-185393328D01*
X207672312Y-185393328D02*
X207958026Y-185393328D01*
X207958026Y-185393328D02*
X208100884Y-185464757D01*
X208458027Y-186536185D02*
X209600884Y-186536185D01*
X209958026Y-185393328D02*
X209958026Y-186893328D01*
X209958026Y-185464757D02*
X210100884Y-185393328D01*
X210100884Y-185393328D02*
X210386598Y-185393328D01*
X210386598Y-185393328D02*
X210529455Y-185464757D01*
X210529455Y-185464757D02*
X210600884Y-185536185D01*
X210600884Y-185536185D02*
X210672312Y-185679042D01*
X210672312Y-185679042D02*
X210672312Y-186107614D01*
X210672312Y-186107614D02*
X210600884Y-186250471D01*
X210600884Y-186250471D02*
X210529455Y-186321900D01*
X210529455Y-186321900D02*
X210386598Y-186393328D01*
X210386598Y-186393328D02*
X210100884Y-186393328D01*
X210100884Y-186393328D02*
X209958026Y-186321900D01*
X211958027Y-186321900D02*
X211815169Y-186393328D01*
X211815169Y-186393328D02*
X211529455Y-186393328D01*
X211529455Y-186393328D02*
X211386598Y-186321900D01*
X211386598Y-186321900D02*
X211315169Y-186250471D01*
X211315169Y-186250471D02*
X211243741Y-186107614D01*
X211243741Y-186107614D02*
X211243741Y-185679042D01*
X211243741Y-185679042D02*
X211315169Y-185536185D01*
X211315169Y-185536185D02*
X211386598Y-185464757D01*
X211386598Y-185464757D02*
X211529455Y-185393328D01*
X211529455Y-185393328D02*
X211815169Y-185393328D01*
X211815169Y-185393328D02*
X211958027Y-185464757D01*
X212600883Y-186393328D02*
X212600883Y-184893328D01*
X212600883Y-185464757D02*
X212743741Y-185393328D01*
X212743741Y-185393328D02*
X213029455Y-185393328D01*
X213029455Y-185393328D02*
X213172312Y-185464757D01*
X213172312Y-185464757D02*
X213243741Y-185536185D01*
X213243741Y-185536185D02*
X213315169Y-185679042D01*
X213315169Y-185679042D02*
X213315169Y-186107614D01*
X213315169Y-186107614D02*
X213243741Y-186250471D01*
X213243741Y-186250471D02*
X213172312Y-186321900D01*
X213172312Y-186321900D02*
X213029455Y-186393328D01*
X213029455Y-186393328D02*
X212743741Y-186393328D01*
X212743741Y-186393328D02*
X212600883Y-186321900D01*
D10*
D11*
X177002200Y-181507200D02*
X285002200Y-181507200D01*
D10*
D11*
X178386598Y-183621900D02*
X178600884Y-183693328D01*
X178600884Y-183693328D02*
X178958026Y-183693328D01*
X178958026Y-183693328D02*
X179100884Y-183621900D01*
X179100884Y-183621900D02*
X179172312Y-183550471D01*
X179172312Y-183550471D02*
X179243741Y-183407614D01*
X179243741Y-183407614D02*
X179243741Y-183264757D01*
X179243741Y-183264757D02*
X179172312Y-183121900D01*
X179172312Y-183121900D02*
X179100884Y-183050471D01*
X179100884Y-183050471D02*
X178958026Y-182979042D01*
X178958026Y-182979042D02*
X178672312Y-182907614D01*
X178672312Y-182907614D02*
X178529455Y-182836185D01*
X178529455Y-182836185D02*
X178458026Y-182764757D01*
X178458026Y-182764757D02*
X178386598Y-182621900D01*
X178386598Y-182621900D02*
X178386598Y-182479042D01*
X178386598Y-182479042D02*
X178458026Y-182336185D01*
X178458026Y-182336185D02*
X178529455Y-182264757D01*
X178529455Y-182264757D02*
X178672312Y-182193328D01*
X178672312Y-182193328D02*
X179029455Y-182193328D01*
X179029455Y-182193328D02*
X179243741Y-182264757D01*
X179886597Y-183693328D02*
X179886597Y-182193328D01*
X180529455Y-183693328D02*
X180529455Y-182907614D01*
X180529455Y-182907614D02*
X180458026Y-182764757D01*
X180458026Y-182764757D02*
X180315169Y-182693328D01*
X180315169Y-182693328D02*
X180100883Y-182693328D01*
X180100883Y-182693328D02*
X179958026Y-182764757D01*
X179958026Y-182764757D02*
X179886597Y-182836185D01*
X181815169Y-183621900D02*
X181672312Y-183693328D01*
X181672312Y-183693328D02*
X181386598Y-183693328D01*
X181386598Y-183693328D02*
X181243740Y-183621900D01*
X181243740Y-183621900D02*
X181172312Y-183479042D01*
X181172312Y-183479042D02*
X181172312Y-182907614D01*
X181172312Y-182907614D02*
X181243740Y-182764757D01*
X181243740Y-182764757D02*
X181386598Y-182693328D01*
X181386598Y-182693328D02*
X181672312Y-182693328D01*
X181672312Y-182693328D02*
X181815169Y-182764757D01*
X181815169Y-182764757D02*
X181886598Y-182907614D01*
X181886598Y-182907614D02*
X181886598Y-183050471D01*
X181886598Y-183050471D02*
X181172312Y-183193328D01*
X183100883Y-183621900D02*
X182958026Y-183693328D01*
X182958026Y-183693328D02*
X182672312Y-183693328D01*
X182672312Y-183693328D02*
X182529454Y-183621900D01*
X182529454Y-183621900D02*
X182458026Y-183479042D01*
X182458026Y-183479042D02*
X182458026Y-182907614D01*
X182458026Y-182907614D02*
X182529454Y-182764757D01*
X182529454Y-182764757D02*
X182672312Y-182693328D01*
X182672312Y-182693328D02*
X182958026Y-182693328D01*
X182958026Y-182693328D02*
X183100883Y-182764757D01*
X183100883Y-182764757D02*
X183172312Y-182907614D01*
X183172312Y-182907614D02*
X183172312Y-183050471D01*
X183172312Y-183050471D02*
X182458026Y-183193328D01*
X183600883Y-182693328D02*
X184172311Y-182693328D01*
X183815168Y-182193328D02*
X183815168Y-183479042D01*
X183815168Y-183479042D02*
X183886597Y-183621900D01*
X183886597Y-183621900D02*
X184029454Y-183693328D01*
X184029454Y-183693328D02*
X184172311Y-183693328D01*
X184672311Y-183550471D02*
X184743740Y-183621900D01*
X184743740Y-183621900D02*
X184672311Y-183693328D01*
X184672311Y-183693328D02*
X184600883Y-183621900D01*
X184600883Y-183621900D02*
X184672311Y-183550471D01*
X184672311Y-183550471D02*
X184672311Y-183693328D01*
X184672311Y-182764757D02*
X184743740Y-182836185D01*
X184743740Y-182836185D02*
X184672311Y-182907614D01*
X184672311Y-182907614D02*
X184600883Y-182836185D01*
X184600883Y-182836185D02*
X184672311Y-182764757D01*
X184672311Y-182764757D02*
X184672311Y-182907614D01*
D10*
D12*
X178342425Y-179185528D02*
X179199568Y-179185528D01*
X178770996Y-180685528D02*
X178770996Y-179185528D01*
X179699567Y-180685528D02*
X179699567Y-179185528D01*
X180342425Y-180685528D02*
X180342425Y-179899814D01*
X180342425Y-179899814D02*
X180270996Y-179756957D01*
X180270996Y-179756957D02*
X180128139Y-179685528D01*
X180128139Y-179685528D02*
X179913853Y-179685528D01*
X179913853Y-179685528D02*
X179770996Y-179756957D01*
X179770996Y-179756957D02*
X179699567Y-179828385D01*
X181628139Y-180614100D02*
X181485282Y-180685528D01*
X181485282Y-180685528D02*
X181199568Y-180685528D01*
X181199568Y-180685528D02*
X181056710Y-180614100D01*
X181056710Y-180614100D02*
X180985282Y-180471242D01*
X180985282Y-180471242D02*
X180985282Y-179899814D01*
X180985282Y-179899814D02*
X181056710Y-179756957D01*
X181056710Y-179756957D02*
X181199568Y-179685528D01*
X181199568Y-179685528D02*
X181485282Y-179685528D01*
X181485282Y-179685528D02*
X181628139Y-179756957D01*
X181628139Y-179756957D02*
X181699568Y-179899814D01*
X181699568Y-179899814D02*
X181699568Y-180042671D01*
X181699568Y-180042671D02*
X180985282Y-180185528D01*
X183770996Y-179185528D02*
X184056710Y-179185528D01*
X184056710Y-179185528D02*
X184199567Y-179256957D01*
X184199567Y-179256957D02*
X184342424Y-179399814D01*
X184342424Y-179399814D02*
X184413853Y-179685528D01*
X184413853Y-179685528D02*
X184413853Y-180185528D01*
X184413853Y-180185528D02*
X184342424Y-180471242D01*
X184342424Y-180471242D02*
X184199567Y-180614100D01*
X184199567Y-180614100D02*
X184056710Y-180685528D01*
X184056710Y-180685528D02*
X183770996Y-180685528D01*
X183770996Y-180685528D02*
X183628139Y-180614100D01*
X183628139Y-180614100D02*
X183485281Y-180471242D01*
X183485281Y-180471242D02*
X183413853Y-180185528D01*
X183413853Y-180185528D02*
X183413853Y-179685528D01*
X183413853Y-179685528D02*
X183485281Y-179399814D01*
X183485281Y-179399814D02*
X183628139Y-179256957D01*
X183628139Y-179256957D02*
X183770996Y-179185528D01*
X185699568Y-180614100D02*
X185556710Y-180685528D01*
X185556710Y-180685528D02*
X185270996Y-180685528D01*
X185270996Y-180685528D02*
X185128139Y-180614100D01*
X185128139Y-180614100D02*
X185056710Y-180542671D01*
X185056710Y-180542671D02*
X184985282Y-180399814D01*
X184985282Y-180399814D02*
X184985282Y-179971242D01*
X184985282Y-179971242D02*
X185056710Y-179828385D01*
X185056710Y-179828385D02*
X185128139Y-179756957D01*
X185128139Y-179756957D02*
X185270996Y-179685528D01*
X185270996Y-179685528D02*
X185556710Y-179685528D01*
X185556710Y-179685528D02*
X185699568Y-179756957D01*
X186128139Y-179685528D02*
X186699567Y-179685528D01*
X186342424Y-179185528D02*
X186342424Y-180471242D01*
X186342424Y-180471242D02*
X186413853Y-180614100D01*
X186413853Y-180614100D02*
X186556710Y-180685528D01*
X186556710Y-180685528D02*
X186699567Y-180685528D01*
X187413853Y-180685528D02*
X187270996Y-180614100D01*
X187270996Y-180614100D02*
X187199567Y-180542671D01*
X187199567Y-180542671D02*
X187128139Y-180399814D01*
X187128139Y-180399814D02*
X187128139Y-179971242D01*
X187128139Y-179971242D02*
X187199567Y-179828385D01*
X187199567Y-179828385D02*
X187270996Y-179756957D01*
X187270996Y-179756957D02*
X187413853Y-179685528D01*
X187413853Y-179685528D02*
X187628139Y-179685528D01*
X187628139Y-179685528D02*
X187770996Y-179756957D01*
X187770996Y-179756957D02*
X187842425Y-179828385D01*
X187842425Y-179828385D02*
X187913853Y-179971242D01*
X187913853Y-179971242D02*
X187913853Y-180399814D01*
X187913853Y-180399814D02*
X187842425Y-180542671D01*
X187842425Y-180542671D02*
X187770996Y-180614100D01*
X187770996Y-180614100D02*
X187628139Y-180685528D01*
X187628139Y-180685528D02*
X187413853Y-180685528D01*
X188342425Y-179685528D02*
X188913853Y-179685528D01*
X188556710Y-179185528D02*
X188556710Y-180471242D01*
X188556710Y-180471242D02*
X188628139Y-180614100D01*
X188628139Y-180614100D02*
X188770996Y-180685528D01*
X188770996Y-180685528D02*
X188913853Y-180685528D01*
X189413853Y-180685528D02*
X189413853Y-179185528D01*
X190056711Y-180685528D02*
X190056711Y-179899814D01*
X190056711Y-179899814D02*
X189985282Y-179756957D01*
X189985282Y-179756957D02*
X189842425Y-179685528D01*
X189842425Y-179685528D02*
X189628139Y-179685528D01*
X189628139Y-179685528D02*
X189485282Y-179756957D01*
X189485282Y-179756957D02*
X189413853Y-179828385D01*
X190985282Y-180685528D02*
X190842425Y-180614100D01*
X190842425Y-180614100D02*
X190770996Y-180542671D01*
X190770996Y-180542671D02*
X190699568Y-180399814D01*
X190699568Y-180399814D02*
X190699568Y-179971242D01*
X190699568Y-179971242D02*
X190770996Y-179828385D01*
X190770996Y-179828385D02*
X190842425Y-179756957D01*
X190842425Y-179756957D02*
X190985282Y-179685528D01*
X190985282Y-179685528D02*
X191199568Y-179685528D01*
X191199568Y-179685528D02*
X191342425Y-179756957D01*
X191342425Y-179756957D02*
X191413854Y-179828385D01*
X191413854Y-179828385D02*
X191485282Y-179971242D01*
X191485282Y-179971242D02*
X191485282Y-180399814D01*
X191485282Y-180399814D02*
X191413854Y-180542671D01*
X191413854Y-180542671D02*
X191342425Y-180614100D01*
X191342425Y-180614100D02*
X191199568Y-180685528D01*
X191199568Y-180685528D02*
X190985282Y-180685528D01*
X192128139Y-180685528D02*
X192128139Y-179685528D01*
X192128139Y-179971242D02*
X192199568Y-179828385D01*
X192199568Y-179828385D02*
X192270997Y-179756957D01*
X192270997Y-179756957D02*
X192413854Y-179685528D01*
X192413854Y-179685528D02*
X192556711Y-179685528D01*
X193056710Y-179685528D02*
X193056710Y-181185528D01*
X193056710Y-179756957D02*
X193199568Y-179685528D01*
X193199568Y-179685528D02*
X193485282Y-179685528D01*
X193485282Y-179685528D02*
X193628139Y-179756957D01*
X193628139Y-179756957D02*
X193699568Y-179828385D01*
X193699568Y-179828385D02*
X193770996Y-179971242D01*
X193770996Y-179971242D02*
X193770996Y-180399814D01*
X193770996Y-180399814D02*
X193699568Y-180542671D01*
X193699568Y-180542671D02*
X193628139Y-180614100D01*
X193628139Y-180614100D02*
X193485282Y-180685528D01*
X193485282Y-180685528D02*
X193199568Y-180685528D01*
X193199568Y-180685528D02*
X193056710Y-180614100D01*
X194985282Y-180614100D02*
X194842425Y-180685528D01*
X194842425Y-180685528D02*
X194556711Y-180685528D01*
X194556711Y-180685528D02*
X194413853Y-180614100D01*
X194413853Y-180614100D02*
X194342425Y-180471242D01*
X194342425Y-180471242D02*
X194342425Y-179899814D01*
X194342425Y-179899814D02*
X194413853Y-179756957D01*
X194413853Y-179756957D02*
X194556711Y-179685528D01*
X194556711Y-179685528D02*
X194842425Y-179685528D01*
X194842425Y-179685528D02*
X194985282Y-179756957D01*
X194985282Y-179756957D02*
X195056711Y-179899814D01*
X195056711Y-179899814D02*
X195056711Y-180042671D01*
X195056711Y-180042671D02*
X194342425Y-180185528D01*
D10*
D11*
X178386598Y-176336185D02*
X178458026Y-176264757D01*
X178458026Y-176264757D02*
X178600884Y-176193328D01*
X178600884Y-176193328D02*
X178958026Y-176193328D01*
X178958026Y-176193328D02*
X179100884Y-176264757D01*
X179100884Y-176264757D02*
X179172312Y-176336185D01*
X179172312Y-176336185D02*
X179243741Y-176479042D01*
X179243741Y-176479042D02*
X179243741Y-176621900D01*
X179243741Y-176621900D02*
X179172312Y-176836185D01*
X179172312Y-176836185D02*
X178315169Y-177693328D01*
X178315169Y-177693328D02*
X179243741Y-177693328D01*
X179886597Y-177121900D02*
X181029455Y-177121900D01*
X181958026Y-177693328D02*
X181815169Y-177621900D01*
X181815169Y-177621900D02*
X181743740Y-177479042D01*
X181743740Y-177479042D02*
X181743740Y-176193328D01*
X183172312Y-177693328D02*
X183172312Y-176907614D01*
X183172312Y-176907614D02*
X183100883Y-176764757D01*
X183100883Y-176764757D02*
X182958026Y-176693328D01*
X182958026Y-176693328D02*
X182672312Y-176693328D01*
X182672312Y-176693328D02*
X182529454Y-176764757D01*
X183172312Y-177621900D02*
X183029454Y-177693328D01*
X183029454Y-177693328D02*
X182672312Y-177693328D01*
X182672312Y-177693328D02*
X182529454Y-177621900D01*
X182529454Y-177621900D02*
X182458026Y-177479042D01*
X182458026Y-177479042D02*
X182458026Y-177336185D01*
X182458026Y-177336185D02*
X182529454Y-177193328D01*
X182529454Y-177193328D02*
X182672312Y-177121900D01*
X182672312Y-177121900D02*
X183029454Y-177121900D01*
X183029454Y-177121900D02*
X183172312Y-177050471D01*
X183743740Y-176693328D02*
X184100883Y-177693328D01*
X184458026Y-176693328D02*
X184100883Y-177693328D01*
X184100883Y-177693328D02*
X183958026Y-178050471D01*
X183958026Y-178050471D02*
X183886597Y-178121900D01*
X183886597Y-178121900D02*
X183743740Y-178193328D01*
X185600883Y-177621900D02*
X185458026Y-177693328D01*
X185458026Y-177693328D02*
X185172312Y-177693328D01*
X185172312Y-177693328D02*
X185029454Y-177621900D01*
X185029454Y-177621900D02*
X184958026Y-177479042D01*
X184958026Y-177479042D02*
X184958026Y-176907614D01*
X184958026Y-176907614D02*
X185029454Y-176764757D01*
X185029454Y-176764757D02*
X185172312Y-176693328D01*
X185172312Y-176693328D02*
X185458026Y-176693328D01*
X185458026Y-176693328D02*
X185600883Y-176764757D01*
X185600883Y-176764757D02*
X185672312Y-176907614D01*
X185672312Y-176907614D02*
X185672312Y-177050471D01*
X185672312Y-177050471D02*
X184958026Y-177193328D01*
X186315168Y-177693328D02*
X186315168Y-176693328D01*
X186315168Y-176979042D02*
X186386597Y-176836185D01*
X186386597Y-176836185D02*
X186458026Y-176764757D01*
X186458026Y-176764757D02*
X186600883Y-176693328D01*
X186600883Y-176693328D02*
X186743740Y-176693328D01*
X188386596Y-177693328D02*
X188386596Y-176193328D01*
X188386596Y-176193328D02*
X188958025Y-176193328D01*
X188958025Y-176193328D02*
X189100882Y-176264757D01*
X189100882Y-176264757D02*
X189172311Y-176336185D01*
X189172311Y-176336185D02*
X189243739Y-176479042D01*
X189243739Y-176479042D02*
X189243739Y-176693328D01*
X189243739Y-176693328D02*
X189172311Y-176836185D01*
X189172311Y-176836185D02*
X189100882Y-176907614D01*
X189100882Y-176907614D02*
X188958025Y-176979042D01*
X188958025Y-176979042D02*
X188386596Y-176979042D01*
X190743739Y-177550471D02*
X190672311Y-177621900D01*
X190672311Y-177621900D02*
X190458025Y-177693328D01*
X190458025Y-177693328D02*
X190315168Y-177693328D01*
X190315168Y-177693328D02*
X190100882Y-177621900D01*
X190100882Y-177621900D02*
X189958025Y-177479042D01*
X189958025Y-177479042D02*
X189886596Y-177336185D01*
X189886596Y-177336185D02*
X189815168Y-177050471D01*
X189815168Y-177050471D02*
X189815168Y-176836185D01*
X189815168Y-176836185D02*
X189886596Y-176550471D01*
X189886596Y-176550471D02*
X189958025Y-176407614D01*
X189958025Y-176407614D02*
X190100882Y-176264757D01*
X190100882Y-176264757D02*
X190315168Y-176193328D01*
X190315168Y-176193328D02*
X190458025Y-176193328D01*
X190458025Y-176193328D02*
X190672311Y-176264757D01*
X190672311Y-176264757D02*
X190743739Y-176336185D01*
X191886596Y-176907614D02*
X192100882Y-176979042D01*
X192100882Y-176979042D02*
X192172311Y-177050471D01*
X192172311Y-177050471D02*
X192243739Y-177193328D01*
X192243739Y-177193328D02*
X192243739Y-177407614D01*
X192243739Y-177407614D02*
X192172311Y-177550471D01*
X192172311Y-177550471D02*
X192100882Y-177621900D01*
X192100882Y-177621900D02*
X191958025Y-177693328D01*
X191958025Y-177693328D02*
X191386596Y-177693328D01*
X191386596Y-177693328D02*
X191386596Y-176193328D01*
X191386596Y-176193328D02*
X191886596Y-176193328D01*
X191886596Y-176193328D02*
X192029454Y-176264757D01*
X192029454Y-176264757D02*
X192100882Y-176336185D01*
X192100882Y-176336185D02*
X192172311Y-176479042D01*
X192172311Y-176479042D02*
X192172311Y-176621900D01*
X192172311Y-176621900D02*
X192100882Y-176764757D01*
X192100882Y-176764757D02*
X192029454Y-176836185D01*
X192029454Y-176836185D02*
X191886596Y-176907614D01*
X191886596Y-176907614D02*
X191386596Y-176907614D01*
X193886596Y-176693328D02*
X194243739Y-177693328D01*
X194243739Y-177693328D02*
X194600882Y-176693328D01*
X195743739Y-177621900D02*
X195600882Y-177693328D01*
X195600882Y-177693328D02*
X195315168Y-177693328D01*
X195315168Y-177693328D02*
X195172310Y-177621900D01*
X195172310Y-177621900D02*
X195100882Y-177479042D01*
X195100882Y-177479042D02*
X195100882Y-176907614D01*
X195100882Y-176907614D02*
X195172310Y-176764757D01*
X195172310Y-176764757D02*
X195315168Y-176693328D01*
X195315168Y-176693328D02*
X195600882Y-176693328D01*
X195600882Y-176693328D02*
X195743739Y-176764757D01*
X195743739Y-176764757D02*
X195815168Y-176907614D01*
X195815168Y-176907614D02*
X195815168Y-177050471D01*
X195815168Y-177050471D02*
X195100882Y-177193328D01*
X196458024Y-177693328D02*
X196458024Y-176693328D01*
X196458024Y-176979042D02*
X196529453Y-176836185D01*
X196529453Y-176836185D02*
X196600882Y-176764757D01*
X196600882Y-176764757D02*
X196743739Y-176693328D01*
X196743739Y-176693328D02*
X196886596Y-176693328D01*
X197315167Y-177621900D02*
X197458024Y-177693328D01*
X197458024Y-177693328D02*
X197743738Y-177693328D01*
X197743738Y-177693328D02*
X197886595Y-177621900D01*
X197886595Y-177621900D02*
X197958024Y-177479042D01*
X197958024Y-177479042D02*
X197958024Y-177407614D01*
X197958024Y-177407614D02*
X197886595Y-177264757D01*
X197886595Y-177264757D02*
X197743738Y-177193328D01*
X197743738Y-177193328D02*
X197529453Y-177193328D01*
X197529453Y-177193328D02*
X197386595Y-177121900D01*
X197386595Y-177121900D02*
X197315167Y-176979042D01*
X197315167Y-176979042D02*
X197315167Y-176907614D01*
X197315167Y-176907614D02*
X197386595Y-176764757D01*
X197386595Y-176764757D02*
X197529453Y-176693328D01*
X197529453Y-176693328D02*
X197743738Y-176693328D01*
X197743738Y-176693328D02*
X197886595Y-176764757D01*
X198600881Y-177693328D02*
X198600881Y-176693328D01*
X198600881Y-176193328D02*
X198529453Y-176264757D01*
X198529453Y-176264757D02*
X198600881Y-176336185D01*
X198600881Y-176336185D02*
X198672310Y-176264757D01*
X198672310Y-176264757D02*
X198600881Y-176193328D01*
X198600881Y-176193328D02*
X198600881Y-176336185D01*
X199529453Y-177693328D02*
X199386596Y-177621900D01*
X199386596Y-177621900D02*
X199315167Y-177550471D01*
X199315167Y-177550471D02*
X199243739Y-177407614D01*
X199243739Y-177407614D02*
X199243739Y-176979042D01*
X199243739Y-176979042D02*
X199315167Y-176836185D01*
X199315167Y-176836185D02*
X199386596Y-176764757D01*
X199386596Y-176764757D02*
X199529453Y-176693328D01*
X199529453Y-176693328D02*
X199743739Y-176693328D01*
X199743739Y-176693328D02*
X199886596Y-176764757D01*
X199886596Y-176764757D02*
X199958025Y-176836185D01*
X199958025Y-176836185D02*
X200029453Y-176979042D01*
X200029453Y-176979042D02*
X200029453Y-177407614D01*
X200029453Y-177407614D02*
X199958025Y-177550471D01*
X199958025Y-177550471D02*
X199886596Y-177621900D01*
X199886596Y-177621900D02*
X199743739Y-177693328D01*
X199743739Y-177693328D02*
X199529453Y-177693328D01*
X200672310Y-176693328D02*
X200672310Y-177693328D01*
X200672310Y-176836185D02*
X200743739Y-176764757D01*
X200743739Y-176764757D02*
X200886596Y-176693328D01*
X200886596Y-176693328D02*
X201100882Y-176693328D01*
X201100882Y-176693328D02*
X201243739Y-176764757D01*
X201243739Y-176764757D02*
X201315168Y-176907614D01*
X201315168Y-176907614D02*
X201315168Y-177693328D01*
D10*
D11*
X197002200Y-191507200D02*
X197002200Y-194507200D01*
D10*
D11*
X261002200Y-191507200D02*
X261002200Y-198007200D01*
D14*
%TO.P,J3,1,Pin_1*%
%TO.N,GND*%
X132715000Y-97155000D03*
D15*
%TO.P,J3,2,Pin_2*%
%TO.N,/Vcc*%
X135255000Y-97155000D03*
%TO.P,J3,3,Pin_3*%
%TO.N,/RX*%
X137795000Y-97155000D03*
%TO.P,J3,4,Pin_4*%
%TO.N,/TX*%
X140335000Y-97155000D03*
%TD*%
D14*
%TO.P,J1,1,Pin_1*%
%TO.N,/D2*%
X106680000Y-97155000D03*
D15*
%TO.P,J1,2,Pin_2*%
%TO.N,/D3*%
X109220000Y-97155000D03*
%TO.P,J1,3,Pin_3*%
%TO.N,/D4*%
X111760000Y-97155000D03*
%TO.P,J1,4,Pin_4*%
%TO.N,/D5*%
X114300000Y-97155000D03*
%TO.P,J1,5,Pin_5*%
%TO.N,/D6*%
X116840000Y-97155000D03*
%TO.P,J1,6,Pin_6*%
%TO.N,/D7*%
X119380000Y-97155000D03*
%TO.P,J1,7,Pin_7*%
%TO.N,/D8*%
X121920000Y-97155000D03*
%TO.P,J1,8,Pin_8*%
%TO.N,GND*%
X124460000Y-97155000D03*
%TO.P,J1,9,Pin_9*%
%TO.N,/Vcc*%
X127000000Y-97155000D03*
%TD*%
D14*
%TO.P,J2,1,Pin_1*%
%TO.N,GND*%
X145415000Y-86995000D03*
D15*
%TO.P,J2,2,Pin_2*%
%TO.N,/Vcc*%
X145415000Y-89535000D03*
%TO.P,J2,3,Pin_3*%
%TO.N,/SDA*%
X145415000Y-92075000D03*
%TO.P,J2,4,Pin_4*%
%TO.N,/SCK*%
X145415000Y-94615000D03*
%TD*%
D14*
%TO.P,J4,1,Pin_1*%
%TO.N,/MISO*%
X142875000Y-78105000D03*
D15*
%TO.P,J4,2,Pin_2*%
%TO.N,/Vcc*%
X145415000Y-78105000D03*
%TO.P,J4,3,Pin_3*%
%TO.N,/SCK*%
X142875000Y-80645000D03*
%TO.P,J4,4,Pin_4*%
%TO.N,/MOSI*%
X145415000Y-80645000D03*
%TO.P,J4,5,Pin_5*%
%TO.N,/RESET*%
X142875000Y-83185000D03*
%TO.P,J4,6,Pin_6*%
%TO.N,GND*%
X145415000Y-83185000D03*
%TD*%
D14*
%TO.P,BT1,1,+*%
%TO.N,/Vcc*%
X104775000Y-78105000D03*
D15*
%TO.P,BT1,2,-*%
%TO.N,GND*%
X104775000Y-80645000D03*
%TD*%
D16*
%TO.N,GND*%
X127496070Y-81743507D03*
X107950000Y-86106000D03*
X131496998Y-78526369D03*
X108026686Y-89446686D03*
X128955800Y-78536800D03*
X124460000Y-84582000D03*
%TO.N,/Vcc*%
X116976000Y-93811819D03*
X135951313Y-83546001D03*
X134640657Y-84856658D03*
D17*
X105156000Y-75438000D03*
D16*
X110998000Y-81788000D03*
D17*
X126441200Y-82880200D03*
D16*
X112691269Y-82719269D03*
X131622800Y-80111600D03*
D17*
X124472165Y-83020435D03*
%TO.N,Net-(U4-PB6)*%
X120488000Y-93255000D03*
X119512000Y-87884000D03*
%TO.N,Net-(U4-PB7)*%
X123952000Y-89754000D03*
X120650000Y-87122000D03*
X126238000Y-76708000D03*
%TO.N,Net-(U4-AREF)*%
X130665893Y-86504108D03*
X130810000Y-90653825D03*
%TO.N,/SCK*%
X136652000Y-87376000D03*
X135395847Y-88669153D03*
X117109000Y-85896941D03*
X117510000Y-84074000D03*
%TO.N,/SDA*%
X127675000Y-76952472D03*
X117602000Y-78740000D03*
X135890000Y-81626000D03*
X116198293Y-86589513D03*
X125895071Y-80590775D03*
%TO.N,/RX*%
X136869000Y-91948000D03*
X123695071Y-80864000D03*
%TO.N,/TX*%
X137266648Y-91253825D03*
X123028000Y-80264000D03*
%TO.N,/MISO*%
X129194896Y-87871211D03*
%TO.N,/MOSI*%
X128778000Y-88554000D03*
%TO.N,/RESET*%
X124695071Y-77308000D03*
X130900000Y-81026000D03*
%TO.N,Net-(U2-~{INTA})*%
X111543000Y-89662000D03*
X113030000Y-89662000D03*
%TO.N,Net-(U2-SQW{slash}~INT)*%
X116494000Y-88900000D03*
X116840000Y-92202000D03*
%TD*%
D18*
%TO.N,GND*%
X126502720Y-84582000D02*
X124460000Y-84582000D01*
X108026686Y-89446686D02*
X108026686Y-86182686D01*
X127877654Y-83207066D02*
X127877654Y-82125091D01*
X127877654Y-82125091D02*
X127496070Y-81743507D01*
X128955800Y-78712428D02*
X129134686Y-78891314D01*
X127877654Y-83207066D02*
X126502720Y-84582000D01*
X128955800Y-78536800D02*
X128955800Y-78712428D01*
X129134686Y-78891314D02*
X131132053Y-78891314D01*
X108026686Y-86182686D02*
X107950000Y-86106000D01*
X131132053Y-78891314D02*
X131496998Y-78526369D01*
%TO.N,/Vcc*%
X125095000Y-95250000D02*
X127000000Y-97155000D01*
X128008724Y-81026000D02*
X127274195Y-80291471D01*
X111506000Y-82042000D02*
X111252000Y-81788000D01*
X126441200Y-82880200D02*
X125755400Y-83566000D01*
X126441200Y-82880200D02*
X126441200Y-82626200D01*
X126621071Y-82446329D02*
X126621071Y-80291471D01*
X128542000Y-81552000D02*
X128016000Y-81026000D01*
X131626000Y-80114800D02*
X131626000Y-81326720D01*
X125017730Y-83566000D02*
X124472165Y-83020435D01*
X111252000Y-81788000D02*
X110998000Y-81788000D01*
X116976000Y-93811819D02*
X117144181Y-93980000D01*
X120904000Y-93980000D02*
X122174000Y-95250000D01*
X112691269Y-82719269D02*
X112183269Y-82719269D01*
X130399280Y-81552000D02*
X128542000Y-81552000D01*
X128016000Y-81026000D02*
X128008724Y-81026000D01*
X126441200Y-82626200D02*
X126621071Y-82446329D01*
X125755400Y-83566000D02*
X125017730Y-83566000D01*
X131200720Y-81752000D02*
X130599280Y-81752000D01*
X122174000Y-95250000D02*
X125095000Y-95250000D01*
X117144181Y-93980000D02*
X120904000Y-93980000D01*
X134640657Y-84856658D02*
X135951313Y-83546001D01*
X121767600Y-75438000D02*
X105156000Y-75438000D01*
X126621071Y-80291471D02*
X121767600Y-75438000D01*
X131626000Y-81326720D02*
X131200720Y-81752000D01*
X127274195Y-80291471D02*
X126621071Y-80291471D01*
X130599280Y-81752000D02*
X130399280Y-81552000D01*
X112183269Y-82719269D02*
X111506000Y-82042000D01*
X131622800Y-80111600D02*
X131626000Y-80114800D01*
D19*
%TO.N,Net-(U4-PB6)*%
X120488000Y-93255000D02*
X120488000Y-92964000D01*
X120488000Y-92964000D02*
X119512000Y-91988000D01*
X119512000Y-91988000D02*
X119512000Y-87884000D01*
%TO.N,Net-(U4-PB7)*%
X124714000Y-81635605D02*
X124714000Y-80323100D01*
X122428000Y-80513943D02*
X122428000Y-80770000D01*
X131465415Y-76351472D02*
X136491000Y-81377057D01*
X122774000Y-89754000D02*
X123952000Y-89754000D01*
X124039900Y-79649000D02*
X122428000Y-79649000D01*
X123484000Y-85638000D02*
X123484000Y-82865605D01*
X132513943Y-85852000D02*
X123698000Y-85852000D01*
X122427000Y-80512943D02*
X122428000Y-80513943D01*
X126594528Y-76351472D02*
X131465415Y-76351472D01*
X122428000Y-80014057D02*
X122427000Y-80015057D01*
X124714000Y-80323100D02*
X124039900Y-79649000D01*
X122429000Y-80771000D02*
X120650000Y-82550000D01*
X122427000Y-80015057D02*
X122427000Y-80512943D01*
X123484000Y-82865605D02*
X124714000Y-81635605D01*
X126238000Y-76708000D02*
X126594528Y-76351472D01*
X136491000Y-81874943D02*
X132513943Y-85852000D01*
X120650000Y-82550000D02*
X120650000Y-87122000D01*
X120650000Y-87630000D02*
X122774000Y-89754000D01*
X122428000Y-80770000D02*
X122429000Y-80771000D01*
X120650000Y-87122000D02*
X120650000Y-87630000D01*
X136491000Y-81377057D02*
X136491000Y-81874943D01*
X122428000Y-79649000D02*
X122428000Y-80014057D01*
X123698000Y-85852000D02*
X123484000Y-85638000D01*
%TO.N,Net-(U4-AREF)*%
X128177000Y-88802943D02*
X130027882Y-90653825D01*
X129712056Y-86504108D02*
X128177000Y-88039164D01*
X130665893Y-86504108D02*
X129712056Y-86504108D01*
X128177000Y-88039164D02*
X128177000Y-88802943D01*
X130027882Y-90653825D02*
X130810000Y-90653825D01*
%TO.N,/SCK*%
X135395847Y-88632153D02*
X136652000Y-87376000D01*
X117109000Y-85896941D02*
X117109000Y-85329000D01*
X117602000Y-84836000D02*
X117602000Y-84166000D01*
X117109000Y-85329000D02*
X117602000Y-84836000D01*
X117602000Y-84166000D02*
X117510000Y-84074000D01*
X135395847Y-88669153D02*
X135395847Y-88632153D01*
%TO.N,/SDA*%
X117710000Y-86145884D02*
X117710000Y-85647998D01*
X118111000Y-80518000D02*
X118111000Y-79249000D01*
X135509000Y-81407000D02*
X131054472Y-76952472D01*
X124206000Y-79248000D02*
X119381000Y-79248000D01*
X116198293Y-86589513D02*
X117266371Y-86589513D01*
X118110000Y-85247998D02*
X118110000Y-80519000D01*
X135671000Y-81407000D02*
X135509000Y-81407000D01*
X118111000Y-79249000D02*
X117602000Y-78740000D01*
X125548775Y-80590775D02*
X124206000Y-79248000D01*
X117710000Y-85647998D02*
X118110000Y-85247998D01*
X118110000Y-80519000D02*
X118111000Y-80518000D01*
X117266371Y-86589513D02*
X117710000Y-86145884D01*
X135890000Y-81626000D02*
X135671000Y-81407000D01*
X119381000Y-79248000D02*
X118111000Y-80518000D01*
X131054472Y-76952472D02*
X127675000Y-76952472D01*
X125895071Y-80590775D02*
X125548775Y-80590775D01*
%TO.N,/RX*%
X123695071Y-81520334D02*
X122682000Y-82533405D01*
X128270000Y-91948000D02*
X136869000Y-91948000D01*
X123695071Y-80864000D02*
X123695071Y-81520334D01*
X122682000Y-82533405D02*
X122682000Y-86360000D01*
X122682000Y-86360000D02*
X128270000Y-91948000D01*
%TO.N,/TX*%
X124313000Y-80489200D02*
X124087800Y-80264000D01*
X123083000Y-82699505D02*
X124313000Y-81469505D01*
X123446128Y-80263000D02*
X123445128Y-80264000D01*
X124313000Y-81469505D02*
X124313000Y-80489200D01*
X123445128Y-80264000D02*
X123028000Y-80264000D01*
X123945014Y-80264000D02*
X123944014Y-80263000D01*
X123083000Y-86193900D02*
X123083000Y-82699505D01*
X123944014Y-80263000D02*
X123446128Y-80263000D01*
X137266648Y-91253825D02*
X128142925Y-91253825D01*
X128142925Y-91253825D02*
X123083000Y-86193900D01*
X124087800Y-80264000D02*
X123945014Y-80264000D01*
%TO.N,/MISO*%
X133453929Y-87871211D02*
X142875000Y-78450140D01*
X129194896Y-87871211D02*
X133453929Y-87871211D01*
X142875000Y-78450140D02*
X142875000Y-78105000D01*
%TO.N,/MOSI*%
X128778000Y-88554000D02*
X133338240Y-88554000D01*
X144264000Y-81796000D02*
X145415000Y-80645000D01*
X140096240Y-81796000D02*
X144264000Y-81796000D01*
X133338240Y-88554000D02*
X140096240Y-81796000D01*
%TO.N,/RESET*%
X128226600Y-80500000D02*
X125034600Y-77308000D01*
X125034600Y-77308000D02*
X124695071Y-77308000D01*
X130900000Y-81026000D02*
X128759876Y-81026000D01*
X128233876Y-80500000D02*
X128226600Y-80500000D01*
X128759876Y-81026000D02*
X128233876Y-80500000D01*
%TO.N,Net-(U2-~{INTA})*%
X113030000Y-89662000D02*
X111543000Y-89662000D01*
%TO.N,Net-(U2-SQW{slash}~INT)*%
X116840000Y-92202000D02*
X116840000Y-89246000D01*
X116840000Y-89246000D02*
X116494000Y-88900000D01*
%TD*%
%TA.AperFunction,Conductor*%
%TO.N,GND*%
G36*
X123640169Y-95945185D02*
G01*
X123685924Y-95997989D01*
X123692231Y-96033677D01*
X124330591Y-96672037D01*
X124267007Y-96689075D01*
X124152993Y-96754901D01*
X124059901Y-96847993D01*
X123994075Y-96962007D01*
X123977037Y-97025591D01*
X123344728Y-96393282D01*
X123344727Y-96393282D01*
X123305380Y-96447440D01*
X123305376Y-96447446D01*
X123300760Y-96456505D01*
X123252781Y-96507297D01*
X123184959Y-96524087D01*
X123118826Y-96501543D01*
X123079794Y-96456493D01*
X123075051Y-96447184D01*
X123075049Y-96447181D01*
X123075048Y-96447179D01*
X122950109Y-96275213D01*
X122812077Y-96137181D01*
X122778592Y-96075858D01*
X122783576Y-96006166D01*
X122825448Y-95950233D01*
X122890912Y-95925816D01*
X122899758Y-95925500D01*
X123573130Y-95925500D01*
X123640169Y-95945185D01*
G37*
%TD.AperFunction*%
%TA.AperFunction,Conductor*%
G36*
X126902047Y-77278541D02*
G01*
X126957982Y-77320412D01*
X126962005Y-77326730D01*
X126962221Y-77326586D01*
X127053210Y-77462760D01*
X127053213Y-77462764D01*
X127164707Y-77574258D01*
X127164711Y-77574261D01*
X127295814Y-77661862D01*
X127295827Y-77661869D01*
X127441498Y-77722207D01*
X127441503Y-77722209D01*
X127596153Y-77752971D01*
X127596156Y-77752972D01*
X127596158Y-77752972D01*
X127753844Y-77752972D01*
X127753845Y-77752971D01*
X127908497Y-77722209D01*
X128054179Y-77661866D01*
X128072686Y-77649500D01*
X128185875Y-77573870D01*
X128252553Y-77552992D01*
X128254766Y-77552972D01*
X130754375Y-77552972D01*
X130821414Y-77572657D01*
X130842056Y-77589291D01*
X135024139Y-81771374D01*
X135024149Y-81771385D01*
X135028479Y-81775715D01*
X135028480Y-81775716D01*
X135108481Y-81855717D01*
X135135359Y-81895943D01*
X135180604Y-82005176D01*
X135180609Y-82005185D01*
X135256617Y-82118939D01*
X135277495Y-82185617D01*
X135259010Y-82252997D01*
X135241196Y-82275511D01*
X132301527Y-85215181D01*
X132240204Y-85248666D01*
X132213846Y-85251500D01*
X124208500Y-85251500D01*
X124141461Y-85231815D01*
X124095706Y-85179011D01*
X124084500Y-85127500D01*
X124084500Y-84253500D01*
X127608641Y-84253500D01*
X128821270Y-84253500D01*
X129819270Y-84253500D01*
X131321270Y-84253500D01*
X131321270Y-83773500D01*
X129819270Y-83773500D01*
X129819270Y-84253500D01*
X128821270Y-84253500D01*
X128821270Y-83773500D01*
X128006155Y-83773500D01*
X127997274Y-83788318D01*
X127994016Y-83793463D01*
X127879183Y-83965322D01*
X127875678Y-83970298D01*
X127853745Y-83999871D01*
X127850001Y-84004669D01*
X127818912Y-84042551D01*
X127814938Y-84047158D01*
X127790207Y-84074445D01*
X127786009Y-84078854D01*
X127639854Y-84225009D01*
X127635445Y-84229207D01*
X127608641Y-84253500D01*
X124084500Y-84253500D01*
X124084500Y-83910600D01*
X124104185Y-83843561D01*
X124156989Y-83797806D01*
X124226147Y-83787862D01*
X124232515Y-83789854D01*
X124232689Y-83788983D01*
X124241622Y-83790759D01*
X124261608Y-83794735D01*
X124323518Y-83827117D01*
X124325100Y-83828671D01*
X124493035Y-83996606D01*
X124587124Y-84090695D01*
X124587127Y-84090697D01*
X124587128Y-84090698D01*
X124697750Y-84164613D01*
X124697753Y-84164614D01*
X124697761Y-84164620D01*
X124820694Y-84215540D01*
X124820698Y-84215540D01*
X124820699Y-84215541D01*
X124951196Y-84241500D01*
X124951199Y-84241500D01*
X125821932Y-84241500D01*
X125821933Y-84241499D01*
X125952436Y-84215541D01*
X126075369Y-84164620D01*
X126186006Y-84090695D01*
X126588263Y-83688436D01*
X126649586Y-83654952D01*
X126651691Y-83654513D01*
X126674697Y-83649937D01*
X126820379Y-83589594D01*
X126951489Y-83501989D01*
X127062989Y-83390489D01*
X127150594Y-83259379D01*
X127210937Y-83113697D01*
X127241700Y-82959042D01*
X127241700Y-82801358D01*
X127241178Y-82798735D01*
X127237187Y-82778670D01*
X127237471Y-82775500D01*
X132543906Y-82775500D01*
X133329823Y-82775500D01*
X133821270Y-82284053D01*
X133821270Y-81979889D01*
X133297753Y-81456372D01*
X133297545Y-81460610D01*
X133297097Y-81466681D01*
X133292294Y-81515451D01*
X133291549Y-81521494D01*
X133286145Y-81557921D01*
X133285104Y-81563916D01*
X133249584Y-81742488D01*
X133248251Y-81748426D01*
X133239304Y-81784145D01*
X133237681Y-81790010D01*
X133223455Y-81836909D01*
X133221545Y-81842691D01*
X133209138Y-81877365D01*
X133206947Y-81883044D01*
X133183314Y-81940094D01*
X133184817Y-81955343D01*
X133171799Y-82023990D01*
X133164516Y-82036391D01*
X133109030Y-82119430D01*
X133012827Y-82351681D01*
X132968985Y-82406085D01*
X132922456Y-82425846D01*
X132885184Y-82433259D01*
X132877921Y-82441274D01*
X132873722Y-82445684D01*
X132543906Y-82775500D01*
X127237471Y-82775500D01*
X127243414Y-82709078D01*
X127244243Y-82707024D01*
X127246336Y-82701972D01*
X127270612Y-82643365D01*
X127296571Y-82512860D01*
X127296571Y-82379798D01*
X127296571Y-81568510D01*
X127316256Y-81501471D01*
X127369060Y-81455716D01*
X127438218Y-81445772D01*
X127501774Y-81474797D01*
X127508238Y-81480815D01*
X127578118Y-81550695D01*
X127589897Y-81558565D01*
X127608682Y-81573983D01*
X128017305Y-81982606D01*
X128111394Y-82076695D01*
X128111397Y-82076697D01*
X128111398Y-82076698D01*
X128222020Y-82150613D01*
X128222023Y-82150614D01*
X128222031Y-82150620D01*
X128222037Y-82150622D01*
X128222038Y-82150623D01*
X128306522Y-82185617D01*
X128344964Y-82201540D01*
X128344968Y-82201540D01*
X128344969Y-82201541D01*
X128475466Y-82227500D01*
X128475469Y-82227500D01*
X130068116Y-82227500D01*
X130135155Y-82247185D01*
X130155797Y-82263819D01*
X130168670Y-82276692D01*
X130168678Y-82276698D01*
X130279300Y-82350613D01*
X130279302Y-82350614D01*
X130279311Y-82350620D01*
X130306706Y-82361967D01*
X130306707Y-82361968D01*
X130306708Y-82361968D01*
X130402244Y-82401541D01*
X130475865Y-82416185D01*
X130532744Y-82427499D01*
X130532748Y-82427500D01*
X130532749Y-82427500D01*
X131267252Y-82427500D01*
X131267253Y-82427499D01*
X131397756Y-82401541D01*
X131520689Y-82350620D01*
X131631326Y-82276695D01*
X132150695Y-81757326D01*
X132185619Y-81705058D01*
X132224620Y-81646689D01*
X132244211Y-81599391D01*
X132275541Y-81523756D01*
X132301500Y-81393251D01*
X132301500Y-81260189D01*
X132301500Y-80828472D01*
X132321185Y-80761433D01*
X132337815Y-80740794D01*
X132361102Y-80717508D01*
X132465122Y-80561831D01*
X132536773Y-80388851D01*
X132573300Y-80205216D01*
X132573300Y-80017984D01*
X132536773Y-79834349D01*
X132465122Y-79661369D01*
X132465121Y-79661368D01*
X132465118Y-79661362D01*
X132361102Y-79505692D01*
X132361099Y-79505688D01*
X132228711Y-79373300D01*
X132228707Y-79373297D01*
X132073037Y-79269281D01*
X132073028Y-79269276D01*
X131900051Y-79197627D01*
X131900043Y-79197625D01*
X131716420Y-79161100D01*
X131716416Y-79161100D01*
X131529184Y-79161100D01*
X131529179Y-79161100D01*
X131345556Y-79197625D01*
X131345548Y-79197627D01*
X131172571Y-79269276D01*
X131172562Y-79269281D01*
X131016892Y-79373297D01*
X131016888Y-79373300D01*
X130884500Y-79505688D01*
X130884497Y-79505692D01*
X130780481Y-79661362D01*
X130780476Y-79661371D01*
X130708827Y-79834348D01*
X130708825Y-79834356D01*
X130672300Y-80017979D01*
X130672300Y-80171007D01*
X130652615Y-80238046D01*
X130599811Y-80283801D01*
X130595753Y-80285568D01*
X130520823Y-80316604D01*
X130520814Y-80316609D01*
X130389125Y-80404602D01*
X130322447Y-80425480D01*
X130320234Y-80425500D01*
X129059973Y-80425500D01*
X128992934Y-80405815D01*
X128972292Y-80389181D01*
X128721466Y-80138355D01*
X128721463Y-80138351D01*
X128721463Y-80138352D01*
X128714396Y-80131285D01*
X128714396Y-80131284D01*
X128602592Y-80019480D01*
X128602591Y-80019479D01*
X128602589Y-80019478D01*
X128599510Y-80017700D01*
X128573831Y-79997995D01*
X127455120Y-78879284D01*
X126286949Y-77711114D01*
X126253465Y-77649792D01*
X126258449Y-77580100D01*
X126300321Y-77524167D01*
X126350440Y-77501817D01*
X126368377Y-77498248D01*
X126471497Y-77477737D01*
X126617179Y-77417394D01*
X126748289Y-77329789D01*
X126771035Y-77307042D01*
X126832356Y-77273558D01*
X126902047Y-77278541D01*
G37*
%TD.AperFunction*%
%TA.AperFunction,Conductor*%
G36*
X144912661Y-73545185D02*
G01*
X144933303Y-73561819D01*
X147418181Y-76046697D01*
X147451666Y-76108020D01*
X147454500Y-76134378D01*
X147454500Y-96454108D01*
X147454500Y-96585892D01*
X147473018Y-96655000D01*
X147488608Y-96713185D01*
X147488610Y-96713190D01*
X147498865Y-96730953D01*
X147515336Y-96798853D01*
X147492483Y-96864880D01*
X147483230Y-96876362D01*
X145278301Y-99301783D01*
X145218640Y-99338147D01*
X145148790Y-99336483D01*
X145098867Y-99306053D01*
X145087316Y-99294502D01*
X145087314Y-99294500D01*
X145007810Y-99248598D01*
X144973187Y-99228608D01*
X144909539Y-99211554D01*
X144845892Y-99194500D01*
X104840892Y-99194500D01*
X104709108Y-99194500D01*
X104581811Y-99228608D01*
X104506315Y-99272196D01*
X104438415Y-99288667D01*
X104372388Y-99265815D01*
X104352909Y-99248598D01*
X102207623Y-96908287D01*
X102103862Y-96795093D01*
X102073073Y-96732374D01*
X102075495Y-96679211D01*
X102079766Y-96663272D01*
X102100500Y-96585892D01*
X102100500Y-96454108D01*
X102100500Y-95275500D01*
X103098500Y-95275500D01*
X103821270Y-95275500D01*
X103821270Y-95192479D01*
X104819270Y-95192479D01*
X104838936Y-95175439D01*
X104845827Y-95169886D01*
X105018126Y-95040902D01*
X105025396Y-95035854D01*
X105070463Y-95006890D01*
X105078077Y-95002372D01*
X105140667Y-94968195D01*
X105148581Y-94964233D01*
X105197318Y-94941975D01*
X105205498Y-94938587D01*
X105402982Y-94864931D01*
X105410321Y-94862452D01*
X105455172Y-94848847D01*
X105462648Y-94846832D01*
X105523363Y-94832484D01*
X105530955Y-94830939D01*
X105577160Y-94823028D01*
X105584833Y-94821959D01*
X105688755Y-94810788D01*
X105692064Y-94810477D01*
X105712101Y-94808865D01*
X105715413Y-94808643D01*
X105742095Y-94807214D01*
X105745413Y-94807081D01*
X105765464Y-94806545D01*
X105768778Y-94806501D01*
X106321270Y-94806500D01*
X107319270Y-94806500D01*
X107591248Y-94806500D01*
X107594572Y-94806545D01*
X107614673Y-94807084D01*
X107617993Y-94807217D01*
X107644680Y-94808649D01*
X107647989Y-94808871D01*
X107667982Y-94810481D01*
X107671285Y-94810792D01*
X107775175Y-94821962D01*
X107782843Y-94823029D01*
X107829029Y-94830936D01*
X107836619Y-94832481D01*
X107897330Y-94846826D01*
X107904809Y-94848842D01*
X107949672Y-94862450D01*
X107957012Y-94864929D01*
X108154502Y-94938587D01*
X108162682Y-94941975D01*
X108211419Y-94964233D01*
X108219333Y-94968195D01*
X108277442Y-94999925D01*
X108297139Y-94990846D01*
X108301608Y-94988891D01*
X108337825Y-94973893D01*
X108342353Y-94972121D01*
X108369963Y-94961936D01*
X108374560Y-94960342D01*
X108613993Y-94882545D01*
X108618653Y-94881131D01*
X108620731Y-94880545D01*
X109819270Y-94880545D01*
X109821347Y-94881131D01*
X109826007Y-94882545D01*
X110065440Y-94960342D01*
X110070037Y-94961936D01*
X110097647Y-94972121D01*
X110102175Y-94973893D01*
X110138392Y-94988891D01*
X110142861Y-94990846D01*
X110169636Y-95003189D01*
X110174019Y-95005314D01*
X110398361Y-95119622D01*
X110402654Y-95121917D01*
X110428350Y-95136307D01*
X110432550Y-95138769D01*
X110465973Y-95159250D01*
X110470073Y-95161874D01*
X110490000Y-95175187D01*
X110509927Y-95161874D01*
X110514027Y-95159250D01*
X110547450Y-95138769D01*
X110551650Y-95136307D01*
X110577346Y-95121917D01*
X110581639Y-95119622D01*
X110805981Y-95005314D01*
X110810364Y-95003189D01*
X110837139Y-94990846D01*
X110841608Y-94988891D01*
X110877825Y-94973893D01*
X110882353Y-94972121D01*
X110909963Y-94961936D01*
X110914560Y-94960342D01*
X111153993Y-94882545D01*
X111158653Y-94881131D01*
X111186995Y-94873138D01*
X111191700Y-94871911D01*
X111200733Y-94869742D01*
X112319270Y-94869742D01*
X112328300Y-94871911D01*
X112333005Y-94873138D01*
X112361347Y-94881131D01*
X112366007Y-94882545D01*
X112605440Y-94960342D01*
X112610037Y-94961936D01*
X112637647Y-94972121D01*
X112642175Y-94973893D01*
X112678392Y-94988891D01*
X112682861Y-94990846D01*
X112709636Y-95003189D01*
X112714019Y-95005314D01*
X112938361Y-95119622D01*
X112942654Y-95121917D01*
X112968350Y-95136307D01*
X112972550Y-95138769D01*
X113005973Y-95159250D01*
X113010073Y-95161874D01*
X113030000Y-95175187D01*
X113049927Y-95161874D01*
X113054027Y-95159250D01*
X113087450Y-95138769D01*
X113091650Y-95136307D01*
X113117346Y-95121917D01*
X113121639Y-95119622D01*
X113345981Y-95005314D01*
X113350364Y-95003189D01*
X113377139Y-94990846D01*
X113381608Y-94988891D01*
X113417825Y-94973893D01*
X113422353Y-94972121D01*
X113449963Y-94961936D01*
X113454560Y-94960342D01*
X113693993Y-94882545D01*
X113698653Y-94881131D01*
X113726995Y-94873138D01*
X113731700Y-94871911D01*
X113769817Y-94862758D01*
X113774577Y-94861713D01*
X113803477Y-94855964D01*
X113808272Y-94855108D01*
X113821270Y-94853049D01*
X113821270Y-93773500D01*
X112319270Y-93773500D01*
X112319270Y-94869742D01*
X111200733Y-94869742D01*
X111229817Y-94862758D01*
X111234577Y-94861713D01*
X111263477Y-94855964D01*
X111268272Y-94855108D01*
X111321270Y-94846713D01*
X111321270Y-93773500D01*
X109819270Y-93773500D01*
X109819270Y-94880545D01*
X108620731Y-94880545D01*
X108646995Y-94873138D01*
X108651700Y-94871911D01*
X108689817Y-94862758D01*
X108694577Y-94861713D01*
X108723477Y-94855964D01*
X108728272Y-94855108D01*
X108821270Y-94840378D01*
X108821270Y-93773500D01*
X107319270Y-93773500D01*
X107319270Y-94806500D01*
X106321270Y-94806500D01*
X106321270Y-93773500D01*
X104819270Y-93773500D01*
X104819270Y-95192479D01*
X103821270Y-95192479D01*
X103821270Y-93773500D01*
X103098500Y-93773500D01*
X103098500Y-95275500D01*
X102100500Y-95275500D01*
X102100500Y-92775500D01*
X103098500Y-92775500D01*
X103821270Y-92775500D01*
X104819270Y-92775500D01*
X106321270Y-92775500D01*
X107319270Y-92775500D01*
X108821270Y-92775500D01*
X109819270Y-92775500D01*
X111321270Y-92775500D01*
X111321270Y-91450375D01*
X111299489Y-91447145D01*
X111293492Y-91446104D01*
X111090765Y-91405779D01*
X111084823Y-91404445D01*
X111049097Y-91395495D01*
X111043233Y-91393872D01*
X110996338Y-91379646D01*
X110990560Y-91377737D01*
X110955899Y-91365335D01*
X110950222Y-91363145D01*
X110832269Y-91314288D01*
X112319270Y-91314288D01*
X112319270Y-92775500D01*
X113821270Y-92775500D01*
X114819270Y-92775500D01*
X115131798Y-92775500D01*
X115124263Y-92754440D01*
X115122354Y-92748662D01*
X115108128Y-92701767D01*
X115106505Y-92695903D01*
X115097555Y-92660177D01*
X115096221Y-92654235D01*
X115055896Y-92451508D01*
X115054855Y-92445511D01*
X115049451Y-92409080D01*
X115048706Y-92403039D01*
X115043903Y-92354267D01*
X115043455Y-92348197D01*
X115041649Y-92311425D01*
X115041500Y-92305342D01*
X115041500Y-92098658D01*
X115041649Y-92092575D01*
X115043455Y-92055803D01*
X115043903Y-92049733D01*
X115048706Y-92000961D01*
X115049451Y-91994920D01*
X115054855Y-91958489D01*
X115055896Y-91952492D01*
X115096221Y-91749765D01*
X115097555Y-91743823D01*
X115106505Y-91708097D01*
X115108128Y-91702233D01*
X115122354Y-91655338D01*
X115124263Y-91649560D01*
X115136665Y-91614899D01*
X115138855Y-91609222D01*
X115217948Y-91418272D01*
X115220414Y-91412708D01*
X115236155Y-91379426D01*
X115238890Y-91373992D01*
X115241500Y-91369108D01*
X115241500Y-91273500D01*
X114819270Y-91273500D01*
X114819270Y-92775500D01*
X113821270Y-92775500D01*
X113821270Y-91280650D01*
X113819292Y-91281586D01*
X113813728Y-91284052D01*
X113622778Y-91363145D01*
X113617101Y-91365335D01*
X113582440Y-91377737D01*
X113576662Y-91379646D01*
X113529767Y-91393872D01*
X113523903Y-91395495D01*
X113488177Y-91404445D01*
X113482235Y-91405779D01*
X113279508Y-91446104D01*
X113273511Y-91447145D01*
X113237080Y-91452549D01*
X113231039Y-91453294D01*
X113182267Y-91458097D01*
X113176197Y-91458545D01*
X113139425Y-91460351D01*
X113133342Y-91460500D01*
X112926658Y-91460500D01*
X112920575Y-91460351D01*
X112883803Y-91458545D01*
X112877733Y-91458097D01*
X112828961Y-91453294D01*
X112822920Y-91452549D01*
X112786489Y-91447145D01*
X112780492Y-91446104D01*
X112577765Y-91405779D01*
X112571823Y-91404445D01*
X112536097Y-91395495D01*
X112530233Y-91393872D01*
X112483338Y-91379646D01*
X112477560Y-91377737D01*
X112442899Y-91365335D01*
X112437222Y-91363145D01*
X112319270Y-91314288D01*
X110832269Y-91314288D01*
X110759272Y-91284052D01*
X110753708Y-91281586D01*
X110736611Y-91273500D01*
X109819270Y-91273500D01*
X109819270Y-92775500D01*
X108821270Y-92775500D01*
X108821270Y-91273500D01*
X107319270Y-91273500D01*
X107319270Y-92775500D01*
X106321270Y-92775500D01*
X106321270Y-91273500D01*
X104819270Y-91273500D01*
X104819270Y-92775500D01*
X103821270Y-92775500D01*
X103821270Y-91273500D01*
X103098500Y-91273500D01*
X103098500Y-92775500D01*
X102100500Y-92775500D01*
X102100500Y-90275500D01*
X103098500Y-90275500D01*
X103821270Y-90275500D01*
X104819270Y-90275500D01*
X106321270Y-90275500D01*
X106321270Y-89583153D01*
X110742500Y-89583153D01*
X110742500Y-89740846D01*
X110773261Y-89895489D01*
X110773264Y-89895501D01*
X110833602Y-90041172D01*
X110833609Y-90041185D01*
X110921210Y-90172288D01*
X110921213Y-90172292D01*
X111032707Y-90283786D01*
X111032711Y-90283789D01*
X111163814Y-90371390D01*
X111163827Y-90371397D01*
X111281947Y-90420323D01*
X111309503Y-90431737D01*
X111464153Y-90462499D01*
X111464156Y-90462500D01*
X111464158Y-90462500D01*
X111621844Y-90462500D01*
X111621845Y-90462499D01*
X111776497Y-90431737D01*
X111889166Y-90385067D01*
X111922172Y-90371397D01*
X111922172Y-90371396D01*
X111922179Y-90371394D01*
X111947463Y-90354500D01*
X112053875Y-90283398D01*
X112120553Y-90262520D01*
X112122766Y-90262500D01*
X112450234Y-90262500D01*
X112517273Y-90282185D01*
X112519125Y-90283398D01*
X112650814Y-90371390D01*
X112650827Y-90371397D01*
X112768947Y-90420323D01*
X112796503Y-90431737D01*
X112951153Y-90462499D01*
X112951156Y-90462500D01*
X112951158Y-90462500D01*
X113108844Y-90462500D01*
X113108845Y-90462499D01*
X113263497Y-90431737D01*
X113376166Y-90385067D01*
X113409172Y-90371397D01*
X113409172Y-90371396D01*
X113409179Y-90371394D01*
X113540289Y-90283789D01*
X113651789Y-90172289D01*
X113739394Y-90041179D01*
X113799737Y-89895497D01*
X113830500Y-89740842D01*
X113830500Y-89583158D01*
X113830500Y-89583155D01*
X113830499Y-89583153D01*
X113830363Y-89582469D01*
X113799737Y-89428503D01*
X113779043Y-89378543D01*
X113739397Y-89282827D01*
X113739390Y-89282814D01*
X113651789Y-89151711D01*
X113651786Y-89151707D01*
X113540292Y-89040213D01*
X113540288Y-89040210D01*
X113409181Y-88952607D01*
X113409172Y-88952602D01*
X113263501Y-88892264D01*
X113263489Y-88892261D01*
X113108845Y-88861500D01*
X113108842Y-88861500D01*
X112951158Y-88861500D01*
X112951155Y-88861500D01*
X112796510Y-88892261D01*
X112796498Y-88892264D01*
X112650827Y-88952602D01*
X112650819Y-88952607D01*
X112519125Y-89040602D01*
X112452447Y-89061480D01*
X112450234Y-89061500D01*
X112122766Y-89061500D01*
X112055727Y-89041815D01*
X112053875Y-89040602D01*
X111922181Y-88952607D01*
X111922172Y-88952602D01*
X111776501Y-88892264D01*
X111776489Y-88892261D01*
X111621845Y-88861500D01*
X111621842Y-88861500D01*
X111464158Y-88861500D01*
X111464155Y-88861500D01*
X111309510Y-88892261D01*
X111309498Y-88892264D01*
X111163827Y-88952602D01*
X111163819Y-88952607D01*
X111032711Y-89040210D01*
X111032707Y-89040213D01*
X110921213Y-89151707D01*
X110921210Y-89151711D01*
X110833609Y-89282814D01*
X110833602Y-89282827D01*
X110773264Y-89428498D01*
X110773261Y-89428510D01*
X110742500Y-89583153D01*
X106321270Y-89583153D01*
X106321270Y-88773500D01*
X104819270Y-88773500D01*
X104819270Y-90275500D01*
X103821270Y-90275500D01*
X103821270Y-88773500D01*
X103098500Y-88773500D01*
X103098500Y-90275500D01*
X102100500Y-90275500D01*
X102100500Y-87775500D01*
X103098500Y-87775500D01*
X103821270Y-87775500D01*
X104819270Y-87775500D01*
X106321270Y-87775500D01*
X106321270Y-87214470D01*
X107319270Y-87214470D01*
X107319270Y-87775500D01*
X108821270Y-87775500D01*
X109819270Y-87775500D01*
X111321270Y-87775500D01*
X112319270Y-87775500D01*
X113821270Y-87775500D01*
X113821270Y-86273500D01*
X112319270Y-86273500D01*
X112319270Y-87775500D01*
X111321270Y-87775500D01*
X111321270Y-86273500D01*
X109819270Y-86273500D01*
X109819270Y-87775500D01*
X108821270Y-87775500D01*
X108821270Y-87036438D01*
X108786856Y-87070852D01*
X108772060Y-87083489D01*
X108625616Y-87189886D01*
X108609026Y-87200053D01*
X108447742Y-87282232D01*
X108429765Y-87289678D01*
X108257610Y-87345614D01*
X108238690Y-87350156D01*
X108059905Y-87378473D01*
X108040507Y-87380000D01*
X107859493Y-87380000D01*
X107840095Y-87378473D01*
X107661310Y-87350156D01*
X107642390Y-87345614D01*
X107470235Y-87289678D01*
X107452258Y-87282232D01*
X107319270Y-87214470D01*
X106321270Y-87214470D01*
X106321270Y-86273500D01*
X104819270Y-86273500D01*
X104819270Y-87775500D01*
X103821270Y-87775500D01*
X103821270Y-86273500D01*
X103098500Y-86273500D01*
X103098500Y-87775500D01*
X102100500Y-87775500D01*
X102100500Y-85275500D01*
X103098500Y-85275500D01*
X103821270Y-85275500D01*
X104819270Y-85275500D01*
X106321270Y-85275500D01*
X109819270Y-85275500D01*
X111321270Y-85275500D01*
X111321270Y-84631946D01*
X112319270Y-84631946D01*
X112319270Y-85275500D01*
X113821270Y-85275500D01*
X114819270Y-85275500D01*
X114968843Y-85275500D01*
X114999639Y-85244704D01*
X115004048Y-85240506D01*
X115031335Y-85215775D01*
X115035942Y-85211801D01*
X115073824Y-85180712D01*
X115078622Y-85176968D01*
X115108195Y-85155035D01*
X115113171Y-85151530D01*
X115285030Y-85036697D01*
X115290175Y-85033439D01*
X115321768Y-85014504D01*
X115327063Y-85011505D01*
X115370284Y-84988404D01*
X115375719Y-84985668D01*
X115409001Y-84969927D01*
X115414565Y-84967461D01*
X115568015Y-84903900D01*
X115593886Y-84807352D01*
X115596241Y-84799589D01*
X115612020Y-84753104D01*
X115614877Y-84745513D01*
X115639887Y-84685127D01*
X115643237Y-84677733D01*
X115664962Y-84633677D01*
X115668788Y-84626519D01*
X115731898Y-84517210D01*
X115756090Y-84475306D01*
X115725896Y-84323508D01*
X115724855Y-84317511D01*
X115719451Y-84281080D01*
X115718706Y-84275039D01*
X115713903Y-84226267D01*
X115713455Y-84220197D01*
X115711649Y-84183425D01*
X115711500Y-84177342D01*
X115711500Y-83970658D01*
X115711649Y-83964575D01*
X115713455Y-83927803D01*
X115713903Y-83921733D01*
X115718706Y-83872961D01*
X115719451Y-83866920D01*
X115724855Y-83830489D01*
X115725896Y-83824492D01*
X115736039Y-83773500D01*
X114819270Y-83773500D01*
X114819270Y-85275500D01*
X113821270Y-85275500D01*
X113821270Y-84307667D01*
X113675583Y-84405013D01*
X113670439Y-84408270D01*
X113638847Y-84427205D01*
X113633551Y-84430205D01*
X113590330Y-84453306D01*
X113584895Y-84456042D01*
X113551615Y-84471782D01*
X113546052Y-84474248D01*
X113327804Y-84564649D01*
X113322128Y-84566839D01*
X113287466Y-84579242D01*
X113281687Y-84581151D01*
X113234791Y-84595378D01*
X113228921Y-84597002D01*
X113193193Y-84605951D01*
X113187256Y-84607284D01*
X112955550Y-84653373D01*
X112949555Y-84654414D01*
X112913127Y-84659818D01*
X112907084Y-84660563D01*
X112858315Y-84665366D01*
X112852244Y-84665814D01*
X112815469Y-84667620D01*
X112809387Y-84667769D01*
X112573151Y-84667769D01*
X112567069Y-84667620D01*
X112530294Y-84665814D01*
X112524223Y-84665366D01*
X112475454Y-84660563D01*
X112469411Y-84659818D01*
X112432983Y-84654414D01*
X112426988Y-84653373D01*
X112319270Y-84631946D01*
X111321270Y-84631946D01*
X111321270Y-84156000D01*
X111177831Y-84060158D01*
X111172855Y-84056653D01*
X111143282Y-84034720D01*
X111138485Y-84030977D01*
X111100602Y-83999888D01*
X111095994Y-83995913D01*
X111068707Y-83971182D01*
X111064298Y-83966984D01*
X110870814Y-83773500D01*
X109819270Y-83773500D01*
X109819270Y-85275500D01*
X106321270Y-85275500D01*
X106321270Y-84997529D01*
X107319270Y-84997529D01*
X107452258Y-84929768D01*
X107470235Y-84922322D01*
X107642390Y-84866386D01*
X107661310Y-84861844D01*
X107840095Y-84833527D01*
X107859493Y-84832000D01*
X108040507Y-84832000D01*
X108059905Y-84833527D01*
X108238690Y-84861844D01*
X108257610Y-84866386D01*
X108429765Y-84922322D01*
X108447742Y-84929768D01*
X108609026Y-85011947D01*
X108625616Y-85022114D01*
X108772060Y-85128511D01*
X108786856Y-85141148D01*
X108821270Y-85175562D01*
X108821270Y-83773500D01*
X107319270Y-83773500D01*
X107319270Y-84997529D01*
X106321270Y-84997529D01*
X106321270Y-83773500D01*
X104819270Y-83773500D01*
X104819270Y-85275500D01*
X103821270Y-85275500D01*
X103821270Y-83773500D01*
X103098500Y-83773500D01*
X103098500Y-85275500D01*
X102100500Y-85275500D01*
X102100500Y-82775500D01*
X107319270Y-82775500D01*
X108821270Y-82775500D01*
X108821270Y-81694379D01*
X110047500Y-81694379D01*
X110047500Y-81881620D01*
X110084025Y-82065243D01*
X110084027Y-82065251D01*
X110155676Y-82238228D01*
X110155681Y-82238237D01*
X110259697Y-82393907D01*
X110259700Y-82393911D01*
X110392088Y-82526299D01*
X110392092Y-82526302D01*
X110547762Y-82630318D01*
X110547768Y-82630321D01*
X110547769Y-82630322D01*
X110720749Y-82701973D01*
X110869489Y-82731559D01*
X110904379Y-82738499D01*
X110904383Y-82738500D01*
X110904384Y-82738500D01*
X111091617Y-82738500D01*
X111102671Y-82736300D01*
X111156381Y-82725617D01*
X111225969Y-82731843D01*
X111268252Y-82759553D01*
X111752659Y-83243961D01*
X111752663Y-83243964D01*
X111863293Y-83317885D01*
X111863306Y-83317892D01*
X111946002Y-83352145D01*
X111981142Y-83366701D01*
X112021368Y-83393578D01*
X112080000Y-83452210D01*
X112085362Y-83457572D01*
X112241031Y-83561587D01*
X112241037Y-83561590D01*
X112241038Y-83561591D01*
X112414018Y-83633242D01*
X112557786Y-83661839D01*
X112597648Y-83669768D01*
X112597652Y-83669769D01*
X112597653Y-83669769D01*
X112784886Y-83669769D01*
X112784887Y-83669768D01*
X112968520Y-83633242D01*
X113141500Y-83561591D01*
X113297177Y-83457571D01*
X113429571Y-83325177D01*
X113533591Y-83169500D01*
X113605242Y-82996520D01*
X113641769Y-82812885D01*
X113641769Y-82775500D01*
X114819270Y-82775500D01*
X116265037Y-82775500D01*
X116311346Y-82729191D01*
X116315755Y-82724993D01*
X116321270Y-82719994D01*
X116321270Y-81273500D01*
X114819270Y-81273500D01*
X114819270Y-82775500D01*
X113641769Y-82775500D01*
X113641769Y-82625653D01*
X113605242Y-82442018D01*
X113547086Y-82301618D01*
X113533592Y-82269040D01*
X113533587Y-82269031D01*
X113429571Y-82113361D01*
X113429568Y-82113357D01*
X113297180Y-81980969D01*
X113297176Y-81980966D01*
X113141506Y-81876950D01*
X113141497Y-81876945D01*
X112968520Y-81805296D01*
X112968512Y-81805294D01*
X112784889Y-81768769D01*
X112784885Y-81768769D01*
X112597653Y-81768769D01*
X112597648Y-81768769D01*
X112414025Y-81805294D01*
X112414013Y-81805297D01*
X112356623Y-81829069D01*
X112287153Y-81836538D01*
X112224674Y-81805262D01*
X112221490Y-81802189D01*
X111916631Y-81497330D01*
X111889751Y-81457101D01*
X111840325Y-81337775D01*
X111840318Y-81337762D01*
X111736302Y-81182092D01*
X111736299Y-81182088D01*
X111603911Y-81049700D01*
X111603907Y-81049697D01*
X111448237Y-80945681D01*
X111448228Y-80945676D01*
X111275251Y-80874027D01*
X111275243Y-80874025D01*
X111091620Y-80837500D01*
X111091616Y-80837500D01*
X110904384Y-80837500D01*
X110904379Y-80837500D01*
X110720756Y-80874025D01*
X110720748Y-80874027D01*
X110547771Y-80945676D01*
X110547762Y-80945681D01*
X110392092Y-81049697D01*
X110392088Y-81049700D01*
X110259700Y-81182088D01*
X110259697Y-81182092D01*
X110155681Y-81337762D01*
X110155676Y-81337771D01*
X110084027Y-81510748D01*
X110084025Y-81510756D01*
X110047500Y-81694379D01*
X108821270Y-81694379D01*
X108821270Y-81273500D01*
X107319270Y-81273500D01*
X107319270Y-82775500D01*
X102100500Y-82775500D01*
X102100500Y-77207135D01*
X103424500Y-77207135D01*
X103424500Y-79002870D01*
X103424501Y-79002876D01*
X103430908Y-79062483D01*
X103481202Y-79197328D01*
X103481206Y-79197335D01*
X103567452Y-79312544D01*
X103567455Y-79312547D01*
X103682664Y-79398793D01*
X103682671Y-79398797D01*
X103727618Y-79415561D01*
X103817517Y-79449091D01*
X103877127Y-79455500D01*
X103887685Y-79455499D01*
X103954723Y-79475179D01*
X103975372Y-79491818D01*
X104645591Y-80162037D01*
X104582007Y-80179075D01*
X104467993Y-80244901D01*
X104374901Y-80337993D01*
X104309075Y-80452007D01*
X104292037Y-80515591D01*
X103659728Y-79883282D01*
X103659727Y-79883282D01*
X103620380Y-79937439D01*
X103523904Y-80126782D01*
X103458242Y-80328869D01*
X103458242Y-80328872D01*
X103425000Y-80538753D01*
X103425000Y-80751246D01*
X103458242Y-80961127D01*
X103458242Y-80961130D01*
X103523904Y-81163217D01*
X103620375Y-81352550D01*
X103659728Y-81406716D01*
X104292037Y-80774408D01*
X104309075Y-80837993D01*
X104374901Y-80952007D01*
X104467993Y-81045099D01*
X104582007Y-81110925D01*
X104645590Y-81127962D01*
X104013282Y-81760269D01*
X104013282Y-81760270D01*
X104067449Y-81799624D01*
X104256782Y-81896095D01*
X104458870Y-81961757D01*
X104668754Y-81995000D01*
X104881246Y-81995000D01*
X105091127Y-81961757D01*
X105091130Y-81961757D01*
X105293217Y-81896095D01*
X105482554Y-81799622D01*
X105536716Y-81760270D01*
X105536717Y-81760270D01*
X104904408Y-81127962D01*
X104967993Y-81110925D01*
X105082007Y-81045099D01*
X105175099Y-80952007D01*
X105240925Y-80837993D01*
X105257962Y-80774408D01*
X105890270Y-81406717D01*
X105890270Y-81406716D01*
X105929622Y-81352554D01*
X106026095Y-81163217D01*
X106091757Y-80961130D01*
X106091757Y-80961127D01*
X106125000Y-80751246D01*
X106125000Y-80538753D01*
X106091757Y-80328872D01*
X106091757Y-80328869D01*
X106074416Y-80275500D01*
X107319270Y-80275500D01*
X108821270Y-80275500D01*
X112319270Y-80275500D01*
X113821270Y-80275500D01*
X114819270Y-80275500D01*
X116321270Y-80275500D01*
X116321270Y-80002733D01*
X116257191Y-79938654D01*
X116252993Y-79934245D01*
X116228262Y-79906958D01*
X116224288Y-79902351D01*
X116193199Y-79864469D01*
X116189455Y-79859671D01*
X116167522Y-79830098D01*
X116164017Y-79825122D01*
X116049184Y-79653263D01*
X116045926Y-79648118D01*
X116026991Y-79616525D01*
X116023992Y-79611230D01*
X116000891Y-79568009D01*
X115998155Y-79562574D01*
X115982414Y-79529292D01*
X115979948Y-79523728D01*
X115900855Y-79332778D01*
X115898665Y-79327101D01*
X115886263Y-79292440D01*
X115884354Y-79286662D01*
X115870128Y-79239767D01*
X115868505Y-79233903D01*
X115859555Y-79198177D01*
X115858221Y-79192235D01*
X115817896Y-78989508D01*
X115816855Y-78983511D01*
X115811451Y-78947080D01*
X115810706Y-78941039D01*
X115805903Y-78892267D01*
X115805455Y-78886197D01*
X115803649Y-78849425D01*
X115803500Y-78843342D01*
X115803500Y-78773500D01*
X114819270Y-78773500D01*
X114819270Y-80275500D01*
X113821270Y-80275500D01*
X113821270Y-78773500D01*
X112319270Y-78773500D01*
X112319270Y-80275500D01*
X108821270Y-80275500D01*
X108821270Y-80232160D01*
X109819270Y-80232160D01*
X110013686Y-80102256D01*
X110018830Y-80098999D01*
X110050422Y-80080064D01*
X110055718Y-80077064D01*
X110098939Y-80053963D01*
X110104374Y-80051227D01*
X110137654Y-80035487D01*
X110143217Y-80033021D01*
X110361465Y-79942620D01*
X110367141Y-79940430D01*
X110401803Y-79928027D01*
X110407582Y-79926118D01*
X110454478Y-79911891D01*
X110460348Y-79910267D01*
X110496076Y-79901318D01*
X110502013Y-79899985D01*
X110733719Y-79853896D01*
X110739714Y-79852855D01*
X110776142Y-79847451D01*
X110782185Y-79846706D01*
X110830954Y-79841903D01*
X110837025Y-79841455D01*
X110873800Y-79839649D01*
X110879882Y-79839500D01*
X111116118Y-79839500D01*
X111122200Y-79839649D01*
X111158975Y-79841455D01*
X111165046Y-79841903D01*
X111213815Y-79846706D01*
X111219858Y-79847451D01*
X111256286Y-79852855D01*
X111262281Y-79853896D01*
X111321270Y-79865629D01*
X111321270Y-78773500D01*
X109819270Y-78773500D01*
X109819270Y-80232160D01*
X108821270Y-80232160D01*
X108821270Y-78773500D01*
X107319270Y-78773500D01*
X107319270Y-80275500D01*
X106074416Y-80275500D01*
X106026095Y-80126782D01*
X105929624Y-79937449D01*
X105890270Y-79883282D01*
X105890269Y-79883282D01*
X105257962Y-80515590D01*
X105240925Y-80452007D01*
X105175099Y-80337993D01*
X105082007Y-80244901D01*
X104967993Y-80179075D01*
X104904409Y-80162037D01*
X105574627Y-79491818D01*
X105635950Y-79458333D01*
X105662307Y-79455499D01*
X105672872Y-79455499D01*
X105732483Y-79449091D01*
X105867331Y-79398796D01*
X105982546Y-79312546D01*
X106068796Y-79197331D01*
X106119091Y-79062483D01*
X106125500Y-79002873D01*
X106125499Y-77775500D01*
X107319270Y-77775500D01*
X108821270Y-77775500D01*
X109819270Y-77775500D01*
X111321270Y-77775500D01*
X112319270Y-77775500D01*
X113821270Y-77775500D01*
X114819270Y-77775500D01*
X116083420Y-77775500D01*
X116164017Y-77654878D01*
X116167522Y-77649902D01*
X116167820Y-77649500D01*
X119819270Y-77649500D01*
X121321270Y-77649500D01*
X121321270Y-77358355D01*
X121074415Y-77111500D01*
X119819270Y-77111500D01*
X119819270Y-77649500D01*
X116167820Y-77649500D01*
X116189455Y-77620329D01*
X116193199Y-77615531D01*
X116224288Y-77577649D01*
X116228262Y-77573042D01*
X116252993Y-77545755D01*
X116257191Y-77541346D01*
X116321270Y-77477267D01*
X116321270Y-77111500D01*
X114819270Y-77111500D01*
X114819270Y-77775500D01*
X113821270Y-77775500D01*
X113821270Y-77111500D01*
X112319270Y-77111500D01*
X112319270Y-77775500D01*
X111321270Y-77775500D01*
X111321270Y-77111500D01*
X109819270Y-77111500D01*
X109819270Y-77775500D01*
X108821270Y-77775500D01*
X108821270Y-77111500D01*
X107319270Y-77111500D01*
X107319270Y-77775500D01*
X106125499Y-77775500D01*
X106125499Y-77207128D01*
X106119091Y-77147517D01*
X106068796Y-77012669D01*
X106068795Y-77012668D01*
X106068793Y-77012664D01*
X105982547Y-76897455D01*
X105982544Y-76897452D01*
X105867335Y-76811206D01*
X105867328Y-76811202D01*
X105732482Y-76760908D01*
X105732483Y-76760908D01*
X105672883Y-76754501D01*
X105672881Y-76754500D01*
X105672873Y-76754500D01*
X105672864Y-76754500D01*
X103877129Y-76754500D01*
X103877123Y-76754501D01*
X103817516Y-76760908D01*
X103682671Y-76811202D01*
X103682664Y-76811206D01*
X103567455Y-76897452D01*
X103567452Y-76897455D01*
X103481206Y-77012664D01*
X103481202Y-77012671D01*
X103430908Y-77147517D01*
X103426510Y-77188431D01*
X103424501Y-77207123D01*
X103424500Y-77207135D01*
X102100500Y-77207135D01*
X102100500Y-76134108D01*
X102086079Y-76080287D01*
X102087742Y-76010439D01*
X102122061Y-75956793D01*
X102774032Y-75359153D01*
X104355500Y-75359153D01*
X104355500Y-75516846D01*
X104386261Y-75671489D01*
X104386264Y-75671501D01*
X104446602Y-75817172D01*
X104446609Y-75817185D01*
X104534210Y-75948288D01*
X104534213Y-75948292D01*
X104645707Y-76059786D01*
X104645711Y-76059789D01*
X104776814Y-76147390D01*
X104776827Y-76147397D01*
X104898288Y-76197707D01*
X104922503Y-76207737D01*
X105077153Y-76238499D01*
X105077156Y-76238500D01*
X105077158Y-76238500D01*
X105234844Y-76238500D01*
X105234845Y-76238499D01*
X105389497Y-76207737D01*
X105502166Y-76161067D01*
X105535172Y-76147397D01*
X105535172Y-76147396D01*
X105535179Y-76147394D01*
X105551510Y-76136482D01*
X105554628Y-76134399D01*
X105621305Y-76113520D01*
X105623520Y-76113500D01*
X121436437Y-76113500D01*
X121503476Y-76133185D01*
X121524118Y-76149819D01*
X123810118Y-78435819D01*
X123843603Y-78497142D01*
X123838619Y-78566834D01*
X123796747Y-78622767D01*
X123731283Y-78647184D01*
X123722437Y-78647500D01*
X119460057Y-78647500D01*
X119301942Y-78647500D01*
X119149215Y-78688423D01*
X119149214Y-78688423D01*
X119149212Y-78688424D01*
X119149209Y-78688425D01*
X119099096Y-78717359D01*
X119099095Y-78717360D01*
X119055689Y-78742420D01*
X119012285Y-78767479D01*
X119012282Y-78767481D01*
X118936422Y-78843342D01*
X118900480Y-78879284D01*
X118900478Y-78879286D01*
X118844192Y-78935572D01*
X118818509Y-78961255D01*
X118757185Y-78994739D01*
X118687494Y-78989755D01*
X118631560Y-78947883D01*
X118623440Y-78935572D01*
X118598438Y-78892267D01*
X118591520Y-78880284D01*
X118436573Y-78725337D01*
X118403088Y-78664014D01*
X118402637Y-78661847D01*
X118394992Y-78623412D01*
X118371737Y-78506503D01*
X118342459Y-78435819D01*
X118311397Y-78360827D01*
X118311390Y-78360814D01*
X118223789Y-78229711D01*
X118223786Y-78229707D01*
X118112292Y-78118213D01*
X118112288Y-78118210D01*
X117981185Y-78030609D01*
X117981172Y-78030602D01*
X117835501Y-77970264D01*
X117835489Y-77970261D01*
X117680845Y-77939500D01*
X117680842Y-77939500D01*
X117523158Y-77939500D01*
X117523155Y-77939500D01*
X117368510Y-77970261D01*
X117368498Y-77970264D01*
X117222827Y-78030602D01*
X117222814Y-78030609D01*
X117091711Y-78118210D01*
X117091707Y-78118213D01*
X116980213Y-78229707D01*
X116980210Y-78229711D01*
X116892609Y-78360814D01*
X116892602Y-78360827D01*
X116832264Y-78506498D01*
X116832261Y-78506510D01*
X116801500Y-78661153D01*
X116801500Y-78818846D01*
X116832261Y-78973489D01*
X116832264Y-78973501D01*
X116892602Y-79119172D01*
X116892609Y-79119185D01*
X116980210Y-79250288D01*
X116980213Y-79250292D01*
X117091707Y-79361786D01*
X117091711Y-79361789D01*
X117222814Y-79449390D01*
X117222827Y-79449397D01*
X117309955Y-79485486D01*
X117368503Y-79509737D01*
X117393385Y-79514686D01*
X117410691Y-79518129D01*
X117472602Y-79550513D01*
X117507176Y-79611229D01*
X117510500Y-79639746D01*
X117510500Y-80424210D01*
X117509499Y-80439489D01*
X117509499Y-80608046D01*
X117509500Y-80608059D01*
X117509500Y-83156152D01*
X117489815Y-83223191D01*
X117437011Y-83268946D01*
X117409692Y-83277769D01*
X117276508Y-83304261D01*
X117276498Y-83304264D01*
X117130827Y-83364602D01*
X117130814Y-83364609D01*
X116999711Y-83452210D01*
X116999707Y-83452213D01*
X116888213Y-83563707D01*
X116888210Y-83563711D01*
X116800609Y-83694814D01*
X116800602Y-83694827D01*
X116740264Y-83840498D01*
X116740261Y-83840510D01*
X116709500Y-83995153D01*
X116709500Y-84152846D01*
X116740261Y-84307489D01*
X116740264Y-84307501D01*
X116800602Y-84453172D01*
X116800609Y-84453185D01*
X116878242Y-84569370D01*
X116899120Y-84636047D01*
X116880636Y-84703428D01*
X116862822Y-84725942D01*
X116740286Y-84848478D01*
X116628481Y-84960282D01*
X116628479Y-84960285D01*
X116613825Y-84985668D01*
X116596189Y-85016214D01*
X116549423Y-85097215D01*
X116508499Y-85249943D01*
X116508499Y-85249945D01*
X116508499Y-85317176D01*
X116488814Y-85384215D01*
X116487601Y-85386067D01*
X116399609Y-85517755D01*
X116399602Y-85517768D01*
X116339264Y-85663439D01*
X116339261Y-85663448D01*
X116334138Y-85689206D01*
X116301752Y-85751117D01*
X116241036Y-85785690D01*
X116212521Y-85789013D01*
X116119448Y-85789013D01*
X115964803Y-85819774D01*
X115964791Y-85819777D01*
X115819120Y-85880115D01*
X115819107Y-85880122D01*
X115688004Y-85967723D01*
X115688000Y-85967726D01*
X115576506Y-86079220D01*
X115576503Y-86079224D01*
X115488902Y-86210327D01*
X115488895Y-86210340D01*
X115428557Y-86356011D01*
X115428554Y-86356023D01*
X115397793Y-86510666D01*
X115397793Y-86668359D01*
X115428554Y-86823002D01*
X115428557Y-86823014D01*
X115488895Y-86968685D01*
X115488902Y-86968698D01*
X115576503Y-87099801D01*
X115576506Y-87099805D01*
X115688000Y-87211299D01*
X115688004Y-87211302D01*
X115819107Y-87298903D01*
X115819120Y-87298910D01*
X115942841Y-87350156D01*
X115964796Y-87359250D01*
X116069113Y-87380000D01*
X116119446Y-87390012D01*
X116119449Y-87390013D01*
X116119451Y-87390013D01*
X116277137Y-87390013D01*
X116277138Y-87390012D01*
X116431790Y-87359250D01*
X116577472Y-87298907D01*
X116602428Y-87282232D01*
X116709168Y-87210911D01*
X116775846Y-87190033D01*
X116778059Y-87190013D01*
X117179702Y-87190013D01*
X117179718Y-87190014D01*
X117187314Y-87190014D01*
X117345425Y-87190014D01*
X117345428Y-87190014D01*
X117498156Y-87149090D01*
X117548275Y-87120152D01*
X117635087Y-87070033D01*
X117746891Y-86958229D01*
X117746891Y-86958227D01*
X117757099Y-86948020D01*
X117757101Y-86948017D01*
X118068506Y-86636612D01*
X118068511Y-86636608D01*
X118078714Y-86626404D01*
X118078716Y-86626404D01*
X118190520Y-86514600D01*
X118256817Y-86399769D01*
X118269577Y-86377669D01*
X118310500Y-86224941D01*
X118310500Y-86066827D01*
X118310500Y-85948095D01*
X118330185Y-85881056D01*
X118346814Y-85860418D01*
X118468506Y-85738725D01*
X118468510Y-85738723D01*
X118478714Y-85728518D01*
X118478716Y-85728518D01*
X118590520Y-85616714D01*
X118669577Y-85479782D01*
X118710500Y-85327055D01*
X118710500Y-80819097D01*
X118730185Y-80752058D01*
X118746819Y-80731416D01*
X119593416Y-79884819D01*
X119654739Y-79851334D01*
X119681097Y-79848500D01*
X121702499Y-79848500D01*
X121769538Y-79868185D01*
X121815293Y-79920989D01*
X121826499Y-79972500D01*
X121826499Y-80104103D01*
X121826500Y-80104116D01*
X121826500Y-80426273D01*
X121826499Y-80426291D01*
X121826499Y-80472903D01*
X121806814Y-80539942D01*
X121790180Y-80560584D01*
X120169481Y-82181282D01*
X120169479Y-82181285D01*
X120149442Y-82215991D01*
X120129404Y-82250698D01*
X120090423Y-82318215D01*
X120049499Y-82470943D01*
X120049499Y-82470945D01*
X120049499Y-82639046D01*
X120049500Y-82639059D01*
X120049500Y-86542234D01*
X120029815Y-86609273D01*
X120028602Y-86611125D01*
X119940609Y-86742814D01*
X119940602Y-86742827D01*
X119880264Y-86888498D01*
X119880261Y-86888508D01*
X119856126Y-87009840D01*
X119823740Y-87071751D01*
X119763024Y-87106325D01*
X119710317Y-87107265D01*
X119590844Y-87083500D01*
X119590842Y-87083500D01*
X119433158Y-87083500D01*
X119433155Y-87083500D01*
X119278510Y-87114261D01*
X119278498Y-87114264D01*
X119132827Y-87174602D01*
X119132814Y-87174609D01*
X119001711Y-87262210D01*
X119001707Y-87262213D01*
X118890213Y-87373707D01*
X118890210Y-87373711D01*
X118802609Y-87504814D01*
X118802602Y-87504827D01*
X118742264Y-87650498D01*
X118742261Y-87650510D01*
X118711500Y-87805153D01*
X118711500Y-87962846D01*
X118742261Y-88117489D01*
X118742264Y-88117501D01*
X118802602Y-88263172D01*
X118802609Y-88263185D01*
X118890602Y-88394874D01*
X118911480Y-88461551D01*
X118911500Y-88463765D01*
X118911500Y-91901330D01*
X118911499Y-91901348D01*
X118911499Y-92067054D01*
X118911498Y-92067054D01*
X118952423Y-92219786D01*
X118952424Y-92219787D01*
X118973405Y-92256127D01*
X119014430Y-92327185D01*
X119031481Y-92356717D01*
X119150349Y-92475585D01*
X119150355Y-92475590D01*
X119667746Y-92992981D01*
X119701231Y-93054304D01*
X119701683Y-93104852D01*
X119687500Y-93176159D01*
X119687500Y-93180500D01*
X119667815Y-93247539D01*
X119615011Y-93293294D01*
X119563500Y-93304500D01*
X117846457Y-93304500D01*
X117779418Y-93284815D01*
X117743355Y-93249391D01*
X117714302Y-93205911D01*
X117714299Y-93205907D01*
X117581911Y-93073519D01*
X117581907Y-93073516D01*
X117421166Y-92966112D01*
X117422354Y-92964333D01*
X117379407Y-92922164D01*
X117363933Y-92854029D01*
X117387753Y-92788345D01*
X117400005Y-92774072D01*
X117461789Y-92712289D01*
X117549394Y-92581179D01*
X117609737Y-92435497D01*
X117640500Y-92280842D01*
X117640500Y-92123158D01*
X117640500Y-92123155D01*
X117640499Y-92123153D01*
X117616193Y-92000961D01*
X117609737Y-91968503D01*
X117587484Y-91914779D01*
X117549397Y-91822827D01*
X117549390Y-91822814D01*
X117461398Y-91691125D01*
X117440520Y-91624447D01*
X117440500Y-91622234D01*
X117440500Y-89335059D01*
X117440501Y-89335046D01*
X117440501Y-89166945D01*
X117440501Y-89166943D01*
X117399577Y-89014215D01*
X117364007Y-88952606D01*
X117364007Y-88952605D01*
X117320524Y-88877290D01*
X117320521Y-88877287D01*
X117320520Y-88877284D01*
X117320517Y-88877281D01*
X117318068Y-88874089D01*
X117294825Y-88822791D01*
X117275150Y-88723882D01*
X117263737Y-88666503D01*
X117259061Y-88655213D01*
X117203397Y-88520827D01*
X117203390Y-88520814D01*
X117115789Y-88389711D01*
X117115786Y-88389707D01*
X117004292Y-88278213D01*
X117004288Y-88278210D01*
X116873185Y-88190609D01*
X116873172Y-88190602D01*
X116727501Y-88130264D01*
X116727489Y-88130261D01*
X116572845Y-88099500D01*
X116572842Y-88099500D01*
X116415158Y-88099500D01*
X116415155Y-88099500D01*
X116260510Y-88130261D01*
X116260498Y-88130264D01*
X116114827Y-88190602D01*
X116114814Y-88190609D01*
X115983711Y-88278210D01*
X115983707Y-88278213D01*
X115872213Y-88389707D01*
X115872210Y-88389711D01*
X115784609Y-88520814D01*
X115784602Y-88520827D01*
X115724264Y-88666498D01*
X115724261Y-88666510D01*
X115693500Y-88821153D01*
X115693500Y-88978846D01*
X115724261Y-89133489D01*
X115724264Y-89133501D01*
X115784602Y-89279172D01*
X115784609Y-89279185D01*
X115872210Y-89410288D01*
X115872213Y-89410292D01*
X115983707Y-89521786D01*
X115983711Y-89521789D01*
X116114816Y-89609391D01*
X116114817Y-89609391D01*
X116114821Y-89609394D01*
X116162953Y-89629330D01*
X116217355Y-89673170D01*
X116239421Y-89739464D01*
X116239500Y-89743891D01*
X116239500Y-91622234D01*
X116219815Y-91689273D01*
X116218602Y-91691125D01*
X116130609Y-91822814D01*
X116130602Y-91822827D01*
X116070264Y-91968498D01*
X116070261Y-91968510D01*
X116039500Y-92123153D01*
X116039500Y-92280846D01*
X116070261Y-92435489D01*
X116070264Y-92435501D01*
X116130602Y-92581172D01*
X116130609Y-92581185D01*
X116218210Y-92712288D01*
X116218213Y-92712292D01*
X116329708Y-92823787D01*
X116329711Y-92823789D01*
X116382470Y-92859041D01*
X116427274Y-92912652D01*
X116435983Y-92981977D01*
X116405828Y-93045005D01*
X116382474Y-93065243D01*
X116370089Y-93073518D01*
X116237700Y-93205907D01*
X116237697Y-93205911D01*
X116133681Y-93361581D01*
X116133676Y-93361590D01*
X116062027Y-93534567D01*
X116062025Y-93534575D01*
X116025500Y-93718198D01*
X116025500Y-93905439D01*
X116062025Y-94089062D01*
X116062027Y-94089070D01*
X116133676Y-94262047D01*
X116133681Y-94262056D01*
X116237697Y-94417726D01*
X116237700Y-94417730D01*
X116370088Y-94550118D01*
X116370092Y-94550121D01*
X116525762Y-94654137D01*
X116525771Y-94654142D01*
X116564956Y-94670373D01*
X116698749Y-94725792D01*
X116882379Y-94762318D01*
X116882383Y-94762319D01*
X116882384Y-94762319D01*
X117069617Y-94762319D01*
X117069618Y-94762318D01*
X117253251Y-94725792D01*
X117400162Y-94664938D01*
X117447615Y-94655500D01*
X120572837Y-94655500D01*
X120639876Y-94675185D01*
X120660518Y-94691819D01*
X121613662Y-95644963D01*
X121647147Y-95706286D01*
X121642163Y-95775978D01*
X121600291Y-95831911D01*
X121564300Y-95850574D01*
X121515111Y-95866557D01*
X121401585Y-95903444D01*
X121212179Y-95999951D01*
X121040213Y-96124890D01*
X120889890Y-96275213D01*
X120764949Y-96447182D01*
X120760484Y-96455946D01*
X120712509Y-96506742D01*
X120644688Y-96523536D01*
X120578553Y-96500998D01*
X120539516Y-96455946D01*
X120535050Y-96447182D01*
X120410109Y-96275213D01*
X120259786Y-96124890D01*
X120087820Y-95999951D01*
X119898414Y-95903444D01*
X119898413Y-95903443D01*
X119898412Y-95903443D01*
X119696243Y-95837754D01*
X119696241Y-95837753D01*
X119696240Y-95837753D01*
X119534957Y-95812208D01*
X119486287Y-95804500D01*
X119273713Y-95804500D01*
X119225042Y-95812208D01*
X119063760Y-95837753D01*
X118861585Y-95903444D01*
X118672179Y-95999951D01*
X118500213Y-96124890D01*
X118349890Y-96275213D01*
X118224949Y-96447182D01*
X118220484Y-96455946D01*
X118172509Y-96506742D01*
X118104688Y-96523536D01*
X118038553Y-96500998D01*
X117999516Y-96455946D01*
X117995050Y-96447182D01*
X117870109Y-96275213D01*
X117719786Y-96124890D01*
X117547820Y-95999951D01*
X117358414Y-95903444D01*
X117358413Y-95903443D01*
X117358412Y-95903443D01*
X117156243Y-95837754D01*
X117156241Y-95837753D01*
X117156240Y-95837753D01*
X116994957Y-95812208D01*
X116946287Y-95804500D01*
X116733713Y-95804500D01*
X116685042Y-95812208D01*
X116523760Y-95837753D01*
X116321585Y-95903444D01*
X116132179Y-95999951D01*
X115960213Y-96124890D01*
X115809890Y-96275213D01*
X115684949Y-96447182D01*
X115680484Y-96455946D01*
X115632509Y-96506742D01*
X115564688Y-96523536D01*
X115498553Y-96500998D01*
X115459516Y-96455946D01*
X115455050Y-96447182D01*
X115330109Y-96275213D01*
X115179786Y-96124890D01*
X115007820Y-95999951D01*
X114818414Y-95903444D01*
X114818413Y-95903443D01*
X114818412Y-95903443D01*
X114616243Y-95837754D01*
X114616241Y-95837753D01*
X114616240Y-95837753D01*
X114454957Y-95812208D01*
X114406287Y-95804500D01*
X114193713Y-95804500D01*
X114145042Y-95812208D01*
X113983760Y-95837753D01*
X113781585Y-95903444D01*
X113592179Y-95999951D01*
X113420213Y-96124890D01*
X113269890Y-96275213D01*
X113144949Y-96447182D01*
X113140484Y-96455946D01*
X113092509Y-96506742D01*
X113024688Y-96523536D01*
X112958553Y-96500998D01*
X112919516Y-96455946D01*
X112915050Y-96447182D01*
X112790109Y-96275213D01*
X112639786Y-96124890D01*
X112467820Y-95999951D01*
X112278414Y-95903444D01*
X112278413Y-95903443D01*
X112278412Y-95903443D01*
X112076243Y-95837754D01*
X112076241Y-95837753D01*
X112076240Y-95837753D01*
X111914957Y-95812208D01*
X111866287Y-95804500D01*
X111653713Y-95804500D01*
X111605042Y-95812208D01*
X111443760Y-95837753D01*
X111241585Y-95903444D01*
X111052179Y-95999951D01*
X110880213Y-96124890D01*
X110729890Y-96275213D01*
X110604949Y-96447182D01*
X110600484Y-96455946D01*
X110552509Y-96506742D01*
X110484688Y-96523536D01*
X110418553Y-96500998D01*
X110379516Y-96455946D01*
X110375050Y-96447182D01*
X110250109Y-96275213D01*
X110099786Y-96124890D01*
X109927820Y-95999951D01*
X109738414Y-95903444D01*
X109738413Y-95903443D01*
X109738412Y-95903443D01*
X109536243Y-95837754D01*
X109536241Y-95837753D01*
X109536240Y-95837753D01*
X109374957Y-95812208D01*
X109326287Y-95804500D01*
X109113713Y-95804500D01*
X109065042Y-95812208D01*
X108903760Y-95837753D01*
X108701585Y-95903444D01*
X108512179Y-95999951D01*
X108340215Y-96124889D01*
X108226673Y-96238431D01*
X108165350Y-96271915D01*
X108095658Y-96266931D01*
X108039725Y-96225059D01*
X108022810Y-96194082D01*
X107973797Y-96062671D01*
X107973793Y-96062664D01*
X107887547Y-95947455D01*
X107887544Y-95947452D01*
X107772335Y-95861206D01*
X107772328Y-95861202D01*
X107637482Y-95810908D01*
X107637483Y-95810908D01*
X107577883Y-95804501D01*
X107577881Y-95804500D01*
X107577873Y-95804500D01*
X107577864Y-95804500D01*
X105782129Y-95804500D01*
X105782123Y-95804501D01*
X105722516Y-95810908D01*
X105587671Y-95861202D01*
X105587664Y-95861206D01*
X105472455Y-95947452D01*
X105472452Y-95947455D01*
X105386206Y-96062664D01*
X105386202Y-96062671D01*
X105335908Y-96197517D01*
X105329501Y-96257116D01*
X105329500Y-96257135D01*
X105329500Y-98052870D01*
X105329501Y-98052876D01*
X105335908Y-98112483D01*
X105386202Y-98247328D01*
X105386206Y-98247335D01*
X105472452Y-98362544D01*
X105472455Y-98362547D01*
X105587664Y-98448793D01*
X105587671Y-98448797D01*
X105722517Y-98499091D01*
X105722516Y-98499091D01*
X105729444Y-98499835D01*
X105782127Y-98505500D01*
X107577872Y-98505499D01*
X107637483Y-98499091D01*
X107772331Y-98448796D01*
X107887546Y-98362546D01*
X107973796Y-98247331D01*
X108022810Y-98115916D01*
X108064681Y-98059984D01*
X108130145Y-98035566D01*
X108198418Y-98050417D01*
X108226673Y-98071569D01*
X108340213Y-98185109D01*
X108512179Y-98310048D01*
X108512181Y-98310049D01*
X108512184Y-98310051D01*
X108701588Y-98406557D01*
X108903757Y-98472246D01*
X109113713Y-98505500D01*
X109113714Y-98505500D01*
X109326286Y-98505500D01*
X109326287Y-98505500D01*
X109536243Y-98472246D01*
X109738412Y-98406557D01*
X109927816Y-98310051D01*
X110014138Y-98247335D01*
X110099786Y-98185109D01*
X110099788Y-98185106D01*
X110099792Y-98185104D01*
X110250104Y-98034792D01*
X110250106Y-98034788D01*
X110250109Y-98034786D01*
X110375048Y-97862820D01*
X110375047Y-97862820D01*
X110375051Y-97862816D01*
X110379514Y-97854054D01*
X110427488Y-97803259D01*
X110495308Y-97786463D01*
X110561444Y-97808999D01*
X110600486Y-97854056D01*
X110604951Y-97862820D01*
X110729890Y-98034786D01*
X110880213Y-98185109D01*
X111052179Y-98310048D01*
X111052181Y-98310049D01*
X111052184Y-98310051D01*
X111241588Y-98406557D01*
X111443757Y-98472246D01*
X111653713Y-98505500D01*
X111653714Y-98505500D01*
X111866286Y-98505500D01*
X111866287Y-98505500D01*
X112076243Y-98472246D01*
X112278412Y-98406557D01*
X112467816Y-98310051D01*
X112554138Y-98247335D01*
X112639786Y-98185109D01*
X112639788Y-98185106D01*
X112639792Y-98185104D01*
X112790104Y-98034792D01*
X112790106Y-98034788D01*
X112790109Y-98034786D01*
X112915048Y-97862820D01*
X112915047Y-97862820D01*
X112915051Y-97862816D01*
X112919514Y-97854054D01*
X112967488Y-97803259D01*
X113035308Y-97786463D01*
X113101444Y-97808999D01*
X113140486Y-97854056D01*
X113144951Y-97862820D01*
X113269890Y-98034786D01*
X113420213Y-98185109D01*
X113592179Y-98310048D01*
X113592181Y-98310049D01*
X113592184Y-98310051D01*
X113781588Y-98406557D01*
X113983757Y-98472246D01*
X114193713Y-98505500D01*
X114193714Y-98505500D01*
X114406286Y-98505500D01*
X114406287Y-98505500D01*
X114616243Y-98472246D01*
X114818412Y-98406557D01*
X115007816Y-98310051D01*
X115094138Y-98247335D01*
X115179786Y-98185109D01*
X115179788Y-98185106D01*
X115179792Y-98185104D01*
X115330104Y-98034792D01*
X115330106Y-98034788D01*
X115330109Y-98034786D01*
X115455048Y-97862820D01*
X115455047Y-97862820D01*
X115455051Y-97862816D01*
X115459514Y-97854054D01*
X115507488Y-97803259D01*
X115575308Y-97786463D01*
X115641444Y-97808999D01*
X115680486Y-97854056D01*
X115684951Y-97862820D01*
X115809890Y-98034786D01*
X115960213Y-98185109D01*
X116132179Y-98310048D01*
X116132181Y-98310049D01*
X116132184Y-98310051D01*
X116321588Y-98406557D01*
X116523757Y-98472246D01*
X116733713Y-98505500D01*
X116733714Y-98505500D01*
X116946286Y-98505500D01*
X116946287Y-98505500D01*
X117156243Y-98472246D01*
X117358412Y-98406557D01*
X117547816Y-98310051D01*
X117634138Y-98247335D01*
X117719786Y-98185109D01*
X117719788Y-98185106D01*
X117719792Y-98185104D01*
X117870104Y-98034792D01*
X117870106Y-98034788D01*
X117870109Y-98034786D01*
X117995048Y-97862820D01*
X117995047Y-97862820D01*
X117995051Y-97862816D01*
X117999514Y-97854054D01*
X118047488Y-97803259D01*
X118115308Y-97786463D01*
X118181444Y-97808999D01*
X118220486Y-97854056D01*
X118224951Y-97862820D01*
X118349890Y-98034786D01*
X118500213Y-98185109D01*
X118672179Y-98310048D01*
X118672181Y-98310049D01*
X118672184Y-98310051D01*
X118861588Y-98406557D01*
X119063757Y-98472246D01*
X119273713Y-98505500D01*
X119273714Y-98505500D01*
X119486286Y-98505500D01*
X119486287Y-98505500D01*
X119696243Y-98472246D01*
X119898412Y-98406557D01*
X120087816Y-98310051D01*
X120174138Y-98247335D01*
X120259786Y-98185109D01*
X120259788Y-98185106D01*
X120259792Y-98185104D01*
X120410104Y-98034792D01*
X120410106Y-98034788D01*
X120410109Y-98034786D01*
X120535048Y-97862820D01*
X120535047Y-97862820D01*
X120535051Y-97862816D01*
X120539514Y-97854054D01*
X120587488Y-97803259D01*
X120655308Y-97786463D01*
X120721444Y-97808999D01*
X120760486Y-97854056D01*
X120764951Y-97862820D01*
X120889890Y-98034786D01*
X121040213Y-98185109D01*
X121212179Y-98310048D01*
X121212181Y-98310049D01*
X121212184Y-98310051D01*
X121401588Y-98406557D01*
X121603757Y-98472246D01*
X121813713Y-98505500D01*
X121813714Y-98505500D01*
X122026286Y-98505500D01*
X122026287Y-98505500D01*
X122236243Y-98472246D01*
X122438412Y-98406557D01*
X122627816Y-98310051D01*
X122714138Y-98247335D01*
X122799786Y-98185109D01*
X122799788Y-98185106D01*
X122799792Y-98185104D01*
X122950104Y-98034792D01*
X122950106Y-98034788D01*
X122950109Y-98034786D01*
X123035890Y-97916717D01*
X123075051Y-97862816D01*
X123079793Y-97853508D01*
X123127763Y-97802711D01*
X123195583Y-97785911D01*
X123261719Y-97808445D01*
X123300763Y-97853500D01*
X123305373Y-97862547D01*
X123344728Y-97916716D01*
X123977037Y-97284408D01*
X123994075Y-97347993D01*
X124059901Y-97462007D01*
X124152993Y-97555099D01*
X124267007Y-97620925D01*
X124330590Y-97637962D01*
X123698282Y-98270269D01*
X123698282Y-98270270D01*
X123752449Y-98309624D01*
X123941782Y-98406095D01*
X124143870Y-98471757D01*
X124353754Y-98505000D01*
X124566246Y-98505000D01*
X124776127Y-98471757D01*
X124776130Y-98471757D01*
X124978217Y-98406095D01*
X125167554Y-98309622D01*
X125221716Y-98270270D01*
X125221717Y-98270270D01*
X124589408Y-97637962D01*
X124652993Y-97620925D01*
X124767007Y-97555099D01*
X124860099Y-97462007D01*
X124925925Y-97347993D01*
X124942962Y-97284408D01*
X125575270Y-97916717D01*
X125575270Y-97916716D01*
X125614622Y-97862555D01*
X125619232Y-97853507D01*
X125667205Y-97802709D01*
X125735025Y-97785912D01*
X125801161Y-97808447D01*
X125840204Y-97853504D01*
X125844949Y-97862817D01*
X125969890Y-98034786D01*
X126120213Y-98185109D01*
X126292179Y-98310048D01*
X126292181Y-98310049D01*
X126292184Y-98310051D01*
X126481588Y-98406557D01*
X126683757Y-98472246D01*
X126893713Y-98505500D01*
X126893714Y-98505500D01*
X127106286Y-98505500D01*
X127106287Y-98505500D01*
X127316243Y-98472246D01*
X127518412Y-98406557D01*
X127707816Y-98310051D01*
X127794138Y-98247335D01*
X127879786Y-98185109D01*
X127879788Y-98185106D01*
X127879792Y-98185104D01*
X128030104Y-98034792D01*
X128030106Y-98034788D01*
X128030109Y-98034786D01*
X128155048Y-97862820D01*
X128155047Y-97862820D01*
X128155051Y-97862816D01*
X128199541Y-97775500D01*
X129819270Y-97775500D01*
X130367000Y-97775500D01*
X130367000Y-97204454D01*
X130376439Y-97157002D01*
X130377268Y-97155000D01*
X130376439Y-97152998D01*
X130367000Y-97105546D01*
X130367000Y-96273500D01*
X129819270Y-96273500D01*
X129819270Y-97775500D01*
X128199541Y-97775500D01*
X128251557Y-97673412D01*
X128317246Y-97471243D01*
X128350500Y-97261287D01*
X128350500Y-97048713D01*
X128317246Y-96838757D01*
X128251557Y-96636588D01*
X128155051Y-96447184D01*
X128155049Y-96447181D01*
X128155048Y-96447179D01*
X128030109Y-96275213D01*
X128012051Y-96257155D01*
X131365000Y-96257155D01*
X131365000Y-96905000D01*
X132281988Y-96905000D01*
X132249075Y-96962007D01*
X132215000Y-97089174D01*
X132215000Y-97220826D01*
X132249075Y-97347993D01*
X132281988Y-97405000D01*
X131365000Y-97405000D01*
X131365000Y-98052844D01*
X131371401Y-98112372D01*
X131371403Y-98112379D01*
X131421645Y-98247086D01*
X131421649Y-98247093D01*
X131507809Y-98362187D01*
X131507812Y-98362190D01*
X131622906Y-98448350D01*
X131622913Y-98448354D01*
X131757620Y-98498596D01*
X131757627Y-98498598D01*
X131817155Y-98504999D01*
X131817172Y-98505000D01*
X132465000Y-98505000D01*
X132465000Y-97588012D01*
X132522007Y-97620925D01*
X132649174Y-97655000D01*
X132780826Y-97655000D01*
X132907993Y-97620925D01*
X132965000Y-97588012D01*
X132965000Y-98505000D01*
X133612828Y-98505000D01*
X133612844Y-98504999D01*
X133672372Y-98498598D01*
X133672379Y-98498596D01*
X133807086Y-98448354D01*
X133807093Y-98448350D01*
X133922187Y-98362190D01*
X133922190Y-98362187D01*
X134008350Y-98247093D01*
X134008354Y-98247086D01*
X134057422Y-98115529D01*
X134099293Y-98059595D01*
X134164757Y-98035178D01*
X134233030Y-98050030D01*
X134261285Y-98071181D01*
X134375213Y-98185109D01*
X134547179Y-98310048D01*
X134547181Y-98310049D01*
X134547184Y-98310051D01*
X134736588Y-98406557D01*
X134938757Y-98472246D01*
X135148713Y-98505500D01*
X135148714Y-98505500D01*
X135361286Y-98505500D01*
X135361287Y-98505500D01*
X135571243Y-98472246D01*
X135773412Y-98406557D01*
X135962816Y-98310051D01*
X136049138Y-98247335D01*
X136134786Y-98185109D01*
X136134788Y-98185106D01*
X136134792Y-98185104D01*
X136285104Y-98034792D01*
X136285106Y-98034788D01*
X136285109Y-98034786D01*
X136410048Y-97862820D01*
X136410047Y-97862820D01*
X136410051Y-97862816D01*
X136414514Y-97854054D01*
X136462488Y-97803259D01*
X136530308Y-97786463D01*
X136596444Y-97808999D01*
X136635486Y-97854056D01*
X136639951Y-97862820D01*
X136764890Y-98034786D01*
X136915213Y-98185109D01*
X137087179Y-98310048D01*
X137087181Y-98310049D01*
X137087184Y-98310051D01*
X137276588Y-98406557D01*
X137478757Y-98472246D01*
X137688713Y-98505500D01*
X137688714Y-98505500D01*
X137901286Y-98505500D01*
X137901287Y-98505500D01*
X138111243Y-98472246D01*
X138313412Y-98406557D01*
X138502816Y-98310051D01*
X138589138Y-98247335D01*
X138674786Y-98185109D01*
X138674788Y-98185106D01*
X138674792Y-98185104D01*
X138825104Y-98034792D01*
X138825106Y-98034788D01*
X138825109Y-98034786D01*
X138950048Y-97862820D01*
X138950047Y-97862820D01*
X138950051Y-97862816D01*
X138954514Y-97854054D01*
X139002488Y-97803259D01*
X139070308Y-97786463D01*
X139136444Y-97808999D01*
X139175486Y-97854056D01*
X139179951Y-97862820D01*
X139304890Y-98034786D01*
X139455213Y-98185109D01*
X139627179Y-98310048D01*
X139627181Y-98310049D01*
X139627184Y-98310051D01*
X139816588Y-98406557D01*
X140018757Y-98472246D01*
X140228713Y-98505500D01*
X140228714Y-98505500D01*
X140441286Y-98505500D01*
X140441287Y-98505500D01*
X140651243Y-98472246D01*
X140853412Y-98406557D01*
X141042816Y-98310051D01*
X141129138Y-98247335D01*
X141214786Y-98185109D01*
X141214788Y-98185106D01*
X141214792Y-98185104D01*
X141365104Y-98034792D01*
X141365106Y-98034788D01*
X141365109Y-98034786D01*
X141490048Y-97862820D01*
X141490047Y-97862820D01*
X141490051Y-97862816D01*
X141586557Y-97673412D01*
X141652246Y-97471243D01*
X141685500Y-97261287D01*
X141685500Y-97048713D01*
X141652246Y-96838757D01*
X141586557Y-96636588D01*
X141490051Y-96447184D01*
X141490049Y-96447181D01*
X141490048Y-96447179D01*
X141365109Y-96275213D01*
X141363396Y-96273500D01*
X142516371Y-96273500D01*
X142517879Y-96277353D01*
X142528064Y-96304963D01*
X142529658Y-96309560D01*
X142607455Y-96548993D01*
X142608869Y-96553653D01*
X142616862Y-96581995D01*
X142618089Y-96586700D01*
X142627242Y-96624817D01*
X142628287Y-96629577D01*
X142634036Y-96658477D01*
X142634892Y-96663272D01*
X142674277Y-96911941D01*
X142674944Y-96916764D01*
X142678404Y-96945997D01*
X142678881Y-96950835D01*
X142681959Y-96989914D01*
X142682246Y-96994779D01*
X142683404Y-97024231D01*
X142683500Y-97029103D01*
X142683500Y-97280897D01*
X142683404Y-97285769D01*
X142682246Y-97315221D01*
X142681959Y-97320086D01*
X142678881Y-97359165D01*
X142678404Y-97364003D01*
X142674944Y-97393236D01*
X142674277Y-97398059D01*
X142634892Y-97646728D01*
X142634036Y-97651523D01*
X142628287Y-97680423D01*
X142627242Y-97685183D01*
X142618089Y-97723300D01*
X142616862Y-97728005D01*
X142608869Y-97756347D01*
X142607455Y-97761007D01*
X142602746Y-97775500D01*
X143821270Y-97775500D01*
X144819270Y-97775500D01*
X145146791Y-97775500D01*
X145934004Y-96909563D01*
X145911523Y-96914036D01*
X145906728Y-96914892D01*
X145658059Y-96954277D01*
X145653236Y-96954944D01*
X145624003Y-96958404D01*
X145619165Y-96958881D01*
X145580086Y-96961959D01*
X145575221Y-96962246D01*
X145545769Y-96963404D01*
X145540897Y-96963500D01*
X145289103Y-96963500D01*
X145284231Y-96963404D01*
X145254779Y-96962246D01*
X145249914Y-96961959D01*
X145210835Y-96958881D01*
X145205997Y-96958404D01*
X145176764Y-96954944D01*
X145171941Y-96954277D01*
X144923272Y-96914892D01*
X144918477Y-96914036D01*
X144889577Y-96908287D01*
X144884817Y-96907242D01*
X144846700Y-96898089D01*
X144841995Y-96896862D01*
X144819270Y-96890453D01*
X144819270Y-97775500D01*
X143821270Y-97775500D01*
X143821270Y-96342550D01*
X143752220Y-96273500D01*
X142516371Y-96273500D01*
X141363396Y-96273500D01*
X141214786Y-96124890D01*
X141042820Y-95999951D01*
X140853414Y-95903444D01*
X140853413Y-95903443D01*
X140853412Y-95903443D01*
X140651243Y-95837754D01*
X140651241Y-95837753D01*
X140651240Y-95837753D01*
X140489957Y-95812208D01*
X140441287Y-95804500D01*
X140228713Y-95804500D01*
X140180042Y-95812208D01*
X140018760Y-95837753D01*
X139816585Y-95903444D01*
X139627179Y-95999951D01*
X139455213Y-96124890D01*
X139304890Y-96275213D01*
X139179949Y-96447182D01*
X139175484Y-96455946D01*
X139127509Y-96506742D01*
X139059688Y-96523536D01*
X138993553Y-96500998D01*
X138954516Y-96455946D01*
X138950050Y-96447182D01*
X138825109Y-96275213D01*
X138674786Y-96124890D01*
X138502820Y-95999951D01*
X138313414Y-95903444D01*
X138313413Y-95903443D01*
X138313412Y-95903443D01*
X138111243Y-95837754D01*
X138111241Y-95837753D01*
X138111240Y-95837753D01*
X137949957Y-95812208D01*
X137901287Y-95804500D01*
X137688713Y-95804500D01*
X137640042Y-95812208D01*
X137478760Y-95837753D01*
X137276585Y-95903444D01*
X137087179Y-95999951D01*
X136915213Y-96124890D01*
X136764890Y-96275213D01*
X136639949Y-96447182D01*
X136635484Y-96455946D01*
X136587509Y-96506742D01*
X136519688Y-96523536D01*
X136453553Y-96500998D01*
X136414516Y-96455946D01*
X136410050Y-96447182D01*
X136285109Y-96275213D01*
X136134786Y-96124890D01*
X135962820Y-95999951D01*
X135773414Y-95903444D01*
X135773413Y-95903443D01*
X135773412Y-95903443D01*
X135571243Y-95837754D01*
X135571241Y-95837753D01*
X135571240Y-95837753D01*
X135409957Y-95812208D01*
X135361287Y-95804500D01*
X135148713Y-95804500D01*
X135100042Y-95812208D01*
X134938760Y-95837753D01*
X134736585Y-95903444D01*
X134547179Y-95999951D01*
X134375215Y-96124889D01*
X134261285Y-96238819D01*
X134199962Y-96272303D01*
X134130270Y-96267319D01*
X134074337Y-96225447D01*
X134057422Y-96194470D01*
X134008354Y-96062913D01*
X134008350Y-96062906D01*
X133922190Y-95947812D01*
X133922187Y-95947809D01*
X133807093Y-95861649D01*
X133807086Y-95861645D01*
X133672379Y-95811403D01*
X133672372Y-95811401D01*
X133612844Y-95805000D01*
X132965000Y-95805000D01*
X132965000Y-96721988D01*
X132907993Y-96689075D01*
X132780826Y-96655000D01*
X132649174Y-96655000D01*
X132522007Y-96689075D01*
X132465000Y-96721988D01*
X132465000Y-95805000D01*
X131817155Y-95805000D01*
X131757627Y-95811401D01*
X131757620Y-95811403D01*
X131622913Y-95861645D01*
X131622906Y-95861649D01*
X131507812Y-95947809D01*
X131507809Y-95947812D01*
X131421649Y-96062906D01*
X131421645Y-96062913D01*
X131371403Y-96197620D01*
X131371401Y-96197627D01*
X131365000Y-96257155D01*
X128012051Y-96257155D01*
X127879786Y-96124890D01*
X127707820Y-95999951D01*
X127518414Y-95903444D01*
X127518413Y-95903443D01*
X127518412Y-95903443D01*
X127316243Y-95837754D01*
X127316241Y-95837753D01*
X127316240Y-95837753D01*
X127154957Y-95812208D01*
X127106287Y-95804500D01*
X126893713Y-95804500D01*
X126706707Y-95834119D01*
X126637413Y-95825164D01*
X126599628Y-95799327D01*
X125628095Y-94827793D01*
X127319270Y-94827793D01*
X127491728Y-94855108D01*
X127496523Y-94855964D01*
X127525423Y-94861713D01*
X127530183Y-94862758D01*
X127568300Y-94871911D01*
X127573005Y-94873138D01*
X127601347Y-94881131D01*
X127606007Y-94882545D01*
X127845440Y-94960342D01*
X127850037Y-94961936D01*
X127877647Y-94972121D01*
X127882175Y-94973893D01*
X127918392Y-94988891D01*
X127922861Y-94990846D01*
X127949636Y-95003189D01*
X127954019Y-95005314D01*
X128178361Y-95119622D01*
X128182654Y-95121917D01*
X128208350Y-95136307D01*
X128212550Y-95138769D01*
X128245973Y-95159250D01*
X128250073Y-95161874D01*
X128274568Y-95178240D01*
X128278565Y-95181026D01*
X128408597Y-95275500D01*
X128821270Y-95275500D01*
X129819270Y-95275500D01*
X130769410Y-95275500D01*
X142319270Y-95275500D01*
X143160251Y-95275500D01*
X143142545Y-95221008D01*
X143141131Y-95216347D01*
X143133138Y-95188005D01*
X143131911Y-95183300D01*
X143122758Y-95145183D01*
X143121713Y-95140423D01*
X143115964Y-95111523D01*
X143115108Y-95106728D01*
X143075723Y-94858059D01*
X143075056Y-94853236D01*
X143071596Y-94824003D01*
X143071119Y-94819165D01*
X143068041Y-94780086D01*
X143067754Y-94775221D01*
X143066596Y-94745769D01*
X143066500Y-94740897D01*
X143066500Y-94489103D01*
X143066596Y-94484231D01*
X143067754Y-94454779D01*
X143068041Y-94449914D01*
X143071119Y-94410835D01*
X143071596Y-94405997D01*
X143075056Y-94376764D01*
X143075723Y-94371941D01*
X143115108Y-94123272D01*
X143115964Y-94118477D01*
X143121713Y-94089577D01*
X143122758Y-94084817D01*
X143131911Y-94046700D01*
X143133138Y-94041995D01*
X143141131Y-94013653D01*
X143142545Y-94008993D01*
X143219062Y-93773500D01*
X142319270Y-93773500D01*
X142319270Y-95275500D01*
X130769410Y-95275500D01*
X130770876Y-95273808D01*
X130776908Y-95267329D01*
X130827329Y-95216908D01*
X130833808Y-95210876D01*
X130874293Y-95175796D01*
X130881184Y-95170243D01*
X131053368Y-95041345D01*
X131060638Y-95036297D01*
X131105705Y-95007333D01*
X131113319Y-95002815D01*
X131175909Y-94968638D01*
X131183823Y-94964677D01*
X131232559Y-94942419D01*
X131240739Y-94939030D01*
X131321270Y-94908993D01*
X131321270Y-94846238D01*
X134819270Y-94846238D01*
X135011941Y-94815723D01*
X135016764Y-94815056D01*
X135045997Y-94811596D01*
X135050835Y-94811119D01*
X135089914Y-94808041D01*
X135094779Y-94807754D01*
X135124231Y-94806596D01*
X135129103Y-94806500D01*
X135380897Y-94806500D01*
X135385769Y-94806596D01*
X135415221Y-94807754D01*
X135420086Y-94808041D01*
X135459165Y-94811119D01*
X135464003Y-94811596D01*
X135493236Y-94815056D01*
X135498059Y-94815723D01*
X135746728Y-94855108D01*
X135751523Y-94855964D01*
X135780423Y-94861713D01*
X135785183Y-94862758D01*
X135823300Y-94871911D01*
X135828005Y-94873138D01*
X135856347Y-94881131D01*
X135861007Y-94882545D01*
X136100440Y-94960342D01*
X136105037Y-94961936D01*
X136132647Y-94972121D01*
X136137175Y-94973893D01*
X136173392Y-94988891D01*
X136177861Y-94990846D01*
X136204636Y-95003189D01*
X136209019Y-95005314D01*
X136321270Y-95062508D01*
X136321270Y-94852574D01*
X137319270Y-94852574D01*
X137551941Y-94815723D01*
X137556764Y-94815056D01*
X137585997Y-94811596D01*
X137590835Y-94811119D01*
X137629914Y-94808041D01*
X137634779Y-94807754D01*
X137664231Y-94806596D01*
X137669103Y-94806500D01*
X137920897Y-94806500D01*
X137925769Y-94806596D01*
X137955221Y-94807754D01*
X137960086Y-94808041D01*
X137999165Y-94811119D01*
X138004003Y-94811596D01*
X138033236Y-94815056D01*
X138038059Y-94815723D01*
X138286728Y-94855108D01*
X138291523Y-94855964D01*
X138320423Y-94861713D01*
X138325183Y-94862758D01*
X138363300Y-94871911D01*
X138368005Y-94873138D01*
X138396347Y-94881131D01*
X138401007Y-94882545D01*
X138640440Y-94960342D01*
X138645037Y-94961936D01*
X138672647Y-94972121D01*
X138677175Y-94973893D01*
X138713392Y-94988891D01*
X138717861Y-94990846D01*
X138744636Y-95003189D01*
X138749019Y-95005314D01*
X138821270Y-95042127D01*
X138821270Y-94859784D01*
X139819270Y-94859784D01*
X139838477Y-94855964D01*
X139843272Y-94855108D01*
X140091941Y-94815723D01*
X140096764Y-94815056D01*
X140125997Y-94811596D01*
X140130835Y-94811119D01*
X140169914Y-94808041D01*
X140174779Y-94807754D01*
X140204231Y-94806596D01*
X140209103Y-94806500D01*
X140460897Y-94806500D01*
X140465769Y-94806596D01*
X140495221Y-94807754D01*
X140500086Y-94808041D01*
X140539165Y-94811119D01*
X140544003Y-94811596D01*
X140573236Y-94815056D01*
X140578059Y-94815723D01*
X140826728Y-94855108D01*
X140831523Y-94855964D01*
X140860423Y-94861713D01*
X140865183Y-94862758D01*
X140903300Y-94871911D01*
X140908005Y-94873138D01*
X140936347Y-94881131D01*
X140941007Y-94882545D01*
X141180440Y-94960342D01*
X141185037Y-94961936D01*
X141212647Y-94972121D01*
X141217175Y-94973893D01*
X141253392Y-94988891D01*
X141257861Y-94990846D01*
X141284636Y-95003189D01*
X141289019Y-95005314D01*
X141321270Y-95021746D01*
X141321270Y-93773500D01*
X139819270Y-93773500D01*
X139819270Y-94859784D01*
X138821270Y-94859784D01*
X138821270Y-93773500D01*
X137319270Y-93773500D01*
X137319270Y-94852574D01*
X136321270Y-94852574D01*
X136321270Y-93773500D01*
X134819270Y-93773500D01*
X134819270Y-94846238D01*
X131321270Y-94846238D01*
X131321270Y-94807000D01*
X132319270Y-94807000D01*
X132665546Y-94807000D01*
X132712998Y-94816439D01*
X132715000Y-94817268D01*
X132717002Y-94816439D01*
X132764454Y-94807000D01*
X133626177Y-94807000D01*
X133629491Y-94807044D01*
X133649539Y-94807580D01*
X133652855Y-94807713D01*
X133679542Y-94809142D01*
X133682856Y-94809364D01*
X133702905Y-94810977D01*
X133706217Y-94811289D01*
X133810069Y-94822455D01*
X133817738Y-94823522D01*
X133821270Y-94824126D01*
X133821270Y-93773500D01*
X132319270Y-93773500D01*
X132319270Y-94807000D01*
X131321270Y-94807000D01*
X131321270Y-93773500D01*
X129819270Y-93773500D01*
X129819270Y-95275500D01*
X128821270Y-95275500D01*
X128821270Y-93773500D01*
X127319270Y-93773500D01*
X127319270Y-94827793D01*
X125628095Y-94827793D01*
X125525609Y-94725307D01*
X125525605Y-94725304D01*
X125414975Y-94651383D01*
X125414965Y-94651378D01*
X125292036Y-94600459D01*
X125292028Y-94600457D01*
X125161535Y-94574500D01*
X125161531Y-94574500D01*
X122505163Y-94574500D01*
X122438124Y-94554815D01*
X122417482Y-94538181D01*
X121334606Y-93455304D01*
X121331651Y-93452879D01*
X121330518Y-93451216D01*
X121330299Y-93450997D01*
X121330340Y-93450955D01*
X121292317Y-93395133D01*
X121289122Y-93340029D01*
X121287903Y-93339909D01*
X121288500Y-93333846D01*
X121288500Y-93176155D01*
X121288499Y-93176153D01*
X121274316Y-93104852D01*
X121257737Y-93021503D01*
X121236196Y-92969497D01*
X121197397Y-92875827D01*
X121197390Y-92875814D01*
X121130362Y-92775500D01*
X122319270Y-92775500D01*
X123821270Y-92775500D01*
X123821270Y-91551304D01*
X123805803Y-91550545D01*
X123799733Y-91550097D01*
X123750961Y-91545294D01*
X123744920Y-91544549D01*
X123708489Y-91539145D01*
X123702492Y-91538104D01*
X123499765Y-91497779D01*
X123493823Y-91496445D01*
X123458097Y-91487495D01*
X123452233Y-91485872D01*
X123405338Y-91471646D01*
X123399560Y-91469737D01*
X123364899Y-91457335D01*
X123359222Y-91455145D01*
X123168272Y-91376052D01*
X123162708Y-91373586D01*
X123129426Y-91357845D01*
X123123991Y-91355109D01*
X123119110Y-91352500D01*
X122884018Y-91352500D01*
X122883986Y-91352501D01*
X122662259Y-91352501D01*
X122654149Y-91352236D01*
X122605143Y-91349024D01*
X122597065Y-91348228D01*
X122532263Y-91339695D01*
X122524257Y-91338373D01*
X122502898Y-91334124D01*
X124819270Y-91334124D01*
X124819270Y-92775500D01*
X126321270Y-92775500D01*
X139819270Y-92775500D01*
X141321270Y-92775500D01*
X142319270Y-92775500D01*
X143173248Y-92775500D01*
X143142545Y-92681007D01*
X143141131Y-92676347D01*
X143133138Y-92648005D01*
X143131911Y-92643300D01*
X143122758Y-92605183D01*
X143121713Y-92600423D01*
X143115964Y-92571523D01*
X143115108Y-92566728D01*
X143075723Y-92318059D01*
X143075056Y-92313236D01*
X143071596Y-92284003D01*
X143071119Y-92279165D01*
X143068041Y-92240086D01*
X143067754Y-92235221D01*
X143066596Y-92205769D01*
X143066500Y-92200897D01*
X143066500Y-91949103D01*
X143066596Y-91944231D01*
X143067754Y-91914779D01*
X143068041Y-91909914D01*
X143071119Y-91870835D01*
X143071596Y-91865997D01*
X143075056Y-91836764D01*
X143075723Y-91831941D01*
X143115108Y-91583272D01*
X143115964Y-91578477D01*
X143121713Y-91549577D01*
X143122758Y-91544817D01*
X143131911Y-91506700D01*
X143133138Y-91501995D01*
X143141131Y-91473653D01*
X143142545Y-91468993D01*
X143206065Y-91273500D01*
X142319270Y-91273500D01*
X142319270Y-92775500D01*
X141321270Y-92775500D01*
X141321270Y-91273500D01*
X139819270Y-91273500D01*
X139819270Y-92775500D01*
X126321270Y-92775500D01*
X126321270Y-92259889D01*
X125334881Y-91273500D01*
X124915124Y-91273500D01*
X124865263Y-91306816D01*
X124860118Y-91310074D01*
X124828525Y-91329009D01*
X124823230Y-91332008D01*
X124819270Y-91334124D01*
X122502898Y-91334124D01*
X122476100Y-91328793D01*
X122468200Y-91326951D01*
X122319270Y-91287044D01*
X122319270Y-92775500D01*
X121130362Y-92775500D01*
X121109789Y-92744711D01*
X121109786Y-92744707D01*
X120993982Y-92628903D01*
X120994742Y-92628142D01*
X120972046Y-92601392D01*
X120968520Y-92595284D01*
X120968516Y-92595280D01*
X120968515Y-92595278D01*
X120852397Y-92479160D01*
X120852374Y-92479139D01*
X120148819Y-91775584D01*
X120115334Y-91714261D01*
X120112500Y-91687903D01*
X120112500Y-88463765D01*
X120132185Y-88396726D01*
X120133398Y-88394875D01*
X120222586Y-88261395D01*
X120276198Y-88216589D01*
X120345523Y-88207882D01*
X120408550Y-88238036D01*
X120413367Y-88242602D01*
X122405284Y-90234520D01*
X122405286Y-90234521D01*
X122405290Y-90234524D01*
X122474795Y-90274652D01*
X122542216Y-90313577D01*
X122694943Y-90354501D01*
X122694945Y-90354501D01*
X122860654Y-90354501D01*
X122860670Y-90354500D01*
X123372234Y-90354500D01*
X123439273Y-90374185D01*
X123441125Y-90375398D01*
X123572814Y-90463390D01*
X123572827Y-90463397D01*
X123668359Y-90502967D01*
X123718503Y-90523737D01*
X123868216Y-90553517D01*
X123873153Y-90554499D01*
X123873156Y-90554500D01*
X123873158Y-90554500D01*
X124030844Y-90554500D01*
X124030845Y-90554499D01*
X124185497Y-90523737D01*
X124331179Y-90463394D01*
X124462289Y-90375789D01*
X124573789Y-90264289D01*
X124661394Y-90133179D01*
X124721737Y-89987497D01*
X124752500Y-89832842D01*
X124752500Y-89675158D01*
X124752500Y-89675155D01*
X124734063Y-89582469D01*
X124740290Y-89512877D01*
X124783153Y-89457700D01*
X124849042Y-89434455D01*
X124917039Y-89450523D01*
X124943361Y-89470596D01*
X127785139Y-92312374D01*
X127785149Y-92312385D01*
X127789479Y-92316715D01*
X127789480Y-92316716D01*
X127901284Y-92428520D01*
X127901286Y-92428521D01*
X127901290Y-92428524D01*
X127996475Y-92483478D01*
X128038216Y-92507577D01*
X128150019Y-92537534D01*
X128190942Y-92548500D01*
X128190943Y-92548500D01*
X136289234Y-92548500D01*
X136356273Y-92568185D01*
X136358125Y-92569398D01*
X136489814Y-92657390D01*
X136489827Y-92657397D01*
X136635498Y-92717735D01*
X136635503Y-92717737D01*
X136771110Y-92744711D01*
X136790153Y-92748499D01*
X136790156Y-92748500D01*
X136790158Y-92748500D01*
X136947844Y-92748500D01*
X136947845Y-92748499D01*
X137102497Y-92717737D01*
X137248179Y-92657394D01*
X137379289Y-92569789D01*
X137490789Y-92458289D01*
X137578394Y-92327179D01*
X137584920Y-92311425D01*
X137622877Y-92219786D01*
X137638737Y-92181497D01*
X137669500Y-92026842D01*
X137669500Y-92013680D01*
X137689185Y-91946641D01*
X137724607Y-91910579D01*
X137776937Y-91875614D01*
X137888437Y-91764114D01*
X137976042Y-91633004D01*
X138036385Y-91487322D01*
X138067148Y-91332667D01*
X138067148Y-91174983D01*
X138067148Y-91174980D01*
X138067147Y-91174978D01*
X138041272Y-91044896D01*
X138036385Y-91020328D01*
X137994807Y-90919949D01*
X137976045Y-90874652D01*
X137976038Y-90874639D01*
X137888437Y-90743536D01*
X137888434Y-90743532D01*
X137776940Y-90632038D01*
X137776936Y-90632035D01*
X137645833Y-90544434D01*
X137645820Y-90544427D01*
X137500149Y-90484089D01*
X137500137Y-90484086D01*
X137345493Y-90453325D01*
X137345490Y-90453325D01*
X137187806Y-90453325D01*
X137187803Y-90453325D01*
X137033158Y-90484086D01*
X137033146Y-90484089D01*
X136887475Y-90544427D01*
X136887462Y-90544434D01*
X136755773Y-90632427D01*
X136689095Y-90653305D01*
X136686882Y-90653325D01*
X131727848Y-90653325D01*
X131660809Y-90633640D01*
X131615054Y-90580836D01*
X131606231Y-90553517D01*
X131579738Y-90420333D01*
X131579737Y-90420332D01*
X131579737Y-90420328D01*
X131577444Y-90414792D01*
X131519397Y-90274652D01*
X131519390Y-90274639D01*
X131431789Y-90143536D01*
X131431786Y-90143532D01*
X131320292Y-90032038D01*
X131320288Y-90032035D01*
X131189185Y-89944434D01*
X131189172Y-89944427D01*
X131043501Y-89884089D01*
X131043489Y-89884086D01*
X130888845Y-89853325D01*
X130888842Y-89853325D01*
X130731158Y-89853325D01*
X130731155Y-89853325D01*
X130576510Y-89884086D01*
X130576498Y-89884089D01*
X130430827Y-89944427D01*
X130430816Y-89944433D01*
X130357717Y-89993276D01*
X130291039Y-90014153D01*
X130223659Y-89995668D01*
X130201146Y-89977854D01*
X129589473Y-89366181D01*
X129555988Y-89304858D01*
X129560972Y-89235166D01*
X129602844Y-89179233D01*
X129668308Y-89154816D01*
X129677154Y-89154500D01*
X133251571Y-89154500D01*
X133251587Y-89154501D01*
X133259183Y-89154501D01*
X133417294Y-89154501D01*
X133417297Y-89154501D01*
X133570025Y-89113577D01*
X133621562Y-89083822D01*
X133621563Y-89083822D01*
X133706949Y-89034524D01*
X133706948Y-89034524D01*
X133706956Y-89034520D01*
X133818760Y-88922716D01*
X133818760Y-88922714D01*
X133828964Y-88912511D01*
X133828967Y-88912506D01*
X134416595Y-88324878D01*
X134477916Y-88291395D01*
X134547608Y-88296379D01*
X134603541Y-88338251D01*
X134627958Y-88403715D01*
X134625891Y-88436752D01*
X134595347Y-88590306D01*
X134595347Y-88747999D01*
X134626108Y-88902642D01*
X134626111Y-88902654D01*
X134686449Y-89048325D01*
X134686456Y-89048338D01*
X134774057Y-89179441D01*
X134774060Y-89179445D01*
X134885554Y-89290939D01*
X134885558Y-89290942D01*
X135016661Y-89378543D01*
X135016674Y-89378550D01*
X135137261Y-89428498D01*
X135162350Y-89438890D01*
X135317000Y-89469652D01*
X135317003Y-89469653D01*
X135317005Y-89469653D01*
X135474691Y-89469653D01*
X135474692Y-89469652D01*
X135629344Y-89438890D01*
X135775026Y-89378547D01*
X135906136Y-89290942D01*
X136017636Y-89179442D01*
X136105241Y-89048332D01*
X136106087Y-89046289D01*
X137319270Y-89046289D01*
X137319270Y-89455325D01*
X137369990Y-89455325D01*
X137376073Y-89455474D01*
X137412845Y-89457280D01*
X137418915Y-89457728D01*
X137467687Y-89462531D01*
X137473728Y-89463276D01*
X137510159Y-89468680D01*
X137516156Y-89469721D01*
X137718883Y-89510046D01*
X137724825Y-89511380D01*
X137760551Y-89520330D01*
X137766415Y-89521953D01*
X137813310Y-89536179D01*
X137819088Y-89538088D01*
X137853749Y-89550490D01*
X137859426Y-89552680D01*
X138050376Y-89631773D01*
X138055940Y-89634239D01*
X138089222Y-89649980D01*
X138094657Y-89652716D01*
X138137878Y-89675817D01*
X138143173Y-89678816D01*
X138174766Y-89697751D01*
X138179911Y-89701009D01*
X138351770Y-89815842D01*
X138356746Y-89819347D01*
X138386319Y-89841280D01*
X138391117Y-89845024D01*
X138428999Y-89876113D01*
X138433606Y-89880087D01*
X138460893Y-89904818D01*
X138465302Y-89909016D01*
X138611457Y-90055171D01*
X138615655Y-90059580D01*
X138640386Y-90086867D01*
X138644360Y-90091474D01*
X138675449Y-90129356D01*
X138679193Y-90134154D01*
X138701126Y-90163727D01*
X138704631Y-90168703D01*
X138775991Y-90275500D01*
X138821270Y-90275500D01*
X139819270Y-90275500D01*
X141321270Y-90275500D01*
X142319270Y-90275500D01*
X143186245Y-90275500D01*
X143142545Y-90141007D01*
X143141131Y-90136347D01*
X143133138Y-90108005D01*
X143131911Y-90103300D01*
X143122758Y-90065183D01*
X143121713Y-90060423D01*
X143115964Y-90031523D01*
X143115108Y-90026728D01*
X143075723Y-89778059D01*
X143075056Y-89773236D01*
X143071596Y-89744003D01*
X143071119Y-89739165D01*
X143068041Y-89700086D01*
X143067754Y-89695221D01*
X143066596Y-89665769D01*
X143066500Y-89660897D01*
X143066500Y-89428713D01*
X144064500Y-89428713D01*
X144064500Y-89641286D01*
X144094839Y-89832842D01*
X144097754Y-89851243D01*
X144159470Y-90041185D01*
X144163444Y-90053414D01*
X144259951Y-90242820D01*
X144384890Y-90414786D01*
X144535213Y-90565109D01*
X144707182Y-90690050D01*
X144715946Y-90694516D01*
X144766742Y-90742491D01*
X144783536Y-90810312D01*
X144760998Y-90876447D01*
X144715946Y-90915484D01*
X144707182Y-90919949D01*
X144535213Y-91044890D01*
X144384890Y-91195213D01*
X144259951Y-91367179D01*
X144163444Y-91556585D01*
X144097753Y-91758760D01*
X144064500Y-91968713D01*
X144064500Y-92181286D01*
X144092285Y-92356717D01*
X144097754Y-92391243D01*
X144159470Y-92581185D01*
X144163444Y-92593414D01*
X144259951Y-92782820D01*
X144384890Y-92954786D01*
X144535213Y-93105109D01*
X144707182Y-93230050D01*
X144715946Y-93234516D01*
X144766742Y-93282491D01*
X144783536Y-93350312D01*
X144760998Y-93416447D01*
X144715946Y-93455484D01*
X144707182Y-93459949D01*
X144535213Y-93584890D01*
X144384890Y-93735213D01*
X144259951Y-93907179D01*
X144163444Y-94096585D01*
X144097753Y-94298760D01*
X144080002Y-94410835D01*
X144064500Y-94508713D01*
X144064500Y-94721287D01*
X144065214Y-94725792D01*
X144088356Y-94871911D01*
X144097754Y-94931243D01*
X144158962Y-95119622D01*
X144163444Y-95133414D01*
X144259951Y-95322820D01*
X144384890Y-95494786D01*
X144535213Y-95645109D01*
X144707179Y-95770048D01*
X144707181Y-95770049D01*
X144707184Y-95770051D01*
X144896588Y-95866557D01*
X145098757Y-95932246D01*
X145308713Y-95965500D01*
X145308714Y-95965500D01*
X145521286Y-95965500D01*
X145521287Y-95965500D01*
X145731243Y-95932246D01*
X145933412Y-95866557D01*
X146122816Y-95770051D01*
X146210582Y-95706286D01*
X146294786Y-95645109D01*
X146294788Y-95645106D01*
X146294792Y-95645104D01*
X146445104Y-95494792D01*
X146445106Y-95494788D01*
X146445109Y-95494786D01*
X146570048Y-95322820D01*
X146570047Y-95322820D01*
X146570051Y-95322816D01*
X146666557Y-95133412D01*
X146732246Y-94931243D01*
X146765500Y-94721287D01*
X146765500Y-94508713D01*
X146732246Y-94298757D01*
X146666557Y-94096588D01*
X146570051Y-93907184D01*
X146570049Y-93907181D01*
X146570048Y-93907179D01*
X146445109Y-93735213D01*
X146294786Y-93584890D01*
X146122820Y-93459951D01*
X146122115Y-93459591D01*
X146114054Y-93455485D01*
X146063259Y-93407512D01*
X146046463Y-93339692D01*
X146068999Y-93273556D01*
X146114054Y-93234515D01*
X146122816Y-93230051D01*
X146191018Y-93180500D01*
X146294786Y-93105109D01*
X146294788Y-93105106D01*
X146294792Y-93105104D01*
X146445104Y-92954792D01*
X146445106Y-92954788D01*
X146445109Y-92954786D01*
X146570048Y-92782820D01*
X146570047Y-92782820D01*
X146570051Y-92782816D01*
X146666557Y-92593412D01*
X146732246Y-92391243D01*
X146765500Y-92181287D01*
X146765500Y-91968713D01*
X146732246Y-91758757D01*
X146666557Y-91556588D01*
X146570051Y-91367184D01*
X146570049Y-91367181D01*
X146570048Y-91367179D01*
X146445109Y-91195213D01*
X146294786Y-91044890D01*
X146122820Y-90919951D01*
X146122115Y-90919591D01*
X146114054Y-90915485D01*
X146063259Y-90867512D01*
X146046463Y-90799692D01*
X146068999Y-90733556D01*
X146114054Y-90694515D01*
X146122816Y-90690051D01*
X146144789Y-90674086D01*
X146294786Y-90565109D01*
X146294788Y-90565106D01*
X146294792Y-90565104D01*
X146445104Y-90414792D01*
X146445106Y-90414788D01*
X146445109Y-90414786D01*
X146570048Y-90242820D01*
X146570047Y-90242820D01*
X146570051Y-90242816D01*
X146666557Y-90053412D01*
X146732246Y-89851243D01*
X146765500Y-89641287D01*
X146765500Y-89428713D01*
X146732246Y-89218757D01*
X146666557Y-89016588D01*
X146570051Y-88827184D01*
X146570049Y-88827181D01*
X146570048Y-88827179D01*
X146445109Y-88655213D01*
X146331181Y-88541285D01*
X146297696Y-88479962D01*
X146302680Y-88410270D01*
X146344552Y-88354337D01*
X146375529Y-88337422D01*
X146507086Y-88288354D01*
X146507093Y-88288350D01*
X146622187Y-88202190D01*
X146622190Y-88202187D01*
X146708350Y-88087093D01*
X146708354Y-88087086D01*
X146758596Y-87952379D01*
X146758598Y-87952372D01*
X146764999Y-87892844D01*
X146765000Y-87892827D01*
X146765000Y-87245000D01*
X145848012Y-87245000D01*
X145880925Y-87187993D01*
X145915000Y-87060826D01*
X145915000Y-86929174D01*
X145880925Y-86802007D01*
X145848012Y-86745000D01*
X146765000Y-86745000D01*
X146765000Y-86097172D01*
X146764999Y-86097155D01*
X146758598Y-86037627D01*
X146758596Y-86037620D01*
X146708354Y-85902913D01*
X146708350Y-85902906D01*
X146622190Y-85787812D01*
X146622187Y-85787809D01*
X146507093Y-85701649D01*
X146507086Y-85701645D01*
X146372379Y-85651403D01*
X146372372Y-85651401D01*
X146312844Y-85645000D01*
X145665000Y-85645000D01*
X145665000Y-86561988D01*
X145607993Y-86529075D01*
X145480826Y-86495000D01*
X145349174Y-86495000D01*
X145222007Y-86529075D01*
X145165000Y-86561988D01*
X145165000Y-85645000D01*
X144517155Y-85645000D01*
X144457627Y-85651401D01*
X144457620Y-85651403D01*
X144322913Y-85701645D01*
X144322906Y-85701649D01*
X144207812Y-85787809D01*
X144207809Y-85787812D01*
X144121649Y-85902906D01*
X144121645Y-85902913D01*
X144071403Y-86037620D01*
X144071401Y-86037627D01*
X144065000Y-86097155D01*
X144065000Y-86745000D01*
X144981988Y-86745000D01*
X144949075Y-86802007D01*
X144915000Y-86929174D01*
X144915000Y-87060826D01*
X144949075Y-87187993D01*
X144981988Y-87245000D01*
X144065000Y-87245000D01*
X144065000Y-87892844D01*
X144071401Y-87952372D01*
X144071403Y-87952379D01*
X144121645Y-88087086D01*
X144121649Y-88087093D01*
X144207809Y-88202187D01*
X144207812Y-88202190D01*
X144322906Y-88288350D01*
X144322913Y-88288354D01*
X144454470Y-88337422D01*
X144510404Y-88379293D01*
X144534821Y-88444758D01*
X144519969Y-88513031D01*
X144498819Y-88541285D01*
X144384889Y-88655215D01*
X144259951Y-88827179D01*
X144163444Y-89016585D01*
X144097753Y-89218760D01*
X144064500Y-89428713D01*
X143066500Y-89428713D01*
X143066500Y-89409103D01*
X143066596Y-89404231D01*
X143067754Y-89374779D01*
X143068041Y-89369914D01*
X143071119Y-89330835D01*
X143071596Y-89325997D01*
X143075056Y-89296764D01*
X143075723Y-89291941D01*
X143115108Y-89043272D01*
X143115964Y-89038477D01*
X143121713Y-89009577D01*
X143122758Y-89004817D01*
X143131911Y-88966700D01*
X143133138Y-88961995D01*
X143141131Y-88933653D01*
X143142545Y-88928993D01*
X143193068Y-88773500D01*
X142319270Y-88773500D01*
X142319270Y-90275500D01*
X141321270Y-90275500D01*
X141321270Y-88773500D01*
X139819270Y-88773500D01*
X139819270Y-90275500D01*
X138821270Y-90275500D01*
X138821270Y-88773500D01*
X137790239Y-88773500D01*
X137776469Y-88784801D01*
X137771671Y-88788545D01*
X137742098Y-88810478D01*
X137737122Y-88813983D01*
X137565263Y-88928816D01*
X137560118Y-88932074D01*
X137528525Y-88951009D01*
X137523230Y-88954008D01*
X137480009Y-88977109D01*
X137474574Y-88979845D01*
X137441292Y-88995586D01*
X137435728Y-88998052D01*
X137319270Y-89046289D01*
X136106087Y-89046289D01*
X136165584Y-88902650D01*
X136196347Y-88747995D01*
X136196347Y-88732250D01*
X136216032Y-88665211D01*
X136232666Y-88644569D01*
X136441579Y-88435656D01*
X136666665Y-88210570D01*
X136727984Y-88177088D01*
X136730151Y-88176637D01*
X136730840Y-88176500D01*
X136730842Y-88176500D01*
X136885497Y-88145737D01*
X137031179Y-88085394D01*
X137162289Y-87997789D01*
X137273789Y-87886289D01*
X137361394Y-87755179D01*
X137421737Y-87609497D01*
X137452500Y-87454842D01*
X137452500Y-87297158D01*
X137452500Y-87297155D01*
X137452499Y-87297153D01*
X137445549Y-87262213D01*
X137421737Y-87142503D01*
X137417589Y-87132489D01*
X137361397Y-86996827D01*
X137361390Y-86996814D01*
X137273789Y-86865711D01*
X137273786Y-86865707D01*
X137162292Y-86754213D01*
X137162288Y-86754210D01*
X137031185Y-86666609D01*
X137031172Y-86666602D01*
X136885501Y-86606264D01*
X136885489Y-86606261D01*
X136730845Y-86575500D01*
X136730842Y-86575500D01*
X136573158Y-86575500D01*
X136465786Y-86596857D01*
X136396195Y-86590629D01*
X136341018Y-86547765D01*
X136317774Y-86481875D01*
X136333842Y-86413878D01*
X136353910Y-86387563D01*
X136467973Y-86273500D01*
X138077280Y-86273500D01*
X138086478Y-86285902D01*
X138089983Y-86290878D01*
X138204816Y-86462737D01*
X138208074Y-86467882D01*
X138227009Y-86499475D01*
X138230008Y-86504770D01*
X138253109Y-86547991D01*
X138255845Y-86553426D01*
X138271586Y-86586708D01*
X138274052Y-86592272D01*
X138353145Y-86783222D01*
X138355335Y-86788899D01*
X138367737Y-86823560D01*
X138369646Y-86829338D01*
X138383872Y-86876233D01*
X138385495Y-86882097D01*
X138394445Y-86917823D01*
X138395779Y-86923765D01*
X138436104Y-87126492D01*
X138437145Y-87132489D01*
X138442549Y-87168920D01*
X138443294Y-87174961D01*
X138448097Y-87223733D01*
X138448545Y-87229803D01*
X138450351Y-87266575D01*
X138450500Y-87272658D01*
X138450500Y-87479342D01*
X138450351Y-87485425D01*
X138448545Y-87522197D01*
X138448097Y-87528267D01*
X138443294Y-87577039D01*
X138442549Y-87583080D01*
X138437145Y-87619511D01*
X138436104Y-87625508D01*
X138406269Y-87775500D01*
X138821270Y-87775500D01*
X139819270Y-87775500D01*
X141321270Y-87775500D01*
X142319270Y-87775500D01*
X143067000Y-87775500D01*
X143067000Y-87044454D01*
X143076439Y-86997002D01*
X143077268Y-86995000D01*
X143076439Y-86992998D01*
X143067000Y-86945546D01*
X143067000Y-86273500D01*
X142319270Y-86273500D01*
X142319270Y-87775500D01*
X141321270Y-87775500D01*
X141321270Y-86273500D01*
X139819270Y-86273500D01*
X139819270Y-87775500D01*
X138821270Y-87775500D01*
X138821270Y-86273500D01*
X138077280Y-86273500D01*
X136467973Y-86273500D01*
X138407887Y-84333587D01*
X139819270Y-84333587D01*
X139819270Y-85275500D01*
X141321270Y-85275500D01*
X141321270Y-84951328D01*
X141306868Y-84938014D01*
X141303364Y-84934644D01*
X141125356Y-84756636D01*
X141121986Y-84753132D01*
X141102012Y-84731527D01*
X141098778Y-84727888D01*
X141073317Y-84698081D01*
X141070227Y-84694316D01*
X141051968Y-84671157D01*
X141049025Y-84667269D01*
X140901026Y-84463565D01*
X140898240Y-84459568D01*
X140881874Y-84435073D01*
X140879250Y-84430973D01*
X140858769Y-84397550D01*
X140856307Y-84393350D01*
X140841917Y-84367654D01*
X140839622Y-84363361D01*
X140725314Y-84139019D01*
X140723189Y-84134636D01*
X140710846Y-84107861D01*
X140708891Y-84103392D01*
X140693893Y-84067175D01*
X140692121Y-84062647D01*
X140681936Y-84035037D01*
X140680342Y-84030440D01*
X140602545Y-83791007D01*
X140601131Y-83786347D01*
X140597508Y-83773500D01*
X140379358Y-83773500D01*
X139819270Y-84333587D01*
X138407887Y-84333587D01*
X140308656Y-82432819D01*
X140369979Y-82399334D01*
X140396337Y-82396500D01*
X141558710Y-82396500D01*
X141625749Y-82416185D01*
X141671504Y-82468989D01*
X141681448Y-82538147D01*
X141669195Y-82576795D01*
X141623444Y-82666585D01*
X141623443Y-82666587D01*
X141623443Y-82666588D01*
X141609637Y-82709078D01*
X141557753Y-82868760D01*
X141524500Y-83078713D01*
X141524500Y-83291286D01*
X141557735Y-83501127D01*
X141557754Y-83501243D01*
X141620649Y-83694814D01*
X141623444Y-83703414D01*
X141719951Y-83892820D01*
X141844890Y-84064786D01*
X141995213Y-84215109D01*
X142167179Y-84340048D01*
X142167181Y-84340049D01*
X142167184Y-84340051D01*
X142356588Y-84436557D01*
X142558757Y-84502246D01*
X142768713Y-84535500D01*
X142768714Y-84535500D01*
X142981286Y-84535500D01*
X142981287Y-84535500D01*
X143191243Y-84502246D01*
X143393412Y-84436557D01*
X143582816Y-84340051D01*
X143637572Y-84300269D01*
X143754786Y-84215109D01*
X143754788Y-84215106D01*
X143754792Y-84215104D01*
X143905104Y-84064792D01*
X143905106Y-84064788D01*
X143905109Y-84064786D01*
X143990890Y-83946717D01*
X144030051Y-83892816D01*
X144034793Y-83883508D01*
X144082763Y-83832711D01*
X144150583Y-83815911D01*
X144216719Y-83838445D01*
X144255763Y-83883500D01*
X144260373Y-83892547D01*
X144299728Y-83946716D01*
X144932037Y-83314408D01*
X144949075Y-83377993D01*
X145014901Y-83492007D01*
X145107993Y-83585099D01*
X145222007Y-83650925D01*
X145285590Y-83667962D01*
X144653282Y-84300269D01*
X144653282Y-84300270D01*
X144707449Y-84339624D01*
X144896782Y-84436095D01*
X145098870Y-84501757D01*
X145308754Y-84535000D01*
X145521246Y-84535000D01*
X145731127Y-84501757D01*
X145731130Y-84501757D01*
X145933217Y-84436095D01*
X146122554Y-84339622D01*
X146176716Y-84300270D01*
X146176717Y-84300270D01*
X145544408Y-83667962D01*
X145607993Y-83650925D01*
X145722007Y-83585099D01*
X145815099Y-83492007D01*
X145880925Y-83377993D01*
X145897962Y-83314409D01*
X146530270Y-83946717D01*
X146530270Y-83946716D01*
X146569622Y-83892554D01*
X146666095Y-83703217D01*
X146731757Y-83501130D01*
X146731757Y-83501127D01*
X146765000Y-83291246D01*
X146765000Y-83078753D01*
X146731757Y-82868872D01*
X146731757Y-82868869D01*
X146666095Y-82666782D01*
X146569624Y-82477449D01*
X146530270Y-82423282D01*
X146530269Y-82423282D01*
X145897962Y-83055590D01*
X145880925Y-82992007D01*
X145815099Y-82877993D01*
X145722007Y-82784901D01*
X145607993Y-82719075D01*
X145544408Y-82702037D01*
X146176716Y-82069728D01*
X146122547Y-82030373D01*
X146122547Y-82030372D01*
X146113500Y-82025763D01*
X146062706Y-81977788D01*
X146045912Y-81909966D01*
X146068451Y-81843832D01*
X146113508Y-81804793D01*
X146122816Y-81800051D01*
X146240345Y-81714662D01*
X146294786Y-81675109D01*
X146294788Y-81675106D01*
X146294792Y-81675104D01*
X146445104Y-81524792D01*
X146445106Y-81524788D01*
X146445109Y-81524786D01*
X146570048Y-81352820D01*
X146570047Y-81352820D01*
X146570051Y-81352816D01*
X146666557Y-81163412D01*
X146732246Y-80961243D01*
X146765500Y-80751287D01*
X146765500Y-80538713D01*
X146732246Y-80328757D01*
X146666557Y-80126588D01*
X146570051Y-79937184D01*
X146570049Y-79937181D01*
X146570048Y-79937179D01*
X146445109Y-79765213D01*
X146294786Y-79614890D01*
X146122820Y-79489951D01*
X146122115Y-79489591D01*
X146114054Y-79485485D01*
X146063259Y-79437512D01*
X146046463Y-79369692D01*
X146068999Y-79303556D01*
X146114054Y-79264515D01*
X146122816Y-79260051D01*
X146209138Y-79197335D01*
X146294786Y-79135109D01*
X146294788Y-79135106D01*
X146294792Y-79135104D01*
X146445104Y-78984792D01*
X146445106Y-78984788D01*
X146445109Y-78984786D01*
X146570048Y-78812820D01*
X146570047Y-78812820D01*
X146570051Y-78812816D01*
X146666557Y-78623412D01*
X146732246Y-78421243D01*
X146765500Y-78211287D01*
X146765500Y-77998713D01*
X146732246Y-77788757D01*
X146666557Y-77586588D01*
X146570051Y-77397184D01*
X146570049Y-77397181D01*
X146570048Y-77397179D01*
X146445109Y-77225213D01*
X146294786Y-77074890D01*
X146122820Y-76949951D01*
X145933414Y-76853444D01*
X145933413Y-76853443D01*
X145933412Y-76853443D01*
X145731243Y-76787754D01*
X145731241Y-76787753D01*
X145731240Y-76787753D01*
X145569957Y-76762208D01*
X145521287Y-76754500D01*
X145308713Y-76754500D01*
X145260042Y-76762208D01*
X145098760Y-76787753D01*
X144896585Y-76853444D01*
X144707179Y-76949951D01*
X144535215Y-77074889D01*
X144421673Y-77188431D01*
X144360350Y-77221915D01*
X144290658Y-77216931D01*
X144234725Y-77175059D01*
X144217810Y-77144082D01*
X144168797Y-77012671D01*
X144168793Y-77012664D01*
X144082547Y-76897455D01*
X144082544Y-76897452D01*
X143967335Y-76811206D01*
X143967328Y-76811202D01*
X143832482Y-76760908D01*
X143832483Y-76760908D01*
X143772883Y-76754501D01*
X143772881Y-76754500D01*
X143772873Y-76754500D01*
X143772864Y-76754500D01*
X141977129Y-76754500D01*
X141977123Y-76754501D01*
X141917516Y-76760908D01*
X141782671Y-76811202D01*
X141782664Y-76811206D01*
X141667455Y-76897452D01*
X141667452Y-76897455D01*
X141581206Y-77012664D01*
X141581202Y-77012671D01*
X141530908Y-77147517D01*
X141526510Y-77188431D01*
X141524501Y-77207123D01*
X141524500Y-77207135D01*
X141524500Y-78900042D01*
X141504815Y-78967081D01*
X141488181Y-78987723D01*
X137086045Y-83389859D01*
X137024722Y-83423344D01*
X136955030Y-83418360D01*
X136899097Y-83376488D01*
X136876747Y-83326371D01*
X136865286Y-83268750D01*
X136793635Y-83095770D01*
X136793634Y-83095769D01*
X136793631Y-83095763D01*
X136689615Y-82940093D01*
X136689612Y-82940089D01*
X136570031Y-82820508D01*
X136536546Y-82759185D01*
X136541530Y-82689493D01*
X136570031Y-82645146D01*
X136705035Y-82510142D01*
X136849506Y-82365671D01*
X136849511Y-82365667D01*
X136859714Y-82355463D01*
X136859716Y-82355463D01*
X136971520Y-82243659D01*
X136975150Y-82237371D01*
X137039241Y-82126363D01*
X137039242Y-82126361D01*
X137046747Y-82113361D01*
X137050577Y-82106728D01*
X137091501Y-81954000D01*
X137091501Y-81795886D01*
X137091501Y-81788291D01*
X137091500Y-81788273D01*
X137091500Y-81298000D01*
X137087422Y-81282783D01*
X137087421Y-81282778D01*
X137075348Y-81237720D01*
X137050577Y-81145273D01*
X137047369Y-81139716D01*
X136971524Y-81008347D01*
X136971521Y-81008343D01*
X136971520Y-81008341D01*
X136859716Y-80896537D01*
X136859715Y-80896536D01*
X136855385Y-80892206D01*
X136855374Y-80892196D01*
X135907886Y-79944708D01*
X137319270Y-79944708D01*
X137548988Y-80174426D01*
X137549059Y-80174494D01*
X137650064Y-80275500D01*
X138789020Y-80275500D01*
X138821270Y-80243250D01*
X138821270Y-78773500D01*
X137319270Y-78773500D01*
X137319270Y-79944708D01*
X135907886Y-79944708D01*
X133407886Y-77444708D01*
X134819270Y-77444708D01*
X135150062Y-77775500D01*
X136321270Y-77775500D01*
X137319270Y-77775500D01*
X138821270Y-77775500D01*
X139819270Y-77775500D01*
X140526500Y-77775500D01*
X140526500Y-77193752D01*
X140526545Y-77190428D01*
X140527084Y-77170326D01*
X140527217Y-77167006D01*
X140528649Y-77140320D01*
X140528871Y-77137011D01*
X140530481Y-77117018D01*
X140530792Y-77113715D01*
X140541962Y-77009825D01*
X140543029Y-77002157D01*
X140550936Y-76955971D01*
X140552481Y-76948381D01*
X140566826Y-76887670D01*
X140568842Y-76880191D01*
X140582450Y-76835328D01*
X140584929Y-76827988D01*
X140658587Y-76630498D01*
X140661975Y-76622318D01*
X140684233Y-76573581D01*
X140688195Y-76565667D01*
X140722372Y-76503077D01*
X140726890Y-76495463D01*
X140755854Y-76450396D01*
X140760902Y-76443126D01*
X140887885Y-76273500D01*
X139819270Y-76273500D01*
X139819270Y-77775500D01*
X138821270Y-77775500D01*
X138821270Y-76273500D01*
X137319270Y-76273500D01*
X137319270Y-77775500D01*
X136321270Y-77775500D01*
X136321270Y-76273500D01*
X134819270Y-76273500D01*
X134819270Y-77444708D01*
X133407886Y-77444708D01*
X131953005Y-75989827D01*
X131953003Y-75989824D01*
X131834132Y-75870953D01*
X131834124Y-75870947D01*
X131740994Y-75817179D01*
X131740993Y-75817179D01*
X131697200Y-75791895D01*
X131544472Y-75750971D01*
X131386358Y-75750971D01*
X131378762Y-75750971D01*
X131378746Y-75750972D01*
X126681198Y-75750972D01*
X126681182Y-75750971D01*
X126673586Y-75750971D01*
X126515471Y-75750971D01*
X126439107Y-75771433D01*
X126362742Y-75791895D01*
X126362737Y-75791898D01*
X126225818Y-75870947D01*
X126225811Y-75870952D01*
X126223332Y-75873432D01*
X126220727Y-75874853D01*
X126219367Y-75875898D01*
X126219204Y-75875685D01*
X126162007Y-75906913D01*
X126159848Y-75907362D01*
X126004508Y-75938261D01*
X126004498Y-75938264D01*
X125858827Y-75998602D01*
X125858814Y-75998609D01*
X125727711Y-76086210D01*
X125727707Y-76086213D01*
X125616213Y-76197707D01*
X125616210Y-76197711D01*
X125528609Y-76328814D01*
X125528602Y-76328827D01*
X125468264Y-76474498D01*
X125468261Y-76474510D01*
X125437499Y-76629159D01*
X125437267Y-76631514D01*
X125436801Y-76632667D01*
X125436311Y-76635132D01*
X125435843Y-76635038D01*
X125411103Y-76696300D01*
X125354066Y-76736656D01*
X125284266Y-76739768D01*
X125226184Y-76707034D01*
X125205363Y-76686213D01*
X125205359Y-76686210D01*
X125074256Y-76598609D01*
X125074243Y-76598602D01*
X124928572Y-76538264D01*
X124928560Y-76538261D01*
X124773916Y-76507500D01*
X124773913Y-76507500D01*
X124616229Y-76507500D01*
X124616226Y-76507500D01*
X124461581Y-76538261D01*
X124461569Y-76538264D01*
X124315898Y-76598602D01*
X124315885Y-76598609D01*
X124184782Y-76686210D01*
X124184777Y-76686214D01*
X124165625Y-76705366D01*
X124104302Y-76738850D01*
X124034610Y-76733864D01*
X123990265Y-76705364D01*
X122560402Y-75275500D01*
X124819270Y-75275500D01*
X125145235Y-75275500D01*
X125147902Y-75273522D01*
X125152878Y-75270017D01*
X125324737Y-75155184D01*
X125329882Y-75151926D01*
X125361475Y-75132991D01*
X125366770Y-75129992D01*
X125409991Y-75106891D01*
X125415426Y-75104155D01*
X125448708Y-75088414D01*
X125454272Y-75085948D01*
X125645222Y-75006855D01*
X125650899Y-75004665D01*
X125667696Y-74998655D01*
X132319270Y-74998655D01*
X132361434Y-75022999D01*
X132368327Y-75027285D01*
X132409166Y-75054574D01*
X132415762Y-75059301D01*
X132467615Y-75099091D01*
X132473886Y-75104238D01*
X132510797Y-75136609D01*
X132516718Y-75142154D01*
X132650065Y-75275500D01*
X133821270Y-75275500D01*
X134819270Y-75275500D01*
X136321270Y-75275500D01*
X137319270Y-75275500D01*
X138821270Y-75275500D01*
X139819270Y-75275500D01*
X141321270Y-75275500D01*
X142319270Y-75275500D01*
X143821270Y-75275500D01*
X143821270Y-74532516D01*
X142319270Y-74532516D01*
X142319270Y-75275500D01*
X141321270Y-75275500D01*
X141321270Y-74532516D01*
X139819270Y-74532516D01*
X139819270Y-75275500D01*
X138821270Y-75275500D01*
X138821270Y-74532516D01*
X137319270Y-74532516D01*
X137319270Y-75275500D01*
X136321270Y-75275500D01*
X136321270Y-74532516D01*
X134819270Y-74532516D01*
X134819270Y-75275500D01*
X133821270Y-75275500D01*
X133821270Y-74532516D01*
X132319270Y-74532516D01*
X132319270Y-74998655D01*
X125667696Y-74998655D01*
X125685560Y-74992263D01*
X125691338Y-74990354D01*
X125738232Y-74976128D01*
X125744096Y-74974505D01*
X125779822Y-74965555D01*
X125785762Y-74964221D01*
X125807966Y-74959803D01*
X125892053Y-74911258D01*
X125899207Y-74907434D01*
X125943251Y-74885714D01*
X125950644Y-74882364D01*
X126011026Y-74857354D01*
X126018621Y-74854496D01*
X126065113Y-74838715D01*
X126072875Y-74836360D01*
X126288728Y-74778521D01*
X126296628Y-74776679D01*
X126321270Y-74771776D01*
X126321270Y-74532516D01*
X124819270Y-74532516D01*
X124819270Y-75275500D01*
X122560402Y-75275500D01*
X122198209Y-74913307D01*
X122198205Y-74913304D01*
X122087575Y-74839383D01*
X122087565Y-74839378D01*
X121964636Y-74788459D01*
X121964628Y-74788457D01*
X121834135Y-74762500D01*
X121834131Y-74762500D01*
X105623520Y-74762500D01*
X105556481Y-74742815D01*
X105554628Y-74741601D01*
X105535186Y-74728610D01*
X105535172Y-74728602D01*
X105389501Y-74668264D01*
X105389489Y-74668261D01*
X105234845Y-74637500D01*
X105234842Y-74637500D01*
X105077158Y-74637500D01*
X105077155Y-74637500D01*
X104922510Y-74668261D01*
X104922498Y-74668264D01*
X104776827Y-74728602D01*
X104776814Y-74728609D01*
X104645711Y-74816210D01*
X104645707Y-74816213D01*
X104534213Y-74927707D01*
X104534210Y-74927711D01*
X104446609Y-75058814D01*
X104446602Y-75058827D01*
X104386264Y-75204498D01*
X104386261Y-75204510D01*
X104355500Y-75359153D01*
X102774032Y-75359153D01*
X104738825Y-73558092D01*
X104801545Y-73527303D01*
X104822615Y-73525500D01*
X144845622Y-73525500D01*
X144912661Y-73545185D01*
G37*
%TD.AperFunction*%
%TD*%
M02*
